<svg width="271" height="300" viewBox="0 0 271 300" fill="none" xmlns="http://www.w3.org/2000/svg">
<g clip-path="url(#clip0_190_12485)">
<g opacity="0.31">
<path d="M175.859 221.028L138.629 211.05L111.372 238.314L121.348 275.553L158.581 285.532L185.838 258.268L175.859 221.028ZM158.127 283.844L122.587 274.317L113.062 238.765L139.08 212.74L174.623 222.267L184.145 257.816L158.127 283.844Z" fill="#6dd1fcff"/>
<path d="M211.983 0.12793H210.415L213.825 12.851L200.956 25.7256L183.37 21.0302L178.66 3.46018L181.974 0.12793H179.832L176.979 2.98154L182.128 22.251L201.396 27.4008L215.502 13.2933L211.983 0.12793Z" fill="#6dd1fcff"/>
<path d="M298.975 185.371L282.261 139.037L295.729 125.578L290.792 107.151L306.192 91.7466L316.556 94.5214L324.757 86.318L321.756 75.1096L310.55 72.1045L302.346 80.3109L305.117 90.6742L289.717 106.078L271.294 101.143L257.181 115.242L262.118 133.669L241.766 154.026L205.381 144.275L178.125 171.539L188.1 208.778L225.333 218.757L252.59 191.493L242.841 155.096L263.193 134.739L280.807 139.476L297.525 185.81L284.069 199.269L289.005 217.696L247.95 258.756L229.528 253.818L215.424 267.919L220.572 287.192L239.84 292.357L253.341 278.852L283.754 285.762L286.525 296.107L297.731 299.109L305.935 290.906L302.93 279.697L291.725 276.692L284.126 284.293L253.714 277.386L249.007 259.816L290.062 218.751L308.485 223.688L322.589 209.581L317.44 190.308L298.975 185.371ZM304.024 80.7623L310.989 73.7948L320.508 76.3455L323.058 85.8636L316.093 92.8311L306.577 90.2804L304.024 80.7623ZM250.906 191.05L224.888 217.075L189.348 207.548L179.824 171.996L205.842 145.971L241.385 155.498L250.906 191.05ZM263.59 133.285L258.88 115.714L271.74 102.822L289.305 107.532L294.015 125.117L281.149 137.989L263.59 133.285ZM292.2 278.389L301.716 280.939L304.266 290.457L297.3 297.425L287.773 294.88L285.223 285.359L292.2 278.389ZM252.278 277.801L239.398 290.673L221.832 285.962L217.123 268.392L229.979 255.499L247.545 260.21L252.278 277.801ZM308.055 222.01L290.489 217.3L285.777 199.729L298.645 186.858L316.211 191.569L320.92 209.139L308.055 222.01Z" fill="#6dd1fcff"/>
<path d="M261.185 71.8621L249.979 68.86L242.375 76.4666L220.799 71.9227L215.872 53.5226L196.604 48.3728L183.133 61.8472L152.297 52.1534L142.542 15.7137L106.097 5.94421L103.719 0.12793H102.081L104.649 6.40164L78.0583 32.996L87.8102 69.3932L63.6334 93.5732L27.2485 83.8218L-0.00830078 111.086L9.98587 148.328L47.2157 158.307L74.4725 131.043L64.7025 94.6425L88.8793 70.4625L124.501 80.0109L140.531 114.669L133.008 122.191L136.012 133.4L147.218 136.405L155.422 128.198L152.418 116.99L141.979 114.191L125.949 79.5323L151.873 53.5893L182.706 63.2831L187.649 81.7316L206.917 86.8814L220.424 73.3737L241.996 77.9177L244.764 88.2537L255.97 91.2588L264.171 83.0524L261.185 71.8621ZM72.7645 130.588L46.7433 156.613L11.2034 147.086L1.67863 111.537L27.7029 85.5091L63.2458 95.0363L72.7645 130.588ZM151.179 118.226L153.729 127.747L146.764 134.714L137.248 132.164L134.698 122.645L141.664 115.678L151.179 118.226ZM124.81 78.5417L89.27 69.0145L79.7452 33.4504L105.763 7.42555L141.306 16.9497L150.828 52.5017L124.81 78.5417ZM206.477 85.2244L188.912 80.5138L184.2 62.9286L197.068 50.0571L214.633 54.7707L219.343 72.3407L206.477 85.2244ZM255.54 89.6017L246.024 87.0511L243.474 77.533L250.44 70.5655L259.958 73.1162L262.505 82.6373L255.54 89.6017ZM46.61 26.8434L60.7139 12.7359L57.3401 0.12793H55.7713L59.027 12.2815L46.1587 25.1531L28.5932 20.4425L23.8687 2.85431L26.5944 0.12793H24.4532L22.1758 2.40597L27.3243 21.6785L46.61 26.8434Z" fill="#6dd1fcff"/>
</g>
<path d="M82.1922 73.4384L62.9247 68.2734L48.8208 82.3809L53.9693 101.653L73.2369 106.803L87.365 92.6988L82.1922 73.4384ZM72.8038 105.128L55.2383 100.417L50.5289 82.8475L63.3971 69.9759L80.9626 74.6865L85.672 92.2565L72.8038 105.128Z" fill="#6dd1fcff"/>
<path d="M232.347 222.974L218.24 237.084L223.389 256.357L242.656 261.507L256.76 247.399L251.612 228.126L232.347 222.974ZM242.22 259.831L224.655 255.118L219.945 237.548L232.814 224.676L250.379 229.387L255.091 246.957L242.22 259.831Z" fill="#6dd1fcff"/>
<path d="M245.897 182.818L242.892 171.609L231.687 168.607L223.482 176.814L226.487 188.022L237.692 191.024L245.897 182.818ZM227.725 186.783L225.163 177.265L232.129 170.298L241.645 172.848L244.195 182.367L237.229 189.334L227.725 186.783Z" fill="#6dd1fcff"/>
<path d="M75.7655 37.2617L83.9698 29.0552L80.9685 17.8468L69.7629 14.8447L61.5586 23.0511L64.5599 34.2596L75.7655 37.2617ZM70.2142 16.5351L79.7299 19.0858L82.2799 28.6039L75.3142 35.5713L65.7985 33.0206L63.2485 23.5025L70.2142 16.5351Z" fill="#6dd1fcff"/>
<path d="M244.34 75.0347L255.93 63.4415L251.69 47.6073L235.86 43.3662L224.255 54.9594L228.495 70.7936L244.34 75.0347ZM236.308 45.0445L250.452 48.8372L254.237 62.9901L243.886 73.3443L229.743 69.5546L225.954 55.4108L236.308 45.0445Z" fill="#6dd1fcff"/>
<path d="M279.462 124.497L288.735 126.981L295.522 120.192L293.039 110.917L283.765 108.43L277.575 114.637L260.185 110.971L256.178 96.0094L240.348 91.7684L229.403 102.71L204.475 94.8704L196.54 65.2407L166.882 57.2918L157.824 35.1778L168.745 24.251L164.505 8.41682L148.674 4.17578L137.084 15.7659L141.1 30.758L124.919 46.9164L109.933 42.8995L98.3432 54.4897L102.583 70.3269L118.413 74.5679L130.001 62.9778L125.991 47.9918L142.16 31.8213L156.361 35.6291L165.419 57.7431L143.799 79.3694L151.73 108.975L132.187 128.535L102.586 120.601L80.3022 142.894L88.4581 173.345L118.901 181.506L141.188 159.213L133.256 129.608L152.805 110.053L181.64 117.781L194.602 145.839L188.497 151.946L190.983 161.221L200.256 163.706L207.043 156.917L204.569 147.626L196.059 145.345L183.091 117.302L204.06 96.3275L228.988 104.167L233.001 119.181L248.831 123.422L259.822 112.428L277.212 116.094L279.462 124.497ZM284.217 110.12L291.788 112.153L293.82 119.726L288.266 125.282L280.694 123.249L278.662 115.661L284.217 110.12ZM128.32 62.5325L117.953 72.8776L103.813 69.0879L100.036 54.9592L110.382 44.5868L124.522 48.3795L128.32 62.5325ZM142.554 30.3612L138.765 16.2173L149.117 5.86008L163.26 9.65278L167.046 23.7876L156.691 34.1418L142.554 30.3612ZM139.495 158.771L118.447 179.824L89.6907 172.118L81.9861 143.339L103.037 122.286L131.79 129.992L139.495 158.771ZM203.324 148.868L205.354 156.441L199.802 161.997L192.231 159.964L190.199 152.391L195.75 146.838L203.324 148.868ZM181.946 116.303L153.193 108.578L145.488 79.7996L166.537 58.7458L195.293 66.4706L202.997 95.2491L181.946 116.303ZM248.377 121.737L234.249 117.942L230.46 103.795L240.8 93.4315L254.943 97.2212L258.731 111.368L248.377 121.737Z" fill="#6dd1fcff"/>
</g>
<defs>
<clipPath id="clip0_190_12485">
<rect width="270.1" height="299.3" fill="white"/>
</clipPath>
</defs>
</svg>
