<svg width="394" height="400" viewBox="0 0 394 400" fill="none" xmlns="http://www.w3.org/2000/svg">
<path d="M233.211 46.0732C232.356 47.2113 230.815 68.7729 227.833 99.4511C250.186 101.376 251.356 101.327 253.9 102.264C260.769 104.415 265.816 111.533 265.485 118.98C265.39 127.7 257.729 136.533 246.699 135.614C229.725 134.146 239.904 135.073 224.026 133.628C223.115 144.304 222.121 155.145 221.129 166.069C215.088 165.573 208.964 165.076 202.84 164.496C194.648 163.917 186.455 168.469 182.398 175.669C179.42 180.717 178.511 186.923 180.083 192.634C181.489 198.261 185.212 203.309 190.262 206.205C192.827 207.695 195.557 208.605 198.454 209.019L206.067 209.681C210.122 210.011 214.177 210.425 218.232 210.757C215.088 246.505 212.151 280.639 209.395 312.732C209.324 312.726 209.261 312.72 209.193 312.713C205.321 354.684 207.592 328.027 205.279 370.136C210.562 370.637 215.69 371.125 220.644 371.595C220.162 379.435 215.984 386.143 210.288 390.087C205.075 393.729 197.626 395.549 190.427 393.646C180.641 391.285 172.913 382.427 172.532 371.621C179.749 371.03 186.582 370.493 192.496 369.978C192.364 368.888 190.632 352.343 188.855 343.993C189.35 343.91 189.847 343.91 190.262 343.827C188.549 325.009 180.465 224.511 178.923 205.626C173.214 206.122 167.587 206.536 161.96 207.033C159.56 207.281 157.242 207.446 154.925 207.612C152.773 207.778 150.704 207.529 148.718 206.95C140.608 204.633 135.477 196.274 136.388 188.579C137.049 180.716 143.255 174.344 150.29 173.02C153.765 172.441 157.903 172.275 161.629 171.862C165.932 171.448 170.151 171.116 174.288 170.702C173.131 158.62 172.054 147.697 171.144 137.931C171.98 137.855 188.299 136.356 191.585 135.863C201.078 134.223 207.883 126.204 208.219 117.16C208.301 114.842 207.97 113.685 207.887 113.685C207.39 113.685 208.799 118.897 203.998 126.015C201.598 129.407 197.295 132.966 191.254 133.794C184.552 134.291 176.854 134.869 168.247 135.448C168.91 144.966 169.738 155.724 170.565 167.641C167.587 167.807 164.524 168.055 161.297 168.303C157.491 168.633 153.848 168.716 149.547 169.296C140.94 170.785 133.242 178.482 132.333 188.165C131.008 197.598 137.297 208.274 147.393 211.171C149.876 211.997 152.525 212.329 155.173 212.163C157.572 211.915 159.972 211.75 162.372 211.584C166.344 211.254 170.482 211.005 174.62 210.674C177.004 242.568 179.634 277.658 182.507 315.108C172.6 314.777 144.497 316.7 138.404 317.095C137.113 303.153 136.929 288.404 121.905 271.747C113.186 261.941 107.136 260.017 99.1477 253.623C47.6113 213.223 42.1031 141.399 79.6994 94.568C98.4022 70.7344 124.469 56.9967 148.304 52.4458C151.284 51.6185 154.262 51.5355 157.242 51.1214C160.883 50.7901 161.38 50.0456 161.297 51.6185C163.177 73.5283 163.777 77.5864 165.683 98.5401C170.15 98.1269 174.454 97.7128 178.426 97.3824C181.986 97.0511 185.544 96.554 188.441 96.4713C194.482 96.4713 199.28 99.3685 202.095 102.265C207.722 108.389 207.39 113.685 207.887 113.685C207.887 113.685 208.136 112.527 207.639 110.292C207.225 108.14 206.15 104.747 203.172 101.355C200.275 97.9615 195.226 94.6511 188.524 94.4026C185.13 94.4026 181.903 94.7339 178.26 94.9824C175.116 95.1481 171.724 95.3967 168.166 95.6441C166.934 80.2501 165.505 58.8421 164.855 51.3703C166.675 44.3362 158.565 47.5638 156.828 47.3981C123.241 51.0315 95.0695 67.6777 75.8928 91.5892C35.7207 140.841 42.4395 216.743 95.7552 258.01C104.064 264.811 109.403 266.062 117.767 275.554C131.811 291.283 131.748 305.239 132.993 318.917C127.404 322.072 126.797 326.483 127.449 331.911C128.059 338.203 127.307 342.361 132.332 346.228C131.256 346.871 129.966 349.864 129.601 351.69C129.358 353.87 129.872 361.864 130.181 364.269C130.76 367.744 133.076 370.888 136.304 372.544C139.202 374.199 143.008 373.867 145.077 373.619C149.752 373.307 163.279 372.391 167.942 371.999C167.695 385.185 177.194 396.234 189.018 399.108C197.957 401.426 207.143 399.025 213.35 394.225C219.939 389.348 224.5 380.936 224.084 371.922C233.7 372.838 240.168 373.485 255.435 374.546C256.419 374.591 257.423 374.58 258.356 374.371C262.155 373.636 264.86 371.003 265.979 368.315C267.145 365.444 266.713 363.231 266.876 361.531C266.943 358.011 266.81 356.062 266.452 356.023C266.096 355.984 265.547 357.86 264.852 361.312C264.413 363.03 264.371 365.329 263.343 367.024C262.334 368.823 260.282 370.412 257.76 370.681C245.957 369.283 229.582 367.343 211.133 365.158L211.144 365.142C211.42 360.087 212.01 349.288 212.239 344.921C262.08 348.338 259.018 347.661 261.14 348.6C262.854 349.372 264.072 350.617 264.779 351.795C266.228 354.198 266.03 356.018 266.452 356.023C266.658 356.111 267.662 354.28 266.505 350.965C265.949 349.434 264.694 347.689 262.68 346.367C264.87 345.156 266.472 343.304 267.248 341.405C268.408 338.526 267.937 336.273 268.058 334.583C268.046 327.382 267.331 327.144 266.022 334.402C265.622 336.147 265.62 338.417 264.591 340.126C263.597 341.932 261.549 343.545 259.031 343.819C257.736 344.031 215.92 339.228 212.417 338.915C212.898 333.725 213.001 332.32 214.156 318.604C240.151 320.31 231.454 319.806 255.471 321.021C260.02 321.213 263.337 321.118 265.771 324.96C267.204 327.305 267.117 329.078 267.521 329.07C268.349 329.324 269.083 322.565 263.216 319.314C262.466 262.845 318.366 251.933 327.385 221.101C334.917 207.116 337.978 194.867 339.386 186.592C339.779 184.132 341.063 173.766 340.461 173.766C338.936 173.766 338.742 226.138 286.67 259.913C277.486 266.451 269.376 276.133 264.907 288.133C262.589 294.092 261.512 300.795 261.1 307.249C260.807 310.826 260.458 314.494 260.151 318.199C258.734 317.769 256.276 317.573 236.33 315.301C229.62 314.662 222.183 313.953 214.419 313.211C217.496 279.6 220.801 243.463 224.19 205.709C218.397 205.212 212.439 204.633 206.564 204.136L199.199 203.474C197.046 203.226 194.977 202.481 193.156 201.406C189.35 199.254 186.62 195.446 185.461 191.227C184.303 187.006 185.047 182.29 187.281 178.482C190.261 173.103 196.468 169.711 202.509 170.124C210.453 170.785 218.397 171.448 226.176 172.11C227.17 161.104 228.164 150.262 229.073 139.587C244.629 141.035 248.726 141.685 253.651 140.498C263.498 138.18 270.699 128.912 270.782 119.146C271.196 109.382 264.575 100.196 255.554 97.2996C250.922 95.8095 246.865 96.14 242.81 95.644C239.666 95.3137 236.439 95.0652 233.376 94.8167C234.617 79.6718 235.86 65.1068 237.017 51.2873C254.677 53.6753 259.711 56.4184 266.81 58.9002C307.382 75.1487 336.024 114.671 339.633 157.049C340.494 163.262 339.912 182.246 341.041 169.462C341.207 166.648 341.702 162.427 341.207 156.966C339.114 101.758 293.449 51.8167 233.211 46.0732ZM136.719 342.419C132.773 340.449 133.523 337.126 132.91 331.413C132.581 328.683 132.416 327.358 133.242 325.786C134.283 323.447 136.136 323.031 136.967 322.559C137.628 322.559 137.877 322.31 138.788 322.228C166.346 319.368 183.29 317.069 185.544 315.855C184.844 317.721 185.689 337.006 185.792 340.02C165.333 340.726 141.275 343.699 138.125 342.999L138.042 342.916H137.959C137.794 342.834 137.628 342.751 137.462 342.751C137.214 342.585 136.967 342.502 136.719 342.419ZM138.871 367.577C137.133 366.667 135.973 365.013 135.642 363.274C135.08 354.571 133.815 351.033 137.545 348.543C140.664 349.323 186.784 344.167 187.613 344.075C187.419 345.427 187.366 350.832 187.944 366.088C184.683 365.392 142.224 369.345 138.871 367.577Z" fill="white" fill-opacity="0.8"/>
<path d="M63.4469 68.7705C64.742 67.922 60.9759 59.892 55.0359 50.8354C49.098 41.7781 43.2347 35.1238 41.9398 35.9723C40.6467 36.8209 44.4128 44.8509 50.3507 53.9074C56.2907 62.965 62.1538 69.6191 63.4469 68.7705Z" fill="white" fill-opacity="0.8"/>
<path d="M20.0449 152.731C9.05602 152.147 0.083333 152.926 0.000550499 154.471C-0.080319 156.016 8.75898 157.743 19.7459 158.327C46.2154 159.733 46.5318 154.141 20.0449 152.731Z" fill="white" fill-opacity="0.8"/>
<path d="M193.678 17.903C193.381 7.96975 191.887 -0.046234 190.34 0.000200724C188.794 0.0466354 187.78 8.13636 188.077 18.0706C188.792 41.9845 194.394 41.8624 193.678 17.903Z" fill="white" fill-opacity="0.8"/>
<path d="M338.118 46.4526C321.67 68.2613 326.117 71.6698 342.591 49.8267C349.42 40.7693 353.956 32.6725 352.721 31.7401C351.485 30.8087 344.947 37.3961 338.118 46.4526Z" fill="white" fill-opacity="0.8"/>
<path d="M393.584 144.949C393.334 143.423 384.466 143.606 373.774 145.358C348.025 149.583 348.909 155.114 374.681 150.888C385.371 149.135 393.835 146.476 393.584 144.949Z" fill="white" fill-opacity="0.8"/>
</svg>
