<?xml version="1.0" encoding="utf-8"?>
<!-- Generator: Adobe Illustrator 27.5.0, SVG Export Plug-In . SVG Version: 6.00 Build 0)  -->
<svg version="1.1" id="Layer_1" xmlns="http://www.w3.org/2000/svg" xmlns:xlink="http://www.w3.org/1999/xlink" x="0px" y="0px"
	 viewBox="0 0 5000 5000" style="enable-background:new 0 0 5000 5000;" xml:space="preserve">
<g id="Web_Development_2_">
	<path d="M1589.518,918.244c-48.644,14.628-166.323,4.732-225.477-40.279c-10.263-7.8-18.216-18.691-28.791-25.882
		c5.52,11.143,7.96,22.502,12.384,34.128c50.086,131.686-54.053,130.797-90.632,180.061c31.591-4.353,63.443-8.729,95.212-6.745
		c64.23,4.026,126.02,35.317,166.815,84.489c-16.871-48.206-31.703-102.184-11.292-149.387
		C1522.822,959.749,1555.123,934.751,1589.518,918.244z"/>
	<path d="M1265.958,2087.637c6.104,0-108.237,30.441,2582.275-712.577c12.124-3.328,19.256-15.927,15.898-28.051
		c-3.328-12.124-15.69-19.434-28.081-15.927l-2576.184,711.745C1234.421,2049.811,1239.501,2087.637,1265.958,2087.637z"/>
	<path d="M3726.503,1238.636c39.975-23.772,53.328-75.084,29.823-114.613c-23.505-39.536-74.965-52.322-114.939-28.557
		c-39.975,23.772-53.328,75.084-29.823,114.613C3635.069,1249.616,3686.528,1262.401,3726.503,1238.636z"/>
	<path d="M3472.41,1292.823c39.975-23.772,53.324-75.091,29.819-114.62c-23.505-39.536-74.965-52.322-114.939-28.549
		c-39.975,23.765-53.324,75.076-29.823,114.613C3380.972,1303.802,3432.431,1316.58,3472.41,1292.823z"/>
	<path d="M3208.975,1362.468c39.975-23.765,53.328-75.084,29.823-114.62c-23.505-39.536-74.965-52.314-114.939-28.549
		c-39.975,23.765-53.328,75.084-29.823,114.62C3117.54,1373.456,3169,1386.233,3208.975,1362.468z"/>
	<path d="M3821.095,351.362c-9.424,3.997-13.376,14.962-16.202,24.746c-25.971,90.023-43.5,182.379-52.284,275.47
		c-1.879,19.924-3.079,41.253,6.827,58.554c7.581,13.253,28.43,25.57,44.239,19.375c16.202-6.337,21.306-30.54,24.133-45.353
		c18.461-96.731,37.007-194.941,28.416-292.764c-0.914-10.385-2.284-21.187-8.086-29.819
		C3842.338,352.93,3830.779,347.261,3821.095,351.362z"/>
	<path d="M3552.939,444.817c-6.987-3.284-16.533-2.533-21.172,3.699c-4.517,6.062-2.89,14.471-0.984,21.722
		c17.51,66.696,41.304,131.691,70.975,193.871c6.352,13.313,13.673,27.257,26.573,34.485c9.873,5.534,27.884,5.505,35.655-4.346
		c7.964-10.081,2.054-27.308-1.753-37.739c-24.861-68.115-50.227-137.196-92.813-195.855
		C3564.899,454.423,3559.926,448.108,3552.939,444.817z"/>
	<path d="M3581.076,2781.271c-12.14-4-27.463-4.873-40.25-4.873c-41.252,0-82.115,25.421-122.699,76.242
		c-64.375,80.694-106.698,194.575-37.445,271.711c61.974,68.929,156.389,43.209,226.814-19.256
		c20.121-17.896,6.066-47.188-16.121-47.188c-13.38,0-38.681,26.139-67.788,41.03c-74.559,38.114-127.011-11.365-127.011-67.952
		c0-45.68,20.545-94.05,61.63-144.982c30.228-38.006,57.767-56.979,82.62-56.979c14.163,0,23.063,0.951,26.647,2.793
		c14.039,8.159,12.495,39.299,38.006,39.299c16.363,0,25.414-13.819,25.414-28.497c0-20.207-1.4-37.219-4.142-51.051
		C3620.473,2759.848,3592.869,2764.064,3581.076,2781.271z"/>
	<path d="M3799.715,2971.138l-19.256-0.728c0.045-28.335-0.877-27.538,0.672-43.652c1.202-12.339,2.641-21.96-5.932-29.894
		c-10.707-9.786-32.004-10.283-38.344,12.198c-3.505,13.884-1.922,47.191-2.073,62.358c-20.652,1.174-35.321,1.798-43.827,1.798
		c-21.794,0-39.8-1.344-39.8,22.049c0,30.808,49.969,23.751,83.627,21.826c1.783,52.603-2.892,67.492,6.326,76.577
		c3.863,3.863,9.516,5.824,17.075,5.824c15.226,0,22.836-7.726,22.836-23.118v-60.285c10.723,0.538,17.302,0.136,51.274-0.498
		c5.624,0,13.509,2.006,18.754,2.006c13.034,0,22.053-11.204,22.053-23.616C3873.101,2962.896,3822.697,2971.138,3799.715,2971.138z
		"/>
	<path d="M4067.897,2970.529c-19.213,1.214-18.529,0.213-34.931-0.119l-0.223-29.27c0-20.557,6.433-33.661-5.037-44.276
		c-4.535-4.145-10.021-6.27-16.514-6.27c-31.417,0-23.572,47.566-23.903,80.826c-20.652,1.174-35.32,1.798-43.826,1.798
		c-21.794,0-39.8-1.344-39.8,22.049c0,30.808,49.97,23.751,83.627,21.826c0.058,6.128,0.619,65.41,0.561,59.282
		c0,15.416,7.881,23.118,22.84,23.118c15.225,0,22.836-7.726,22.836-23.118v-60.285c10.723,0.538,17.303,0.136,51.274-0.498
		c5.624,0,13.509,2.006,18.754,2.006c13.034,0,22.052-11.204,22.052-23.616C4125.608,2977.913,4092.421,2968.967,4067.897,2970.529z
		"/>
	<path d="M1039.492,3205.393c-1.27,10.581-7.909-28.174,92.27,345.732c2.764,10.163,11.975,16.819,22.019,16.819
		c1.961,0,3.982-0.238,6.002-0.772c12.154-3.328,19.315-15.868,16.017-28.052c-46.908-170.281-87.95-328.134-94.057-340.42
		c37.835-6.857,75.708-17.651,112.766-33.341c0.543,8.609,3.055,12.422,96.022,354.743
		c26.358,97.586,112.533,168.843,214.427,177.342c12.251,1.114,23.585-8.139,24.634-20.86c1.07-12.54-8.291-23.594-20.831-24.664
		c-82.817-6.894-152.827-64.661-174.192-143.763c-102.423-369.109-92.634-351.099-102.05-360.33
		c12.395-6.136,24.905-11.753,37.011-19.018c76.811-45.851,138.144-107.191,182.279-175.396
		c14.281-22.083,26.475-13.073,107.184-18.349c27.809-2.039,90.664-5.322,94.581-32.672c1.716-15.467-14.906-26.365-29.233-32.672
		c-27.513-12.607-55.601-24.649-83.69-37.256c-15.474-6.872-22.926-24.07-19.486-40.695
		c24.645-106.04,11.467-217.243-45.283-312.964c-95.316-159.044-285.878-229.307-476.74-195.223l-105.936-386.063
		c-28.735-105.252,34.351-215.14,140.614-244.856l2686.577-752.039c105.489-29.554,215.591,30.122,244.647,136.453l440.829,1610.817
		c24.5,87.572-13.948,177.899-90.454,223.238v-124.463c0-109.591-89.176-198.797-198.797-198.797h-721.075
		c-109.621,0-198.797,89.206-198.797,198.797v445.227l-1387.089,388.53c-12.154,3.387-19.226,15.987-15.839,28.17
		c2.823,10.044,12.005,16.641,21.99,16.641c2.021,0,4.101-0.297,6.151-0.832L3196.75,3239.32v3.179
		c0,119.397,97.407,216.507,217.131,216.507h3.922c-9.212,30.667-18.869,61.749-28.289,91.702
		c-12.864,36.392,6.838,59.193,30.666,59.193c28.808,0,118.24-43.799,188.248-140.376c4.635-6.478,12.243-10.519,19.82-10.519
		h488.374c109.621,0,198.797-89.146,198.797-198.737v-338.504c109.126-50.219,166.945-169.884,134.462-285.997l-440.799-1610.698
		c-35.213-128.808-168.88-205.363-300.988-168.427l-2686.576,752.039c-130.362,36.491-207.682,171.458-172.35,300.899
		l105.182,383.374c-36.439,9.004-72.361,22.896-107.682,40.71l-148.96-544.551c-32.375-117.717,37.706-237.438,153.124-268.866
		L3559.16,780.275c12.183-3.269,19.345-15.868,16.017-27.992c-3.298-12.183-15.987-19.493-28.021-15.987L838.827,1476.212
		c-140.929,38.385-223.93,184.025-185.127,324.969l151.356,553.362c-241.743,145.064-334.518,435.562-206.159,649.878
		C688.367,3153.725,860.817,3224.856,1039.492,3205.393z M4269.776,3260.27c0,84.392-68.702,153.094-153.154,153.094h-488.374
		c-22.376,0-43.682,11.054-56.875,29.537c-39.73,54.795-86.145,93.96-136.632,116.128c9.687-30.845,19.345-61.987,28.2-91.761
		c9.186-26.227-10.381-53.904-38.749-53.904h-10.311c-94.555,0-171.488-76.666-171.488-170.864v-495.833
		c0-84.451,68.702-153.154,153.154-153.154h721.075c84.452,0,153.154,68.702,153.154,153.154V3260.27z M1043.121,2559.044
		c21.235-36.376,48.219-54.461,87.698-65.329c21.785-5.743,35.54-5.171,40.127,2.867c18.173,29.728-35.888,31.787-62.481,48.711
		c-30.864,19.288-56.019,57.242-37.828,87.126c5.728,9.747,18.342,11.463,38.4,5.163c32.483-10.002,67.103-43.176,118.078-29.805
		c47.205,10.885,82.951,67.477,53.31,128.965c-34.437,70.287-122.513,104.021-164.509,88.27
		c-25.527-8.062-38.897-34.909-17.194-47.002c23.395-11.698,34.724,31.721,97.444-6.307c96.119-58.922,57.377-168.14-59.041-103.737
		c-27.8,15.153-53.526,17.491-59.613,15.467C1033.991,2682.172,1000.646,2629.958,1043.121,2559.044z M815.564,2666.814
		c44.251-27.266,98.565-76.442,116.93-45.858c6.842,12.317,1.973,24.633-6.303,29.233c-1.724,1.151-5.731,2.875-11.466,5.163
		c-14.936,5.592-18.347,10.154-32.672,18.334c13.287,21.668,2.764-0.557,47.578,79.103c33.82,60.76,55.026,109.479,64.769,146.17
		c7.455,26.365,4.015,45.851-8.599,58.465c-42.97,32.036-122.12,27.052-149.603-18.342c-8.599-14.33-6.875-25.221,4.587-32.68
		c12.035-6.879,22.357-2.867,30.952,11.463c5.731,9.747,18.914,15.474,38.404,16.626c18.914,1.716,33.82-1.152,45.858-8.016
		c24.113-14.194-89.022-202.028-107.763-229.285c-55.677,32.844-58.833,35.236-68.784,33.237
		c-5.159-1.136-9.743-4.576-13.183-10.311C751.719,2695.499,784.37,2684.606,815.564,2666.814z"/>
	<path d="M2383.854,2330.591c8.38-9.39,7.518-23.832-1.902-32.212c-9.39-8.321-23.772-7.488-32.212,1.902l-172.082,193.566
		c-22.881,25.734-61.214,68.821-53.131,118.684c2.793,17.71,11.678,31.855,24.931,39.878c17.846,10.767,8.605,7.82,419.642,30.369
		c0.416,0.059,0.832,0.059,1.278,0.059c12.035,0,22.079-9.39,22.762-21.573c0.684-12.599-8.944-23.356-21.544-24.01
		c-127.777-7.013-255.523-14.204-383.389-21.573c-14.111-0.905-17.098-0.629-18.632-10.341
		C2163.211,2565.91,2202.883,2536.318,2383.854,2330.591z"/>
	<path d="M2893.385,2556.845c-11.114,5.943-15.274,19.791-9.331,30.904c5.961,11.064,19.793,15.261,30.904,9.271l239.388-128.668
		c31.617-16.997,84.57-45.465,94.703-96.754c3.595-18.126,0.059-34.826-9.955-47.248c-13.898-17.119-4.53-10.011-400.951-178.115
		c-11.559-4.695-24.991,0.594-29.923,12.124c-4.933,11.649,0.505,25.021,12.094,29.953
		c123.052,52.062,245.985,104.361,368.829,156.779c13.789,5.885,17.215,6.908,15.155,17.651
		C3196.177,2403.835,3153.296,2415.333,2893.385,2556.845z"/>
	<path d="M2651.917,2034.328c-12.599,0.476-22.465,11.054-22.019,23.654l26.803,758.101c0.446,12.302,10.579,21.989,22.822,21.989
		c0.267,0,0.535,0,0.802,0c12.599-0.475,22.465-11.054,22.019-23.653l-26.803-758.101
		C2675.065,2043.718,2664.933,2034.506,2651.917,2034.328z"/>
	<path d="M2053.18,3797.585c-10.549-7.013-24.664-3.982-31.588,6.597c-6.894,10.519-3.922,24.664,6.627,31.558
		c104.717,68.524,231.365,104.777,356.972,104.777c62.474,0,157.369-10.447,211.426-42.255
		c126.231,40.77,286.992-22.406,363.45-102.578c50.643-53.124,85.792-116.232,117.384-179.897
		c2.797,43.927,8.228,87.646,18.892,130.391c2.875,11.564,14.415,19.633,27.665,16.641c12.213-3.091,19.672-15.452,16.611-27.695
		c-38.72-155.036-2.246-192.113-35.866-209.791c-15.014-7.248-41.183,3.55-151.43,20.385c-12.421,2.139-20.771,13.966-18.661,26.387
		c2.14,12.421,14.353,20.444,26.328,18.661l85.031-14.546c-32.616,67.031-67.803,134.203-118.996,187.965
		c-60.174,63.056-185.395,116.306-288.864,97.467c54.474-73.833,6.287-179.171-83.56-169.319
		c-82.761,9.875-106.238,119.064-11.975,180.373c-7.994,2.734-16.641,5.171-26.001,7.37
		C2360.735,3916.209,2187.494,3885.424,2053.18,3797.585z M2560.007,3737.678c53.702-6.509,77.094,66.823,29.953,109.115
		c-13.937-6.418-27.13-14.62-39.224-24.783C2518.893,3795.244,2516.973,3742.658,2560.007,3737.678z"/>
	<g>
		<g>
			<path d="M898.807,4549.086c-6.775,0-12.718-1.783-17.889-5.408c-5.824-4.161-8.796-9.271-8.796-15.393
				c-6.775-16.819-10.995-30.428-12.778-41.007c-1.783-10.519-7.548-40.413-17.413-89.622c-7.488-37.323-12.481-67.276-14.977-89.86
				c-13.075,45.762-27.101,84.511-42.077,116.247c-17.294,36.788-28.527,65.552-33.697,86.353c1.783,3.15,2.674,6.3,2.674,9.331
				c0,6.24-2.971,11.411-8.855,15.452c-5.289,3.685-11.292,5.587-18.067,5.587c-19.791,0-29.716-8.38-29.716-25.199l-6.835-26.388
				l-24.01-101.924c-9.568-34.411-25.852-83.679-48.912-147.924c-1.01-3.031-1.545-5.824-1.545-8.32
				c0-12.896,7.726-19.315,23.119-19.315c9.568,0,16.938,4.933,22.049,14.739c2.674,4.992,8.023,19.375,16.106,43.087
				c8.617,25.08,17.294,55.33,25.971,90.692l21.395,91.939c15.69-34.411,31.32-76.309,46.891-125.637
				c9.568-30.131,16.819-50.992,21.811-62.64c13.253-30.607,26.09-45.94,38.571-45.94c10.282,0,17.532,4.933,21.811,14.739
				c5.289,11.946,10.638,40.354,16.046,85.283c2.972,22.762,7.964,50.101,14.977,81.956l18.958,81.777
				c19.672-44.692,44.276-105.074,73.813-181.205c1.605-4.16,5.289-17.235,10.995-39.284c4.279-16.225,9.509-28.883,15.63-37.857
				c5.289-7.667,12.243-11.47,20.741-11.47c14.798,0,22.227,6.954,22.227,20.801c0,2.377-2.318,9.331-7.013,20.801l-8.855,22.465
				l-12.064,37.025l-65.434,150.182c-6.062,16.522-16.403,40.532-31.082,72.03C917.29,4544.451,909.386,4549.086,898.807,4549.086z"
				/>
			<path d="M1187.82,4538.686c-33.162,0-60.025-7.845-80.588-23.535c-22.465-17.294-33.757-41.602-33.757-72.803
				c0-36.015,9.271-66.266,27.814-90.691c20.088-26.625,46.95-39.938,80.588-39.938c24.367,0,44.276,3.922,59.728,11.648
				c18.899,9.568,28.408,24.307,28.408,44.098c0,13.907-8.32,26.506-24.902,37.857c-7.369,4.992-22.881,12.778-46.713,23.297
				l-84.154,37.679c8.261,11.47,18.483,20.147,30.726,25.971c12.302,5.825,26.566,8.737,42.85,8.737
				c10.163,0,22.049-1.783,35.718-5.408c17.294-4.577,28.467-10.579,33.46-17.948c4.992-7.429,10.341-11.173,16.106-11.173
				c5.111,0,9.687,1.843,13.728,5.527c4.041,3.685,6.062,7.963,6.062,12.777c0,15.393-13.134,28.646-39.403,39.759
				C1231.026,4533.991,1209.155,4538.686,1187.82,4538.686z M1181.877,4349.161c-17.889,0-32.806,6.597-44.692,19.671
				c-11.886,13.134-20.801,32.806-26.684,59.193l67.632-30.369c26.566-12.243,45.524-22.822,56.875-31.855
				C1222.349,4354.747,1204.639,4349.161,1181.877,4349.161z"/>
			<path d="M1434.934,4537.854c-22.465,0-42.85-4.161-61.214-12.48c-4.695,6.656-10.46,9.984-17.176,9.984
				c-5.587,0-10.341-1.843-14.204-5.527c-3.922-3.685-5.884-8.261-5.884-13.847c0-3.566,0.178-8.915,0.594-15.987
				c0.357-7.072,0.535-12.421,0.535-16.046c0-14.679-0.416-36.669-1.189-66.028c-0.832-29.299-1.248-51.348-1.248-66.027
				c0-10.163,0.059-29.3,0.238-57.529c0.119-28.23,0.238-47.485,0.238-57.708c0-8.32,1.783-15.809,5.468-22.465
				c4.873-8.499,11.53-12.718,20.088-12.718c10.995,0,16.522,6.062,16.522,18.126c0,1.902-0.416,4.754-1.129,8.499
				c-0.713,3.744-1.129,6.597-1.129,8.558l-0.654,45.524l-0.416,53.072c12.778-8.201,24.902-14.323,36.431-18.423
				c11.53-4.101,22.406-6.122,32.509-6.122c31.558,0,57.232,11.411,76.904,34.292c18.483,21.514,27.754,47.901,27.754,79.281
				c0,31.617-10.817,58.42-32.39,80.469C1494.008,4526.8,1467.086,4537.854,1434.934,4537.854z M1443.313,4349.993
				c-12.064,0-24.367,3.209-37.026,9.568c-6.121,3.209-16.7,10.043-31.677,20.623l-0.475,35.956l0.238,32.449l0.238,34.113
				c7.013,3.091,16.938,6.954,29.715,11.648c9.093,2.675,19.315,3.982,30.607,3.982c21.336,0,38.808-7.072,52.418-21.217
				c13.669-14.145,20.504-31.795,20.504-52.834c0-20.682-5.468-37.917-16.522-51.824
				C1479.447,4357.481,1463.46,4349.993,1443.313,4349.993z"/>
			<path d="M1940.988,4527.632c-22.762,14.739-55.39,22.049-98.002,22.049c-10.698,0-23-1.545-36.788-4.754
				c-16.581-3.744-29.062-8.618-37.442-14.561h-2.199c-6.359,0-11.648-2.081-15.868-6.241c-4.279-4.16-6.419-9.211-6.419-15.214
				c0-14.561,0.713-36.372,2.14-65.374c1.367-29.062,2.08-50.873,2.08-65.434c0-16.225-0.357-40.473-1.01-72.684
				c-0.654-32.271-1.01-56.519-1.01-72.744c0-5.646,3.09-11.648,9.271-17.889s12.362-9.331,18.483-9.331
				c3.566,0,15.274,4.636,35.302,13.907c22.584,10.4,35.659,16.165,39.165,17.294c41.72,13.431,77.26,34.113,106.619,61.986
				c34.529,32.865,51.764,69,51.764,108.343c0,23.713-5.884,46.475-17.71,68.227
				C1977.538,4497.025,1961.432,4514.498,1940.988,4527.632z M1894.751,4307.559c-14.977-9.271-49.565-25.199-103.766-47.842
				l1.129,59.907l0.654,59.728l-3.566,113.572c1.07,0.416,2.615,1.308,4.636,2.675c12.956,8.201,29.24,12.302,48.912,12.302
				c33.519,0,57.886-4.873,73.16-14.561c14.263-9.152,25.555-21.455,34.054-36.906c8.439-15.512,12.659-31.618,12.659-48.377
				C1962.621,4368.951,1939.978,4335.432,1894.751,4307.559z"/>
			<path d="M2163.022,4538.686c-33.162,0-60.025-7.845-80.588-23.535c-22.465-17.294-33.757-41.602-33.757-72.803
				c0-36.015,9.271-66.266,27.814-90.691c20.088-26.625,46.95-39.938,80.588-39.938c24.367,0,44.276,3.922,59.728,11.648
				c18.899,9.568,28.408,24.307,28.408,44.098c0,13.907-8.32,26.506-24.902,37.857c-7.37,4.992-22.881,12.778-46.713,23.297
				l-84.154,37.679c8.261,11.47,18.483,20.147,30.726,25.971c12.302,5.825,26.566,8.737,42.85,8.737
				c10.163,0,22.049-1.783,35.718-5.408c17.294-4.577,28.468-10.579,33.46-17.948c4.992-7.429,10.341-11.173,16.106-11.173
				c5.111,0,9.687,1.843,13.729,5.527s6.062,7.963,6.062,12.777c0,15.393-13.134,28.646-39.403,39.759
				C2206.229,4533.991,2184.358,4538.686,2163.022,4538.686z M2157.079,4349.161c-17.889,0-32.806,6.597-44.692,19.671
				c-11.886,13.134-20.801,32.806-26.685,59.193l67.632-30.369c26.566-12.243,45.524-22.822,56.875-31.855
				C2197.552,4354.747,2179.841,4349.161,2157.079,4349.161z"/>
			<path d="M2408.888,4518.301c-0.416,12.778-7.132,19.137-20.028,19.137c-10.757,0-18.542-5.943-23.356-17.889l-33.697-84.451
				l-39.224-95.505c-1.486-3.566-2.199-6.775-2.199-9.568c0-5.646,2.258-10.52,6.834-14.561c4.517-3.981,9.806-6.002,15.868-6.002
				c8.796,0,15.095,4.22,18.899,12.659l55.984,145.427c10.995-22.227,24.902-54.379,41.602-96.516
				c3.982-11.114,10.222-26.804,18.78-47.01c4.517-8.915,10.995-13.313,19.375-13.313c6.002,0,11.292,2.021,15.868,6.003
				c4.517,4.041,6.835,8.795,6.835,14.382c0,5.23-12.124,34.946-36.372,89.028L2408.888,4518.301z"/>
			<path d="M2629.615,4538.686c-33.163,0-60.025-7.845-80.588-23.535c-22.465-17.294-33.757-41.602-33.757-72.803
				c0-36.015,9.271-66.266,27.814-90.691c20.088-26.625,46.95-39.938,80.588-39.938c24.367,0,44.276,3.922,59.728,11.648
				c18.899,9.568,28.408,24.307,28.408,44.098c0,13.907-8.32,26.506-24.902,37.857c-7.369,4.992-22.881,12.778-46.713,23.297
				l-84.154,37.679c8.261,11.47,18.483,20.147,30.726,25.971c12.302,5.825,26.566,8.737,42.85,8.737
				c10.163,0,22.049-1.783,35.718-5.408c17.294-4.577,28.467-10.579,33.459-17.948c4.992-7.429,10.341-11.173,16.106-11.173
				c5.111,0,9.687,1.843,13.729,5.527s6.062,7.963,6.062,12.777c0,15.393-13.134,28.646-39.403,39.759
				C2672.821,4533.991,2650.95,4538.686,2629.615,4538.686z M2623.672,4349.161c-17.889,0-32.806,6.597-44.692,19.671
				c-11.886,13.134-20.801,32.806-26.685,59.193l67.633-30.369c26.566-12.243,45.524-22.822,56.875-31.855
				C2664.144,4354.747,2646.434,4349.161,2623.672,4349.161z"/>
			<path d="M2829.897,4365.623l-3.328,103.35c0,10.995-0.594,27.041-1.783,48.258c-1.426,13.907-8.617,20.801-21.573,20.801
				c-14.382,0-21.573-7.013-21.573-21.217c0-16.76,0.832-41.958,2.437-75.596c1.605-33.638,2.437-58.837,2.437-75.596
				c0-21.93,0.356-47.01,1.07-75.18c0.713-28.23,1.129-53.31,1.129-75.24c0-13.848,7.191-20.801,21.573-20.801
				c14.501,0,21.811,6.953,21.811,20.801c0,21.93-0.356,47.01-1.129,75.24C2830.254,4318.613,2829.897,4343.693,2829.897,4365.623z"
				/>
			<path d="M2980.079,4541.36c-24.664,0-45.881-8.558-63.651-25.793c-19.85-19.137-30.25-44.871-31.261-77.142
				c-0.891-31.379,7.488-58.956,25.08-82.787c20.563-28.17,49.209-42.255,85.937-42.255c29.359,0,51.586,12.718,66.741,38.095
				c12.064,20.503,17.829,45.167,17.413,74.051c-0.476,30.785-8.974,57.054-25.555,78.805
				C3035.944,4529.058,3011.102,4541.36,2980.079,4541.36z M2993.332,4355.639c-21.633-0.179-38.452,9.568-50.457,29.121
				c-9.568,15.63-14.323,33.519-14.323,53.666c0,20.088,5.765,35.777,17.413,47.01c9.687,9.271,21.038,13.907,34.113,13.907
				c15.274,0,28.408-5.229,39.462-15.809c12.48-11.648,19.077-27.397,19.791-47.188
				C3041.412,4382.68,3026.079,4355.757,2993.332,4355.639z"/>
			<path d="M3228.382,4536.368c-14.739,0-30.845-2.199-48.496-6.656l-0.416,99.487c0,6.062-2.021,11.054-6.062,14.977
				c-4.041,3.863-9.212,5.824-15.571,5.824c-6.3,0-11.47-1.961-15.511-5.824c-4.042-3.922-6.062-8.915-6.062-14.977l0.654-83.204
				v-83.025c-0.416-30.369-1.545-58.064-3.269-83.025l-3.328-42.196c0-9.865,1.902-18.186,5.705-24.961
				c4.457-8.201,10.816-12.302,19.196-12.302c5.705,0,10.519,1.902,14.442,5.765c3.863,3.803,5.824,8.439,5.824,14.025
				c0,1.248-0.238,3.507-0.654,6.835c-0.772,4.338-1.248,8.261-1.545,11.886c12.599-8.201,24.783-14.323,36.55-18.423
				s23-6.122,33.698-6.122c30.131,0,52.18,12.6,66.087,37.857c11.054,19.969,16.522,46.356,16.522,79.222
				c0,29.953-8.499,54.677-25.555,74.051C3282.523,4526.146,3258.454,4536.368,3228.382,4536.368z M3243.537,4356.055
				c-13.491,0-25.674,2.853-36.55,8.499c-7.785,4.041-17.651,11.411-29.537,22.049c1.902,31.499,2.912,64.542,2.912,99.25
				c15.987,5.824,31.974,8.736,48.02,8.736c18.305,0,32.33-6.478,42.077-19.375c8.32-11.232,12.54-25.793,12.54-43.682
				c0-25.199-3.269-44.098-9.806-56.638C3266.655,4362.295,3256.79,4356.055,3243.537,4356.055z"/>
			<path d="M3655.75,4546.353c-12.064,0-19.137-6.002-21.157-18.067c-2.675-15.273-5.29-36.788-7.964-64.482l-7.488-64.482
				c-1.426-9.568-3.922-18.958-7.488-28.111c-4.992-12.48-10.4-18.721-16.284-18.721c-5.408,0-15.571,4.398-30.369,13.134
				c-14.145,8.023-23.356,14.501-27.754,19.315c-0.178,13.075,0.178,26.09,1.07,39.105l6.597,55.568
				c2.793,21.871,4.22,39.997,4.22,54.261c0,6.121-2.021,11.173-6.062,15.095c-4.042,3.982-9.212,5.943-15.571,5.943
				c-6.3,0-11.47-1.961-15.511-5.943c-4.041-3.922-6.062-8.974-6.062-15.095c0-16.76-1.783-41.542-5.408-74.348
				c-3.566-32.806-5.349-57.589-5.349-74.348c0-14.739-2.259-26.15-6.656-34.351c-10.282,4.457-20.682,11.648-31.261,21.633
				l-25.971,27.457c-2.377,3.328-6.121,7.726-11.232,13.134c0,8.32-0.832,20.563-2.437,36.788
				c-1.605,16.225-2.437,28.23-2.437,36.015c0,4.16,0.713,9.984,2.08,17.473c1.426,7.488,2.08,12.896,2.08,16.225
				c0,5.646-2.199,10.46-6.716,14.323c-4.458,3.922-9.687,5.824-15.749,5.824c-16.581,0-24.842-17.83-24.842-53.429
				c0-8.32,0.773-20.741,2.377-37.263c1.604-16.462,2.437-28.883,2.437-37.204c0-7.37-0.713-18.364-2.08-33.103
				c-1.426-14.68-2.08-25.793-2.08-33.281c0-31.439,7.488-47.188,22.465-47.188c5.705,0,10.935,2.318,15.749,7.072
				c4.754,4.695,7.132,9.806,7.132,15.393c0,2.615-0.357,6.716-1.07,12.243c-0.773,5.586-1.129,9.806-1.129,12.718l0.475,21.811
				c7.607-14.798,18.84-28.23,33.697-40.235c14.798-12.005,27.457-18.008,37.858-18.008c23.059,0,38.927,10.816,47.604,32.45
				c8.083-10.104,17.711-17.71,28.824-22.762c11.173-5.052,23.951-7.607,38.333-7.607c24.545,0,41.304,12.48,50.279,37.441
				c1.723,4.992,4.754,24.485,9.033,58.48c4.101,23.832,9.39,63.591,15.809,119.159c0.476,5.586-1.545,10.281-5.943,14.145
				C3667.398,4544.451,3662.049,4546.353,3655.75,4546.353z"/>
			<path d="M3829.347,4538.686c-33.162,0-60.025-7.845-80.588-23.535c-22.465-17.294-33.757-41.602-33.757-72.803
				c0-36.015,9.271-66.266,27.814-90.691c20.088-26.625,46.95-39.938,80.588-39.938c24.367,0,44.276,3.922,59.728,11.648
				c18.899,9.568,28.408,24.307,28.408,44.098c0,13.907-8.32,26.506-24.901,37.857c-7.37,4.992-22.881,12.778-46.713,23.297
				l-84.154,37.679c8.261,11.47,18.483,20.147,30.726,25.971c12.302,5.825,26.565,8.737,42.85,8.737
				c10.163,0,22.049-1.783,35.718-5.408c17.294-4.577,28.468-10.579,33.46-17.948c4.992-7.429,10.341-11.173,16.106-11.173
				c5.111,0,9.687,1.843,13.729,5.527s6.062,7.963,6.062,12.777c0,15.393-13.134,28.646-39.403,39.759
				C3872.554,4533.991,3850.683,4538.686,3829.347,4538.686z M3823.404,4349.161c-17.889,0-32.806,6.597-44.692,19.671
				c-11.886,13.134-20.801,32.806-26.685,59.193l67.632-30.369c26.566-12.243,45.524-22.822,56.875-31.855
				C3863.877,4354.747,3846.167,4349.161,3823.404,4349.161z"/>
			<path d="M4142.608,4543.856c-12.599,0-19.731-6.478-21.335-19.553l-6.181-45.524c-2.08-16.225-3.09-31.439-3.09-45.583
				c0-3.863,0.238-10.46,0.773-19.731c0.535-9.331,0.772-15.868,0.772-19.791c0-29.953-5.884-44.93-17.651-44.93
				c-16.403,0-32.152,9.212-47.129,27.695c-13.491,16.759-24.07,37.976-31.736,63.65c-0.297,5.408-0.951,12.184-1.961,20.385
				c-0.891,6.894-1.307,13.669-1.307,20.147c0,4.16,0.416,10.4,1.307,18.721c0.892,8.321,1.308,14.561,1.308,18.721
				c0,6.24-2.021,11.351-6.062,15.214c-4.041,3.863-9.212,5.824-15.511,5.824c-6.478,0-11.648-1.961-15.63-5.824
				c-3.982-3.863-5.943-8.974-5.943-15.214c0-4.16-0.475-10.4-1.426-18.721c-0.951-8.32-1.426-14.561-1.426-18.721
				c0-14.263,1.07-34.054,3.15-59.372c2.14-25.317,3.209-45.108,3.209-59.371c0-4.458-0.238-11.054-0.772-19.791
				s-0.773-15.333-0.773-19.731c0-6.002,2.08-10.875,6.3-14.679c4.16-3.804,9.331-5.706,15.511-5.706
				c13.491,0,20.92,8.974,22.287,27.041l0.654,24.308c24.664-31.023,49.981-46.594,75.953-46.594
				c23.534,0,39.878,9.806,49.15,29.359c6.299,13.015,9.747,32.271,10.341,57.826v20.979l-0.178,19.375
				c0,11.47,1.545,26.387,4.695,44.633c3.15,18.186,4.754,32.984,4.754,44.395c0,6.122-2.08,11.054-6.299,14.858
				C4154.197,4541.955,4148.908,4543.856,4142.608,4543.856z"/>
			<path d="M4357.154,4351.895c-3.09,0-6.716-0.179-10.876-0.416c-4.22-0.297-7.845-0.416-10.935-0.416
				c-3.388,0-13.372,1.01-29.954,3.09l4.161,122.962l0.237,9.152l0.238,10.579c0.594,30.37-7.132,45.584-23.119,45.584
				c-5.884,0-10.995-1.783-15.333-5.409c-4.338-3.625-6.478-8.142-6.478-13.55c0-5.23,0.178-13.134,0.654-23.713
				c0.416-10.519,0.654-18.423,0.654-23.713l-4.398-121.477c-10.757-0.416-27.041-1.605-48.912-3.506
				c-13.075-1.664-19.612-8.558-19.612-20.623c0-6.062,1.961-11.173,5.943-15.155c3.982-4.041,9.034-6.062,15.214-6.062
				l46.237,3.566c0-7.072-0.297-16.521-0.951-28.408c-0.713-11.827-1.01-20.444-1.01-25.674c0-5.824,2.139-10.638,6.359-14.441
				c4.279-3.863,9.509-5.765,15.63-5.765c13.253,0,20.979,10.222,23.178,30.607c0.416,5.111,0.654,11.292,0.654,18.483
				l-0.476,12.064l-0.178,12.896c18.186-2.199,28.646-3.328,31.261-3.328c15.273,0,25.258,0.713,29.953,2.081
				c8.974,2.793,13.431,9.331,13.431,19.553c0,6.121-2.021,11.173-6.062,15.095
				C4368.624,4349.933,4363.454,4351.895,4357.154,4351.895z"/>
		</g>
	</g>
</g>
</svg>
