<svg width="400" height="400" viewBox="0 0 400 400" fill="none" xmlns="http://www.w3.org/2000/svg">
<path d="M127.162 73.4596C123.27 74.6299 113.856 73.8382 109.124 70.2373C108.303 69.6133 107.666 68.742 106.82 68.1667C107.262 69.0582 107.457 69.9669 107.811 70.897C111.818 81.4319 103.487 81.3607 100.561 85.3019C103.088 84.9536 105.636 84.6035 108.178 84.7623C113.316 85.0843 118.259 87.5876 121.523 91.5214C120.173 87.6649 118.986 83.3467 120.619 79.5704C121.826 76.78 124.41 74.7802 127.162 73.4596Z" fill="white" fill-opacity="0.8"/>
<path d="M101.277 167.011C101.765 167.011 92.6177 169.446 307.859 110.005C308.829 109.739 309.399 108.731 309.131 107.761C308.864 106.791 307.875 106.206 306.884 106.487L100.789 163.426C98.7537 163.985 99.1601 167.011 101.277 167.011Z" fill="white" fill-opacity="0.8"/>
<path d="M298.12 99.091C301.318 97.1892 302.386 93.0843 300.506 89.9219C298.625 86.7591 294.509 85.7362 291.311 87.6374C288.113 89.5391 287.045 93.6441 288.925 96.8064C290.805 99.9694 294.922 100.992 298.12 99.091Z" fill="white" fill-opacity="0.8"/>
<path d="M277.793 103.426C280.991 101.524 282.059 97.4185 280.179 94.2562C278.298 91.0933 274.181 90.0705 270.983 91.9723C267.785 93.8735 266.718 97.9784 268.598 101.141C270.478 104.304 274.595 105.326 277.793 103.426Z" fill="white" fill-opacity="0.8"/>
<path d="M256.718 108.998C259.916 107.096 260.984 102.991 259.104 99.828C257.223 96.6651 253.106 95.6428 249.908 97.544C246.71 99.4452 245.642 103.551 247.523 106.714C249.403 109.877 253.52 110.899 256.718 108.998Z" fill="white" fill-opacity="0.8"/>
<path d="M305.688 28.109C304.934 28.4287 304.618 29.3059 304.392 30.0886C302.314 37.2905 300.911 44.679 300.209 52.1262C300.058 53.7202 299.962 55.4265 300.755 56.8106C301.361 57.8708 303.029 58.8562 304.294 58.3606C305.59 57.8536 305.999 55.9174 306.225 54.7323C307.702 46.9938 309.185 39.137 308.498 31.3112C308.425 30.4804 308.315 29.6162 307.851 28.9257C307.387 28.2344 306.462 27.7809 305.688 28.109Z" fill="white" fill-opacity="0.8"/>
<path d="M284.235 35.5854C283.676 35.3227 282.912 35.3828 282.541 35.8814C282.18 36.3663 282.31 37.039 282.462 37.6191C283.863 42.9548 285.767 48.1544 288.14 53.1288C288.649 54.1938 289.234 55.3094 290.266 55.8876C291.056 56.3303 292.497 56.328 293.119 55.5399C293.756 54.7334 293.283 53.3553 292.978 52.5208C290.99 47.0716 288.96 41.5451 285.553 36.8524C285.192 36.3539 284.794 35.8487 284.235 35.5854Z" fill="white" fill-opacity="0.8"/>
<path d="M286.486 222.502C285.515 222.182 284.289 222.112 283.266 222.112C279.966 222.112 276.697 224.145 273.45 228.211C268.3 234.667 264.915 243.777 270.455 249.948C275.413 255.462 282.966 253.405 288.6 248.408C290.21 246.976 289.085 244.632 287.31 244.632C286.24 244.632 284.216 246.724 281.887 247.915C275.922 250.964 271.726 247.006 271.726 242.479C271.726 238.824 273.37 234.955 276.657 230.88C279.075 227.84 281.278 226.322 283.266 226.322C284.399 226.322 285.111 226.398 285.398 226.545C286.521 227.198 286.398 229.689 288.439 229.689C289.748 229.689 290.472 228.584 290.472 227.409C290.472 225.793 290.36 224.432 290.14 223.325C289.638 220.788 287.43 221.125 286.486 222.502Z" fill="white" fill-opacity="0.8"/>
<path d="M303.978 237.691L302.437 237.633C302.441 235.366 302.367 235.43 302.491 234.141C302.587 233.154 302.702 232.384 302.016 231.749C301.16 230.966 299.456 230.926 298.949 232.725C298.668 233.836 298.795 236.5 298.783 237.714C297.131 237.808 295.957 237.857 295.277 237.857C293.533 237.857 292.093 237.75 292.093 239.621C292.093 242.086 296.09 241.521 298.783 241.367C298.926 245.576 298.552 246.767 299.289 247.494C299.598 247.803 300.05 247.959 300.655 247.959C301.873 247.959 302.482 247.341 302.482 246.11V241.287C303.34 241.33 303.866 241.298 306.584 241.247C307.034 241.247 307.665 241.408 308.084 241.408C309.127 241.408 309.848 240.512 309.848 239.519C309.848 237.032 305.816 237.691 303.978 237.691Z" fill="white" fill-opacity="0.8"/>
<path d="M325.432 237.642C323.895 237.739 323.949 237.659 322.637 237.633L322.619 235.291C322.619 233.647 323.134 232.598 322.216 231.749C321.854 231.418 321.415 231.248 320.895 231.248C318.382 231.248 319.01 235.053 318.983 237.714C317.331 237.808 316.157 237.857 315.477 237.857C313.733 237.857 312.293 237.75 312.293 239.621C312.293 242.086 316.291 241.521 318.983 241.367C318.988 241.858 319.033 246.6 319.028 246.11C319.028 247.343 319.658 247.959 320.855 247.959C322.073 247.959 322.682 247.341 322.682 246.11V241.287C323.54 241.33 324.066 241.298 326.784 241.247C327.234 241.247 327.865 241.408 328.284 241.408C329.327 241.408 330.048 240.512 330.048 239.519C330.049 238.233 327.394 237.517 325.432 237.642Z" fill="white" fill-opacity="0.8"/>
<path d="M83.1593 256.431C83.0577 257.278 82.5266 254.177 90.5409 284.09C90.762 284.903 91.4989 285.435 92.3024 285.435C92.4593 285.435 92.621 285.416 92.7826 285.374C93.7549 285.107 94.3278 284.104 94.064 283.13C90.3113 269.507 87.028 256.879 86.5394 255.896C89.5662 255.347 92.596 254.484 95.5607 253.229C95.6041 253.917 95.8051 254.222 103.242 281.608C105.351 289.415 112.245 295.116 120.397 295.795C121.377 295.885 122.283 295.144 122.367 294.127C122.453 293.123 121.704 292.239 120.701 292.154C114.075 291.602 108.475 286.981 106.765 280.652C98.5716 251.124 99.3548 252.565 98.6015 251.826C99.5931 251.335 100.594 250.886 101.562 250.305C107.707 246.637 112.614 241.729 116.145 236.273C117.287 234.506 118.263 235.227 124.719 234.805C126.944 234.642 131.973 234.379 132.286 232.191C132.423 230.954 131.093 230.082 129.947 229.578C127.746 228.569 125.499 227.606 123.252 226.597C122.014 226.047 121.418 224.671 121.693 223.341C123.665 214.858 122.611 205.962 118.071 198.304C110.445 185.581 95.2003 179.96 79.9313 182.686L71.4564 151.801C69.1576 143.381 74.2045 134.59 82.7056 132.213L297.632 72.0499C306.071 69.6855 314.879 74.4596 317.203 82.9661L352.47 211.831C354.43 218.837 351.354 226.063 345.233 229.69V219.733C345.233 210.966 338.099 203.83 329.33 203.83H271.644C262.874 203.83 255.74 210.966 255.74 219.733V255.352L144.773 286.434C143.801 286.705 143.235 287.713 143.506 288.688C143.732 289.491 144.466 290.019 145.265 290.019C145.427 290.019 145.593 289.995 145.757 289.952L255.74 259.146V259.4C255.74 268.952 263.533 276.72 273.11 276.72H273.424C272.687 279.174 271.915 281.66 271.161 284.057C270.132 286.968 271.708 288.792 273.614 288.792C275.919 288.792 283.074 285.288 288.674 277.562C289.045 277.044 289.654 276.72 290.26 276.72H329.33C338.099 276.72 345.233 269.589 345.233 260.821V233.741C353.964 229.724 358.589 220.15 355.99 210.861L320.727 82.0055C317.91 71.7009 307.216 65.5765 296.647 68.5314L81.7214 128.694C71.2924 131.614 65.1068 142.411 67.9334 152.766L76.348 183.436C73.4328 184.157 70.5591 185.268 67.7334 186.693L55.8166 143.129C53.2266 133.712 58.8331 124.134 68.0665 121.62L284.733 62.4219C285.707 62.1604 286.28 61.1525 286.014 60.1826C285.75 59.2079 284.735 58.6231 283.772 58.9036L67.1061 118.097C55.8318 121.168 49.1917 132.819 52.296 144.094L64.4044 188.363C45.065 199.968 37.643 223.208 47.9117 240.354C55.0693 252.298 68.8653 257.988 83.1593 256.431ZM341.582 260.822C341.582 267.573 336.086 273.069 329.33 273.069H290.26C288.47 273.069 286.765 273.953 285.71 275.432C282.531 279.816 278.818 282.949 274.779 284.722C275.554 282.255 276.327 279.763 277.035 277.381C277.77 275.283 276.205 273.069 273.935 273.069H273.11C265.546 273.069 259.391 266.936 259.391 259.4V219.733C259.391 212.977 264.888 207.481 271.644 207.481H329.33C336.086 207.481 341.582 212.977 341.582 219.733V260.822ZM83.4496 204.723C85.1484 201.813 87.3072 200.367 90.4655 199.497C92.2083 199.038 93.3087 199.083 93.6756 199.726C95.1295 202.105 90.8046 202.269 88.6772 203.623C86.208 205.166 84.1956 208.203 85.6509 210.593C86.1092 211.373 87.1183 211.51 88.7229 211.006C91.3216 210.206 94.0912 207.552 98.1692 208.622C101.946 209.493 104.805 214.02 102.434 218.939C99.679 224.562 92.6329 227.261 89.2732 226.001C87.2311 225.356 86.1615 223.208 87.8977 222.241C89.7693 221.305 90.6756 224.778 95.6932 221.736C103.383 217.022 100.283 208.285 90.97 213.437C88.746 214.649 86.6879 214.837 86.2009 214.675C82.7192 214.574 80.0516 210.397 83.4496 204.723ZM65.2451 213.345C68.7852 211.164 73.1303 207.23 74.5995 209.676C75.1468 210.662 74.7573 211.647 74.0952 212.015C73.9573 212.107 73.6368 212.245 73.178 212.428C71.9831 212.875 71.7102 213.24 70.5642 213.895C71.6272 215.628 70.7853 213.85 74.3704 220.223C77.076 225.084 78.7725 228.981 79.552 231.917C80.1484 234.026 79.8732 235.585 78.864 236.594C75.4264 239.157 69.0944 238.758 66.8958 235.126C66.2079 233.98 66.3458 233.109 67.2628 232.512C68.2256 231.962 69.0513 232.283 69.7389 233.429C70.1974 234.209 71.252 234.667 72.8112 234.759C74.3244 234.896 75.5168 234.667 76.4799 234.118C78.4089 232.982 69.3581 217.956 67.8588 215.775C63.4047 218.403 63.1522 218.594 62.3561 218.434C61.9434 218.343 61.5767 218.068 61.3015 217.609C60.1375 215.64 62.7496 214.768 65.2451 213.345Z" fill="white" fill-opacity="0.8"/>
<path d="M190.708 186.447C191.379 185.696 191.31 184.541 190.556 183.87C189.805 183.205 188.654 183.271 187.979 184.022L174.213 199.508C172.382 201.566 169.315 205.013 169.962 209.002C170.186 210.419 170.896 211.551 171.957 212.193C173.384 213.054 172.645 212.818 205.528 214.622C205.561 214.627 205.594 214.627 205.63 214.627C206.593 214.627 207.396 213.876 207.451 212.901C207.506 211.893 206.736 211.033 205.728 210.98C195.505 210.419 185.286 209.844 175.056 209.254C173.928 209.182 173.689 209.204 173.566 208.427C173.057 205.273 176.231 202.905 190.708 186.447Z" fill="white" fill-opacity="0.8"/>
<path d="M231.471 204.548C230.581 205.023 230.249 206.131 230.724 207.02C231.201 207.905 232.308 208.241 233.196 207.762L252.347 197.468C254.877 196.108 259.113 193.831 259.924 189.728C260.211 188.278 259.928 186.942 259.127 185.948C258.015 184.579 258.765 185.147 227.051 171.699C226.127 171.323 225.052 171.746 224.657 172.669C224.263 173.601 224.698 174.67 225.625 175.065C235.469 179.23 245.304 183.414 255.131 187.607C256.234 188.078 256.508 188.16 256.344 189.019C255.694 192.307 252.263 193.227 231.471 204.548Z" fill="white" fill-opacity="0.8"/>
<path d="M212.153 162.746C211.145 162.784 210.356 163.631 210.392 164.639L212.536 225.287C212.572 226.271 213.382 227.046 214.362 227.046C214.383 227.046 214.405 227.046 214.426 227.046C215.434 227.008 216.223 226.162 216.187 225.154L214.043 164.506C214.005 163.498 213.195 162.761 212.153 162.746Z" fill="white" fill-opacity="0.8"/>
<path d="M164.254 303.807C163.41 303.246 162.281 303.488 161.727 304.335C161.176 305.176 161.413 306.308 162.257 306.859C170.635 312.341 180.766 315.241 190.815 315.241C195.813 315.241 203.404 314.406 207.729 311.861C217.828 315.123 230.688 310.068 236.805 303.655C240.856 299.405 243.668 294.356 246.196 289.263C246.42 292.777 246.854 296.275 247.707 299.694C247.937 300.619 248.86 301.265 249.92 301.025C250.897 300.778 251.494 299.789 251.249 298.81C248.152 286.407 251.07 283.441 248.38 282.027C247.179 281.447 245.085 282.311 236.266 283.657C235.272 283.829 234.604 284.775 234.773 285.768C234.944 286.762 235.921 287.404 236.879 287.261L243.681 286.098C241.072 291.46 238.257 296.834 234.162 301.135C229.348 306.179 219.33 310.439 211.053 308.932C215.41 303.025 211.556 294.598 204.368 295.387C197.747 296.177 195.869 304.912 203.41 309.816C202.77 310.035 202.078 310.23 201.33 310.406C188.858 313.297 174.999 310.834 164.254 303.807ZM204.8 299.014C209.096 298.493 210.968 304.36 207.196 307.743C206.082 307.23 205.026 306.574 204.059 305.761C201.511 303.619 201.358 299.413 204.8 299.014Z" fill="white" fill-opacity="0.8"/>
</svg>
