<?xml version="1.0" encoding="utf-8"?>
<!-- Generator: Adobe Illustrator 27.5.0, SVG Export Plug-In . SVG Version: 6.00 Build 0)  -->
<svg version="1.1" id="Layer_1" xmlns="http://www.w3.org/2000/svg" xmlns:xlink="http://www.w3.org/1999/xlink" x="0px" y="0px"
	 viewBox="0 0 3000 3000" style="enable-background:new 0 0 3000 3000;" xml:space="preserve">
<g>
	<g>
		<path d="M802.813,1151.303c26.048,1.934,48.634-19.049,50.445-46.86c1.806-27.811-17.843-51.922-43.892-53.856
			c-26.048-1.928-48.634,19.049-50.443,46.86C757.115,1125.258,776.765,1149.369,802.813,1151.303z"/>
		<path d="M688.305,1143.019c26.051,1.928,48.634-19.049,50.443-46.86c1.812-27.811-17.838-51.928-43.889-53.862
			c-26.046-1.928-48.631,19.049-50.443,46.86C642.608,1116.974,662.257,1141.085,688.305,1143.019z"/>
		<path d="M621.313,1086.146c1.812-27.816-17.838-51.928-43.889-53.856c-26.046-1.934-48.631,19.043-50.443,46.86
			c-1.809,27.811,17.843,51.922,43.889,53.856C596.922,1134.934,619.507,1113.956,621.313,1086.146z"/>
		<path d="M2147.025,1335.69c-549.748-41.371-1025.353-70.077-1571.366-136.828c-6.629-0.909-12.478,3.845-13.282,10.393
			c-0.804,6.548,3.845,12.49,10.393,13.282c550.699,67.353,1031.169,96.099,1572.462,136.968
			c6.452,0.496,12.297-4.357,12.793-11.022C2158.525,1341.935,2153.596,1336.203,2147.025,1335.69z"/>
		<path d="M2647.46,968.99l-59.175-110.235c-2.627-4.538-3.105-10.026-1.672-15.035l35.075-124.554
			c2.624-8.826-1.433-18.373-9.306-22.906L2484.01,624.2c-4.532-2.627-7.873-6.682-9.303-11.692l-29.351-99.021
			c-2.863-9.07-11.214-15.035-20.52-14.08l-34.358,3.157c-10.579-1.394,8.021-1.182-119.457,9.793
			c-9.068-2.188-7.461-4.341-57.354-43.732c-10.261-8.348-20.52-16.463-30.781-24.816c-3.341-2.86-6.918-6.682-11.214-7.392
			c-14.234-2.565-28.413,0.358-38.276,1.858c-3.874-0.309-7.765,0.658-10.299,3.816c-76.159,93.869-72.74,93.499-78.084,94.162
			l-147.454,18.874c-14.657,1.864-26.156,14.074-27.345,29.011c-9.2,105.432-6.536,104.868-10.882,108.679l-110.52,98.333
			c-11.033,9.833-13.888,25.842-6.956,38.961c61.255,117.819,62.612,114.305,60.853,120.26l-14.226,48.707
			c-649.777-63.574-1180.07-76.252-1182.81-76.377c-55.359-1.433-118.111-3.099-168.221,29.349
			c-26.96,17.179-43.426,46.767-44.617,78.743C352.785,2267.47,357.583,2184.87,353.22,2229.33
			c-4.771,48.439-10.736,108.808,34.839,145.316c71.508,57.823,219.503,79.198,314.012,93.533
			c179.381,27.041,616.136,69.161,1001.207,86.38c127.654,5.444,349.905,23.215,462.904-7.637
			c39.371-11.93,78.74-35.553,83.275-80.892c0-1.766,112.397-1146.531,118.766-1198.701l103.407-18.181
			c8.29-1.462,15.059-6.332,19.725-12.851c27.185-14.219,27.046-12.381,32.503-27.98c6.553-19.427,3.241-27.024,9.545-116.439
			c0.478-5.493,3.099-10.503,7.159-14.08l102.123-83.752C2650.081,988.08,2652.231,977.583,2647.46,968.99z M1823.177,932.989
			l-60.235-114.016c-1.759-3.332-1.025-7.526,1.736-9.973l110.52-98.357c6.152-5.453,9.903-13.049,10.579-21.344l8.225-103.25
			c0.291-3.752,3.064-6.804,6.583-7.247l147.442-18.874c17.918-2.285,23.052-16.594,31.638-25.498
			c4.089-0.986,13.283,0.337,19.705-8.057c5.49-6.921,10.978-13.841,16.466-20.762c9.721-11.343,14.326-12.778,11.61-30.799
			l6.6-8.231l81.37,65.944c6.326,5.15,14.342,7.457,22.416,6.851l148.001-13.608c3.647-0.373,6.769,2.027,7.818,5.546l29.477,99.126
			c2.388,8.016,7.666,14.634,14.843,18.641l128.393,72.096c3.157,1.771,4.707,5.686,3.682,9.321l-35.186,124.455
			c-2.272,7.993-1.316,16.777,2.633,24.071l59.408,110.147c1.853,3.425,1.014,7.829-1.922,10.253l-102.05,83.677
			c-6.758,5.546-10.987,13.771-11.581,22.603l-7.596,112.664c-0.245,3.682-2.831,6.688-6.257,7.293l-140.09,24.63
			c-6.245,1.095-11.954,4.054-16.568,8.575l-84.574,83.793c-103.451-63.814-101.974-69.315-118.455-68.531l-142.001,6.361
			c-3.425,0.07-6.513-2.19-7.515-5.686l-30.805-108.446c-2.423-8.528-8.284-15.682-16.067-19.62l-117.091-59.606
			c-3.332-1.701-5.021-5.802-3.926-9.53l35.209-120.54C1827.931,949.067,1827.045,940.306,1823.177,932.989z M2169.045,2433.343
			c-4.057,41.04-42.951,61.086-74.924,70.866c-33.835,10.163-72.904,12.739-107.852,14.791
			c-205.643,11.052-1013.454-42.89-1351.01-94.011c-79.588-11.383-170.708-19.259-232.167-68.956
			c-44.628-35.648-25.768-103.637-23.383-160.823l36.986-1163.702c0.952-24.1,13.361-46.289,33.642-59.414
			c34.12-22.189,75.638-26.249,117.872-26.249c233.269,0,846.311,40.905,1213.44,76.628l-14.15,48.439
			c-4.311,14.797,2.423,30.549,16.008,37.469c119.824,62.045,119.246,58.188,121.029,64.499l30.805,108.446
			c4.043,14.191,17.197,23.628,31.527,22.975c147.137-6.128,142.711-7.422,146.172-5.243
			c97.576,61.433,113.299,73.851,115.653,70.098c4.477,1.175,16.67-5.06,22.434-10.037c4.277-3.763,19.787-17.399,26.01-23.622
			L2169.045,2433.343z"/>
		<path d="M1940.216,927.233c4.475,8.311,0.588,7.063-22.906,92.823c-1.908,6.204,0.955,13.119,6.682,15.985l80.173,40.801
			c3.341,1.672,5.726,4.777,6.682,8.354l21.237,74.204c1.669,5.965,7.16,10.026,13.364,9.787
			c102.833-3.839,98.985-6.076,104.508-2.388l73.494,46.767h1.191c65.437-63.788,61.722-63.823,68.959-65.14l95.922-16.94
			c5.965-0.955,10.497-6.204,10.975-12.408l5.249-77.071c0.625-9.982,3.63-6.685,74.688-66.812
			c5.01-4.293,6.443-11.453,3.338-17.179l-40.563-75.399c-1.672-3.105-2.15-6.921-1.194-10.259l24.1-85.185
			c1.672-6.204-0.955-12.647-6.443-15.746c-89.98-52.15-91.343-47.949-94.011-57.27l-20.284-67.767
			c-1.905-6.198-7.631-10.259-13.835-9.542c-100.135,7.955-103.367,12.441-110.718,6.443l-62.035-50.349l-49.872,62.28
			c-5.627,7.503-5.942,3.397-109.524,17.896c-6.201,0.716-11.214,5.965-11.692,12.408l-5.488,70.628
			c-0.478,3.577-1.908,6.682-4.532,9.064l-75.638,67.29c-4.774,4.293-5.965,11.214-3.105,16.702L1940.216,927.233z
			 M2170.479,764.983l41.757-1.911c7.157-0.717,34.597,262.232,27.677,263.188c0.478,3.816-51.299,9.781-51.538,5.726
			c-5.013,0.478-24.816-209.978-20.045-210.456l-31.737,3.338l-3.338-21.234L2170.479,764.983z"/>
		<path d="M709.23,1747.339c99.26,11.453,188.739-60.847,199.714-161.54c10.975-100.693-60.369-191.366-159.629-202.819
			c-99.263-11.453-188.503,60.608-199.717,161.301C538.62,1644.974,610.203,1735.886,709.23,1747.339z M595.89,1637.576
			c1.666-12.647,8.348-26.96,13.361-36.03c20.284-37.583,61.763-64.424,109.044-64.424c-21.473-8.354-35.553-30.782-32.925-55.359
			c3.338-29.349,29.349-50.344,58.219-47.005c28.871,3.344,49.869,29.826,46.528,59.175c-2.624,24.578-21.473,43.19-44.62,46.534
			c17.857,4.023,37.631,14.22,52.018,25.288c29.785,22.529,47.005,53.266,47.005,90.673c0,2.931-0.524,11.641-2.15,14.08
			c-0.239,0.95-0.952,1.672-1.43,2.144c-0.475,0.239-0.952,0.717-1.43,0.717c-3.105,1.433-6.443,0.717-9.545,0.239
			c-2.403-0.301-214.283-23.119-225.727-24.816C598.751,1648.318,595.174,1643.064,595.89,1637.576z"/>
		<path d="M915.713,1869.604c-111.511-7.876-224.163-19.876-334.823-35.605c-6.536-0.699-12.56,3.612-13.492,10.136
			c-0.92,6.525,3.612,12.56,10.136,13.492c111.219,15.822,224.431,27.846,336.501,35.792c6.293,0.524,12.259-4.306,12.734-11.068
			C927.236,1875.778,922.284,1870.07,915.713,1869.604z"/>
		<path d="M751.098,1963.766c-0.012,0-0.023,0-0.035,0c-47.524,0.21-95.118-4.637-141.745-14.237
			c-6.443-1.258-12.769,2.866-14.086,9.297c-1.328,6.455,2.831,12.769,9.286,14.098c47.547,9.763,96.178,14.703,144.564,14.703
			c7.177,0,13.969-4.707,13.946-11.954C763.005,1969.079,757.669,1963.766,751.098,1963.766z"/>
		<path d="M1090.104,1429.503c-6.664-0.513-12.385,4.218-13.002,10.766l-72.177,761.642c-0.629,6.548,4.183,12.373,10.742,13.002
			c0.385,0.023,0.769,0.047,1.142,0.047c6.082,0,11.278-4.637,11.861-10.812l72.177-761.642
			C1101.475,1435.958,1096.663,1430.132,1090.104,1429.503z"/>
		<path d="M1496.02,1791.636c-12.397-7.887-83.799-14.868-98.87-8.575c-19.327,0.498-34.746,14.301-35.757,32.156l-16.847,296.119
			c-0.955,16.591,13.445,30.898,32.762,32.576l78.632,6.828c1.235,0.116,2.47,0.163,3.682,0.163
			c17.756,0,32.39-11.208,34.079-26.704l32.168-294.767C1527.846,1811.432,1514.644,1795.41,1496.02,1791.636z M1469.981,2121.612
			c-0.28,2.54-5.371,5.965-11.977,5.36l-78.62-6.828c-0.012,0-0.012,0-0.012,0c-6.839-0.606-11.15-4.87-11.01-7.457
			c19.239-309.362,13.737-296.95,20.144-302.457c6.912-5.943,12.629-0.911,19.107-5.383c12.595-1.864,62.297,2.517,74.333,6.455
			c5.583,5.583,12.042,1.442,17.977,8.645C1505.145,1826.336,1502.2,1811.036,1469.981,2121.612z"/>
		<path d="M1709.214,1755.454c0.647-7.812-88.99-15.601-89.636-7.789c-14.435-1.253-26.884,9.961-27.793,24.921l-21.228,348.938
			c-0.714,11.773,8.971,22.142,21.633,23.238l78.611,6.827c12.659,1.101,23.916-7.445,25.148-19.177l36.555-347.604
			C1734.071,1769.907,1723.65,1756.706,1709.214,1755.454z"/>
		<path d="M1937.985,1681.255c-13.467-11.56-85.914-17.932-101.468-8.831c-20.104,1.858-33.949,20.953-35.279,41.617
			l-27.205,420.993c-1.317,20.575,13.107,38.634,32.156,40.289c66.264,5.717,79.119,6.944,81.416,6.944
			c17.954,0,33.625-14.843,35.605-34.347l42.526-419.665C1967.844,1707.414,1957.131,1686.51,1937.985,1681.255z M1899.467,2145.497
			c-0.769,7.643-6.571,13.492-12.606,12.886l-78.609-6.827c-0.012,0-0.012,0-0.012,0c-6.117-0.536-10.882-7.387-10.393-14.983
			l27.205-420.993c0.609-9.514,6.841-20.148,15.321-19.41c3.91,0.228,7.332-1.206,9.495-3.472
			c12.781-2.796,59.35,1.282,71.397,6.222c5.318,7.534,10.396,2.305,16.136,9.321c3.565,4.287,5.278,10.882,4.59,17.593
			L1899.467,2145.497z"/>
		<path d="M1889.392,1483.936c-0.312,0.25,7.206,9.845,16.635,21.525c-21.624,18.705-186.065,160.905-192.802,164.557
			c-7.215,3.909-236.399-56.804-236.399-56.804c-2.4,1.563-172.857,112.705-174.402,116.707c-1.076,2.781-1.359,5.926-0.74,8.93
			c0.656,3.157,1.998,4.711,4.934,5.855c8.4,3.256,15.4-3.344,22.009-7.561c3.141-1.999,143.874-91.665,150.393-95.829
			l237.978,59.157l207.817-172.031c9.251,11.167,16.771,19.981,17.077,19.737c2.269,0.967,35.643-76.581,33.377-77.542
			C1974.77,1467.619,1888.894,1480.918,1889.392,1483.936z"/>
		<path d="M1383.438,772.719c83.339,14.331,158.638,78.643,187.393,160.037c1.736,4.893,6.338,7.946,11.255,7.946
			c8.27,0,13.977-8.182,11.255-15.915c-32.04-90.667-112.839-159.594-205.848-175.602c-6.524-1.049-12.665,3.262-13.783,9.74
			C1372.591,765.426,1376.948,771.601,1383.438,772.719z"/>
		<path d="M1468.547,640.761c63.15-10.261,119.17,33.265,125.701,70.185c-21.226-1.809-36.639,6.141-44.308,17.267
			c-9.158,13.282-6.886,32.156,4.998,41.221c16.85,12.752,46.968,3.405,59.198-27.1c5.569,3.402,10.882,7.806,15.671,13.142
			c30.277,33.753,49.505,121.413,54.747,169.427c0.703,6.467,6.501,11.256,13.154,10.556c6.548-0.722,11.278-6.594,10.567-13.165
			c-5.649-51.773-25.856-143.953-60.713-182.756c-8.482-9.437-18.35-16.801-28.801-21.717
			c-0.211-52.321-71.061-113.721-153.99-100.64c-6.501,1.049-10.94,7.177-9.892,13.678
			C1455.918,637.359,1462.035,641.74,1468.547,640.761z M1578.276,749.557c-3.495,1.701-7.328,2.051-8.89,0.885
			c-1.585-1.212-1.783-5.802,0.198-8.668c4.192-6.08,14.081-7.779,21.974-7.107C1588.656,741.308,1584.031,746.738,1578.276,749.557
			z"/>
		<path d="M601.78,765.962c34.65,10.695,67.762,26.168,98.427,45.998c2.004,1.305,4.253,1.911,6.466,1.911
			c11.797,0,16.488-15.467,6.49-21.95c-32.494-21.018-67.598-37.423-104.345-48.747c-6.35-2.051-12.979,1.585-14.913,7.876
			C591.958,757.34,595.488,764.028,601.78,765.962z"/>
		<path d="M747.929,779.151c2.284,3.565,6.128,5.499,10.055,5.499c9.291,0,15.162-10.354,10.031-18.362
			c-23.15-36.118-39.893-75.684-49.761-117.557c-1.515-6.431-7.946-10.532-14.354-8.878c-6.408,1.491-10.381,7.923-8.878,14.331
			C705.508,698.713,723.31,740.773,747.929,779.151z"/>
		<path d="M844.701,805.388c6.49-1.142,10.824-7.317,9.67-13.818c-8.365-47.536-4.707-96.679,10.602-142.094
			c2.109-6.245-1.247-13.026-7.492-15.123c-6.198-2.027-13.002,1.258-15.111,7.48c-16.591,49.213-20.564,102.411-11.488,153.885
			C832.074,802.509,838.697,806.589,844.701,805.388z"/>
	</g>
</g>
</svg>
