<?xml version="1.0" encoding="utf-8"?>
<!-- Generator: Adobe Illustrator 27.5.0, SVG Export Plug-In . SVG Version: 6.00 Build 0)  -->
<svg version="1.1" id="Layer_1" xmlns="http://www.w3.org/2000/svg"
	xmlns:xlink="http://www.w3.org/1999/xlink" x="0px" y="0px"
	viewBox="0 0 5000 5000" style="enable-background:new 0 0 5000 5000;" xml:space="preserve">
<g id="_x38_">
	<path style="fill:#ECECEC;" d="M3531.446,1947.329c-57.473,46.063-115.281,104.374-166.965,161.764
		c6.293-7.216,6.712-28.359,8.474-37.085c5.705-28.695,9.061-58.48,16.36-86.671c12.229-46.926,35.976-80.641,42.958-182.152
		c0.574-8.847,3.836-58.412-0.923-65.947C3445.782,1751.502,3514.163,1824.748,3531.446,1947.329z"/>
	<path style="fill:#ECECEC;" d="M2923.407,1633.619c6.377-3.859,14.263-3.859,21.731-3.776
		c54.788,0.755,109.492,3.608,164.029,7.635c-0.854,5.98-2.014,10.254-2.014,17.284c0,27.772,19.885,52.439,48.076,57.557
		c31.463,5.705,61.5-14.767,67.793-45.811c74.187,22.633,205.476,67.54,205.896,68.38c0.336,0.336,1.175,1.091,2.433,2.349
		c4.759,7.535,1.495,57.142,0.923,65.947c-6.906,100.396-30.992,136.238-42.958,182.152c-7.3,28.191-10.656,57.976-16.361,86.671
		c-2.459,12.179-1.35,28.159-9.565,38.427c-61.603,68.447-130.196,154.403-181.145,225.277
		c-29.723-7.099,122.304,29.211-375.882-89.775c5.103-27.412,55.192-299.464,64.856-351.382"/>
	<path style="fill:#ECECEC;" d="M3431.351,1737.238c-1.259-1.258-2.098-2.014-2.434-2.349
		C3429.924,1735.393,3430.679,1736.147,3431.351,1737.238z"/>
	<polyline style="fill:#ECECEC;" points="2923.388,1633.593 2695.491,1739.642 2706.074,1989.078 2935.121,1857.904 	"/>
	<g>
		<path style="fill:#ECECEC;"  d="M4053.425,3420.365l123.9-25.808c21.219-4.399,26.181-32.127,8.666-43.888c2.958-32.034-7.1-50.08-28.645-73.56
			c-0.004,0-0.004,0-0.004-0.008c-24.41-26.532-78.681-43.721-110.892-36.994c-48.75-60.087-45.344-44.34-89.873-109.034
			l-54.319-126.766l-34.217-146.195c39.161-3.249,142.432-10.64,177.559-28.134c29.503-14.751,50.21-44.129,40.344-76.412
			c0.852-5.022-120.662-679.029-286.582-863.58c-55.467-61.646-144.635-44.791-264.954,49.755
			c-20.521-128.758-95.699-198.983-100.134-205.519c-3.545-4.776-9.958-5.573-16.082-7.673
			c-66.502-22.669-116.273-40.232-190.318-62.926l22.399-121.807c36.407-5.889,70.743-19.682,103.964-44.286
			c0.524-0.385,41.898-31.75,54.442-50.095c11.864,15.814,28.362,24.949,47.125,25.924c53.759,2.667,99.467-56.458,95.318-108.686
			c0.425,2.094,0.785,4.215,1.023,6.378c30.077-20.067,58.448-41.532,73.655-74.335c16.04-34.597,20.366-75.633-7.874-101.308
			c57.757-78.184,30.391-156.187-22.067-175.249c-9.468-13.206-24.465-22.274-40.571-24.47c15.598-35.256,11.964-65.474-0.83-85.483
			c-30.32-47.421-110.561-45.816-164.171-25.012c-39.453,0.326-72.043,26.355-82.233,58.045
			c-14.202-32.795-37.941-58.646-73.042-51.923c-66.783,12.789-110.682,125.006-111.013,158.897
			c-0.169,17.242,7.171,35.457,21.621,44.442c-23.145,24.478-42.979,54.628-58.496,89.552
			c-52.965,119.013-76.481,271.125,36.723,336.452c-6.086,37.439-14.659,90.262-18.206,112.359
			c-58.834-4.272-111.385-6.701-160.459-7.374c-25.299-0.227-0.699-4.249-245.809,107.564l-3.181-60.631
			c-0.119-2.229-1.958-3.974-4.191-3.974h-366.042c1.033-16.757,9.776-34.029,12.354-52.005
			c4.662-32.487-12.09-68.924-42.676-92.841c-52.474-41.13-138.757-64.391-206.521-43.289
			c-10.752-81.14-62.19-151.817-138.238-186.187c25.853-65.405,7.891-143.864-40.601-191.42
			c-48.911-47.703-127.185-63.082-190.357-37.371c-43.937,17.938-83.028,53.558-123.567,79.381
			c-67.49,28.48-129.554-14.45-162.429-77.137c-17.811-33.935-27.227-71.424-35.879-108.718
			c-0.697-41.404-0.797-50.385-4.656-274.509c38.261-15.045,79.964-21.121,120.774-15.642
			c-73.96-81.22-92.675-208.188-45.296-307.295c-17.924,37.495-61.992,69.654-103.614,91.689
			c-26.583-60.585-87.126-111.212-153.834-102.224c-60.116,7.926-101.754,58.8-145.678,105.279
			c-50.841,52.25-98.143,73.218-140.52,62.288c-51.415-13.11-80.327-69.847-126.214-100.232
			c-87.238-55.994-179.542,18.026-247.413,96.094l-177.62,204.299c-3.621,4.157,2.64,9.705,6.334,5.506l177.62-204.298
			c65.363-75.179,156.777-149.744,238.877-92.805c0.556,43.14,21.549,86.08,56.72,111.17c45.472,32.546,111.46,32.855,157.318,0.932
			c13.463-9.417,43.488-42.27,54.933-71.167c41.095-40.476,84.012-100.477,146.749-108.748
			c61.631-8.211,120.305,40.512,145.252,97.749c-79.246,39.975-132.016,43.31-181.909,37.269
			c61.336,61.477,134.748,215.36,88.272,302.913c26.057-49.052,70.016-87.372,120.912-109.445
			c3.902,226.803,3.524,207.257,4.789,282.353c2.102,120.167,36.998,192.254,100.916,208.469
			c86.692,21.771,152.505-72.81,232.329-105.402c60.169-24.474,134.731-9.849,181.324,35.609
			c45.469,44.583,63.61,118.996,38.713,182.129c-57.443-23.571-123.953-24.887-185.454,1.726
			c-120.987,52.355-176.531,192.891-124.176,313.878c52.355,120.903,192.891,176.531,313.878,124.175
			c97.392-42.241,152.376-141.595,142.731-241.879c65.166-21.209,149.276,1.427,200.36,41.465
			c28.268,22.106,43.787,55.487,39.542,85.049c-5.035,35.283-37.306,71.757,26.941,114.259
			c16.398,10.768,35.035,20.327,46.998,35.503c17.407,22.057,23.466,49.612,18.005,81.887
			c-9.853,58.232-55.474,115.349-93.394,139.52c-27.314,17.313-61.03,30.44-76.003,60.387
			c-13.492,26.795-7.357,56.272-18.014,82.362c-8.952,22.049-30.324,38.141-53.959,41.009c-3.897-28.452-0.744-56.561-4.699-85.664
			c-3.614-25.489-20.359-51.541-45.489-53.217c83.449-79.589,26.635-220.386-88.211-220.386
			c-64.542,0-117.731,47.809-126.467,109.933c-16.928,21.252-32.894,45.516-50.01,69.352c-0.229-0.212-0.347-0.468-0.595-0.672
			c-12.455,10.692-70.157,91.51-145.914,68.237c-75.525-23.393-95.271-140.428-142.001-144.493
			c-11.581-62.488-17.211-123.659-46.958-175.269c-34.281-59.382-117.524-99.171-173.339-57.83
			c-49.874,36.83-46.765,111.719-44.491,166.395c2.786,70.055-17.206,151.147-29.374,193.245
			c-23.199,80.547-82.857,55.067-140.585-3.056c-25.937-26.063-50.759-54.953-83.976-71.686
			c-32.713-16.494-79.846-18.165-106.652,10.537c-32.981,35.465-20.313,95.649-67.338,116.444
			c-47.568-89.655-4.744-170.484-4.905-169.645c2.396-5.007-5.174-8.63-7.571-3.622c-0.008,0.016-0.012,0.033-0.02,0.049
			c-15.461,32.266-61.902,59.92-96.991,73.799c-33.819,13.38-59.735,19.681-99.658,14.88c-3.797-0.554-6.344,4.24-3.474,7.128
			c17.977,18.021,36.304,46.244,49.621,77.065c-10.642,29.8-13.485,63.783-38.584,64.716c-6.121,0.312-12.032-1.999-18.575-4.424
			c-35.06-13.323-78.695-25.122-105.111,2.352c-24.021,24.906-16.44,68.103-39.575,89.334
			c-17.018,15.527-43.971,13.282-67.912,9.939c-5.606-0.674-6.574,7.555-1.155,8.308c116.179,16.195,81.184-67.039,114.685-101.764
			c23.008-23.95,63.435-12.749,96.36-0.221c6.829,2.524,13.88,5.047,21.59,4.867c28.898-1.079,34.662-33.426,43.132-61.122
			c15.401,40.543,21.216,83.857,5.333,113.782c-2.595,4.877,4.814,8.808,7.407,3.933c0.012-0.016,0.016-0.025,0.025-0.041
			c31.14-58.576,101.428-94.628,167.198-85.852c3.631,0.687,6.392-3.984,3.658-6.981c-8.16-8.959-15.211-18.789-21.336-29.154
			c50.339-23.008,38.948-85.401,69.334-118.043c23.983-25.679,66.827-23.843,96.737-8.775
			c31.859,16.052,56.448,44.659,81.805,70.112c63.525,63.949,129.643,86.062,154.596-0.533
			c12.307-42.59,32.528-124.665,29.693-195.908c-2.315-55.749-5.199-125.124,41.099-159.316
			c51.294-38.011,129.122-0.088,161.082,55.282c29.142,50.545,34.635,111.966,45.981,172.633l-17.208,310.492
			c-61.63,3.371-85.931,26.531-102.126,76.414c-13.38,41.205-18.362,85.795-14.413,128.942
			c4.671,50.974,25.895,62.565,64.133,58.169l-426.391,259.447c-3.612,2.193-2.046,7.776,2.18,7.776h1.223
			c3.259,12.49,10.421,44.649,10.421,44.649l1527.867-3.783c4.437,7.969,9.222,15.729,14.277,23.319
			c23.149,73.007,58.158,149.913,104.599,229.538l-422.176,919.945c-4.735,3.389-7.955,7.389-9.392,12.06
			c-10.298,33.716,73.546,91.018,200.79,142.707c-16.119,26.986-32.268,53.939-48.41,80.877l-29.374,49.039
			c-18.698,31.226-38.031,63.508-49.383,98.757c-1.774,5.416-3.302,10.742-4.535,15.83c-0.598,2.427-1.094,4.87-1.604,7.312
			c-5.201,12.237-9.67,24.759-12.865,37.744c-13.339,54.452-3.775,114.19,25.927,161.764c20.64,32.973,51.851,60.745,89.439,70.562
			c37.673,9.733,81.638-1.175,105.55-31.799c8.451-10.905,13.872-23.457,17.533-36.808c1.446-1.59,2.966-3.116,4.281-4.811
			c0.578-0.771,1.151-1.541,1.446-2.041c20.873-28.292,23.393-67.081,25.617-101.305c0.565-8.702,1.118-17.223,1.946-25.351
			c4.912-48.375,17.866-87.523,32.873-132.875c0.815-2.523,1.713-5.137,2.733-7.776c9.992-28.186,23.663-57.158,41.795-88.564
			c3.925-6.768,7.931-13.438,12.024-20.05c0.234-0.381,0.49-0.777,0.725-1.159c139.052,33.821,251.366,39.582,280.087,13.02
			l3.099,0.946c0.402,0.123,0.815,0.18,1.225,0.18c0.77,0,1.532-0.213,2.2-0.623c1.024-0.631,1.729-1.672,1.934-2.86l147.599-858.49
			c26.793-104.747,26.064-215.352-2.11-319.869l-57.721-213.811c5.7,6.59,14.224,9.966,22.515,12.816
			c107.733,37.041,205.209,18.52,291.014-60.787c44.952-41.548,77.151-96.592,91.856-155.982c0.231-0.352,0.506-0.755,0.731-1.099
			l-35.1,248.1c-1.513,0.615,0.415,6.587,4.702,5.835l11.75-2.001c41.276,10.281,148.16,8.4,190.695,7.883l22.079,118.026
			l0.922,89.683c-3.172,2.342,0-10.846-19.648,225.109l-0.024,0.234c-27.859,0.894-33.42,44.245-6.205,51.616l175.739,47.611
			c-158.612,37.391-264.404,189.623-233.819,351.178c12.59,154.473,145.429,276.036,307.437,276.036
			c162.408,0,295.375-122.041,307.509-276.946C4252.783,3611.719,4178.832,3478.485,4053.425,3420.365z M1784.099,1391.477
			c14.599-6.293,31.463,0.42,37.756,14.935c6.293,14.599-0.335,31.463-14.934,37.84c-14.516,6.293-31.463-0.419-37.756-15.019
			C1762.873,1414.718,1769.501,1397.77,1784.099,1391.477z M1749.784,1643.688l8.642-149.682l96.99,21.563l-1.342-177.369
			l161.764,181.396L1749.784,1643.688z M748.484,2192.249c8.426-55.792-26.691-132.965-63.082-175.154
			c35.609,2.688,60.78-3.876,92.682-16.502c28.169-11.143,60.944-29.505,82.845-52.152c-17.002,60.444-3.671,128.901,35.933,177.866
			C841.039,2122.775,783.635,2148.716,748.484,2192.249z M3842.864,2787.364l51.413,219.662
			c-68.533,27.564-133.238,12.649-192.358-44.639l-3.246-3.142l-24.768-132.388
			C3771.704,2803.997,3749.521,2809.182,3842.864,2787.364z M3951.867,3139.024c7.411,10.707,13.462,19.109,18.684,26.055
			c-15.524,4.461-27.345,15.208-33.398,30.333l-32.171-37.431C3921.275,3155.215,3937.619,3148.909,3951.867,3139.024z
			 M3999.202,3198.817c-14.064,5.679-25.482,17.358-30.918,31.543l-16.313-17.709l-8.8-10.24c2.151-3.764,6.946-24.504,32.948-30.08
			C3985.087,3183.762,3991.625,3190.774,3999.202,3198.817z M4041.049,3246.784c-9.086,12.191-15.966,25.841-20.566,40.241
			l-45.888-49.813c0.049-0.125,0.18-0.184,0.218-0.316c4.223-14.717,16.146-26.721,30.701-31.347
			C4013.944,3214.595,4024.639,3226.489,4041.049,3246.784z M3704.348,3077.44l-1.053-102.263
			c59.854,54.266,125.181,67.597,194.339,39.649l50.046,116.788C3877.018,3181.368,3774.408,3128.061,3704.348,3077.44z
			 M3701.91,3086.036c53.07,38.201,127.666,79.187,193.086,73.205l50.706,58.99l69.592,75.545c0.472,1.022,1.063,1.341,2.491,2.844
			c-6.475,26.519-5.43,54.854,3.771,80.681c-17.778,2.318-29.796,2.971-35.71,1.877l-228.285-60.768
			c30.204-54.565,3.687-124.555-62.408-148.336L3701.91,3086.036z M4151.164,3282.788c19.431,21.172,28.432,36.306,26.642,64.713
			c-65.614,14.343-114.931,23.871-147.796,28.631c-15.867-42.58-7.913-92.851,20.783-128.25
			C4081.049,3243.01,4129.821,3259.571,4151.164,3282.788z M3793.125,1895.592c105.538,117.392,191.337,429.071,240.203,642.609
			c-5.664-3.038-115.912-29.684-244.818-13.267c-11.779-143.273-39.534-285.468-82.548-422.659
			c-1.667-5.325-9.658-2.775-8.005,2.507c42.879,136.772,70.538,278.535,82.239,421.374
			c-97.174,13.563-191.541,47.479-273.524,100.273c0.121-0.853,5.732-40.234,5.377-37.743l41.193-263.169
			c0.858-5.5-7.441-6.754-8.292-1.295l-40.412,258.177c-7.778,14.612-16.446,28.734-25.896,42.319
			c-94.779,128.58-233.995,200.337-389.656,166.38l-0.078-0.287l24.358-34.583h2.947c4.015,0,5.745-5.145,2.503-7.563l-49.35-36.695
			c-0.896-66.06-3.758-276.819-5.432-400.203c124.705,29.741,117.382,28.137,118.299,28.137c0.223,0,1.611-0.386,1.676-0.415
			c2.88-1.267,113.665-160.627,249.336-297.154C3529.028,1945.956,3702.117,1794.485,3793.125,1895.592z M2802.608,2243.171
			c-7.65,4.101-37.95,21.385-73.581,55.187l-16.177-308.325l152.611-87.403C2860.535,1929.135,2802.779,2242.248,2802.608,2243.171z
			 M3058.871,2556.921l-83.136-8.498l-3.419-258.536l83.199,19.87L3058.871,2556.921z M2737.792,2465.421l-8.184-155.992
			c37.234-36.54,70.383-55.311,77.319-59.039c13.587,3.245,142.163,33.95,156.97,37.487l3.497,264.397
			c0.029,2.13,1.651,3.9,3.769,4.113l87.823,8.974l1.905,140.306L2737.792,2465.421z M3526.953,1945.557
			c-52.4,42.231-107.087,96.779-152.388,146.198c26.039-168.386,29.863-121.543,47.269-193.45
			c13.08-54.061,17.51-112.91,15.883-148.214C3460.909,1776.097,3511.914,1843.375,3526.953,1945.557z M3119.538,1599.74
			c12.763-0.47,54.482-9.293,88.633-27.202c20.266-10.597,23.606-14.334,32.468-24.726c-17.504,95.212-21.42,116.805-21.731,117.86
			c-5.805,28.678-34.028,47.769-62.931,42.517c-25.863-4.687-44.631-27.154-44.631-53.422
			C3111.346,1647.019,3112.357,1645.41,3119.538,1599.74z M3611.32,1190.215c-11.147-7.601-24.581-11.156-37.645-7.761
			c22.822-38.751,45.703-108.783,29.011-149.865C3644.825,1057.103,3660.998,1122.822,3611.32,1190.215z M3547.388,914.732
			c11.429,17.868,14.77,46.614-1.065,80.412c-16.832,0.404-33.44,8.131-44.323,21.011c4.355-53.034-31.358-116.528-91.649-129.018
			C3455.852,874.073,3522.21,875.344,3547.388,914.732z M3094.795,1187.618c15.536-34.968,35.416-65.073,58.686-89.184
			c19.189,6.057,34.589-9.404,47-22.71c11.247,36.375,56.296,53.281,89.417,27.8c8.096-6.229,10.323-12.17,12.241-7.47
			c3.662,8.984,8.806,39.552,39.192,61.963c29.146,21.498,70.444,25.137,102.901,9.068c-19.918,18.834-36.872,39.794-40.792,66.925
			c-5.593,38.725,14.85,73.723,69.799,72.454c0.141,2.55,4.358,6.784,7.796,5.288c16.137-7.112,42.627,6.956,52.164,23.04
			c32.116,54.427-19.934,133.024-76.966,130.196c-23.339-1.213-37.109-15.92-44.548-28.047c-2.495-4.032-8.725-1.476-7.665,3.138
			c-2.995,7.899-42.836,41.804-54.786,50.726c-64.925,48.065-153.292,62.22-222.001,22.155
			C3018.861,1449.327,3044.261,1301.163,3094.795,1187.618z M2945.083,1634.037c48.698,0.672,100.83,3.056,159.213,7.292
			c-0.261,1.958-1.34,6.688-1.34,13.438c0,30.324,21.668,56.265,51.521,61.681c30.403,5.484,62.404-12.548,71.571-44.63
			c71.491,21.937,125.164,40.728,189.444,62.681c11.653,3.962,9.049,1.999,12.413,5.242c3.6,6.538,0.667,55.695,0.18,63.158
			c-7.047,102.682-29.657,130.824-42.828,181.389c-5.677,21.92-16.868,88.912-17.747,96.537c-3.106,26.821-6.624,25-7.239,26.801
			c-61.632,68.367-133.618,158.64-179.73,223.365c-431.322-103.01-358.435-85.603-369.325-88.204l41.436-224.607l103.521-168.414
			l-16.977,8.94c0.721-3.656-3.124-6.175-6.157-4.441l-220.679,126.382l-12.51-238.403
			C2951.787,1624.975,2927.091,1633.902,2945.083,1634.037z M2326.175,1676.996h361.847c16.58,317.824,10.533,313.58,16.575,315.897
			c3.77,71.864,21.635,412.372,24.685,470.521H1570.601c9.63-12.304,6.964-25.745-3.304-37.854c-2.421-2.86-5.338-5.367-8.665-7.489
			c20.217-1.85,41.765-3.082,51.833-20.199l-0.878,17.422c-0.441,8.823-49.391,2.289,1063.034,4.408
			c2.407,0,4.333-2.037,4.187-4.433c-0.377-6.604-37.998-660.402-37.998-671.316c0-1.114-0.537-2.376-1.327-3.163
			c-2.413-2.405-6.111-6.017-255.976-5.484C2360.538,1721.719,2329.477,1705.797,2326.175,1676.996z M1593.95,2348.738
			c6.314-0.384,12.486-0.678,19.068-1.531l-0.946,18.767C1608.336,2357.886,1602.222,2352.504,1593.95,2348.738z M2024.899,1869.048
			l76.771,62.591l-76.771,62.507C2024.899,1994.146,2024.899,1871.734,2024.899,1869.048z M1914.446,1936.377
			c-2.175,107.514,120.523,168.414,204.864,104.47c3.132-0.696,6.242-1.197,9.275-1.138c21.148,0.516,35.872,24.163,38.985,46.122
			c4.068,29.894,0.349,58.783,5.301,89.703c0.328,2.048,2.094,3.531,4.138,3.531c23.492,0,53.61-17.784,65.303-46.564
			c10.489-25.692,5.86-58.173,17.743-81.772c13.635-27.269,46.288-40.129,73.005-57.068
			c82.528-52.605,141.276-188.347,60.405-249.987c180.182-0.315,226.984,1.75,237.071,3.295
			c2.143,47.039,34.163,603.858,37.641,664.343H1618.191l3.308-65.632c9.209-2.176,17.604-6.174,23.35-14.289
			c13.169-18.605,6.019-49.131-19.904-55.487l10.927-217.848c14.446,13.804,31.783,24.992,52.768,30.986
			C1804.087,2122.077,1854.03,2016.508,1914.446,1936.377z M1575.646,1945.729c7.491,28.51,22.862,71.729,52.23,104.216
			l-11.268,224.644c-3.234-0.239-6.493-0.236-9.707-0.126c15.977-15.5,5.865-47.623-33.762-49.145
			c-3.867-0.149-8.273-0.203-12.981-0.125L1575.646,1945.729z M1443.561,2430.067c-3.851-42.025,1.004-85.451,14.036-125.583
			c14.964-46.116,37.579-73.789,115.222-70.776c10.869,0.41,19.365,3.179,25.265,8.226c5.707,4.883,9.849,14.199,6.285,21.869
			c-2.86,6.162-9.369,9.472-17.1,11.553c-23.221,1.644-54.689,10.147-75.582,13.454c-5.451,0.878-4.206,9.122,1.311,8.292
			c0.033-0.008,0.07-0.017,0.102-0.017c67.106-10.639,107.374-23.877,123.448-4.81c7.841,9.292,8.476,24.343,1.45,34.266
			c-10.457,14.777-35.4,12.536-53.057,14.502c-37.68,4.165-21.971-3.012-84.193,7.268c-5.194,0.829-4.389,8.633,0.938,8.325
			c23.651-1.508,45.917-3.318,67.601-5.498c15.588,1.475,28.952,6.244,34.745,17.28c5.199,9.906,3.015,23.302-4.978,30.513
			c-7.194,6.489-17.776,8.21-27.997,9.406c-10.344,1.221-20.771,2.122-31.213,2.729c-11.465-2.039-24.162-0.492-35.13,0.877
			c-5.145,0.635-4.727,8.319,0.483,8.357c11.34,0.123,22.741-0.172,34.134-0.803c9.124,1.729,16.698,5.744,21.566,11.487
			c22.117,26.081-11.62,43.697-42.956,47.25C1480.555,2481.372,1449.396,2493.883,1443.561,2430.067z M1519.608,2486.485
			c18.205-1.979,32.558-7.884,42.037-14.68h1170.669c13.765,10.236,296.738,220.647,371.224,276.033
			c-115.035,0-1947.942,0-2013.447,0L1519.608,2486.485z M2519.835,4301.159c0.091,0.013,0.171,0.057,0.263,0.066
			c25.65-0.492,52.156,10.226,70.502,28.382c0.778,0.774,1.789,1.15,2.804,1.185c-4.121,10.937-8.456,22.146-15.623,31.262
			c-7.845,9.972-18.436,15.584-28.542,15.658c-15.797-0.262-27.965-14.667-31.82-28.759
			C2513.211,4333.58,2516.044,4316.926,2519.835,4301.159z M2596.202,4323.376c-19.689-19.342-46.581-30.383-74.152-30.523
			c3.897-14.877,8.598-29.577,14.056-44.034c28.227-5.343,59.02,5.845,77.071,28.275c0.094,0.116,0.231,0.16,0.334,0.263
			L2596.202,4323.376z M2616.774,4268.684c-19.102-21.33-48.86-32.323-77.247-28.772c7.162-17.816,15.505-35.161,24.878-51.913
			c26.514,0.446,52.005,14.458,66.564,36.632c0.46,0.7,1.108,1.16,1.819,1.475L2616.774,4268.684z M2636.045,4217.448
			c-15.449-21.702-40.506-35.665-67.061-37.493c8.441-14.382,17.595-28.308,27.554-41.563c9.02,6.957,18.558,13.14,28.999,18.028
			c8.782,4.111,18.857,7.766,29.552,10.399L2636.045,4217.448z M2629.093,4148.816c-32.865-15.385-56.628-42.493-81.6-73.678
			c0.097-0.111,0.182-0.225,0.283-0.335c0.885-0.975,2.753-3.433,5.219-6.792c2.348-3.171,5.301-7.21,8.542-11.651
			c8.993-12.307,25.04-34.282,30.214-39.944c52.996,19.697,106,39.469,159,59.248c-5.764,27.279-12.061,55.222-25.934,79.557
			C2694.552,4169.372,2654.471,4160.702,2629.093,4148.816z M2698.439,4211.013c-18.395,31.865-32.274,61.288-42.397,89.851
			c-1.037,2.671-1.983,5.433-2.839,8.079c-15.154,45.802-28.243,85.353-33.25,134.637c-0.836,8.234-1.397,16.854-1.967,25.654
			c-2.257,34.691-4.584,70.563-24.188,97.151c-0.352,0.565-0.787,1.139-1.176,1.655c-21.529,27.751-63.078,40.23-101.104,30.308
			c-33.819-8.734-64.692-33.11-86.93-68.638c-28.972-46.277-38.473-105.542-25.408-158.545c1.188-4.892,2.655-10.013,4.367-15.232
			c11.065-34.355,30.148-66.229,48.604-97.045l29.37-49.03c16.252-27.129,32.512-54.266,48.74-81.436l29.591-49.391
			c15.802,19.777,31.773,38.751,50.075,54.184c-36.645,48.743-63.635,105.809-78.04,165.077c-4.162,17.125-7.35,35.379-2.564,52.873
			c4.683,17.108,19.849,34.601,39.776,34.937c0.18,0,0.361,0,0.541,0c12.471,0,25.421-7.021,34.737-18.861
			c8.214-10.447,12.839-22.737,17.313-34.634l61.688-164.004c21.632,4.088,45.028,3.643,65.125-5.791
			c-6.583,9.906-12.434,19.042-17.911,27.948C2706.457,4197.42,2702.409,4204.172,2698.439,4211.013z M3002.773,4179.739
			c-20.873-46.239-154.523-117.287-324.948-169.591c-159.27-48.913-301.206-66.103-354.422-46.422l116.841-254.601
			c24.291-5.514,297.743-60.247,612.339,180.913L3002.773,4179.739z M3146.398,3344.428l-92.208,536.271
			c-298.377-226.875-560.149-190.614-609.601-181.042l297.46-648.182c0.569-1.246,0.496-2.688-0.193-3.875
			c-41.259-70.497-73.289-138.757-96.204-204.071c0.5,0.627,0.948,1.293,1.452,1.917c-5.176-15.974-9.686-32.147-13.899-48.397
			l448.395-1.11l62.781,232.555C3172.184,3131.617,3172.905,3240.755,3146.398,3344.428z M3505.226,2636.644
			c3.973-0.618,225.648-163.627,525.161-90.745c1.673,0.417,3.365-0.258,4.344-1.56c19.177,84.275,32.461,152.484,38.778,186.255
			c-35.956-44.573-94.33-35.985-148.478-23.111c-131.376,30.987-205.402,56.448-272.598,79.539
			c-56.73,19.23,7.241-10.007-177.667,64.91L3505.226,2636.644z M3919.409,3990.934c-167.165,0-304.313-131.194-304.313-295.755
			c0-144.623,107.33-265.256,248.603-290.781l110.164,29.845c3.692,1.007,7.552,1.091,11.328,0.335l54.107-11.27
			c108.352,45.329,184.425,150.112,184.425,271.87C4223.722,3859.311,4086.926,3990.934,3919.409,3990.934z"/>
		<path style="fill:#ECECEC;" d="M3919.437,3450.289c-142.749,0-258.884,108.876-258.884,242.71c0,133.825,116.135,242.702,258.884,242.702
			c142.748,0,258.884-108.876,258.884-242.702C4178.321,3559.166,4062.186,3450.289,3919.437,3450.289z M3919.437,3927.311
			c-138.123,0-250.494-105.115-250.494-234.311c0-129.205,112.371-234.32,250.494-234.32s250.494,105.115,250.494,234.32
			C4169.931,3822.196,4057.56,3927.311,3919.437,3927.311z"/>
		<path style="fill:#ECECEC;" d="M3926.902,3683.406c-36.207-7.07-79.472-19.982-79.472-57.07c0-49.301,55.025-63.985,104.718-57.338
			c34.059,4.559,50.043,27.471,55.115,27.471c4.554,0,6.239-5.673,3.021-8.891c-23.13-23.13-47.884-29.588-79.469-30.045v-22.581
			c0-7.065-10.135-7.018-10.135,0v22.756c-45.639,2.145-83.382,23.079-83.382,68.757c0,44.079,43.503,58.124,87.294,66.449
			c39.517,7.41,89.605,17.163,89.605,59.342c0,48.253-41.34,65.736-89.961,65.736c-33.837,0-61.85-10.285-82.672-36.447
			c-0.949-1.067-1.777-1.924-2.49-2.578c-2.099-1.92-7.642-1.436-7.642,4.179c0,2.015,0.478,2.188,2.311,4.622
			c21.488,28.359,51.639,39.856,86.938,40.358v23.647c0,6.783,10.135,6.816,10.135,0v-23.825
			c51.267-1.878,93.516-24.111,93.516-75.736C4024.33,3702.175,3972.719,3693.056,3926.902,3683.406z"/>
		<path style="fill:#ECECEC;" d="M3283.864,1198.218c18.241,15.222,37.965,21.646,44.054,14.35s-3.763-25.551-22.003-40.774
			c-18.242-15.222-37.965-21.647-44.055-14.35C3255.771,1164.741,3265.623,1182.996,3283.864,1198.218z"/>
		<path style="fill:#ECECEC;" d="M3171.018,1157.744c23.663,2.129,43.537-3.818,44.389-13.283c0.851-9.465-17.641-18.864-41.304-20.993
			c-23.663-2.129-43.534,3.818-44.386,13.283C3128.864,1146.215,3147.356,1155.613,3171.018,1157.744z"/>
		<path style="fill:#ECECEC;" d="M3456.968,1430.697c6.514-1.278,16.354-3.22,20.824-11.168c0.676-1.196,0.631-2.065,0.029-3.302
			c1.496-2.575-0.105-5.857-3.085-6.26c-8.31-1.088-7.81-2.69-8.698-3.073c1.052-1.882,14.4-7.167,22.299-9.21
			c3.605-0.933,4.307-5.792,1.057-7.694c-5.019-2.909-10.209-5.924-13.925-9.808c-3.49-3.646-5.121-7.759-4.252-10.725
			c0.684-2.343,2.958-4.605,7.141-7.104c8.566-5.105,18.87-8.202,29.788-8.955c5.691-0.404,4.754-8.974-0.582-8.374
			c-14.387,1.003-40.421,8.507-44.401,22.073c-2.958,10.124,5.205,19.327,13.99,25.236c-4.285,1.524-8.411,3.294-12.339,5.318
			c-12.015,6.172-7.64,17.115,4.002,19.829c-2.974,2.712-8.063,3.925-13.47,4.99
			C3449.908,1423.529,3451.517,1431.836,3456.968,1430.697z"/>
		<path style="fill:#ECECEC;" d="M3133.49,1304.524c-8.27-6.26-5.765-19.522,4.285-22.27c5.343-1.468,3.144-9.548-2.22-8.095
			c-16.766,4.606-20.93,26.611-7.128,37.051C3132.809,1314.527,3137.92,1307.884,3133.49,1304.524z"/>
		<path style="fill:#ECECEC;" d="M3255.99,1260.961c8.451,3.513,18.149-0.491,21.661-8.942c3.513-8.451-0.491-18.149-8.941-21.661
			c-8.452-3.512-18.149,0.491-21.662,8.942C3243.536,1247.751,3247.54,1257.449,3255.99,1260.961z"/>
		<path style="fill:#ECECEC;" d="M3151.439,1220.551c8.451,3.512,18.149-0.492,21.66-8.942c3.513-8.451-0.49-18.149-8.941-21.661
			s-18.149,0.492-21.661,8.942S3142.988,1217.038,3151.439,1220.551z"/>
		<path style="fill:#ECECEC;" d="M2965.099,3037.956c-2.348-0.189-4.29,1.647-4.417,3.958c-12.868,238.064-87.884,469.844-216.937,670.308
			c-1.254,1.95-0.692,4.539,1.258,5.793c0.7,0.459,1.487,0.672,2.265,0.672c1.381,0,2.729-0.68,3.531-1.926
			c129.839-201.677,205.314-434.882,218.264-674.388C2969.188,3040.054,2967.414,3038.079,2965.099,3037.956z"/>
		<path style="fill:#ECECEC;" d="M2673.794,2504.118c-4.661,0-1060.191,0-1060.191,0l-121.164,76.893h1300.19
			C2792.629,2581.011,2678.454,2504.118,2673.794,2504.118z"/>
		<path style="fill:#ECECEC;" d="M2486.861,2598.535c-2.37-7.096-90.512-2.83-704.516,7.087c-1.286,0.025-2.491,0.639-3.265,1.663l-85.283,112.85
			c-2.083,2.759-0.117,6.727,3.347,6.727h883.529c3.536,0,5.468-4.111,3.261-6.833
			C2546.367,2673.621,2489.45,2602.82,2486.861,2598.535z M1705.571,2718.472l78.974-104.501
			c231.706-4.425,666.145-12.077,696.007-10.209c7.227,10.144,37.858,48.621,91.33,114.71H1705.571z"/>
		<path style="fill:#ECECEC;" d="M3177.186,1356.005c-14.277-7.366-33.401,1.073-42.594,18.862c-9.189,17.788-5.043,38.272,9.246,45.663
			c15.073,7.783,33.906-2.067,42.59-18.862C3195.617,1383.887,3191.475,1363.403,3177.186,1356.005z M3178.972,1397.816
			c-7.067,13.675-21.094,20.533-31.279,15.256c-10.181-5.26-12.712-20.681-5.646-34.356c6.449-12.472,20.338-20.922,31.283-15.256
			C3183.511,1368.729,3186.043,1384.141,3178.972,1397.816z"/>
		<path style="fill:#ECECEC;" d="M727.886,796.49c-99.353,101.497-97.633,264.074,3.896,363.45c101.224,99.073,264.262,97.435,363.455-3.9
			c99.13-101.272,97.38-264.316-3.896-363.45C990.591,693.978,827.853,694.348,727.886,796.49z M1089.239,1150.174
			c-95.889,97.971-253.62,99.667-351.59,3.769c-98.193-96.108-99.893-253.381-3.765-351.586
			c96.024-98.107,253.383-99.888,351.59-3.769C1183.444,894.485,1185.132,1052.203,1089.239,1150.174z"/>
		<path style="fill:#ECECEC;" d="M881.278,1092.352c5.328,11.19,12.79,22.271,20.327,32.113c0.273-0.157,176.401-180.082,181.405-184.471
			c-21.068-12.687-42.049-26.643-66.159-32.833C931.938,885.363,825.972,976.216,881.278,1092.352z"/>
		<path style="fill:#ECECEC;" d="M894.158,853.519c-23.993-23.484-62.482-23.072-85.966,0.921c-23.484,23.993-23.072,62.481,0.921,85.965
			c23.994,23.484,62.482,23.072,85.967-0.921C918.563,915.491,918.151,877.003,894.158,853.519z"/>
		<path style="fill:#ECECEC;" d="M563.153,1466.123c-37.772,8.7-48.212,41.553-44.449,76.435c7.38,68.41,84.904,104.888,92.43,173.282
			c44.86-19.291,146.091-66.562,173.973-106.829c37.656-54.383-1.601-111.991-65.718-99.938
			c-26.871,5.051-50.352,20.821-72.525,36.82C640.899,1503.511,612.629,1454.729,563.153,1466.123z"/>
		<path style="fill:#ECECEC;" d="M1080.832,1537.048c-78.657,27.396-104.826,125.423-51.012,188.444c220.185,195.12,144.243,127.823,160.672,142.382
			l44.553-193.394C1254.987,1584.925,1168.68,1506.528,1080.832,1537.048z M1168.241,1639.109
			c8.861,25.515-4.658,53.488-30.144,62.361c-25.511,8.887-53.446-4.468-62.365-30.128c-11.181-32.094,12.855-65.09,46.142-65.09
			C1142.116,1606.253,1161.145,1618.936,1168.241,1639.109z"/>
		<path style="fill:#ECECEC;" d="M1256.4,1417.973c17.579,16.928,28.653,30.972,36.797,56.642c1.201,3.785,6.528,3.938,7.927,0.205
			c14.503-38.682,64.291-95.578,106.779-92.923c0,0,0,0,0.004,0c5.29,0.621,6.26-8.027,0.508-8.374
			c-44.286-2.688-85.774-35.454-98.646-77.921c-1.085-3.559-6.253-4.235-7.87-0.426c-19.484,45.515-68.007,76.88-117.16,75.774
			h-0.004c-5.391-0.365-5.859,8.289-0.152,8.39C1185.425,1379.671,1214.886,1378.026,1256.4,1417.973z M1305.192,1307.72
			c13.609,33.086,43.438,59.403,77.745,69.694c-36.822,12.921-70.629,54.512-85.328,84.492
			c-14.357-36.644-54.706-71.751-86.672-84.885C1250.468,1369.344,1286.29,1343.395,1305.192,1307.72z"/>
		<path style="fill:#ECECEC;" d="M3722.361,939.542l106.533-106.869c3.916-3.926-2.024-9.852-5.94-5.916l-106.533,106.869
			C3712.493,937.564,3718.465,943.477,3722.361,939.542z"/>
		<path style="fill:#ECECEC;" d="M3761.146,1020.396c5.669,0,86.849-46.108,228.044-88.286c5.285-1.58,2.96-9.612-2.401-8.046
			c-77.835,23.253-154.367,52.98-227.474,88.359C3755.34,1014.344,3756.677,1020.396,3761.146,1020.396z"/>
		<path style="fill:#ECECEC;" d="M3787.566,1110.853c-5.516-0.375-6.13,7.98-0.574,8.374c57.652,3.955,115.313,1.491,171.778-7.186
			c5.5-0.846,4.19-9.157-1.278-8.292C3901.416,1112.36,3844.249,1114.761,3787.566,1110.853z"/>
		<path style="fill:#ECECEC;" d="M4562.866,2245.507c-45.806-84.222-120.421-144.994-200.894-165.813c12.212-78.101-15.711-166.01-76.421-231.354
			c-60.489-65.114-151.774-110.515-263.985-131.302c-5.472-1.03-6.982,7.243-1.532,8.243
			c110.429,20.459,200.12,64.983,259.372,128.762c58.81,63.304,85.983,148.255,74.394,223.676
			c-39.235-8.781-85.906-10.092-117.737,14.175c-24.044,18.329-37.326,56.126-18.771,83.181
			c17.317,25.261,54.36,27.957,78.736,15.953c36.522-17.98,56.73-63.202,64.492-103.05c78.007,20.385,150.389,79.56,194.974,161.544
			c41.177,75.709,61.837,171.254,63.156,292.101c2.175,199.546-43.885,399.347-133.207,577.811
			c-2.479,4.958,5.009,8.718,7.505,3.753c89.916-179.652,136.284-380.78,134.092-581.662
			C4625.703,2419.284,4604.71,2322.453,4562.866,2245.507z M4292.323,2183.506c-21.238,10.438-53.324,8.39-68.118-13.184
			c-15.617-22.77-3.605-56.093,16.944-71.759c29.798-22.711,74.756-20.786,111.216-12.569
			C4345.18,2123.137,4326.391,2166.726,4292.323,2183.506z"/>
	</g>
</g>
</svg>