<?xml version="1.0" encoding="utf-8"?>
<!-- Generator: Adobe Illustrator 27.5.0, SVG Export Plug-In . SVG Version: 6.00 Build 0)  -->
<svg version="1.1" id="Layer_1" xmlns="http://www.w3.org/2000/svg" xmlns:xlink="http://www.w3.org/1999/xlink" x="0px" y="0px"
	 viewBox="0 0 3000 3000" style="enable-background:new 0 0 3000 3000;" xml:space="preserve">
<g>
	<g>
		<path d="M2629.847,1388.106c-15.282-33.396-65.357-75.917-81.643-82.204c-71.139-47.72-279.254-56.019-356.438-64.14
			c-243.575-24.359-554.494-45.96-726.116-55.439c-9.023-62.434-31.73-125.453-44.516-175.294
			c-103.536-403.957-134.556-508.988-179.451-603.356c-6.244-13.135-13.332-28.004-25.969-38.919
			c-38.427-33.162-100.134-14.767-148.821-2.22C943.99,396.647,651.727,484.607,546.683,519.02
			c-42.024,13.772-103.957,25.988-136.565,61.487c-68.778,39.676-46.107,103.636-29.167,181.497
			c27.666,129.141,77.688,315.573,113.665,443.527c54.835,193.269,68.055,231.979,101.588,300.739
			c18.139,37.242,60.385,42.632,101.843,38.758c71.062,5.474,155.072-29.98,220.59-47.672l-8.03,245.198
			c-74.979-2.213-155.806-18.43-223.197,15.948c-82.279,41.926-111.902,145.942-105.647,229.632
			c-78.638,93.41-89.853,342.977,49.707,511.85c82.603,99.947,208.831,155.169,329.208,144.162
			c63.672-5.838,126.631-29.71,188.319-35.266c171.681-15.468,357.918,105.767,520.782-8.313
			c27.849,12.53,61.469,3.708,77.48-12.427c9.689-9.765,13.725-23.229,15.8-37.356c98.698,7.007,197.396,13.187,296.093,17.301
			c67.251,3.078,317.686,20.787,398.301-6.157c33.861-9.947,67.728-29.837,71.514-67.962c0.647-2.586,4.111-42.994,29.6-291.266
			c99.234-990.985,73.757-692.062,76.723-749.235C2636.715,1431.203,2639.086,1408.942,2629.847,1388.106z M2258.782,1271.362
			c55.995,4.61,241.951,17.945,286.057,62.042c27.509,26.947,13.457,89.386,8.048,132.608l-68.907,681.75l-29.363,291.5
			c-5.926,59.205-96.757,66.752-155.817,69.858c-186.058,11.532-836.33-35.774-1188.501-82.172
			c-58.963-8.048-125.743-17.049-172.866-53.988c-38.046-29.831-20.493-88.009-19.419-133.082l15.517-473.549
			c47.337-1.023,92.096-10.69,127.014-46.4c60.329-61.669,64.738-191.722,48.91-277.067c10.505-3.136,20.922-6.365,31.404-9.545
			c362.104,41.481,691.081,65.01,1038.356,89.766c83.592,5.92,168.842,11.84,256.457,18.234h0.711
			c6.157,0,11.366-4.735,11.84-10.892c0.474-6.631-4.498-12.077-10.892-12.788c-87.621-6.394-172.629-12.314-256.457-18.234
			c-329.376-23.544-642.31-45.637-982.469-83.574c36.443-11.351,42.092-12.678,74.301-20.067
			c73.734-16.858,174.733-39.937,191.903-115.302c5.07-22.269,5.619-45.984,3.712-70.228
			C1898.476,1234.243,2139.052,1261.692,2258.782,1271.362z M554.06,541.544c279.555-91.635,529.692-154.797,532.062-155.47
			c36.827-9.504,87.286-22.524,114.122,0.601c8.869,7.678,14.569,19.633,20.061,31.173
			c64.868,136.364,136.836,461.843,192.493,650.74c20.038,68.034,42.735,145.11,28.733,206.599
			c-17.614,77.267-161.301,90.247-224.464,110.237c-83.676,26.421-219.688,66.422-316.282,92.361
			c-63.446,16.938-223.731,84.341-259.348,11.262c-38.287-78.591-53.047-130.026-100.767-298.799
			c-82.04-290.285-112.092-436.962-118.574-464.074c-9.585-40.053-21.506-89.864-0.925-121.73
			C444.341,568.586,512.786,555.036,554.06,541.544z M1086.642,1449.792c9.019,50.369,9.666,102.901,0.856,153.169
			c-17.487,99.803-65.219,137.483-153.186,139.646l8.256-251.959C990.638,1477.49,1038.669,1463.945,1086.642,1449.792z
			 M1146.871,2585.291c-64.003,5.74-126.577,29.619-188.342,35.266c-112.885,10.337-231.124-41.648-308.812-135.652
			c-121.574-147.158-123.4-367.124-63.247-463.056c7.55,36.514,26.999,90.35,76.694,110.353
			c37.266,14.962,83.042,2.983,108.884-28.513c45.456-55.375,23.026-148.013-60.738-163.98
			c-36.989-6.961-77.712,2.937-106.711,26.062c0-71.526,27.403-152.464,93.564-186.18c60.697-30.905,139.78-15.458,211.664-13.372
			l-15.494,472.948c-0.973,37.868-14.873,91.009,9.741,130.92c0.965,3.951,2.405,7.79,4.469,11.398
			c29.126,49.965,88.089,74.827,140.658,87.615c146.018,35.099,435.601,59.91,585.92,72c-1.22,15.858,4.047,32.479,14.384,44.548
			C1497.228,2685.089,1321.994,2569.506,1146.871,2585.291z M606.311,1996.249c51.74-53.76,129.874-41.066,155.065,3.885
			c15.286,27.288,12.071,64.519-7.62,88.523c-19.471,23.749-53.835,32.861-81.759,21.576
			c-34.375-13.829-58.911-56.194-65.606-113.29C606.369,1996.712,606.334,1996.481,606.311,1996.249z"/>
		<path d="M2430.087,1453.831c22.414,1.619,41.851-15.959,43.406-39.264c1.555-23.304-15.349-43.51-37.763-45.129
			s-41.851,15.962-43.406,39.266S2407.673,1452.212,2430.087,1453.831z"/>
		<path d="M2308.339,1445.034c22.414,1.619,41.845-15.959,43.406-39.26c1.555-23.304-15.355-43.51-37.763-45.129
			c-22.42-1.619-41.851,15.959-43.406,39.264C2269.015,1423.213,2285.925,1443.416,2308.339,1445.034z"/>
		<path d="M2192.188,1436.646c22.414,1.619,41.845-15.962,43.406-39.266c1.555-23.301-15.349-43.504-37.763-45.126
			c-22.414-1.619-41.851,15.959-43.406,39.263C2152.869,1414.822,2169.774,1435.027,2192.188,1436.646z"/>
		<path d="M727.625,1093.525c-84.816,69.975-90.938,114.341-62.276,214.069c0.666,2.445,29.742,109.144,27.941,102.534
			c3.966,15.185,26.673,9.059,22.738-6.157l-22.975-84.774c-8.384-36.295-28.96-82.586-14.679-128.11
			c10.181-32.442,37.411-57.067,64.409-79.328c27.854-22.949,56.76-44.689,85.95-65.603c-14.424,35.272-25.86,71.78-33.953,109.035
			c-1.923,8.926,6.543,16.681,15.448,13.713c31.057-10.753,69.595-2.891,103.068,21.044c24.616,17.624,44.54,41.249,62.773,65.56
			c17.065,22.753,25.968,29.787,34.803,51.153c4.119,9.977,18.623,9.815,22.067-1c5.452-1.711,9.013-7.047,8.227-12.782
			c-1.723-12.557-1.445-25.322,0.809-37.925c4.56-25.551,5.196-70.788,24.166-114.77c16.673-38.734,45.741-66.415,77.758-74.07
			c8.784-2.084,12.1-12.958,5.92-19.587c-25.75-27.652-54.02-52.852-84.297-75.339c35.78,2.049,71.705,4.946,107.289,9.62
			c34.104,4.501,69.624,10.658,94.483,32.679c50.412,45.149,61.045,147.058,78.145,207.438c1.659,6.157,8.053,9.944,14.447,8.287
			c6.394-1.656,9.944-8.287,8.285-14.444c-17.804-65.684-28.922-168.503-85.245-218.804c-29.837-26.759-71.04-34.098-107.034-38.599
			c-45.961-5.995-92.5-9.715-138.542-11.545l-9.926-37.743c4.972-10.385,9.026-19.414,13.297-40.827
			c2.375,0.994,8.757,12.381,42.556,10.88c32.053-1.42,44.474-11.068,53.985-28.629c11.88-21.894,14.089-48.884,5.908-72.205
			c-8.29-23.657-25.264-37.055-44.655-50.589c10.241-19.959,13.872-31.431,4.301-63.267c-12.04-40.11-58.666-61.843-98.536-55.775
			c-11.106-42.897-47.545-76.055-89.54-87.956c-119.468-33.864-261.124,91.336-213.265,215.422
			c-29.687,13.872-51.361,50.077-47.852,82.903c3.509,32.823,29.508,61.568,61.345,67.814c-10.181,12.719-8.423,31.551-2.029,46.406
			c20.594,47.839,79.655,69.384,127.905,38.616l8.909,31.719C839.663,1006.28,763.43,1063.873,727.625,1093.525z M1021.447,817.328
			c0.723,24.894-2.746,49.47-10.967,70.768c-28.946,75.003-112.32,84.312-156.14,52.725c-28.92-20.857-42.667-61.326-56.471-97.472
			c-10.383-26.328-17.222-50.043-21.512-72.676c16.638-5.325,29.161-17.419,40.902-30.198c8.325-9.056,16.823-18.815,19.575-30.84
			c14.314,9.828,30.704,15.991,46.753,22.532c41.465,16.902,82.769,33.034,125.928,20.119
			C1020.079,782.78,1014.073,779.08,1021.447,817.328z M822.23,1141.755c9.447-37.948,22.408-74.995,38.665-110.515
			c58.167,50.264,94.736,122.786,120.979,193.094C940.636,1173.433,887.077,1132.318,822.23,1141.755z M946.625,1096.927
			c17.084-2.769,31.78-8.308,44.128-15.725c-1.082,34.938,0.775,71.039,10.227,126.899
			C991.216,1182.617,965.061,1125.849,946.625,1096.927z M1024.528,1205.742c-12.673-74.394-17.522-155.563,7.018-229.771
			c31.658,21.576,61.224,46.181,88.211,73.445C1059.297,1076.18,1034.29,1140.42,1024.528,1205.742z M1014.81,953.017
			c-0.684,2.368-16.599,36.557-22.333,98.452c-14.638,12.167-34.439,22.021-60.732,23.403
			c-14.794-20.512-32.924-41.544-53.928-59.992l-11.684-41.79c50.658,18.738,109.361,5.291,144.063-37.558L1014.81,953.017z"/>
		<path d="M841.031,1264.803c-1.862-6.244-8.429-9.805-14.719-7.978c-6.267,1.873-9.84,8.464-7.967,14.731
			c6.383,21.437,13.32,42.804,20.628,63.525c1.723,4.879,6.29,7.909,11.169,7.909c8.206,0,13.872-8.124,11.169-15.771
			C854.131,1306.868,847.309,1285.87,841.031,1264.803z"/>
		<path d="M1197.365,1177.599c-1.492-6.359-7.863-10.314-14.21-8.857c-6.371,1.48-10.337,7.863-8.845,14.222l9.759,42.041
			c1.493,6.407,7.897,10.314,14.21,8.857c6.371-1.48,10.337-7.839,8.868-14.222L1197.365,1177.599z"/>
		<path d="M1681.187,1584.114l28.941-8.88l25.993,15.517c5.574,3.31,12.871,1.553,16.234-4.116
			c3.353-5.596,1.515-12.881-4.093-16.234l-30.502-18.199c-7.745-4.523-11.829,0.719-43.51,9.25c-6.255,1.919-9.77,8.556-7.851,14.8
			C1668.307,1582.473,1674.921,1585.941,1681.187,1584.114z"/>
		<path d="M1522.654,1632.7l79.273-24.281c6.255-1.919,9.77-8.556,7.851-14.8c-1.908-6.244-8.498-9.736-14.788-7.863l-79.273,24.281
			c-6.255,1.919-9.77,8.556-7.851,14.8C1509.781,1631.083,1516.376,1634.584,1522.654,1632.7z"/>
		<path d="M1389.858,1699.578c4.324,0,8.487-2.359,10.568-6.475l13.806-27.195l29.149-8.926c6.255-1.919,9.77-8.556,7.851-14.8
			c-1.919-6.244-8.487-9.805-14.788-7.862c-30.042,10.248-37.184,8.769-41.047,16.373l-16.083,31.681
			C1375.326,1690.221,1381.012,1699.578,1389.858,1699.578z"/>
		<path d="M1329.999,1817.423c4.324,0,8.475-2.359,10.568-6.475l29.924-58.923c2.96-5.828,0.636-12.95-5.192-15.933
			c-5.885-2.937-12.973-0.624-15.922,5.203l-29.924,58.923C1315.457,1808.086,1321.187,1817.423,1329.999,1817.423z"/>
		<path d="M1301.485,2044.974l-19.043-63.27c-0.162-0.543-0.543-0.942-0.775-1.445c3.363,3.33-4.607-2.803,31.716,20.87
			c5.459,3.512,12.81,1.959,16.361-3.584c3.515-5.504,1.908-12.834-3.596-16.349l-29.935-19.148
			c-9.667-6.229-21.907,3.613-17.003,14.687c-2.989-2.888-7.284-4.275-11.522-2.94c-6.267,1.873-9.817,8.487-7.932,14.754
			l19.043,63.27c1.925,6.351,8.632,9.783,14.754,7.909C1299.82,2057.854,1303.37,2051.241,1301.485,2044.974z"/>
		<path d="M1270.139,1935.292c4.324,0,8.475-2.359,10.568-6.475l29.935-58.946c2.96-5.828,0.636-12.95-5.192-15.933
			c-5.862-2.937-12.962-0.624-15.922,5.203l-29.935,58.946C1255.598,1925.955,1261.328,1935.292,1270.139,1935.292z"/>
		<path d="M1339.561,2171.561l-19.043-63.293c-1.885-6.221-8.487-9.851-14.754-7.909c-6.267,1.873-9.817,8.487-7.932,14.754
			l19.044,63.293C1321.426,2193.418,1344.097,2186.643,1339.561,2171.561z"/>
		<path d="M1394.46,2278.167l-27.079-14.083l-8.787-29.207c-4.575-15.119-27.184-8.103-22.686,6.799
			c10.449,31.191,8.632,37.266,16.118,41.116c32.076,16.176,31.951,17.714,36.965,17.714c4.278,0,8.406-2.313,10.522-6.383
			C1402.519,2288.319,1400.264,2281.173,1394.46,2278.167z"/>
		<path d="M1669.521,2395.296l-31.728,9.227l-32.525-16.881c-5.828-3.122-12.938-0.786-15.968,5.041
			c-3.006,5.804-0.751,12.95,5.053,15.956c36.339,18.409,37.046,20.419,42.192,20.419c3.148,0,2.897-0.511,39.59-11.008
			c6.278-1.827,9.886-8.394,8.059-14.684C1682.367,2397.076,1675.857,2393.399,1669.521,2395.296z"/>
		<path d="M1534.991,2351.15l-70.266-36.491c-5.804-3.099-12.95-0.786-15.968,5.041c-3.006,5.804-0.752,12.95,5.053,15.956
			l70.266,36.491c5.613,2.974,12.885,0.888,15.968-5.041C1543.05,2361.302,1540.795,2354.156,1534.991,2351.15z"/>
		<path d="M1821.591,2351.104l-76.035,22.084c-6.278,1.827-9.886,8.395-8.059,14.684c1.867,6.433,8.583,9.847,14.673,8.071
			l76.035-22.084c6.278-1.827,9.886-8.394,8.059-14.684S1827.928,2349.207,1821.591,2351.104z"/>
		<path d="M1956.445,2288.203c-5.862-2.891-12.95-0.578-15.91,5.226l-13.736,27.079l-29.172,8.487
			c-6.278,1.827-9.886,8.394-8.059,14.684c1.867,6.433,8.583,9.847,14.673,8.071c30.91-10.091,37.436-8.171,41.359-15.956
			l16.049-31.681C1964.608,2298.286,1962.273,2291.163,1956.445,2288.203z"/>
		<path d="M2035.487,1920.746l19.148,66.901c1.828,6.428,8.576,9.923,14.638,8.117c6.279-1.804,9.921-8.348,8.117-14.638
			l-19.147-66.901c-1.792-6.29-8.371-9.99-14.638-8.117C2037.325,1907.912,2033.683,1914.456,2035.487,1920.746z"/>
		<path d="M2016.339,1853.845c1.491,5.203,6.232,8.579,11.389,8.579c7.831,0,13.549-7.52,11.389-15.101l-19.136-66.901
			c-4.367-15.133-27.053-8.483-22.778,6.521L2016.339,1853.845z"/>
		<path d="M1795.899,1626.364c60.018,35.108,59.759,37.301,65.826,37.301c12.017,0,16.36-15.875,6.07-22.015l-59.778-35.636
			c-5.608-3.353-12.881-1.503-16.234,4.116C1788.442,1615.75,1790.28,1623.011,1795.899,1626.364z"/>
		<path d="M1915.444,1697.635l59.767,35.636c5.531,3.305,12.846,1.566,16.234-4.116c3.342-5.619,1.503-12.881-4.116-16.234
			l-59.767-35.636c-5.619-3.353-12.881-1.503-16.234,4.116C1907.987,1687.021,1909.825,1694.282,1915.444,1697.635z"/>
		<path d="M2082.222,2039.91c-5.874-2.891-12.95-0.578-15.922,5.226l-31.439,62.091c-2.948,5.828-0.613,12.95,5.215,15.91
			c6.04,3,13.027,0.468,15.922-5.226l31.438-62.091C2090.385,2049.992,2088.05,2042.87,2082.222,2039.91z"/>
		<path d="M2019.334,2164.068c-5.851-2.891-12.962-0.578-15.922,5.226l-31.438,62.068c-2.948,5.827-0.613,12.95,5.215,15.91
			c5.987,2.973,13.006,0.518,15.91-5.226l31.438-62.068C2027.497,2174.151,2025.161,2167.028,2019.334,2164.068z"/>
		<path d="M1706.261,1613.989c0.433,4.486-0.08,0.737,14.945,36.124c2.613,5.972,9.574,8.727,15.586,6.105
			c5.989-2.613,8.73-9.597,6.105-15.586l-14.141-32.468c-2.393-5.538-8.441-8.157-14.118-6.489l3.399-5.004
			c3.677-5.411,2.266-12.765-3.133-16.442c-5.434-3.654-12.777-2.289-16.453,3.122l-19.969,29.369
			c-5.402,7.95,0.464,18.5,9.782,18.5C1697.927,1631.22,1699.977,1621.611,1706.261,1613.989z"/>
		<path d="M1517.52,1858.701c27.701-12.623,30.411-11.764,33.74-16.65l23.53-34.618c3.677-5.411,2.266-12.765-3.133-16.442
			c-5.434-3.677-12.777-2.289-16.453,3.122l-21.599,31.774l-25.519,11.077c-5.989,2.613-8.753,9.574-6.14,15.586
			C1504.453,1858.348,1511.24,1861.345,1517.52,1858.701z"/>
		<path d="M1606.077,1752.141c11.163,0,9.806-8.38,50.898-65.652c3.677-5.411,2.266-12.788-3.133-16.442
			c-5.434-3.654-12.777-2.289-16.453,3.122l-41.093,60.472C1590.888,1741.599,1596.762,1752.141,1606.077,1752.141z"/>
		<path d="M1378.677,1917.855c4.452,0,1.151,0.175,71.769-30.063c6.001-2.613,8.753-9.574,6.151-15.586
			c-2.59-5.989-9.551-8.672-15.563-6.151l-67.074,29.091C1362.218,1900.259,1365.871,1917.855,1378.677,1917.855z"/>
		<path d="M1306.885,1924.238l-32.583,14.129c-11.749,5.116-8.075,22.709,4.706,22.709c4.498,0,5.126-1.502,37.289-15.101
			c6.001-2.613,8.753-9.574,6.151-15.586C1319.858,1924.4,1312.886,1921.602,1306.885,1924.238z"/>
		<path d="M1748.979,1713.291c9.215,20.836,18.974,42.735,28.213,63.155c1.977,4.371,6.29,6.961,10.799,6.961
			c1.63,0,3.284-0.347,4.868-1.064c5.955-2.682,8.603-9.689,5.908-15.656c-9.215-20.373-18.951-42.226-28.143-62.969
			c-2.636-5.989-9.632-8.741-15.621-6.036C1749.025,1700.318,1746.331,1707.325,1748.979,1713.291z"/>
		<path d="M1871.229,1873.663c-20.119-15.933-28.86-22.524-33.474-25.368c-1.226-2.012-4.047-7.053-10.013-19.286
			c-2.856-5.828-9.932-8.279-15.829-5.434c-5.874,2.868-8.313,9.944-5.446,15.841c4.058,8.319,7.053,14.294,9.533,18.65
			c-8.407-0.663-10.826,5.973-35.699,25.727c-8.434,7.162-3.275,20.882,7.654,20.882c7.481,0,8.361-4.545,34.757-25.761
			c2.914-2.474,4.139-6.042,3.977-9.585c2.683,1.815,9.84,7.047,29.831,22.882c2.174,1.734,4.775,2.567,7.342,2.567
			c3.492,0,6.961-1.526,9.296-4.486C1877.219,1885.156,1876.351,1877.71,1871.229,1873.663z"/>
		<path d="M1978.715,1960.845c-17.402-14.268-35.89-29.392-53.558-43.729c-5.099-4.186-12.557-3.33-16.662,1.711
			c-4.116,5.088-3.353,12.534,1.723,16.65c17.644,14.338,36.11,29.415,53.465,43.683c2.208,1.804,4.868,2.682,7.504,2.682
			C1982.218,1981.842,1987.331,1967.943,1978.715,1960.845z"/>
		<path d="M2060.843,2043.795c4.163-5.018,3.469-12.488-1.573-16.65l-27.357-22.593c-5.041-4.186-12.522-3.422-16.662,1.596
			c-4.162,5.041-3.446,12.511,1.607,16.673l27.311,22.547C2049.24,2049.561,2056.687,2048.831,2060.843,2043.795z"/>
		<path d="M2024.375,2039.632l-32.051,15.309c-5.908,2.821-8.406,9.897-5.585,15.794c2.849,5.956,9.96,8.361,15.783,5.573
			l32.051-15.309c5.908-2.821,8.406-9.897,5.585-15.794C2037.337,2039.285,2030.237,2036.788,2024.375,2039.632z"/>
		<path d="M1751.407,2238.531c-5.365-3.746-12.754-2.405-16.488,2.96l-36.723,52.794c-3.735,5.365-2.405,12.742,2.96,16.465
			c5.395,3.758,12.764,2.393,16.488-2.96l36.723-52.794C1758.101,2249.631,1756.772,2242.254,1751.407,2238.531z"/>
		<path d="M1950.074,2088.241c-2.833-5.897-9.932-8.417-15.783-5.573l-58.032,27.727c-5.908,2.821-8.406,9.897-5.585,15.794
			c2.035,4.255,6.279,6.729,10.695,6.729c1.711,0,3.446-0.37,5.088-1.156l58.032-27.727
			C1950.398,2101.214,1952.895,2094.138,1950.074,2088.241z"/>
		<path d="M1660.641,2389.746l20.281-29.161c3.735-5.365,2.405-12.742-2.96-16.465c-5.4-3.746-12.765-2.428-16.488,2.96
			l-20.281,29.161c-3.735,5.365-2.405,12.742,2.96,16.465C1649.608,2396.485,1656.941,2395.063,1660.641,2389.746z"/>
		<path d="M1595.151,2277.774l-25.241-63.987c-5.746-14.601-27.775-5.883-22.038,8.695l25.241,63.987
			c2.47,6.244,9.519,9.018,15.367,6.66C1594.561,2290.747,1597.544,2283.856,1595.151,2277.774z"/>
		<path d="M1442.051,2055.288l-57.963-37.046c-5.492-3.538-12.823-1.966-16.349,3.584c-3.515,5.527-1.908,12.834,3.608,16.349
			c61.041,38.233,58.27,38.92,64.322,38.92c3.908,0,7.724-1.919,9.99-5.458C1449.174,2066.11,1447.566,2058.803,1442.051,2055.288z"
			/>
		<path d="M1526.169,2109.077l-26.166-16.719c-5.492-3.584-12.846-1.943-16.349,3.584c-3.515,5.527-1.908,12.834,3.608,16.349
			l22.928,14.661l12.441,31.542c2.448,6.19,9.483,9.052,15.367,6.66c6.082-2.405,9.065-9.273,6.672-15.355
			C1530.779,2116.438,1531.821,2112.679,1526.169,2109.077z"/>
		<path d="M1605.037,2335.101c-6.082,2.405-9.065,9.273-6.672,15.355l13.043,33.046c1.838,4.648,6.302,7.493,11.019,7.493
			c8.285,0,14.091-8.382,11.019-16.188l-13.042-33.046C1618.01,2335.679,1611.119,2332.65,1605.037,2335.101z"/>
		<path d="M1589.184,1876.878l-23.403-26.733c-4.301-4.949-11.782-5.434-16.708-1.11c-4.914,4.301-5.411,11.771-1.098,16.696
			c20.732,21.996,23.135,30.78,32.306,30.78C1590.328,1896.511,1595.936,1884.589,1589.184,1876.878z"/>
		<path d="M1746.851,2074.967c4.926-4.301,5.423-11.771,1.122-16.696l-39.694-45.348c-10.274-11.813-28.145,3.773-17.829,15.586
			l39.694,45.348C1734.435,2078.761,1741.906,2079.301,1746.851,2074.967z"/>
		<path d="M1667.463,1984.271c4.926-4.301,5.423-11.771,1.122-16.696l-39.694-45.348c-10.354-11.818-28.109,3.814-17.829,15.586
			l39.694,45.348C1655.046,1988.065,1662.517,1988.604,1667.463,1984.271z"/>
		<path d="M1811.058,2130.329l-23.391-26.733c-10.354-11.818-28.109,3.814-17.829,15.586l23.391,26.733
			c1.59,1.821,3.654,2.798,5.816,3.394l-27.403,39.388c-5.517,7.925,0.32,18.593,9.713,18.593c3.746,0,7.435-1.781,9.736-5.088
			l25.912-37.231l11.447-5.481c5.897-2.821,8.394-9.897,5.573-15.794c-2.833-5.92-9.897-8.441-15.794-5.573l-4.648,2.223
			C1814.249,2136.882,1813.561,2133.196,1811.058,2130.329z"/>
		<path d="M1664.503,1997.383c-4.209-4.995-11.701-5.573-16.685-1.388l-44.157,37.416c-4.984,4.232-5.608,11.701-1.376,16.696
			c4.205,4.996,11.698,5.595,16.685,1.387l44.157-37.416C1668.11,2009.847,1668.735,2002.378,1664.503,1997.383z"/>
		<path d="M1707.296,1976.686l44.157-37.416c4.983-4.232,5.608-11.701,1.376-16.696c-4.22-4.995-11.701-5.573-16.685-1.387
			l-44.157,37.416c-4.983,4.232-5.608,11.701-1.376,16.696C1694.816,1980.294,1702.309,1980.893,1707.296,1976.686z"/>
		<path d="M1559.492,2070.805l-27.103,22.963c-8.434,7.162-3.274,20.882,7.654,20.882c7.481,0,8.361-4.545,34.757-25.761
			c4.984-4.232,5.608-11.701,1.376-16.696C1571.968,2067.197,1564.487,2066.573,1559.492,2070.805z"/>
		<path d="M1570.476,900.769c-0.139,6.544,5.053,11.956,11.586,12.094c0.093,0,0.173,0,0.254,0c6.429,0,11.701-5.134,11.84-11.586
			c0.763-36.237-3.238-72.405-11.886-107.532c-1.561-6.359-7.943-10.221-14.326-8.672c-6.348,1.549-10.221,7.978-8.66,14.314
			C1567.435,832.503,1571.193,866.613,1570.476,900.769z"/>
		<path d="M1623.837,939.457c1.619,0.763,3.318,1.11,4.995,1.11c4.463,0,8.73-2.521,10.742-6.822
			c16.662-35.705,38.954-67.849,66.265-95.553c4.59-4.648,4.544-12.141-0.116-16.743c-4.66-4.556-12.152-4.556-16.743,0.139
			c-29.207,29.623-53.049,63.987-70.867,102.12C1615.35,929.652,1617.906,936.682,1623.837,939.457z"/>
		<path d="M1643.944,1015.076c2.336,2.59,5.55,3.908,8.788,3.908c2.833,0,5.666-1.017,7.932-3.052
			c32.213-29.045,71.283-49.164,113.001-58.183c6.394-1.364,10.453-7.677,9.077-14.06c-1.376-6.383-7.724-10.406-14.072-9.065
			c-45.753,9.874-88.592,31.913-123.869,63.733C1639.944,1002.727,1639.562,1010.22,1643.944,1015.076z"/>
	</g>
</g>
</svg>
