<svg width="238" height="240" viewBox="0 0 238 240" fill="none" xmlns="http://www.w3.org/2000/svg">
<path d="M81.6143 0.500977C84.3066 0.294123 86.7746 0.680162 88.6484 2.29688V2.29785C89.8845 3.36544 90.5889 4.82836 91.2461 6.21094C95.9078 16.0096 99.1344 26.9203 109.942 69.0889C111.292 74.3517 113.641 80.8471 114.578 87.333L114.631 87.6973L114.998 87.7178C132.901 88.7066 165.337 90.9591 190.745 93.5V93.501C194.814 93.9291 202.201 94.3515 209.568 95.2969C213.242 95.7682 216.885 96.3665 220.066 97.1553C223.258 97.9464 225.945 98.9198 227.734 100.12L227.776 100.147L227.823 100.166C228.187 100.306 228.791 100.674 229.54 101.233C230.278 101.784 231.127 102.498 231.975 103.301C233.574 104.815 235.128 106.609 235.942 108.196L236.096 108.512C237.002 110.561 236.775 112.755 236.624 115.115H236.623V115.121C236.604 115.494 236.596 115.732 236.596 115.869C236.596 115.875 236.596 115.88 236.596 115.887C236.546 116.291 236.479 116.86 236.39 117.644C235.721 123.521 233.796 141.578 228.619 193.279C227.289 206.233 226.534 213.764 226.103 218.091C225.887 220.255 225.752 221.616 225.667 222.453C225.625 222.872 225.595 223.158 225.574 223.347C225.553 223.537 225.543 223.602 225.542 223.608L225.533 223.641L225.53 223.674C225.164 227.356 221.89 229.349 218.389 230.378L218.381 230.38L218.373 230.383C216.331 231.065 213.172 231.476 209.434 231.692C205.707 231.909 201.445 231.931 197.22 231.855C188.766 231.705 180.496 231.164 176.975 231.003H176.973C166.68 230.574 156.385 229.929 146.089 229.198L145.673 229.169L145.612 229.581C145.4 231.025 144.997 232.312 144.089 233.228C143.329 233.993 142.123 234.609 140.745 234.873C139.372 235.136 137.864 235.041 136.509 234.432L136.275 234.326L136.065 234.473C127.715 240.322 118.757 240.157 109.568 238.689C107.272 238.323 104.966 237.876 102.653 237.423C100.343 236.97 98.0253 236.511 95.7148 236.123C91.0943 235.348 86.4758 234.852 81.9404 235.261C78.6848 235.554 75.4017 236.33 72.1309 237.1C68.8481 237.872 65.5745 238.639 62.2891 238.94C49.8882 240.074 36.8578 234.384 28.3252 224.06C21.1162 215.336 17.794 204.518 17.2959 194.665C16.7969 184.794 19.1349 175.978 23.1357 171.226L23.2539 171.085L23.2402 170.902C22.5936 162.25 25.6695 151.63 34.0195 147.375H34.0205C37.4452 145.628 41.2294 145.157 45.1631 145.16C47.1295 145.162 49.1247 145.282 51.125 145.417C53.1206 145.552 55.1261 145.702 57.0928 145.76L57.541 145.772L57.5557 145.324L58.3936 119.738L58.4131 119.131L57.8262 119.289C56.1063 119.753 54.2668 120.334 52.3701 120.931C50.4701 121.528 48.51 122.144 46.5332 122.684C42.5734 123.764 38.5884 124.53 34.96 124.25L34.9219 124.247L34.8838 124.25C30.7002 124.641 26.7131 124.093 24.874 120.786L24.7031 120.457C21.2237 113.322 19.8533 109.319 14.1309 89.1494H14.1299C10.3761 75.7989 5.16094 56.3576 2.27734 42.8975V42.8955L1.60352 39.9062C0.945857 37.0088 0.392964 34.3877 0.455078 32.04C0.496027 30.4928 0.806231 29.0937 1.52051 27.8389C2.23407 26.5854 3.36784 25.4448 5.10547 24.4424L5.16504 24.4082L5.21191 24.3574C6.84014 22.5848 9.22533 21.3698 11.7939 20.416C14.3831 19.4546 17.0253 18.8006 19.2715 18.0645C30.2278 14.4751 60.7116 5.3005 73.5205 2.16211L73.5264 2.16113C76.0844 1.50191 78.9176 0.708178 81.6143 0.500977ZM45.5469 146.736C41.8479 146.71 38.2293 147.087 35.041 148.621L34.7334 148.773C27.6089 152.404 24.7246 161.066 24.7246 168.603V169.536L25.4551 168.954C28.3765 166.624 32.4926 165.623 36.2266 166.325V166.324C44.4611 167.895 46.7794 176.876 42.5078 182.445L42.2998 182.708C39.7254 185.846 35.156 187.037 31.4531 185.551H31.4521C26.4957 183.555 24.5072 178.152 23.7236 174.362L23.4971 173.266L22.9014 174.215C19.6923 179.333 18.1691 187.684 19.0234 196.651C19.879 205.631 23.124 215.299 29.5352 223.06C37.7278 232.973 50.2071 238.469 62.1475 237.376C65.4071 237.078 68.6823 236.299 71.9482 235.529C75.2258 234.757 78.4975 233.992 81.7998 233.696C90.8589 232.88 99.8925 235.46 108.802 236.983C117.667 238.5 126.359 238.948 134.454 233.662L134.884 233.382L134.55 232.992C133.551 231.826 133.038 230.21 133.156 228.671L133.19 228.224L132.743 228.188C117.043 226.925 86.8673 224.338 71.6729 220.686H71.6719C66.3835 219.399 60.5945 216.959 57.5635 212.22L57.2793 211.754C57.0886 211.42 56.9532 211.061 56.8613 210.685L56.8447 210.616L56.8066 210.556L56.5898 210.182C55.5566 208.292 55.3141 206.111 55.3643 203.892C55.391 202.71 55.5002 201.531 55.6104 200.39C55.7198 199.256 55.8314 198.152 55.8574 197.146L57.4746 147.794L57.4893 147.343L57.0371 147.329C55.173 147.275 53.2616 147.135 51.3301 147.003C49.4029 146.872 47.4581 146.75 45.5469 146.736ZM114.854 89.7988C115.05 92.3012 114.991 94.7267 114.476 96.9912C113.625 100.726 110.692 103.209 106.924 104.989C103.156 106.77 98.6469 107.803 94.79 108.685H94.7891C91.4186 109.458 90.8177 109.599 87.0029 110.787L87.0869 111.664C122.592 115.624 155.255 117.93 189.623 120.387H189.624C198.369 121.004 207.235 121.621 216.374 122.288C216.814 122.341 217.133 122.71 217.104 123.14C217.072 123.543 216.729 123.861 216.317 123.861H216.262C207.124 123.194 198.232 122.577 189.515 121.96C153.276 119.377 118.957 116.922 81.1836 112.595L81.0908 112.584L81.001 112.611C79.9035 112.944 78.8217 113.28 77.7266 113.606L77.3389 113.722L77.4131 114.12C78.2311 118.531 78.5256 124.103 77.8369 129.361C77.1467 134.632 75.4778 139.519 72.4297 142.635C68.9059 146.238 64.3774 147.235 59.4883 147.341L59.0625 147.35L59.0479 147.776L57.4287 197.189V197.193C57.4012 198.348 57.2679 199.59 57.1416 200.877C57.0162 202.155 56.8987 203.475 56.9111 204.749C56.936 207.294 57.4815 209.763 59.627 211.445C64.6582 215.389 71.7614 216.336 77.8818 217.171H77.8848C96.2709 219.593 122.431 222.038 146.42 223.728C170.394 225.416 192.239 226.351 201.983 225.748L201.984 225.749C205.062 225.587 209.025 225.308 212.304 224.279C215.465 223.287 218.157 221.539 218.629 218.366L218.668 218.055L221.731 187.638L228.921 116.509C229.198 114.292 229.713 111.484 229.792 108.912C229.868 106.435 229.552 104.001 228.094 102.442L227.949 102.295C226.715 101.063 224.547 100.088 221.982 99.3008C219.397 98.5071 216.334 97.8828 213.246 97.3896C207.069 96.4033 200.739 95.9335 197.822 95.6934H197.821C185.342 94.6855 160.22 91.8194 115.327 89.3135L114.813 89.2852L114.854 89.7988ZM41.791 171.736C38.8575 166.927 30.5103 165.776 25.0293 171.471L24.8848 171.62L24.9053 171.827C24.9071 171.846 24.9098 171.863 24.9111 171.874C24.9127 171.887 24.9126 171.893 24.9131 171.897L24.9141 171.907C25.5983 177.743 28.0651 182.27 31.6855 183.941L32.0391 184.094C35.1411 185.347 38.9344 184.335 41.0869 181.71C43.192 179.143 43.5871 175.229 42.0781 172.253L41.9268 171.968L41.791 171.736ZM75.3477 114.329C70.3453 115.805 65.336 117.217 60.3223 118.59L60.002 118.678L59.9912 119.01L59.1299 145.301L59.1143 145.777L59.5908 145.766C64.2381 145.651 67.8973 144.597 70.627 142.188C73.354 139.781 75.0852 136.081 76.0068 130.821C76.9358 125.521 76.8677 119.986 75.918 114.682L75.8291 114.188L75.3477 114.329ZM87.6221 3.48633C86.0833 2.16038 83.9139 1.90563 81.7314 2.07031C79.5379 2.23586 77.2214 2.83424 75.3076 3.32812L75.2979 3.33105C75.2973 3.33118 75.2914 3.333 75.2764 3.33691C75.2606 3.34102 75.2384 3.34619 75.21 3.35352C75.1526 3.36828 75.0708 3.38975 74.9648 3.41699C74.7529 3.47147 74.4452 3.55048 74.0479 3.65332C73.2528 3.85911 72.0976 4.16001 70.6279 4.54883C67.6887 5.32645 63.4892 6.45635 58.3857 7.88281C48.8169 10.5574 36.0683 14.276 22.4873 18.6719L19.7607 19.5596C17.6621 20.2456 14.7294 20.9741 12.0996 21.9727C9.46447 22.9733 6.9499 24.3046 5.65625 26.3066C4.50397 28.0908 4.28274 30.3399 4.45312 32.6152C4.62387 34.8949 5.19494 37.2747 5.69336 39.3574C6.36797 42.1791 9.50637 57.4987 18.0703 87.8008C23.0475 105.404 24.5985 110.811 28.6143 119.054C29.6262 121.13 31.5205 122.181 33.8057 122.582C36.0787 122.981 38.7879 122.751 41.5439 122.234C44.3063 121.717 47.1534 120.903 49.7148 120.113C51.9688 119.418 53.982 118.747 55.5518 118.296L56.1973 118.116C65.0226 115.746 76.9971 112.253 85.7061 109.568L89.2197 108.474C90.8454 107.959 92.9937 107.489 95.3672 106.939C97.7291 106.393 100.297 105.772 102.721 104.961C105.141 104.151 107.443 103.142 109.264 101.81C111.089 100.474 112.455 98.7937 112.945 96.6416V96.6406C113.695 93.3472 113.458 89.6633 112.782 85.9375C112.106 82.2097 110.985 78.4006 109.94 74.8555H109.939C107.037 65.0051 103.713 51.6074 100.26 38.8584C96.8125 26.1331 93.233 14.0444 89.8281 6.88672C89.2658 5.70505 88.6335 4.36111 87.623 3.48633H87.6221Z" fill="white" fill-opacity="0.8" stroke="#121211" stroke-width="0.9"/>
<path d="M216.228 106.675C218.391 106.831 220.043 108.787 219.891 111.065C219.739 113.342 217.845 115.039 215.683 114.883C213.519 114.727 211.868 112.771 212.02 110.493C212.172 108.217 214.066 106.519 216.228 106.675Z" stroke="white" stroke-opacity="0.8" stroke-width="0.6"/>
<path d="M203.524 105.757C205.687 105.914 207.339 107.87 207.187 110.148C207.034 112.424 205.14 114.121 202.979 113.965C200.883 113.814 199.267 111.974 199.307 109.789L199.315 109.576C199.467 107.299 201.362 105.601 203.524 105.757Z" stroke="white" stroke-opacity="0.8" stroke-width="0.6"/>
<path d="M187.195 108.7C187.347 106.424 189.241 104.726 191.403 104.882C193.567 105.038 195.218 106.994 195.066 109.271C194.914 111.548 193.02 113.246 190.858 113.09C188.695 112.934 187.043 110.978 187.195 108.7Z" stroke="white" stroke-opacity="0.8" stroke-width="0.6"/>
<path d="M40.0713 22.9839C44.6414 18.598 51.347 16.2659 57.4561 17.9976C61.7497 19.2144 65.4622 22.603 66.5908 26.9624L66.6582 27.2241L66.9258 27.1831C70.9786 26.5663 75.6733 28.787 76.876 32.7935C77.3704 34.438 77.5124 35.5236 77.415 36.4409C77.3178 37.3568 76.9792 38.1347 76.4473 39.1714L76.3271 39.4048L76.542 39.5542C78.5615 40.9637 80.2599 42.3159 81.0908 44.687C81.8645 46.8927 81.7168 49.4282 80.707 51.5581L80.4932 51.979C80.0131 52.8654 79.4749 53.5244 78.6729 53.9868C77.8646 54.4527 76.7578 54.7361 75.1104 54.8091C73.3809 54.8858 72.3822 54.6316 71.7979 54.3657C71.5065 54.2331 71.3114 54.0946 71.1748 53.9839C71.1034 53.926 71.0518 53.8788 70.9971 53.8315C70.957 53.797 70.8821 53.7316 70.7988 53.6968L70.4609 53.5552L70.3896 53.9155C69.9499 56.1203 69.5358 57.0388 69.0254 58.105L68.9775 58.2036L69.0059 58.3101L70.041 62.2485L70.0977 62.4634L70.3193 62.4722C75.1156 62.6628 79.9631 63.0501 84.749 63.6743L84.751 63.6753C88.3922 64.1306 92.4577 64.8577 95.4688 67.3784L95.7568 67.6284C98.6315 70.1957 100.371 74.1237 101.624 78.3052C102.249 80.3919 102.75 82.5307 103.212 84.5815C103.615 86.3727 103.99 88.1012 104.39 89.6587L104.562 90.3149C104.694 90.8048 104.409 91.3248 103.912 91.4536C103.403 91.5854 102.9 91.2836 102.77 90.8013L102.769 90.7974C102.325 89.2323 101.923 87.3963 101.485 85.436C101.048 83.4798 100.577 81.4045 99.9951 79.3774C98.835 75.3351 97.2239 71.4264 94.5264 69.0103L94.5244 69.0093L94.2705 68.7915C91.9578 66.8841 88.8739 66.1666 85.8457 65.7134L84.5059 65.5259C80.783 65.0369 77.026 64.7341 73.2881 64.52L72.2881 64.4624L73.0928 65.0601C76.2376 67.3958 79.1734 70.0136 81.8477 72.8853C82.3352 73.4082 82.0738 74.2685 81.3809 74.4331H81.3799C77.9218 75.26 74.8262 78.2336 73.0605 82.3354C71.0632 86.9665 70.9829 91.7757 70.5186 94.3774C70.278 95.7229 70.2485 97.0865 70.4326 98.4282C70.4939 98.8757 70.2163 99.2985 69.7812 99.4351L69.6328 99.4819L69.5859 99.6304C69.3149 100.481 68.1733 100.504 67.8457 99.7114V99.7104C66.9045 97.4346 65.9266 96.6412 64.1768 94.3081C62.2695 91.7651 60.1686 89.2694 57.5615 87.4028C54.013 84.8654 49.8923 84.0063 46.5371 85.1665C45.8734 85.3877 45.245 84.8617 45.2939 84.2144L45.3135 84.0835C46.1541 80.2137 47.3422 76.4211 48.8408 72.7563L49.2344 71.7915L48.3877 72.3989C45.7196 74.3106 43.0725 76.2892 40.501 78.3618L39.4033 79.2563C36.5922 81.5742 33.6794 84.1945 32.5869 87.6753V87.6763C31.8206 90.1195 31.9933 92.5719 32.458 94.8706C32.6904 96.02 32.9976 97.1365 33.2988 98.1968C33.6012 99.2611 33.8958 100.263 34.1123 101.201L34.1152 101.212L36.5127 110.058C36.5937 110.375 36.5345 110.623 36.4131 110.807C36.2873 110.997 36.0812 111.137 35.8467 111.201C35.6122 111.264 35.3674 111.246 35.168 111.146C34.9751 111.049 34.8027 110.864 34.7197 110.546V110.543L31.8037 99.8442L31.8027 99.8403L31.5332 98.8823C30.2434 94.1822 29.798 90.7469 30.6133 87.6665C31.4811 84.3876 33.7937 81.4548 38.2031 77.8169L38.2041 77.8159C40.0671 76.2731 42.9854 74.0005 45.5703 72.0649C46.8627 71.0973 48.0701 70.2156 49.0186 69.5522C49.4929 69.2205 49.9004 68.9446 50.2207 68.7407C50.5509 68.5305 50.7634 68.4136 50.8594 68.3784L51.1201 68.2827L51.0449 68.0151L50.1152 64.7056L50.0059 64.3159L49.665 64.5337C44.7929 67.6403 38.8348 65.4676 36.7559 60.6382C36.106 59.1283 35.9665 57.3006 36.9258 56.1021L37.2354 55.7153L36.75 55.6206C33.5601 54.9948 30.9414 52.1036 30.5889 48.8062C30.2372 45.5155 32.4229 41.8558 35.4111 40.4595L35.6641 40.3413L35.5635 40.0796C33.121 33.7468 35.5049 27.3663 40.0713 22.9839Z" stroke="white" stroke-opacity="0.8" stroke-width="0.6"/>
<path d="M48.4365 95.0571C48.8573 94.9349 49.2929 95.1729 49.416 95.5854C50.0732 97.7907 50.7873 99.9889 51.5391 102.12C51.7182 102.626 51.3416 103.165 50.7979 103.166C50.4736 103.166 50.171 102.964 50.0566 102.641C49.2966 100.486 48.5751 98.2635 47.9111 96.0337V96.0327C47.7876 95.619 48.022 95.183 48.4365 95.0571Z" fill="white" fill-opacity="0.8" stroke="#121211" stroke-width="0.9"/>
<path d="M85.6475 85.8711C86.0424 85.7807 86.4398 86.0075 86.5693 86.3838L86.5908 86.4609L87.6113 90.8467C87.7086 91.2709 87.4454 91.6916 87.0234 91.79C86.6041 91.8868 86.1791 91.6272 86.0801 91.2031L85.0615 86.8164V86.8154L85.0479 86.7363C84.9968 86.3424 85.2523 85.9641 85.6484 85.8721L85.6475 85.8711Z" fill="white" fill-opacity="0.8" stroke="#121211" stroke-width="0.9"/>
<path d="M137.515 128.777L140.535 127.85L143.247 129.469C143.829 129.815 144.59 129.631 144.941 129.04C145.291 128.456 145.099 127.696 144.514 127.346L141.331 125.447C140.523 124.975 140.097 125.522 136.791 126.412C136.138 126.612 135.771 127.305 135.972 127.956C136.171 128.606 136.861 128.968 137.515 128.777Z" fill="white" fill-opacity="0.8"/>
<path d="M120.972 133.847L129.244 131.313C129.896 131.113 130.263 130.421 130.063 129.769C129.864 129.117 129.176 128.753 128.52 128.948L120.248 131.482C119.595 131.682 119.228 132.375 119.429 133.026C119.629 133.678 120.317 134.044 120.972 133.847Z" fill="white" fill-opacity="0.8"/>
<path d="M107.115 140.825C107.567 140.825 108.001 140.579 108.218 140.15L109.659 137.312L112.7 136.381C113.353 136.18 113.72 135.488 113.52 134.836C113.319 134.185 112.634 133.813 111.977 134.016C108.842 135.085 108.097 134.931 107.693 135.724L106.015 139.03C105.599 139.849 106.192 140.825 107.115 140.825Z" fill="white" fill-opacity="0.8"/>
<path d="M100.869 153.122C101.32 153.122 101.753 152.876 101.971 152.446L105.094 146.298C105.403 145.69 105.16 144.947 104.552 144.635C103.938 144.329 103.198 144.57 102.891 145.178L99.768 151.327C99.3511 152.148 99.949 153.122 100.869 153.122Z" fill="white" fill-opacity="0.8"/>
<path d="M97.8944 176.866L95.9073 170.264C95.8904 170.208 95.8506 170.166 95.8264 170.114C96.1773 170.461 95.3457 169.821 99.1359 172.291C99.7056 172.658 100.473 172.496 100.843 171.917C101.21 171.343 101.042 170.578 100.468 170.211L97.3443 168.213C96.3355 167.563 95.0583 168.59 95.57 169.746C95.2581 169.445 94.81 169.3 94.3677 169.439C93.7138 169.635 93.3434 170.325 93.5401 170.979L95.5271 177.581C95.728 178.243 96.4279 178.602 97.0667 178.406C97.7206 178.21 98.0911 177.52 97.8944 176.866Z" fill="white" fill-opacity="0.8"/>
<path d="M94.6224 165.422C95.0736 165.422 95.5067 165.176 95.7251 164.746L98.8487 158.595C99.1576 157.987 98.9151 157.244 98.307 156.933C97.6953 156.626 96.9544 156.868 96.6455 157.476L93.5219 163.626C93.105 164.447 93.7029 165.422 94.6224 165.422Z" fill="white" fill-opacity="0.8"/>
<path d="M101.867 190.076L99.8799 183.471C99.6832 182.822 98.9943 182.443 98.3404 182.646C97.6864 182.841 97.316 183.532 97.5127 184.186L99.4999 190.79C99.9747 192.357 102.34 191.65 101.867 190.076Z" fill="white" fill-opacity="0.8"/>
<path d="M107.595 201.2L104.769 199.731L103.852 196.683C103.375 195.105 101.016 195.837 101.485 197.392C102.576 200.647 102.386 201.281 103.167 201.683C106.514 203.371 106.501 203.531 107.024 203.531C107.471 203.531 107.901 203.29 108.122 202.865C108.436 202.259 108.201 201.514 107.595 201.2Z" fill="white" fill-opacity="0.8"/>
<path d="M136.298 213.422L132.987 214.385L129.593 212.623C128.985 212.298 128.243 212.541 127.927 213.15C127.613 213.755 127.849 214.501 128.454 214.814C132.246 216.735 132.32 216.945 132.857 216.945C133.185 216.945 133.159 216.892 136.988 215.796C137.643 215.606 138.02 214.921 137.829 214.264C137.638 213.608 136.959 213.224 136.298 213.422Z" fill="white" fill-opacity="0.8"/>
<path d="M122.259 208.816L114.927 205.008C114.322 204.685 113.576 204.926 113.261 205.534C112.947 206.14 113.183 206.885 113.788 207.199L121.12 211.007C121.706 211.317 122.465 211.099 122.787 210.481C123.1 209.875 122.865 209.129 122.259 208.816Z" fill="white" fill-opacity="0.8"/>
<path d="M152.165 208.811L144.231 211.115C143.576 211.306 143.2 211.991 143.39 212.648C143.585 213.319 144.286 213.675 144.921 213.49L152.856 211.185C153.511 210.995 153.887 210.309 153.696 209.653C153.506 208.997 152.827 208.613 152.165 208.811Z" fill="white" fill-opacity="0.8"/>
<path d="M166.237 202.247C165.625 201.945 164.886 202.187 164.577 202.792L163.143 205.618L160.099 206.504C159.444 206.694 159.068 207.379 159.259 208.036C159.453 208.707 160.154 209.063 160.79 208.878C164.015 207.825 164.696 208.025 165.105 207.213L166.78 203.907C167.089 203.299 166.845 202.556 166.237 202.247Z" fill="white" fill-opacity="0.8"/>
<path d="M174.485 163.903L176.483 170.884C176.674 171.555 177.378 171.92 178.01 171.731C178.665 171.543 179.045 170.86 178.857 170.204L176.859 163.223C176.672 162.567 175.986 162.181 175.332 162.376C174.676 162.564 174.296 163.247 174.485 163.903Z" fill="white" fill-opacity="0.8"/>
<path d="M172.486 156.923C172.642 157.466 173.136 157.818 173.674 157.818C174.492 157.818 175.088 157.033 174.863 156.242L172.866 149.261C172.41 147.682 170.043 148.376 170.489 149.942L172.486 156.923Z" fill="white" fill-opacity="0.8"/>
<path d="M149.485 133.186C155.748 136.849 155.721 137.078 156.354 137.078C157.608 137.078 158.061 135.421 156.987 134.781L150.75 131.062C150.165 130.712 149.406 130.905 149.056 131.492C148.707 132.078 148.899 132.836 149.485 133.186Z" fill="white" fill-opacity="0.8"/>
<path d="M161.959 140.623L168.195 144.341C168.773 144.686 169.536 144.505 169.889 143.912C170.238 143.325 170.046 142.568 169.46 142.218L163.223 138.499C162.637 138.149 161.879 138.342 161.529 138.929C161.181 139.515 161.373 140.273 161.959 140.623Z" fill="white" fill-opacity="0.8"/>
<path d="M179.362 176.338C178.749 176.037 178.011 176.278 177.701 176.884L174.42 183.363C174.113 183.971 174.356 184.714 174.964 185.023C175.595 185.336 176.324 185.072 176.626 184.478L179.906 177.998C180.214 177.39 179.97 176.647 179.362 176.338Z" fill="white" fill-opacity="0.8"/>
<path d="M172.8 189.294C172.189 188.992 171.447 189.234 171.138 189.839L167.858 196.316C167.55 196.924 167.794 197.667 168.402 197.976C169.027 198.286 169.759 198.03 170.062 197.431L173.343 190.954C173.651 190.346 173.408 189.603 172.8 189.294Z" fill="white" fill-opacity="0.8"/>
<path d="M140.131 131.895C140.176 132.363 140.123 131.972 141.69 135.664C141.963 136.287 142.689 136.575 143.317 136.301C143.942 136.028 144.228 135.3 143.954 134.675L142.478 131.287C142.228 130.709 141.597 130.436 141.005 130.61L141.36 130.088C141.743 129.523 141.596 128.756 141.033 128.372C140.466 127.991 139.7 128.133 139.316 128.698L137.232 131.762C136.669 132.592 137.281 133.693 138.253 133.693C139.261 133.693 139.475 132.69 140.131 131.895Z" fill="white" fill-opacity="0.8"/>
<path d="M120.436 157.429C123.327 156.112 123.609 156.202 123.957 155.692L126.412 152.08C126.796 151.515 126.648 150.748 126.085 150.364C125.518 149.98 124.752 150.125 124.368 150.69L122.114 154.005L119.452 155.161C118.827 155.434 118.538 156.16 118.811 156.788C119.072 157.393 119.781 157.705 120.436 157.429Z" fill="white" fill-opacity="0.8"/>
<path d="M129.677 146.31C130.842 146.31 130.7 145.436 134.988 139.46C135.372 138.895 135.224 138.125 134.661 137.744C134.094 137.363 133.328 137.505 132.944 138.07L128.656 144.38C128.092 145.21 128.705 146.31 129.677 146.31Z" fill="white" fill-opacity="0.8"/>
<path d="M105.949 163.602C106.414 163.602 106.069 163.62 113.438 160.465C114.064 160.192 114.351 159.466 114.08 158.839C113.81 158.214 113.083 157.934 112.456 158.197L105.457 161.232C104.232 161.766 104.613 163.602 105.949 163.602Z" fill="white" fill-opacity="0.8"/>
<path d="M98.4573 164.268L95.0574 165.743C93.8314 166.276 94.2148 168.112 95.5484 168.112C96.0178 168.112 96.0833 167.955 99.4395 166.536C100.066 166.264 100.353 165.537 100.081 164.91C99.811 164.285 99.0835 163.993 98.4573 164.268Z" fill="white" fill-opacity="0.8"/>
<path d="M144.589 142.256C145.55 144.43 146.569 146.715 147.533 148.846C147.739 149.302 148.189 149.573 148.659 149.573C148.83 149.573 149.002 149.536 149.167 149.462C149.789 149.182 150.065 148.45 149.784 147.828C148.822 145.702 147.806 143.422 146.847 141.257C146.572 140.632 145.842 140.345 145.217 140.627C144.593 140.902 144.312 141.634 144.589 142.256Z" fill="white" fill-opacity="0.8"/>
<path d="M157.345 158.991C155.246 157.328 154.334 156.641 153.852 156.344C153.724 156.134 153.43 155.608 152.807 154.331C152.509 153.723 151.771 153.468 151.156 153.764C150.543 154.064 150.288 154.802 150.587 155.417C151.011 156.285 151.323 156.909 151.582 157.363C150.705 157.294 150.452 157.987 147.857 160.048C146.977 160.795 147.515 162.227 148.656 162.227C149.436 162.227 149.528 161.753 152.282 159.539C152.586 159.281 152.714 158.908 152.697 158.539C152.977 158.728 153.724 159.274 155.81 160.926C156.037 161.107 156.308 161.194 156.576 161.194C156.941 161.194 157.303 161.035 157.546 160.726C157.97 160.19 157.879 159.413 157.345 158.991Z" fill="white" fill-opacity="0.8"/>
<path d="M168.561 168.088C166.745 166.599 164.816 165.021 162.972 163.525C162.44 163.088 161.662 163.177 161.233 163.703C160.804 164.234 160.884 165.011 161.413 165.441C163.254 166.937 165.181 168.51 166.992 169.999C167.223 170.187 167.5 170.279 167.775 170.279C168.926 170.279 169.46 168.829 168.561 168.088Z" fill="white" fill-opacity="0.8"/>
<path d="M177.132 176.743C177.566 176.22 177.494 175.44 176.968 175.006L174.113 172.649C173.587 172.212 172.806 172.291 172.374 172.815C171.94 173.341 172.015 174.121 172.542 174.555L175.392 176.908C175.921 177.345 176.698 177.269 177.132 176.743Z" fill="white" fill-opacity="0.8"/>
<path d="M173.326 176.31L169.981 177.907C169.365 178.201 169.104 178.94 169.398 179.555C169.696 180.177 170.438 180.428 171.045 180.137L174.39 178.539C175.006 178.245 175.267 177.506 174.973 176.891C174.678 176.273 173.937 176.013 173.326 176.31Z" fill="white" fill-opacity="0.8"/>
<path d="M144.842 197.064C144.282 196.673 143.511 196.813 143.122 197.373L139.29 202.882C138.9 203.442 139.039 204.211 139.598 204.6C140.161 204.992 140.93 204.85 141.319 204.291L145.151 198.782C145.541 198.222 145.402 197.453 144.842 197.064Z" fill="white" fill-opacity="0.8"/>
<path d="M165.573 181.381C165.278 180.766 164.537 180.503 163.926 180.8L157.871 183.693C157.254 183.988 156.994 184.726 157.288 185.341C157.5 185.785 157.943 186.043 158.404 186.043C158.583 186.043 158.764 186.005 158.935 185.923L164.991 183.03C165.607 182.735 165.868 181.997 165.573 181.381Z" fill="white" fill-opacity="0.8"/>
<path d="M135.371 212.843L137.487 209.8C137.877 209.24 137.738 208.47 137.178 208.082C136.615 207.691 135.846 207.828 135.458 208.391L133.341 211.434C132.952 211.993 133.09 212.763 133.65 213.152C134.219 213.546 134.985 213.398 135.371 212.843Z" fill="white" fill-opacity="0.8"/>
<path d="M128.537 201.159L125.903 194.482C125.304 192.958 123.005 193.868 123.603 195.389L126.237 202.066C126.495 202.717 127.231 203.007 127.841 202.761C128.475 202.512 128.787 201.793 128.537 201.159Z" fill="white" fill-opacity="0.8"/>
<path d="M112.562 177.943L106.513 174.077C105.94 173.708 105.175 173.872 104.808 174.451C104.441 175.028 104.608 175.79 105.184 176.157C111.553 180.147 111.264 180.218 111.896 180.218C112.304 180.218 112.702 180.018 112.938 179.649C113.305 179.072 113.137 178.31 112.562 177.943Z" fill="white" fill-opacity="0.8"/>
<path d="M121.34 183.556L118.609 181.811C118.036 181.437 117.269 181.608 116.903 182.185C116.536 182.762 116.704 183.524 117.28 183.891L119.672 185.421L120.97 188.712C121.226 189.358 121.96 189.657 122.574 189.407C123.209 189.156 123.52 188.44 123.27 187.805C121.821 184.324 121.929 183.932 121.34 183.556Z" fill="white" fill-opacity="0.8"/>
<path d="M129.568 207.141C128.933 207.392 128.622 208.109 128.871 208.743L130.232 212.192C130.424 212.677 130.89 212.974 131.382 212.974C132.247 212.974 132.853 212.099 132.532 211.284L131.171 207.836C130.921 207.201 130.202 206.885 129.568 207.141Z" fill="white" fill-opacity="0.8"/>
<path d="M127.914 159.326L125.472 156.537C125.023 156.02 124.243 155.97 123.729 156.421C123.216 156.87 123.164 157.649 123.614 158.163C125.777 160.458 126.028 161.375 126.985 161.375C128.034 161.375 128.619 160.131 127.914 159.326Z" fill="white" fill-opacity="0.8"/>
<path d="M144.366 179.996C144.88 179.548 144.932 178.768 144.483 178.254L140.341 173.522C139.269 172.29 137.404 173.916 138.481 175.149L142.623 179.881C143.071 180.392 143.85 180.449 144.366 179.996Z" fill="white" fill-opacity="0.8"/>
<path d="M136.082 170.533C136.596 170.084 136.648 169.304 136.199 168.79L132.057 164.059C130.977 162.825 129.124 164.456 130.197 165.685L134.339 170.417C134.787 170.929 135.566 170.985 136.082 170.533Z" fill="white" fill-opacity="0.8"/>
<path d="M151.067 185.773L148.626 182.984C147.545 181.751 145.693 183.382 146.765 184.61L149.206 187.4C149.372 187.59 149.588 187.692 149.813 187.754L146.954 191.864C146.378 192.691 146.987 193.804 147.967 193.804C148.358 193.804 148.743 193.618 148.983 193.273L151.687 189.388L152.881 188.816C153.497 188.522 153.757 187.783 153.463 187.168C153.167 186.55 152.43 186.287 151.815 186.587L151.33 186.819C151.4 186.457 151.328 186.073 151.067 185.773Z" fill="white" fill-opacity="0.8"/>
<path d="M135.774 171.901C135.334 171.379 134.553 171.319 134.033 171.756L129.425 175.66C128.905 176.102 128.84 176.881 129.281 177.402C129.72 177.924 130.502 177.986 131.022 177.547L135.63 173.643C136.15 173.201 136.215 172.422 135.774 171.901Z" fill="white" fill-opacity="0.8"/>
<path d="M140.239 169.741L144.847 165.837C145.367 165.395 145.432 164.616 144.99 164.094C144.55 163.573 143.769 163.513 143.249 163.95L138.642 167.854C138.122 168.296 138.057 169.075 138.498 169.596C138.937 170.117 139.719 170.18 140.239 169.741Z" fill="white" fill-opacity="0.8"/>
<path d="M124.816 179.562L121.988 181.958C121.108 182.705 121.646 184.137 122.786 184.137C123.567 184.137 123.659 183.663 126.413 181.449C126.933 181.007 126.998 180.228 126.557 179.707C126.118 179.186 125.337 179.12 124.816 179.562Z" fill="white" fill-opacity="0.8"/>
<path d="M125.962 57.4716C125.947 58.1544 126.489 58.7191 127.171 58.7335C127.18 58.7335 127.189 58.7335 127.197 58.7335C127.868 58.7335 128.418 58.1978 128.433 57.5246C128.512 53.7433 128.095 49.9693 127.192 46.3038C127.03 45.6403 126.364 45.2373 125.698 45.3989C125.035 45.5606 124.631 46.2314 124.794 46.8926C125.644 50.3482 126.037 53.9075 125.962 57.4716Z" fill="white" fill-opacity="0.8"/>
<path d="M131.53 61.5085C131.699 61.5881 131.876 61.6243 132.051 61.6243C132.517 61.6243 132.962 61.3612 133.172 60.9124C134.911 57.1867 137.237 53.8326 140.087 50.9417C140.566 50.4567 140.561 49.6748 140.074 49.1946C139.588 48.7192 138.806 48.7192 138.327 49.2091C135.28 52.3002 132.792 55.886 130.933 59.8651C130.644 60.4854 130.911 61.2189 131.53 61.5085Z" fill="white" fill-opacity="0.8"/>
<path d="M133.628 69.3992C133.872 69.6694 134.207 69.807 134.545 69.807C134.841 69.807 135.136 69.7008 135.373 69.4885C138.734 66.4577 142.811 64.3583 147.164 63.4172C147.831 63.2749 148.255 62.6161 148.111 61.9501C147.968 61.284 147.305 60.8642 146.643 61.0042C141.869 62.0345 137.399 64.3342 133.717 67.6546C133.211 68.1106 133.171 68.8925 133.628 69.3992Z" fill="white" fill-opacity="0.8"/>
</svg>
