<svg width="426" height="431" viewBox="0 0 426 431" fill="none" xmlns="http://www.w3.org/2000/svg">
<path d="M44.9798 304.806L57.3698 307.387C44.8291 313.199 37.434 326.523 40.0207 340.332C41.2341 355.822 54.5308 368.027 70.7716 368.027C86.9724 368.027 100.256 355.87 101.515 340.423C104.574 324.267 93.9946 309.044 78.1334 305.305L95.7073 300.544C98.4288 299.807 97.8727 295.472 95.0868 295.382L95.0844 295.359C93.1196 271.764 93.4368 273.082 93.1196 272.848L93.2118 263.88L95.4197 252.077C99.6732 252.129 110.362 252.317 114.489 251.289L115.664 251.489C116.093 251.564 116.286 250.967 116.134 250.906L112.624 226.096C112.647 226.13 112.674 226.17 112.698 226.205C114.168 232.144 117.388 237.649 121.883 241.804C130.464 249.734 140.211 251.586 150.984 247.882C151.814 247.597 152.666 247.26 153.236 246.601L147.464 267.982C144.646 278.434 144.574 289.494 147.253 299.969L162.013 385.818C162.033 385.937 162.104 386.041 162.206 386.104C162.273 386.145 162.349 386.166 162.426 386.166C162.467 386.166 162.509 386.16 162.549 386.148L162.859 386.053C165.731 388.71 176.962 388.134 190.867 384.751C190.891 384.79 190.916 384.829 190.94 384.867C191.349 385.529 191.75 386.196 192.142 386.872C193.955 390.013 195.322 392.91 196.322 395.729C196.424 395.993 196.513 396.254 196.595 396.506C198.096 401.042 199.391 404.956 199.882 409.794C199.965 410.606 200.02 411.458 200.077 412.328L200.077 412.329V412.329C200.299 415.752 200.551 419.63 202.639 422.459C202.668 422.509 202.725 422.586 202.783 422.664C202.915 422.833 203.067 422.986 203.211 423.145C203.577 424.48 204.12 425.735 204.965 426.825C207.356 429.888 211.752 430.979 215.52 430.005C219.278 429.024 222.4 426.246 224.464 422.949C227.434 418.192 228.39 412.218 227.056 406.773C226.737 405.474 226.29 404.222 225.77 402.998C225.719 402.754 225.669 402.51 225.609 402.267C225.486 401.758 225.333 401.226 225.156 400.684C224.021 397.16 222.089 393.933 220.219 390.812L220.217 390.809L217.28 385.905C215.666 383.211 214.051 380.515 212.439 377.817C225.163 372.648 233.548 366.918 232.518 363.546C232.374 363.079 232.052 362.679 231.579 362.34L189.361 270.346C194.005 262.383 197.506 254.693 199.821 247.392C200.327 246.633 200.805 245.857 201.249 245.06L354.036 245.438C354.036 245.438 354.752 242.222 355.078 240.973H355.2C355.623 240.973 355.779 240.415 355.418 240.196L312.779 214.251C316.603 214.691 318.725 213.532 319.192 208.434C319.587 204.119 319.089 199.66 317.751 195.54C316.131 190.552 313.701 188.236 307.538 187.899L305.818 156.849C306.952 150.783 307.501 144.641 310.416 139.586C313.612 134.049 321.394 130.257 326.524 134.058C331.153 137.477 330.865 144.414 330.634 149.988L330.634 149.989C330.35 157.114 332.372 165.321 333.603 169.58C336.098 178.24 342.71 176.028 349.063 169.634C351.598 167.088 354.057 164.228 357.243 162.622C360.234 161.116 364.519 160.932 366.917 163.5C369.955 166.764 368.816 173.003 373.85 175.304C373.238 176.341 372.533 177.324 371.717 178.22C371.443 178.519 371.719 178.986 372.082 178.918C378.659 178.04 385.688 181.645 388.802 187.503C388.802 187.503 388.804 187.505 388.805 187.507C389.064 187.994 389.805 187.601 389.545 187.114C387.957 184.121 388.539 179.79 390.079 175.735C390.926 178.505 391.502 181.74 394.392 181.848C395.163 181.866 395.868 181.613 396.551 181.361C399.843 180.108 403.886 178.988 406.187 181.383C409.537 184.856 406.038 193.179 417.655 191.559C418.197 191.484 418.101 190.661 417.54 190.729C415.146 191.063 412.451 191.287 410.749 189.735C408.435 187.612 409.193 183.292 406.791 180.801C404.15 178.054 399.786 179.234 396.28 180.566L396.197 180.597C395.575 180.828 395.009 181.038 394.423 181.009C391.913 180.915 391.628 177.517 390.564 174.537C391.896 171.455 393.729 168.633 395.526 166.83C395.813 166.542 395.559 166.062 395.179 166.118C391.187 166.598 388.595 165.968 385.213 164.63C381.704 163.242 377.06 160.476 375.514 157.25L375.512 157.245C375.272 156.744 374.515 157.106 374.755 157.607C374.739 157.523 379.021 165.606 374.264 174.572C369.562 172.492 370.829 166.474 367.531 162.927C364.85 160.057 360.137 160.224 356.865 161.873C353.544 163.547 351.062 166.436 348.468 169.042C342.695 174.854 336.729 177.402 334.409 169.348C333.193 165.138 331.193 157.029 331.472 150.023C331.699 144.556 332.01 137.067 327.023 133.384C321.441 129.25 313.117 133.228 309.689 139.167C306.714 144.328 306.151 150.445 304.993 156.694C300.32 157.1 298.346 168.804 290.793 171.143C283.217 173.47 277.447 165.388 276.202 164.319C276.177 164.34 276.165 164.365 276.142 164.386C274.431 162.003 272.834 159.576 271.141 157.451C270.268 151.239 264.949 146.458 258.494 146.458C247.01 146.458 241.328 160.538 249.673 168.496C247.16 168.664 245.486 171.269 245.124 173.818C244.729 176.728 245.044 179.539 244.655 182.385C242.291 182.098 240.154 180.489 239.259 178.284C238.193 175.675 238.806 172.727 237.457 170.047C235.96 167.053 232.588 165.74 229.857 164.009C226.065 161.592 221.503 155.88 220.518 150.057C219.971 146.829 220.577 144.074 222.318 141.868C223.514 140.35 225.378 139.395 227.018 138.318C233.443 134.068 230.215 130.42 229.712 126.892C229.287 123.936 230.839 120.598 233.666 118.387C238.775 114.383 247.186 112.12 253.702 114.24C252.738 124.269 258.236 134.204 267.975 138.428C280.074 143.664 294.128 138.101 299.363 126.011C304.599 113.912 299.044 99.8585 286.945 94.623C280.795 91.9617 274.144 92.0933 268.4 94.4504C265.91 88.1371 267.724 80.6958 272.271 76.2375C276.931 71.6917 284.387 70.2292 290.404 72.6766C298.386 75.9358 304.967 85.3939 313.637 83.2168C320.028 81.5953 323.518 74.3866 323.728 62.3699C323.855 54.8603 323.817 56.8149 324.207 34.1346C329.297 36.3419 333.693 40.1739 336.298 45.0791C331.651 36.3238 338.992 20.9355 345.126 14.7878C340.136 15.3919 334.859 15.0584 326.935 11.0609C329.429 5.33721 335.297 0.464908 341.46 1.28601C347.734 2.11311 352.025 8.11321 356.135 12.1608C357.279 15.0505 360.282 18.3358 361.628 19.2775C366.214 22.4698 372.813 22.4389 377.36 19.1843C380.877 16.6753 382.976 12.3813 383.032 8.06731C391.242 2.37341 400.383 9.82991 406.92 17.3478L424.682 37.7776C425.051 38.1975 425.677 37.6427 425.315 37.227L407.553 16.7971C400.766 8.99031 391.535 1.58831 382.812 7.18771C378.223 10.2262 375.332 15.8999 370.19 17.2109C365.953 18.3039 361.222 16.2071 356.138 10.9821C351.746 6.33421 347.582 1.24681 341.57 0.454208C334.9 -0.444592 328.845 4.61811 326.187 10.6766C322.025 8.47311 317.618 5.25721 315.826 1.50771C320.564 11.4184 318.692 24.1152 311.296 32.2372C315.377 31.6893 319.547 32.2969 323.373 33.8014C322.988 56.2138 322.978 57.1119 322.908 61.2523C322.043 64.9817 321.101 68.7306 319.32 72.1241C316.032 78.3928 309.826 82.6858 303.077 79.8378C299.023 77.2555 295.114 73.6935 290.72 71.8997C284.403 69.3286 276.576 70.8665 271.685 75.6368C266.835 80.3924 265.039 88.2383 267.625 94.7788C260.02 98.2158 254.876 105.284 253.801 113.398C247.024 111.287 238.396 113.613 233.149 117.726C230.09 120.118 228.415 123.762 228.881 127.011C229.139 128.808 230.013 130.535 230.116 132.211H193.512C193.289 132.211 193.105 132.386 193.093 132.608L192.775 138.672C168.264 127.49 170.724 127.892 168.194 127.915C163.287 127.982 158.032 128.225 152.148 128.653C151.793 126.443 150.936 121.161 150.328 117.417C161.648 110.884 159.296 95.6727 154 83.7714C152.448 80.279 150.465 77.264 148.15 74.8162C149.595 73.9177 150.329 72.0962 150.312 70.372C150.279 66.9829 145.889 55.7612 139.211 54.4823C135.701 53.81 133.327 56.3951 131.907 59.6746C130.888 56.5056 127.629 53.9027 123.684 53.8701C118.323 51.7897 110.299 51.6292 107.267 56.3713C105.987 58.3722 105.624 61.394 107.184 64.9196C105.573 65.1392 104.073 66.046 103.126 67.3666C97.8806 69.2728 95.144 77.0731 100.92 84.8915C98.0957 87.459 98.5283 91.5626 100.132 95.0223C101.653 98.3026 104.49 100.449 107.498 102.456C107.522 102.24 107.558 102.027 107.6 101.818C107.185 107.041 111.756 112.953 117.132 112.687C119.008 112.589 120.658 111.676 121.844 110.094C123.099 111.929 127.236 115.065 127.289 115.104C130.611 117.564 134.044 118.943 137.685 119.532L139.925 131.713C132.52 133.982 127.543 135.739 120.893 138.006C120.281 138.216 119.639 138.295 119.285 138.773C118.841 139.427 111.324 146.449 109.272 159.325C97.2396 149.87 88.3228 148.185 82.7761 154.349C66.1841 172.804 54.0327 240.205 54.1179 240.707C53.1313 243.936 55.202 246.873 58.1523 248.349C61.665 250.098 71.9921 250.837 75.9082 251.162L72.4865 265.781L67.0546 278.458C62.6017 284.927 62.9423 283.353 58.0673 289.361C54.8462 288.689 49.4187 290.408 46.9777 293.062C44.8232 295.41 43.8174 297.214 44.1132 300.418C42.3617 301.594 42.8579 304.367 44.9798 304.806Z" stroke="white" stroke-opacity="0.8" stroke-width="0.7"/>
<path d="M70.7678 310.38C85.0427 310.38 96.6562 321.267 96.6562 334.651C96.6562 348.033 85.0427 358.921 70.7678 358.921C56.493 358.921 44.8795 348.033 44.8795 334.651C44.8795 321.267 56.4929 310.38 70.7678 310.38ZM70.7678 358.082C84.5801 358.082 95.8172 347.57 95.8172 334.651C95.8172 321.73 84.5801 311.219 70.7678 311.219C56.9555 311.219 45.7184 321.73 45.7184 334.651C45.7184 347.57 56.9555 358.082 70.7678 358.082Z" fill="white" fill-opacity="0.8"/>
<path d="M69.8263 333.691C66.2056 332.984 61.8791 331.693 61.8791 327.984C61.8791 323.054 67.3816 321.586 72.3509 322.251C75.7568 322.706 77.3552 324.998 77.8624 324.998C78.3178 324.998 78.4863 324.43 78.1645 324.109C75.8515 321.796 73.3761 321.15 70.2176 321.104V318.846C70.2176 318.139 69.2041 318.144 69.2041 318.846V321.122C64.6402 321.336 60.8659 323.43 60.8659 327.997C60.8659 332.405 65.2162 333.81 69.5953 334.642C73.547 335.383 78.5558 336.359 78.5558 340.576C78.5558 345.402 74.4218 347.15 69.5597 347.15C66.176 347.15 63.3747 346.121 61.2925 343.505C61.1976 343.399 61.1148 343.313 61.0435 343.247C60.8336 343.055 60.2793 343.104 60.2793 343.665C60.2793 343.867 60.3271 343.884 60.5104 344.128C62.6592 346.963 65.6743 348.113 69.2042 348.163V350.528C69.2042 351.206 70.2177 351.21 70.2177 350.528V348.146C75.3444 347.958 79.5693 345.734 79.5693 340.572C79.5691 335.568 74.408 334.656 69.8263 333.691Z" fill="white" fill-opacity="0.8"/>
<path d="M134.327 85.1729C132.502 86.6951 130.53 87.3375 129.921 86.6079C129.312 85.8783 130.297 84.0527 132.121 82.5304C133.946 81.0082 135.918 80.3658 136.527 81.0955C137.136 81.8252 136.151 83.6507 134.327 85.1729Z" fill="white" fill-opacity="0.8"/>
<path d="M145.609 81.1251C143.243 81.338 141.256 80.7433 141.17 79.7968C141.085 78.8503 142.934 77.9104 145.301 77.6975C147.667 77.4846 149.654 78.0793 149.739 79.0258C149.825 79.9722 147.975 80.912 145.609 81.1251Z" fill="white" fill-opacity="0.8"/>
<path d="M117.015 108.421C116.364 108.293 115.38 108.099 114.933 107.304C114.865 107.184 114.87 107.097 114.93 106.974C114.78 106.716 114.941 106.388 115.239 106.348C116.07 106.239 116.02 106.079 116.108 106.04C116.003 105.852 114.668 105.324 113.878 105.119C113.518 105.026 113.448 104.54 113.773 104.35C114.275 104.059 114.794 103.758 115.165 103.369C115.514 103.005 115.677 102.593 115.59 102.297C115.522 102.062 115.295 101.836 114.876 101.586C114.02 101.076 112.989 100.766 111.898 100.691C111.328 100.65 111.422 99.7933 111.956 99.8533C113.394 99.9536 115.998 100.704 116.396 102.061C116.692 103.073 115.875 103.993 114.997 104.584C115.425 104.737 115.838 104.914 116.231 105.116C117.432 105.733 116.995 106.828 115.831 107.099C116.128 107.37 116.637 107.491 117.178 107.598C117.721 107.704 117.56 108.535 117.015 108.421Z" fill="white" fill-opacity="0.8"/>
<path d="M149.364 95.8034C150.191 95.1774 149.941 93.8512 148.936 93.5764C148.402 93.4296 148.621 92.6216 149.158 92.7669C150.834 93.2275 151.251 95.428 149.871 96.472C149.432 96.8037 148.921 96.1394 149.364 95.8034Z" fill="white" fill-opacity="0.8"/>
<path d="M137.113 91.4469C136.268 91.7982 135.298 91.3978 134.947 90.5527C134.596 89.7076 134.996 88.7378 135.841 88.3866C136.686 88.0354 137.656 88.4357 138.007 89.2808C138.359 90.1259 137.958 91.0957 137.113 91.4469Z" fill="white" fill-opacity="0.8"/>
<path d="M147.568 87.4061C146.723 87.7573 145.753 87.3569 145.402 86.5119C145.051 85.6668 145.451 84.697 146.296 84.3458C147.142 83.9946 148.111 84.395 148.463 85.24C148.814 86.085 148.413 87.0548 147.568 87.4061Z" fill="white" fill-opacity="0.8"/>
<path d="M166.202 269.147C166.437 269.128 166.631 269.311 166.644 269.542C167.931 293.349 175.432 316.527 188.337 336.573C188.463 336.768 188.407 337.027 188.212 337.152C188.142 337.198 188.063 337.22 187.985 337.22C187.847 337.22 187.712 337.152 187.632 337.027C174.648 316.859 167.101 293.539 165.806 269.588C165.793 269.356 165.971 269.159 166.202 269.147Z" fill="white" fill-opacity="0.8"/>
<path d="M195.333 215.763C195.799 215.763 301.352 215.763 301.352 215.763L313.469 223.452H183.45C183.45 223.452 194.867 215.763 195.333 215.763Z" fill="white" fill-opacity="0.8"/>
<path d="M214.026 225.204C214.263 224.495 223.077 224.921 284.478 225.913C284.606 225.915 284.727 225.977 284.804 226.079L293.333 237.364C293.541 237.64 293.344 238.037 292.998 238.037H204.645C204.291 238.037 204.098 237.626 204.319 237.354C208.076 232.713 213.767 225.633 214.026 225.204ZM292.155 237.198L284.258 226.748C261.087 226.305 217.643 225.54 214.657 225.727C213.934 226.741 210.871 230.589 205.524 237.198H292.155Z" fill="white" fill-opacity="0.8"/>
<path d="M144.994 100.951C146.422 100.215 148.334 101.058 149.253 102.837C150.172 104.616 149.758 106.665 148.329 107.404C146.821 108.182 144.938 107.197 144.07 105.517C143.151 103.739 143.565 101.691 144.994 100.951ZM144.815 105.132C145.522 106.5 146.925 107.186 147.943 106.658C148.961 106.132 149.214 104.59 148.508 103.222C147.863 101.975 146.474 101.13 145.38 101.697C144.361 102.223 144.108 103.765 144.815 105.132Z" fill="white" fill-opacity="0.8"/>
<path d="M389.922 45C399.857 55.1497 399.685 71.4074 389.532 81.345C379.41 91.2523 363.106 91.0885 353.187 80.955C343.274 70.8278 343.449 54.5234 353.576 44.61C363.651 34.7488 379.925 34.7858 389.922 45ZM353.787 80.3684C363.376 90.1655 379.149 90.3351 388.946 80.7453C398.765 71.1345 398.935 55.4072 389.322 45.5867C379.72 35.776 363.984 35.5979 354.163 45.2098C344.366 54.7995 344.197 70.5713 353.787 80.3684Z" fill="white" fill-opacity="0.8"/>
<path d="M374.584 74.586C374.051 75.705 373.305 76.8131 372.551 77.7973C372.524 77.7816 354.911 59.7891 354.411 59.3502C356.518 58.0815 358.616 56.6859 361.027 56.0669C369.518 53.8871 380.115 62.9724 374.584 74.586Z" stroke="white" stroke-opacity="0.8" stroke-width="0.7"/>
<path d="M373.296 50.7029C375.695 48.3545 379.544 48.3958 381.892 50.7951C384.241 53.1944 384.199 57.0432 381.8 59.3916C379.401 61.74 375.552 61.6988 373.203 59.2995C370.855 56.9002 370.896 53.0513 373.296 50.7029Z" stroke="white" stroke-opacity="0.8" stroke-width="0.7"/>
<path d="M410.842 119.607C411.218 116.119 410.174 112.833 406.397 111.963C401.45 110.824 398.623 115.702 398.026 119.94C395.809 118.34 393.461 116.763 390.774 116.258C384.362 115.053 380.436 120.814 384.202 126.252C386.99 130.279 397.113 135.006 401.599 136.935C402.352 130.096 410.104 126.448 410.842 119.607Z" stroke="white" stroke-opacity="0.8" stroke-width="0.7"/>
<path d="M354.629 119.055C362.495 121.795 365.111 131.598 359.73 137.9C337.712 157.412 345.306 150.682 343.663 152.138L339.208 132.799C337.213 123.843 345.844 116.003 354.629 119.055ZM345.888 129.262C345.002 131.813 346.354 134.61 348.902 135.498C351.453 136.386 354.247 135.051 355.139 132.485C356.257 129.275 353.853 125.976 350.525 125.976C348.5 125.976 346.598 127.244 345.888 129.262Z" stroke="white" stroke-opacity="0.8" stroke-width="0.7"/>
<path d="M337.072 107.148C335.314 108.841 334.206 110.245 333.392 112.812C333.272 113.191 332.739 113.206 332.599 112.833C331.149 108.965 326.17 103.275 321.921 103.54C321.921 103.54 321.921 103.54 321.921 103.54C321.392 103.603 321.295 102.738 321.87 102.703C326.299 102.434 330.447 99.1577 331.735 94.911C331.843 94.5551 332.36 94.4875 332.522 94.8684C334.47 99.4199 339.322 102.556 344.238 102.446H344.238C344.777 102.409 344.824 103.275 344.253 103.285C344.169 103.318 341.223 103.153 337.072 107.148ZM332.192 96.1227C330.831 99.4313 327.849 102.063 324.418 103.092C328.1 104.384 331.481 108.543 332.951 111.541C334.386 107.877 338.421 104.366 341.618 103.053C337.665 102.285 334.083 99.6902 332.192 96.1227Z" fill="white" fill-opacity="0.8"/>
<path d="M90.4767 59.3052L79.8234 48.6183C79.4318 48.2257 80.0258 47.6331 80.4174 48.0267L91.0707 58.7136C91.4635 59.1074 90.8663 59.6987 90.4767 59.3052Z" fill="white" fill-opacity="0.8"/>
<path d="M86.5984 67.3902C86.0315 67.3902 77.9135 62.7794 63.794 58.5616C63.2655 58.4036 63.498 57.6004 64.0341 57.757C71.8176 60.0823 79.4708 63.0549 86.7815 66.5928C87.179 66.7849 87.0453 67.3902 86.5984 67.3902Z" fill="white" fill-opacity="0.8"/>
<path d="M83.9553 76.4362C84.5069 76.3987 84.5683 77.2342 84.0127 77.2736C78.2475 77.6691 72.4814 77.4227 66.8349 76.555C66.2849 76.4704 66.4159 75.6393 66.9627 75.7258C72.5703 76.5869 78.287 76.827 83.9553 76.4362Z" fill="white" fill-opacity="0.8"/>
<path d="M6.42478 189.901C11.0054 181.479 18.4669 175.402 26.5142 173.32C25.293 165.51 28.0853 156.719 34.1563 150.185C40.2052 143.673 49.3337 139.133 60.5548 137.055C61.102 136.952 61.253 137.779 60.708 137.879C49.6651 139.925 40.696 144.377 34.7708 150.755C28.8898 157.085 26.1725 165.581 27.3314 173.123C31.2549 172.245 35.922 172.113 39.1051 174.54C41.5095 176.373 42.8377 180.153 40.9822 182.858C39.2505 185.384 35.5462 185.654 33.1086 184.454C29.4564 182.656 27.4356 178.133 26.6594 174.149C18.8587 176.187 11.6205 182.105 7.16199 190.303C3.04429 197.874 0.97831 207.428 0.84641 219.513C0.62891 239.468 5.23491 259.448 14.1671 277.294C14.415 277.79 13.6662 278.166 13.4166 277.669C4.42498 259.704 -0.211803 239.591 0.00739655 219.503C0.141097 207.279 2.24038 197.596 6.42478 189.901ZM33.4791 183.701C35.6029 184.745 38.8115 184.54 40.2909 182.383C41.8526 180.106 40.6514 176.774 38.5965 175.207C35.6167 172.936 31.1209 173.128 27.4749 173.95C28.1934 177.664 30.0723 182.023 33.4791 183.701Z" fill="white" fill-opacity="0.8"/>
</svg>
