<?xml version="1.0" encoding="utf-8"?>
<!-- Generator: Adobe Illustrator 27.5.0, SVG Export Plug-In . SVG Version: 6.00 Build 0)  -->
<svg version="1.1" id="Layer_1" xmlns="http://www.w3.org/2000/svg" xmlns:xlink="http://www.w3.org/1999/xlink" x="0px" y="0px"
	 viewBox="0 0 1023 1023" style="enable-background:new 0 0 1023 1023;" xml:space="preserve">
<g>
	<path style="fill:#FEFEFE;" d="M0,0h1024v1024H0V0z"/>
	<path style="fill:#292629;" d="M186.631,730.273c0.469,0.027,1.432,0.058,1.864,0.186c1.197,0.356,1.267,1.03,1.616,2.067
		c-0.221,1.812-1.349,3.244-2.338,4.732c-3.563,5.361-4.153,11.625-5.998,17.678c-1.051-0.06-1.276-0.196-2.155-0.704
		c-0.618-0.829-0.912-1.329-1.06-2.382C177.739,746.03,182.944,734.68,186.631,730.273z"/>
	<path style="fill:#292629;" d="M174.583,732.152c0.273,0.05,0.553,0.071,0.819,0.151c1.31,0.394,1.482,0.749,2.125,1.862
		c0.089,4.735-3.618,9.166-4.179,13.809c-1.177,9.739,1.633,17.77,1.463,26.623c-0.019,0.982-0.414,1.687-0.878,2.526l-1.611-0.304
		c-1.413-1.135-1.916-2.507-2.413-4.205c-0.832-2.841-0.992-5.929-1.226-8.869C167.773,752.33,169.076,742.324,174.583,732.152z"/>
	<path style="fill:#292629;" d="M520.118,152.042c4.516,0.05,8.273,1.186,11.998,3.75c5.659,3.895,10.359,11.415,11.323,18.283
		c0.504,3.593,0.114,6.618-2.118,9.503c-0.949-0.044-1.898-0.125-2.846-0.191c-3.821-2.603-3.733-12.371-5.492-16.761
		c-2.451-6.115-7.866-6.322-13.004-8.997c-1.269-0.661-1.537-1.245-1.959-2.554C518.541,153.432,518.895,153.179,520.118,152.042z"
		/>
	<path style="fill:#292629;" d="M253.021,178.546c1.936,0.143,3.942,0.292,5.84,0.704c2.253,0.49,4.797,1.821,5.97,3.889
		c0.842,1.485,0.875,3.18,0.324,4.772c-1.507,4.361-6.128,6.966-10.007,8.941c-2.958,0.793-5.895,1.1-8.731-0.326
		c-1.829-0.92-3.149-2.499-3.763-4.448c-0.087-0.284-0.159-0.572-0.218-0.863c-0.059-0.291-0.104-0.585-0.134-0.881
		c-0.031-0.295-0.047-0.592-0.049-0.889c-0.001-0.297,0.011-0.594,0.038-0.889c0.027-0.296,0.069-0.59,0.124-0.882
		c0.055-0.292,0.125-0.581,0.209-0.866c0.083-0.285,0.18-0.566,0.291-0.842c0.111-0.275,0.234-0.545,0.371-0.809
		C245.439,181.003,248.853,179.858,253.021,178.546z"/>
	<path style="fill:#292629;" d="M226.165,156.556c2.62-0.174,4.476-0.009,6.872,1.155c1.895,0.92,3.306,2.151,3.919,4.223
		c0.687,2.326,0.12,4.985-1.032,7.067c-2.917,5.272-8.613,7.111-14.021,8.637c-2.013,0.394-3.817,0.555-5.809-0.008
		c-1.749-0.495-3.409-1.123-4.199-2.924c-0.816-1.861-0.498-4.186,0.153-6.043C214.173,162.608,220.66,159.052,226.165,156.556z"/>
	<path style="fill:#292629;" d="M521.302,131.594c2.602-0.169,5.169-0.153,7.75,0.256c8.047,1.272,15.115,5.139,19.922,11.846
		c3.919,5.468,8.283,15.463,6.879,22.204c-0.43,2.068-1.528,3.11-3.205,4.278c-5.273-1.582-5.413-7.63-6.692-12.289
		c-2.287-8.332-8.966-17.262-17.946-19.016c-3.126-0.611-6.423,0.248-9.2-1.642c-0.585-1.1-0.726-1.488-0.335-2.779
		C518.925,132.969,520.067,132.327,521.302,131.594z"/>
	<path style="fill:#292629;" d="M747.162,693.227c0.864,0.411,1.631,0.781,2.316,1.467c2.827,2.831,4.602,7.059,6.315,10.635
		c1.118,2.371,2.165,4.774,3.141,7.208c0.976,2.433,1.879,4.894,2.708,7.381c0.83,2.487,1.585,4.997,2.266,7.529
		c0.681,2.532,1.287,5.082,1.816,7.65c0.53,2.568,0.983,5.149,1.36,7.744c0.376,2.595,0.675,5.198,0.897,7.811
		c0.223,2.613,0.367,5.23,0.434,7.851c0.067,2.621,0.056,5.241-0.033,7.862c-0.561,14.19-3.37,32.044-14.27,42.17
		c-0.913,0.351-1.353,0.41-2.317,0.244c-1.146-2.493,3.936-10.277,5.263-12.913c5.332-10.584,6.746-27.405,6.134-39.029
		c-0.374-6.18-1.082-12.322-2.124-18.425c-1.043-6.103-2.413-12.132-4.11-18.087c-1.35-4.616-2.986-9.128-4.907-13.537
		c-1.291-2.968-5.018-8.782-5.424-11.525C746.571,694.879,747.046,693.666,747.162,693.227z"/>
	<path style="fill:#292629;" d="M529.536,105.01c2.775,0.371,5.173,1.062,7.702,2.265c14.583,6.936,28.68,20.857,34.127,36.219
		c1.669,4.708,4.612,13.547,1.904,18.172c-0.826,1.412-2.001,1.814-3.447,2.316c-1.215-0.609-2.109-1.076-2.817-2.299
		c-1.177-2.034-1.617-5.528-2.22-7.874c-2.128-8.275-5.955-15.986-11.748-22.327c-6.842-7.489-15.691-11.868-24.396-16.669
		c-1.031-0.569-2.463-1.3-3.016-2.405c-0.57-1.137-0.789-2.351-0.337-3.571C526.066,106.737,527.668,105.956,529.536,105.01z"/>
	<path style="fill:#292629;" d="M171.108,456.19c2.269-0.171,5.648-0.539,7.65,0.743c0.203,0.131,1.055,0.865,1.22,1.154
		c1.452,2.54,4.678,30.84,5.403,35.744c3.652,24.673,11.602,75.443,29.941,93.28c5.682,5.526,15.54,6.435,19.968,10.585
		c0.995,0.933,1.668,2.285,1.683,3.671c0.014,1.335-0.697,2.581-1.612,3.507c-7.119,7.206-22.529,8.719-32.071,8.715
		c1.422,13.331,6.523,20.621,13.066,31.701c-0.146,0.326-0.29,0.652-0.451,0.97c-0.848,1.677-2.19,4.673-4.243,5.109
		c-4.979,1.059-28.063-14.806-33.581-18.178c-8.537,3.608-17.199,6.761-25.959,9.782c-8.267,2.758-16.245,5.942-24.253,9.374
		c-1.944,0.834-7.638,3.531-9.492,2.539c-2.866-1.533-5.509-6.625-7.191-9.359c-12.398-20.148-20.375-41.944-26.426-64.734
		c-3.4-13.051-6.323-26.208-8.771-39.471c-2.447-13.263-4.412-26.597-5.894-40.002c-0.39-3.631-2.129-9.978-0.338-13.067
		c1.599-0.731,2.209-0.285,3.878,0.135C95.314,474.112,145.4,459.061,171.108,456.19z"/>
	<path style="fill:#FEFEFE;" d="M164.365,465.704c3.486-0.386,6.962-0.29,10.462-0.247c1.974,12.96,2.803,26.118,4.277,39.142
		c1.367,12.234,3.437,24.348,6.211,36.341c3.922,17.001,11.099,39.883,22.759,52.866c3.296,3.669,7.01,6.338,11.174,8.939
		c-2.886,0.409-5.861,0.907-8.781,0.818c-3.725-0.114-7.773-1.049-11.455-0.6c-1.567,0.191-3.077,0.722-3.971,2.119
		c-2.651,4.142,1.888,21.458,3.341,26.938c-3.556-2.162-15.222-10.628-18.445-11.147c-2.015-0.325-4.566,1.77-6.11,2.917
		c-6.546,4.862-26.753,10.241-35.681,13.704c-5.625,2.225-11.223,4.513-16.796,6.864c-20.952-29.23-29.409-66.003-37.417-100.407
		c-3.91-16.439-7.621-32.924-11.132-49.453C96.237,480.459,136.917,468.684,164.365,465.704z"/>
	<path style="fill:#292629;" d="M160.325,604.485c1.394-0.188,2.301-0.103,3.452,0.727c0.16,1.032,0.27,1.476-0.19,2.469
		c-0.681,1.47-2.526,2.858-3.893,3.654c-2.087,1.215-4.844,1.852-7.115,2.78c-8.052,3.289-16.047,6.619-24.3,9.382
		c-0.493-0.084-1.351-0.2-1.786-0.42c-1.194-0.603-1.362-1.373-1.685-2.526c0.525-1.119,0.914-1.568,2.045-2.124
		c3.903-1.916,8.338-3.17,12.387-4.811C146.329,610.741,153.317,607.556,160.325,604.485z"/>
	<path style="fill:#292629;" d="M145.253,498.027c0.339,0.16,0.847,0.375,1.124,0.617c0.901,0.784,0.862,1.258,0.871,2.342
		c-2.864,5.236-38.172,15.296-46.11,17.84l-1.333-0.906c-0.652-1.284-0.756-1.277-0.424-2.659
		c4.317-3.536,23.619-8.899,29.967-11.181C134.689,502.161,139.918,499.957,145.253,498.027z"/>
	<path style="fill:#292629;" d="M153.937,519.615c1.594-0.059,1.862-0.052,3.254,0.704c0.668,1.241,0.747,1.27,0.511,2.645
		c-0.907,1.162-1.766,1.527-3.146,2.007c-5.195,1.807-10.88,2.879-16.197,4.373c-9.834,2.799-19.584,5.866-29.251,9.199
		l-2.105,0.574c-0.257-0.2-0.548-0.364-0.772-0.601c-0.941-0.997-0.977-1.528-0.879-2.775
		C108.348,531.749,147.164,521.337,153.937,519.615z"/>
	<path style="fill:#292629;" d="M167.176,579.938c0.949,0.106,1.728,0.526,2.302,1.328c0.75,1.05,0.582,1.592,0.323,2.728
		c-2.065,2.045-44.431,18.375-49.959,19.986c-0.201-0.004-0.406,0.025-0.603-0.013c-1.503-0.289-1.769-0.516-2.54-1.719
		c0.119-0.492,0.183-0.885,0.449-1.341c0.727-1.25,2.797-2.198,4.038-2.772c5.116-2.365,10.87-4.043,16.133-6.154
		C147.287,587.982,157.105,583.687,167.176,579.938z"/>
	<path style="fill:#292629;" d="M161.02,541.397c1.174,0.192,2.479,0.703,3.392,1.472c0.634,0.533,0.407,0.369,0.432,1.364
		c-3.74,6.58-43.178,18.424-52.582,21.229c-1.087,0.002-1.91,0.124-2.761-0.726c-0.896-0.894-0.811-1.422-0.635-2.528
		c2.697-2.987,21.397-7.376,26.572-9.389C144.151,549.429,152.57,545.384,161.02,541.397z"/>
	<path style="fill:#292629;" d="M161.526,562.897c1.487,0.358,1.971,0.81,3.026,1.84c0.466,1.417,0.501,1.445-0.001,2.843
		c-3.831,3.95-42.649,17.809-49.937,20.629c-0.058,0.027-0.113,0.066-0.175,0.08c-1.366,0.304-1.396,0.262-2.497-0.512
		c-0.633-1.323-0.77-1.398-0.47-2.811c1.069-1.289,2.207-1.971,3.738-2.647c4.262-1.883,8.836-3.089,13.157-4.864
		C139.545,572.863,150.526,567.897,161.526,562.897z"/>
	<path style="fill:#292629;" d="M833.188,98.706c3.924-0.564,8.409-0.174,12.358,0.058c19.726,1.162,39.525,6.443,56.375,16.958
		c27.148,16.939,43.622,43.196,50.614,74.071c8.44,37.269,0.464,77.743-19.947,109.904c-16.04,25.276-45.745,46.248-75.057,52.661
		c-32.775,7.172-70.19,1.202-98.533-16.861c-6.135-3.745-11.972-7.916-18.182-11.564c-14.064,11.781-29.676,21.805-44.013,33.281
		c-3.604,2.886-12.908,11.938-16.626,12.765c-0.878,0.196-2.281-0.329-3.036-0.813c-1.33-0.854-2.278-2.3-2.489-3.872
		c-0.819-6.114,27.967-57.388,33.428-66.499c5.141-8.576,10.46-17.358,16.735-25.159c-6.387-17.133-12.147-34.778-13.623-53.115
		c-2.311-28.713,5.474-56.092,24.317-78.185C759.423,114.297,797.406,101.441,833.188,98.706z"/>
	<path style="fill:#FEFEFE;" d="M821.85,107.707c13.095-1.583,53.857,7.251,66.384,13.032c24.536,11.324,42.197,34.665,51.285,59.6
		c12.174,33.401,9.374,63.097-5.478,94.897c-12.577,26.93-34.37,49.823-62.702,60c-28.567,10.262-67.276,9.181-94.979-3.911
		c-4.528-2.023-8.867-4.62-12.979-7.381c-5.114-3.434-15.555-12.39-21.03-13.731c-1.23-0.302-2.646,0.044-3.727,0.637
		c-3.377,1.854-6.322,6.385-9.479,8.852c-7.152,5.588-14.673,10.77-21.951,16.202c-5.253,3.921-10.273,8.131-15.561,12.008
		c6.832-17,23.18-41.754,33.461-57.864c2.291-3.59,9.618-11.444,10.514-14.783c0.047-0.174-0.005-1.026-0.03-1.264
		c-0.668-6.403-4.853-13.739-7.051-19.857c-4.123-11.47-7.11-23.009-8.38-35.155c-2.629-25.16,3.745-51.726,19.934-71.498
		C759.638,123.607,791.696,110.713,821.85,107.707z"/>
	<path style="fill:#292629;" d="M820.472,134.545c1.86-0.143,3.696-0.269,5.544,0.063c3.037,0.547,5.887,2.342,7.602,4.92
		c1.666,2.505,2.106,5.652,1.41,8.557c-0.897,3.747-3.575,6.686-6.782,8.649c0.426,7.092,1.543,14.224,2.41,21.279
		c14.328-2.778,29.296-6.75,43.076-11.601c5.862-2.063,11.867-6.055,17.928-7.164c1.04-0.191,2.338-0.301,3.2,0.379
		c2.482,1.959,2.193,5.501,2.354,8.357c0.693,12.333,1.582,24.583,3.826,36.754c2.953,16.008,7.692,31.808,11.401,47.663
		c1.737,7.424,4.987,17.081,6.005,24.131c-1.248,2.096-61.319,20.01-67.142,21.615c-19.875,4.859-42.975,9.937-63.348,6.277
		c-3.343-5.341-5.703-11.569-8.134-17.374c-10.637-25.402-20.928-56.59-26.682-83.575c-0.679-3.186-1.68-7.464,0.192-10.355
		c6.348-3.056,17.487-4.079,24.756-5.467l46.93-8.891c-0.776-6.644-1.659-13.274-2.648-19.889
		c-3.444-0.189-6.949-0.233-10.147-1.681c-2.521-1.142-4.68-3.03-5.596-5.701c-0.907-2.648-0.456-5.554,0.825-7.996
		C810.145,138.358,815.233,136.166,820.472,134.545z"/>
	<path style="fill:#FEFEFE;" d="M822.018,144.026c0.644-0.002,1.075-0.023,1.734,0.071c1.166,0.165,1.784,0.58,2.469,1.482
		c-0.626,1.421-1.225,1.528-2.541,2.293c-1.223,0.172-2.412,0.427-3.629,0.101c-0.816-0.219-0.57-0.206-1.006-1.066
		C819.68,145.424,820.728,144.872,822.018,144.026z"/>
	<path style="fill:#FEFEFE;" d="M890.491,168.608c0.955,1.35,0.508,4.833,0.567,6.574c0.251,7.157,0.97,14.266,2.158,21.327
		c2.394,14.05,6.385,27.751,9.94,41.532c2.917,11.309,5.433,22.74,8.198,34.09c-30.4,10.151-63.52,21.768-95.408,25.279
		c-7.4,0.815-14.843,0.926-22.28,0.973l-3.251-7.744c-7.546-19.841-13.818-39.909-19.902-60.227
		c-3.023-10.098-6.51-20.313-8.569-30.645c12.576-1.989,25.152-5.415,37.668-7.895C828.65,186.118,864.224,182.094,890.491,168.608z
		"/>
	<path style="fill:#292629;" d="M863.853,187.566c0.47-0.029,1.401-0.157,1.885-0.009c1.43,0.437,1.745,1.03,2.541,2.189
		c0.05,1.215,0.163,1.822-0.712,2.815c-1.997,2.265-51.392,14.027-57.685,15.337c-10.035,2.1-20.123,3.906-30.264,5.417
		c-0.37,0.097-0.729,0.209-1.117,0.221c-1.476,0.049-1.82-0.201-2.94-1.046c-0.52-1.317-0.581-1.511-0.335-2.896
		c2.287-2.451,16.222-4.046,20.37-4.864C818.693,200.174,841.192,193.862,863.853,187.566z"/>
	<path style="fill:#292629;" d="M881.74,217.605c0.036-0.004,0.072-0.012,0.109-0.012c1.347,0.013,2.035-0.174,2.884,1.039
		c0.687,0.98,0.582,1.404,0.29,2.443c-1.442,1.625-3.336,2.262-5.365,2.892c-3.927,1.22-7.987,1.812-11.968,2.803l-23.426,5.677
		c-18.59,4.525-37.011,9.633-55.509,14.497c-1.159,0.254-1.888,0.077-3.027-0.205c-0.51-1.04-0.549-1.458,0.002-2.606
		c0.776-1.614,3.971-3.353,5.577-3.96c10.247-3.875,22.015-6.042,32.661-8.705C843.163,226.668,862.379,221.691,881.74,217.605z"/>
	<path style="fill:#292629;" d="M880.794,202.03c0.319-0.005,0.641-0.057,0.957-0.014c1.224,0.165,1.566,0.876,2.231,1.78
		c0.02,0.696,0.177,1.089-0.249,1.692c-4.63,6.547-90.231,20.463-104.147,23.703c-1.332,0.075-1.334,0.087-2.415-0.692
		c-0.602-1.274-0.779-1.823-0.543-3.221c1.434-2.071,3.286-2.504,5.667-3.081c5.55-1.345,11.412-1.713,17.026-2.821
		C826.618,213.987,853.867,209.207,880.794,202.03z"/>
	<path style="fill:#292629;" d="M886.903,233.563c1.448-0.084,2.171-0.135,3.515,0.527c0.822,1.273,0.852,1.188,0.59,2.67
		c-4.157,5.389-14.429,7.768-20.701,9.88c-26.094,8.785-52.028,14.645-79.175,19.159c-0.091,0.015-0.18,0.046-0.271,0.047
		c-1.56,0.018-1.766-0.181-2.974-1.106c-0.575-1.356-0.624-1.288-0.134-2.666c1.361-1.264,2.977-1.824,4.748-2.313
		c7.161-1.975,14.863-2.907,22.16-4.405c12.011-2.451,23.881-5.457,35.61-9.018c6.258-1.865,12.569-3.746,18.684-6.046
		C874.908,238.053,880.752,235.201,886.903,233.563z"/>
	<path style="fill:#292629;" d="M885.144,248.563c1.294-0.134,2.839-0.362,4.096,0.046c1.261,0.408,2.326,1.523,2.962,2.656
		c3.115,5.548,1.203,15.233-0.238,21.107c-5.822,2.673-12.28,4.496-18.392,6.398c-19.741,6.144-39.121,10.678-59.719,12.722
		c-1.142,0.044-2.691,0.231-3.736-0.3c-2.18-1.107-3.71-5.022-4.325-7.19c-0.863-3.039-1.408-7.054,0.39-9.876
		c0.185-0.293,0.395-0.567,0.629-0.822c2.427-2.614,12.99-3.593,17.059-4.775c11.253-3.269,22.705-6.526,33.774-10.358
		C866.783,255.007,875.781,251.008,885.144,248.563z"/>
	<path style="fill:#292629;" d="M375.185,180.707c26.233-2.978,63.122,4.523,86.935,15.835
		c42.758,20.311,59.854,54.325,74.965,96.514c3.834-3.827,8.054-6.728,13.425-7.976c6.189-1.438,12.501-0.232,17.872,3.112
		c8.768,5.461,14.16,15.071,16.404,24.95c2.554,11.241,0.758,23.372-5.485,33.122c-5.49,8.574-13.267,14.343-23.258,16.466
		c3.597,15.358,7.445,30.632,10.407,46.131c2.848,14.906,6.864,35.696-2.343,49.004c-16.244,23.481-75.334,32.139-102.944,37.153
		c4.682,15.63,8.88,31.226,12.644,47.101c28.953-1.86,57.34-5.078,86.443-4.587c2.829,4.296,5.041,9.032,7.389,13.604
		c24.086,5.674,45.622,20.977,66.119,34.07c3.875-18.014,2.267-36.673,3.901-54.852l1.233-0.918c1.865-0.39,3.088,0.071,4.913,0.466
		c1.613,0.354,3.236,0.647,4.87,0.878c1.635,0.231,3.276,0.4,4.923,0.507c1.647,0.107,3.296,0.152,4.947,0.134
		c1.651-0.017,3.298-0.097,4.943-0.24c29.762-2.628,81.773-23.042,105.791-40.684c3.425-2.515,7.033-5.505,9.808-8.73
		c2.891-3.36,5.582-10.173,9.473-12.322c1.215-0.671,1.771-0.553,3.045-0.161c0.731,0.719,1.062,1.143,1.351,2.159
		c1.238,4.353-1.207,15.413-1.686,20.306c-4.112,42.056-11.048,86.788-32.503,123.942c-13.121,22.721-28.426,35.483-53.937,42.25
		c9.976,9.93,19.113,19.976,25.298,32.807c1.31,2.717,0.145,5.126-0.782,7.755c1.279,2.579,4.042,4.619,5.854,6.879
		c1.705,2.128,3.205,4.478,4.694,6.761c11.737,17.989,18.142,39.861,13.54,61.284c-3.432,15.98-10.738,31.959-25,41.023
		c-19.468,12.373-55.69,15.793-78.228,10.803c0.402,9.432,1.315,18.848,1.941,28.268c0.498,7.509,0.698,15.034,1.26,22.539
		c0.088,4.494,2.491,16.482,0.977,19.938c-1.271,2.902-6.831,4.629-9.696,5.563c-18.39,5.995-42.082,8.241-61.406,10.696
		c-19.447,2.538-38.94,4.66-58.479,6.365c-19.538,1.705-39.104,2.991-58.697,3.86c-19.593,0.869-39.196,1.319-58.809,1.35
		c-19.613,0.031-39.217-0.358-58.813-1.165c-4.331-0.165-27.711-0.051-30.079-2.04c-2.993-2.513-17.541-78.023-18.756-86.915
		c-7.703,7.714-16.298,11.973-26.845,14.534c-21.246,5.159-43.552,2.893-62.363-8.638c-12.847-7.874-25.492-21.166-29.057-36.188
		c-5.521-23.26,13.625-48.496,25.322-67.368c-4.696-3.138-8.582-6.423-11.629-11.237c0.323-1.28,0.687-2.548,1.093-3.804
		c3.003-9.112,7.906-17.962,12.644-26.29c18.508-32.529,39.516-55.197,67.124-80.045c8.437-7.594,17.298-15.796,26.862-21.905
		c3.007-1.92,7.205-2.692,10.564-3.972c2.806-1.069,5.497-2.473,8.18-3.816c1.583-7.576,2.741-15.391,5.048-22.779
		c9.969-3.526,21.609-5.128,31.997-7.192c15.664-3.112,31.42-6.617,47.263-8.642c-3.109-12.383-6.044-25.463-7.581-38.127
		c-5.555,1.382-11.202,2.465-16.828,3.51c-17.601,3.268-63.105,12.79-77.842,2.173c-4.593-3.309-7.952-8.261-10.34-13.328
		c-8.866-18.809-12.35-51.972-16.121-73.038c-7.081,2.331-15.233,4.198-22.701,2.875c-6.925-1.228-12.677-4.875-16.708-10.648
		c-5.958-8.533-7.388-20.102-5.49-30.16c1.661-8.798,6.009-16.965,13.539-22.067c6.702-4.541,13.859-5.04,21.537-3.582
		c-1.635-14.037-3.598-28.145-4.596-42.239c-2.653-37.446,5.184-74.967,30.513-103.926
		C314.498,193.501,343.657,182.89,375.185,180.707z"/>
	<path style="fill:#FEFEFE;" d="M406.369,505.239c0.398,0.087,0.973,0.187,1.325,0.381c1.192,0.656,1.222,1.161,1.438,2.369
		c-0.522,1.702-1.361,2.571-2.582,3.838c-0.173-0.076-0.349-0.146-0.519-0.229c-1.393-0.681-1.972-1.173-2.456-2.595
		C403.957,507.328,405.187,506.392,406.369,505.239z"/>
	<path style="fill:#FEFEFE;" d="M442.556,525.541l1.889,0.648c0.507,0.55,0.796,1.009,0.996,1.737
		c0.899,3.258,0.711,7.373-0.964,10.326c-0.359-0.039-0.966-0.088-1.293-0.211c-0.862-0.323-1.238-0.885-1.568-1.7
		C440.357,533.242,441.392,528.529,442.556,525.541z"/>
	<path style="fill:#FEFEFE;" d="M420.292,507.262c0.538,0.36,1.096,0.906,1.592,1.328c0.692,2.98-6.709,12.945-8.476,16.194
		c-0.895-0.241-1.205-0.494-1.921-1.051c-0.362-0.836-0.531-1.369-0.463-2.302C411.354,516.891,416.846,510.058,420.292,507.262z"/>
	<path style="fill:#FEFEFE;" d="M695.095,672.911c0.097,0.047,0.208,0.072,0.291,0.141c0.891,0.746,0.901,0.968,0.894,2.044
		c-2.306,3.305-13.529,10.501-17.475,13.528c-0.849-0.291-0.951-0.563-1.533-1.214c-0.005-0.423-0.043-0.652,0.151-1.084
		C679.735,681.178,690.131,675.309,695.095,672.911z"/>
	<path style="fill:#FEFEFE;" d="M645.456,691.003c6.421,3.503,13.395,7.017,18.665,12.164c1.99,1.944,2.535,2.844,2.574,5.679
		c-3.11-0.802-17.056-10.442-20.567-12.888C645.313,694.597,645.5,692.574,645.456,691.003z"/>
	<path style="fill:#FEFEFE;" d="M578.448,572.367c4.817,1.411,9.278,4.782,13.934,6.754c4.152,1.758,8.766,2.375,12.995,4.011
		c0.747,1.126,0.511,1.376,0.333,2.738c-7.741-0.789-16.573-3.12-23.174-7.33C579.729,576.75,579.129,575.616,578.448,572.367z"/>
	<path style="fill:#FEFEFE;" d="M427.432,521.119l1.395,0.569c0.378,0.575,0.657,1.066,0.709,1.771
		c0.349,4.706-5.668,18.391-8.628,22.258c-0.317,0.02-0.97-0.213-1.288-0.295l-0.676-1.15
		C418.538,538.185,424.214,526.226,427.432,521.119z"/>
	<path style="fill:#FEFEFE;" d="M599.315,622.177c5.368,1.98,12.551,7.676,17.784,10.779c-1.265,2.675-2.891,5.064-4.531,7.518
		l-3.412,5.061C605.688,637.895,602.167,630.064,599.315,622.177z"/>
	<path style="fill:#FEFEFE;" d="M312.236,662.974c1.218,1.384,0.465,6.624,0.587,8.727c0.694,1.081,1.257,1.989,1.684,3.212
		c-5.39,1.592-18.604,2.277-25.393,3.475c-1.183,0.155-1.596,0.373-2.723-0.098l0.871-0.717l-0.422,0.631l0.828-0.335l-0.492-0.236
		l0.658,0.168l0.036-0.615C295.929,672.339,304.051,667.602,312.236,662.974z"/>
	<path style="fill:#FEFEFE;" d="M311.433,604.041c-0.175,0.653-0.173,0.755-0.532,1.451c-1.132,2.191-3.165,4.424-4.649,6.457
		c-4.6,6.288-9.27,12.524-14.009,18.707c-9.176,12.087-17.898,24.583-27.363,36.444c-7.079,8.872-14.984,17.136-22.466,25.674
		c-4.517,5.154-8.726,11.243-13.752,15.878c-3.407,3.142-8.326,6.133-12.859,7.141l-0.075-1.478
		c2.819-4.869,10.201-5.213,13.773-10.035c18.591-25.434,37.988-50.239,58.189-74.414
		C294.952,621.205,302.488,610.968,311.433,604.041z"/>
	<path style="fill:#FEFEFE;" d="M281.229,735.347c3.479,15.807,6.052,31.814,9.349,47.664c-6.27-3.905-12.076-6.159-19.247-7.922
		c-5.731-1.175-11.592-1.521-17.421-1.827C260.641,759.118,271.701,747.616,281.229,735.347z"/>
	<path style="fill:#FEFEFE;" d="M645.586,707.866c7.572,4.185,18.111,10.748,24.387,16.666c0.167,0.755,0.351,1.506,0.553,2.253
		c0.496,1.78,1.02,2.484,2.693,3.406c2.013,0.284,3.529-0.212,5.459-0.77c5.27,3.618,10.87,8.757,12.014,15.354
		c0.545,3.144,0.068,5.99-1.739,8.618c-12.617,5.499-28.058,3.194-41.495,3.821C647.502,740.778,646.356,724.282,645.586,707.866z"
		/>
	<path style="fill:#FEFEFE;" d="M258.485,369.556c3.348-0.1,6.533,0.101,9.862,0.455c2.542,16.524,5.817,33.187,7.473,49.815
		c-6.385,0.241-12.549,0.576-18.944,0.109c-2.602-0.287-5.268-0.697-7.637-1.872c-4.63-2.296-7.248-6.434-8.73-11.251
		c-2.431-7.898-1.894-18.366,2.187-25.62C246.226,374.918,251.719,371.441,258.485,369.556z"/>
	<path style="fill:#FEFEFE;" d="M550.701,293.619c2.072-0.199,4.086-0.272,6.139,0.156c5.822,1.212,10.39,4.681,13.559,9.658
		c5.563,8.738,7.263,20.062,5.036,30.118c-1.78,8.034-5.602,13.491-12.519,17.938c-2.731,1.397-5.536,2.416-8.417,3.45
		c-6.132-17.526-10.233-36.602-15.04-54.603C543.098,297.604,546.393,295.195,550.701,293.619z"/>
	<path style="fill:#FEFEFE;" d="M713.72,700.079c1.039,0.112,0.858,0.01,1.749,0.386c8.124,3.427,19.358,23.127,22.46,31.15
		c6.408,16.576,7.381,36.49-0.007,52.948c-5.09,11.339-14.273,20.897-25.97,25.347c-18.931,7.204-51.752,10.868-70.685,2.308
		c-0.337-0.179-0.67-0.366-0.999-0.559c-5.526-3.262-10.606-9.525-12.036-15.8c-1.41-6.188-0.475-13.856,2.934-19.27
		c8.74-13.879,39.605-6.88,54.386-10.122c5.264-1.154,10.702-3.5,13.557-8.325c2.858-4.831,2.695-11.566,1.152-16.839
		c-2.998-10.251-11.3-15.959-20.178-20.772C688.397,708.578,699.771,703.069,713.72,700.079z"/>
	<path style="fill:#FEFEFE;" d="M234.116,711.166c15.223,1.647,31.566,8.193,43.509,17.773c-2.672,3.93-6.498,7.316-9.741,10.794
		c-11.963,12.825-22.527,25.707-25.102,43.567c10.94,1.097,22.249,0.486,32.872,3.723c6.743,2.055,11.801,6.99,15.019,13.178
		c2.431,4.673,5.954,15.521,4.182,20.55c-2.013,5.714-9.968,10.579-15.12,13.25c-2.796,1.392-5.897,2.294-8.926,3.02
		c-18.996,4.548-40.406,2.348-57.144-8.134c-10.725-6.717-22.014-17.244-24.885-30.053c-4.463-19.92,17.903-52.061,29.661-67.568
		c4.952-6.531,11.057-12.698,15.386-19.625C233.925,711.484,234.019,711.324,234.116,711.166z"/>
	<path style="fill:#FEFEFE;" d="M783.827,488.437c0.006,0.102,0.022,0.203,0.018,0.304c-1.336,36.143-15.753,106.887-41.222,134.036
		c-23.668,25.229-79.66,34.232-112.901,38.523c-8.958,1.156-18.302,2.672-27.318,2.954c18.741-23.226,34.071-49.763,38.653-79.658
		c2.395-15.628,2.573-31.494,3.156-47.264c4.068,0.594,8.106,1.077,12.222,1.143C692.062,539.053,758.241,513.086,783.827,488.437z"
		/>
	<path style="fill:#292629;" d="M738.982,591.159c1.356,0.588,2.485,1.184,3.059,2.641c0.533,1.354,0.255,2.414-0.414,3.633
		c-4.72,8.603-16.659,13.576-25.531,16.087c-0.717,0.1-1.069,0.016-1.763-0.142l-0.741-1.394c2.111-2.742,8.793-3.88,12.102-5.489
		C732.697,603.09,736.57,598.512,738.982,591.159z"/>
	<path style="fill:#292629;" d="M657.095,541.718c1.161,0.305,1.872,0.373,2.646,1.36c0.368,8.449-3.504,39.922-6.484,46.975
		c-1.041-0.628-1.61-1.11-2.326-2.095c-0.677-4.46,3.201-23.301,3.925-29.311c0.591-4.917,0.545-10.146,1.438-14.983
		C656.429,542.928,656.75,542.369,657.095,541.718z"/>
	<path style="fill:#292629;" d="M730.794,612.308c0.799,0.215,1.228,0.529,1.906,0.987c0.197,0.72,0.474,1.003,0.078,1.708
		c-1.304,2.322-4.545,4.348-6.743,5.819c-15.626,10.453-34.826,15.592-53.024,19.553c-1.108-0.321-1.312-0.364-2.086-1.2
		c0.275-2.056,2.929-2.443,4.687-2.97C697.708,629.58,712.196,627.388,730.794,612.308z"/>
	<path style="fill:#FEFEFE;" d="M557.486,545.782l0.434,0.118c2.146,3.174,4.358,10.677,6.048,14.652
		c6.719,15.841,13.139,31.801,19.262,47.882c5.443,13.906,11.048,27.755,15.39,42.054c-71.352,5.208-142.988,8.92-214.116,16.685
		c0.402-0.782,0.803-1.572,1.13-2.39c1.207-3.025,1.133-6.786-0.221-9.753c-1.308-2.864-3.825-4.856-6.742-5.928
		c-2.624-0.964-5.973-1.092-8.518,0.204c-2.353,1.198-4.055,3.917-4.793,6.379c-0.646,2.157-0.77,4.683,0.49,6.653
		c0.767,1.2,1.836,1.819,3.208,2.129c0.973-1.232-0.558-6.038,0.607-8.291c1.079-2.089,3.123-2.746,5.202-3.455
		c0.94,0.287,1.739,0.562,2.603,1.051c2.083,1.179,2.975,3.901,3.411,6.102c0.409,2.065,0.455,4.519-0.988,6.225
		c-0.802,0.948-1.919,1.538-3.128,1.774c-2.384,0.466-4.925,0.344-7.343,0.646l-20.68,2.482c-9.844,1.127-21.405,3.455-31.172,3.348
		c3.069-2.001,2.126-14.737,2.198-18.441c0.575-29.268,2.494-58.09,9.781-86.548c8.336-3.863,26.623-6.309,36.163-8.189
		c12.082-2.381,24.691-5.759,36.974-6.631c13.97-0.992,28.12-0.249,42.161-1.2L557.486,545.782z"/>
	<path style="fill:#292629;" d="M455.54,631.619l1.716-0.151c1.073,0.546,1.197,0.805,1.859,1.833l-0.29,0.816
		c-3.421,2.717-57.068,12.931-65.81,14.67c-0.425,0.058-1.117,0.174-1.53,0.126c-1.188-0.138-1.53-0.619-2.219-1.467l0.175-0.981
		c0.345-0.387,0.61-0.864,1.034-1.163C390.869,645.025,447.914,633.291,455.54,631.619z"/>
	<path style="fill:#292629;" d="M456.43,573.706c3.965-0.258,9.543-1.062,12.809,1.652l-0.19,0.749
		c-3.189,1.742-24.401,2.787-30.212,3.523c-16.562,2.096-32.872,5.555-49.164,9.134c-2.859,0.702-7.765,2.398-10.596,1.911
		c-0.799-1.007-0.685-1.063-0.626-2.368c3.707-3.747,48.207-11.2,55.932-12.29C441.701,574.985,449.07,574.358,456.43,573.706z"/>
	<path style="fill:#292629;" d="M366.181,612.57c1.366-0.066,2.766-0.148,4.12,0.084c3.361,0.575,6.572,2.362,8.39,5.307
		c1.563,2.532,1.942,5.617,1.212,8.486c-1.132,4.446-4.002,7.083-7.764,9.424c-2.211,0.694-4.349,1.182-6.641,0.532
		c-2.496-0.707-4.436-2.516-5.578-4.812c-1.752-3.524-1.87-8.015-0.619-11.712C360.604,616.032,362.597,614.281,366.181,612.57z"/>
	<path style="fill:#FEFEFE;" d="M366.858,617.42c0.582-0.011,1.164-0.019,1.745,0.013c0.229,0.013,0.457,0.037,0.683,0.074
		c0.227,0.037,0.451,0.086,0.672,0.147c0.221,0.061,0.439,0.133,0.652,0.218c0.213,0.084,0.422,0.179,0.625,0.286
		c0.203,0.106,0.4,0.223,0.591,0.351c0.191,0.127,0.375,0.265,0.551,0.412c0.176,0.147,0.344,0.303,0.503,0.468
		c0.159,0.165,0.309,0.339,0.45,0.52c1.166,1.498,1.448,3.329,1.193,5.169c-0.473,3.42-2.321,5.224-4.957,7.218
		c-0.141,0.025-0.281,0.058-0.424,0.073c-1.499,0.157-3.33-0.146-4.469-1.231c-1.582-1.506-2.03-3.412-1.893-5.541
		C363.006,622.073,364.302,619.772,366.858,617.42z"/>
	<path style="fill:#292629;" d="M359.871,580.576c1.095,0.139,2.213,0.282,3.26,0.645c3.488,1.212,6.468,3.942,7.877,7.356
		c0.147,0.363,0.275,0.732,0.385,1.107c0.11,0.375,0.201,0.755,0.273,1.14c0.073,0.384,0.126,0.771,0.159,1.161
		c0.034,0.389,0.049,0.78,0.044,1.171c-0.005,0.391-0.03,0.781-0.073,1.17c-0.044,0.389-0.107,0.774-0.188,1.157
		c-0.082,0.382-0.183,0.759-0.302,1.132c-0.119,0.373-0.257,0.738-0.413,1.097c-1.65,3.897-4.531,6.144-8.377,7.641
		c-2.525,0.017-4.771-0.293-6.984-1.598c-2.561-1.511-4.297-4.088-4.994-6.954c-0.918-3.771-0.319-8.027,1.731-11.332
		C354.181,582.387,356.462,581.417,359.871,580.576z"/>
	<path style="fill:#FEFEFE;" d="M359.01,585.352c2.447,0.614,4.491,1.436,6.033,3.546c1.288,1.762,1.836,3.915,1.342,6.061
		c-0.639,2.776-2.367,4.363-4.684,5.832c-0.527,0.024-1.054,0.06-1.582,0.041c-0.207-0.008-0.414-0.027-0.619-0.057
		c-0.206-0.03-0.409-0.071-0.61-0.122c-0.201-0.051-0.399-0.113-0.594-0.186c-0.195-0.072-0.385-0.154-0.57-0.247
		c-0.186-0.093-0.366-0.195-0.541-0.307c-0.175-0.112-0.344-0.233-0.506-0.362c-0.162-0.129-0.317-0.267-0.465-0.414
		c-0.147-0.146-0.287-0.299-0.418-0.46c-1.498-1.806-1.766-4.241-1.386-6.486C354.938,589.065,356.433,587.091,359.01,585.352z"/>
	<path style="fill:#292629;" d="M517.562,589.172c1.145-0.123,1.019-0.092,1.964,0.312c0.615,1.095,0.827,0.993,0.559,2.294
		c-4.991,3.43-86.482,16.791-98.326,19.026c-9.471,1.788-18.816,3.745-28.147,6.167c-1.13-0.001-1.287-0.094-2.261-0.685
		c-0.551-1.111-0.675-0.819-0.247-2.113c1.35-1.08,2.707-1.544,4.364-1.985c15.299-4.073,31.599-6.373,47.184-9.285
		C467.583,598.243,492.547,593.331,517.562,589.172z"/>
	<path style="fill:#FEFEFE;" d="M383.504,186.729c31.15,0.551,63.423,8.198,89.696,25.487
		c43.038,28.323,54.344,81.477,66.346,127.909c5.991,23.178,12.122,46.373,16.939,69.832c1.62,7.888,5.217,19.78,0.371,26.813
		c-16.284,23.626-101.187,37.33-131.449,43.068c-41.75,8.514-83.891,15.554-126.451,18.279
		c-9.35-27.768-13.382-57.458-18.292-86.283c-5.477-32.154-11.802-65.207-13.047-97.839c-1.294-33.896,6.418-68.521,30.183-93.972
		C322.009,194.096,349.435,187.988,383.504,186.729z"/>
	<path style="fill:#292629;" d="M456.912,219.362c0.538-0.006,1.076-0.021,1.612,0.016c7.51,0.515,15.166,6.549,19.999,11.936
		c4.257,4.745,15.983,21.711,15.692,27.61c-1.723-0.163-3.078-0.342-4.458-1.528c-4.459-3.833-9.92-18.812-16.401-25.508
		c-2.149-2.221-4.606-4.337-7.33-5.811c-2.478-1.342-6.857-2.656-8.81-4.505C456.679,221.063,456.919,220.062,456.912,219.362z"/>
	<path style="fill:#292629;" d="M513.917,343.966c1.057,0.005,1.996,0.135,3.034,0.331c0.555,0.471,0.921,0.903,1.221,1.573
		c3.803,8.482,10.621,43.687,7.73,51.737c-0.517-0.162-0.845-0.246-1.35-0.492c-1.506-0.733-2.158-2.515-2.689-3.993
		c-2.911-8.118-9.013-37.365-8.906-45.665C512.973,346.191,513.401,345.103,513.917,343.966z"/>
	<path style="fill:#292629;" d="M482.361,339.709c0.545,0.288,1.072,0.717,1.578,1.073c4.148,7.951,7.806,43.685,8.569,54.427
		c0.259,3.648,0.988,7.141-1.527,10.039c-0.675-0.276-1.433-0.56-1.997-1.035c-3.567-2.997-4.795-19.996-5.348-24.837
		c-0.962-8.415-4.321-28.513-3.047-36.086C480.844,341.771,481.415,340.898,482.361,339.709z"/>
	<path style="fill:#292629;" d="M497.919,336.186c0.93,0.09,1.719,0.304,2.609,0.585c0.577,0.735,0.922,1.316,1.204,2.22
		c1.767,5.656,2.641,11.829,3.84,17.64c2.606,12.626,6.65,27.121,6.341,40.087c-0.041,1.733-0.568,3.05-1.356,4.571l-1.808,0.111
		c-0.736-0.356-1.029-0.368-1.487-1.087c-2.408-3.775-3.133-11.264-4.044-15.679C500.633,372.1,494.69,348.5,497.919,336.186z"/>
	<path style="fill:#292629;" d="M427.233,324.691c9.642-0.714,20.129,1.611,27.976,7.437c8.05,5.976,12.694,14.478,14.127,24.312
		c1.927,13.226-0.734,28.302-8.969,39.066c-8.025,10.49-18.976,15.742-31.849,17.476c-10.518,0.197-19.725-1.11-28.198-7.84
		c-9.641-7.659-14.535-20.174-15.835-32.148c-1.219-11.222,1.439-22.938,8.599-31.824
		C401.545,330.669,414.189,326.069,427.233,324.691z"/>
	<path style="fill:#FEFEFE;" d="M400.538,341.545c1.974-0.079,4.076-0.107,5.994,0.429c2.881,0.805,5.484,2.819,6.906,5.459
		c1.243,2.309,1.57,4.999,0.804,7.519c-1.114,3.664-3.804,5.649-7.034,7.378c-1.968,0.428-3.852,0.777-5.848,0.294
		c-0.324-0.081-0.643-0.178-0.958-0.291c-0.314-0.113-0.622-0.241-0.924-0.385c-0.301-0.144-0.595-0.302-0.881-0.475
		c-0.285-0.173-0.562-0.36-0.829-0.561c-0.267-0.201-0.523-0.415-0.769-0.641c-0.245-0.227-0.479-0.465-0.701-0.715
		c-0.221-0.249-0.43-0.51-0.626-0.781c-0.195-0.271-0.377-0.55-0.545-0.839c-0.207-0.356-0.394-0.722-0.562-1.099
		c-0.168-0.376-0.316-0.76-0.443-1.151c-0.128-0.391-0.235-0.789-0.32-1.192c-0.086-0.403-0.15-0.809-0.193-1.218
		c-0.043-0.41-0.065-0.821-0.064-1.232c0-0.412,0.022-0.823,0.065-1.233c0.044-0.409,0.109-0.815,0.195-1.218
		c0.087-0.403,0.194-0.8,0.322-1.191C395.251,344.941,397.438,343.214,400.538,341.545z"/>
	<path style="fill:#FEFEFE;" d="M597.435,659.241l0.377,0.2c-0.112,0.292-0.166,0.613-0.335,0.875
		c-1.373,2.13-7.749,6.705-10.08,7.674c-1.77,0.736-3.869,0.57-5.664,1.223c-1.332,0.484-2.27,1.255-2.779,2.626
		c-0.28,0.751-0.027,0.849,0.297,1.503c1.62,1.12,3.298,1.366,5.22,1.566c4.915,0.511,10.167-0.105,15.104-0.281
		c11.124-0.404,22.241-0.956,33.35-1.655c4.135,28.306,3.302,57.183,7.664,85.512c-0.517,0.205-1.03,0.421-1.537,0.648
		c-0.507,0.228-1.009,0.467-1.506,0.716c-0.497,0.25-0.988,0.511-1.473,0.782c-0.485,0.272-0.963,0.554-1.436,0.847
		c-0.473,0.293-0.939,0.597-1.398,0.91c-0.459,0.314-0.911,0.638-1.356,0.971c-0.445,0.334-0.882,0.678-1.311,1.031
		c-0.429,0.353-0.851,0.716-1.264,1.088c-0.413,0.372-0.818,0.753-1.215,1.142c-0.396,0.39-0.783,0.789-1.162,1.196
		c-0.379,0.407-0.748,0.823-1.109,1.246c-0.36,0.424-0.71,0.855-1.051,1.294c-0.341,0.439-0.673,0.886-0.994,1.34
		c-0.321,0.454-0.631,0.915-0.932,1.383c-0.301,0.467-0.591,0.941-0.871,1.422c-0.279,0.481-0.548,0.967-0.806,1.46
		c-3.583,6.991-3.652,14.342-1.273,21.69c3.941,12.17,11.392,19.495,22.527,25.231c0.918,22.218,1.439,46.28,4.296,68.249
		c-28.254,8.079-58.251,10.966-87.394,14.139c-36.505,4.267-73.114,7.274-109.826,9.021c-24.842,1.157-49.636,1.312-74.496,1.603
		c-17.624,0.129-35.327-0.318-52.951-0.622c-7.593-39.793-13.526-79.861-20.764-119.714l-12.63-68.689
		c-2.402-13.318-5.014-26.65-6.746-40.073c9.285-1.75,18.951-2.48,28.343-3.562c17.681-2.073,35.375-4.02,53.084-5.841
		c35.394-3.985,70.852-7.28,106.373-9.886L597.435,659.241z"/>
	<path style="fill:#292629;" d="M469.264,733.958c0.517-1.095,1.166-1.828,0.889-3.031c-0.174-0.752-0.235-1.294-0.218-2.051
		c0.791-1.17,1.113-1.665,2.477-2.216c1.585,0.246,2.503,0.629,3.453,1.986c1.129,1.613,1.972,4.193,1.562,6.173
		c-0.243,1.174-0.739,2.206-1.787,2.873c-0.349,0.222-0.635,0.259-1.014,0.343c-1.087-1.201-1.044-2.649-2.342-3.617l-1.474,1.261
		c-0.929,3.849-22.05,32.233-25.985,39.028c-3.187-1.192-5.834-2.299-8.339-4.702l0.234-0.445c1.94-0.581,4.876,0.655,6.732,1.311
		C452.897,759.39,461.273,746.497,469.264,733.958z"/>
	<path style="fill:#292629;" d="M450.695,693.681c6.073-0.704,13.929,0.587,19.338,3.489c1.407,0.754,2.821,1.741,3.202,3.382
		c0.404,1.743-3.978,6.289-5.149,7.779c-8.932,11.355-16.285,25.247-22.895,38.119c-3.203,6.238-6.137,12.938-9.976,18.796
		c-3.39-2.78-5.826-6.47-8.629-9.805c-4.012-4.775-7.09-6.058-13.063-6.549l-0.602-0.723c0.532-1.335,1.151-1.892,2.373-2.661
		c2.033-1.281,5.419-2.811,7.849-2.359l0.564,1.169c-0.495,0.9-0.337,0.675-0.811,1.357c-0.09,0.13-0.184,0.258-0.276,0.387
		c0.238,0.547,10.512,11.306,11.893,13.029c8.983-20.486,21.623-40.097,34.349-58.451c-2.621-1.542-5.364-2.741-8.342-3.406
		c-11.852-2.644-26.471,2.645-36.364,8.993c-10.161,6.52-15.981,17.007-18.39,28.628c-2.52,12.158-1.311,25.321,5.693,35.848
		c5.448,8.188,13.371,12.746,22.852,14.723c6.164,0.649,11.638,0.095,17.546-1.83c13.886-4.525,27.369-15.09,33.99-28.241
		c7.043-13.987,6.039-28.063-6.627-38.37c-2.877-2.342-8.176-5.159-9.404-8.801c2.59-0.238,5.065,1.416,7.169,2.81
		c7.882,5.22,14.583,12.752,16.377,22.274c1.955,10.373-2.489,21.109-8.418,29.438c-8.964,12.595-24.295,22.464-39.602,24.925
		c-10.116,1.627-20.266-0.259-28.566-6.433c-8.808-6.553-13.67-15.636-15.197-26.425c-1.952-13.797,0.877-29.809,9.514-40.992
		C420.246,701.929,436.186,695.448,450.695,693.681z"/>
</g>
</svg>
