<svg width="240" height="240" viewBox="0 0 240 240" fill="none" xmlns="http://www.w3.org/2000/svg">
<g clip-path="url(#clip0_885_4883)">
<path d="M0 0H240.235V240.235H0V0Z" fill="#151515"/>
<path d="M43.7839 171.325C43.8939 171.331 44.1198 171.339 44.2212 171.369C44.502 171.452 44.5184 171.61 44.6003 171.854C44.5485 172.279 44.2838 172.615 44.0518 172.964C43.2159 174.221 43.0775 175.691 42.6446 177.111C42.3981 177.097 42.3453 177.065 42.1391 176.946C41.9941 176.751 41.9251 176.634 41.8904 176.387C41.6978 175.022 42.9189 172.359 43.7839 171.325Z" fill="white" fill-opacity="0.8"/>
<path d="M40.9581 171.766C41.0222 171.778 41.0879 171.783 41.1503 171.801C41.4576 171.894 41.498 171.977 41.6488 172.238C41.6697 173.349 40.8 174.389 40.6684 175.478C40.3923 177.763 41.0515 179.647 41.0116 181.724C41.0072 181.954 40.9145 182.119 40.8056 182.316L40.4277 182.245C40.0962 181.979 39.9782 181.657 39.8616 181.258C39.6664 180.592 39.6289 179.867 39.574 179.178C39.3605 176.5 39.6662 174.152 40.9581 171.766Z" fill="white" fill-opacity="0.8"/>
<path d="M122.021 35.6694C123.081 35.6812 123.962 35.9477 124.836 36.5492C126.164 37.463 127.267 39.2272 127.493 40.8385C127.611 41.6814 127.519 42.3911 126.996 43.0679C126.773 43.0576 126.551 43.0386 126.328 43.0231C125.432 42.4124 125.452 40.1208 125.04 39.0909C124.465 37.6563 123.194 37.6077 121.989 36.9802C121.691 36.8251 121.628 36.6881 121.529 36.381C121.652 35.9955 121.735 35.9362 122.021 35.6694Z" fill="white" fill-opacity="0.8"/>
<path d="M59.3602 41.8875C59.8144 41.921 60.285 41.956 60.7303 42.0526C61.2589 42.1676 61.8557 42.4798 62.1309 42.965C62.3284 43.3134 62.3362 43.711 62.2069 44.0845C61.8534 45.1076 60.7692 45.7188 59.8592 46.1821C59.1653 46.3682 58.4762 46.4402 57.8109 46.1056C57.3818 45.8898 57.0721 45.5194 56.9281 45.0621C56.9077 44.9955 56.8908 44.9279 56.8769 44.8596C56.8631 44.7914 56.8525 44.7224 56.8455 44.653C56.8382 44.5838 56.8345 44.5141 56.834 44.4444C56.8338 44.3747 56.8366 44.305 56.8429 44.2358C56.8492 44.1664 56.8591 44.0974 56.872 44.0289C56.8849 43.9604 56.9013 43.8926 56.921 43.8257C56.9405 43.7589 56.9633 43.693 56.9893 43.6282C57.0153 43.5637 57.0442 43.5004 57.0763 43.4384C57.5814 42.4639 58.3824 42.1953 59.3602 41.8875Z" fill="white" fill-opacity="0.8"/>
<path d="M53.0598 36.7286C53.6745 36.6878 54.1099 36.7265 54.672 36.9996C55.1166 37.2154 55.4476 37.5042 55.5914 37.9903C55.7526 38.536 55.6196 39.1598 55.3493 39.6483C54.665 40.8851 53.3287 41.3165 52.0599 41.6745C51.5877 41.767 51.1644 41.8047 50.6971 41.6727C50.2868 41.5565 49.8973 41.4092 49.712 40.9867C49.5206 40.5501 49.5952 40.0046 49.7479 39.569C50.2464 38.1484 51.7683 37.3142 53.0598 36.7286Z" fill="white" fill-opacity="0.8"/>
<path d="M122.3 30.8724C122.91 30.8327 123.512 30.8365 124.118 30.9324C126.006 31.2308 127.664 32.138 128.792 33.7115C129.711 34.9943 130.735 37.3392 130.406 38.9207C130.305 39.4058 130.047 39.6503 129.654 39.9243C128.417 39.5532 128.384 38.1343 128.084 37.0413C127.547 35.0865 125.98 32.9915 123.874 32.58C123.14 32.4367 122.367 32.6382 121.715 32.1948C121.578 31.9368 121.545 31.8457 121.637 31.5429C121.742 31.1949 122.01 31.0443 122.3 30.8724Z" fill="white" fill-opacity="0.8"/>
<path d="M175.288 162.634C175.49 162.73 175.67 162.817 175.831 162.978C176.494 163.642 176.911 164.634 177.313 165.473C177.575 166.029 177.821 166.593 178.049 167.164C178.278 167.735 178.49 168.312 178.685 168.896C178.88 169.479 179.057 170.068 179.216 170.662C179.376 171.256 179.518 171.854 179.642 172.457C179.767 173.059 179.873 173.665 179.961 174.274C180.05 174.882 180.12 175.493 180.172 176.106C180.224 176.719 180.258 177.333 180.274 177.948C180.289 178.563 180.287 179.178 180.266 179.793C180.134 183.122 179.475 187.31 176.918 189.686C176.704 189.768 176.601 189.782 176.375 189.743C176.106 189.158 177.298 187.332 177.609 186.714C178.86 184.231 179.192 180.284 179.048 177.557C178.961 176.107 178.795 174.666 178.55 173.235C178.305 171.803 177.984 170.388 177.586 168.991C177.269 167.908 176.885 166.85 176.435 165.816C176.132 165.119 175.257 163.755 175.162 163.112C175.149 163.022 175.26 162.737 175.288 162.634Z" fill="white" fill-opacity="0.8"/>
<path d="M124.231 24.6357C124.882 24.7228 125.445 24.8849 126.038 25.1671C129.459 26.7943 132.767 30.0603 134.044 33.6642C134.436 34.7688 135.126 36.8424 134.491 37.9275C134.297 38.2587 134.022 38.353 133.682 38.4708C133.397 38.3279 133.188 38.2184 133.022 37.9315C132.745 37.4543 132.642 36.6346 132.501 36.0842C132.002 34.1428 131.104 32.3338 129.745 30.8462C128.139 29.0892 126.063 28.0619 124.021 26.9356C123.779 26.8021 123.443 26.6306 123.314 26.3713C123.18 26.1046 123.129 25.8198 123.235 25.5336C123.417 25.0409 123.793 24.8577 124.231 24.6357Z" fill="white" fill-opacity="0.8"/>
<path d="M40.1426 107.024C40.6749 106.984 41.4677 106.897 41.9373 107.198C41.985 107.229 42.1849 107.401 42.2236 107.469C42.5642 108.065 43.321 114.704 43.4911 115.855C44.3479 121.643 46.213 133.554 50.5154 137.739C51.8484 139.035 54.1612 139.248 55.2 140.222C55.4334 140.441 55.5913 140.758 55.5948 141.083C55.5981 141.396 55.4313 141.689 55.2166 141.906C53.5465 143.596 49.9312 143.951 47.6927 143.95C48.0263 147.078 49.223 148.788 50.758 151.388C50.7237 151.464 50.69 151.54 50.6522 151.615C50.4532 152.009 50.1384 152.711 49.6568 152.814C48.4887 153.062 43.0731 149.34 41.7785 148.549C39.7757 149.395 37.7436 150.135 35.6884 150.844C33.749 151.491 31.8773 152.238 29.9986 153.043C29.5425 153.239 28.2067 153.872 27.7717 153.639C27.0993 153.279 26.4793 152.085 26.0847 151.443C23.1761 146.716 21.3046 141.603 19.885 136.256C19.0874 133.194 18.4016 130.108 17.8273 126.996C17.2532 123.885 16.7922 120.756 16.4446 117.612C16.3531 116.76 15.9451 115.271 16.3653 114.546C16.7404 114.375 16.8835 114.479 17.2751 114.578C22.361 111.228 34.1114 107.697 40.1426 107.024Z" fill="white" fill-opacity="0.8"/>
<path d="M38.5604 109.256C39.3782 109.165 40.1937 109.188 41.0148 109.198C41.4779 112.238 41.6724 115.325 42.0182 118.381C42.3389 121.251 42.8246 124.093 43.4753 126.907C44.3955 130.895 46.0792 136.263 48.8147 139.309C49.588 140.17 50.4593 140.796 51.4362 141.406C50.7591 141.502 50.0612 141.619 49.3761 141.598C48.5022 141.572 47.5525 141.352 46.6887 141.458C46.3211 141.502 45.9668 141.627 45.7571 141.955C45.1352 142.926 46.2 146.989 46.5409 148.274C45.7067 147.767 42.9698 145.781 42.2136 145.659C41.7409 145.583 41.1424 146.075 40.7802 146.344C39.2445 147.484 34.5039 148.746 32.4093 149.559C31.0897 150.081 29.7763 150.617 28.4689 151.169C23.5535 144.311 21.5694 135.684 19.6907 127.613C18.7734 123.756 17.9028 119.889 17.0791 116.011C22.5773 112.718 32.121 109.955 38.5604 109.256Z" fill="#151515"/>
<path d="M37.6127 141.815C37.9397 141.771 38.1525 141.791 38.4226 141.985C38.4601 142.227 38.4859 142.332 38.378 142.565C38.2182 142.909 37.7854 143.235 37.4647 143.422C36.9751 143.707 36.3282 143.856 35.7955 144.074C33.9064 144.846 32.0308 145.627 30.0946 146.275C29.9789 146.255 29.7776 146.228 29.6756 146.176C29.3955 146.035 29.3561 145.854 29.2803 145.584C29.4034 145.321 29.4947 145.216 29.76 145.086C30.6757 144.636 31.7162 144.342 32.6661 143.957C34.3292 143.282 35.9686 142.535 37.6127 141.815Z" fill="white" fill-opacity="0.8"/>
<path d="M34.0774 116.839C34.1569 116.877 34.2761 116.927 34.341 116.984C34.5524 117.168 34.5433 117.279 34.5454 117.533C33.8735 118.762 25.5901 121.122 23.7278 121.719L23.4151 121.506C23.2621 121.205 23.2377 121.206 23.3156 120.882C24.3284 120.053 28.8567 118.795 30.346 118.259C31.599 117.809 32.8257 117.292 34.0774 116.839Z" fill="white" fill-opacity="0.8"/>
<path d="M36.114 121.904C36.4879 121.89 36.5508 121.892 36.8774 122.069C37.0341 122.36 37.0526 122.367 36.9972 122.69C36.7845 122.962 36.5829 123.048 36.2592 123.16C35.0404 123.584 33.7067 123.836 32.4593 124.186C30.1522 124.843 27.8648 125.563 25.5969 126.344L25.103 126.479C25.0428 126.432 24.9745 126.394 24.9219 126.338C24.7012 126.104 24.6927 125.98 24.7157 125.687C25.4186 124.751 34.525 122.308 36.114 121.904Z" fill="white" fill-opacity="0.8"/>
<path d="M39.22 136.056C39.4427 136.081 39.6254 136.179 39.7601 136.367C39.9361 136.614 39.8966 136.741 39.8359 137.007C39.3514 137.487 29.4122 141.318 28.1153 141.696C28.0681 141.695 28.02 141.702 27.9738 141.693C27.6212 141.625 27.5588 141.572 27.3779 141.29C27.4058 141.174 27.4209 141.082 27.4833 140.975C27.6538 140.682 28.1395 140.46 28.4306 140.325C29.6308 139.77 30.9807 139.377 32.2155 138.881C34.554 137.943 36.8573 136.935 39.22 136.056Z" fill="white" fill-opacity="0.8"/>
<path d="M37.7758 127.014C38.0512 127.059 38.3574 127.179 38.5716 127.359C38.7203 127.484 38.667 127.446 38.6729 127.679C37.7955 129.223 28.5432 132.002 26.3369 132.66C26.0819 132.66 25.8889 132.689 25.6892 132.489C25.479 132.28 25.4989 132.156 25.5402 131.896C26.173 131.196 30.5601 130.166 31.7741 129.694C33.8182 128.898 35.7934 127.949 37.7758 127.014Z" fill="white" fill-opacity="0.8"/>
<path d="M37.8948 132.058C38.2436 132.142 38.3572 132.248 38.6047 132.49C38.714 132.822 38.7222 132.829 38.6045 133.157C37.7057 134.083 28.5988 137.335 26.889 137.996C26.8754 138.003 26.8625 138.012 26.848 138.015C26.5275 138.086 26.5205 138.077 26.2622 137.895C26.1137 137.585 26.0815 137.567 26.1519 137.236C26.4027 136.933 26.6697 136.773 27.0289 136.615C28.0287 136.173 29.1018 135.89 30.1155 135.473C32.7379 134.396 35.3141 133.231 37.8948 132.058Z" fill="white" fill-opacity="0.8"/>
<path d="M195.534 23.6023C196.398 23.4783 197.391 23.564 198.343 23.6199C202.911 23.889 207.479 25.1116 211.356 27.531C217.608 31.4319 221.412 37.4809 223.03 44.6257C224.982 53.2447 223.138 62.6184 218.409 70.0691C214.71 75.8987 207.843 80.7467 201.085 82.2253H201.084C193.505 83.8836 184.85 82.4999 178.307 78.3298L178.299 78.325L177.768 77.9949C177.239 77.6605 176.715 77.3149 176.185 76.9675C175.48 76.5061 174.765 76.0422 174.026 75.6082L173.753 75.447L173.51 75.6511C171.873 77.0219 170.144 78.2922 168.396 79.5623C166.651 80.8296 164.884 82.0986 163.192 83.4529C162.971 83.6304 162.666 83.8988 162.332 84.1931C161.994 84.4911 161.619 84.8226 161.243 85.1384C160.867 85.4551 160.498 85.7491 160.174 85.9744C159.833 86.2116 159.597 86.3318 159.475 86.3591C159.486 86.3565 159.48 86.3606 159.448 86.3572C159.419 86.354 159.381 86.3453 159.336 86.3318C159.289 86.3177 159.243 86.3003 159.203 86.282L159.104 86.2292C158.899 86.0977 158.754 85.8727 158.723 85.6394C158.722 85.6353 158.722 85.6178 158.726 85.5837C158.73 85.5418 158.74 85.4855 158.757 85.4138C158.791 85.2696 158.848 85.0838 158.93 84.8572C159.092 84.4046 159.339 83.8219 159.649 83.1453C160.27 81.7937 161.132 80.0971 162.043 78.3728C163.865 74.9242 165.869 71.3899 166.505 70.3298C167.713 68.3149 168.946 66.2807 170.396 64.4783L170.556 64.2791L170.467 64.0388C168.971 60.0257 167.639 55.9352 167.298 51.699C166.764 45.0702 168.561 38.7679 172.896 33.6843C178.4 27.2317 187.175 24.2418 195.504 23.6052L195.519 23.6042L195.534 23.6023Z" fill="white" fill-opacity="0.8" stroke="#151515" stroke-width="0.9"/>
<path d="M192.809 25.2684C195.881 24.8971 205.444 26.9695 208.383 28.3258C214.139 30.9825 218.283 36.4583 220.415 42.3082C223.271 50.1442 222.614 57.111 219.13 64.5714C216.179 70.8893 211.066 76.2601 204.42 78.6477C197.718 81.0552 188.636 80.8016 182.137 77.7301C181.075 77.2555 180.057 76.6463 179.092 75.9985C177.892 75.1929 175.443 73.0918 174.158 72.7772C173.87 72.7063 173.538 72.7875 173.284 72.9266C172.492 73.3616 171.801 74.4246 171.06 75.0033C169.382 76.3143 167.618 77.53 165.91 78.8044C164.678 79.7243 163.5 80.7119 162.26 81.6215C163.863 77.6332 167.698 71.8259 170.11 68.0464C170.647 67.2042 172.366 65.3616 172.576 64.5782C172.588 64.5374 172.575 64.3375 172.569 64.2817C172.413 62.7795 171.431 61.0585 170.915 59.6232C169.948 56.9322 169.247 54.2251 168.949 51.3756C168.332 45.473 169.828 39.2405 173.626 34.6019C178.214 28.9986 185.735 25.9737 192.809 25.2684Z" fill="#151515"/>
<path d="M192.486 31.5649C192.922 31.5313 193.353 31.5017 193.787 31.5796C194.499 31.708 195.168 32.1291 195.57 32.7339C195.961 33.3216 196.064 34.0599 195.901 34.7414C195.69 35.6205 195.062 36.31 194.31 36.7705C194.41 38.4343 194.672 40.1075 194.875 41.7626C198.237 41.1109 201.748 40.179 204.981 39.041C206.356 38.557 207.765 37.6205 209.187 37.3603C209.431 37.3155 209.736 37.2897 209.938 37.4492C210.52 37.9088 210.452 38.7397 210.49 39.4098C210.653 42.3032 210.861 45.1771 211.388 48.0324C212.08 51.788 213.192 55.4947 214.062 59.2144C214.47 60.9561 215.232 63.2216 215.471 64.8756C215.178 65.3673 201.085 69.57 199.719 69.9466C195.057 71.0865 189.637 72.2778 184.858 71.4192C184.073 70.1661 183.52 68.705 182.949 67.3431C180.454 61.3837 178.04 54.0669 176.69 47.7361C176.53 46.9887 176.296 45.985 176.735 45.3068C178.224 44.5898 180.837 44.3498 182.543 44.0242L193.553 41.9383C193.37 40.3796 193.163 38.8242 192.931 37.2723C192.123 37.228 191.301 37.2176 190.551 36.8779C189.959 36.61 189.453 36.1671 189.238 35.5405C189.025 34.9192 189.131 34.2375 189.431 33.6646C190.063 32.4594 191.257 31.9451 192.486 31.5649Z" fill="white" fill-opacity="0.8"/>
<path d="M192.849 33.7891C193 33.7887 193.101 33.7837 193.256 33.8058C193.529 33.8445 193.674 33.9418 193.835 34.1535C193.688 34.4868 193.547 34.5119 193.239 34.6914C192.952 34.7318 192.673 34.7916 192.387 34.7151C192.196 34.6637 192.254 34.6668 192.151 34.465C192.3 34.1171 192.546 33.9876 192.849 33.7891Z" fill="#151515"/>
<path d="M208.914 39.5562C209.138 39.8729 209.033 40.69 209.047 41.0984C209.105 42.7775 209.274 44.4453 209.553 46.1018C210.114 49.398 211.051 52.6123 211.885 55.8454C212.569 58.4986 213.159 61.1803 213.808 63.8431C206.676 66.2245 198.906 68.9499 191.425 69.7736C189.689 69.9648 187.943 69.9909 186.198 70.0019L185.435 68.1851C183.665 63.5303 182.194 58.8223 180.766 54.0556C180.057 51.6866 179.239 49.2901 178.756 46.8662C181.706 46.3996 184.657 45.5958 187.593 45.014C194.405 43.6641 202.751 42.72 208.914 39.5562Z" fill="#151515"/>
<path d="M202.664 44.0037C202.774 43.9968 202.992 43.9668 203.106 44.0015C203.442 44.1041 203.515 44.2432 203.702 44.5151C203.714 44.8001 203.74 44.9425 203.535 45.1755C203.067 45.7069 191.478 48.4663 190.002 48.7736C187.648 49.2663 185.281 49.69 182.902 50.0445C182.815 50.0672 182.731 50.0935 182.64 50.0963C182.294 50.1078 182.213 50.0492 181.95 49.8509C181.828 49.542 181.814 49.4964 181.872 49.1715C182.408 48.5965 185.677 48.2223 186.65 48.0304C192.069 46.9615 197.347 45.4807 202.664 44.0037Z" fill="white" fill-opacity="0.8"/>
<path d="M206.859 51.051C206.868 51.05 206.876 51.0482 206.885 51.0482C207.201 51.0512 207.362 51.0074 207.561 51.2919C207.722 51.5218 207.698 51.6213 207.629 51.8651C207.291 52.2463 206.847 52.3957 206.371 52.5435C205.449 52.8298 204.497 52.9686 203.563 53.2011L198.067 54.533C193.706 55.5946 189.384 56.7929 185.044 57.934C184.773 57.9936 184.602 57.9521 184.334 57.8859C184.215 57.642 184.206 57.5439 184.335 57.2746C184.517 56.8959 185.266 56.4879 185.643 56.3455C188.047 55.4364 190.808 54.9281 193.306 54.3033C197.809 53.1772 202.317 52.0096 206.859 51.051Z" fill="white" fill-opacity="0.8"/>
<path d="M206.638 47.3969C206.713 47.3957 206.789 47.3835 206.863 47.3936C207.15 47.4323 207.23 47.5991 207.386 47.8112C207.391 47.9745 207.428 48.0667 207.328 48.2082C206.241 49.7441 186.159 53.0089 182.894 53.769C182.582 53.7866 182.581 53.7894 182.328 53.6066C182.187 53.3077 182.145 53.179 182.2 52.851C182.537 52.3651 182.971 52.2635 183.53 52.1282C184.832 51.8126 186.207 51.7263 187.524 51.4663C193.928 50.2021 200.321 49.0807 206.638 47.3969Z" fill="white" fill-opacity="0.8"/>
<path d="M208.071 54.7948C208.411 54.7751 208.58 54.7631 208.896 54.9184C209.089 55.2171 209.096 55.1971 209.034 55.5448C208.059 56.8091 205.649 57.3672 204.178 57.8627C198.056 59.9237 191.972 61.2985 185.603 62.3575C185.581 62.361 185.561 62.3683 185.539 62.3685C185.173 62.3727 185.125 62.3261 184.842 62.109C184.707 61.7909 184.695 61.8069 184.81 61.4836C185.129 61.1871 185.509 61.0557 185.924 60.9409C187.604 60.4776 189.411 60.259 191.123 59.9075C193.941 59.3325 196.725 58.6273 199.477 57.7919C200.945 57.3543 202.426 56.913 203.86 56.3734C205.257 55.8482 206.628 55.1791 208.071 54.7948Z" fill="white" fill-opacity="0.8"/>
<path d="M88.0713 42.8413C94.1296 42.1537 102.7 43.8925 108.223 46.5161C118.086 51.2013 122.044 59.0334 125.579 68.9038L125.818 69.5718L126.32 69.0708C127.182 68.2104 128.101 67.5867 129.254 67.3188C130.582 67.0103 131.942 67.2669 133.107 67.9927C135.034 69.1925 136.246 71.3258 136.755 73.564C137.329 76.0922 136.922 78.8132 135.527 80.9917C134.298 82.911 132.572 84.1868 130.356 84.6577L129.907 84.7534L130.012 85.2007C130.858 88.8133 131.757 92.3806 132.449 96.0044C132.784 97.7592 133.18 99.8165 133.228 101.82C133.276 103.827 132.973 105.714 131.972 107.161C131.08 108.45 129.575 109.567 127.668 110.536C125.767 111.501 123.505 112.299 121.144 112.966C116.419 114.302 111.363 115.099 108.11 115.69L107.615 115.78L107.76 116.262C108.856 119.921 109.839 123.571 110.72 127.287L110.807 127.657L111.187 127.632C117.927 127.199 124.469 126.461 131.188 126.554C131.773 127.481 132.247 128.484 132.771 129.504L132.865 129.689L133.067 129.737C138.624 131.046 143.597 134.577 148.44 137.67L148.986 138.02L149.122 137.386C149.585 135.232 149.72 133.048 149.787 130.886C149.853 128.78 149.856 126.712 150.029 124.662L150.068 124.632C150.332 124.596 150.508 124.663 150.944 124.757V124.756C151.333 124.842 151.725 124.913 152.119 124.968C152.514 125.024 152.91 125.065 153.308 125.091C153.705 125.117 154.103 125.128 154.502 125.124C154.701 125.121 154.901 125.116 155.1 125.106L155.696 125.065C159.249 124.751 164.09 123.384 168.734 121.585C173.379 119.787 177.88 117.538 180.742 115.435C181.456 114.911 182.217 114.291 182.854 113.612L183.118 113.318C183.485 112.891 183.85 112.233 184.18 111.713C184.541 111.145 184.874 110.718 185.217 110.528C185.32 110.471 185.351 110.471 185.356 110.471C185.374 110.471 185.401 110.475 185.475 110.496C185.504 110.527 185.521 110.549 185.534 110.569C185.552 110.596 185.572 110.636 185.598 110.725C185.65 110.91 185.672 111.206 185.657 111.6C185.643 111.984 185.598 112.424 185.538 112.878C185.423 113.753 185.244 114.748 185.188 115.323C184.223 125.184 182.601 135.592 177.62 144.218C176.101 146.849 174.468 148.882 172.493 150.451C170.52 152.018 168.185 153.139 165.241 153.92L164.483 154.122L165.039 154.674C167.373 156.997 169.47 159.31 170.886 162.248C171.093 162.677 170.929 163.026 170.684 163.722L170.62 163.901L170.704 164.072C170.887 164.441 171.167 164.753 171.424 165.019C171.698 165.303 171.935 165.524 172.13 165.767C172.513 166.245 172.851 166.774 173.205 167.317V167.318C175.913 171.468 177.367 176.478 176.319 181.355C175.525 185.051 173.851 188.661 170.652 190.694C168.447 192.095 165.254 193.008 161.932 193.421C158.614 193.834 155.221 193.74 152.639 193.168L152.066 193.042L152.092 193.626C152.186 195.844 152.402 198.079 152.548 200.269C152.661 201.976 152.713 203.801 152.842 205.535V205.536C152.853 206.088 153.006 207.109 153.101 208.004C153.15 208.468 153.185 208.912 153.188 209.284C153.192 209.676 153.156 209.917 153.109 210.024C153.075 210.101 152.998 210.2 152.856 210.311C152.717 210.421 152.537 210.526 152.33 210.625C151.915 210.823 151.451 210.97 151.107 211.082C146.845 212.471 141.347 212.993 136.784 213.573H136.782C132.226 214.167 127.66 214.665 123.082 215.064C118.505 215.463 113.921 215.765 109.331 215.968C104.741 216.172 100.148 216.277 95.5527 216.285C90.9579 216.292 86.3652 216.2 81.7744 216.011H81.7734C81.5126 216.001 80.9689 215.996 80.3096 215.986C79.6447 215.976 78.8503 215.961 78.0713 215.933C77.2905 215.905 76.5331 215.863 75.9404 215.801C75.6432 215.77 75.3973 215.735 75.2148 215.696C75.124 215.676 75.0572 215.657 75.0117 215.641C74.9974 215.611 74.9777 215.57 74.9561 215.515C74.8993 215.37 74.831 215.162 74.752 214.895C74.5943 214.362 74.4043 213.622 74.1934 212.737C73.7718 210.967 73.2712 208.638 72.7832 206.258C71.8058 201.492 70.8852 196.556 70.7451 195.531L70.6221 194.631L69.9805 195.274C68.2421 197.015 66.3041 197.98 63.8945 198.565C59.0085 199.751 53.9015 199.225 49.6055 196.591C46.6495 194.78 43.7899 191.747 42.9912 188.381C42.3793 185.803 43.1269 183.075 44.415 180.392C45.7052 177.705 47.4865 175.161 48.877 172.917L49.1055 172.548L48.7441 172.306C47.7253 171.625 46.9045 170.935 46.2529 169.966C46.3135 169.74 46.3772 169.514 46.4492 169.292L46.4502 169.292C46.9666 167.726 47.7297 166.187 48.5488 164.69L49.3799 163.207C53.6895 155.632 58.5804 150.351 65.0371 144.54C67.0269 142.749 69.075 140.854 71.2803 139.446C71.5816 139.253 71.9578 139.109 72.3838 138.972C72.7877 138.842 73.2691 138.71 73.6768 138.555C74.3615 138.294 75.0181 137.952 75.6367 137.642L75.832 137.544L75.876 137.332C76.2388 135.595 76.4963 133.886 76.9854 132.246C79.2338 131.484 81.8146 131.126 84.2139 130.649C87.9025 129.916 91.575 129.099 95.2715 128.626L95.7744 128.563L95.6514 128.071C94.9233 125.171 94.24 122.124 93.8828 119.181L93.8213 118.676L93.3271 118.799C92.0385 119.12 90.7257 119.372 89.4062 119.617C87.3316 120.002 83.6546 120.747 80.0625 121.087C78.267 121.258 76.5091 121.325 74.9951 121.2C73.4668 121.073 72.2521 120.753 71.4893 120.204C70.4965 119.488 69.7493 118.401 69.207 117.25C68.1939 115.101 67.4777 112.103 66.9033 108.992C66.6171 107.441 66.3683 105.873 66.1348 104.379C65.9017 102.889 65.6832 101.47 65.4609 100.228L65.3701 99.7173L64.8779 99.8794C63.3348 100.387 61.6356 100.777 60.0801 100.584L59.7715 100.539C58.2634 100.271 57.0184 99.4817 56.1416 98.2261C54.8298 96.3473 54.498 93.7642 54.9268 91.4917C55.3001 89.514 56.2695 87.7167 57.9131 86.603C59.3558 85.6255 60.9025 85.5045 62.6299 85.8325L63.2314 85.9468L63.1611 85.3384C62.776 82.032 62.3172 78.7425 62.084 75.4497C61.4671 66.7433 63.293 58.0727 69.1328 51.396C74.0211 45.807 80.735 43.3499 88.0508 42.8433L88.0605 42.8423L88.0713 42.8413Z" fill="white" fill-opacity="0.8" stroke="#151515" stroke-width="0.9"/>
<path d="M95.3361 118.531C95.4295 118.551 95.5644 118.575 95.647 118.62C95.9266 118.774 95.9337 118.893 95.9844 119.176C95.8619 119.575 95.6651 119.779 95.3786 120.077C95.338 120.059 95.2967 120.042 95.2569 120.023C94.93 119.863 94.7942 119.748 94.6807 119.414C94.7703 119.021 95.0588 118.802 95.3361 118.531Z" fill="#151515"/>
<path d="M103.825 123.294L104.268 123.446C104.387 123.575 104.455 123.683 104.502 123.854C104.713 124.618 104.669 125.583 104.276 126.276C104.192 126.267 104.049 126.256 103.972 126.227C103.77 126.151 103.682 126.019 103.605 125.828C103.309 125.101 103.552 123.995 103.825 123.294Z" fill="#151515"/>
<path d="M98.6016 119.006C98.7278 119.09 98.8587 119.218 98.9751 119.317C99.1374 120.016 97.4011 122.354 96.9866 123.116C96.7766 123.06 96.7039 123 96.5359 122.87C96.451 122.674 96.4113 122.549 96.4273 122.33C96.5047 121.265 97.7932 119.662 98.6016 119.006Z" fill="#151515"/>
<path d="M163.072 157.868C163.095 157.879 163.121 157.885 163.141 157.901C163.35 158.076 163.352 158.128 163.35 158.38C162.809 159.156 160.177 160.844 159.251 161.554C159.052 161.486 159.028 161.422 158.891 161.269C158.89 161.17 158.881 161.116 158.927 161.015C159.469 159.807 161.908 158.43 163.072 157.868Z" fill="#151515"/>
<path d="M151.427 162.112C152.933 162.934 154.569 163.759 155.806 164.966C156.273 165.422 156.4 165.633 156.41 166.298C155.68 166.11 152.408 163.849 151.584 163.275C151.393 162.955 151.437 162.481 151.427 162.112Z" fill="#151515"/>
<path d="M135.706 134.28C136.836 134.611 137.883 135.401 138.975 135.864C139.949 136.276 141.032 136.421 142.024 136.805C142.199 137.069 142.144 137.128 142.102 137.447C140.286 137.262 138.214 136.715 136.665 135.728C136.007 135.308 135.866 135.042 135.706 134.28Z" fill="#151515"/>
<path d="M100.277 122.257L100.605 122.39C100.693 122.525 100.759 122.64 100.771 122.806C100.853 123.91 99.4413 127.12 98.7469 128.028C98.6725 128.032 98.5193 127.978 98.4447 127.958L98.2861 127.689C98.1908 126.261 99.5225 123.455 100.277 122.257Z" fill="#151515"/>
<path d="M140.603 145.965C141.862 146.43 143.547 147.766 144.775 148.494C144.478 149.122 144.096 149.682 143.712 150.258L142.911 151.445C142.098 149.653 141.272 147.816 140.603 145.965Z" fill="#151515"/>
<path d="M73.2518 155.537C73.5376 155.861 73.3609 157.091 73.3895 157.584C73.5523 157.838 73.6844 158.051 73.7846 158.338C72.5201 158.711 69.42 158.872 67.8273 159.153C67.5498 159.189 67.4529 159.24 67.1885 159.13L67.3928 158.962L67.2938 159.11L67.4881 159.031L67.3726 158.976L67.527 159.015L67.5355 158.871C69.4261 157.734 71.3316 156.622 73.2518 155.537Z" fill="#151515"/>
<path d="M73.0631 141.71C73.0221 141.864 73.0226 141.888 72.9383 142.051C72.6728 142.565 72.1958 143.089 71.8477 143.566C70.7685 145.041 69.6729 146.504 68.5611 147.954C66.4084 150.79 64.3621 153.722 62.1416 156.504C60.4809 158.586 58.6263 160.525 56.871 162.528C55.8113 163.737 54.8238 165.165 53.6447 166.253C52.8454 166.99 51.6914 167.691 50.6279 167.928L50.6104 167.581C51.2717 166.439 53.0036 166.358 53.8416 165.227C58.2031 159.26 62.7537 153.441 67.4929 147.769C69.1966 145.737 70.9646 143.336 73.0631 141.71Z" fill="#151515"/>
<path d="M65.9775 172.516C66.7937 176.224 67.3973 179.979 68.1708 183.698C66.6999 182.782 65.3377 182.253 63.6554 181.839C62.3109 181.564 60.9359 181.482 59.5684 181.411C61.1475 178.092 63.7422 175.394 65.9775 172.516Z" fill="#151515"/>
<path d="M151.457 166.068C153.233 167.05 155.706 168.59 157.178 169.978C157.218 170.155 157.261 170.331 157.308 170.507C157.424 170.924 157.547 171.089 157.94 171.306C158.412 171.372 158.768 171.256 159.221 171.125C160.457 171.974 161.771 173.179 162.039 174.727C162.167 175.465 162.055 176.132 161.631 176.749C158.671 178.039 155.049 177.498 151.896 177.645C151.907 173.789 151.638 169.919 151.457 166.068Z" fill="#151515"/>
<path d="M60.6418 86.6994C61.4273 86.6759 62.1745 86.7231 62.9555 86.8061C63.5519 90.6827 64.3202 94.5919 64.7087 98.4929C63.2107 98.5495 61.7646 98.6281 60.2644 98.5185C59.6539 98.4512 59.0285 98.355 58.4727 98.0793C57.3865 97.5407 56.7723 96.5699 56.4246 95.4398C55.8543 93.5869 55.9802 91.131 56.9377 89.4292C57.7658 87.9573 59.0545 87.1416 60.6418 86.6994Z" fill="#151515"/>
<path d="M129.197 68.8843C129.683 68.8376 130.156 68.8205 130.637 68.9209C132.003 69.2052 133.075 70.0191 133.818 71.1867C135.123 73.2367 135.522 75.8933 135 78.2525C134.582 80.1373 133.685 81.4175 132.063 82.4608C131.422 82.7886 130.764 83.0276 130.088 83.2702C128.649 79.1585 127.687 74.6832 126.56 70.4601C127.413 69.8192 128.186 69.254 129.197 68.8843Z" fill="#151515"/>
<path d="M167.441 164.241C167.685 164.268 167.643 164.244 167.852 164.332C169.758 165.136 172.393 169.758 173.121 171.64C174.624 175.529 174.853 180.201 173.119 184.062C171.925 186.722 169.771 188.964 167.027 190.008C162.585 191.698 154.885 192.558 150.444 190.55C150.365 190.508 150.287 190.464 150.209 190.419C148.913 189.653 147.721 188.184 147.386 186.712C147.055 185.26 147.274 183.461 148.074 182.191C150.124 178.935 157.365 180.577 160.833 179.816C162.068 179.546 163.344 178.995 164.014 177.863C164.684 176.73 164.646 175.15 164.284 173.913C163.581 171.508 161.633 170.169 159.55 169.04C161.501 166.235 164.169 164.943 167.441 164.241Z" fill="#151515"/>
<path d="M54.9245 166.843C58.4959 167.229 62.3301 168.765 65.1319 171.012C64.5051 171.934 63.6075 172.729 62.8467 173.544C60.0401 176.553 57.5617 179.575 56.9576 183.765C59.5242 184.023 62.1773 183.879 64.6695 184.639C66.2515 185.121 67.4381 186.279 68.193 187.73C68.7634 188.827 69.5899 191.372 69.1742 192.552C68.7019 193.892 66.8356 195.033 65.6269 195.66C64.971 195.987 64.2435 196.198 63.5329 196.369C59.0763 197.436 54.0535 196.919 50.1266 194.46C47.6105 192.885 44.9621 190.415 44.2885 187.41C43.2415 182.736 48.4886 175.196 51.2471 171.558C52.4089 170.026 53.8411 168.579 54.8567 166.954C54.8797 166.917 54.9018 166.88 54.9245 166.843Z" fill="#151515"/>
<path d="M183.889 114.589C183.89 114.613 183.894 114.637 183.893 114.661C183.58 123.14 180.197 139.737 174.222 146.106C168.67 152.025 155.534 154.137 147.735 155.144C145.634 155.415 143.441 155.771 141.326 155.837C145.723 150.388 149.319 144.162 150.394 137.149C150.956 133.482 150.998 129.76 151.135 126.06C152.089 126.2 153.036 126.313 154.002 126.328C162.36 126.464 177.886 120.372 183.889 114.589Z" fill="#151515"/>
<path d="M173.369 138.688C173.687 138.826 173.952 138.966 174.086 139.308C174.211 139.626 174.146 139.874 173.989 140.16C172.882 142.179 170.081 143.345 168 143.934C167.831 143.958 167.749 143.938 167.586 143.901L167.412 143.574C167.907 142.931 169.475 142.664 170.251 142.286C171.894 141.488 172.803 140.414 173.369 138.688Z" fill="white" fill-opacity="0.8"/>
<path d="M154.157 127.089C154.429 127.161 154.596 127.177 154.778 127.408C154.864 129.391 153.956 136.774 153.257 138.429C153.012 138.282 152.879 138.169 152.711 137.937C152.552 136.891 153.462 132.471 153.632 131.061C153.77 129.907 153.76 128.681 153.969 127.546C154.001 127.373 154.076 127.242 154.157 127.089Z" fill="white" fill-opacity="0.8"/>
<path d="M171.447 143.65C171.634 143.7 171.735 143.774 171.894 143.881C171.94 144.05 172.005 144.117 171.912 144.282C171.606 144.827 170.846 145.302 170.33 145.647C166.664 148.1 162.16 149.305 157.891 150.235C157.631 150.159 157.583 150.149 157.401 149.953C157.466 149.471 158.089 149.38 158.501 149.256C163.685 147.702 167.084 147.188 171.447 143.65Z" fill="white" fill-opacity="0.8"/>
<path d="M130.788 128.043L130.89 128.071C131.393 128.815 131.912 130.576 132.309 131.508C133.885 135.224 135.391 138.969 136.828 142.741C138.105 146.004 139.42 149.253 140.438 152.607C123.699 153.829 106.893 154.7 90.2059 156.522C90.3002 156.338 90.3943 156.153 90.471 155.961C90.7542 155.251 90.7368 154.369 90.4192 153.673C90.1123 153.001 89.5218 152.534 88.8375 152.282C88.2219 152.056 87.4362 152.026 86.8391 152.33C86.2871 152.611 85.8878 153.249 85.7147 153.827C85.5631 154.333 85.534 154.925 85.8296 155.387C86.0096 155.669 86.2604 155.814 86.5822 155.887C86.8105 155.598 86.4513 154.47 86.7246 153.942C86.9778 153.452 87.4573 153.298 87.945 153.131C88.1656 153.199 88.353 153.263 88.5557 153.378C89.0444 153.654 89.2537 154.293 89.356 154.809C89.4519 155.294 89.4627 155.87 89.1242 156.27C88.936 156.492 88.674 156.631 88.3903 156.686C87.831 156.795 87.2349 156.767 86.6676 156.838L81.816 157.42C79.5066 157.684 76.7943 158.23 74.5029 158.205C75.2229 157.736 75.0017 154.748 75.0186 153.879C75.1535 147.013 75.6037 140.251 77.3133 133.574C79.2689 132.668 83.5591 132.094 85.7972 131.653C88.6317 131.095 91.5899 130.302 94.4715 130.098C97.7489 129.865 101.069 130.039 104.363 129.816L130.788 128.043Z" fill="#151515"/>
<path d="M106.871 148.18L107.274 148.145C107.526 148.273 107.555 148.334 107.71 148.575L107.642 148.766C106.839 149.404 94.2537 151.8 92.2028 152.208C92.1031 152.222 91.9407 152.249 91.8438 152.238C91.5651 152.205 91.4849 152.092 91.3232 151.894L91.3643 151.663C91.4452 151.573 91.5074 151.461 91.6069 151.391C91.6993 151.326 105.082 148.573 106.871 148.18Z" fill="white" fill-opacity="0.8"/>
<path d="M107.08 134.594C108.011 134.533 109.319 134.345 110.085 134.981L110.041 135.157C109.293 135.566 104.316 135.811 102.953 135.984C99.0675 136.475 95.2411 137.287 91.4189 138.127C90.7482 138.291 89.5972 138.689 88.9331 138.575C88.7456 138.339 88.7724 138.326 88.7862 138.019C89.6559 137.14 100.096 135.392 101.908 135.136C103.625 134.894 105.354 134.747 107.08 134.594Z" fill="white" fill-opacity="0.8"/>
<path d="M85.9073 143.711C86.2278 143.696 86.5562 143.677 86.8739 143.731C87.6624 143.866 88.4157 144.285 88.8422 144.976C89.2089 145.57 89.2978 146.294 89.1265 146.967C88.861 148.01 88.1877 148.629 87.3051 149.178C86.7864 149.341 86.2848 149.455 85.7471 149.303C85.1615 149.137 84.7064 148.712 84.4385 148.174C84.0274 147.347 83.9997 146.293 84.2932 145.426C84.5989 144.524 85.0665 144.113 85.9073 143.711Z" fill="white" fill-opacity="0.8"/>
<path d="M86.0667 144.849C86.2032 144.847 86.3397 144.845 86.476 144.852C86.5298 144.855 86.5833 144.861 86.6363 144.87C86.6895 144.878 86.7421 144.89 86.7939 144.904C86.8458 144.918 86.8969 144.935 86.9469 144.955C86.9969 144.975 87.0459 144.997 87.0935 145.022C87.1411 145.047 87.1874 145.075 87.2322 145.105C87.277 145.134 87.3202 145.167 87.3614 145.201C87.4027 145.236 87.4421 145.272 87.4794 145.311C87.5168 145.35 87.5519 145.391 87.585 145.433C87.8586 145.785 87.9247 146.214 87.8649 146.646C87.7539 147.448 87.3204 147.871 86.702 148.339C86.6689 148.345 86.636 148.353 86.6025 148.356C86.2508 148.393 85.8213 148.322 85.5541 148.067C85.1829 147.714 85.0778 147.267 85.1099 146.768C85.163 145.941 85.467 145.401 86.0667 144.849Z" fill="#151515"/>
<path d="M84.4274 136.206C84.6843 136.238 84.9466 136.272 85.1922 136.357C86.0105 136.641 86.7096 137.282 87.0402 138.083C87.0747 138.168 87.1047 138.254 87.1305 138.342C87.1563 138.43 87.1776 138.519 87.1945 138.61C87.2117 138.7 87.2241 138.791 87.2318 138.882C87.2398 138.973 87.2433 139.065 87.2422 139.157C87.241 139.249 87.2351 139.34 87.225 139.431C87.2147 139.523 87.1999 139.613 87.1809 139.703C87.1617 139.792 87.138 139.881 87.1101 139.968C87.0822 140.056 87.0498 140.142 87.0132 140.226C86.6261 141.14 85.9502 141.667 85.0479 142.018C84.4555 142.022 83.9286 141.95 83.4094 141.643C82.8086 141.289 82.4013 140.684 82.2378 140.012C82.0225 139.127 82.163 138.129 82.6439 137.353C83.0925 136.63 83.6276 136.403 84.4274 136.206Z" fill="white" fill-opacity="0.8"/>
<path d="M84.2249 137.326C84.7989 137.47 85.2785 137.663 85.6402 138.158C85.9424 138.571 86.071 139.076 85.9551 139.58C85.8052 140.231 85.3998 140.603 84.8562 140.948C84.7325 140.954 84.6089 140.962 84.485 140.958C84.4365 140.956 84.3879 140.951 84.3398 140.944C84.2915 140.937 84.2439 140.928 84.1967 140.916C84.1496 140.904 84.1031 140.889 84.0574 140.872C84.0116 140.855 83.967 140.836 83.9236 140.814C83.88 140.792 83.8378 140.768 83.7967 140.742C83.7557 140.716 83.716 140.687 83.678 140.657C83.64 140.627 83.6036 140.594 83.5689 140.56C83.5344 140.526 83.5016 140.49 83.4708 140.452C83.1194 140.028 83.0565 139.457 83.1457 138.93C83.2696 138.197 83.6203 137.734 84.2249 137.326Z" fill="#151515"/>
<path d="M121.422 138.222C121.691 138.193 121.661 138.2 121.883 138.295C122.027 138.552 122.077 138.528 122.014 138.833C120.843 139.638 101.725 142.773 98.9463 143.297C96.7244 143.716 94.532 144.176 92.3429 144.744C92.0778 144.743 92.041 144.722 91.8125 144.583C91.6832 144.322 91.6541 144.391 91.7546 144.087C92.0713 143.834 92.3896 143.725 92.7784 143.622C96.3676 142.666 100.192 142.126 103.848 141.443C109.697 140.35 115.554 139.198 121.422 138.222Z" fill="white" fill-opacity="0.8"/>
<path d="M89.9716 43.8074C97.2796 43.9366 104.851 45.7307 111.015 49.7867C121.112 56.4314 123.764 68.9016 126.58 79.7947C127.985 85.2324 129.424 90.674 130.554 96.1776C130.934 98.0281 131.778 100.818 130.641 102.468C126.82 108.011 106.902 111.226 99.8023 112.572C90.0075 114.569 80.1211 116.221 70.1363 116.86C67.9428 110.346 66.9969 103.38 65.845 96.6179C64.56 89.0745 63.0762 81.3201 62.7841 73.6645C62.4805 65.7124 64.2898 57.5892 69.8651 51.6183C75.5447 45.5357 81.9789 44.1027 89.9716 43.8074Z" fill="#151515"/>
<path d="M107.193 51.4633C107.319 51.4619 107.445 51.4584 107.571 51.4671C109.333 51.5879 111.129 53.0035 112.263 54.2673C113.262 55.3805 116.012 59.3608 115.944 60.7447C115.54 60.7065 115.222 60.6645 114.898 60.3863C113.852 59.487 112.571 55.9729 111.051 54.402C110.546 53.8809 109.97 53.3845 109.331 53.0387C108.75 52.7239 107.722 52.4156 107.264 51.9818C107.138 51.8624 107.194 51.6276 107.193 51.4633Z" fill="white" fill-opacity="0.8"/>
<path d="M120.567 80.6958C120.815 80.697 121.036 80.7275 121.279 80.7735C121.409 80.884 121.495 80.9853 121.566 81.1425C122.458 83.1324 124.057 91.3916 123.379 93.2802C123.258 93.2422 123.181 93.2225 123.062 93.1648C122.709 92.9928 122.556 92.5747 122.432 92.228C121.749 90.3235 120.317 83.462 120.342 81.5148C120.346 81.2178 120.446 80.9625 120.567 80.6958Z" fill="white" fill-opacity="0.8"/>
<path d="M113.164 79.6973C113.292 79.7648 113.416 79.8655 113.534 79.949C114.507 81.8143 115.366 90.1977 115.545 92.7178C115.605 93.5736 115.776 94.3931 115.186 95.073C115.028 95.0082 114.85 94.9416 114.718 94.8302C113.881 94.1271 113.593 90.139 113.463 89.0033C113.238 87.0291 112.45 82.314 112.748 80.5374C112.808 80.181 112.942 79.9762 113.164 79.6973Z" fill="white" fill-opacity="0.8"/>
<path d="M116.814 78.8706C117.032 78.8917 117.217 78.9419 117.426 79.0078C117.561 79.1803 117.642 79.3166 117.708 79.5287C118.123 80.8556 118.328 82.3038 118.609 83.6671C119.22 86.6292 120.169 90.0298 120.097 93.0717C120.087 93.4782 119.963 93.7872 119.779 94.144L119.354 94.1701C119.182 94.0866 119.113 94.0837 119.006 93.9151C118.441 93.0294 118.271 91.2725 118.057 90.2367C117.45 87.2962 116.056 81.7595 116.814 78.8706Z" fill="white" fill-opacity="0.8"/>
<path d="M100.261 76.4717C102.464 76.3103 104.845 76.8451 106.615 78.1592C108.433 79.5089 109.486 81.4296 109.812 83.666C110.255 86.708 109.638 90.1585 107.766 92.6055C105.944 94.9861 103.46 96.186 100.51 96.5869C98.0781 96.6309 96.007 96.3252 94.1035 94.8135C91.926 93.0836 90.7998 90.2354 90.5 87.4736C90.2211 84.906 90.831 82.2407 92.4521 80.2285C94.3683 77.8503 97.2455 76.7914 100.262 76.4727L100.261 76.4717Z" stroke="white" stroke-opacity="0.8" stroke-width="0.6"/>
<path d="M93.9677 80.1279C94.4308 80.1093 94.924 80.1028 95.374 80.2285C96.0499 80.4174 96.6605 80.8899 96.9941 81.5092C97.2857 82.0509 97.3625 82.682 97.1828 83.2732C96.9214 84.1328 96.2903 84.5985 95.5326 85.0041C95.0708 85.1045 94.6289 85.1864 94.1606 85.0731C94.0846 85.0541 94.0097 85.0313 93.9358 85.0048C93.8622 84.9783 93.7899 84.9483 93.7191 84.9145C93.6484 84.8807 93.5795 84.8437 93.5124 84.8031C93.4455 84.7625 93.3805 84.7186 93.3179 84.6715C93.2552 84.6243 93.1952 84.5741 93.1375 84.5211C93.08 84.4678 93.0251 84.412 92.973 84.3533C92.9212 84.2949 92.8721 84.2337 92.8262 84.1701C92.7804 84.1065 92.7377 84.0411 92.6983 83.9733C92.6497 83.8898 92.6059 83.8039 92.5664 83.7154C92.527 83.6272 92.4923 83.5371 92.4625 83.4454C92.4325 83.3537 92.4074 83.2603 92.3874 83.1658C92.3673 83.0712 92.3523 82.976 92.3422 82.88C92.3321 82.7838 92.3269 82.6874 92.3272 82.591C92.3272 82.4943 92.3323 82.3979 92.3424 82.3017C92.3527 82.2058 92.368 82.1105 92.3881 82.016C92.4086 81.9214 92.4337 81.8283 92.4637 81.7366C92.7274 80.9246 93.2405 80.5194 93.9677 80.1279Z" fill="white" fill-opacity="0.8"/>
<path d="M140.161 154.661L140.249 154.708C140.223 154.776 140.21 154.851 140.171 154.913C139.849 155.413 138.353 156.486 137.806 156.713C137.391 156.886 136.898 156.847 136.477 157C136.165 157.114 135.945 157.295 135.825 157.616C135.76 157.792 135.819 157.815 135.895 157.969C136.275 158.232 136.669 158.289 137.12 158.336C138.273 158.456 139.505 158.312 140.663 158.27C143.273 158.175 145.881 158.046 148.487 157.882C149.457 164.523 149.262 171.297 150.285 177.943C150.164 177.992 150.043 178.042 149.924 178.095C149.805 178.149 149.688 178.205 149.571 178.263C149.455 178.322 149.339 178.383 149.226 178.447C149.112 178.511 149 178.577 148.889 178.646C148.778 178.714 148.668 178.786 148.561 178.859C148.453 178.933 148.347 179.009 148.243 179.087C148.138 179.165 148.036 179.246 147.935 179.329C147.834 179.412 147.735 179.497 147.638 179.584C147.542 179.671 147.447 179.761 147.353 179.852C147.261 179.943 147.17 180.037 147.081 180.133C146.992 180.228 146.905 180.326 146.821 180.425C146.736 180.524 146.654 180.625 146.574 180.728C146.494 180.831 146.416 180.936 146.341 181.043C146.266 181.149 146.193 181.257 146.122 181.367C146.052 181.477 145.984 181.588 145.918 181.701C145.852 181.814 145.789 181.928 145.729 182.043C144.888 183.684 144.872 185.408 145.43 187.132C146.355 189.987 148.103 191.706 150.715 193.051C150.93 198.264 151.053 203.909 151.723 209.063C145.094 210.958 138.057 211.635 131.22 212.38C122.656 213.381 114.067 214.086 105.454 214.496C99.6263 214.768 93.8095 214.804 87.9772 214.872C83.8426 214.903 79.6894 214.798 75.5547 214.726C73.7734 205.391 72.3814 195.991 70.6834 186.641L67.7203 170.526C67.1568 167.402 66.544 164.274 66.1377 161.125C68.316 160.714 70.5837 160.543 72.7871 160.289C76.9351 159.803 81.0862 159.346 85.2408 158.919C93.5444 157.984 101.863 157.211 110.196 156.6L140.161 154.661Z" fill="#151515"/>
<path d="M110.091 172.189C110.213 171.933 110.365 171.761 110.3 171.478C110.259 171.302 110.245 171.175 110.249 170.997C110.434 170.723 110.51 170.607 110.83 170.477C111.202 170.535 111.417 170.625 111.64 170.943C111.905 171.322 112.102 171.927 112.006 172.391C111.949 172.667 111.833 172.909 111.587 173.065C111.505 173.118 111.438 173.126 111.349 173.146C111.094 172.864 111.104 172.524 110.8 172.297L110.454 172.593C110.236 173.496 105.281 180.155 104.358 181.749C103.61 181.47 102.989 181.21 102.401 180.646L102.456 180.542C102.911 180.406 103.6 180.695 104.036 180.849C106.251 178.156 108.217 175.131 110.091 172.189Z" fill="white" fill-opacity="0.8"/>
<path d="M105.735 162.74C107.16 162.575 109.003 162.878 110.272 163.559C110.602 163.736 110.934 163.967 111.023 164.352C111.118 164.761 110.09 165.828 109.815 166.177C107.72 168.841 105.995 172.1 104.444 175.12C103.693 176.584 103.004 178.155 102.104 179.53C101.308 178.877 100.737 178.012 100.079 177.229C99.138 176.109 98.4159 175.808 97.0146 175.693L96.8733 175.523C96.9981 175.21 97.1434 175.079 97.4301 174.899C97.907 174.599 98.7014 174.24 99.2715 174.346L99.4038 174.62C99.2877 174.831 99.3247 174.778 99.2135 174.938C99.1924 174.969 99.1703 174.999 99.1488 175.029C99.2046 175.157 101.615 177.681 101.939 178.086C104.046 173.28 107.012 168.679 109.997 164.373C109.382 164.011 108.739 163.73 108.04 163.574C105.26 162.954 101.83 164.194 99.5091 165.684C97.1253 167.213 95.7599 169.674 95.1947 172.4C94.6035 175.252 94.8872 178.34 96.5304 180.81C97.8085 182.731 99.6672 183.8 101.892 184.264C103.338 184.416 104.622 184.286 106.008 183.835C109.266 182.773 112.429 180.295 113.982 177.209C115.634 173.928 115.399 170.626 112.427 168.207C111.752 167.658 110.509 166.997 110.221 166.143C110.829 166.087 111.409 166.475 111.903 166.802C113.752 168.027 115.324 169.794 115.745 172.028C116.204 174.461 115.161 176.98 113.77 178.934C111.667 181.889 108.071 184.204 104.479 184.781C102.106 185.163 99.725 184.721 97.7777 183.272C95.7113 181.735 94.5707 179.604 94.2125 177.073C93.7545 173.836 94.4182 170.079 96.4445 167.456C98.5918 164.675 102.331 163.155 105.735 162.74Z" fill="white" fill-opacity="0.8"/>
</g>
<defs>
<clipPath id="clip0_885_4883">
<rect width="240" height="240" fill="white"/>
</clipPath>
</defs>
</svg>
