<?xml version="1.0" encoding="utf-8"?>
<!-- Generator: Adobe Illustrator 27.5.0, SVG Export Plug-In . SVG Version: 6.00 Build 0)  -->
<svg version="1.1" id="Layer_1" xmlns="http://www.w3.org/2000/svg" xmlns:xlink="http://www.w3.org/1999/xlink" x="0px" y="0px"
	 viewBox="0 0 1283.444 1165.126" style="enable-background:new 0 0 1283.444 1165.126;" xml:space="preserve">
<g>
	<rect style="fill:#FFFFFF;" width="1283.444" height="1165.126"/>
	<g>
		<g>
			<path style="fill:#161616;" d="M305.901,290.788c-1.921-1.845-4.198-5.07-4.932-10.436c-0.821-6.003,1.524-11.413,3.542-14.793
				c-1.893-0.615-3.364-1.756-4.431-3.184c-2.523,4.09-5.56,10.875-4.487,18.713c1.212,8.862,5.888,13.431,8.795,15.464
				C304.279,294.522,304.841,292.548,305.901,290.788z"/>
			<path style="fill:#161616;" d="M333.962,298.55c-5.988,3.858-12.298,7.944-15.199,9.887c-1.907,1.276-4.815,0.942-7.076-0.813
				c-3.66-2.842-4.509-8.326-2.268-14.668c1.825-5.163,5.684-9.792,9.926-13.633c-1.618-0.997-2.806-2.446-3.56-4.11
				c-4.828,4.373-9.299,9.759-11.482,15.936c-3.058,8.654-1.541,16.415,4.057,20.761c2.332,1.81,5.056,2.734,7.686,2.734
				c2.048,0,4.038-0.561,5.738-1.699c2.784-1.865,8.753-5.731,14.543-9.463C335.182,302.075,334.338,300.346,333.962,298.55z"/>
			<path style="fill:#161616;" d="M338.829,310.785c-1.03-2.151-1.889-4.348-2.535-6.6c-2.185,6.138-4.414,12.733-6.573,19.333
				c1.794-0.196,3.664,0.186,5.377,1.01c1.416-4.317,2.859-8.623,4.297-12.79C339.183,311.432,338.988,311.117,338.829,310.785z"/>
			<path style="fill:#161616;" d="M388.146,184.975c-3.013-2.84-5.615-5.292-7.445-7.308c-9.078-10.002-18.646-22.986-20.771-43.446
				c-1.359-13.074,0.467-78.592,2.356-134.221h-5.43c-1.892,55.765-3.711,121.426-2.323,134.781
				c2.595,24.987,16.297,40.086,22.148,46.532c1.973,2.174,4.647,4.693,7.743,7.611c8.349,7.868,19.784,18.643,22.494,28.212
				c4.112,14.521,8.444,54.975,5.17,64.008c-1.364,3.764-6.768,17.033-13.724,33.325c2.114-0.401,4.228-0.792,6.345-1.165
				c6.6-15.536,11.519-27.656,12.481-30.312c4.128-11.391-1.432-54.557-5.051-67.335
				C409.022,204.645,397.448,193.739,388.146,184.975z"/>
			<path style="fill:#161616;" d="M377.724,287.157c-1.819,2.748-3.506,6.115-5.175,9.915c1.377,2.834,1.869,5.539,2.336,8.524
				c2.609-6.588,5.085-12.197,7.783-16.059c0.304-0.435,0.474-0.95,0.487-1.481c0.098-3.647-1.182-8.945-2.802-15.651
				c-1.495-6.19-3.262-13.51-4.377-21.364c-0.115,0.135-0.223,0.274-0.345,0.403c-0.203,0.214-0.348,0.36-0.458,0.466
				c-0.315,0.486-0.641,0.966-0.931,1.469c-0.538,0.938-1.014,1.91-1.482,2.884c-0.35,0.728-0.699,1.452-1.053,2.172
				c1.038,5.542,2.273,10.697,3.371,15.244C376.425,279.254,377.603,284.131,377.724,287.157z"/>
			<path style="fill:#161616;" d="M380.443,287.983h0.011H380.443z"/>
			<g>
				<path style="fill:#161616;" d="M640.499,407.374c-4.716-22.549-25.602-38.227-48.585-36.461
					c-14.257,1.094-26.959,8.518-34.887,20.379c-0.044,0.054-0.086,0.111-0.126,0.17c-0.064,0.091-6.404,9.122-17.041,9.754
					c-5.211,0.311-9.814-2.012-13.719-6.9c-3.049-3.815-5.039-8.584-5.758-13.792l-11.196-81.254
					c-0.099-0.712-0.476-1.358-1.049-1.792c-0.573-0.435-1.297-0.623-2.008-0.525l-127.68,17.594c1.05,1.611,1.691,3.458,1.78,5.232
					l123.952-17.08l10.826,78.566c0.851,6.176,3.236,11.86,6.894,16.439c4.999,6.255,11.327,9.347,18.28,8.93
					c12.362-0.735,19.736-10.095,21.011-11.846c0.077-0.089,0.148-0.183,0.214-0.282c6.987-10.583,18.259-17.209,30.923-18.18
					c20.253-1.557,38.697,12.27,42.857,32.161c2.347,11.223,0.023,22.537-6.546,31.859c-6.479,9.194-16.581,15.348-27.718,16.882
					c-11.585,1.595-23.324-1.887-32.191-9.561c-0.088-0.076-0.18-0.146-0.276-0.209c-1.685-1.328-11.32-8.363-23.439-5.727
					c-6.814,1.484-12.064,6.167-15.184,13.541c-2.284,5.398-3.041,11.515-2.191,17.69l10.827,78.566l-78.567,10.826
					c-5.204,0.719-10.337,0.09-14.834-1.813c-5.762-2.437-9.245-6.253-10.353-11.341c-2.268-10.413,4.712-18.958,4.778-19.038
					c0.048-0.057,0.093-0.115,0.136-0.176c8.573-10.024,12.455-23.231,10.656-36.278c-1.739-12.622-8.713-24.071-19.133-31.413
					c-10.565-7.445-23.386-10.082-36.096-7.42c-22.549,4.717-38.223,25.604-36.459,48.585c1.094,14.256,8.515,26.954,20.373,34.884
					c0.058,0.047,0.119,0.092,0.181,0.134c0.091,0.062,9.11,6.318,9.748,17.036c0.31,5.198-2.013,9.813-6.9,13.718
					c-3.816,3.049-8.586,5.04-13.791,5.758l-78.566,10.826l-25.001-181.434c-5.12-37.16,20.946-71.559,58.106-76.679l20.059-2.764
					c-0.734-1.712-1.068-3.598-0.936-5.349l-19.863,2.738c-40.125,5.529-68.271,42.671-62.742,82.796l25.371,184.121
					c0.188,1.359,1.35,2.344,2.684,2.344c0.123,0,0.248-0.009,0.373-0.026l81.254-11.196c6.174-0.851,11.859-3.235,16.439-6.894
					c6.255-4.998,9.344-11.319,8.929-18.28c-0.736-12.362-10.096-19.737-11.847-21.012c-0.088-0.076-0.182-0.148-0.281-0.214
					c-10.583-6.988-17.209-18.258-18.181-30.922c-1.556-20.272,12.27-38.697,32.159-42.858c11.227-2.348,22.538-0.023,31.859,6.545
					c9.195,6.479,15.348,16.581,16.883,27.718c1.598,11.59-1.887,23.324-9.561,32.192c-0.076,0.089-0.146,0.181-0.21,0.277
					c-1.332,1.689-8.363,11.327-5.725,23.438c1.484,6.813,6.166,12.064,13.539,15.183c5.4,2.285,11.518,3.043,17.691,2.192
					l81.254-11.197c0.713-0.098,1.358-0.476,1.792-1.05c0.435-0.573,0.624-1.296,0.526-2.009l-11.197-81.254
					c-0.717-5.207-0.09-10.336,1.813-14.835c2.438-5.762,6.253-9.245,11.341-10.353c10.409-2.267,18.958,4.712,19.038,4.777
					c0.057,0.048,0.116,0.093,0.175,0.136c10.025,8.571,23.23,12.456,36.279,10.657c12.621-1.74,24.071-8.713,31.412-19.132
					C640.522,432.905,643.158,420.086,640.499,407.374z"/>
				<path style="fill:#161616;" d="M592.122,373.619h0.011H592.122z"/>
			</g>
			<path style="fill:#161616;" d="M370.382,279.564c-2.259-8.658,2.41-17.508,6.531-25.318c1.61-3.052,3.131-5.935,4.066-8.545
				c0.505-1.411-0.229-2.964-1.64-3.469c-1.406-0.506-2.963,0.229-3.469,1.64c-0.805,2.247-2.238,4.965-3.757,7.842
				c-4.354,8.253-9.773,18.523-6.981,29.219c1.011,3.875,2.651,9.044,4.549,15.03c4.462,14.062,10.571,33.32,10.981,44.882
				c0.252,7.131-3.574,13.48-9.522,15.8c-5.675,2.213-11.738,0.208-16.626-5.503c-6.089-7.112-7.903-16.679-9.824-26.807
				c-2.027-10.692-4.125-21.749-11.18-31.998c-7.056-10.247-16.166-18.581-24.976-26.64c-8.261-7.558-16.065-14.697-20.974-22.455
				c-8.276-13.079-20.974-39.944-13.04-72.889c4.861-19.426,4.663-28.245,1.701-57.526C274.62,97.015,267.604,44.368,261.586,0
				h-5.476c6.034,44.477,13.11,97.546,14.711,113.372c2.93,28.968,3.118,36.948-1.572,55.686c-8.408,34.91,4.99,63.28,13.725,77.084
				c5.296,8.37,13.36,15.747,21.896,23.557c8.586,7.854,17.464,15.976,24.168,25.713c6.408,9.307,8.397,19.792,10.319,29.932
				c2.059,10.859,4.005,21.115,11.033,29.325c4.633,5.411,10.373,8.28,16.171,8.279c2.194,0,4.396-0.411,6.549-1.25
				c8.095-3.155,13.308-11.613,12.973-21.047c-0.436-12.302-6.421-31.17-11.23-46.331
				C372.977,288.41,371.357,283.303,370.382,279.564z"/>
		</g>
		<g>
			<g>
				<path style="fill:#161616;" d="M891.232,223.352c-1.058,6.358-2.461,13.486-3.957,20.901c1.808,0.155,3.617,0.34,5.415,0.597
					c1.564-7.759,3.023-15.209,4.095-21.849C895.021,223.564,893.087,223.682,891.232,223.352z"/>
				<path style="fill:#161616;" d="M941.227,204.199c-6.573,10.62-16.199,24.793-18.929,27.857
					c-2.042,2.293-3.241,8.423-5.546,20.964c-0.022,0.12-0.046,0.247-0.068,0.368c0.665,0.217,1.316,0.49,1.944,0.816
					c1.081,0.562,2.087,1.266,3.05,2.03c0.138-0.749,0.276-1.5,0.411-2.233c1.451-7.897,3.096-16.848,4.262-18.336
					c2.651-2.977,12.177-16.846,19.043-27.889c-0.099-0.17-0.195-0.342-0.292-0.512
					C943.468,206.592,942.174,205.517,941.227,204.199z"/>
				<path style="fill:#161616;" d="M923.424,233.382l4.14,25.892c0.423-0.289,1.142,2.115,1.614,1.902
					c1.191-0.537,2.252-3.488,3.617-3.555l-4.661-29.159C927.125,230.611,925.539,232.368,923.424,233.382z"/>
			</g>
			<path style="fill:#161616;" d="M927.74,265.373c0.729-1.725,1.868-3.271,3.255-4.373c-12.99-11.787-29.57-18.49-47.289-18.968
				l-16.613-0.448c-3.58,1.934-7.258,3.716-11.074,5.13l27.54,0.742C900.145,247.904,915.653,254.238,927.74,265.373z"/>
			<path style="fill:#161616;" d="M949.467,292.918c-0.212,0.212-0.567,0.721-0.878,1.136c-0.482,0.799-0.983,1.594-1.515,2.384
				c-0.003,0.004-0.006,0.007-0.008,0.011c1.936,6.682,2.862,13.691,2.669,20.845L944.8,500.376l-79.28-2.137
				c-6.214-0.167-12.227,1.257-17.342,4.12c-6.987,3.911-11.065,9.643-11.793,16.578c-1.293,12.335,6.765,21.146,8.267,22.67
				c0.073,0.087,0.152,0.171,0.237,0.249c9.3,8.621,13.999,20.822,12.892,33.474v0.001c-1.773,20.255-18.42,36.177-38.722,37.037
				c-11.464,0.485-22.239-3.655-30.364-11.656c-8.014-7.892-12.437-18.863-12.135-30.101c0.316-11.697,5.668-22.704,14.685-30.201
				c0.088-0.073,0.171-0.151,0.248-0.234c1.575-1.434,10.104-9.8,9.477-22.193c-0.352-6.964-4.114-12.908-10.881-17.19
				c-4.953-3.134-10.864-4.879-17.096-5.047l-79.28-2.136l2.137-79.28c0.142-5.255,1.597-10.214,4.209-14.34
				c3.346-5.287,7.678-8.102,12.878-8.364c10.651-0.547,17.935,7.741,18.003,7.819c0.049,0.056,0.097,0.11,0.149,0.161
				c8.491,10.094,20.888,16.08,34.056,16.435c12.707,0.337,25.169-4.669,34.114-13.752c9.069-9.209,13.76-21.427,13.21-34.402
				c-0.976-23.016-19.026-41.887-41.987-43.896c-14.242-1.245-27.991,4.007-37.749,14.42c-0.05,0.045-0.1,0.092-0.146,0.14
				c-0.077,0.08-7.825,7.951-18.404,6.844c-5.178-0.543-9.353-3.586-12.409-9.046c-2.387-4.264-3.573-9.294-3.431-14.546
				l2.135-79.28l124.035,3.342c-1.299-1.536-2.068-3.473-2.322-5.491l-124.279-3.349c-0.71-0.015-1.418,0.248-1.94,0.742
				c-0.522,0.495-0.827,1.178-0.846,1.897l-2.209,81.991c-0.169,6.229,1.256,12.227,4.12,17.344
				c3.911,6.988,9.643,11.065,16.578,11.791c12.337,1.293,21.143-6.762,22.67-8.265c0.087-0.074,0.171-0.153,0.249-0.238
				c8.623-9.301,20.829-14,33.474-12.893c20.254,1.773,36.177,18.419,37.038,38.721c0.486,11.456-3.653,22.24-11.654,30.365
				c-7.892,8.014-18.856,12.442-30.101,12.135c-11.696-0.315-22.705-5.668-30.201-14.685c-0.075-0.09-0.154-0.173-0.237-0.251
				c-1.443-1.583-9.799-10.105-22.191-9.474c-6.964,0.352-12.908,4.115-17.189,10.881c-3.135,4.953-4.88,10.865-5.048,17.096
				l-2.21,81.992c-0.019,0.719,0.248,1.417,0.743,1.939c0.495,0.522,1.176,0.827,1.896,0.845l81.992,2.21
				c5.255,0.142,10.214,1.597,14.34,4.208c5.286,3.346,8.1,7.679,8.363,12.879c0.539,10.643-7.74,17.937-7.818,18.004
				c-0.055,0.047-0.108,0.096-0.158,0.147c-10.096,8.491-16.083,20.888-16.438,34.057c-0.343,12.737,4.67,25.171,13.751,34.114
				c8.724,8.592,20.147,13.254,32.359,13.254c0.678,0,1.36-0.014,2.042-0.043c23.016-0.975,41.888-19.025,43.898-41.986
				c1.247-14.248-4.005-27.991-14.419-37.75c-0.046-0.05-0.092-0.099-0.142-0.146c-0.079-0.077-7.955-7.806-6.843-18.404
				c0.544-5.178,3.587-9.354,9.047-12.41c4.26-2.386,9.303-3.574,14.545-3.43l81.992,2.21c0.712,0.014,1.418-0.248,1.94-0.742
				c0.522-0.495,0.827-1.177,0.846-1.896l5.007-185.794c0.244-9.041-1.161-17.869-4.048-26.162
				C950.57,291.829,950.017,292.367,949.467,292.918z"/>
			<path style="fill:#161616;" d="M1283.444,150.085c-45.179,12.643-207.566,58.05-216.25,59.983
				c-10.934,2.434-20.325,7.775-23.37,13.289c-2.359,4.272-10.932,16.268-22.117,20.411l-1.466,0.543
				c-17.485,6.469-36.701,13.821-43.401,19.201c-7.22,5.798-23.357,22.092-28.843,29.611c-7.276,9.971-18.177,20.45-28.787,13.749
				c-3.111-1.964-4.917-4.537-5.526-7.864c-1.4-7.671,4.08-17.453,7.174-21.553c1.446-1.914,4.587-5.713,8.225-10.111
				c9.932-12.007,17.639-21.45,19.039-24.717c3.279-7.65,7.839-22.092,1.547-32.862c-3.665-6.276-8.158-10.207-12.991-11.369
				c-1.017-0.244-2.038-0.366-3.054-0.366c-2.556,0-5.083,0.769-7.437,2.278c-1.277,0.82-3.012,2.076-5.208,3.668
				c-8.126,5.891-21.728,15.751-31.517,17.235c-0.329,0.049-0.646,0.159-0.934,0.324c-1.422,0.808-3.097,2.428-5.416,4.67
				c-4.178,4.042-10.492,10.149-18.032,13.569c-13.052,5.921-33.898,10.267-39.087,3.023c-1.09-1.52-1.059-2.467-0.94-3.047
				c0.636-3.116,6.575-6.727,12.319-10.219c3.987-2.424,8.109-4.931,11.839-7.916c10.39-8.315,24.969-20.883,33.679-28.393
				c1.618-1.395,3.033-2.614,4.177-3.597c5.638-4.839,20.499-19.696,30.332-29.527c2.979-2.978,5.437-5.434,6.926-6.9l0.878-0.87
				c5.882-5.849,13.203-13.129,36.982-9.842c25.941,3.586,64.409,7.058,98.832-4.136c28.818-9.371,176.092-96.684,222.427-124.351
				V7.674c-42.443,25.343-195.606,116.25-224.105,125.518c-33.361,10.848-71.001,7.433-96.409,3.921
				c-26.447-3.654-35.177,5.029-41.552,11.371l-0.856,0.848c-1.496,1.473-3.965,3.94-6.958,6.932
				c-9.181,9.178-24.548,24.541-30.029,29.246c-1.147,0.984-2.564,2.206-4.186,3.604c-8.682,7.485-23.215,20.013-33.528,28.267
				c-3.457,2.767-7.427,5.181-11.267,7.515c-7.355,4.471-13.708,8.334-14.816,13.77c-0.498,2.437,0.123,4.89,1.845,7.293
				c8.657,12.078,35.953,3.198,45.741-1.243c8.395-3.809,15.115-10.309,19.562-14.61c1.576-1.525,3.076-2.975,3.977-3.627
				c11.005-1.948,24.925-12.038,33.302-18.11c2.041-1.48,3.805-2.758,4.951-3.494c2.043-1.31,4.163-1.717,6.293-1.204
				c3.362,0.808,6.673,3.862,9.576,8.831c5.281,9.04,0.465,22.584-1.851,27.986c-1.203,2.808-11.451,15.197-18.232,23.395
				c-3.68,4.448-6.857,8.29-8.376,10.302c-1.062,1.409-10.316,14.095-8.18,25.796c0.883,4.836,3.563,8.698,7.966,11.478
				c3.156,1.993,6.454,2.978,9.843,2.978c8.472,0,17.502-6.16,26.226-18.116c5.176-7.096,21.023-23.091,27.858-28.579
				c6.573-5.277,30.423-14.102,41.885-18.342l1.468-0.544c12.28-4.549,21.712-16.953,24.982-22.877
				c1.895-3.43,9.477-8.316,19.799-10.615c8.843-1.969,167.582-46.354,215.071-59.645V150.085z"/>
		</g>
		<g>
			<path style="fill:#161616;" d="M245.327,1165.126h6.11c23.942-46.114,39.876-74.561,46.374-82.748
				c7.419-9.347,15.482-12.849,24.02-16.555c10.264-4.456,20.879-9.064,30.703-23.732c10.773-16.083,13.893-30.465,15.958-39.982
				c1.211-5.582,2.168-9.993,3.927-11.326c2.086-1.582,5.651-3.314,9.779-5.32c6.043-2.937,13.854-6.761,21.731-12.356
				c-2.266-0.607-4.526-1.248-6.775-1.949c-6.17,3.981-12.168,6.917-17.328,9.424c-4.567,2.219-8.173,3.971-10.686,5.876
				c-3.357,2.546-4.445,7.56-5.951,14.499c-2.095,9.66-4.965,22.889-15.163,38.113c-8.939,13.344-18.37,17.44-28.356,21.775
				c-8.774,3.809-17.848,7.748-26.109,18.159C285.313,1089.396,264.383,1128.371,245.327,1165.126z"/>
			<path style="fill:#161616;" d="M103.236,1165.126c58.586-66.469,120.084-139.104,131.183-155.201
				c11.494-16.671,19.017-37.861,26.981-60.295c2.89-8.142,5.879-16.56,9.113-24.896c7.786-20.073,19.221-34.906,26.026-42.615
				c-0.018-0.843,0.035-1.687,0.176-2.513c0.077-0.435,0.147-0.871,0.215-1.307c0.075-0.719,0.158-1.435,0.212-2.156
				c0.069-0.918,0.107-1.833,0.118-2.75c-4.784,4.718-21.292,22.272-31.807,49.379c-3.262,8.411-6.265,16.867-9.167,25.044
				c-7.842,22.087-15.248,42.949-26.336,59.031c-11.209,16.258-74.553,91-133.95,158.281H103.236z"/>
			<path style="fill:#161616;" d="M581.018,739.515l-80.884-13.611c-5.184-0.872-9.891-3.005-13.615-6.166
				c-4.769-4.049-6.952-8.731-6.488-13.918c0.95-10.614,10.165-16.684,10.251-16.739c0.063-0.04,0.122-0.081,0.18-0.125
				c11.178-7.002,18.833-18.444,21.02-31.433c2.114-12.563-1.117-25.575-8.863-35.696c-7.856-10.264-19.3-16.612-32.226-17.876
				c-22.929-2.24-44.13,13.003-49.319,35.46c-3.222,13.938,0.066,28.281,9.021,39.396c0.037,0.054,0.076,0.108,0.117,0.16
				c0.069,0.087,6.79,8.839,4.213,19.179c-1.259,5.052-4.854,8.763-10.686,11.028c-4.553,1.769-9.702,2.24-14.882,1.37
				l-80.884-13.611c-0.716-0.122-1.437,0.048-2.024,0.465c-0.586,0.418-0.982,1.05-1.102,1.76l-30.843,183.284
				c-1.194,7.093-1.326,14.196-0.478,21.141c0.426-0.048,0.865-0.078,1.323-0.078c1.617,0,3.033,0.311,4.253,0.852
				c-0.991-6.886-0.935-13.956,0.253-21.013l30.394-180.609l78.208,13.161c6.149,1.034,12.285,0.459,17.748-1.663
				c7.464-2.899,12.3-8.008,13.986-14.774c3.001-12.043-3.762-21.897-5.03-23.605c-0.059-0.095-0.125-0.187-0.197-0.275
				c-8.009-9.833-10.962-22.57-8.103-34.944c4.578-19.81,23.291-33.261,43.505-31.281c11.411,1.115,21.513,6.717,28.445,15.772
				c6.836,8.931,9.687,20.412,7.82,31.498c-1.94,11.538-8.774,21.692-18.747,27.859c-0.1,0.061-0.193,0.128-0.281,0.199
				c-1.768,1.207-11.371,8.303-12.475,20.655c-0.621,6.945,2.277,13.356,8.381,18.539c4.468,3.794,10.079,6.346,16.226,7.379
				l78.209,13.161l-13.161,78.209c-0.873,5.184-3.006,9.892-6.167,13.615c-4.05,4.77-8.74,6.949-13.917,6.488
				c-10.615-0.949-16.684-10.164-16.74-10.251c-0.037-0.059-0.076-0.116-0.119-0.171c-7.002-11.183-18.447-18.842-31.439-21.028
				c-12.564-2.115-25.575,1.117-35.697,8.864c-10.263,7.857-16.612,19.302-17.875,32.227c-2.241,22.928,13.005,44.13,35.462,49.318
				c13.932,3.218,28.271-0.067,39.386-9.017c0.057-0.038,0.113-0.079,0.168-0.122c0.087-0.068,8.836-6.79,19.179-4.213
				c5.052,1.26,8.763,4.855,11.029,10.686c1.768,4.554,2.241,9.701,1.37,14.883l-13.162,78.208l-180.608-30.393
				c-0.989-0.166-1.961-0.381-2.934-0.592c-0.019,1.833-0.111,3.665-0.246,5.494c0.758,0.153,1.512,0.32,2.279,0.449l183.284,30.843
				c0.153,0.025,0.304,0.038,0.454,0.038c1.3,0,2.449-0.938,2.672-2.263l13.612-80.884c1.033-6.146,0.458-12.283-1.664-17.748
				c-2.9-7.463-8.008-12.3-14.774-13.986c-12.021-2.996-21.861,3.738-23.596,5.024c-0.099,0.061-0.193,0.129-0.285,0.203
				c-9.833,8.009-22.571,10.962-34.942,8.103c-19.81-4.577-33.258-23.279-31.282-43.503c1.115-11.412,6.717-21.514,15.772-28.446
				c8.931-6.837,20.41-9.688,31.498-7.822c11.537,1.942,21.691,8.776,27.861,18.749c0.059,0.096,0.123,0.187,0.193,0.273
				c1.191,1.747,8.29,11.376,20.661,12.482c6.956,0.615,13.356-2.279,18.536-8.381c3.794-4.468,6.346-10.078,7.381-16.226
				l13.611-80.885C583.492,741.163,582.495,739.764,581.018,739.515z"/>
			<path style="fill:#161616;" d="M423.716,640.022h0.011H423.716z"/>
			<path style="fill:#161616;" d="M416.106,883.388c-2.632-7.253-9.137-11.913-16.604-11.913h-0.171
				c-19.409,0.185-40.444,16.773-46.43,21.852c-1.662,1.411-3.326,2.862-4.996,4.319c-9.564,8.341-19.453,16.968-30.042,18.557
				c-11.209,1.678-19.07-12.935-19.148-13.084c-0.388-0.736-1.092-1.253-1.911-1.403c-0.505-0.093-1.018-0.021-1.489,0.166
				c0.291,1.642-2.068,0.241-1.774,1.872c0.429,2.382,2.243,4.99,2.808,5.737c3.732,5.219,11.57,13.693,22.319,12.077
				c12.155-1.826,22.652-10.98,32.803-19.834c1.652-1.441,3.298-2.877,4.942-4.272c11.609-9.854,28.995-20.43,42.969-20.563h0.117
				c5.157,0,9.666,3.262,11.507,8.337c1.76,4.853,1.081,12.136-6.104,18.023c-3.853,3.159-9.533,7.146-15.546,11.369
				c-7.807,5.483-15.879,11.152-20.028,15.141c-2.362,2.271-5.358,4.504-8.257,6.663c-5.896,4.393-11.465,8.543-12.444,13.481
				c-0.401,2.02-0.197,4.445,0.039,7.252c0.599,7.127,1.418,16.887-5.918,29.257c-10.219,17.232-24.848,36.766-33.222,43.082
				c-1.131,0.853-1.402,2.417-0.607,3.589c0.01,0.015,0.02,0.03,0.03,0.044c0.85,1.258,2.568,1.542,3.78,0.627
				c11.985-9.046,28.833-34.705,34.686-44.575c8.222-13.864,7.28-25.066,6.658-32.48c-0.201-2.399-0.376-4.471-0.124-5.742
				c0.573-2.89,5.775-6.766,10.364-10.185c3.032-2.26,6.168-4.595,8.775-7.103c3.848-3.7,11.747-9.248,19.386-14.612
				c6.097-4.282,11.856-8.327,15.867-11.614C417.717,899.776,418.5,889.987,416.106,883.388z"/>
		</g>
		<g>
			<path style="fill:#161616;" d="M1066.944,865.689c-5.408-7.244-13.659-19.297-15.081-23.087
				c-0.265-0.703-0.809-1.266-1.503-1.553c-0.655-0.271-1.633-0.51-3.785-1.025c-5.229-1.252-15.973-3.84-27.52-9.203
				c0.02,0.175,0.044,0.348,0.059,0.526c0.153,1.766-0.168,3.495-0.548,5.214c11.327,5.034,21.607,7.51,26.747,8.74
				c0.722,0.173,1.457,0.349,2.025,0.493c2.899,6.075,12.041,18.832,15.258,23.14c1.663,2.227,2.334,4.145,2.053,5.863
				c-0.345,2.108-2.218,4.349-5.565,6.662c-5.953,4.113-13.357,9.232-17.127,6.833c-1.263-0.805-2.941-0.434-3.746,0.83
				c-0.805,1.264-0.433,2.941,0.831,3.746c6.797,4.333,15.474-1.658,23.125-6.945c4.672-3.228,7.234-6.58,7.835-10.249
				C1070.53,872.472,1069.5,869.112,1066.944,865.689z"/>
			<path style="fill:#161616;" d="M1013.74,796.641c1.076,0.136,2.145,0.271,3.202,0.403c18.793,2.359,32.371,4.063,43.489,11.705
				c12.281,8.443,26.852,21.218,36.493,29.672c1.74,1.526,3.331,2.921,4.733,4.137c2.963,2.571,6.025,4.799,8.986,6.953
				c6.46,4.699,12.038,8.757,14.998,14.956c2.847,5.963,4.244,20.967,5.366,33.023c0.646,6.932,1.255,13.479,2.061,17.76
				c2.228,11.818,15.274,67.05,18.977,81.586c2.265,8.895,26.629,101.506,44.208,168.291h5.611
				c-17.603-66.872-42.284-160.691-44.561-169.63c-3.692-14.492-16.689-69.506-18.903-81.251c-0.76-4.031-1.358-10.457-1.991-17.259
				c-1.223-13.135-2.609-28.022-5.873-34.857c-3.552-7.44-9.939-12.087-16.702-17.006c-2.869-2.087-5.835-4.246-8.624-6.664
				c-1.395-1.211-2.978-2.599-4.71-4.117c-9.737-8.538-24.452-21.441-36.997-30.065c-12.205-8.39-27.069-10.255-45.887-12.617
				c-1.333-0.168-2.684-0.337-4.047-0.511c0.251,0.963,0.381,2.018,0.327,3.19C1013.861,795.115,1013.807,795.88,1013.74,796.641z"
				/>
			<path style="fill:#161616;" d="M984.082,888.716c-7.098,4.41-15.019,7.518-23.481,9.092l-180.058,33.507l-14.508-77.97
				c-1.14-6.128-3.79-11.694-7.659-16.095c-4.73-5.379-10.397-8.177-16.503-8.177c-0.721,0-1.447,0.039-2.178,0.117
				c-12.33,1.317-19.258,11.038-20.436,12.828c-0.071,0.09-0.136,0.185-0.195,0.285c-6.483,10.899-17.429,18.049-30.033,19.615
				c-20.165,2.507-39.23-10.439-44.324-30.111c-2.872-11.1-1.082-22.511,5.041-32.131c6.039-9.489,15.841-16.11,26.893-18.167
				c11.5-2.141,23.386,0.788,32.605,8.036c0.091,0.072,0.186,0.137,0.284,0.195c1.74,1.246,11.699,7.826,23.684,4.62
				c6.736-1.803,11.761-6.727,14.529-14.24c2.027-5.499,2.497-11.646,1.357-17.773l-14.509-77.97l77.969-14.509
				c5.168-0.962,10.32-0.577,14.904,1.113c5.869,2.164,9.528,5.812,10.875,10.842c2.755,10.294-3.815,19.158-3.877,19.241
				c-0.046,0.06-0.089,0.121-0.128,0.184c-8.091,10.416-11.347,23.789-8.939,36.738c2.332,12.526,9.836,23.635,20.59,30.479
				c10.904,6.94,23.839,8.968,36.404,5.714c22.302-5.773,36.976-27.375,34.134-50.247c-1.763-14.194-9.778-26.533-22.003-33.893
				c-0.054-0.039-0.11-0.077-0.169-0.113c-0.093-0.059-9.413-5.967-10.546-16.563c-0.553-5.178,1.549-9.897,6.248-14.028
				c3.668-3.226,8.339-5.439,13.505-6.4l77.97-14.509l33.507,180.057c2.711,14.566,0.661,29.281-5.76,42.34
				c0.674,0.208,1.345,0.484,2.008,0.834c0.988,0.522,1.847,1.257,2.571,2.121c7.158-14.243,9.483-30.346,6.516-46.288
				l-34.004-182.724c-0.274-1.472-1.685-2.443-3.163-2.171l-80.637,15.005c-6.129,1.141-11.694,3.789-16.096,7.66
				c-6.014,5.287-8.802,11.746-8.061,18.679c1.318,12.331,11.039,19.259,12.83,20.437c0.09,0.07,0.184,0.135,0.284,0.195
				c10.899,6.481,18.048,17.427,19.615,30.031c2.507,20.177-10.437,39.232-30.11,44.324c-11.101,2.873-22.511,1.084-32.131-5.039
				c-9.49-6.039-16.111-15.84-18.169-26.894c-2.141-11.502,0.789-23.387,8.037-32.605c0.072-0.092,0.138-0.189,0.197-0.288
				c1.254-1.754,7.82-11.709,4.617-23.68c-1.804-6.736-6.728-11.76-14.24-14.529c-5.502-2.028-11.646-2.495-17.773-1.357
				l-80.637,15.006c-1.473,0.274-2.445,1.691-2.172,3.164l15.005,80.638c0.962,5.166,0.577,10.32-1.113,14.903
				c-2.163,5.87-5.811,9.529-10.841,10.875c-10.298,2.758-19.161-3.814-19.242-3.877c-0.058-0.044-0.119-0.086-0.179-0.125
				c-10.414-8.092-23.789-11.351-36.741-8.94c-12.526,2.331-23.635,9.835-30.479,20.588c-6.94,10.903-8.969,23.832-5.716,36.405
				c5.293,20.451,23.893,34.489,44.581,34.487c1.873,0,3.767-0.115,5.666-0.351c14.193-1.763,26.533-9.778,33.894-22.004
				c0.039-0.055,0.077-0.11,0.114-0.168c0.058-0.094,5.967-9.413,16.563-10.545c5.175-0.552,9.898,1.548,14.029,6.247
				c3.225,3.667,5.438,8.338,6.399,13.506l15.005,80.638c0.132,0.707,0.539,1.333,1.133,1.74c0.455,0.312,0.99,0.477,1.535,0.477
				c0.165,0,0.332-0.016,0.496-0.046l182.725-34.004c9.367-1.743,18.123-5.219,25.933-10.174
				C985.939,891.916,984.79,890.42,984.082,888.716z"/>
			<path style="fill:#161616;" d="M689.366,864.611h0.011H689.366z"/>
			<path style="fill:#161616;" d="M977.811,885.842c7.308,7.099,14.864,14.438,20.133,21.556
				c6.87,9.281,13.069,20.753,19.063,31.847c5.233,9.685,10.176,18.833,15.365,26.236c5.982,8.535,13.334,14.474,20.443,20.216
				c6.337,5.119,12.323,9.953,16.748,16.2c7.81,11.021,8.89,19.552,10.385,31.359c0.268,2.124,0.548,4.327,0.88,6.641
				c1.022,7.109,1.223,44.485,1.436,84.057c0.073,13.599,0.149,27.503,0.257,41.172h5.427c-0.109-13.676-0.184-27.591-0.257-41.201
				c-0.224-41.49-0.417-77.321-1.491-84.799c-0.327-2.281-0.603-4.455-0.868-6.55c-1.535-12.116-2.746-21.685-11.34-33.815
				c-4.859-6.858-11.129-11.922-17.767-17.284c-6.817-5.506-13.867-11.201-19.41-19.11c-5.008-7.145-9.878-16.159-15.034-25.702
				c-6.085-11.26-12.378-22.905-19.475-32.496c-5.532-7.474-13.25-14.97-20.713-22.22c-9.044-8.784-18.395-17.867-18.516-22.479
				c-0.083-3.142,2.032-6.439,5.655-8.818c6.234-4.094,14.775-4.297,22.85-0.544c11.791,5.481,28.204,22.932,38.011,33.359
				c4.996,5.312,7.694,8.152,9.306,9.299c0.84-0.286,1.769-0.461,2.775-0.519c1.027-0.567,2.195-0.979,3.542-1.14
				c-1.426-1.34-2.518-2.3-3.153-2.747c-1.228-0.863-4.768-4.626-8.516-8.611c-10.727-11.405-26.937-28.641-39.677-34.562
				c-9.786-4.549-20.299-4.203-28.115,0.929c-5.206,3.418-8.234,8.463-8.101,13.497C957.831,866.436,966.649,875,977.811,885.842z"
				/>
		</g>
	</g>
</g>
</svg>
