<svg width="426" height="320" viewBox="0 0 426 320" fill="none" xmlns="http://www.w3.org/2000/svg">
<path fill-rule="evenodd" clip-rule="evenodd" d="M357.543 294.716C357.532 294.701 357.52 294.683 357.508 294.665C357.189 294.171 357.328 293.512 357.821 293.193C372.903 283.405 394.519 286.205 410.248 292.938C413.288 294.239 418.596 296.818 422.038 300.219C424.543 302.691 426.054 305.607 425.397 308.756C424.889 311.204 423.038 312.955 420.622 314.156C417.351 315.782 413.04 316.394 410.358 316.681C395.128 318.304 380.127 315.424 365.17 312.854C361.119 312.16 357.088 311.423 353.111 310.394C352.277 310.27 351.434 310.178 350.606 310.013C350.426 309.974 349.988 309.844 349.716 309.758C349.518 309.761 349.317 309.708 349.133 309.596C348.714 309.333 348.583 309.013 348.563 308.744C347.965 308.298 347.528 307.724 347.353 307.017C346.957 305.426 347.551 303.667 348.672 302.023C350.139 299.87 352.478 297.897 353.868 296.848C355.086 295.928 356.31 295.23 357.543 294.716ZM353.531 308.298C356.012 308.67 358.481 309.09 360.95 309.54C367.615 310.755 374.301 311.902 380.99 312.973C381.907 313.121 383.835 313.62 385.462 313.576C385.896 313.564 386.304 313.514 386.647 313.384C386.851 313.304 387.029 313.2 387.129 313.02C387.339 312.645 387.304 312.213 387.165 311.763C386.967 311.113 386.553 310.436 386.044 309.761C384.311 307.464 381.469 305.243 380.423 304.317C376.853 301.162 372.631 298.048 368.18 296.581C363.916 295.177 359.436 295.322 355.163 298.545C353.9 299.497 351.771 301.271 350.443 303.22C349.698 304.314 349.169 305.444 349.432 306.503C349.547 306.964 350.021 307.189 350.497 307.399C351.242 307.727 352.091 307.907 352.679 308.07C352.96 308.147 353.244 308.224 353.531 308.298ZM388.818 314.324C395.885 315.069 402.985 315.321 410.136 314.558C412.626 314.292 416.635 313.753 419.675 312.245C421.467 311.352 422.934 310.134 423.313 308.315C423.821 305.867 422.494 303.661 420.542 301.733C417.298 298.527 412.277 296.123 409.411 294.896C400.111 290.916 388.673 288.304 377.871 289.067C378.598 289.298 379.317 289.564 380.026 289.851C384.968 291.844 388.549 294.881 391.737 299.089C392.091 299.559 392 300.228 391.53 300.579C391.059 300.934 390.391 300.843 390.036 300.372C387.094 296.487 383.794 293.666 379.231 291.826C377.823 291.259 376.377 290.774 374.878 290.516C374.42 290.437 373.961 290.374 373.494 290.398C373.323 290.404 372.9 290.552 372.841 290.564C372.081 290.75 371.729 290.17 371.696 290.126C371.652 290.061 371.616 289.996 371.59 289.925C367.884 290.694 364.33 291.936 361.051 293.743C363.668 293.361 366.291 293.713 368.846 294.553C373.562 296.108 378.054 299.373 381.833 302.717C383.134 303.868 387.008 306.934 388.605 309.77C389.471 311.314 389.684 312.825 388.989 314.061C388.933 314.156 388.877 314.241 388.818 314.324ZM373.568 290.02C373.447 290.244 373.246 290.425 372.986 290.516C373.305 290.401 373.482 290.221 373.568 290.02ZM4.42237 256.489C4.33661 256.379 4.27156 256.249 4.23016 256.104C1.82898 247.059 2.28733 236.635 7.74321 228.588C10.9251 223.893 15.5204 220.56 20.7102 218.611C20.6747 217.547 20.6422 216.485 20.6096 215.423C19.9088 193.144 21.0059 170.697 22.6796 148.477C23.1409 142.35 23.9305 136.253 24.7466 130.164C25.276 126.204 26.1246 121.508 29.41 118.829C33.6121 115.405 40.2242 115.272 45.337 114.748C56.7722 113.58 68.2842 113.796 79.7638 113.926C82.1236 113.953 84.4804 114.006 86.8313 114.08C84.85 97.5705 89.1408 79.1654 90.2379 62.6795C90.4153 60.0299 89.8446 55.0915 90.1019 50.8333C90.2941 47.6869 90.9801 44.9072 92.506 43.405C93.6977 42.231 95.2413 41.5391 96.9239 41.1487C99.2275 40.6105 101.791 40.6431 103.891 40.6017C113.499 40.4124 123.136 40.8116 132.743 40.8707C172.65 41.1162 212.559 40.8234 252.465 40.9003C280.741 40.9536 309.032 41.2168 337.302 41.82C342.601 41.9324 350.574 41.199 357.821 41.7549C362.843 42.1394 367.518 43.1566 370.821 45.3981C373.195 47.0068 374.103 49.7273 374.346 52.8589C374.668 56.9693 373.819 61.819 374.712 65.128C378.681 79.8396 379.391 178.113 374.659 218.44C373.816 225.617 372.787 230.987 371.596 233.784C370.93 235.348 370.105 236.2 369.351 236.451C367.438 237.087 365.51 237.652 363.555 238.152C362.846 238.335 354.637 238.465 341.578 238.518C324.069 238.589 297.733 238.566 269.099 238.521C269.194 238.755 269.274 238.956 269.285 238.986C269.516 239.654 269.729 240.325 269.912 241.008C270.382 242.768 270.826 244.536 271.27 246.302C272.5 251.199 274.582 257.107 274.593 262.326C274.842 261.989 275.279 261.818 275.711 261.924C276.906 262.223 278.044 263.213 278.949 264.636C280.138 266.502 280.969 269.113 281.185 271.402C281.318 272.791 281.211 274.069 280.874 275.03C287.208 275.057 293.56 275.225 299.942 275.598C305.096 275.899 312.347 275.237 317.102 277.461C318.288 278.017 320.378 279.835 322.827 282.355C328.292 287.973 335.747 297.087 339.156 302.162C340.061 303.507 340.688 304.592 340.954 305.275C341.049 305.518 341.105 305.734 341.131 305.926C342.294 307.733 342.394 309.164 341.951 310.255C341.486 311.397 340.36 312.266 338.786 312.828C334.978 314.185 328.357 313.827 326.257 313.872C324.737 313.907 323.217 313.943 321.697 313.987C319.79 314.043 317.886 314.102 315.981 314.161C313.769 314.232 311.554 314.309 309.342 314.386C306.785 314.478 304.227 314.57 301.669 314.661C256.975 316.27 211.352 318.523 166.673 316.057C153.84 315.347 141.041 314.576 128.198 314.15C126.678 314.099 125.632 313.662 124.895 313.026C124.186 312.411 123.745 311.595 123.494 310.648C123.18 309.472 123.168 308.07 123.157 306.713C123.151 305.879 123.109 305.036 123.159 304.202C123.165 304.11 123.242 303.563 123.325 303.179C123.275 303.069 123.225 302.957 123.183 302.842C122.624 301.369 122.873 299.568 123.707 297.649C125.868 292.693 132.025 286.755 133.909 284.469C134.305 283.987 136.892 280.329 138.35 278.969C138.726 278.62 139.066 278.395 139.314 278.295C139.353 278.28 139.388 278.268 139.424 278.256L139.43 278.253C140.5 277.41 141.899 277.005 143.422 276.863C145.548 276.662 147.919 276.97 149.685 276.917C159.925 276.609 171.641 276.399 181.861 276.917C184.277 277.041 186.69 277.133 189.1 277.201C189.074 277.192 189.047 277.18 189.02 277.171C188.559 276.973 188.379 276.662 188.305 276.449C187.308 273.664 188.689 270.446 191.087 267.649C192.318 266.218 193.793 264.893 195.263 263.793C194.769 263.562 194.432 263.06 194.58 262.229C194.66 261.791 194.943 261.132 195.295 260.478C195.706 259.709 196.206 258.937 196.304 258.701C197.294 256.294 197.93 253.765 198.693 251.284C199.802 247.68 200.861 244.084 201.819 240.438C201.887 240.177 202.067 239.231 202.318 238.415C168.974 238.368 139.359 238.362 124.112 238.513C124.339 244.303 124.54 250.099 124.665 255.903C124.75 259.978 125.354 266.176 124.706 271.685C124.248 275.568 123.156 279.111 120.959 281.462C117.97 284.655 113.561 286.501 108.687 287.518C101.641 288.988 93.6297 288.736 87.8752 288.648C81.544 288.55 77.5193 289.127 73.1694 288.426C73.2226 290.173 73.2138 291.915 73.0541 293.633C72.8944 295.339 72.7495 297.992 71.9954 300.127C71.407 301.795 70.44 303.155 68.9762 303.779C67.5006 304.406 65.6465 304.657 64.0645 304.891C63.4612 304.98 62.8491 305.074 62.2399 305.062C62.1364 305.06 61.888 305.08 61.7579 305.092C61.7283 305.098 61.6958 305.101 61.6633 305.101C61.4001 305.119 61.196 305.071 61.0364 304.98C57.7214 306.302 54.0842 306.786 50.6007 307.532C41.203 309.545 32.1246 310.033 22.4844 309.88C18.2498 309.812 14.0153 309.569 9.80432 309.152C8.49136 309.022 7.17249 308.922 5.85657 308.803C5.59339 308.783 5.32724 308.756 5.0611 308.735C5.05223 308.765 5.04041 308.797 5.02563 308.827C4.79201 309.368 4.1651 309.616 3.62394 309.386C1.63676 308.525 0.640214 306.724 0.235089 304.566C-0.282406 301.804 0.208485 298.441 0.258756 296.416C0.486454 287.11 0.229179 277.73 0.823559 268.442C0.95663 266.345 0.879748 263.663 1.45343 261.294C1.88221 259.529 2.66289 257.935 4.04386 256.785C4.16806 256.675 4.29521 256.581 4.42237 256.489ZM3.38443 306.627C3.65352 306.488 3.96993 306.467 4.25086 306.574C4.38097 306.568 4.53178 306.559 4.60275 306.565C5.08476 306.591 5.56381 306.636 6.04582 306.677C7.37061 306.792 8.6954 306.896 10.0202 307.026C14.172 307.44 18.3474 307.677 22.5199 307.745C31.9975 307.895 40.9221 307.422 50.1571 305.444C53.5608 304.716 57.1211 304.267 60.3503 302.957C64.7594 301.165 65.1142 297.12 65.3478 293.021C65.8417 284.395 64.9871 275.704 64.8156 267.069C64.7771 265.245 65.1586 262.205 64.9664 259.499C64.857 257.944 64.5819 256.498 63.7776 255.596C63.6859 255.492 63.541 255.448 63.3813 255.407C63.0827 255.327 62.7367 255.303 62.37 255.306C62.0181 255.309 61.6544 255.333 61.2936 255.371C61.0718 255.424 60.8619 255.475 60.6638 255.516C60.513 255.549 60.3621 255.546 60.2202 255.516C59.5903 255.614 59.0255 255.72 58.6352 255.761C53.1468 256.362 47.6051 256.371 42.0901 256.533C33.1626 256.793 24.2439 257.131 15.3105 257.252C13.7077 257.273 11.7353 257.071 9.83685 257.139C8.17495 257.202 6.56627 257.447 5.41004 258.411C4.10595 259.499 3.57959 261.149 3.31345 262.876C3.01182 264.831 3.05914 266.895 2.94973 268.572C2.36126 277.83 2.61557 287.184 2.39083 296.46C2.34351 298.376 1.84377 301.555 2.33169 304.169C2.51208 305.113 2.81666 305.982 3.38443 306.627ZM60.8501 253.289C62.2429 252.958 64.023 252.464 65.679 252.364C67.1901 252.272 68.6007 252.515 69.6504 253.298C70.1325 253.659 70.4696 254.182 70.6884 254.789C70.9279 255.451 71.0225 256.214 71.132 256.802C71.5962 259.289 71.9866 261.77 72.1906 264.296C72.374 266.564 72.4745 268.841 72.5425 271.121C82.4784 271.62 87.9875 272.085 98.0654 271.895C100.1 271.857 102.814 272.111 105.29 271.845C106.759 271.685 108.14 271.351 109.178 270.574C109.947 269.997 110.163 269.199 110.216 268.359C110.263 267.64 110.195 266.886 110.148 266.156C109.852 261.687 109.385 257.234 109.019 252.772C107.351 232.453 106.86 212.546 107.496 192.145C107.969 176.922 110.039 161.891 111.136 146.724C111.251 145.115 112.165 140.57 112.085 136.888C112.061 135.771 111.946 134.741 111.665 133.925C111.467 133.352 111.207 132.89 110.745 132.71C101.469 129.102 89.8121 130.031 80.1334 129.992C69.1714 129.951 58.1946 130.368 47.2384 130.232C45.408 130.208 42.2409 129.703 39.4405 129.812C37.8407 129.874 36.3622 130.096 35.478 130.897C35.1912 131.157 35.061 131.598 34.9605 132.121C34.8245 132.843 34.7979 133.701 34.8304 134.614C34.9369 137.622 35.6525 141.155 35.6672 142.669C35.8062 156.124 35.685 169.579 35.2681 183.028C34.9191 194.233 34.4756 205.419 33.825 216.603C35.5756 216.689 37.3203 216.911 39.0354 217.269C39.0857 213.957 39.1981 210.648 39.4524 207.353C39.544 206.162 39.4435 204.331 39.5943 202.687C39.7126 201.398 40.0024 200.212 40.5435 199.399C41.2917 198.275 42.5071 197.568 43.9117 197.169C45.7303 196.649 47.8683 196.637 49.3705 196.622C62.1068 196.513 74.8461 198.364 87.5883 198.55C90.7643 198.597 93.9372 198.553 97.1132 198.512C97.5775 198.506 98.7159 198.417 99.5114 198.586C100.141 198.722 100.608 199.026 100.857 199.405C101.371 200.188 101.638 201.229 101.744 202.341C101.88 203.764 101.759 205.319 101.771 206.431C101.824 211.745 101.573 217.085 101.327 222.393C101.111 227.045 100.594 231.67 100.307 236.315C100.277 236.818 100.399 238.563 100.203 239.731C100.056 240.603 99.6711 241.221 99.2482 241.476C98.713 241.798 97.9559 241.966 97.1368 242.02C96.1817 242.079 95.1289 241.993 94.4429 242.017C90.6637 242.156 86.8756 242.147 83.0964 242.147C74.9614 242.15 66.8205 241.851 58.7032 241.292C58.7002 242.732 58.6618 244.193 58.6233 245.669C58.5731 247.721 58.443 249.773 58.3809 251.826C58.369 252.163 58.2626 252.822 58.2419 253.411C58.2389 253.484 58.2419 253.579 58.2478 253.662C58.304 253.656 58.3602 253.65 58.4163 253.644C58.9752 253.582 59.8831 253.405 60.8501 253.289ZM56.1068 253.863C56.1009 253.801 56.1009 253.739 56.098 253.677C56.0832 253.017 56.2281 252.163 56.2399 251.757C56.305 249.711 56.4321 247.665 56.4824 245.616C56.6835 237.628 57.2158 230.049 50.0122 224.511C45.1803 220.799 39.1537 218.865 33.1034 218.679C32.9556 218.741 32.7929 218.771 32.6244 218.762C32.4854 218.753 32.3553 218.721 32.237 218.664C28.9694 218.653 25.7136 219.152 22.65 220.155C22.4637 220.394 22.1739 220.554 21.8457 220.563C21.7481 220.566 21.6505 220.557 21.5618 220.533C16.7388 222.331 12.4657 225.421 9.51157 229.783C4.40463 237.318 4.04681 247.085 6.29422 255.557C6.29422 255.56 6.29719 255.563 6.29719 255.563C7.00985 255.327 7.77278 255.179 8.56233 255.093C9.68604 254.975 10.8659 254.987 12.0133 255.028C11.9985 254.913 11.9896 254.812 11.9778 254.738C11.7619 253.476 11.7146 252.189 11.6555 250.915C11.3953 245.346 11.7501 239.503 15.8043 235.121C17.5401 233.243 19.7314 231.764 22.0764 230.638C23.7915 229.816 25.6219 229.192 27.5086 228.831C28.9103 228.568 30.2232 228.479 31.4475 228.55C31.6101 228.47 31.7964 228.429 31.9886 228.441C32.2134 228.455 32.4144 228.535 32.5771 228.662C37.4593 229.357 40.8925 232.649 43.1931 236.966C46.0053 242.239 47.0817 249.069 47.0699 254.277C50.0832 254.203 53.1024 254.105 56.1068 253.863ZM44.9349 254.33C44.9526 249.421 43.9649 242.951 41.3094 237.971C39.4435 234.47 36.7259 231.72 32.9024 230.913C32.7811 233.036 32.6835 235.159 32.6185 237.279C32.6096 237.587 31.7402 251.083 31.7639 254.721C35.1852 254.614 38.6096 254.502 42.031 254.401C42.9979 254.375 43.9649 254.351 44.9349 254.33ZM29.6318 254.786C29.6081 251.131 30.4775 237.525 30.4864 237.217C30.5514 235.038 30.6549 232.856 30.7821 230.673C29.8772 230.656 28.9162 230.735 27.9019 230.928C26.3937 231.211 24.9241 231.688 23.5372 232.309C23.5549 232.551 23.5756 232.791 23.5963 233.033C23.7264 234.6 23.3864 244.06 23.5697 250.285C23.617 251.834 23.6939 253.177 23.824 254.132C23.8713 254.475 23.9068 254.753 23.963 254.945C25.8496 254.898 27.7422 254.842 29.6318 254.786ZM21.8013 254.998C21.7984 254.972 21.7925 254.948 21.7865 254.922C21.6032 253.904 21.4938 252.278 21.4347 250.35C21.2572 244.338 21.5766 235.283 21.4761 233.355C19.9472 234.234 18.5367 235.295 17.3598 236.567C13.7107 240.509 13.5421 245.805 13.7757 250.814C13.829 252.003 13.8704 253.204 14.0685 254.378C14.0862 254.481 14.1217 254.786 14.1395 254.936C14.1868 254.99 14.2282 255.049 14.2637 255.111C14.6156 255.12 14.9556 255.126 15.2809 255.12C17.4573 255.093 19.6308 255.052 21.8013 254.998ZM64.5405 302.664C65.7559 302.484 67.0659 302.268 68.1453 301.81C69.0827 301.413 69.612 300.476 69.9875 299.411C70.6825 297.445 70.786 294.999 70.9338 293.426C71.3212 289.295 70.8008 285.031 70.6529 280.894C70.4607 275.426 70.5021 269.923 70.0644 264.467C69.8693 262.016 69.4878 259.609 69.0354 257.196C68.9555 256.773 68.8964 256.243 68.7574 255.75C68.6746 255.46 68.5918 255.167 68.373 255.004C67.6987 254.502 66.7761 254.431 65.8091 254.487C65.75 254.49 65.6938 254.496 65.6347 254.499C66.5277 255.705 66.9565 257.444 67.0925 259.342C67.2907 262.087 66.9092 265.168 66.9447 267.022C67.1191 275.71 67.9678 284.457 67.474 293.136C67.2729 296.735 66.8264 300.21 64.5405 302.664ZM73.0748 286.243C73.0866 286.246 73.0955 286.246 73.1073 286.249C77.5282 287.045 81.5144 286.415 87.9106 286.512C93.5351 286.598 101.368 286.864 108.259 285.427C112.674 284.508 116.698 282.896 119.407 280.001C121.326 277.949 122.195 274.823 122.595 271.434C123.23 266.029 122.624 259.946 122.538 255.945C122.065 233.814 120.466 211.801 120.652 189.634C120.794 172.918 121.953 156.216 121.796 139.497C121.761 135.951 121.965 131.225 121.057 127.062C120.492 124.465 119.502 122.088 117.656 120.438C114.516 117.629 110.21 117.72 106.254 117.38C97.4118 116.62 88.6204 116.162 79.7401 116.061C68.3404 115.931 56.9112 115.712 45.5529 116.875C43.1133 117.123 40.3129 117.256 37.6219 117.738C35.0847 118.19 32.6421 118.948 30.7555 120.485C27.8871 122.821 27.3193 126.994 26.858 130.451C26.0478 136.498 25.2612 142.554 24.8028 148.64C23.135 170.783 22.0379 193.156 22.7358 215.355C22.7624 216.207 22.789 217.056 22.8186 217.904C25.6752 217.062 28.6707 216.615 31.684 216.571C32.3346 205.378 32.7811 194.182 33.1301 182.969C33.547 169.55 33.6653 156.124 33.5263 142.696C33.5086 140.925 32.5386 136.395 32.6954 133.159C32.7811 131.441 33.2276 130.051 34.0379 129.321C35.2355 128.236 37.1872 127.769 39.3489 127.686C42.1877 127.576 45.4021 128.082 47.2562 128.103C58.2034 128.242 69.1743 127.822 80.1305 127.863C90.0545 127.902 101.998 127.029 111.505 130.726C112.913 131.273 113.768 132.828 114.063 134.948C114.613 138.902 113.392 144.949 113.253 146.88C112.159 162.018 110.092 177.022 109.619 192.213C108.986 212.534 109.477 232.362 111.136 252.6C111.503 257.074 111.967 261.54 112.265 266.017C112.419 268.32 112.514 270.727 110.45 272.283C109.128 273.276 107.383 273.767 105.508 273.968C102.968 274.24 100.183 273.989 98.0949 274.028C88.0171 274.217 82.4784 273.758 72.5898 273.259C72.6489 275.781 72.6874 278.304 72.7791 280.82C72.8471 282.609 72.9772 284.425 73.0748 286.243ZM124.032 236.378C162.066 236.005 290.038 236.596 341.572 236.389C354.323 236.339 362.337 236.265 363.029 236.091C364.933 235.603 366.814 235.05 368.68 234.432C368.878 234.367 369.011 234.133 369.194 233.834C369.508 233.317 369.804 232.601 370.093 231.711C371.037 228.798 371.847 224.135 372.542 218.191C377.25 178.075 376.602 80.3187 372.657 65.6839C371.883 62.8067 372.317 58.8175 372.302 55.0856C372.288 51.8328 371.989 48.7604 369.629 47.1576C366.592 45.0994 362.275 44.23 357.659 43.8782C350.452 43.3252 342.527 44.0615 337.261 43.9491C309.005 43.3429 280.726 43.0856 252.462 43.0295C212.553 42.9526 172.644 43.2453 132.732 42.9999C123.142 42.9407 113.525 42.5415 103.935 42.7308C102.282 42.7633 100.328 42.7367 98.4616 43.0206C96.7761 43.2779 95.1615 43.7806 94.0023 44.922C92.7751 46.1315 92.3848 48.4232 92.231 50.9575C91.9737 55.2216 92.5415 60.1659 92.367 62.8185C91.2699 79.2541 86.9436 97.6089 88.9752 114.051C88.9811 114.086 88.9811 114.121 88.9841 114.154C93.2039 114.317 97.4118 114.556 101.629 114.867C101.365 114.692 101.185 114.402 101.156 114.062C100.079 99.9865 103.172 85.3014 104.757 71.3705C105.154 67.887 105.763 64.4094 105.961 60.9052C106.008 60.095 105.834 58.4538 106.011 57.2088C106.121 56.4518 106.366 55.816 106.733 55.402C107.194 54.8757 108.17 54.4794 109.418 54.3168C111.612 54.0299 114.77 54.2902 115.861 54.234C124.848 53.7638 133.87 53.4503 142.866 53.2108C182.524 52.161 222.279 55.4819 261.893 56.8658C285.585 57.6938 309.289 58.3503 332.999 58.1995C338.582 58.161 344.162 58.0575 349.743 57.8594C350.047 57.8505 353.359 57.4602 354.77 57.4691C355.258 57.472 355.609 57.5489 355.766 57.6199C356.047 57.7441 356.204 57.9245 356.299 58.0841C356.438 58.3148 356.615 58.9831 356.704 60.0625C356.866 62.0023 356.934 65.6159 356.934 70.4271C356.931 97.6563 354.79 163.594 355.947 180.047C356.316 185.296 356.843 190.581 356.934 195.844C356.949 196.634 357.195 198.021 357.195 199.254C357.192 200.345 356.97 201.327 356.482 201.936C356.062 202.462 355.071 202.867 353.77 202.989C351.567 203.196 348.338 202.82 347.377 202.838C339.333 202.968 335.424 202.456 327.378 202.566C293.779 203.027 260.399 202.045 226.833 200.768C200.932 199.783 175.057 198.911 149.132 199.112C142.694 199.162 136.254 199.248 129.813 199.334C129.086 199.343 124.396 199.89 122.811 199.822C122.973 212.023 123.544 224.194 124.032 236.378ZM122.787 197.639C122.822 197.648 122.858 197.666 122.893 197.681C123.538 197.63 129.086 197.211 129.786 197.199C136.23 197.116 142.673 197.027 149.114 196.977C175.072 196.779 200.979 197.651 226.913 198.636C260.444 199.91 293.785 200.892 327.348 200.434C335.389 200.324 339.301 200.836 347.341 200.706C348.152 200.691 350.609 200.966 352.658 200.916C353.27 200.901 353.841 200.857 354.305 200.759C354.509 200.715 354.787 200.596 354.835 200.576C355.059 200.271 355.059 199.774 355.059 199.248C355.062 198.03 354.814 196.66 354.799 195.88C354.708 190.652 354.181 185.406 353.815 180.192C352.658 163.718 354.796 97.6917 354.799 70.4242C354.799 65.6957 354.737 62.1443 354.577 60.2369C354.56 60.0388 354.536 59.8318 354.512 59.6514C353.238 59.746 350.077 59.9796 349.817 59.9885C344.216 60.1866 338.615 60.2931 333.011 60.3286C309.274 60.4823 285.538 59.8229 261.816 58.9949C222.247 57.611 182.535 54.2902 142.922 55.3429C133.944 55.5824 124.943 55.8929 115.974 56.3631C115.051 56.4104 112.632 56.2241 110.601 56.3483C109.991 56.3867 109.424 56.4518 108.953 56.5671C108.684 56.6352 108.454 56.6795 108.335 56.8126C108.123 57.0551 108.108 57.5016 108.075 57.9747C108.001 59.0866 108.128 60.3552 108.09 61.0294C107.889 64.572 107.277 68.091 106.878 71.6129C105.307 85.4138 102.217 99.9599 103.285 113.903C103.32 114.355 103.063 114.766 102.676 114.947C103.929 115.041 105.183 115.145 106.437 115.251C110.84 115.63 115.58 115.715 119.079 118.844C121.246 120.784 122.476 123.549 123.142 126.603C124.079 130.915 123.893 135.803 123.928 139.47C124.088 156.204 122.929 172.918 122.784 189.649C122.76 192.317 122.763 194.978 122.787 197.639ZM204.808 238.415C204.726 238.513 204.625 238.598 204.51 238.66C204.4 239.066 203.954 240.707 203.883 240.976C202.916 244.649 201.848 248.274 200.733 251.905C199.95 254.451 199.293 257.042 198.276 259.508C198.17 259.768 197.631 260.629 197.176 261.478C197.093 261.634 197.002 261.826 196.925 262.01C197.244 262.048 197.575 262.054 197.915 262.039C198.297 261.821 198.666 261.628 199.015 261.46C200.183 260.898 201.183 260.632 201.828 260.652C202.783 260.685 203.738 260.718 204.693 260.732C205.994 260.753 207.295 260.768 208.596 260.78C209.847 260.655 211.095 260.537 212.343 260.416C225.227 259.162 238.336 257.734 251.291 258.698C256.108 259.059 260.934 259.479 265.719 260.156C266.55 260.274 267.934 260.756 269.179 260.919C269.696 260.984 270.19 261.055 270.501 260.815C270.944 260.475 271.071 259.875 271.134 259.266C271.222 258.432 271.134 257.545 271.069 256.879C270.628 252.452 269.554 247.949 268.277 243.693C268.103 243.117 266.884 240.509 266.686 239.122C266.654 238.903 266.648 238.702 266.659 238.518C246.329 238.486 224.943 238.442 204.808 238.415ZM244.845 275.961C255.969 275.474 267.097 275.042 278.284 275.024C278.603 274.941 278.76 274.628 278.887 274.252C279.124 273.546 279.156 272.614 279.062 271.6C278.875 269.633 278.171 267.383 277.148 265.777C276.581 264.884 275.942 264.177 275.191 263.991C274.895 263.917 274.661 263.728 274.522 263.482C274.354 264.098 273.78 264.58 272.813 264.695C271.633 264.837 269.64 264.441 269.294 264.408C264.439 263.959 259.571 263.527 254.701 263.267C239.362 262.447 224.03 263.024 208.688 262.912C206.346 263.142 204.004 263.385 201.674 263.675C200.766 263.787 199.707 263.979 198.646 264.077C196.703 265.23 194.438 267.016 192.708 269.03C190.99 271.032 189.733 273.244 190.183 275.272C190.366 275.308 190.608 275.346 190.848 275.376C192.32 275.547 194.89 275.684 198.247 275.79C209.093 276.124 228.06 276.136 244.845 275.961ZM125.265 305.24C125.268 305.725 125.286 306.207 125.289 306.692C125.297 307.555 125.294 308.439 125.395 309.256C125.507 310.152 125.714 310.971 126.368 311.476C126.806 311.817 127.421 311.994 128.269 312.021C141.13 312.446 153.943 313.218 166.792 313.928C211.409 316.391 256.966 314.135 301.595 312.529C304.153 312.438 306.714 312.343 309.269 312.254C311.483 312.174 313.698 312.1 315.913 312.026C317.82 311.967 319.728 311.908 321.635 311.852C323.158 311.805 324.684 311.769 326.21 311.734C328.197 311.692 334.463 312.097 338.071 310.811C338.973 310.492 339.706 310.101 339.972 309.445C340.141 309.031 340.091 308.552 339.842 307.981C339.289 308.265 338.517 308.502 337.61 308.676C334.123 309.338 328.398 309.191 327.215 309.232C315.147 309.658 303.032 310.654 290.952 310.297C255.402 309.247 219.978 308.15 184.395 307.86C166.469 307.712 145.441 310.436 127.873 306.257C126.817 306.006 125.954 305.66 125.265 305.24ZM338.958 306.035C338.914 305.92 338.852 305.772 338.786 305.642C338.491 305.054 338.009 304.27 337.388 303.344C334.028 298.347 326.683 289.369 321.301 283.836C319.101 281.574 317.265 279.889 316.2 279.389C311.661 277.266 304.732 278.011 299.818 277.721C292.676 277.304 285.573 277.144 278.494 277.15C275.794 277.549 261.408 277.904 244.945 278.079C223.982 278.995 203.037 280.116 181.761 279.04C171.594 278.525 159.94 278.735 149.756 279.04C148.298 279.084 146.423 278.877 144.622 278.922C143.093 278.96 141.606 279.149 140.612 280.042C140.462 280.178 140.278 280.267 140.086 280.3C139.926 280.447 139.299 281.033 138.865 281.539C137.493 283.147 135.866 285.448 135.562 285.818C133.743 288.027 127.755 293.713 125.67 298.498C125.09 299.825 124.798 301.061 125.185 302.082C125.561 303.072 126.587 303.755 128.382 304.181C145.802 308.324 166.653 305.58 184.428 305.725C220.026 306.018 255.467 307.115 291.032 308.164C303.065 308.519 315.135 307.523 327.156 307.1C328.301 307.059 333.851 307.221 337.225 306.579C337.855 306.461 338.402 306.316 338.801 306.124C338.846 306.106 338.905 306.068 338.958 306.035ZM123.775 303.921C123.766 303.912 123.754 303.9 123.745 303.891C123.754 303.9 123.766 303.909 123.775 303.921ZM234.938 260.688C241.565 260.691 248.192 260.783 254.819 261.137C255.079 261.152 255.337 261.167 255.594 261.179C254.106 261.052 252.619 260.933 251.132 260.824C245.75 260.425 240.344 260.44 234.938 260.688ZM271.695 262.581C271.944 262.589 272.242 262.578 272.458 262.566C272.461 262.323 272.461 262.075 272.455 261.826C272.272 262.081 272.053 262.311 271.799 262.507C271.766 262.533 271.731 262.557 271.695 262.581ZM58.6618 239.154C66.7879 239.719 74.9407 240.018 83.0876 240.018C86.8431 240.018 90.6016 240.027 94.3571 239.891C95.0284 239.864 96.0575 239.953 96.9949 239.894C97.3705 239.87 97.7282 239.837 98.0062 239.722C98.0417 239.571 98.1245 239.213 98.1482 238.953C98.2398 237.889 98.1511 236.602 98.1748 236.188C98.4616 231.554 98.9791 226.941 99.192 222.302C99.4345 217.035 99.6859 211.733 99.6326 206.46C99.6238 205.396 99.745 203.911 99.6149 202.551C99.5498 201.868 99.4316 201.214 99.1418 200.706C99.0235 200.679 98.7455 200.626 98.5622 200.62C98.0033 200.593 97.4207 200.644 97.1339 200.647C93.9372 200.688 90.7465 200.735 87.5469 200.688C74.8224 200.502 62.1009 198.651 49.3794 198.76C48.0339 198.772 46.1177 198.757 44.4883 199.224C43.5953 199.479 42.7821 199.872 42.306 200.588C41.9304 201.155 41.7885 201.995 41.7057 202.891C41.5549 204.526 41.6554 206.342 41.5637 207.528C41.3006 210.937 41.1912 214.368 41.1468 217.798C44.6924 218.792 48.0605 220.397 51.0236 222.615C51.0058 222.467 51.0176 222.311 51.0679 222.16C51.2099 221.722 51.5529 221.326 52.0586 221.039C52.715 220.666 53.7175 220.468 54.1611 220.353C56.5327 219.735 58.9753 219.336 61.403 219.022C68.438 218.114 75.5321 218.085 82.5996 218.534C86.7603 218.797 91.1309 219.081 95.0728 220.581C95.6228 220.791 95.8978 221.406 95.6908 221.956C95.4809 222.506 94.8658 222.781 94.3157 222.574C90.575 221.151 86.4202 220.909 82.4666 220.66C75.5351 220.223 68.577 220.246 61.6781 221.137C59.336 221.438 56.9851 221.82 54.6993 222.417C54.439 222.482 53.9422 222.574 53.4839 222.733C53.339 222.784 53.1231 222.902 53.0492 222.94C52.8895 223.289 52.5583 223.514 52.1916 223.555C57.2808 227.902 58.4725 233.296 58.6618 239.154ZM51.6889 215.675C51.2779 215.864 50.7781 215.778 50.4558 215.429C50.1719 215.119 50.095 214.764 50.2311 214.362C50.2518 214.294 50.3996 213.847 51.0029 213.655C51.5913 213.463 54.7407 212.718 54.9979 212.67C57.7303 212.141 60.507 211.813 63.2601 211.411C63.8427 211.325 64.3838 211.73 64.4696 212.31C64.5553 212.892 64.1502 213.433 63.5706 213.519C60.8501 213.915 58.1029 214.238 55.406 214.761C55.1783 214.805 52.032 215.589 51.6889 215.675ZM52.0881 215.355C52.2241 215.181 52.2744 215.006 52.2951 214.87C52.2655 215.042 52.1975 215.211 52.0881 215.355ZM52.2981 214.853C52.3395 214.536 52.2626 214.244 52.026 213.986C52.2478 214.229 52.3365 214.548 52.2981 214.853ZM51.5322 207.717C51.0058 207.868 50.441 207.59 50.2458 207.067C50.1364 206.783 50.1394 206.484 50.3079 206.176C50.3464 206.106 50.5356 205.736 51.0916 205.629C51.4228 205.564 53.1556 205.393 53.2887 205.381C54.6224 205.26 55.956 205.195 57.2986 205.165C60.9683 205.094 64.6352 205.094 68.3049 205.1C68.8934 205.1 69.3695 205.579 69.3695 206.165C69.3695 206.753 68.8934 207.229 68.3049 207.229C64.65 207.226 60.995 207.223 57.34 207.294C56.0507 207.321 54.7643 207.386 53.4809 207.501C53.3626 207.51 51.7806 207.688 51.5322 207.717ZM51.8782 207.543C52.4134 207.143 52.3661 206.664 52.236 206.313C52.4105 206.768 52.2478 207.265 51.8782 207.543ZM29.617 282.86C28.6796 282.34 27.9403 281.491 27.3962 280.495C26.6362 279.114 26.2548 277.452 26.1424 276.183C25.8408 272.744 27.7304 268.731 30.6756 266.191C33.7067 263.577 37.7905 262.516 41.6643 264.973C46.1709 267.832 45.8693 273.318 43.7698 277.464C43.4415 278.111 42.859 278.886 42.3415 279.685C41.96 280.273 41.5874 280.861 41.5608 281.409C41.5194 282.299 41.8802 283.36 42.3444 284.454C43.1488 286.362 44.2902 288.34 44.8254 289.798C45.0975 290.531 45.544 291.477 45.6416 292.365C45.7362 293.207 45.5618 294.006 44.9496 294.674C44.4499 295.218 43.8023 295.546 43.0807 295.733C42.2498 295.949 41.3094 295.96 40.514 296.031C37.1251 296.345 33.7777 296.573 30.3681 296.478C29.7708 296.46 27.9462 296.587 26.7427 296.354C25.8526 296.179 25.2345 295.753 24.9891 295.266C24.6372 294.577 24.6579 293.754 24.9359 292.921C25.2198 292.066 25.7846 291.191 26.0685 290.573C27.2631 288.009 28.4016 285.418 29.617 282.86ZM30.9211 281.187C31.131 281.151 31.3588 281.178 31.5657 281.281C32.0951 281.539 32.3139 282.177 32.0566 282.704C30.6461 285.599 29.3597 288.553 28.0024 291.475C27.7777 291.957 27.3666 292.604 27.0827 293.27C26.997 293.474 26.9231 293.678 26.8817 293.876C26.861 293.979 26.8403 294.08 26.8521 294.171C27.0059 294.213 27.3371 294.299 27.5796 294.325C28.6441 294.435 29.9512 294.334 30.4273 294.349C33.7511 294.443 37.0128 294.219 40.3159 293.911C40.9102 293.858 41.5904 293.849 42.2321 293.737C42.6638 293.663 43.0867 293.55 43.3765 293.234C43.613 292.98 43.548 292.646 43.4711 292.317C43.3232 291.687 43.0127 291.052 42.8205 290.534C42.2942 289.1 41.1675 287.16 40.375 285.285C39.7747 283.863 39.3755 282.467 39.4287 281.311C39.4612 280.592 39.7806 279.803 40.239 279.022C40.7683 278.123 41.4928 277.233 41.8624 276.506C43.4888 273.291 44.0093 268.992 40.5169 266.777C37.5332 264.884 34.3987 265.798 32.0625 267.809C29.6407 269.899 28.0142 273.17 28.2597 276C28.3484 277.02 28.6471 278.36 29.2592 279.472C29.6111 280.116 30.0694 280.69 30.6816 281.018C30.7732 281.062 30.8531 281.122 30.9211 281.187ZM39.4701 152.54C39.4701 152.537 39.4701 152.508 39.4701 152.502C39.4642 152.348 39.4464 151.742 39.4819 151.594C39.5174 151.458 39.5677 151.346 39.6268 151.254C39.3518 150.751 39.5263 150.115 40.0231 149.826C40.5287 149.53 41.1882 149.406 41.892 149.4C42.6549 149.397 43.4829 149.536 44.0802 149.551C46.3838 149.604 48.6904 149.492 50.994 149.432C55.0393 149.329 59.0788 149.119 63.1152 148.868C63.9787 148.814 65.1408 148.619 66.2084 148.658C67.1103 148.69 67.953 148.885 68.6036 149.329C69.2512 149.77 69.7539 150.624 70.0349 151.718C70.5553 153.741 70.4075 156.639 70.1443 157.908C69.7924 159.605 68.713 160.312 67.3439 160.525C65.8713 160.755 63.9462 160.241 62.6776 160.187C57.9107 159.989 53.0788 160.158 48.3267 160.578C47.0877 160.687 45.4997 161.036 43.9945 161.137C42.8323 161.211 41.7175 161.14 40.7831 160.788C39.9669 160.48 39.4524 159.779 39.2306 158.821C38.8964 157.378 39.3104 155.202 39.3814 154.205C39.4198 153.649 39.4642 153.093 39.4701 152.54ZM41.5785 151.532C41.6318 151.721 41.6318 151.922 41.5815 152.115C41.5904 152.262 41.6022 152.484 41.6022 152.523C41.5963 153.135 41.5519 153.747 41.5076 154.356C41.4543 155.116 41.135 156.645 41.2385 157.875C41.2592 158.117 41.2946 158.342 41.3656 158.537C41.4041 158.644 41.4366 158.75 41.5342 158.789C42.3976 159.114 43.477 159.064 44.5593 158.942C45.8279 158.803 47.1054 158.543 48.1404 158.455C52.9841 158.026 57.9077 157.854 62.7663 158.058C63.7658 158.1 65.1911 158.466 66.439 158.458C67.1842 158.455 67.8821 158.321 68.0595 157.47C68.2517 156.547 68.3671 154.601 68.1187 152.984C68.0447 152.49 67.9353 152.032 67.7756 151.65C67.6751 151.411 67.5716 151.201 67.406 151.088C66.9535 150.781 66.3207 150.766 65.682 150.784C64.8185 150.807 63.9373 150.949 63.2512 150.991C59.1882 151.245 55.1221 151.455 51.0531 151.559C48.717 151.618 46.3779 151.73 44.0388 151.677C43.5421 151.665 42.8826 151.567 42.2321 151.535C42.0044 151.529 41.7826 151.517 41.5785 151.532ZM40.0881 152.789C39.9876 152.741 39.893 152.676 39.8102 152.594C39.9048 152.685 39.9994 152.744 40.0881 152.789ZM75.4109 151.248C74.9851 151.142 74.6509 150.778 74.6066 150.317C74.5504 149.731 74.9792 149.211 75.5647 149.154C77.3922 148.977 79.406 149.361 81.3192 149.175C82.2241 149.086 83.3094 148.805 84.3473 148.746C85.2197 148.696 86.0624 148.8 86.7928 149.163C87.3931 149.462 87.7687 150.045 87.9343 150.784C88.0733 151.42 88.0378 152.194 88.0822 152.67C88.2004 153.883 88.5553 155.693 88.3217 157.186C88.1206 158.484 87.5173 159.569 86.2694 160.149C84.1019 161.157 81.1211 160.859 78.7761 161.104C78.371 161.146 77.333 161.347 76.6085 161.258C75.9639 161.178 75.4848 160.882 75.2276 160.483C74.9969 160.122 74.8461 159.493 74.8343 158.735C74.8165 157.529 75.0827 155.882 75.0915 155.172C75.0974 154.72 74.8668 153.244 74.8993 152.472C74.9171 152.032 75.0324 151.706 75.1448 151.532C75.2217 151.42 75.3104 151.325 75.4109 151.248ZM76.6588 151.23C77.0669 151.514 77.2177 152.038 77.0432 152.487C77.0639 152.733 77.2325 154.755 77.2266 155.199C77.2206 155.808 77.0196 157.106 76.9752 158.227C76.9604 158.537 76.9604 158.836 76.99 159.087C76.993 159.102 76.993 159.12 76.9959 159.138C77.1586 159.141 77.3892 159.144 77.543 159.126C77.9599 159.081 78.3503 159.008 78.5602 158.984C79.6928 158.866 80.9851 158.889 82.2537 158.821C83.3626 158.762 84.4567 158.641 85.3764 158.215C86.1186 157.872 86.2458 157.077 86.2724 156.26C86.3138 155.075 86.0536 153.788 85.9649 152.874C85.9294 152.511 85.956 151.961 85.8909 151.452C85.8732 151.319 85.8111 151.112 85.7874 151.044C85.2611 150.807 84.6401 150.84 84.0161 150.914C83.1497 151.014 82.2744 151.221 81.5262 151.295C79.9205 151.452 78.2409 151.207 76.6588 151.23ZM43.2434 179.633C42.9004 179.953 42.374 180.015 41.9571 179.758C41.4573 179.45 41.3035 178.791 41.614 178.291C41.7619 178.051 42.0901 177.773 42.5662 177.605C43.0453 177.439 43.752 177.339 43.9856 177.283C45.9994 176.786 48.1108 176.561 50.163 176.283C50.7456 176.203 51.2838 176.614 51.3607 177.197C51.4405 177.779 51.0324 178.318 50.4499 178.394C48.4716 178.663 46.4371 178.873 44.4972 179.35C44.3079 179.397 43.4415 179.589 43.2434 179.633ZM46.7387 186.39C46.4223 186.663 45.961 186.733 45.5647 186.532C45.0383 186.269 44.8255 185.628 45.0916 185.104C45.201 184.879 45.4169 184.643 45.7569 184.477C46.165 184.282 46.993 184.181 47.2237 184.137C49.1014 183.776 50.9851 183.504 52.8866 183.303C60.5721 182.493 68.3227 182.147 76.0349 181.706C76.6233 181.671 77.126 182.123 77.1586 182.709C77.1941 183.297 76.7416 183.8 76.1561 183.833C68.4765 184.27 60.7613 184.616 53.1083 185.421C51.266 185.616 49.4445 185.879 47.6229 186.228C47.5017 186.257 46.928 186.358 46.7387 186.39ZM59.7618 170.215C60.3592 170.455 61.0689 170.531 61.7845 170.564C62.7811 170.605 63.7954 170.537 64.6322 170.528C68.5356 170.496 72.439 170.549 76.3454 170.511C76.9338 170.505 77.4129 170.978 77.4217 171.566C77.4277 172.155 76.9545 172.637 76.366 172.643C72.4597 172.681 68.5563 172.628 64.65 172.661C62.787 172.675 60.1463 172.879 58.4282 171.939C57.6446 171.51 57.4021 170.981 57.3518 170.523C57.3015 170.067 57.4612 169.573 57.8456 169.106C57.9521 168.976 58.0822 168.843 58.2182 168.71C58.1325 168.713 58.0615 168.716 58.0231 168.716C56.1364 168.778 54.2527 168.84 52.3691 168.914C49.4533 169.029 46.5347 169.165 43.6189 169.319C43.5243 169.325 41.543 169.417 41.2858 169.431C41.2237 169.443 41.1586 169.452 41.0906 169.452C40.5021 169.461 40.0172 168.994 40.0053 168.405C40.0024 168.317 40.0763 167.421 41.0167 167.314C41.4129 167.27 43.3972 167.196 43.5066 167.19C46.4312 167.036 49.3587 166.9 52.2833 166.785C54.1729 166.711 56.0625 166.649 57.9491 166.587C58.2508 166.578 59.2473 166.442 59.8831 166.581C60.5751 166.732 61.0038 167.146 61.1458 167.666C61.3055 168.243 61.0423 168.964 60.3858 169.603C60.2231 169.766 59.9659 170.017 59.7618 170.215ZM41.7855 169.177C42.0753 168.917 42.1404 168.624 42.1374 168.367C42.1463 168.686 42.0073 168.976 41.7855 169.177ZM232.821 186.757C233.167 186.71 235.613 186.37 235.71 186.358C239.167 185.947 242.633 185.636 246.105 185.429C255.07 184.9 264.128 184.823 273.106 185.063C273.694 185.077 274.159 185.568 274.144 186.157C274.129 186.745 273.638 187.21 273.05 187.195C264.131 186.955 255.136 187.032 246.229 187.559C242.798 187.76 239.374 188.07 235.962 188.475C235.846 188.49 233.362 188.874 232.851 188.892C231.984 188.922 231.73 188.221 231.697 188.094C231.547 187.523 231.884 186.94 232.454 186.79C232.576 186.754 232.703 186.745 232.821 186.757ZM139.332 75.0462C139.264 74.9249 139.217 74.7889 139.202 74.641C139.14 74.0555 139.563 73.5292 140.145 73.4641C152.731 72.0831 166.567 73.7687 179.229 73.8249C182.201 73.8367 191.611 73.6149 198.119 74.437C201.156 74.8214 203.587 75.4927 204.663 76.4064C206.529 77.9914 206.867 80.3039 206.538 82.8589C206.322 84.5208 205.835 86.2861 205.45 87.9658C205.107 89.4621 204.832 90.8756 205.021 92.0348C207.346 106.182 207.615 160.684 207.118 173.492C207.041 175.505 207.041 179.172 205.832 181.967C204.915 184.078 203.356 185.725 200.739 186.104C193.533 187.15 184.591 185.684 177.289 185.568C169.14 185.441 160.99 185.506 152.837 185.361C147.659 185.27 141.127 185.054 136.919 182.212C135.071 180.964 134.198 178.82 133.885 176.389C133.477 173.187 134.042 169.482 134 167.267C133.758 154.572 133.944 141.865 133.82 129.164C133.684 115.242 134.255 101.302 135.576 87.4187C135.86 84.4439 136.215 81.469 136.694 78.5089C136.744 78.2014 136.857 76.3532 137.244 75.5696C137.525 75.0047 137.957 74.7386 138.368 74.6824C138.746 74.6263 139.101 74.7771 139.332 75.0462ZM139.45 75.2147C139.512 75.3241 139.557 75.4513 139.577 75.5873C139.634 75.9924 139.453 76.3768 139.146 76.6016C139.086 76.989 138.838 78.6361 138.803 78.849C138.332 81.7618 137.983 84.6923 137.706 87.6228C136.393 101.43 135.825 115.298 135.958 129.144C136.082 141.836 135.896 154.536 136.138 167.225C136.18 169.384 135.609 172.998 136.008 176.12C136.236 177.904 136.765 179.533 138.12 180.447C142.014 183.076 148.088 183.146 152.881 183.232C161.031 183.374 169.181 183.312 177.328 183.439C184.526 183.552 193.335 185.027 200.441 183.998C202.724 183.667 203.768 181.863 204.318 179.87C204.956 177.558 204.936 174.955 204.995 173.412C205.489 160.672 205.234 106.457 202.925 92.3867C202.558 90.1511 203.546 87.0964 204.155 84.1689C204.424 82.8855 204.607 81.6316 204.489 80.502C204.386 79.5469 204.054 78.6923 203.285 78.0358C202.401 77.2847 200.355 76.8736 197.853 76.5572C191.436 75.747 182.157 75.9747 179.223 75.9599C166.638 75.9067 152.887 74.2152 140.379 75.5873C140.012 75.6228 139.672 75.4749 139.45 75.2147ZM145.447 85.2689C145.314 85.1151 145.225 84.92 145.199 84.7011C145.134 84.1186 145.551 83.5893 146.136 83.5212C156.35 82.3473 166.653 83.1339 176.905 83.7371C178.602 83.8347 182.778 83.4976 185.679 83.95C187.225 84.1925 188.444 84.71 189.038 85.4404C189.698 86.2448 190.082 87.2768 190.292 88.3827C190.564 89.8258 190.534 91.3901 190.576 92.5789C190.727 96.9643 190.759 101.338 191.022 105.72C191.158 108 192.045 112.235 191.936 115.937C191.853 118.72 191.17 121.204 189.485 122.626C188.497 123.457 186.77 123.91 184.694 124.034C180.477 124.285 174.708 123.336 172.15 123.354C165.455 123.401 158.701 123.629 152.009 123.318C150.48 123.247 148.452 123.153 146.828 122.611C145.515 122.174 144.46 121.443 143.912 120.352C143.389 119.308 143.235 118.084 143.218 116.845C143.203 115.783 143.289 114.713 143.232 113.77C142.928 108.515 142.824 103.278 143.138 98.017C143.303 95.2285 143.546 92.4399 143.948 89.6691C143.995 89.3645 144.436 86.6854 144.536 86.156C144.658 85.5469 145.095 85.3369 145.447 85.2689ZM146.462 85.6297C146.645 85.8781 146.722 86.2034 146.642 86.5227C146.639 86.5345 146.636 86.5464 146.633 86.5582C146.535 87.0727 146.107 89.6809 146.062 89.9766C145.666 92.6913 145.432 95.4177 145.267 98.1471C144.959 103.322 145.063 108.476 145.361 113.648C145.418 114.621 145.335 115.727 145.35 116.818C145.361 117.729 145.435 118.637 145.82 119.403C146.124 120.012 146.769 120.349 147.499 120.595C148.943 121.074 150.749 121.133 152.107 121.195C158.76 121.502 165.473 121.275 172.135 121.227C174.318 121.213 178.86 121.911 182.76 121.949C184.218 121.964 185.584 121.887 186.669 121.624C187.258 121.482 187.761 121.292 188.11 121C189.387 119.923 189.739 117.983 189.801 115.878C189.91 112.244 189.023 108.089 188.89 105.853C188.627 101.45 188.595 97.0589 188.441 92.6558C188.411 91.7302 188.432 90.5592 188.29 89.4177C188.172 88.4448 187.95 87.4867 187.382 86.7918C187.178 86.5405 186.802 86.4044 186.353 86.2743C185.72 86.091 184.951 85.9845 184.129 85.9195C181.435 85.7095 178.209 85.949 176.775 85.8662C166.679 85.2719 156.528 84.4853 146.462 85.6297ZM146.568 86.7327C146.444 86.987 146.228 87.1762 145.974 87.2709C146.104 87.2235 146.385 87.1141 146.568 86.7327ZM147.109 130.291C146.985 130.096 146.923 129.859 146.947 129.611C147 129.067 147.269 128.6 147.754 128.23C148.197 127.89 148.895 127.633 149.753 127.488C152.355 127.047 156.743 127.547 157.923 127.55C167.581 127.597 177.204 128.307 186.853 128.561C188.506 128.602 192.187 128.233 194.183 129.076C195.443 129.605 196.191 130.519 196.109 131.938C196.023 133.363 195.594 134.387 194.958 135.129C194.021 136.223 192.593 136.726 190.889 136.832C188.541 136.98 185.626 136.374 183.183 136.214C174.179 135.629 165.275 135.507 156.264 136.072C154.943 136.155 152.151 136.667 149.992 136.69C148.886 136.702 147.925 136.572 147.292 136.282C146.328 135.842 145.935 135.087 145.82 134.256C145.737 133.674 145.826 133.041 145.882 132.532C145.9 132.367 146.018 131.542 146.172 131.143C146.308 130.797 146.515 130.587 146.666 130.48C146.813 130.383 146.961 130.318 147.109 130.291ZM148.212 130.761C148.422 131.075 148.461 131.492 148.271 131.849C148.233 131.923 148.186 131.991 148.132 132.053C148.088 132.278 148.008 132.695 147.999 132.772C147.964 133.071 147.905 133.431 147.913 133.78C147.919 133.996 147.934 134.233 148.18 134.345C148.765 134.611 149.771 134.591 150.862 134.523C152.813 134.398 155.005 134.017 156.128 133.946C165.23 133.372 174.223 133.497 183.319 134.088C185.679 134.242 188.491 134.848 190.753 134.706C191.818 134.638 192.752 134.425 193.338 133.742C193.719 133.298 193.926 132.666 193.979 131.811C193.997 131.521 193.861 131.326 193.645 131.187C193.376 131.015 193.03 130.906 192.649 130.826C190.759 130.421 188.095 130.723 186.797 130.69C177.162 130.436 167.555 129.726 157.911 129.679C156.788 129.673 152.595 129.164 150.111 129.587C149.771 129.643 149.472 129.717 149.232 129.824C149.173 129.85 149.096 129.898 149.055 129.924C148.969 130.353 148.629 130.681 148.212 130.761ZM147.384 132.42C147.201 132.429 147.009 132.391 146.834 132.299C147.02 132.396 147.204 132.435 147.384 132.42ZM147.287 143.45C147.491 143.418 147.78 143.37 147.902 143.358C148.792 143.27 149.694 143.225 150.593 143.199C153.08 143.128 155.478 143.078 157.894 143.625C165.366 145.316 172.733 146.461 180.459 147.268C181.045 147.33 181.471 147.853 181.409 148.439C181.347 149.024 180.823 149.447 180.238 149.388C172.425 148.572 164.976 147.416 157.424 145.703C155.182 145.195 152.958 145.263 150.655 145.328C149.809 145.352 148.957 145.393 148.118 145.479C147.919 145.499 147.488 145.585 147.269 145.606C147.047 145.627 146.878 145.6 146.793 145.579C146.429 145.488 146.24 145.272 146.13 145.1C146.012 144.908 145.956 144.701 145.971 144.467C145.98 144.311 146.006 143.9 146.53 143.583C146.763 143.438 147.035 143.4 147.287 143.45ZM147.683 145.369C147.665 145.381 147.644 145.393 147.627 145.405C147.647 145.393 147.668 145.381 147.683 145.369ZM147.653 157.245C147.434 157.331 147.183 157.343 146.941 157.263C146.615 157.156 146.464 156.967 146.382 156.849C146.21 156.6 146.166 156.34 146.204 156.083C146.234 155.885 146.331 155.468 146.864 155.249C147.056 155.169 148.774 154.983 148.99 154.968C150.264 154.876 151.536 154.826 152.816 154.779C156.782 154.634 160.744 154.448 164.713 154.335C165.298 154.318 165.789 154.782 165.807 155.37C165.825 155.959 165.36 156.45 164.772 156.467C160.812 156.58 156.853 156.766 152.896 156.911C151.642 156.958 150.392 157.009 149.144 157.097C149.014 157.1 147.967 157.213 147.653 157.245ZM148.206 155.74C148.12 155.56 147.955 155.353 147.603 155.24C147.869 155.326 148.079 155.509 148.206 155.74ZM148.345 170.203C148.15 170.345 147.902 170.422 147.638 170.401C147.053 170.357 146.612 169.845 146.657 169.26C146.677 168.964 146.876 168.435 147.567 168.198C148.085 168.021 149.368 167.911 149.555 167.885C152.269 167.5 155.016 167.267 157.761 167.083C168.557 166.368 179.927 165.776 190.735 166.604C191.321 166.652 191.762 167.163 191.714 167.749C191.67 168.334 191.155 168.775 190.57 168.731C179.865 167.908 168.596 168.503 157.9 169.21C155.209 169.39 152.512 169.618 149.85 169.993C149.729 170.014 148.662 170.159 148.345 170.203ZM216.595 79.2186C216.492 79.0767 216.421 78.9081 216.397 78.7218C216.19 77.0599 216.492 76.0042 217.009 75.3212C217.548 74.6144 218.349 74.2359 219.357 74.0999C220.452 73.952 221.841 74.1117 223.252 74.1561C226.854 74.2684 230.464 74.2803 234.066 74.2803C248.659 74.2803 263.256 74.159 277.846 73.8101C281.634 73.7214 285.428 73.5025 289.216 73.5292C290.109 73.5351 291.322 73.4759 292.425 73.6356C293.321 73.7687 294.149 74.0496 294.77 74.5405C295.346 74.9959 295.79 76.0604 295.956 77.4503C296.248 79.8988 295.92 83.4917 295.95 84.6065C296.204 93.5163 297.44 105.939 293.821 114.299C292.815 116.617 290.228 117.703 287.075 118.004C282.98 118.4 277.929 117.555 275.35 117.602C261.875 117.85 248.367 118.35 234.888 118.019C232.653 117.966 229.045 118.374 225.786 118.267C223.409 118.19 221.212 117.821 219.727 116.922C219.142 116.567 218.695 115.837 218.476 114.873C218.127 113.338 218.281 111.108 218.225 110.197C217.87 104.342 217.494 98.5109 217.024 92.6647C216.788 89.746 216.504 86.8243 216.353 83.8998C216.326 83.3645 216.164 81.4808 216.158 80.5612C216.155 80.1738 216.199 79.8899 216.238 79.7657C216.32 79.5084 216.451 79.3369 216.595 79.2186ZM218.142 79.402C218.387 79.7125 218.435 80.1265 218.29 80.4754C218.281 81.2945 218.458 83.2551 218.485 83.7933C218.633 86.6972 218.917 89.5981 219.15 92.4961C219.624 98.3571 219.996 104.203 220.354 110.07C220.398 110.807 220.283 112.463 220.457 113.832C220.505 114.201 220.573 114.547 220.685 114.828C220.73 114.941 220.756 115.053 220.836 115.1C222.063 115.843 223.894 116.073 225.86 116.138C229.113 116.245 232.712 115.834 234.944 115.89C248.39 116.218 261.872 115.718 275.318 115.473C277.861 115.426 282.838 116.277 286.877 115.887C289.151 115.668 291.144 115.127 291.872 113.453C295.379 105.351 294.072 93.3034 293.826 84.6686C293.797 83.5834 294.131 80.0851 293.844 77.7046C293.794 77.2699 293.72 76.8766 293.614 76.5602C293.563 76.4123 293.537 76.2793 293.454 76.2142C292.996 75.8534 292.33 75.7499 291.653 75.6938C290.787 75.6198 289.896 75.6642 289.207 75.6612C285.44 75.6346 281.667 75.8534 277.902 75.9421C263.297 76.2911 248.683 76.4123 234.072 76.4123C230.447 76.4123 226.815 76.4035 223.19 76.2881C222.238 76.2586 221.3 76.1639 220.463 76.1669C219.78 76.1669 219.177 76.1728 218.796 76.5188C218.426 76.8529 218.39 77.4621 218.515 78.4557C218.556 78.8283 218.408 79.1802 218.142 79.402ZM217.095 81.1082C216.882 81.0668 216.678 80.9574 216.522 80.783C216.708 80.99 216.909 81.0787 217.095 81.1082ZM304.002 75.954C303.978 75.8416 303.972 75.7233 303.99 75.6021C304.067 75.0195 304.605 74.6085 305.188 74.6854C305.211 74.6883 305.259 74.6942 305.315 74.712C305.401 74.3364 305.69 74.0171 306.09 73.9165C308.452 73.3103 312.646 73.0235 316.203 73.6948C318.767 74.1768 320.991 75.1822 322.159 76.779C322.842 77.7164 323.226 78.9673 323.421 80.3187C323.679 82.0959 323.619 84.0535 323.72 85.4907C324.125 91.2216 324.947 96.9081 325.343 102.636C325.636 106.829 326.284 111.102 326.284 115.307C326.284 116.058 326.222 117.289 325.89 118.303C325.598 119.196 325.083 119.92 324.37 120.275C323.495 120.713 322.241 120.858 320.893 120.828C319.163 120.79 317.268 120.488 316.07 120.464C314.485 120.438 311.921 120.719 309.638 120.595C307.893 120.5 306.303 120.145 305.268 119.391C304.345 118.717 303.845 117.519 303.668 116.126C303.458 114.479 303.677 112.548 303.665 111.407C303.579 104.171 303.674 96.9288 303.742 89.6927C303.777 86.0555 303.884 82.4212 303.946 78.781C303.946 78.6272 303.996 76.2941 304.002 75.954ZM306.137 75.9924C306.146 76.779 306.078 78.6597 306.075 78.8194C306.016 82.4537 305.906 86.0821 305.871 89.7135C305.803 96.9318 305.708 104.162 305.794 111.38C305.806 112.463 305.584 114.293 305.779 115.857C305.874 116.608 306.022 117.303 306.521 117.667C307.281 118.22 308.473 118.395 309.751 118.463C312.007 118.587 314.538 118.303 316.105 118.332C317.306 118.353 319.207 118.658 320.937 118.693C321.895 118.714 322.794 118.675 323.415 118.365C323.661 118.241 323.761 117.942 323.862 117.635C324.119 116.848 324.149 115.887 324.149 115.304C324.149 111.15 323.504 106.924 323.214 102.781C322.815 97.053 321.993 91.3694 321.591 85.6385C321.493 84.2428 321.555 82.3473 321.307 80.6233C321.165 79.6385 320.928 78.713 320.432 78.0328C319.536 76.8086 317.77 76.1551 315.804 75.7854C312.569 75.1763 308.76 75.4276 306.616 75.9776C306.456 76.022 306.291 76.025 306.137 75.9924ZM220.026 124.749C220.129 124.699 220.242 124.667 220.363 124.652C225.23 124.075 230.523 124.232 235.429 124.125C245.655 123.901 255.89 123.865 266.121 123.892C276.066 123.918 286.002 124.279 295.941 124.525C302.216 124.678 308.476 124.743 314.745 125.039C318.634 125.223 323.155 125.409 326.408 127.423C328.339 128.617 329.522 130.477 330.243 132.58C331.237 135.472 331.34 138.837 331.547 141.28C331.79 144.127 331.92 146.957 328.241 148.253C324.85 149.447 320.778 149.199 317.185 149.157C312.374 149.104 307.562 149.116 302.748 149.066C283.976 148.882 265.06 148.604 246.427 146.605C240.167 145.934 233.945 145.153 227.732 144.222C226.369 144.018 224.497 143.953 222.894 143.557C221.611 143.24 220.493 142.702 219.777 141.856C218.58 140.437 218.154 138.701 218.047 136.903C217.956 135.327 218.118 133.701 218.08 132.269C218.053 131.261 217.698 129.602 217.684 128.109C217.669 126.843 217.911 125.687 218.529 124.912C218.896 124.457 219.567 124.383 220.026 124.749ZM219.975 126.645C219.828 127.053 219.807 127.562 219.816 128.088C219.833 129.572 220.188 131.217 220.212 132.219C220.247 133.63 220.085 135.229 220.177 136.785C220.253 138.121 220.514 139.428 221.407 140.484C221.859 141.019 222.598 141.294 223.406 141.493C224.943 141.874 226.741 141.921 228.048 142.119C234.235 143.045 240.424 143.823 246.655 144.491C265.222 146.484 284.068 146.756 302.769 146.94C307.583 146.987 312.394 146.975 317.211 147.031C320.562 147.07 324.368 147.362 327.535 146.248C329.989 145.384 329.587 143.361 329.427 141.463C329.262 139.532 329.185 136.992 328.614 134.611C328.099 132.453 327.189 130.412 325.287 129.235C322.324 127.402 318.184 127.337 314.645 127.168C308.39 126.873 302.148 126.808 295.888 126.654C285.964 126.411 276.045 126.048 266.115 126.024C255.901 125.997 245.685 126.033 235.477 126.257C230.639 126.364 225.42 126.198 220.614 126.772C220.386 126.796 220.165 126.748 219.975 126.645ZM225.609 134.032C225.621 134.035 225.641 134.038 225.644 134.038C225.949 134.07 226.253 134.067 226.561 134.061C227.315 134.044 228.066 133.999 228.82 133.961C228.445 133.621 228.078 133.272 227.708 132.923C227.62 132.84 227.241 132.506 227.064 132.32C226.928 132.178 226.845 132.048 226.809 131.98C226.582 131.548 226.694 131.205 226.783 131.013C226.901 130.761 227.099 130.56 227.41 130.454C227.883 130.294 228.394 130.489 228.652 130.891C228.782 131.01 229.113 131.317 229.178 131.379C229.622 131.802 230.068 132.222 230.529 132.63C230.544 132.379 230.568 132.127 230.603 131.903C230.686 131.429 230.852 131.051 231.041 130.823C231.417 130.371 232.091 130.309 232.54 130.684C232.883 130.971 233.002 131.427 232.874 131.826C233.374 131.264 233.88 130.705 234.409 130.17C234.462 130.119 234.853 129.676 235.092 129.469C235.281 129.306 235.459 129.218 235.565 129.182C236.172 128.969 236.568 129.232 236.807 129.555C237.159 130.025 237.065 130.693 236.594 131.045C236.535 131.086 236.476 131.125 236.414 131.152C236.278 131.293 235.953 131.636 235.92 131.669C235.234 132.364 234.59 133.097 233.942 133.828C235.364 133.813 236.79 133.789 238.212 133.718C238.797 133.689 239.3 134.141 239.33 134.727C239.359 135.315 238.907 135.815 238.321 135.844C237.003 135.912 235.687 135.936 234.368 135.951C234.705 136.247 235.039 136.542 235.373 136.841C235.811 137.234 235.846 137.909 235.456 138.346C235.063 138.784 234.388 138.819 233.951 138.426C233.421 137.953 232.886 137.483 232.348 137.013C232.259 138.246 232.185 139.482 232.123 140.718C232.094 141.303 231.594 141.759 231.005 141.729C230.42 141.7 229.965 141.2 229.994 140.611C230.033 139.816 230.077 139.023 230.127 138.225C229.477 138.988 228.826 139.754 228.176 140.517C227.794 140.966 227.123 141.019 226.673 140.638C226.224 140.256 226.171 139.585 226.552 139.136C227.424 138.113 228.294 137.089 229.169 136.066C228.317 136.108 227.463 136.161 226.611 136.182C226.194 136.19 225.777 136.187 225.363 136.14C225.337 136.137 225.201 136.114 225.112 136.096C224.864 136.102 224.615 136.019 224.411 135.847C224.083 135.572 224.039 135.274 224.027 135.096C224 134.727 224.124 134.393 224.488 134.141C224.589 134.073 224.784 133.958 225.091 133.952C225.171 133.961 225.499 134.014 225.609 134.032ZM226.15 134.892C226.129 134.7 226.055 134.455 225.777 134.224C225.987 134.398 226.114 134.638 226.15 134.892ZM235.704 131.228C235.474 131.172 235.258 131.036 235.104 130.832C235.255 131.03 235.45 131.175 235.704 131.228ZM228.752 131.823C228.646 132.118 228.412 132.364 228.09 132.473C228.442 132.352 228.652 132.13 228.752 131.823ZM246.255 134.032C246.267 134.035 246.291 134.038 246.291 134.038C246.595 134.07 246.9 134.067 247.208 134.061C247.959 134.044 248.71 133.999 249.464 133.961C249.088 133.621 248.722 133.272 248.352 132.923C248.263 132.84 247.885 132.506 247.707 132.32C247.571 132.178 247.488 132.048 247.453 131.98C247.228 131.548 247.338 131.205 247.429 131.013C247.548 130.761 247.743 130.56 248.056 130.454C248.529 130.294 249.041 130.489 249.298 130.891C249.428 131.01 249.76 131.317 249.825 131.379C250.268 131.802 250.718 132.222 251.176 132.63C251.191 132.379 251.214 132.127 251.25 131.903C251.333 131.429 251.498 131.051 251.688 130.823C252.063 130.371 252.737 130.309 253.19 130.684C253.533 130.971 253.651 131.427 253.521 131.826C254.021 131.264 254.526 130.705 255.056 130.17C255.109 130.119 255.499 129.676 255.739 129.469C255.928 129.306 256.105 129.218 256.212 129.182C256.818 128.969 257.214 129.232 257.457 129.555C257.809 130.025 257.711 130.693 257.241 131.045C257.182 131.086 257.123 131.125 257.061 131.152C256.925 131.293 256.599 131.636 256.567 131.669C255.881 132.364 255.236 133.097 254.589 133.828C256.011 133.813 257.436 133.789 258.859 133.718C259.444 133.689 259.947 134.141 259.976 134.727C260.006 135.315 259.553 135.815 258.968 135.844C257.649 135.912 256.333 135.936 255.014 135.951C255.351 136.247 255.686 136.542 256.02 136.841C256.457 137.234 256.493 137.909 256.103 138.346C255.709 138.784 255.035 138.819 254.597 138.426C254.068 137.953 253.533 137.483 252.995 137.013C252.906 138.246 252.832 139.482 252.77 140.718C252.74 141.303 252.241 141.759 251.652 141.729C251.067 141.7 250.611 141.2 250.641 140.611C250.679 139.816 250.724 139.023 250.774 138.225C250.123 138.988 249.473 139.754 248.822 140.517C248.441 140.966 247.769 141.019 247.32 140.638C246.87 140.256 246.817 139.585 247.199 139.136C248.071 138.113 248.94 137.089 249.816 136.066C248.964 136.108 248.112 136.161 247.258 136.182C246.841 136.19 246.424 136.187 246.007 136.14C245.98 136.137 245.844 136.114 245.756 136.096C245.507 136.102 245.259 136.019 245.055 135.847C244.727 135.572 244.682 135.274 244.67 135.096C244.644 134.727 244.768 134.393 245.135 134.141C245.232 134.073 245.427 133.958 245.735 133.952C245.818 133.961 246.146 134.014 246.255 134.032ZM246.797 134.892C246.776 134.7 246.702 134.455 246.424 134.224C246.634 134.398 246.761 134.638 246.797 134.892ZM256.351 131.228C256.12 131.172 255.904 131.036 255.751 130.832C255.901 131.03 256.097 131.175 256.351 131.228ZM249.399 131.823C249.292 132.118 249.059 132.364 248.739 132.473C249.088 132.352 249.298 132.13 249.399 131.823ZM266.902 134.032C266.917 134.035 266.937 134.038 266.94 134.038C267.245 134.07 267.55 134.067 267.857 134.061C268.608 134.044 269.362 133.999 270.113 133.961C269.738 133.621 269.371 133.272 269.001 132.923C268.913 132.84 268.534 132.506 268.354 132.32C268.218 132.178 268.135 132.048 268.1 131.98C267.875 131.548 267.984 131.205 268.076 131.013C268.194 130.761 268.389 130.56 268.703 130.454C269.179 130.294 269.688 130.489 269.945 130.891C270.075 131.01 270.406 131.317 270.471 131.379C270.918 131.802 271.364 132.222 271.823 132.63C271.837 132.379 271.861 132.127 271.896 131.903C271.979 131.429 272.145 131.051 272.334 130.823C272.71 130.371 273.384 130.309 273.836 130.684C274.179 130.971 274.298 131.427 274.168 131.826C274.667 131.264 275.173 130.705 275.702 130.17C275.753 130.119 276.143 129.676 276.385 129.469C276.572 129.306 276.749 129.218 276.859 129.182C277.465 128.969 277.861 129.232 278.103 129.555C278.455 130.025 278.358 130.693 277.888 131.045C277.828 131.086 277.772 131.125 277.707 131.152C277.571 131.293 277.246 131.636 277.213 131.669C276.527 132.364 275.883 133.097 275.238 133.828C276.66 133.813 278.083 133.789 279.505 133.718C280.094 133.689 280.593 134.141 280.623 134.727C280.653 135.315 280.2 135.815 279.615 135.844C278.296 135.912 276.98 135.936 275.661 135.951C275.998 136.247 276.332 136.542 276.663 136.841C277.101 137.234 277.137 137.909 276.746 138.346C276.353 138.784 275.679 138.819 275.241 138.426C274.712 137.953 274.176 137.483 273.638 137.013C273.552 138.246 273.476 139.482 273.413 140.718C273.384 141.303 272.884 141.759 272.296 141.729C271.71 141.7 271.255 141.2 271.284 140.611C271.323 139.816 271.367 139.023 271.42 138.225C270.77 138.988 270.119 139.754 269.469 140.517C269.087 140.966 268.416 141.019 267.966 140.638C267.517 140.256 267.467 139.585 267.845 139.136C268.718 138.113 269.587 137.089 270.462 136.066C269.611 136.108 268.756 136.161 267.904 136.182C267.487 136.19 267.07 136.187 266.654 136.14C266.627 136.137 266.491 136.114 266.402 136.096C266.154 136.102 265.905 136.019 265.701 135.847C265.373 135.572 265.329 135.274 265.317 135.096C265.29 134.727 265.415 134.393 265.781 134.141C265.879 134.073 266.074 133.958 266.381 133.952C266.464 133.961 266.793 134.014 266.902 134.032ZM267.443 134.892C267.425 134.7 267.348 134.455 267.07 134.224C267.283 134.398 267.408 134.638 267.443 134.892ZM276.998 131.228C276.767 131.172 276.551 131.036 276.397 130.832C276.548 131.03 276.743 131.175 276.998 131.228ZM270.045 131.823C269.939 132.118 269.702 132.364 269.383 132.473C269.735 132.352 269.945 132.13 270.045 131.823ZM287.548 134.032C287.563 134.035 287.584 134.038 287.587 134.038C287.892 134.07 288.196 134.067 288.504 134.061C289.255 134.044 290.009 133.999 290.76 133.961C290.384 133.621 290.018 133.272 289.648 132.923C289.559 132.84 289.184 132.506 289.003 132.32C288.864 132.178 288.785 132.048 288.746 131.98C288.521 131.548 288.631 131.205 288.722 131.013C288.841 130.761 289.036 130.56 289.349 130.454C289.823 130.294 290.331 130.489 290.588 130.891C290.719 131.01 291.05 131.317 291.115 131.379C291.561 131.802 292.008 132.222 292.466 132.63C292.481 132.379 292.505 132.127 292.54 131.903C292.623 131.429 292.791 131.051 292.981 130.823C293.356 130.371 294.031 130.309 294.48 130.684C294.823 130.971 294.941 131.427 294.814 131.826C295.314 131.264 295.82 130.705 296.349 130.17C296.399 130.119 296.789 129.676 297.032 129.469C297.218 129.306 297.396 129.218 297.505 129.182C298.111 128.969 298.508 129.232 298.747 129.555C299.099 130.025 299.001 130.693 298.531 131.045C298.475 131.086 298.416 131.125 298.354 131.152C298.218 131.293 297.892 131.636 297.86 131.669C297.171 132.364 296.529 133.097 295.882 133.828C297.304 133.813 298.726 133.789 300.149 133.718C300.737 133.689 301.237 134.141 301.267 134.727C301.296 135.315 300.847 135.815 300.258 135.844C298.939 135.912 297.623 135.936 296.305 135.951C296.642 136.247 296.976 136.542 297.307 136.841C297.745 137.234 297.783 137.909 297.39 138.346C296.996 138.784 296.322 138.819 295.888 138.426C295.358 137.953 294.823 137.483 294.285 137.013C294.196 138.246 294.122 139.482 294.06 140.718C294.03 141.303 293.531 141.759 292.942 141.729C292.357 141.7 291.901 141.2 291.931 140.611C291.969 139.816 292.014 139.023 292.067 138.225C291.416 138.988 290.766 139.754 290.115 140.517C289.734 140.966 289.063 141.019 288.613 140.638C288.167 140.256 288.113 139.585 288.492 139.136C289.364 138.113 290.234 137.089 291.109 136.066C290.257 136.108 289.403 136.161 288.551 136.182C288.134 136.19 287.717 136.187 287.3 136.14C287.273 136.137 287.137 136.114 287.049 136.096C286.8 136.102 286.552 136.019 286.348 135.847C286.02 135.572 285.975 135.274 285.964 135.096C285.937 134.727 286.061 134.393 286.428 134.141C286.525 134.073 286.721 133.958 287.028 133.952C287.111 133.961 287.439 134.014 287.548 134.032ZM288.09 134.892C288.072 134.7 287.995 134.455 287.717 134.224C287.93 134.398 288.054 134.638 288.09 134.892ZM297.644 131.228C297.413 131.172 297.198 131.036 297.044 130.832C297.195 131.03 297.39 131.175 297.644 131.228ZM290.692 131.823C290.585 132.118 290.349 132.364 290.03 132.473C290.381 132.352 290.591 132.13 290.692 131.823ZM308.195 134.032C308.21 134.035 308.231 134.038 308.234 134.038C308.538 134.07 308.843 134.067 309.15 134.061C309.901 134.044 310.655 133.999 311.407 133.961C311.031 133.621 310.664 133.272 310.295 132.923C310.209 132.84 309.83 132.506 309.65 132.32C309.511 132.178 309.431 132.048 309.393 131.98C309.168 131.548 309.277 131.205 309.369 131.013C309.487 130.761 309.683 130.56 309.996 130.454C310.469 130.294 310.978 130.489 311.235 130.891C311.365 131.01 311.696 131.317 311.761 131.379C312.208 131.802 312.654 132.222 313.113 132.63C313.128 132.379 313.151 132.127 313.19 131.903C313.27 131.429 313.438 131.051 313.627 130.823C314.003 130.371 314.677 130.309 315.127 130.684C315.47 130.971 315.588 131.427 315.461 131.826C315.96 131.264 316.466 130.705 316.995 130.17C317.046 130.119 317.436 129.676 317.679 129.469C317.865 129.306 318.042 129.218 318.152 129.182C318.758 128.969 319.154 129.232 319.394 129.555C319.746 130.025 319.648 130.693 319.178 131.045C319.122 131.086 319.062 131.125 319 131.152C318.864 131.293 318.539 131.636 318.507 131.669C317.818 132.364 317.176 133.097 316.528 133.828C317.951 133.813 319.373 133.789 320.795 133.718C321.384 133.689 321.884 134.141 321.913 134.727C321.943 135.315 321.493 135.815 320.905 135.844C319.589 135.912 318.27 135.936 316.951 135.951C317.288 136.247 317.622 136.542 317.957 136.841C318.394 137.234 318.43 137.909 318.036 138.346C317.643 138.784 316.969 138.819 316.534 138.426C316.005 137.953 315.47 137.483 314.931 137.013C314.843 138.246 314.769 139.482 314.707 140.718C314.677 141.303 314.177 141.759 313.589 141.729C313 141.7 312.548 141.2 312.578 140.611C312.616 139.816 312.66 139.023 312.714 138.225C312.063 138.988 311.412 139.754 310.762 140.517C310.38 140.966 309.709 141.019 309.26 140.638C308.813 140.256 308.76 139.585 309.138 139.136C310.011 138.113 310.88 137.089 311.755 136.066C310.904 136.108 310.052 136.161 309.198 136.182C308.781 136.19 308.364 136.187 307.947 136.14C307.92 136.137 307.787 136.114 307.695 136.096C307.447 136.102 307.199 136.019 306.995 135.847C306.666 135.572 306.622 135.274 306.61 135.096C306.583 134.727 306.708 134.393 307.074 134.141C307.172 134.073 307.367 133.958 307.675 133.952C307.757 133.961 308.086 134.014 308.195 134.032ZM308.736 134.892C308.719 134.7 308.642 134.455 308.364 134.224C308.577 134.398 308.701 134.638 308.736 134.892ZM318.291 131.228C318.06 131.172 317.847 131.036 317.69 130.832C317.838 131.03 318.036 131.175 318.291 131.228ZM311.339 131.823C311.232 132.118 310.998 132.364 310.676 132.473C311.028 132.352 311.241 132.13 311.339 131.823ZM229.775 155.429C233.288 155.829 234.95 159.114 234.726 162.281C234.501 165.487 232.384 168.42 228.702 168.062C223.814 167.589 221.262 162.263 223.518 158.011C223.929 157.236 224.94 155.802 226.079 155.007C227.114 154.285 228.244 154.075 229.261 154.667C229.551 154.838 229.731 155.122 229.775 155.429ZM228.592 156.645C228.454 156.627 228.314 156.583 228.187 156.506C227.895 156.334 227.599 156.547 227.3 156.754C226.449 157.349 225.709 158.431 225.402 159.011C223.855 161.932 225.553 165.617 228.909 165.942C231.251 166.17 232.46 164.168 232.602 162.133C232.75 160.063 231.825 157.804 229.53 157.547C229.039 157.491 228.663 157.112 228.592 156.645ZM229.997 173.391C230.243 173.388 230.491 173.471 230.692 173.642C233.12 175.683 233.605 179.287 232.546 182.038C231.884 183.762 230.627 185.134 228.95 185.651C227.833 185.994 226.514 185.971 225.032 185.37C220.372 183.478 221.12 178.566 223.808 175.411C224.065 175.109 226.78 172.696 228.054 172.294C228.519 172.149 228.906 172.187 229.184 172.297C229.524 172.436 229.79 172.681 229.932 173.077C229.973 173.178 229.994 173.287 229.997 173.391ZM228.944 174.503C228.808 174.506 228.672 174.479 228.548 174.432C227.933 174.881 225.606 176.585 225.434 176.789C223.66 178.87 222.767 182.144 225.836 183.395C226.78 183.779 227.614 183.833 228.326 183.614C229.391 183.285 230.139 182.369 230.562 181.272C231.313 179.314 231.053 176.727 229.323 175.272C229.083 175.074 228.956 174.793 228.944 174.503ZM240.983 161.358C240.835 161.418 240.672 161.441 240.501 161.424C239.481 161.326 239.454 160.457 239.457 160.335C239.46 160.111 239.51 159.563 240.184 159.33C240.329 159.28 241.379 159.179 241.784 159.179C242.719 159.173 243.65 159.185 244.585 159.185C247.397 159.191 250.212 159.194 253.024 159.3C253.613 159.321 254.071 159.818 254.047 160.406C254.027 160.995 253.53 161.453 252.941 161.429C250.156 161.326 247.364 161.323 244.579 161.314C243.65 161.311 242.722 161.302 241.793 161.308C241.63 161.311 241.231 161.341 240.983 161.358ZM240.844 159.327C240.799 159.318 240.752 159.309 240.699 159.303C240.749 159.309 240.797 159.318 240.844 159.327ZM239.847 166.915C239.513 167.063 239.114 167.033 238.795 166.808C238.443 166.554 238.357 166.244 238.342 165.992C238.324 165.7 238.389 165.265 238.907 164.981C238.993 164.934 239.194 164.854 239.478 164.809C239.927 164.741 240.844 164.688 240.974 164.679C242.024 164.602 243.07 164.508 244.12 164.425C247.367 164.159 250.629 163.993 253.885 163.854C262.993 163.467 272.133 163.387 281.25 163.44C281.835 163.443 282.311 163.925 282.308 164.514C282.306 165.102 281.824 165.575 281.235 165.572C272.154 165.519 263.046 165.599 253.973 165.986C250.744 166.122 247.515 166.291 244.295 166.551C243.239 166.637 242.186 166.732 241.128 166.805C241.027 166.811 240.158 166.888 239.847 166.915ZM240.374 165.481C240.312 165.342 240.208 165.2 240.034 165.076C240.184 165.182 240.3 165.324 240.374 165.481ZM238.8 181.334C238.694 181.405 238.573 181.458 238.443 181.485C237.866 181.609 237.298 181.245 237.174 180.668C237.097 180.319 237.127 179.79 237.754 179.447C237.907 179.361 238.271 179.246 238.718 179.172C239.413 179.054 240.397 178.962 240.539 178.944C241.125 178.876 241.651 179.296 241.722 179.879C241.79 180.464 241.373 180.994 240.788 181.062C240.643 181.079 239.161 181.283 238.8 181.334ZM239.25 180.692C239.291 180.532 239.288 180.373 239.256 180.216C239.291 180.379 239.288 180.541 239.25 180.692ZM209.708 294.73C209.691 294.189 210.09 293.71 210.637 293.639C224.408 291.865 243.47 292.332 257.306 293.125C259.098 293.228 262.522 294.535 264.82 296.496C266.535 297.959 267.588 299.787 267.286 301.668C267.189 302.277 266.804 302.809 266.089 303.179C265.456 303.507 264.468 303.717 263.277 303.797C259.284 304.069 252.696 303.043 251.513 302.969C241.412 302.339 231.387 302.709 221.288 303.164C215.788 303.412 208.987 304.276 203.555 303.164C202.647 302.978 202.259 302.475 202.123 301.94C201.984 301.402 202.188 300.568 202.913 299.692C204.164 298.178 207.014 296.12 209.206 294.982C209.371 294.89 209.543 294.807 209.708 294.73ZM212.825 295.523C212.677 295.884 212.337 296.153 211.923 296.185C211.459 296.224 210.696 296.584 209.818 297.069C208.316 297.894 206.55 299.119 205.35 300.228C204.989 300.559 204.681 300.878 204.456 301.171C209.646 302.105 216.013 301.271 221.188 301.038C231.363 300.579 241.465 300.213 251.64 300.846C252.796 300.917 259.231 301.94 263.126 301.674C263.85 301.623 264.474 301.535 264.93 301.366C265.021 301.331 265.134 301.268 265.193 301.23C265.326 300.071 264.498 299.027 263.433 298.119C261.517 296.484 258.681 295.339 257.182 295.254C244.094 294.503 226.292 294.038 212.825 295.523ZM314.399 32.4785C314.343 32.3838 314.302 32.2803 314.275 32.168C313.474 28.5544 314.76 25.204 317.223 22.5721C320.769 18.7811 326.784 16.5248 332.097 17.205C334.073 17.4593 335.823 18.1128 337.435 19.2749C337.518 19.3341 337.982 19.7688 338.464 20.1916C338.488 20.0172 338.506 19.8309 338.523 19.6416C338.659 18.0655 338.674 16.1759 338.911 15.4248C340.357 10.8649 343.861 6.90829 347.817 4.32377C350.757 2.40164 354.962 0.583005 359.049 0.115781C361.896 -0.209502 364.682 0.124664 366.994 1.44945C371.646 4.11677 372.616 8.14731 371.823 12.3464C371.084 16.2528 368.739 20.3158 366.563 23.3883C366.181 23.9265 363.552 26.8925 362.355 28.9299C362.233 29.1369 362.112 29.4031 362.026 29.6041C362.162 29.6308 362.319 29.6455 362.488 29.6574C363.041 29.6988 363.691 29.6515 364.38 29.5598C366.719 29.2522 369.437 28.4745 370.596 28.4272C376.927 28.1611 384.622 29.2434 389.557 33.5253C394.475 37.7924 397.104 44.1472 397.172 50.6026C397.175 50.7978 397.133 52.1847 397.009 53.6278C397.045 53.6041 397.074 53.5834 397.107 53.5627C399.289 52.1226 401.971 50.6647 404.641 50.5464C406.637 50.4607 408.971 51.1438 410.556 52.3858C410.774 52.5573 411.017 52.853 411.227 53.2197C411.422 53.5568 411.668 54.0979 411.83 54.4646C412.099 54.6598 412.274 54.9733 412.274 55.3311C412.274 55.9639 411.969 56.23 411.854 56.3247C411.644 56.4962 411.41 56.5731 411.159 56.5671C410.943 56.5642 410.627 56.5109 410.34 56.1886C410.233 56.0703 410.014 55.6534 409.79 55.1389C409.68 54.8875 409.556 54.6066 409.42 54.3641C409.355 54.2399 409.308 54.1216 409.237 54.0654C408.03 53.1191 406.25 52.6135 404.73 52.6785C402.432 52.7791 400.155 54.1068 398.281 55.3458C397.923 55.5824 397.142 56.1413 396.557 56.5671C396.409 57.0225 396.202 57.336 396.021 57.5016C395.755 57.75 395.46 57.8446 395.167 57.8446C394.555 57.8446 394.244 57.5814 394.087 57.3833C393.851 57.0935 393.744 56.7298 393.88 56.2833C393.943 56.0822 394.114 55.7835 394.436 55.476C394.504 55.4109 394.584 55.3399 394.667 55.2719C394.697 55.1241 394.726 54.9703 394.747 54.8283C394.981 53.1635 395.043 50.8717 395.043 50.6292C394.981 44.7771 392.621 39.0048 388.164 35.1399C383.622 31.201 376.513 30.3168 370.688 30.5622C369.357 30.6184 365.945 31.6593 363.467 31.7954C362.059 31.8722 360.903 31.6179 360.264 31.0561C359.826 30.6717 359.587 29.8673 360.036 28.7998C360.891 26.7772 364.374 22.8087 364.824 22.167C366.838 19.3223 369.047 15.5786 369.73 11.962C370.36 8.63525 369.62 5.42381 365.933 3.30947C364.002 2.20055 361.666 1.97285 359.288 2.24491C355.536 2.67369 351.682 4.35332 348.98 6.11872C345.422 8.44302 342.24 11.9768 340.939 16.0783C340.688 16.8738 340.765 19.0827 340.558 20.5968C340.428 21.5697 340.129 22.3178 339.786 22.6608C339.573 22.8737 339.153 23.1399 338.535 22.8885C338.352 22.8146 338.015 22.5958 337.645 22.2942C337.054 21.8121 336.291 21.0906 336.184 21.0137C334.868 20.0645 333.434 19.5381 331.822 19.3282C327.162 18.7308 321.887 20.7121 318.776 24.0359C316.8 26.1473 315.709 28.8146 316.351 31.7126C316.425 32.0378 316.339 32.3602 316.147 32.6027C317.605 32.7062 319.302 32.8658 320.662 33.2177C321.94 33.5489 322.948 34.0812 323.463 34.7614C323.818 35.2315 323.726 35.8998 323.256 36.2547C322.785 36.6096 322.117 36.5179 321.762 36.0477C321.594 35.823 321.289 35.6781 320.934 35.5361C320.426 35.338 319.814 35.1901 319.16 35.0748C316.993 34.6933 314.411 34.6608 313.261 34.5248C304.02 33.4129 294.578 33.4928 285.316 34.2734C284.73 34.3237 284.213 33.889 284.163 33.3005C284.115 32.715 284.55 32.2005 285.135 32.1502C294.542 31.3577 304.129 31.2779 313.512 32.4104C313.76 32.4311 314.056 32.4548 314.399 32.4785ZM305.188 28.0605C305.075 27.9866 304.794 27.8062 304.611 27.7175C304.215 27.5312 303.822 27.3774 303.612 27.2651C300.929 25.8486 297.961 24.9023 295.107 23.894C294.554 23.6988 294.264 23.0896 294.459 22.5366C294.654 21.9837 295.264 21.6909 295.817 21.8861C298.765 22.9299 301.834 23.9176 304.605 25.3814C304.993 25.5884 305.96 25.9373 306.518 26.3809C307.021 26.786 307.275 27.2798 307.284 27.7707C307.293 28.3592 306.826 28.8442 306.237 28.856C305.738 28.8649 305.309 28.5248 305.188 28.0605ZM307.08 23.0187C307.006 22.9654 306.909 22.9004 306.832 22.856C306.421 22.6135 305.971 22.4065 305.85 22.3385C303.943 21.2473 301.825 20.4607 299.818 19.5825C299.279 19.3459 299.034 18.719 299.268 18.1808C299.504 17.6426 300.131 17.3972 300.669 17.6308C302.748 18.5386 304.933 19.3607 306.906 20.4903C307.057 20.5761 307.681 20.8629 308.16 21.1764C308.47 21.3804 308.73 21.6051 308.884 21.8062C309.271 22.3119 309.271 22.8176 309.056 23.2434C308.784 23.7638 308.142 23.9708 307.621 23.7017C307.34 23.5539 307.151 23.3025 307.08 23.0187ZM399.608 65.5449C399.221 65.5893 398.822 65.4178 398.594 65.0688C398.272 64.575 398.411 63.9156 398.902 63.5932C399.245 63.3685 399.7 63.3005 400.206 63.4691C400.643 63.6169 401.173 64.0191 401.386 64.1669C402.861 65.1901 404.059 66.577 405.257 67.8988C405.65 68.3365 405.617 69.0077 405.183 69.404C404.748 69.8002 404.074 69.7647 403.677 69.33C402.589 68.1294 401.516 66.852 400.173 65.9205C400.082 65.8554 399.762 65.6455 399.608 65.5449ZM78.6696 34.5337C78.5809 33.6022 78.8412 32.6766 79.338 31.7954C80.021 30.5918 81.1684 29.4711 82.2537 28.581C86.852 24.8166 93.5853 21.7678 100.245 20.5731C101.333 20.3779 103.054 19.9521 104.636 19.8545C105.89 19.7777 107.064 19.9226 107.898 20.3957C108.409 20.6884 108.587 21.336 108.297 21.8476C108.004 22.3592 107.354 22.5396 106.845 22.2468C106.316 21.9482 105.559 21.9304 104.766 21.9807C103.273 22.0724 101.649 22.4834 100.62 22.6667C94.3246 23.7993 87.952 26.6648 83.6021 30.2281C82.851 30.8461 82.0496 31.5825 81.4789 32.3927C81.0235 33.0374 80.6923 33.7234 80.8017 34.4272C80.8372 34.6549 81.0383 34.9891 81.2364 35.338C81.6652 36.0862 82.1797 36.8372 82.2655 37.0117C82.6706 37.8279 82.0526 38.3188 81.9106 38.4104C81.7066 38.5465 81.4109 38.6648 81.0058 38.5406C80.9525 38.5228 80.6982 38.443 80.367 38.0763C79.4503 37.0531 77.5785 36.2429 75.3251 35.6278C71.7086 34.6401 67.1073 34.2409 63.3932 34.7318C61.4622 34.9861 59.7766 35.4711 58.6588 36.2872C57.7747 36.9348 57.3133 37.819 57.5499 38.9871C57.9698 41.0689 59.7086 42.2695 61.9087 43.0502C65.6849 44.3897 70.8274 44.437 74.5504 44.4696C76.3158 44.4844 80.024 44.3513 82.2566 45.2C83.5696 45.6997 84.4301 46.5336 84.6282 47.6751C84.8885 49.1536 84.0191 50.44 82.3394 51.3951C79.4474 53.0482 73.9619 53.8318 71.8742 54.4232C66.4449 55.955 60.3414 57.8121 55.5982 60.6598C52.582 62.4695 50.1216 64.6756 48.8294 67.4937C48.0369 69.2266 48.1404 71.2581 49.4592 72.4912C50.3789 73.3517 51.8516 73.7805 53.8979 73.5706C59.889 72.9525 65.0462 69.4986 70.0615 67.2453C71.1497 66.7574 72.6933 65.9501 74.2014 65.6544C75.4257 65.4119 76.6292 65.4947 77.6494 66.1245C78.1226 66.4173 78.4094 66.7721 78.575 67.1506C78.8116 67.6918 78.8086 68.3069 78.5928 68.9456C78.2438 69.9629 77.2532 71.0807 76.7475 71.7164C75.5824 73.1743 72.2202 75.744 70.4607 78.2428C69.6386 79.4138 69.0768 80.5405 70.0378 81.4128C70.4755 81.8091 70.505 82.4833 70.1088 82.918C69.7125 83.3527 69.0413 83.3852 68.6036 82.989C66.8057 81.3537 67.1783 79.2038 68.7189 77.0126C70.5021 74.4784 73.8969 71.8613 75.0797 70.3828C75.4257 69.951 76.0733 69.262 76.437 68.5612C76.5109 68.4193 76.576 68.2773 76.6056 68.1354C76.6233 68.0585 76.6115 67.9846 76.5316 67.9372C75.7924 67.4818 74.8786 67.6356 73.9974 67.8988C72.8589 68.2389 71.7559 68.8185 70.9368 69.1881C65.7234 71.5301 60.3414 75.0462 54.1167 75.6878C51.2808 75.9806 49.2818 75.2384 48.0044 74.0466C46.029 72.2044 45.7037 69.1911 46.8925 66.6036C48.3533 63.4129 51.0916 60.8757 54.5041 58.8293C59.4011 55.89 65.6938 53.9501 71.3005 52.368C73.0245 51.8831 77.1674 51.2857 80.0713 50.1206C80.9082 49.7835 81.6356 49.408 82.1176 48.9496C82.4015 48.6835 82.5937 48.3966 82.5316 48.0418C82.4902 47.8022 82.3158 47.6337 82.1029 47.4888C81.7243 47.2374 81.2187 47.0689 80.6568 46.9447C78.6223 46.4863 75.9225 46.6105 74.5356 46.6017C70.6086 46.5662 65.1852 46.4715 61.202 45.061C58.2271 44.0082 56.0359 42.2222 55.4651 39.4129C54.8589 36.4144 56.719 34.374 59.9748 33.3094C63.8367 32.0438 69.7658 32.1739 74.5563 33.2473C76.0703 33.5785 77.472 34.0191 78.6696 34.5337ZM62.4025 77.4769C62.1423 77.743 61.7254 78.1689 61.5361 78.3404C60.7702 79.0294 60.1847 79.7746 59.7264 80.5996C58.3306 83.122 57.5617 85.9934 57.2128 88.7021C57.1359 89.2847 56.6036 89.6957 56.0181 89.6218C55.4356 89.5449 55.0216 89.0096 55.0985 88.4271C55.4829 85.467 56.3375 82.3295 57.8634 79.5735C58.4311 78.5444 59.1586 77.6159 60.1108 76.7583C60.4124 76.4863 60.9506 75.8564 61.3055 75.5784C61.548 75.3892 61.7815 75.2916 61.9471 75.2532C62.3818 75.1585 62.7219 75.2827 62.9821 75.5193C63.1536 75.6731 63.334 75.9156 63.3666 76.3295C63.4109 76.9121 62.9821 77.4237 62.4025 77.4769ZM61.27 76.6844C61.2552 76.6252 61.2434 76.5661 61.2404 76.5011C61.2463 76.5661 61.2581 76.6282 61.27 76.6844ZM48.4124 85.3842C48.4745 85.5469 48.5633 85.7746 48.6549 85.9668C49.616 87.9362 51.9137 91.2098 52.1916 91.609C52.5258 92.091 52.4075 92.7563 51.9225 93.0934C51.4376 93.4305 50.7722 93.3093 50.4381 92.8243C50.1009 92.3394 46.9753 87.8445 46.3572 86.0023C45.89 84.6183 46.6086 83.9293 47.339 83.8495C47.9245 83.7874 48.4509 84.2103 48.513 84.7958C48.5396 85.0087 48.5012 85.2098 48.4124 85.3842ZM386.65 207.282C386.553 207.753 386.319 208.862 386.29 208.995C385.873 210.875 385.225 212.715 384.648 214.551C382.954 219.951 380.922 225.223 378.959 230.531C378.755 231.084 378.143 231.365 377.59 231.161C377.04 230.957 376.756 230.345 376.96 229.792C378.912 224.52 380.931 219.279 382.617 213.915C383.176 212.135 383.806 210.358 384.211 208.536C384.249 208.359 384.471 207.028 384.66 206.452C384.841 205.907 385.181 205.647 385.334 205.576C385.645 205.425 385.947 205.428 386.239 205.553C386.423 205.629 386.668 205.777 386.831 206.138C387.005 206.528 386.922 206.978 386.65 207.282ZM385.37 207.519C385.163 207.413 384.988 207.238 384.885 207.01C385.012 207.294 385.19 207.442 385.37 207.519ZM392.845 226.042C392.251 226.646 391.314 228.189 391.122 228.429C388.516 231.646 385.76 234.742 383.004 237.829C382.611 238.267 381.937 238.306 381.499 237.915C381.061 237.522 381.023 236.848 381.413 236.41C384.149 233.349 386.881 230.28 389.465 227.086C389.684 226.814 390.802 225.034 391.447 224.428C392.047 223.863 392.668 223.907 392.979 224.049C393.514 224.292 393.75 224.925 393.508 225.46C393.378 225.753 393.132 225.957 392.845 226.042ZM385.899 248.277C385.843 248.274 385.589 248.256 385.399 248.274C384.944 248.315 384.388 248.434 383.767 248.599C380.579 249.442 375.925 251.444 374.624 251.84C374.062 252.012 373.468 251.692 373.293 251.131C373.122 250.569 373.438 249.974 374 249.8C375.31 249.401 380.009 247.384 383.22 246.535C384.314 246.248 385.258 246.095 385.902 246.13C386.366 246.157 386.724 246.278 386.984 246.441C387.481 246.757 387.626 247.413 387.313 247.91C387.011 248.392 386.39 248.546 385.899 248.277ZM109.001 311.021C108.809 311.048 108.605 311.024 108.412 310.935C107.877 310.693 107.641 310.06 107.886 309.525C107.992 309.288 108.167 309.102 108.418 308.978C108.613 308.883 109.036 308.788 109.586 308.972C110.509 309.273 112.626 310.512 112.801 310.607C116.456 312.603 119.655 315.374 122.737 318.145C123.174 318.538 123.21 319.212 122.816 319.647C122.423 320.085 121.749 320.12 121.314 319.727C118.354 317.068 115.291 314.392 111.78 312.476C111.63 312.393 109.861 311.332 109.001 311.021ZM109.211 317.308C108.797 317.388 108.359 317.216 108.114 316.847C107.794 316.353 107.93 315.693 108.421 315.371C108.817 315.111 109.382 315.037 110.039 315.333C111.1 315.809 112.798 317.675 113.206 318.053C113.635 318.452 113.658 319.129 113.256 319.558C112.854 319.987 112.18 320.011 111.748 319.609C111.476 319.357 110.574 318.337 109.74 317.666C109.583 317.533 109.338 317.382 109.211 317.308ZM398.473 59.8998C398.009 60.2606 397.34 60.1748 396.977 59.7135C396.616 59.2492 396.702 58.5809 397.163 58.2172C397.55 57.9156 398.121 57.7293 398.751 57.6731C399.437 57.608 400.197 57.682 400.67 57.7322C403.275 58.0102 405.715 59.1369 408.086 60.1807C408.625 60.4173 408.87 61.0472 408.631 61.5824C408.394 62.1206 407.764 62.366 407.226 62.1295C405.052 61.1714 402.832 60.1039 400.445 59.8495C400.129 59.8141 399.656 59.7667 399.191 59.7786C398.919 59.7874 398.638 59.7727 398.473 59.8998ZM101.215 316.793C100.742 316.441 100.644 315.773 100.993 315.303C101.345 314.833 102.013 314.732 102.483 315.084C103.01 315.477 103.625 316.004 104.127 316.592C104.509 317.039 104.459 317.713 104.009 318.094C103.563 318.476 102.888 318.426 102.507 317.976C102.114 317.515 101.629 317.101 101.215 316.793Z" fill="white" fill-opacity="0.8"/>
</svg>
