<svg viewBox="0 0 57 56" fill="none" xmlns="http://www.w3.org/2000/svg">
<path d="M1.23859e-09 19.3034C0.100416 19.167 0.237238 19.1036 0.295523 18.9974C0.788763 18.0982 1.56749 17.6754 2.56663 17.6676C2.91659 17.6649 3.09594 17.5662 3.23527 17.2405C3.62886 16.3206 4.06149 15.4172 4.55793 14.4848C4.84391 14.4286 5.0507 14.395 5.25074 14.4026C4.70165 15.5736 4.15932 16.7033 3.62478 17.8167C4.39338 18.3365 4.4128 18.3544 4.95261 17.7697C5.9834 16.6532 6.99571 15.5195 8.00413 14.3827C8.72425 13.5709 9.41684 12.7348 10.1377 11.9237C10.809 11.1682 11.5015 10.4314 12.2295 9.68442C12.5846 9.60936 12.8948 9.53633 13.2 9.50081C12.6295 10.1453 12.0529 10.7422 11.5009 11.3611C10.0635 12.9725 8.63434 14.5912 7.20719 16.2117C6.46348 17.0562 5.72551 17.9059 5.00109 18.7667C4.92006 18.863 4.878 19.0956 4.93794 19.179C5.0057 19.2733 5.2228 19.33 5.35135 19.3005C6.6747 18.9968 7.9906 18.6609 9.31389 18.357C10.6902 18.041 12.0724 17.7503 13.4389 17.4827C13.3205 17.709 13.2152 17.901 13.0701 18.114C10.5544 18.7305 8.08227 19.3431 5.59858 19.9048C5.1949 19.9961 5.12723 20.1499 5.12362 20.5003C5.11303 21.5274 4.52935 22.2165 3.65954 22.6294C3.33178 22.785 3.2718 22.9526 3.31239 23.2201C3.44355 24.0846 3.61123 24.9437 3.73626 25.809C3.86944 26.7307 3.97006 27.6572 4.04726 28.5912C3.85746 28.6324 3.70529 28.6638 3.54326 28.6492C3.49809 28.517 3.443 28.4337 3.43038 28.3444C3.19543 26.6826 2.97105 25.0193 2.72655 23.359C2.70044 23.1817 2.56304 23.0208 2.47727 22.8523C2.42922 22.8721 2.38117 22.8919 2.33312 22.9117C2.23301 23.6637 2.13291 24.4156 1.9885 25.1676C1.79653 25.1676 1.64886 25.1676 1.50119 25.1676C1.56141 24.5061 1.61225 23.8436 1.68636 23.1837C1.71701 22.9108 1.67861 22.7862 1.40631 22.5904C0.894859 22.2227 0.502941 21.6893 0.0306586 21.2617C-2.31028e-07 20.6513 -2.26761e-07 20.004 1.23859e-09 19.3034Z" fill="#3A5BFF"/>
<path d="M57 18.6285C56.8776 18.7461 56.7354 18.7893 56.6361 18.8795C55.9818 19.4737 55.2257 19.3031 54.7618 18.8825C54.2249 18.3959 54.2506 17.5234 54.7858 16.9662C55.2685 16.4637 56.0858 16.4883 56.6469 17.0201C56.7425 17.1107 56.846 17.1931 56.9729 17.2405C57 17.6598 57 18.1178 57 18.6285Z" fill="#3A5BFF"/>
<path d="M11.8561 47.5671C9.67262 45.952 7.78913 44.0446 6.2337 41.8174C6.09396 41.6173 5.95216 41.482 5.65564 41.5662C4.65031 41.8519 3.89671 41.4809 3.44951 40.4446C4.4898 39.788 5.50079 39.1899 6.54625 38.6084C6.72479 38.9995 7.02636 39.0046 7.33806 38.9204C9.50645 38.3344 11.6694 37.7278 13.8427 37.1608C14.2484 37.055 14.5363 36.9857 14.5005 36.4698C14.4854 36.2515 14.6799 36.0262 14.7312 35.7935C14.7807 35.5694 14.8423 35.3042 14.7679 35.1057C14.6068 34.6755 14.3623 34.2765 14.1972 33.8394C14.3767 33.707 14.5109 33.5998 14.6701 33.5263C14.9786 34.0785 15.2621 34.5971 15.5417 35.1086C15.8528 35.0581 16.1867 34.897 16.4195 34.9895C16.8378 35.1558 16.9022 34.9194 17.0145 34.6579C17.4941 33.5412 17.9745 32.4249 18.4993 31.3037C18.7511 31.2671 18.9582 31.2353 19.1585 31.2455C18.6915 32.4064 18.3047 33.5638 17.7433 34.6296C17.4107 35.2611 17.5741 35.5982 18.0662 35.9984C21.4384 34.0721 24.8253 32.1374 28.2123 30.2026C28.2044 30.1385 28.1966 30.0743 28.1887 30.0101C26.847 29.3867 25.5053 28.7633 24.18 28.1064C24.3024 27.9346 24.4084 27.7963 24.5569 27.6649C25.8744 28.2363 27.1496 28.8009 28.4221 29.3642C29.0928 28.7956 29.6352 28.7535 30.3929 29.199C31.7646 28.2634 33.1313 27.3312 34.4649 26.4216C34.4247 26.0651 34.3892 25.75 34.3498 25.4001C33.2925 24.8445 32.205 24.2731 31.1482 23.6717C31.2906 23.511 31.4023 23.3804 31.5578 23.2483C32.2377 23.5644 32.8905 23.8529 33.5052 24.2072C34.1272 24.5657 34.7017 25.0762 35.4624 24.3176C35.6491 22.5045 35.846 20.5928 36.0793 18.6703C36.3069 18.5908 36.4981 18.5221 36.6963 18.5014C36.667 18.8632 36.6325 19.1772 36.5938 19.4907C36.5252 20.0459 36.4397 20.5994 36.3872 21.1561C36.294 22.1444 36.1954 23.1334 36.1481 24.1244C36.1216 24.6793 36.7925 25.0162 37.2531 24.7187C39.0379 23.5656 40.8262 22.418 42.5995 21.2475C42.7417 21.1536 42.8244 20.9084 42.8552 20.7206C42.9213 20.3177 42.8651 19.8826 42.9926 19.5057C43.0981 19.1939 43.0495 19.0353 42.841 18.8199C42.0016 17.9527 41.1797 17.0688 40.3749 16.1621C40.5406 16.0323 40.6826 15.9315 40.8246 15.8307C41.6521 16.6819 42.486 17.5271 43.3027 18.3885C43.5051 18.6021 43.6801 18.6696 43.9751 18.573C44.8463 18.2878 45.6316 18.5008 46.0946 19.1049C46.6484 19.8273 46.6912 20.6533 46.1457 21.4385C45.9876 21.6661 45.6931 21.8285 45.4278 21.9451C45.1281 22.0768 44.9686 22.2401 44.9778 22.6238C44.7415 22.7094 44.5533 22.7437 44.3576 22.7307C44.5429 22.0159 43.9249 21.9893 43.5876 21.7929C43.4119 21.6906 43.0578 21.7059 42.8826 21.8193C41.0175 23.0264 39.1772 24.2717 37.317 25.4864C36.9524 25.7244 36.9745 25.9315 37.2329 26.2038C37.48 26.4642 37.7278 26.724 37.9372 26.9966C37.7258 27.0798 37.5525 27.1504 37.345 27.2048C37.1628 26.9481 37.0147 26.7076 36.8667 26.4671C36.5054 26.8183 36.3298 26.9871 36.2781 27.1878C35.7199 29.3565 35.1812 31.5302 34.5965 33.708C34.3675 33.7479 34.1792 33.7822 33.9838 33.7709C34.5406 31.4995 35.1043 29.2737 35.7 26.9219C35.2887 26.9801 34.8973 26.928 34.6432 27.0901C33.6057 27.7524 32.6265 28.5053 31.5923 29.1731C31.0744 29.5075 30.6156 29.8073 30.7723 30.5252C30.7892 30.6025 30.7436 30.7163 30.6893 30.7822C30.4052 31.1266 30.5787 31.3988 30.7719 31.7145C31.403 32.7455 32.0049 33.7944 32.5835 34.853C32.3835 34.9356 32.2182 35.0018 32.0346 35.032C31.3081 33.8407 30.5997 32.6853 29.8914 31.5299C29.8343 31.5458 29.7772 31.5616 29.7201 31.5774C29.535 34.9411 29.35 38.3047 29.1284 41.6792C28.901 41.7587 28.7101 41.8273 28.5117 41.8448C28.5407 41.3833 28.5914 40.9736 28.6109 40.5625C28.6931 38.8315 28.7653 37.1001 28.8435 35.3689C28.8493 35.2383 28.879 35.1088 28.8873 34.9782C28.9592 33.8441 29.0288 32.7098 29.099 31.5756C29.0537 31.5623 29.0084 31.5491 28.963 31.5359C26.656 34.7849 24.3489 38.034 22.0394 41.2865C22.68 42.0483 22.776 42.8415 22.2143 43.7021C22.1491 43.802 22.229 44.0536 22.3168 44.1847C22.5762 44.572 22.8734 44.9341 23.1242 45.3259C22.9555 45.452 22.8183 45.5581 22.6461 45.6469C22.3211 45.264 22.0471 44.8839 21.7319 44.5415C21.6326 44.4336 21.4137 44.3625 21.2654 44.3841C20.3346 44.5193 19.1671 44.3191 18.8993 42.9756C18.8228 42.5919 18.5386 42.5196 18.2132 42.4626C16.4513 42.1545 14.6896 41.8448 12.9308 41.5192C11.2097 41.2006 9.49289 40.8594 7.77275 40.5358C7.47759 40.4802 7.1752 40.463 6.87614 40.4281C6.82946 40.4971 6.78278 40.5661 6.7361 40.635C6.84137 40.6745 6.95353 40.7015 7.05089 40.7553C8.35777 41.4767 9.66433 42.1988 10.9675 42.927C12.4475 43.754 13.924 44.5874 15.3673 45.4421C15.1737 45.5917 15.0148 45.7173 14.8239 45.819C14.4645 45.6179 14.1348 45.4444 13.8099 45.2626C12.2301 44.3789 10.6542 43.4882 9.07137 42.61C8.35347 42.2116 7.6228 41.8362 6.89792 41.4504C8.38857 43.6717 10.2561 45.4971 12.2947 47.1463C12.1278 47.2997 11.992 47.4334 11.8561 47.5671ZM26.9045 33.3037C27.4316 32.538 27.9587 31.7723 28.4858 31.0066C28.4376 30.9722 28.3893 30.9379 28.3411 30.9036C28.2416 30.9474 28.1369 30.9823 28.0433 31.0363C26.8465 31.7266 25.6557 32.4273 24.4547 33.1101C22.4746 34.2357 20.4853 35.3452 18.5098 36.4787C18.3438 36.5739 18.1577 36.7907 18.1425 36.965C18.0687 37.814 17.6359 38.3432 16.8417 38.6104C16.0199 38.887 15.3595 38.6171 14.8461 37.9795C14.6213 37.7003 14.4371 37.6537 14.0919 37.7534C12.7686 38.1359 11.4316 38.4712 10.1001 38.8259C9.08171 39.0972 8.064 39.3712 6.96416 39.6659C7.14801 39.7518 7.24312 39.8226 7.34753 39.8411C9.11016 40.1535 10.8764 40.4463 12.6368 40.7702C14.5793 41.1275 16.5152 41.5206 18.4588 41.8712C18.6489 41.9055 18.9628 41.8155 19.0666 41.6726C19.632 40.8948 20.2634 40.6299 21.1993 40.7947C21.3672 40.8243 21.6408 40.7151 21.7432 40.5786C22.2685 39.8784 22.7485 39.1445 23.2542 38.4293C24.4492 36.7391 25.6497 35.0527 26.9045 33.3037Z" fill="#3A5BFF"/>
<path d="M28.5191 41.896C28.7101 41.8273 28.901 41.7587 29.1355 41.7275C29.1428 41.9648 29.0832 42.1637 29.0743 42.3648C29.0276 43.4165 29.0104 44.4698 28.9504 45.5206C28.9004 46.3971 28.7826 47.2699 28.7424 48.1466C28.7278 48.4671 28.5221 48.9281 29.1096 49.0557C29.5229 47.8769 29.933 46.7073 30.3837 45.5322C30.6125 45.4924 30.8007 45.4581 30.9804 45.466C30.569 46.7564 30.1661 48.0046 29.7671 49.2411C30.5551 49.803 30.56 49.8078 31.1798 49.1734C31.4017 48.9463 31.5836 48.6806 31.8009 48.4485C32.9862 47.1824 34.1783 45.9225 35.3651 44.6576C35.8806 44.1081 36.389 43.5519 36.9004 42.9987C38.0479 41.7572 39.1954 40.5157 40.3853 39.2692C40.8155 39.1172 41.2032 38.9703 41.5857 38.8608C41.1083 39.4114 40.6371 39.9254 40.1638 40.4375C38.7951 41.9185 37.4305 43.4032 36.055 44.8779C34.8449 46.1752 33.6185 47.4575 32.4071 48.7536C31.9332 49.2606 31.4804 49.7873 30.8719 50.4685C31.2123 50.4981 31.4554 50.5964 31.6191 50.5215C33.3875 49.7133 35.1403 48.8711 36.9039 48.0523C38.0047 47.5413 39.1211 47.0636 40.2229 46.5547C41.7319 45.8578 43.2337 45.1455 44.7641 44.4279C44.7098 44.2396 44.6635 44.0844 44.6205 43.9284C44.3269 42.8634 44.7969 41.6153 45.7532 41.1066C46.107 40.9184 46.1301 40.705 46.0438 40.4022C45.6776 39.1164 45.3052 37.8322 44.9708 36.5345C45.1708 36.4528 45.3351 36.3842 45.5348 36.3401C45.9229 37.6556 46.2694 38.9485 46.6367 40.2354C46.68 40.3872 46.8162 40.5926 46.9466 40.6254C47.4614 40.7552 47.9911 40.826 48.526 40.9206C49.8487 39.0554 50.8419 36.9944 51.5875 34.8172C51.9295 33.8184 52.1717 32.7856 52.5061 31.7682C52.7099 31.7697 52.8666 31.771 53.0234 31.7724C52.6809 33.0453 52.3997 34.3388 51.9818 35.5866C51.3093 37.5947 50.3222 39.4588 49.1359 41.2157C49.0852 41.2908 49.0575 41.3813 49.022 41.4583C50.0512 42.4994 49.9165 44.0718 49.1657 44.9782C48.5449 45.7276 47.2172 46.3246 45.6259 45.4388C41.7172 49.1344 37.1121 51.5238 31.7587 52.3981C31.3386 54.7456 29.9762 56.1385 28.1253 55.9891C26.4028 55.8501 24.8955 54.8413 24.6945 52.7134C23.3182 52.4129 21.9586 52.116 20.576 51.7605C20.6882 51.5646 20.8235 51.4272 20.9967 51.31C22.2402 51.5506 23.4457 51.7713 24.6615 51.9938C24.7422 51.7135 24.7909 51.5442 24.8392 51.3764C24.2126 51.0154 23.6179 50.6728 23.0397 50.2967C23.1623 50.1252 23.2684 49.9871 23.4155 49.8556C23.989 50.1512 24.5215 50.4403 25.0637 50.7346C25.299 50.4453 25.5228 50.1703 25.7983 49.8318C25.3151 49.2029 24.8113 48.5613 24.3232 47.908C23.7685 47.1656 23.2279 46.4127 22.6812 45.6643C22.8183 45.5581 22.9555 45.452 23.1574 45.3456C24.1573 46.5781 25.112 47.7965 26.016 49.0514C26.3029 49.4495 26.5235 49.4078 26.8816 49.1987C27.1146 49.0626 27.4069 48.9775 27.6766 48.9664C28.0687 48.9502 28.1417 48.7342 28.1582 48.4223C28.193 47.7663 28.2351 47.1105 28.2712 46.4545C28.3548 44.9351 28.4366 43.4155 28.5191 41.896ZM44.4818 45.3117C42.9698 46.003 41.4577 46.694 39.9459 47.3858C38.6035 48 37.2592 48.6101 35.9199 49.2312C34.5625 49.8607 33.2062 50.4929 31.8618 51.1492C31.7139 51.2214 31.6476 51.4601 31.5434 51.6215C31.59 51.6693 31.6366 51.7171 31.6832 51.7649C32.2974 51.6413 32.9169 51.5395 33.5247 51.3904C35.935 50.7995 38.2118 49.8746 40.3468 48.6102C41.897 47.6922 43.3625 46.6589 44.6975 45.348C44.71 45.3065 44.7224 45.265 44.7348 45.2235C44.6784 45.2493 44.6221 45.275 44.4818 45.3117Z" fill="#3A5BFF"/>
<path d="M53.0602 31.7448C52.8666 31.771 52.7099 31.7697 52.4988 31.7205C52.5516 31.0306 52.6731 30.3904 52.7604 29.7456C52.8083 29.3918 52.8857 29.0029 52.7849 28.6814C52.7154 28.4601 52.3628 28.3273 52.1355 28.154C51.569 28.6751 51.0344 29.1803 50.4853 29.6693C49.1796 30.8321 47.862 31.9817 46.5659 33.1549C46.4493 33.2604 46.3695 33.5253 46.4155 33.6714C46.7071 34.5978 46.4428 35.3244 45.7135 35.9287C45.6077 36.0163 45.569 36.1846 45.4993 36.3156C45.3351 36.3842 45.1708 36.4528 44.9629 36.489C44.7057 36.1216 44.191 36.0679 43.897 36.3749C43.1216 37.1846 42.3587 38.0064 41.5909 38.8233C41.2032 38.9703 40.8155 39.1172 40.4023 39.2347C41.4215 38.0722 42.4662 36.9393 43.4514 35.8709C43.241 35.5502 43.0532 35.2641 42.8624 34.9734C40.3455 35.3862 37.8129 35.8014 35.2771 36.2172C35.6021 37.7274 34.7379 38.7211 33.216 38.7555C32.4746 40.9755 31.7317 43.1996 30.9889 45.4238C30.8007 45.4581 30.6125 45.4924 30.3766 45.4877C30.34 45.3756 30.3405 45.299 30.3637 45.23C31.0677 43.1385 31.7808 41.05 32.4677 38.953C32.5274 38.7709 32.4951 38.4354 32.3722 38.3369C31.4554 37.6019 31.4532 36.3033 32.2484 35.3981C32.1833 35.288 32.1181 35.178 32.0529 35.0679C32.2182 35.0018 32.3835 34.9356 32.6194 34.8766C33.0994 35.2081 33.6153 35.0662 33.7458 34.5987C33.8192 34.3357 33.9087 34.0771 33.9909 33.8164C34.1792 33.7822 34.3675 33.7479 34.5876 33.7507C34.5573 33.9998 34.4869 34.2097 34.4345 34.424C34.2256 35.2797 34.5585 35.6453 35.4426 35.5227C35.9033 35.4588 36.3606 35.3707 36.8202 35.2979C38.8227 34.9808 40.8254 34.6652 42.867 34.3429C42.7084 33.8172 43.4264 33.2749 42.7685 32.7757C42.9342 32.6464 43.0763 32.5459 43.2531 32.4622C43.6273 33.0115 43.9733 32.5667 44.365 32.5018C44.365 32.171 44.365 31.8557 44.4056 31.5348C44.6345 31.4951 44.8227 31.4608 45.011 31.4266C45.016 31.4642 45.0301 31.503 45.0248 31.5391C44.926 32.2182 45.0466 32.7621 45.882 32.8618C46.7479 32.0868 47.6414 31.2788 48.5443 30.4814C49.4174 29.7105 50.3042 28.9552 51.1766 28.1836C51.5401 27.862 51.8605 27.5255 51.9879 27.0101C52.1638 26.2984 52.7163 25.9149 53.3286 25.9653C53.9326 26.0151 54.495 26.5715 54.5974 27.2206C54.6806 27.7482 54.2026 28.3726 53.5124 28.6534C53.3731 29.6809 53.2351 30.699 53.0602 31.7448Z" fill="#3A5BFF"/>
<path d="M13.2051 9.4633C12.8948 9.53633 12.5846 9.60936 12.2465 9.64974C13.7749 7.86483 15.331 6.11257 16.8904 4.35665C16.761 4.17817 16.6548 4.0318 16.5369 3.86913C16.4008 3.91942 16.2677 3.94377 16.1623 4.01125C14.6252 4.99566 13.002 5.87383 11.5833 7.00689C10.2295 8.08816 9.01319 9.37075 7.87901 10.6873C6.90097 11.8225 6.12359 13.13 5.25749 14.3614C5.0507 14.395 4.84391 14.4286 4.59196 14.464C5.26682 13.3177 5.9219 12.1216 6.72569 11.0352C7.48168 10.0134 8.34758 9.06044 9.24838 8.1602C11.0571 6.35264 13.1033 4.84896 15.4049 3.71488C15.9976 3.42284 16.3641 3.12269 16.3367 2.33734C16.3054 1.43813 16.8267 0.72586 17.6681 0.301932C18.5657 -0.150317 19.4369 -0.0806117 20.2882 0.417984C21.4122 1.07623 21.7016 2.46662 21.3188 3.58583C21.2639 3.74617 21.3169 4.05265 21.4349 4.14492C22.2416 4.77548 23.0789 5.36686 23.9025 6.0332C23.7589 6.23638 23.6192 6.37723 23.4445 6.5009C22.5248 5.80413 21.6401 5.12455 20.8741 4.53614C20.3044 4.76784 19.8262 4.94314 19.368 5.16028C19.23 5.22569 19.0752 5.39588 19.0524 5.53795C18.9786 5.99831 18.9479 6.46725 18.927 6.93407C18.874 8.11821 18.8354 9.303 18.7504 10.4931C18.5215 10.5329 18.3332 10.5671 18.1375 10.5506C18.2295 8.73044 18.3289 6.96097 18.4289 5.17955C18.291 5.15143 18.1364 5.16351 18.0432 5.09381C17.4659 4.66205 17.1059 4.89467 16.8271 5.45261C16.7867 5.53336 16.6986 5.58968 16.6354 5.65978C15.4917 6.92739 14.3484 8.19539 13.2051 9.4633Z" fill="#3A5BFF"/>
<path d="M36.6892 18.4535C36.4981 18.5221 36.3069 18.5908 36.072 18.6212C36.0688 18.08 36.1036 17.5763 36.1514 17.0739C36.2574 15.9589 36.3882 14.8459 36.4712 13.7294C36.5062 13.259 36.194 13.0853 35.791 13.3407C34.5328 14.1383 33.2839 14.951 32.0465 15.7804C31.917 15.8672 31.8032 16.1171 31.8264 16.2695C32.0446 17.7015 31.0114 18.751 29.5213 18.4098C29.0458 18.3009 28.7999 18.414 28.4709 18.6919C28.1061 18.8045 27.7834 18.9113 27.4776 18.9827C27.8205 18.5637 28.1464 18.1801 28.4766 17.7916C28.1482 16.9743 28.1482 16.9767 27.2792 16.9737C26.1661 16.9698 25.0531 16.9616 23.9578 16.9243C24.1157 16.699 24.2558 16.5046 24.4489 16.3029C25.7472 16.2954 26.9925 16.2954 28.0719 16.2954C28.3963 15.8038 28.6444 15.4279 28.8951 15.048C28.6749 14.594 28.4476 14.1254 28.2511 13.6243C28.435 13.5038 28.588 13.4158 28.741 13.3279C28.8139 13.4737 28.8926 13.6168 28.9587 13.7656C29.2198 14.3538 29.3889 15.0356 30.3034 14.8269C30.4767 14.7873 30.7539 14.8666 30.8752 14.9937C31.3069 15.4462 31.6505 15.2433 32.0647 14.9623C33.1436 14.2303 34.2556 13.5469 35.3324 12.8122C35.5065 12.6934 35.6521 12.4167 35.6672 12.2029C35.7266 11.3611 36.2921 10.7451 37.0528 10.8394C37.8306 10.9358 38.422 11.3653 38.2747 12.3213C38.1779 12.949 38.4567 13.2956 38.8118 13.6641C39.3375 14.2096 39.8858 14.7334 40.4154 15.2752C40.5574 15.4204 40.6665 15.5977 40.8077 15.7955C40.6826 15.9315 40.5406 16.0323 40.3402 16.1449C39.3969 15.2174 38.512 14.278 37.6319 13.3435C37.4606 13.4077 37.3119 13.4634 37.1658 13.5182C37.0045 15.1881 36.8469 16.8208 36.6892 18.4535Z" fill="#3A5BFF"/>
<path d="M6.51178 38.5918C5.50079 39.1899 4.4898 39.788 3.4433 40.4042C3.11905 39.5407 3.37664 38.8178 3.94682 38.331C3.33862 36.5043 2.75465 34.7505 2.21642 32.9462C2.41376 32.8613 2.56538 32.8268 2.73729 32.831C3.20817 34.1666 3.64458 35.4686 4.1171 36.7573C4.28063 37.2034 4.53382 37.6167 4.74606 38.0449C4.7921 38.022 4.83815 37.9991 4.8842 37.9762C4.73783 36.9477 4.59904 35.9181 4.44308 34.891C4.26967 33.7492 4.06841 32.6115 3.90222 31.4687C3.76815 30.5468 3.6682 29.62 3.55311 28.6953C3.70529 28.6639 3.85746 28.6324 4.05716 28.637C4.18038 29.0548 4.26953 29.4344 4.32925 29.8186C4.51525 31.015 4.69238 32.2128 4.86867 33.4107C5.0722 34.7937 5.26302 36.1786 5.48113 37.5592C5.51299 37.7609 5.66553 37.9435 5.76223 38.135C5.8098 38.1132 5.85736 38.0914 5.90493 38.0697C6.86894 34.9449 7.83295 31.8202 8.83819 28.693C9.06728 28.6542 9.25515 28.6178 9.44855 28.6258C9.37905 28.9375 9.31004 29.2066 9.22805 29.4718C8.4819 31.8845 7.72685 34.2945 6.99034 36.7102C6.8018 37.3286 6.66977 37.9641 6.51178 38.5918Z" fill="#3A5BFF"/>
<path d="M28.7343 13.2866C28.588 13.4158 28.435 13.5038 28.2256 13.5904C27.4821 12.179 26.7969 10.7678 26.1064 9.35923C25.9285 8.99625 25.1343 8.86347 24.8689 9.16889C24.3911 9.71883 23.9514 10.3017 23.475 10.853C22.6547 11.8021 21.8186 12.7374 20.9471 13.6845C20.5823 13.7972 20.2595 13.9041 19.9538 13.9763C20.0767 13.834 20.1899 13.7325 20.2873 13.6177C21.5313 12.1521 22.7707 10.6826 24.0169 9.21887C24.3352 8.84497 24.6158 8.47823 24.3854 7.94231C24.3362 7.82791 24.4098 7.66612 24.3801 7.53686C24.3409 7.36672 24.2961 7.16699 24.1813 7.05184C23.9759 6.84563 23.7164 6.69307 23.4794 6.51809C23.6192 6.37723 23.7589 6.23638 23.9223 6.06658C24.0691 6.12007 24.2176 6.18075 24.3109 6.28889C24.6203 6.64746 24.8969 6.66148 25.3517 6.4514C25.8724 6.21094 26.3601 6.51359 26.7254 6.94979C27.1153 7.41542 27.1241 7.93199 26.786 8.3846C26.498 8.77024 26.6363 9.06205 26.8035 9.39615C27.4456 10.6789 28.0864 11.9622 28.7343 13.2866Z" fill="#3A5BFF"/>
<path d="M20.9587 51.2899C20.8235 51.4272 20.6882 51.5646 20.5365 51.7397C19.5468 51.4694 18.5454 51.2291 17.6062 50.8394C15.5822 49.9996 13.6588 48.9633 11.8913 47.5853C11.992 47.4334 12.1278 47.2997 12.33 47.1627C14.995 49.0638 17.8597 50.419 20.9587 51.2899Z" fill="#3A5BFF"/>
<path d="M45.0184 31.3737C44.8227 31.4608 44.6345 31.4951 44.3982 31.482C44.3551 28.549 44.3601 25.6635 44.365 22.7779C44.5533 22.7437 44.7415 22.7094 44.9703 22.6696C45.0159 25.5497 45.0209 28.4353 45.0184 31.3737Z" fill="#3A5BFF"/>
<path d="M34.2596 8.868C33.4176 9.1934 32.7489 9.04526 32.3942 8.4835C31.9802 7.82792 32.0946 7.15576 32.6977 6.69981C33.2536 6.27959 33.9806 6.33899 34.4716 6.82946C34.8908 7.24815 34.9751 8.12115 34.5008 8.64912C34.4378 8.71931 34.3661 8.7818 34.2596 8.868Z" fill="#3A5BFF"/>
<path d="M2.71699 32.7923C2.56538 32.8268 2.41376 32.8613 2.22357 32.9008C1.98944 32.0022 1.72928 31.1066 1.61465 30.1928C1.47027 29.0419 1.42448 27.8769 1.37776 26.7163C1.35837 26.2347 1.44664 25.7489 1.49357 25.2163C1.64886 25.1676 1.79653 25.1676 1.99604 25.2205C2.04925 25.5379 2.03968 25.803 2.05383 26.0668C2.12505 27.3947 2.16778 28.7254 2.28958 30.0489C2.37424 30.9686 2.57056 31.8782 2.71699 32.7923Z" fill="#3A5BFF"/>
<path d="M42.0662 6.50424C41.3924 6.36474 41.2005 6.1045 41.2694 5.48664C41.3216 5.01929 41.6268 4.77066 42.1225 4.79917C42.5894 4.82602 42.8354 5.07442 42.8642 5.54281C42.9018 6.15278 42.7388 6.36455 42.0662 6.50424Z" fill="#3A5BFF"/>
<path d="M46.3551 10.2651C47.2323 10.4825 47.1978 11.5455 46.7085 11.7882C46.45 11.9165 45.9937 11.9635 45.797 11.8179C45.5647 11.6459 45.3825 11.2088 45.4206 10.9182C45.4746 10.5066 45.7918 10.1829 46.3551 10.2651Z" fill="#3A5BFF"/>
<path d="M33.1563 2.52548C32.7109 2.727 32.2655 2.71659 32.0834 2.32605C31.9414 2.02148 31.9344 1.52289 32.0966 1.24276C32.2828 0.921197 32.7246 0.837547 33.1424 1.04151C33.6198 1.27452 33.6579 1.97881 33.1563 2.52548Z" fill="#3A5BFF"/>
<path d="M13.4389 17.4827C14.1135 17.2739 14.775 17.0993 15.4719 16.9154C15.4779 16.0927 15.6806 15.2935 16.3492 14.733C16.6772 14.4581 17.141 14.3512 17.5117 14.1182C17.7125 13.9921 17.9722 13.772 17.9901 13.5749C18.0768 12.6219 18.0904 11.6623 18.1374 10.6532C18.3332 10.5671 18.5215 10.5329 18.7575 10.5414C18.723 11.7534 18.6407 12.9226 18.5625 14.0344C18.9548 14.1827 19.263 14.2991 19.574 14.4166C19.6953 14.281 19.816 14.146 19.9368 14.011C20.2595 13.9041 20.5823 13.7972 20.9405 13.724C20.6874 14.1228 20.3988 14.4879 20.1293 14.829C20.3005 15.1913 20.5374 15.526 20.61 15.8931C20.683 16.2618 20.8645 16.2939 21.1557 16.2939C22.2358 16.2937 23.3159 16.304 24.396 16.3103C24.2558 16.5046 24.1157 16.699 23.9048 16.9317C22.9609 16.9715 22.0871 16.9558 21.2151 16.9874C21.0195 16.9945 20.8299 17.1673 20.6376 17.2639C20.7624 17.4365 20.8494 17.6763 21.0181 17.7707C22.0593 18.3535 23.119 18.9035 24.1466 19.4989C23.9903 19.6461 23.8599 19.7588 23.6963 19.852C22.5479 19.2794 21.4327 18.7263 20.4568 18.2423C19.7981 18.5974 19.2466 19.0648 18.6292 19.1801C17.9998 19.2976 17.3055 19.069 16.4959 18.9753C15.856 19.6883 15.0896 20.5407 14.3249 21.3947C13.5601 22.2489 12.7971 23.1046 12.0323 23.9608C12.1943 24.2756 12.4709 24.5906 12.5082 24.9317C12.5847 25.6332 12.9449 25.8186 13.5681 25.7398C13.6789 25.7257 13.7945 25.7494 13.8946 25.79C13.7339 25.9864 13.5865 26.1485 13.39 26.3087C13.1037 26.3067 12.8665 26.3067 12.6411 26.3067C12.5174 26.5488 12.4052 26.7686 12.2536 26.9954C11.5627 27.4466 10.9113 27.8908 10.2138 28.3425C9.92619 28.4271 9.6846 28.5043 9.44302 28.5815C9.25515 28.6178 9.06728 28.6542 8.83819 28.693C8.8921 28.3252 8.91834 28.0871 8.46237 27.8193C7.43316 27.2149 7.11523 25.6142 7.6787 24.5066C8.23646 23.4103 9.56499 22.8534 10.7347 23.2303C10.992 23.3133 11.2436 23.4139 11.5588 23.5285C12.7277 22.1947 13.9137 20.8398 15.1025 19.4873C15.2273 19.3453 15.3672 19.2164 15.5012 19.0825C16.1738 18.4102 16.174 18.4103 15.6376 17.5556C14.8276 17.7391 14.0151 17.9233 13.1562 18.1002C13.2152 17.901 13.3205 17.709 13.4389 17.4827Z" fill="#3A5BFF"/>
<path d="M28.4709 18.6919C27.9427 19.3468 27.3724 20.0075 26.7552 20.7227C28.3647 21.5655 29.9163 22.3779 31.491 23.2201C31.4023 23.3804 31.2906 23.511 31.1073 23.6649C29.4479 22.8618 27.8601 22.0355 26.2556 21.2007C25.284 22.2597 24.3303 23.2992 23.3399 24.3786C23.994 25.2026 24.2823 26.1413 24.1865 27.2021C24.1738 27.3431 24.3993 27.5055 24.5145 27.658C24.4084 27.7963 24.3024 27.9346 24.1422 28.1023C23.9944 28.2057 23.9007 28.2798 23.7666 28.3601C22.8935 28.8478 22.0559 29.3213 21.2317 29.8169C21.0466 29.9282 20.9079 30.1167 20.7017 30.2769C19.5952 30.163 19.5953 30.1631 19.2109 31.172C19.2055 31.1862 19.1809 31.1932 19.1653 31.2035C18.9582 31.2353 18.7511 31.2671 18.5062 31.2617C18.6534 30.7687 18.8384 30.3128 19.0208 29.8632C18.0134 29.199 17.3198 28.3763 17.229 27.1969C17.1956 26.7633 17.0154 26.6591 16.6438 26.6437C16.0454 26.619 15.4463 26.5868 14.8506 26.5266C14.3777 26.4788 13.9095 26.3843 13.4391 26.3106C13.5865 26.1485 13.7339 25.9864 13.9423 25.7853C14.9877 25.8565 15.9712 25.9802 16.9583 26.0583C17.0719 26.0673 17.2653 25.8433 17.3208 25.6907C17.8394 24.2651 18.8521 23.359 20.5411 23.2364C21.3872 23.1749 22.1441 23.4723 22.8603 23.9316C23.7986 22.9058 24.712 21.9072 25.6183 20.9163C24.9722 20.5589 24.3508 20.2152 23.7294 19.8715C23.8599 19.7588 23.9903 19.6461 24.188 19.5057C24.8737 19.7793 25.4922 20.0807 26.0556 20.3553C26.5402 19.8941 27.0004 19.4561 27.4607 19.018C27.7834 18.9113 28.1061 18.8045 28.4709 18.6919Z" fill="#3A5BFF"/>
<path d="M23.0397 50.2967C21.2234 49.3429 19.4228 48.3568 17.6238 47.3679C16.7239 46.8732 15.8268 46.3733 14.8922 45.8593C15.0148 45.7173 15.1737 45.5917 15.3673 45.4421C17.1985 46.402 18.9957 47.3846 20.791 48.3708C21.6405 48.8375 22.4861 49.3112 23.354 49.8153C23.2684 49.9871 23.1623 50.1252 23.0397 50.2967Z" fill="#3A5BFF"/>
<path d="M12.2536 26.9954C12.0597 27.2975 11.5881 27.6583 11.6419 27.9051C11.7591 28.4433 12.1434 28.9236 12.4189 29.4274C13.1479 30.7608 13.877 32.0941 14.6256 33.46C14.5109 33.5998 14.3767 33.707 14.1972 33.8394C13.4614 32.6297 12.77 31.3952 12.0809 30.1594C11.817 29.6862 11.5085 29.2297 11.3108 28.73C11.1046 28.209 10.804 28.1383 10.3044 28.3405C10.9113 27.8908 11.5627 27.4466 12.2536 26.9954Z" fill="#3A5BFF"/>
<path d="M42.7685 32.7757C41.3536 31.3544 39.9641 29.9028 38.5705 28.455C38.1908 28.0606 37.799 27.678 37.396 27.2555C37.5525 27.1504 37.7258 27.0798 37.9372 26.9966C39.4859 28.5538 40.9961 30.124 42.5075 31.693C42.73 31.9239 42.9588 32.1488 43.2015 32.411C43.0763 32.5459 42.9342 32.6464 42.7685 32.7757Z" fill="#3A5BFF"/>
<path d="M44.5867 45.323C44.6221 45.275 44.6784 45.2493 44.7348 45.2235C44.7224 45.265 44.71 45.3065 44.6737 45.3689C44.6359 45.3749 44.6218 45.3601 44.5867 45.323Z" fill="#3A5BFF"/>
<path d="M23.7666 28.3601C23.3576 29.4018 22.492 29.9108 21.4379 30.1718C21.2414 30.2204 21.0395 30.2471 20.794 30.2767C20.9079 30.1167 21.0466 29.9282 21.2317 29.8169C22.0559 29.3213 22.8935 28.8478 23.7666 28.3601Z" fill="#3A5BFF"/>
<path d="M28.3493 26.9016C28.1352 26.0704 27.5166 25.7255 26.6852 25.4383C27.6048 25.0887 28.2829 24.6321 28.4893 23.6562C28.7448 24.58 29.3438 25.1277 30.2859 25.3841C30.1069 25.4918 30.0473 25.5425 29.9785 25.5668C29.3571 25.7862 28.8781 26.1364 28.6963 26.8173C28.6381 27.0353 28.5723 27.0303 28.3493 26.9016Z" fill="#3A5BFF"/>
</svg>
