<svg width="453" height="264" viewBox="0 0 453 264" fill="none" xmlns="http://www.w3.org/2000/svg">
<path d="M308.183 58.0003C303.879 60.8365 300.193 64.9324 296.764 68.7497C293.126 72.8005 289.775 77.1073 286.678 81.5843C280.162 91.0034 274.783 101.183 270.344 111.731C261.32 133.173 256.034 156.427 255.055 179.677C254.558 191.509 254.848 203.898 258.1 215.359C258.263 215.934 259.045 215.676 258.968 215.119C257.539 204.705 256.447 194.317 256.631 183.788C256.828 172.444 258.139 161.127 260.373 150.007C264.886 127.551 273.044 105.489 285.431 86.1558C288.728 81.0088 292.345 76.0669 296.31 71.4127C298.252 69.1328 300.279 66.924 302.395 64.8039C304.466 62.7279 306.72 60.8398 308.728 58.7076C309.067 58.3487 308.626 57.7087 308.183 58.0003Z" fill="white"/>
<path d="M308.491 57.9829C308.577 58.0044 308.654 58.0614 308.71 58.1382C308.823 58.2929 308.844 58.5163 308.694 58.6753C307.691 59.7402 306.626 60.7447 305.553 61.7427C304.48 62.7402 303.398 63.7323 302.361 64.771C300.245 66.8919 298.217 69.1017 296.274 71.3823C292.308 76.0383 288.689 80.9818 285.391 86.1304C273.001 105.469 264.841 127.537 260.327 149.999C258.092 161.121 256.781 172.44 256.583 183.787C256.4 194.319 257.492 204.71 258.922 215.125C258.956 215.378 258.797 215.562 258.61 215.619C258.517 215.647 258.419 215.642 258.337 215.6C258.255 215.559 258.183 215.479 258.146 215.346C254.896 203.893 254.605 191.509 255.103 179.678C256.08 156.434 261.366 133.186 270.388 111.75C274.826 101.203 280.203 91.0268 286.717 81.6108C289.813 77.1356 293.162 72.8307 296.799 68.7817C300.228 64.9635 303.911 60.8718 308.209 58.0396C308.309 57.9736 308.406 57.9617 308.491 57.9829Z" stroke="white" stroke-opacity="0.8" stroke-width="0.0944248"/>
<path d="M314.618 62.1973C304.134 83.56 300.24 108.364 301.304 131.993C302.371 155.679 308.478 178.904 317.926 200.589C323.339 213.012 329.619 225.416 337.606 236.397C338.088 237.059 339.148 236.485 338.727 235.741C332.857 225.354 326.779 215.14 321.77 204.292C316.785 193.495 312.612 182.298 309.441 170.834C303.231 148.381 301.047 124.741 304.521 101.636C306.553 88.1238 310.691 75.3289 315.843 62.7136C316.129 62.014 314.951 61.5186 314.618 62.1973Z" fill="white"/>
<path d="M314.66 62.2178C314.812 61.9095 315.157 61.8617 315.444 61.9824C315.587 62.0424 315.708 62.1423 315.777 62.2656C315.846 62.3877 315.864 62.5343 315.799 62.6953C310.646 75.3126 306.507 88.1122 304.475 101.63C300.999 124.742 303.184 148.389 309.396 170.847C312.567 182.313 316.741 193.513 321.728 204.312C326.738 215.162 332.817 225.378 338.687 235.765C338.786 235.94 338.795 236.102 338.752 236.236C338.708 236.371 338.609 236.484 338.481 236.556C338.227 236.699 337.869 236.678 337.645 236.369C329.661 225.392 323.382 212.992 317.97 200.57C308.523 178.889 302.418 155.67 301.352 131.99C300.288 108.368 304.181 83.5718 314.66 62.2178Z" stroke="white" stroke-opacity="0.8" stroke-width="0.0944248"/>
<path d="M305.324 63.3375C301.082 73.5757 294.863 82.5774 289.253 92.0729C286.556 96.6377 284.079 101.353 282.255 106.34C280.418 111.361 278.991 116.553 277.819 121.766C273.083 142.824 272.772 165.147 276.939 186.328C279.226 197.95 282.67 209.775 288.506 220.141C288.63 220.362 289.03 220.21 288.927 219.964C284.82 210.226 281.268 200.363 279.041 190.012C276.742 179.322 275.548 168.402 275.461 157.468C275.375 146.595 276.36 135.703 278.53 125.046C280.698 114.401 283.947 104.147 289.351 94.6841C295.134 84.5596 302.959 74.9447 306.072 63.5434C306.207 63.0483 305.509 62.8905 305.324 63.3375Z" fill="white"/>
<path d="M305.807 63.1328C305.887 63.1531 305.956 63.199 305.998 63.2646C306.039 63.3296 306.057 63.4187 306.026 63.5312C304.472 69.2256 301.74 74.4753 298.673 79.5684C297.139 82.1149 295.521 84.6214 293.926 87.125C292.33 89.6283 290.757 92.129 289.311 94.6611C283.903 104.129 280.653 114.388 278.484 125.036C276.313 135.697 275.328 146.593 275.414 157.469C275.501 168.405 276.695 179.329 278.995 190.022C281.223 200.377 284.776 210.243 288.883 219.982C288.903 220.031 288.899 220.071 288.881 220.104C288.862 220.137 288.827 220.166 288.784 220.184C288.695 220.219 288.593 220.201 288.547 220.118C282.715 209.758 279.271 197.938 276.985 186.318C272.819 165.144 273.131 142.828 277.865 121.776C279.037 116.565 280.463 111.375 282.299 106.356C284.122 101.373 286.598 96.6602 289.294 92.0967C294.902 82.6051 301.124 73.5976 305.368 63.3555C305.45 63.1569 305.645 63.0922 305.807 63.1328Z" stroke="white" stroke-opacity="0.8" stroke-width="0.0944248"/>
<path d="M309.438 67.1463C304.663 74.4167 301.417 82.9539 298.437 91.0871C295.277 99.7115 292.716 108.561 290.854 117.557C287.235 135.041 286.23 153.12 289.191 170.781C290.783 180.281 293.344 190.4 298.243 198.785C298.399 199.054 298.871 198.877 298.76 198.567C297.288 194.466 295.626 190.46 294.329 186.293C293.035 182.136 291.978 177.896 291.154 173.622C289.466 164.874 288.808 155.944 288.97 147.041C289.3 129.063 292.753 111.261 298.553 94.2634C300.191 89.4625 302.014 84.7242 304.023 80.0662C305.872 75.7796 307.986 71.5987 309.726 67.2667C309.794 67.0951 309.531 67.0053 309.438 67.1463Z" fill="white"/>
<path d="M309.625 67.1333C309.651 67.1433 309.672 67.1598 309.682 67.1782C309.691 67.1953 309.694 67.2188 309.682 67.2495C307.942 71.582 305.831 75.7561 303.979 80.0474C301.97 84.7065 300.146 89.4465 298.508 94.2485C292.707 111.251 289.252 129.058 288.923 147.041C288.76 155.946 289.419 164.88 291.107 173.631C291.932 177.907 292.99 182.149 294.284 186.307C295.582 190.475 297.245 194.486 298.715 198.583C298.738 198.648 298.73 198.703 298.706 198.747C298.681 198.791 298.637 198.828 298.584 198.849C298.475 198.892 298.346 198.87 298.283 198.761C293.389 190.384 290.83 180.271 289.237 170.773C286.278 153.119 287.282 135.045 290.9 117.566C292.762 108.573 295.322 99.7252 298.481 91.103C301.461 82.9695 304.706 74.4375 309.478 67.1724C309.508 67.1256 309.571 67.1127 309.625 67.1333Z" stroke="white" stroke-opacity="0.8" stroke-width="0.0944248"/>
<path d="M232.945 243.849C232.437 242.563 231.256 241.624 230.644 240.355C230.037 239.093 229.816 237.695 229.889 236.302C230.053 233.186 231.647 230.212 233.535 227.8C237.641 222.553 244.483 218.24 251.363 218.85C255.797 219.242 258.297 222.057 261.265 224.995C261.658 225.384 262.455 224.995 262.245 224.424C260.892 220.749 257.149 218.108 253.428 217.258C249.696 216.405 245.838 217.177 242.394 218.719C235.923 221.615 229.3 227.96 228.411 235.318C228.204 237.031 228.373 238.775 229.029 240.379C229.632 241.854 230.878 243.923 232.584 244.21C232.778 244.243 233.036 244.079 232.945 243.849Z" fill="white"/>
<path d="M242.413 218.762C245.852 217.223 249.698 216.454 253.417 217.303C257.126 218.151 260.854 220.784 262.2 224.44C262.295 224.698 262.165 224.916 261.958 225.028C261.749 225.14 261.476 225.137 261.298 224.961C258.334 222.028 255.821 219.197 251.367 218.802C244.466 218.191 237.61 222.517 233.498 227.771C231.608 230.187 230.007 233.17 229.842 236.299C229.768 237.698 229.99 239.105 230.602 240.375C230.91 241.016 231.362 241.572 231.796 242.125C232.231 242.679 232.65 243.231 232.901 243.867C232.938 243.959 232.906 244.037 232.841 244.092C232.774 244.149 232.674 244.177 232.592 244.164C231.755 244.022 231.026 243.444 230.43 242.71C229.833 241.978 229.372 241.095 229.072 240.361C228.42 238.766 228.252 237.03 228.458 235.324C229.344 227.988 235.95 221.655 242.413 218.762Z" stroke="white" stroke-opacity="0.8" stroke-width="0.0944248"/>
<path d="M255.877 234.386C256.401 233.514 256.494 232.46 256.967 231.552C257.417 230.691 258.061 229.971 258.857 229.416C260.547 228.237 262.715 227.908 264.734 227.948C266.987 227.992 269.253 228.53 271.311 229.445C273.328 230.341 274.96 231.771 276.866 232.815C277.272 233.038 277.896 232.66 277.712 232.164C276.837 229.804 274.18 228.293 271.993 227.374C269.46 226.308 266.653 225.713 263.897 225.842C261.521 225.953 259.043 226.635 257.258 228.282C255.773 229.652 254.351 232.382 255.244 234.386C255.36 234.648 255.748 234.602 255.877 234.386Z" fill="white"/>
<path d="M263.899 225.889C266.647 225.761 269.447 226.355 271.975 227.417C273.066 227.877 274.274 228.482 275.316 229.266C276.359 230.051 277.235 231.012 277.668 232.181C277.75 232.404 277.654 232.601 277.483 232.72C277.311 232.841 277.073 232.875 276.889 232.774C275.938 232.253 275.056 231.635 274.156 231.035C273.258 230.435 272.342 229.852 271.33 229.402C269.267 228.485 266.995 227.945 264.735 227.901C262.712 227.861 260.532 228.191 258.83 229.377C258.028 229.937 257.378 230.662 256.926 231.53C256.686 231.989 256.543 232.485 256.396 232.969C256.248 233.455 256.095 233.931 255.837 234.362C255.782 234.454 255.668 234.513 255.554 234.518C255.441 234.523 255.335 234.476 255.287 234.368V234.367C254.848 233.381 254.976 232.212 255.403 231.114C255.83 230.016 256.553 228.997 257.29 228.317C259.064 226.68 261.53 226 263.899 225.889Z" stroke="white" stroke-opacity="0.8" stroke-width="0.0944248"/>
<path d="M268.8 227.611C268.408 224.504 269.32 221.738 271.913 219.865C274.456 218.027 277.337 217.807 280.346 217.52C280.89 217.468 280.968 216.795 280.471 216.594C274.145 214.032 264.786 221.078 267.805 227.881C268.014 228.352 268.866 228.129 268.8 227.611Z" fill="white"/>
<path d="M270.664 218.762C273.408 216.478 277.311 215.366 280.453 216.638C280.682 216.73 280.775 216.929 280.752 217.107C280.729 217.285 280.591 217.449 280.342 217.473C277.335 217.759 274.441 217.98 271.885 219.826C269.275 221.711 268.359 224.496 268.753 227.617C268.781 227.844 268.611 228.013 268.394 228.071C268.175 228.13 267.939 228.068 267.848 227.862C266.35 224.487 267.92 221.046 270.664 218.762Z" stroke="white" stroke-opacity="0.8" stroke-width="0.0944248"/>
<path d="M284.372 229.389C285.168 227.327 285.607 225.723 287.923 224.93C290.055 224.2 292.462 224.443 294.57 225.127C296.897 225.882 299.098 227.331 300.481 229.376C301.197 230.434 301.685 231.634 301.887 232.897C302.11 234.293 301.705 235.762 302.12 237.111C302.269 237.595 302.977 237.881 303.346 237.434C304.954 235.486 304.18 232.034 303.225 229.931C302.245 227.771 300.542 226.01 298.537 224.768C295.006 222.582 289.721 221.546 285.998 223.878C284.243 224.978 282.667 227.239 283.22 229.389C283.379 230.005 284.173 229.905 284.372 229.389Z" fill="white"/>
<path d="M286.023 223.918C287.874 222.759 290.114 222.435 292.335 222.675C294.555 222.915 296.752 223.719 298.512 224.808C300.511 226.046 302.207 227.8 303.183 229.951C303.658 230.998 304.088 232.382 304.199 233.745C304.311 235.108 304.103 236.444 303.31 237.405C303.14 237.61 302.892 237.648 302.665 237.577C302.436 237.504 302.234 237.322 302.165 237.097C301.96 236.431 301.957 235.733 301.979 235.023C302 234.315 302.046 233.593 301.934 232.889C301.731 231.619 301.24 230.413 300.521 229.35C299.13 227.295 296.919 225.84 294.584 225.083C292.471 224.397 290.053 224.151 287.908 224.885C286.74 225.285 286.043 225.891 285.538 226.658C285.036 227.421 284.725 228.345 284.328 229.373C284.236 229.612 284.005 229.755 283.778 229.766C283.666 229.772 283.556 229.745 283.466 229.682C283.376 229.62 283.303 229.521 283.266 229.377C282.993 228.318 283.245 227.227 283.785 226.263C284.325 225.299 285.152 224.464 286.023 223.918Z" stroke="white" stroke-opacity="0.8" stroke-width="0.0944248"/>
<path d="M354.979 237.789C354.534 237.256 354.48 236.652 353.849 236.162C353.245 235.693 352.489 235.39 351.783 235.106C350.173 234.459 348.456 234.117 346.726 234.012C343.086 233.792 339.395 234.688 336.148 236.315C333.044 237.872 330.196 240.215 328.383 243.205C326.92 245.617 325.215 250.268 327.337 252.675C327.592 252.964 328.009 252.772 328.125 252.467C328.667 251.039 328.339 249.475 328.62 247.952C328.888 246.497 329.428 245.126 330.195 243.863C331.836 241.157 334.371 239.114 337.184 237.722C340.013 236.322 343.207 235.573 346.366 235.671C347.952 235.72 349.531 236.001 351.021 236.553C351.731 236.816 352.373 237.205 353.065 237.502C353.612 237.736 354.378 237.693 354.865 237.937C354.963 237.986 355.048 237.871 354.979 237.789Z" fill="white"/>
<path d="M336.17 236.357C339.41 234.734 343.092 233.84 346.724 234.06C348.449 234.164 350.161 234.506 351.766 235.15C352.473 235.434 353.223 235.735 353.82 236.199C354.128 236.439 354.296 236.705 354.442 236.981C354.588 237.257 354.716 237.548 354.942 237.819C354.962 237.843 354.96 237.868 354.947 237.884C354.935 237.899 354.913 237.908 354.886 237.895C354.635 237.769 354.314 237.718 353.995 237.669C353.673 237.62 353.351 237.572 353.084 237.458C352.739 237.31 352.408 237.14 352.071 236.973C351.735 236.805 351.395 236.641 351.037 236.509C349.542 235.955 347.958 235.673 346.367 235.624C343.2 235.526 339.998 236.277 337.163 237.68C334.344 239.075 331.801 241.124 330.154 243.839C329.385 245.106 328.843 246.483 328.574 247.943C328.433 248.71 328.444 249.487 328.423 250.244C328.402 251.003 328.348 251.744 328.08 252.45C328.027 252.589 327.905 252.703 327.768 252.749C327.633 252.794 327.485 252.772 327.372 252.644C326.326 251.457 326.22 249.711 326.562 247.951C326.905 246.193 327.694 244.432 328.423 243.229C330.231 240.248 333.071 237.911 336.17 236.357Z" stroke="white" stroke-opacity="0.8" stroke-width="0.0944248"/>
<path d="M331.285 242.02C330.125 236.357 324.168 234.074 319.055 235.852C313.428 237.807 308.748 242.693 305.938 247.829C304.704 250.084 302.59 254.186 303.992 256.763C304.165 257.08 304.628 257.057 304.806 256.763C305.54 255.548 305.671 253.924 306.097 252.579C306.58 251.052 307.271 249.599 308.083 248.219C309.859 245.197 312.25 242.453 315.071 240.364C317.386 238.649 320.225 237.155 323.185 237.265C326.588 237.391 328.27 240.029 330.079 242.529C330.513 243.129 331.44 242.78 331.285 242.02Z" fill="white"/>
<path d="M319.07 235.896C324.164 234.126 330.085 236.403 331.238 242.03C331.311 242.386 331.131 242.641 330.885 242.74C330.668 242.827 330.399 242.795 330.198 242.597L330.117 242.501C328.313 240.008 326.618 237.345 323.187 237.218C320.21 237.107 317.361 238.609 315.043 240.325C312.216 242.419 309.821 245.169 308.042 248.195C307.229 249.577 306.536 251.034 306.052 252.565C305.839 253.24 305.698 253.987 305.521 254.709C305.344 255.434 305.128 256.137 304.766 256.738C304.686 256.87 304.542 256.943 304.396 256.945C304.252 256.948 304.111 256.881 304.034 256.74C303.343 255.47 303.515 253.816 304.021 252.189C304.527 250.565 305.363 248.979 305.979 247.852C308.785 242.722 313.457 237.847 319.07 235.896Z" stroke="white" stroke-opacity="0.8" stroke-width="0.0944248"/>
<path d="M294.012 241.28C297.159 239.216 299.987 237.568 303.906 237.712C305.717 237.779 307.519 238.264 309.065 239.223C310.296 239.986 311.243 241.794 312.713 241.978C312.936 242.006 313.149 241.799 313.208 241.602C313.721 239.879 311.323 238.258 310.07 237.502C308.278 236.42 306.188 235.883 304.106 235.8C300.371 235.652 295.316 237.172 293.395 240.665C293.189 241.041 293.62 241.537 294.012 241.28Z" fill="white"/>
<path d="M304.104 235.847C306.18 235.93 308.262 236.466 310.046 237.542C310.672 237.92 311.58 238.512 312.268 239.222C312.957 239.935 313.411 240.753 313.162 241.588C313.136 241.677 313.074 241.771 312.992 241.838C312.91 241.906 312.814 241.943 312.719 241.931C312.001 241.841 311.407 241.355 310.833 240.785C310.69 240.642 310.548 240.496 310.406 240.349C310.265 240.203 310.123 240.056 309.98 239.916C309.695 239.635 309.402 239.376 309.09 239.182C307.537 238.219 305.725 237.731 303.907 237.665C299.973 237.52 297.134 239.176 293.986 241.241C293.813 241.354 293.632 241.303 293.514 241.177C293.394 241.05 293.345 240.853 293.437 240.687C294.39 238.954 296.123 237.706 298.088 236.911C300.052 236.115 302.243 235.773 304.104 235.847Z" stroke="white" stroke-opacity="0.8" stroke-width="0.0944248"/>
<path d="M321.6 257.672C323.148 255.879 325.431 254.047 327.75 253.452C330.534 252.737 332.728 253.844 334.497 255.97C335.267 256.896 336.86 255.676 336.174 254.675C334.269 251.896 331.084 250.609 327.786 251.343C326.301 251.673 324.909 252.395 323.708 253.318C322.266 254.428 321.572 255.66 320.987 257.315C320.867 257.655 321.364 257.945 321.6 257.672Z" fill="white"/>
<path d="M327.797 251.389C331.075 250.659 334.241 251.938 336.136 254.702C336.459 255.174 336.249 255.703 335.853 256.008C335.655 256.16 335.415 256.252 335.18 256.252C334.946 256.252 334.716 256.16 334.533 255.939C333.646 254.872 332.648 254.058 331.521 253.602C330.394 253.145 329.139 253.047 327.738 253.406C325.406 254.005 323.115 255.845 321.564 257.641C321.466 257.755 321.309 257.756 321.184 257.683C321.058 257.609 320.982 257.473 321.032 257.331C321.615 255.681 322.304 254.458 323.737 253.355C324.933 252.436 326.319 251.717 327.797 251.389Z" stroke="white" stroke-opacity="0.8" stroke-width="0.0944248"/>
<path d="M365.252 236.048C362.702 232.596 357.95 234.764 355.343 236.986C353.053 238.936 348.966 244.608 352.221 247.394C352.704 247.808 353.562 247.561 353.544 246.847C353.505 245.354 353.177 244.108 353.716 242.641C354.257 241.166 355.248 239.862 356.378 238.786C358.531 236.734 361.732 235.215 364.607 236.693C364.987 236.888 365.555 236.458 365.252 236.048Z" fill="white"/>
<path d="M360.329 234.435C362.15 234.049 363.953 234.37 365.214 236.077C365.282 236.169 365.3 236.26 365.286 236.341C365.272 236.423 365.224 236.5 365.154 236.562C365.014 236.687 364.797 236.737 364.629 236.651C361.726 235.159 358.503 236.696 356.346 238.751C355.213 239.831 354.215 241.14 353.671 242.625C353.399 243.365 353.347 244.051 353.366 244.736C353.376 245.078 353.404 245.421 353.432 245.77C353.459 246.12 353.486 246.477 353.496 246.848C353.505 247.182 353.31 247.406 353.054 247.5C352.796 247.593 352.478 247.554 352.251 247.359C350.649 245.987 350.847 243.901 351.746 241.896C352.644 239.893 354.233 237.993 355.373 237.022C356.673 235.914 358.506 234.821 360.329 234.435Z" stroke="white" stroke-opacity="0.8" stroke-width="0.0944248"/>
<path d="M244.908 246.858C242.619 241.496 235.523 240.81 230.595 242.048C224.662 243.538 219.107 247.514 215.78 252.646C214.903 253.999 214.171 255.479 213.7 257.025C213.331 258.234 212.855 260.245 213.553 261.394C213.758 261.732 214.232 261.72 214.439 261.394C215.173 260.24 215.197 258.348 215.659 257.025C216.223 255.41 217.097 253.895 218.117 252.526C220.216 249.708 223.034 247.412 226.125 245.761C229.029 244.209 232.341 243.168 235.662 243.318C239.187 243.478 241.493 245.266 243.938 247.608C244.477 248.125 245.171 247.475 244.908 246.858Z" fill="white"/>
<path d="M230.606 242.093C233.064 241.476 236.062 241.339 238.729 242.024C241.396 242.709 243.727 244.214 244.864 246.877C244.987 247.165 244.886 247.459 244.693 247.622C244.597 247.703 244.479 247.751 244.354 247.749C244.231 247.747 244.098 247.695 243.971 247.574C241.524 245.23 239.207 243.432 235.664 243.271C232.332 243.12 229.011 244.165 226.103 245.719C223.007 247.373 220.183 249.673 218.079 252.498C217.057 253.87 216.18 255.389 215.614 257.01C215.382 257.676 215.259 258.485 215.104 259.264C214.949 260.047 214.761 260.8 214.399 261.369C214.21 261.667 213.779 261.675 213.594 261.37C213.253 260.808 213.196 260.031 213.273 259.237C213.351 258.444 213.561 257.642 213.745 257.039C214.215 255.498 214.944 254.022 215.819 252.671C219.14 247.55 224.685 243.58 230.606 242.093Z" stroke="white" stroke-opacity="0.8" stroke-width="0.0944248"/>
<path d="M249.591 262.26C250.926 257.448 254.337 252.906 258.527 250.217C260.436 248.992 262.828 247.926 265.15 248.339C266.334 248.55 267.382 249.156 268.228 250.001C269.221 250.992 269.704 252.32 270.964 253.005C271.203 253.135 271.589 253.035 271.641 252.73C272.128 249.915 268.72 247.204 266.266 246.52C263.587 245.772 260.773 246.64 258.465 248.035C255.8 249.645 253.558 251.946 251.781 254.485C250.205 256.736 248.807 259.357 248.975 262.177C248.994 262.521 249.493 262.614 249.591 262.26Z" fill="white"/>
<path d="M258.489 248.076C260.792 246.684 263.591 245.822 266.253 246.565C267.472 246.905 268.931 247.749 270.023 248.859C271.117 249.969 271.834 251.337 271.595 252.722C271.572 252.854 271.477 252.943 271.356 252.986C271.235 253.029 271.093 253.021 270.987 252.963C270.366 252.626 269.934 252.129 269.533 251.589C269.134 251.052 268.761 250.466 268.262 249.967C267.41 249.117 266.353 248.505 265.158 248.292C262.818 247.876 260.412 248.95 258.501 250.177C254.433 252.788 251.098 257.142 249.677 261.796L249.546 262.248C249.504 262.398 249.38 262.453 249.261 262.434C249.14 262.415 249.03 262.321 249.021 262.174C248.855 259.371 250.245 256.762 251.819 254.512C253.593 251.977 255.832 249.681 258.489 248.076Z" stroke="white" stroke-opacity="0.8" stroke-width="0.0944248"/>
<path d="M265.73 255.843C267.751 254.471 269.712 253.283 272.263 253.466C273.534 253.557 274.79 253.961 275.892 254.597C276.729 255.08 277.295 255.712 278.322 255.498C278.533 255.455 278.631 255.255 278.653 255.064C278.969 252.421 273.694 251.472 271.835 251.497C269.142 251.534 266.171 252.741 265.207 255.441C265.104 255.727 265.479 256.013 265.73 255.843Z" fill="white"/>
<path d="M271.835 251.544C272.759 251.532 274.537 251.762 276.043 252.325C276.796 252.606 277.477 252.969 277.949 253.422C278.421 253.875 278.683 254.417 278.606 255.059C278.585 255.242 278.493 255.415 278.312 255.453C277.812 255.557 277.425 255.455 277.058 255.267C276.873 255.173 276.694 255.056 276.507 254.932C276.321 254.809 276.127 254.678 275.916 254.556C274.809 253.917 273.545 253.511 272.267 253.419C269.698 253.235 267.725 254.431 265.703 255.803C265.599 255.874 265.465 255.853 265.364 255.776C265.263 255.699 265.209 255.575 265.251 255.457C266.206 252.784 269.152 251.581 271.835 251.544Z" stroke="white" stroke-opacity="0.8" stroke-width="0.0944248"/>
<path d="M274.253 252.845C274.8 251.489 275.136 250.167 276.108 249.024C277.106 247.852 278.47 246.995 279.903 246.457C281.385 245.9 282.991 245.66 284.571 245.779C286.09 245.893 287.525 246.622 289.027 246.684C289.362 246.699 289.621 246.277 289.425 245.991C287.342 242.951 281.696 243.762 278.834 244.969C276.032 246.15 272.152 249.348 273.263 252.845C273.427 253.359 274.069 253.302 274.253 252.845Z" fill="white"/>
<path d="M284.421 243.934C286.445 243.96 288.357 244.516 289.386 246.017C289.471 246.141 289.459 246.299 289.384 246.426C289.308 246.554 289.175 246.643 289.028 246.637C288.284 246.606 287.554 246.41 286.817 246.206C286.082 246.002 285.339 245.789 284.574 245.732C282.988 245.613 281.375 245.853 279.887 246.413C278.448 246.953 277.076 247.814 276.072 248.994C275.094 250.144 274.753 251.479 274.21 252.828C274.125 253.038 273.935 253.155 273.749 253.162C273.566 253.168 273.384 253.067 273.309 252.831C272.76 251.104 273.441 249.447 274.617 248.069C275.793 246.691 277.457 245.6 278.853 245.012C280.278 244.411 282.399 243.908 284.421 243.934Z" stroke="white" stroke-opacity="0.8" stroke-width="0.0944248"/>
<path d="M360.706 244.854C363.148 243.227 365.435 241.353 368.562 241.664C371.19 241.926 373.432 243.541 375.095 245.512C377.021 247.795 378.196 250.594 378.811 253.497C379.511 256.801 378.877 259.743 378.33 262.992C378.245 263.496 378.83 263.734 379.134 263.331C381.258 260.52 381.273 256.295 380.685 252.98C380.084 249.596 378.421 246.277 376.09 243.753C374.081 241.577 371.283 239.836 368.245 239.796C365.001 239.752 361.792 241.616 360.304 244.452C360.177 244.696 360.448 245.026 360.706 244.854Z" fill="white"/>
<path d="M368.244 239.843C371.265 239.883 374.052 241.615 376.056 243.785C378.38 246.303 380.039 249.613 380.639 252.988C381.226 256.299 381.207 260.508 379.096 263.303C378.957 263.487 378.758 263.522 378.604 263.458C378.452 263.395 378.338 263.231 378.377 263C378.923 259.754 379.56 256.802 378.857 253.487C378.241 250.579 377.063 247.771 375.131 245.481C373.463 243.505 371.211 241.88 368.566 241.617C365.419 241.304 363.116 243.192 360.68 244.814C360.625 244.851 360.572 244.86 360.524 244.852C360.476 244.843 360.431 244.817 360.395 244.777C360.321 244.698 360.293 244.575 360.346 244.474C361.825 241.654 365.018 239.799 368.244 239.843Z" stroke="white" stroke-opacity="0.8" stroke-width="0.0944248"/>
<path d="M326.546 15.585L308.788 40.0042L295.072 30.3371C295.072 30.3371 297.532 26.952 298.177 26.0616C298.825 25.1709 299.528 24.9247 300.565 25.0118C314.413 26.1804 326.546 15.585 326.546 15.585Z" fill="#1C1C1B" stroke="white" stroke-opacity="0.8" stroke-width="0.41817" stroke-miterlimit="10" stroke-linecap="round" stroke-linejoin="round"/>
<path d="M295.039 32.8475L306.306 43.4153L308.788 40.004L295.072 30.3369L294.69 30.8603C294.041 31.7493 295.039 32.8475 295.039 32.8475Z" fill="#1C1C1B" stroke="white" stroke-opacity="0.8" stroke-width="0.41817" stroke-miterlimit="10" stroke-linecap="round" stroke-linejoin="round"/>
<path d="M349.332 32.1533L331.576 56.5732L345 66.6429C345 66.6429 347.462 63.2604 348.108 62.3697C348.756 61.479 348.776 60.7363 348.375 59.7787C342.994 46.962 349.332 32.1533 349.332 32.1533Z" fill="#1C1C1B" stroke="white" stroke-opacity="0.8" stroke-width="0.41817" stroke-miterlimit="10" stroke-linecap="round" stroke-linejoin="round"/>
<path d="M342.622 67.4486L329.098 59.9881L331.577 56.5757L345 66.6454L344.621 67.1711C343.973 68.0598 342.622 67.4486 342.622 67.4486Z" fill="#1C1C1B" stroke="white" stroke-opacity="0.8" stroke-width="0.41817" stroke-miterlimit="10" stroke-linecap="round" stroke-linejoin="round"/>
<path d="M354.232 19.6877C354.232 19.6877 355.349 9.68463 350.709 6.31059C346.071 2.93587 336.897 7.08085 336.897 7.08085C330.898 10.6668 329.377 11.6214 323.342 19.9242C317.304 28.2259 304.943 45.224 304.943 45.224L327.797 61.8429C327.797 61.8429 339.507 45.7376 346.193 36.5401C352.882 27.346 353.525 25.1976 354.232 19.6877Z" fill="#1C1C1B" stroke="white" stroke-opacity="0.8" stroke-width="0.41817" stroke-miterlimit="10" stroke-linecap="round" stroke-linejoin="round"/>
<path d="M354.234 19.6858C354.823 15.4837 355.991 2.08299 354.658 1.11158C353.298 0.124357 338.986 5.98311 336.898 7.07897C336.898 7.07897 341.696 8.66022 346.474 12.1352C351.25 15.6125 354.234 19.6858 354.234 19.6858Z" fill="#1C1C1B" stroke="white" stroke-opacity="0.8" stroke-width="0.41817" stroke-miterlimit="10" stroke-linecap="round" stroke-linejoin="round"/>
<path d="M343.507 17.3057L339.297 22.8583C339.632 23.1866 339.894 23.5694 340.071 23.9848L347.11 22.8573C346.528 20.7403 345.309 18.7843 343.507 17.3057Z" fill="#1C1C1B" stroke="white" stroke-opacity="0.8" stroke-width="0.41817" stroke-miterlimit="10" stroke-linecap="round" stroke-linejoin="round"/>
<path d="M337.17 21.8772C337.621 21.92 338.066 22.0481 338.483 22.2688L342.468 16.5493C340.505 15.2899 338.269 14.7336 336.072 14.8362L337.17 21.8772Z" fill="#1C1C1B" stroke="white" stroke-opacity="0.8" stroke-width="0.41817" stroke-miterlimit="10" stroke-linecap="round" stroke-linejoin="round"/>
<path d="M334.948 22.4142C335.324 22.1757 335.734 22.0105 336.161 21.9261L334.793 14.9678C332.597 15.3287 330.509 16.3509 328.859 17.987L334.948 22.4142Z" fill="#1C1C1B" stroke="white" stroke-opacity="0.8" stroke-width="0.41817" stroke-miterlimit="10" stroke-linecap="round" stroke-linejoin="round"/>
<path d="M346.334 30.6943C347.38 28.6207 347.714 26.3203 347.377 24.1191L340.335 24.9621C340.388 25.3963 340.357 25.8379 340.246 26.2675L346.334 30.6943Z" fill="#1C1C1B" stroke="white" stroke-opacity="0.8" stroke-width="0.41817" stroke-miterlimit="10" stroke-linecap="round" stroke-linejoin="round"/>
<path d="M305.874 54.0674L319.572 64.026C315.607 78.537 295.275 84.7379 295.275 84.7379C291.057 62.7966 305.874 54.0674 305.874 54.0674Z" fill="#1C1C1B" stroke="white" stroke-opacity="0.8" stroke-width="0.41817" stroke-miterlimit="10" stroke-linecap="round" stroke-linejoin="round"/>
<path d="M308.068 55.6626L317.389 62.4403C313.537 73.9708 299.641 78.2005 299.641 78.2005C296.392 66.3613 308.068 55.6626 308.068 55.6626Z" fill="#1C1C1B" stroke="white" stroke-opacity="0.8" stroke-width="0.41817" stroke-miterlimit="10" stroke-linecap="round" stroke-linejoin="round"/>
<path d="M315.924 61.3727L309.53 56.7231C307.326 60.5015 302.876 64.9166 303.762 72.0316C303.762 72.0316 310.817 70.3411 315.924 61.3727Z" fill="#1C1C1B" stroke="white" stroke-opacity="0.8" stroke-width="0.41817" stroke-miterlimit="10" stroke-linecap="round" stroke-linejoin="round"/>
<path d="M321.612 65.5116L303.357 52.2394L305.792 49.8853L323.1 62.4689L321.612 65.5116Z" fill="#1C1C1B" stroke="white" stroke-opacity="0.8" stroke-width="0.41817" stroke-miterlimit="10" stroke-linecap="round" stroke-linejoin="round"/>
<path d="M326.895 61.1863L326.155 62.2034C325.502 63.0992 324.245 63.3 323.349 62.6461L305.549 49.7036C304.651 49.0497 304.453 47.794 305.104 46.8946L305.846 45.8774L326.895 61.1863Z" fill="#1C1C1B" stroke="white" stroke-opacity="0.8" stroke-width="0.41817" stroke-miterlimit="10" stroke-linecap="round" stroke-linejoin="round"/>
<path d="M352.86 3.68157C351.991 5.3886 352.1 7.47809 352.009 9.34254C351.951 10.5457 351.853 11.7448 351.692 12.9386C351.562 13.8986 351.363 14.6224 351.96 15.4394C352.195 15.7603 352.631 15.9574 353.006 15.7136C354.67 14.6325 354.305 11.689 354.326 9.94598C354.351 7.9046 354.436 5.52349 353.421 3.68124C353.308 3.47572 352.971 3.46461 352.86 3.68157Z" fill="white"/>
<path d="M353.139 3.56982C353.237 3.57101 353.332 3.61878 353.379 3.70361C354.387 5.5326 354.304 7.89997 354.279 9.9458C354.269 10.8234 354.354 11.9868 354.235 13.0728C354.116 14.1585 353.794 15.146 352.98 15.6743C352.635 15.8986 352.225 15.7216 351.998 15.4116C351.414 14.6134 351.607 13.9121 351.738 12.9448C351.9 11.7496 351.998 10.5493 352.057 9.34521C352.102 8.4093 352.097 7.42515 352.189 6.45752C352.282 5.49148 352.472 4.54866 352.902 3.70264C352.948 3.61367 353.041 3.56872 353.139 3.56982Z" stroke="white" stroke-opacity="0.8" stroke-width="0.0944248"/>
<path d="M345.604 14.1083C348.06 16.9906 352.202 18.512 351.073 23.0761C350.165 26.7501 347.421 30.4333 345.215 33.4518C340.191 40.324 333.278 45.9991 329.736 53.8532C329.476 54.4287 330.218 54.8747 330.586 54.35C336.145 46.425 343.167 39.5941 348.457 31.4831C350.543 28.2843 353.459 24.5588 352.843 20.4847C352.575 18.7098 351.463 17.4107 350.183 16.221C349.048 15.1652 347.569 13.7366 345.991 13.443C345.594 13.369 345.34 13.7982 345.604 14.1083Z" fill="white"/>
<path d="M345.982 13.4893C346.761 13.6341 347.518 14.06 348.225 14.584C348.931 15.1079 349.583 15.7273 350.151 16.2559C351.429 17.444 352.53 18.734 352.796 20.4922C353.102 22.5155 352.532 24.455 351.621 26.291C350.71 28.1281 349.462 29.8551 348.417 31.457C345.774 35.5099 342.698 39.2438 339.586 42.9561C336.475 46.6677 333.328 50.3587 330.547 54.3232C330.378 54.5638 330.128 54.5797 329.949 54.4736C329.77 54.3672 329.659 54.1371 329.778 53.873C331.547 49.9524 334.158 46.5741 336.956 43.3154C339.753 40.0584 342.74 36.9176 345.253 33.4795C347.458 30.4636 350.208 26.7727 351.119 23.0879C351.403 21.9394 351.356 20.9793 351.085 20.1406C350.814 19.3025 350.321 18.5882 349.718 17.9297C349.115 17.2716 348.4 16.6664 347.685 16.0479C346.968 15.4285 346.251 14.7956 345.64 14.0781C345.521 13.9385 345.521 13.7749 345.591 13.6553C345.661 13.5358 345.804 13.4561 345.982 13.4893Z" stroke="white" stroke-opacity="0.8" stroke-width="0.0944248"/>
<path d="M320.176 22.1127C318.622 22.3619 317.156 23.3249 315.709 23.9149C314.084 24.5782 312.427 25.1537 310.728 25.5994C308.975 26.0592 307.187 26.3932 305.384 26.5826C303.972 26.7309 302.354 26.481 301.072 27.1308C300.852 27.2425 300.855 27.5974 301.072 27.7097C302.488 28.4427 304.444 27.9906 305.972 27.8039C307.69 27.594 309.393 27.2698 311.067 26.8254C312.719 26.3868 314.353 25.8446 315.922 25.1628C317.452 24.4971 319.307 23.776 320.36 22.4275C320.478 22.2761 320.37 22.0817 320.176 22.1127Z" fill="white"/>
<path d="M320.184 22.1592C320.262 22.1466 320.318 22.1801 320.344 22.2256C320.363 22.26 320.368 22.3051 320.35 22.3516L320.322 22.3984C319.801 23.0655 319.081 23.5792 318.297 24.0098C317.513 24.4404 316.669 24.7858 315.902 25.1191C314.337 25.7998 312.705 26.3422 311.055 26.7803C309.384 27.224 307.683 27.5472 305.967 27.7568C305.199 27.8507 304.333 28.0101 303.478 28.0547C302.624 28.0993 301.791 28.0287 301.094 27.668C301.004 27.6216 300.955 27.5232 300.955 27.4199C300.955 27.3167 301.003 27.2188 301.094 27.1729C301.725 26.8526 302.442 26.753 303.182 26.7158C303.551 26.6972 303.925 26.6941 304.296 26.6865C304.666 26.6789 305.034 26.6672 305.389 26.6299C307.195 26.4403 308.984 26.1058 310.74 25.6455C312.442 25.1992 314.1 24.6229 315.728 23.959C316.452 23.6636 317.184 23.2727 317.922 22.9287C318.662 22.5835 319.413 22.2827 320.184 22.1592Z" stroke="white" stroke-opacity="0.8" stroke-width="0.0944248"/>
<path d="M344.768 41.5698C342.867 44.2156 340.87 46.7212 338.84 49.2772C337.033 51.5513 335.244 53.9435 334.551 56.8147C334.469 57.1531 334.599 57.6102 334.94 57.7713C336.808 58.6526 338.534 59.7905 340.224 60.9694C341.091 61.5739 341.959 62.177 342.822 62.7878C343.487 63.2584 343.98 63.7828 344.829 63.7216C345.254 63.6909 345.561 63.332 345.455 62.8995C345.095 61.4279 342.588 60.2574 341.408 59.4824C339.61 58.3021 337.76 57.1894 335.795 56.3085C335.925 56.6273 336.055 56.9462 336.184 57.2651C336.888 54.0814 339.08 51.5927 341.009 49.0693C342.642 46.9321 344.765 44.3955 345.002 41.633C345.014 41.4968 344.833 41.4793 344.768 41.5698Z" fill="white"/>
<path d="M344.943 41.583C344.947 41.5874 344.951 41.5932 344.953 41.6006L344.955 41.6289C344.837 42.9997 344.251 44.3169 343.488 45.5605C342.725 46.8045 341.788 47.9711 340.971 49.041C339.199 51.3599 337.192 53.6619 336.334 56.5068C336.161 56.4252 335.989 56.3438 335.814 56.2656L335.707 56.2168L335.752 56.3262C335.882 56.645 336.011 56.9644 336.141 57.2832L336.198 57.4238L336.23 57.2754C336.278 57.06 336.333 56.8479 336.394 56.6387C338.127 57.4673 339.775 58.4665 341.382 59.5215C341.678 59.716 342.058 59.9356 342.464 60.1768C342.87 60.4183 343.304 60.6831 343.712 60.9688C344.12 61.2544 344.501 61.5605 344.802 61.8857C345.103 62.2113 345.322 62.5539 345.409 62.9111C345.507 63.3115 345.225 63.646 344.825 63.6748C344.413 63.7046 344.087 63.5919 343.78 63.4131C343.627 63.3235 343.478 63.2175 343.325 63.1035C343.173 62.9899 343.016 62.8671 342.85 62.749C341.987 62.1381 341.118 61.535 340.251 60.9307C338.56 59.7515 336.831 58.6115 334.96 57.7285C334.803 57.6545 334.693 57.5109 334.631 57.3428C334.569 57.1747 334.558 56.9856 334.597 56.8262C335.287 53.9663 337.07 51.5812 338.877 49.3066C340.907 46.7509 342.905 44.2445 344.807 41.5977C344.826 41.5701 344.868 41.5553 344.905 41.5625C344.923 41.5659 344.935 41.5737 344.943 41.583ZM336.307 56.5986C336.258 56.7669 336.213 56.9372 336.172 57.1094C336.076 56.8734 335.98 56.6374 335.884 56.4014C336.025 56.4656 336.166 56.532 336.307 56.5986Z" stroke="white" stroke-opacity="0.8" stroke-width="0.0944248"/>
<path d="M147.838 172.11L151.415 176.241L156.845 175.638L154.018 180.315L156.272 185.294L150.95 184.052L146.91 187.733L146.445 182.287L141.699 179.586L146.732 177.46L147.838 172.11Z" fill="white"/>
<path d="M151.379 176.272L151.396 176.292L151.42 176.289L156.754 175.695L153.979 180.291L153.965 180.312L153.976 180.334L156.188 185.225L150.961 184.006L150.937 184L150.918 184.017L146.948 187.633L146.492 182.283L146.49 182.258L146.469 182.247L141.806 179.591L146.751 177.503L146.773 177.495L146.778 177.47L147.865 172.213L151.379 176.272Z" stroke="white" stroke-opacity="0.8" stroke-width="0.0944248"/>
<path d="M241.53 133.703L241.993 136.892L244.884 138.318L241.996 139.745L241.536 142.935L239.283 140.627L236.107 141.174L237.604 138.321L236.104 135.47L239.28 136.011L241.53 133.703Z" fill="white"/>
<path d="M241.946 136.899L241.95 136.923L241.972 136.934L244.776 138.317L241.976 139.703L241.953 139.713L241.949 139.739L241.502 142.833L239.317 140.594L239.3 140.577L239.275 140.581L236.192 141.111L237.646 138.343L237.657 138.321L237.646 138.299L236.189 135.532L239.271 136.058L239.296 136.062L239.313 136.044L241.497 133.803L241.946 136.899Z" stroke="white" stroke-opacity="0.8" stroke-width="0.0944248"/>
<path d="M289.18 149.954L289.643 153.143L292.534 154.568L289.643 155.995L289.183 159.186L286.934 156.877L283.757 157.425L285.255 154.571L283.754 151.721L286.93 152.263L289.18 149.954Z" fill="white"/>
<path d="M289.597 153.15L289.601 153.174L289.622 153.185L292.428 154.568L289.622 155.953L289.6 155.964L289.597 155.989L289.149 159.085L286.968 156.844L286.95 156.827L286.926 156.831L283.843 157.362L285.297 154.593L285.309 154.571L285.297 154.549L283.84 151.783L286.922 152.31L286.946 152.314L286.964 152.296L289.147 150.054L289.597 153.15Z" stroke="white" stroke-opacity="0.8" stroke-width="0.0944248"/>
<path d="M187.498 239.589C187.169 239.719 186.84 239.848 186.512 239.978C186.208 240.098 185.903 240.25 185.589 240.34C185.758 240.317 185.928 240.294 186.097 240.271C185.773 240.308 185.397 240.31 185.093 240.405C184.928 240.456 184.765 240.531 184.604 240.596C184.207 240.757 183.809 240.918 183.425 241.107C183.802 241.005 184.178 240.903 184.555 240.801C183.658 240.794 182.821 241.25 182.364 242.025C181.714 243.13 182.082 244.603 183.194 245.252C184.062 245.759 185.019 245.558 185.908 245.254C186.904 244.914 187.523 244.116 187.576 243.064C187.576 243.057 187.577 243.05 187.577 243.043C187.213 243.678 186.85 244.312 186.486 244.946C186.725 244.785 186.965 244.621 187.197 244.45C187.548 244.193 187.817 243.935 187.99 243.524C188.153 243.138 188.22 242.671 188.088 242.262C187.823 241.445 187.099 240.843 186.219 240.839C185.937 240.838 185.655 240.843 185.373 240.84C186.008 241.204 186.642 241.567 187.276 241.931C187.273 241.927 187.269 241.922 187.266 241.917C186.961 241.508 186.663 241.192 186.179 240.988C185.702 240.786 185.211 240.749 184.7 240.873C184.464 240.931 184.228 240.988 183.988 241.023C184.193 240.996 184.397 240.968 184.601 240.941C184.537 240.949 184.472 240.957 184.407 240.952C184.612 240.98 184.817 241.007 185.021 241.035C185.008 241.033 184.997 241.031 184.985 241.026C185.169 241.104 185.353 241.182 185.537 241.26C185.535 241.258 185.532 241.257 185.529 241.255C185.685 241.376 185.841 241.496 185.998 241.617C185.996 241.615 185.994 241.614 185.991 241.612C186.112 241.768 186.233 241.924 186.353 242.081C186.352 242.079 186.351 242.077 186.349 242.075C186.427 242.259 186.505 242.444 186.583 242.628C186.582 242.626 186.581 242.623 186.581 242.621C186.608 242.827 186.636 243.032 186.664 243.237C186.664 243.235 186.664 243.232 186.664 243.23C186.636 243.435 186.608 243.64 186.581 243.845C186.581 243.843 186.582 243.84 186.582 243.838C186.505 244.022 186.427 244.206 186.349 244.391C186.353 244.381 186.359 244.373 186.366 244.364C186.245 244.52 186.124 244.677 186.004 244.833C186.023 244.811 186.045 244.793 186.068 244.775C185.911 244.896 185.755 245.017 185.598 245.138C186.114 244.755 186.494 244.367 186.687 243.728C186.696 243.696 186.703 243.665 186.714 243.634C186.522 243.963 186.331 244.293 186.138 244.622C186.202 244.566 186.269 244.514 186.336 244.462C186.187 244.577 186.038 244.692 185.889 244.807C186.081 244.661 186.277 244.521 186.474 244.383C186.72 244.211 186.99 244.048 187.192 243.83C187.296 243.719 187.386 243.591 187.504 243.496C187.376 243.595 187.248 243.694 187.12 243.793C187.685 243.436 188.255 243.085 188.824 242.733C189.556 242.281 189.863 241.38 189.528 240.584C189.224 239.866 188.298 239.275 187.498 239.589Z" fill="white"/>
<path d="M183.988 241.023L183.99 241.04L183.995 241.07C184.15 241.05 184.306 241.028 184.461 241.007C184.543 241.018 184.626 241.029 184.708 241.04C184.8 241.052 184.892 241.065 184.984 241.077C185.071 241.113 185.157 241.15 185.243 241.187C185.33 241.223 185.417 241.259 185.504 241.296C185.581 241.355 185.658 241.414 185.734 241.474C185.809 241.531 185.883 241.589 185.958 241.646C186.075 241.797 186.191 241.948 186.308 242.099C186.346 242.189 186.385 242.28 186.423 242.37C186.46 242.459 186.498 242.548 186.535 242.637C186.549 242.736 186.562 242.836 186.575 242.936C186.589 243.035 186.602 243.134 186.615 243.233C186.602 243.333 186.589 243.432 186.575 243.531C186.562 243.629 186.549 243.728 186.536 243.826C186.526 243.85 186.515 243.874 186.505 243.898C186.465 243.967 186.426 244.036 186.386 244.104C186.294 244.262 186.201 244.419 186.109 244.576C186.026 244.64 185.943 244.705 185.86 244.77L185.89 244.808L185.905 244.828C185.801 244.92 185.689 245.011 185.569 245.101L185.626 245.176L185.627 245.175C185.705 245.114 185.784 245.055 185.862 244.994C185.92 244.95 185.977 244.905 186.034 244.86L186.039 244.864C186.056 244.846 186.075 244.83 186.097 244.812L186.087 244.801C186.101 244.782 186.116 244.764 186.13 244.745C186.185 244.689 186.237 244.632 186.286 244.572C186.357 244.521 186.429 244.471 186.501 244.421C186.624 244.335 186.755 244.249 186.883 244.156C186.736 244.411 186.591 244.668 186.444 244.923L186.46 244.938C186.288 245.046 186.099 245.139 185.893 245.21C185.005 245.513 184.067 245.706 183.218 245.211C182.129 244.576 181.768 243.132 182.405 242.05C182.649 241.635 183.004 241.313 183.42 241.107L183.438 241.152C183.62 241.103 183.803 241.053 183.985 241.004L183.988 241.023ZM187.429 243.655C187.314 244.047 187.108 244.387 186.821 244.659C186.757 244.704 186.692 244.747 186.628 244.791C186.776 244.533 186.924 244.276 187.072 244.019C187.076 244.011 187.081 244.003 187.085 243.996C187.134 243.953 187.183 243.91 187.227 243.862C187.279 243.806 187.329 243.744 187.378 243.688L187.379 243.687C187.396 243.676 187.412 243.666 187.429 243.655ZM188.023 243.286C188.001 243.361 187.976 243.434 187.946 243.505C187.777 243.905 187.516 244.157 187.169 244.412C187.165 244.415 187.16 244.418 187.156 244.421C187.337 244.175 187.469 243.894 187.546 243.583C187.705 243.484 187.864 243.385 188.023 243.286ZM185.295 240.85L185.35 240.881C185.667 241.063 185.984 241.245 186.301 241.427C186.618 241.609 186.936 241.791 187.253 241.973L187.314 241.904C187.31 241.899 187.306 241.893 187.303 241.889C186.996 241.477 186.692 241.153 186.197 240.944C186.147 240.923 186.096 240.904 186.046 240.887C186.104 240.887 186.161 240.886 186.219 240.887C187.076 240.891 187.784 241.476 188.043 242.276C188.133 242.555 188.126 242.863 188.059 243.153C187.898 243.253 187.737 243.354 187.576 243.454C187.6 243.329 187.616 243.2 187.623 243.066C187.623 243.063 187.624 243.059 187.624 243.056C187.624 243.052 187.624 243.049 187.624 243.046L187.536 243.02C187.401 243.254 187.266 243.489 187.131 243.724C187.117 243.734 187.104 243.745 187.091 243.756L187.103 243.773C187.071 243.829 187.04 243.884 187.008 243.939C186.84 244.082 186.647 244.204 186.46 244.334C186.571 244.16 186.665 243.967 186.732 243.741C186.737 243.725 186.741 243.707 186.745 243.692C186.749 243.677 186.754 243.663 186.759 243.65L186.674 243.61C186.668 243.621 186.661 243.63 186.655 243.641C186.66 243.608 186.665 243.576 186.669 243.544C186.683 243.442 186.695 243.339 186.709 243.237H186.711V243.229L186.709 243.229C186.695 243.127 186.683 243.025 186.669 242.923C186.655 242.82 186.642 242.718 186.628 242.615L186.619 242.616L186.628 242.613L186.627 242.611C186.627 242.61 186.627 242.608 186.626 242.606H186.624C186.586 242.515 186.548 242.424 186.51 242.333C186.471 242.241 186.431 242.149 186.393 242.057L186.374 242.063L186.391 242.052L186.39 242.051H186.391C186.27 241.895 186.15 241.739 186.029 241.583L186.019 241.59L186.027 241.581C186.026 241.58 186.025 241.579 186.024 241.578L186.021 241.576C185.945 241.517 185.868 241.457 185.792 241.398L185.559 241.218L185.555 241.215H185.554C185.462 241.176 185.371 241.138 185.279 241.1C185.195 241.064 185.111 241.029 185.026 240.993L185.027 240.988C185.017 240.987 185.009 240.985 185.001 240.982L185 240.984C184.907 240.972 184.814 240.959 184.721 240.946C184.694 240.943 184.667 240.939 184.64 240.936C184.663 240.93 184.687 240.925 184.711 240.919C184.909 240.871 185.103 240.848 185.295 240.85ZM187.513 243.25C187.504 243.322 187.492 243.392 187.478 243.461L187.476 243.459H187.475C187.473 243.46 187.471 243.461 187.469 243.463C187.422 243.499 187.374 243.536 187.327 243.572C187.389 243.465 187.451 243.358 187.513 243.25ZM187.515 239.634C187.899 239.483 188.316 239.548 188.677 239.741C189.037 239.935 189.337 240.254 189.484 240.603C189.811 241.375 189.512 242.253 188.799 242.693C188.589 242.823 188.381 242.954 188.171 243.084C188.222 242.807 188.22 242.515 188.133 242.247C187.863 241.413 187.123 240.797 186.22 240.792C186.042 240.791 185.866 240.791 185.689 240.792C185.363 240.733 185.03 240.744 184.688 240.827C184.568 240.857 184.448 240.885 184.328 240.911C184.408 240.89 184.488 240.868 184.567 240.847L184.556 240.754C184.477 240.753 184.398 240.757 184.32 240.764C184.421 240.722 184.521 240.681 184.621 240.64C184.785 240.573 184.944 240.5 185.107 240.449C185.254 240.404 185.419 240.38 185.59 240.363L185.595 240.387C185.679 240.375 185.765 240.364 185.85 240.353C185.934 240.341 186.019 240.33 186.104 240.318L186.098 240.271L186.092 240.225C186.072 240.227 186.051 240.227 186.031 240.229C186.2 240.16 186.367 240.086 186.529 240.021C186.857 239.892 187.186 239.763 187.515 239.634ZM185.677 240.887C185.84 240.917 186.001 240.964 186.161 241.031C186.562 241.201 186.83 241.45 187.087 241.769C186.841 241.627 186.594 241.486 186.348 241.345C186.082 241.192 185.816 241.039 185.55 240.887C185.592 240.887 185.634 240.887 185.677 240.887Z" stroke="white" stroke-opacity="0.8" stroke-width="0.0944248"/>
<path d="M68.2077 211.352C68.1438 211.345 68.0752 211.33 68.0113 211.331C68.1223 211.33 68.3053 211.375 68.0833 211.337C67.9726 211.317 67.8633 211.294 67.754 211.267C68.0957 211.609 68.4375 211.95 68.7792 212.292C68.6265 211.695 68.2844 211.215 67.7025 210.97C67.573 210.915 67.4425 210.872 67.3137 210.818C67.4553 210.878 67.5972 210.938 67.7388 210.998C67.6823 210.971 67.6302 210.941 67.5804 210.904C67.7002 210.996 67.8196 211.088 67.9393 211.181C67.9158 211.161 67.8952 211.141 67.8747 211.117C67.9669 211.237 68.0591 211.356 68.1516 211.476C68.1351 211.453 68.1216 211.432 68.1088 211.408C68.1684 211.548 68.2276 211.689 68.2871 211.83C68.277 211.806 68.2703 211.784 68.2649 211.758C68.2858 211.914 68.3069 212.071 68.3278 212.227C68.3234 212.193 68.3238 212.161 68.3281 212.127C68.3073 212.283 68.2861 212.439 68.2652 212.595C68.2723 212.559 68.2831 212.526 68.2972 212.493C68.238 212.633 68.1791 212.772 68.1203 212.912C68.1428 212.866 68.1697 212.824 68.2007 212.783C68.1095 212.901 68.0184 213.019 67.9269 213.137C68.0715 212.96 68.345 212.869 67.8175 213.183C67.9178 213.124 68.0143 213.061 68.1176 213.006C68.2874 212.915 68.4422 212.807 68.5791 212.666C68.6776 212.544 68.7735 212.419 68.8667 212.293C68.6467 212.572 68.5868 212.651 68.6864 212.53C68.7627 212.449 68.8357 212.368 68.9201 212.294C69.5616 211.735 69.3944 210.531 68.6437 210.149C68.0688 209.856 67.3813 209.62 66.7466 209.872C66.2572 210.066 65.793 210.288 65.4304 210.686C64.909 211.259 64.685 211.995 64.8761 212.758C65.0826 213.582 65.798 214.046 66.5394 214.327C67.0849 214.534 67.9023 214.309 68.278 213.868C68.3194 213.819 68.3608 213.771 68.4021 213.722C68.056 213.865 67.7099 214.008 67.3641 214.152C67.6463 214.166 67.9269 214.151 68.2081 214.126C68.9285 214.061 69.6302 213.535 69.5945 212.74C69.5575 211.924 68.983 211.431 68.2077 211.352Z" fill="white"/>
<path d="M66.7637 209.916C67.3778 209.672 68.0486 209.899 68.6221 210.191C68.9804 210.373 69.2028 210.754 69.2568 211.161C69.2827 211.356 69.2682 211.554 69.2139 211.738C69.2129 211.737 69.2119 211.736 69.2109 211.735C68.9762 211.51 68.6608 211.369 68.3018 211.317C68.1423 211.156 67.9502 211.023 67.7207 210.926C67.7026 210.919 67.6841 210.912 67.666 210.905L67.6094 210.866L67.5986 210.878C67.5737 210.869 67.5492 210.858 67.5244 210.849C67.4593 210.825 67.3955 210.8 67.332 210.774L67.3135 210.818L67.2949 210.862C67.3657 210.892 67.4369 210.922 67.5078 210.952C67.5502 210.97 67.5925 210.987 67.6348 211.005C67.6669 211.03 67.6994 211.055 67.7314 211.08C67.7764 211.114 67.8212 211.149 67.8662 211.184C67.8841 211.207 67.9021 211.23 67.9199 211.253C67.8687 211.242 67.8168 211.234 67.7656 211.221L67.6006 211.181L67.7207 211.3C67.888 211.468 68.0553 211.635 68.2227 211.802C68.2314 211.868 68.2412 211.933 68.25 211.999C68.258 212.058 68.2655 212.117 68.2734 212.176C68.2654 212.236 68.258 212.295 68.25 212.355C68.2416 212.417 68.2339 212.479 68.2256 212.542C68.185 212.638 68.144 212.733 68.1035 212.83C68.0452 212.905 67.9871 212.981 67.9287 213.056C67.8909 213.08 67.8469 213.111 67.793 213.143L67.8174 213.183L67.8418 213.224C67.8796 213.202 67.9167 213.18 67.9531 213.158L67.9639 213.167C67.9733 213.155 67.9837 213.144 67.9941 213.133C68.0422 213.104 68.0896 213.075 68.1396 213.048C68.3128 212.956 68.4713 212.844 68.6123 212.699L68.6133 212.7L68.6162 212.696C68.6456 212.659 68.6732 212.621 68.7021 212.584C68.7081 212.577 68.7151 212.569 68.7227 212.56L68.7217 212.559C68.7642 212.514 68.806 212.471 68.8477 212.428L68.8672 212.448L68.8594 212.417L68.9512 212.33C69.0834 212.214 69.1812 212.072 69.249 211.917C69.3978 212.1 69.4984 212.327 69.5342 212.597L69.5479 212.742C69.5819 213.503 68.9095 214.015 68.2041 214.079C68.174 214.081 68.1434 214.082 68.1133 214.084C68.188 214.028 68.2568 213.966 68.3145 213.898C68.3349 213.874 68.3555 213.85 68.376 213.826C68.3967 213.801 68.4178 213.777 68.4385 213.752L68.3838 213.678C68.0378 213.821 67.6914 213.965 67.3457 214.108L67.3613 214.199C67.483 214.205 67.6046 214.205 67.7256 214.202C67.6405 214.239 67.5513 214.271 67.46 214.295C67.1472 214.379 66.8166 214.382 66.5557 214.283C65.8188 214.003 65.1227 213.548 64.9219 212.747C64.7351 212.001 64.9531 211.281 65.4648 210.718C65.8197 210.328 66.2756 210.109 66.7637 209.916ZM68.2393 213.839C68.156 213.937 68.0496 214.023 67.9287 214.096C67.8146 214.103 67.7009 214.109 67.5869 214.109C67.8042 214.019 68.0218 213.929 68.2393 213.839ZM68.1553 212.929C68.152 212.931 68.1488 212.933 68.1455 212.935C68.1444 212.935 68.1437 212.933 68.1426 212.933C68.1444 212.931 68.1466 212.929 68.1484 212.926L68.1553 212.929ZM68.7656 212.345C68.6921 212.439 68.6431 212.501 68.6191 212.533C68.6117 212.542 68.6057 212.551 68.6025 212.555C68.6018 212.556 68.6005 212.558 68.5996 212.559C68.5992 212.56 68.5985 212.561 68.5977 212.563L68.5957 212.565C68.5774 212.588 68.5605 212.612 68.542 212.635C68.4301 212.75 68.3058 212.842 68.1699 212.921C68.1896 212.883 68.2115 212.846 68.2383 212.811L68.2197 212.796C68.247 212.732 68.2744 212.667 68.3018 212.602L68.3115 212.604C68.3178 212.572 68.3278 212.542 68.3408 212.511L68.3252 212.504C68.3313 212.459 68.3376 212.413 68.3438 212.368C68.3503 212.319 68.3558 212.271 68.3623 212.222L68.375 212.221C68.3712 212.192 68.3711 212.164 68.375 212.133L68.3623 212.131C68.3558 212.083 68.3493 212.034 68.3428 211.986C68.3395 211.961 68.3363 211.937 68.333 211.913L68.7656 212.345ZM68.4033 211.43C68.6973 211.491 68.952 211.618 69.1455 211.803C69.1568 211.814 69.1669 211.826 69.1777 211.837C69.1149 211.997 69.0209 212.143 68.8887 212.258C68.8786 212.267 68.8692 212.277 68.8594 212.286L68.8301 212.263C68.8278 212.266 68.8245 212.269 68.8223 212.272C68.7396 211.953 68.6014 211.667 68.4033 211.43ZM68.1768 211.399C68.1792 211.399 68.1856 211.399 68.1914 211.399C68.1923 211.399 68.194 211.398 68.1963 211.398C68.1985 211.398 68.2009 211.399 68.2031 211.399C68.2209 211.401 68.2384 211.404 68.2559 211.406C68.4471 211.606 68.5865 211.85 68.6797 212.126C68.5583 212.005 68.4368 211.884 68.3154 211.762C68.3143 211.758 68.3125 211.753 68.3115 211.749L68.3047 211.75C68.2631 211.651 68.2213 211.553 68.1797 211.455L68.1895 211.448C68.1765 211.43 68.1663 211.413 68.1562 211.395C68.1653 211.396 68.1719 211.398 68.1768 211.399ZM68.0098 211.369L68.0107 211.372L68.0117 211.377C68.013 211.377 68.0143 211.377 68.0156 211.377C68.0366 211.405 68.0581 211.431 68.0791 211.458C68.0955 211.497 68.1116 211.536 68.1279 211.575C68.0514 211.498 67.9749 211.422 67.8984 211.345C67.9355 211.353 67.9724 211.362 68.0098 211.369ZM67.9785 211.174C68.034 211.211 68.0862 211.251 68.1357 211.293C68.1185 211.291 68.099 211.289 68.0791 211.288C68.0735 211.287 68.0681 211.285 68.0625 211.284C68.0344 211.247 68.0066 211.211 67.9785 211.174Z" stroke="white" stroke-opacity="0.8" stroke-width="0.0944248"/>
<path d="M198.594 138.612C198.591 138.357 198.615 138.095 198.599 137.841C198.577 137.491 198.466 138.346 198.577 138.02C198.653 137.795 198.654 137.543 198.673 137.305C198.726 136.628 198.252 135.854 197.662 135.543C197.658 135.541 197.655 135.54 197.652 135.538C197.886 135.772 198.12 136.005 198.353 136.239C198.326 136.202 198.3 136.165 198.273 136.127C198.33 136.564 198.387 137.001 198.444 137.439C198.473 137.341 198.509 137.248 198.542 137.151C198.406 137.548 198.65 136.891 198.678 136.811C198.795 136.47 198.829 136.12 198.817 135.763C198.801 135.271 198.425 134.894 197.932 134.877C197.211 134.852 196.528 135.098 195.944 135.516C196.23 135.439 196.516 135.361 196.803 135.284C196.927 135.301 197.051 135.319 197.174 135.337C196.27 135.039 195.368 135.551 194.869 136.275C194.413 136.936 194.43 137.842 194.418 138.612C194.402 139.704 195.39 140.75 196.506 140.7C197.625 140.65 198.611 139.782 198.594 138.612Z" fill="white"/>
<path d="M197.93 134.924C198.398 134.941 198.754 135.298 198.77 135.764C198.781 136.095 198.749 136.415 198.651 136.728C198.604 136.567 198.535 136.41 198.449 136.263C198.26 135.94 197.988 135.662 197.684 135.501L197.683 135.5L197.673 135.496L197.618 135.571C197.735 135.688 197.852 135.805 197.969 135.922C198.056 136.01 198.144 136.097 198.231 136.185C198.258 136.386 198.285 136.587 198.312 136.789C198.34 137.007 198.369 137.226 198.397 137.445L198.489 137.452C198.504 137.402 198.522 137.355 198.539 137.306C198.54 137.304 198.541 137.302 198.542 137.301C198.545 137.296 198.548 137.288 198.551 137.283C198.554 137.276 198.557 137.267 198.562 137.256C198.57 137.236 198.581 137.208 198.593 137.177C198.603 137.151 198.613 137.121 198.624 137.091C198.63 137.162 198.631 137.232 198.626 137.301V137.302C198.615 137.439 198.608 137.577 198.593 137.709C198.583 137.707 198.572 137.707 198.562 137.711C198.548 137.717 198.54 137.727 198.537 137.732C198.533 137.737 198.53 137.743 198.528 137.748C198.52 137.766 198.512 137.793 198.507 137.82C198.501 137.848 198.496 137.882 198.491 137.916C198.487 137.949 198.484 137.983 198.482 138.012C198.481 138.04 198.48 138.069 198.483 138.088C198.484 138.094 198.486 138.1 198.488 138.106C198.49 138.111 198.495 138.122 198.505 138.13C198.518 138.141 198.536 138.147 198.554 138.141L198.556 138.139C198.555 138.168 198.555 138.196 198.555 138.225C198.551 138.353 198.545 138.484 198.547 138.613C198.562 139.753 197.601 140.604 196.504 140.653C195.962 140.677 195.448 140.435 195.071 140.051C194.694 139.667 194.458 139.145 194.466 138.613C194.472 138.226 194.47 137.811 194.523 137.409C194.577 137.007 194.686 136.624 194.908 136.302C195.178 135.911 195.565 135.585 196.004 135.418C195.975 135.438 195.945 135.457 195.916 135.478L195.956 135.562C196.099 135.523 196.243 135.485 196.386 135.446C196.526 135.408 196.666 135.369 196.806 135.332C196.864 135.34 196.923 135.348 196.981 135.357C197.043 135.366 197.106 135.375 197.168 135.384L197.189 135.292C196.982 135.224 196.776 135.198 196.574 135.206C196.998 135.012 197.456 134.908 197.93 134.924ZM198.368 136.311C198.476 136.495 198.554 136.694 198.596 136.894C198.569 136.967 198.535 137.063 198.506 137.139L198.497 137.136C198.486 137.168 198.476 137.199 198.465 137.231C198.445 137.08 198.425 136.928 198.405 136.777C198.383 136.606 198.36 136.434 198.338 136.263C198.348 136.279 198.359 136.295 198.368 136.311ZM196.361 135.354C196.314 135.367 196.266 135.379 196.219 135.392C196.257 135.369 196.296 135.347 196.335 135.326C196.407 135.313 196.48 135.305 196.554 135.301C196.49 135.319 196.426 135.337 196.361 135.354Z" stroke="white" stroke-opacity="0.8" stroke-width="0.0944248"/>
<path d="M274.212 135.295C274.102 135.472 273.688 136.344 273.762 136.112C273.812 135.955 273.662 136.12 273.446 136.247C273.827 136.197 274.209 136.147 274.59 136.097C274.577 136.094 274.564 136.091 274.551 136.088C274.914 136.565 275.277 137.041 275.64 137.518C275.656 138.041 275.895 137.216 275.941 137.094C276.085 136.715 276.141 136.288 276.157 135.886C276.177 135.42 275.711 134.896 275.222 134.95C273.908 135.096 272.716 136.12 272.674 137.518C272.655 138.178 273.151 138.765 273.763 138.948C273.776 138.952 273.788 138.956 273.801 138.96C274.309 139.111 274.873 138.944 275.245 138.578C275.807 138.025 276.049 136.915 276.35 136.197C276.877 134.936 274.886 134.218 274.212 135.295Z" fill="white"/>
<path d="M274.132 135.342C274.065 135.463 273.962 135.667 273.876 135.835C273.843 135.901 273.81 135.959 273.784 136.007L273.783 136.006C273.77 136 273.757 136 273.748 136.001C273.739 136.003 273.73 136.005 273.723 136.008C273.709 136.014 273.694 136.024 273.679 136.034C273.648 136.053 273.609 136.082 273.566 136.112C273.523 136.142 273.474 136.175 273.422 136.206L273.452 136.293C273.643 136.269 273.834 136.243 274.024 136.218C274.196 136.196 274.368 136.173 274.539 136.151C274.89 136.612 275.242 137.073 275.594 137.535C275.596 137.593 275.601 137.638 275.61 137.668C275.615 137.685 275.623 137.703 275.636 137.716C275.651 137.732 275.673 137.741 275.697 137.736C275.714 137.732 275.726 137.72 275.735 137.711C275.592 138.038 275.426 138.334 275.212 138.544C274.851 138.899 274.304 139.061 273.814 138.915H273.815C273.802 138.91 273.788 138.906 273.776 138.903C273.181 138.725 272.703 138.155 272.722 137.52C272.751 136.558 273.336 135.773 274.132 135.342ZM275.228 134.998C275.453 134.973 275.679 135.08 275.847 135.255C276.015 135.431 276.119 135.667 276.11 135.884C276.094 136.284 276.039 136.705 275.897 137.078C275.885 137.109 275.86 137.186 275.832 137.27C275.803 137.356 275.768 137.454 275.735 137.53C275.722 137.56 275.709 137.586 275.697 137.607C275.694 137.585 275.689 137.556 275.688 137.517L275.687 137.501L275.678 137.49L274.599 136.073L274.601 136.051C274.594 136.05 274.587 136.048 274.581 136.046C274.575 136.045 274.569 136.043 274.562 136.042L274.434 136.011L274.474 136.064C274.32 136.084 274.166 136.105 274.012 136.125C273.946 136.134 273.88 136.142 273.813 136.151C273.817 136.145 273.822 136.139 273.826 136.131C273.857 136.078 273.906 135.984 273.96 135.878C274.069 135.666 274.198 135.407 274.252 135.321C274.265 135.299 274.28 135.278 274.295 135.258C274.587 135.122 274.904 135.033 275.228 134.998ZM274.443 135.094C274.789 134.785 275.298 134.75 275.714 134.914C275.964 135.012 276.174 135.179 276.291 135.395C276.407 135.609 276.432 135.876 276.306 136.178C276.231 136.356 276.16 136.558 276.088 136.768C276.158 136.478 276.193 136.176 276.205 135.887C276.215 135.639 276.096 135.379 275.914 135.19C275.732 135.001 275.48 134.875 275.217 134.904C274.951 134.933 274.691 134.998 274.443 135.094ZM273.707 136.136C273.706 136.14 273.705 136.15 273.708 136.162C273.708 136.162 273.709 136.163 273.709 136.165C273.687 136.167 273.665 136.169 273.643 136.172C273.668 136.154 273.69 136.139 273.709 136.126C273.708 136.13 273.707 136.133 273.707 136.136Z" stroke="white" stroke-opacity="0.8" stroke-width="0.0944248"/>
<path d="M2.63617 232.57C2.2766 232.539 1.95168 232.41 1.58874 232.447C-0.9111 232.706 -0.222229 236.463 2.03409 235.739C2.35632 235.636 2.67284 235.528 2.99137 235.412C4.25575 234.952 4.25777 233.295 2.99137 232.835C2.67284 232.719 2.35632 232.611 2.03409 232.507C-0.187248 231.796 -0.945409 235.537 1.58874 235.799C1.95201 235.837 2.27694 235.707 2.63617 235.677C4.63248 235.509 4.63618 232.737 2.63617 232.57Z" fill="white"/>
<path d="M1.75098 232.489C1.83759 232.503 1.92737 232.523 2.01953 232.552C2.34118 232.655 2.65761 232.764 2.97559 232.879C4.19991 233.325 4.19813 234.923 2.97559 235.368C2.6576 235.483 2.34118 235.592 2.01953 235.695C1.92974 235.724 1.84216 235.743 1.75781 235.757C1.70368 235.759 1.64913 235.758 1.59375 235.752C0.973079 235.688 0.558517 235.412 0.316406 235.048C0.165297 234.821 0.0806433 234.558 0.0556641 234.289C0.0278679 233.908 0.113088 233.518 0.326172 233.199C0.569546 232.834 0.981938 232.558 1.59375 232.495C1.6468 232.489 1.69907 232.488 1.75098 232.489ZM2.63184 232.617C4.57363 232.78 4.57099 235.467 2.63184 235.63C2.56337 235.636 2.49614 235.647 2.42969 235.658C2.62256 235.593 2.81518 235.527 3.00781 235.457C4.31316 234.982 4.31529 233.266 3.00781 232.791C2.81414 232.72 2.62069 232.653 2.42676 232.587C2.49422 232.599 2.56228 232.611 2.63184 232.617Z" stroke="white" stroke-opacity="0.8" stroke-width="0.0944248"/>
<path d="M451.636 150.827C451.828 150.542 452.021 150.258 452.214 149.973C452.455 149.615 452.638 149.289 452.621 148.83C452.618 148.751 452.616 148.672 452.613 148.593C452.594 148.073 452.199 147.676 451.677 147.657C451.598 147.654 451.519 147.652 451.439 147.648C450.992 147.632 450.65 147.817 450.297 148.056C450.012 148.248 449.727 148.441 449.442 148.633C448.981 148.944 448.622 149.433 448.648 150.018C448.667 150.443 448.811 150.845 449.117 151.152C449.408 151.443 449.84 151.621 450.251 151.621C450.846 151.621 451.314 151.304 451.636 150.827Z" fill="white"/>
<path d="M451.438 147.695C451.477 147.697 451.517 147.699 451.557 147.7C451.596 147.702 451.636 147.703 451.676 147.704C452.173 147.723 452.547 148.1 452.565 148.595C452.567 148.634 452.568 148.673 452.569 148.713C452.571 148.752 452.573 148.792 452.574 148.832C452.59 149.275 452.415 149.59 452.175 149.946C452.079 150.089 451.982 150.231 451.886 150.373C451.789 150.515 451.693 150.658 451.597 150.801C451.281 151.268 450.826 151.574 450.251 151.574C449.853 151.574 449.432 151.4 449.15 151.118C448.854 150.821 448.714 150.432 448.695 150.016C448.67 149.453 449.016 148.977 449.469 148.672C449.611 148.576 449.753 148.48 449.896 148.384C450.038 148.288 450.181 148.191 450.323 148.095C450.631 147.887 450.923 147.725 451.28 147.698L451.438 147.695Z" stroke="white" stroke-opacity="0.8" stroke-width="0.0944248"/>
<path d="M298.028 178.159C298.002 178.155 297.975 178.152 297.949 178.149C298.12 178.172 298.291 178.195 298.462 178.218C298.323 178.195 298.193 178.161 298.062 178.108C298.219 178.174 298.377 178.241 298.534 178.307C298.447 178.267 298.367 178.221 298.29 178.163C298.426 178.267 298.561 178.371 298.696 178.476C298.614 178.406 298.53 178.327 298.463 178.242C298.568 178.378 298.673 178.513 298.777 178.648C298.753 178.612 298.732 178.578 298.713 178.539C298.78 178.698 298.847 178.856 298.914 179.016C298.894 178.964 298.879 178.914 298.871 178.859C298.894 179.035 298.918 179.21 298.942 179.386C298.938 179.345 298.938 179.307 298.941 179.266C298.917 179.44 298.894 179.615 298.87 179.79C298.878 179.734 298.892 179.683 298.912 179.629C298.846 179.786 298.78 179.941 298.714 180.097C298.739 180.043 298.769 179.994 298.805 179.945C298.704 180.076 298.602 180.207 298.501 180.338C298.677 180.13 298.801 179.921 298.957 179.711C298.862 179.835 298.766 179.959 298.671 180.083C298.699 180.048 298.732 180.017 298.761 179.982C298.916 179.797 298.597 180.101 298.574 180.119C298.871 179.885 299.106 179.681 299.258 179.319C299.36 179.078 299.424 178.971 299.41 178.665C299.387 178.139 299.159 177.683 298.743 177.362C298.427 177.117 298.143 177.044 297.772 176.994C297.237 176.922 296.71 176.972 296.225 177.236C295.843 177.444 295.497 177.813 295.293 178.194C294.858 179.005 294.878 180.011 295.384 180.786C295.95 181.652 297.01 182.09 298.028 182C298.547 181.955 299.008 181.817 299.387 181.438C299.72 181.104 299.971 180.558 299.95 180.079C299.928 179.582 299.764 179.067 299.387 178.721C299.257 178.62 299.128 178.52 298.998 178.42C298.697 178.247 298.374 178.16 298.028 178.159Z" fill="white"/>
<path d="M296.248 177.277C296.722 177.019 297.238 176.969 297.766 177.04C298.133 177.089 298.407 177.162 298.714 177.399C299.111 177.706 299.331 178.139 299.36 178.641C299.314 178.605 299.268 178.569 299.222 178.533L299.027 178.383L299.021 178.379C298.805 178.254 298.576 178.173 298.336 178.136L298.319 178.125L298.312 178.132C298.296 178.13 298.28 178.128 298.264 178.126C298.202 178.109 298.141 178.089 298.08 178.064L298.06 178.112C298.051 178.112 298.042 178.111 298.033 178.111H298.034C298.008 178.108 297.981 178.105 297.955 178.102L297.948 178.148L297.942 178.195C298.028 178.207 298.114 178.219 298.199 178.23C298.215 178.233 298.23 178.234 298.245 178.236C298.292 178.256 298.339 178.275 298.386 178.295C298.412 178.315 298.438 178.336 298.465 178.356C298.488 178.374 298.51 178.392 298.533 178.409C298.55 178.431 298.566 178.452 298.583 178.474C298.621 178.522 298.659 178.571 298.696 178.62C298.721 178.679 298.746 178.737 298.771 178.796C298.792 178.847 298.813 178.898 298.835 178.949C298.852 179.073 298.868 179.197 298.885 179.321C298.868 179.443 298.852 179.565 298.836 179.687C298.814 179.739 298.792 179.792 298.77 179.845C298.761 179.865 298.752 179.885 298.744 179.904C298.732 179.914 298.718 179.926 298.703 179.938C298.671 179.966 298.633 180.001 298.603 180.029C298.587 180.043 298.574 180.056 298.563 180.065C298.558 180.07 298.553 180.074 298.55 180.077L298.545 180.082L298.574 180.119L298.592 180.143C298.549 180.198 298.507 180.254 298.464 180.31L298.537 180.369C298.595 180.3 298.647 180.23 298.696 180.161C298.71 180.144 298.724 180.126 298.737 180.108L298.757 180.117C298.781 180.065 298.809 180.019 298.843 179.973L298.835 179.967C298.838 179.963 298.84 179.959 298.843 179.955C299.031 179.786 299.189 179.605 299.302 179.338C299.351 179.22 299.395 179.128 299.423 179.029C299.438 178.976 299.447 178.921 299.453 178.857C299.748 179.188 299.883 179.639 299.902 180.081C299.923 180.544 299.679 181.079 299.354 181.404C298.985 181.773 298.537 181.908 298.024 181.953C297.021 182.041 295.978 181.61 295.424 180.761C294.927 180 294.907 179.012 295.334 178.216C295.534 177.842 295.875 177.481 296.248 177.277ZM298.565 178.285C298.705 178.327 298.84 178.384 298.971 178.459C299.035 178.509 299.1 178.558 299.164 178.607C299.228 178.657 299.292 178.706 299.355 178.755V178.756C299.358 178.758 299.359 178.76 299.361 178.762C299.36 178.86 299.352 178.935 299.332 179.004C299.306 179.095 299.267 179.178 299.215 179.301C299.146 179.464 299.058 179.594 298.956 179.71L298.939 179.697C298.944 179.68 298.95 179.664 298.956 179.646L298.938 179.639C298.949 179.554 298.96 179.469 298.972 179.384L298.988 179.383C298.985 179.344 298.985 179.308 298.987 179.269L298.973 179.267C298.961 179.18 298.949 179.093 298.938 179.006L298.958 178.998C298.939 178.95 298.926 178.904 298.918 178.853H298.917V178.852L298.897 178.854C298.884 178.822 298.871 178.79 298.857 178.759C298.839 178.716 298.821 178.674 298.803 178.631L298.816 178.622C298.793 178.588 298.774 178.555 298.756 178.518L298.74 178.523C298.727 178.506 298.714 178.489 298.7 178.472L298.727 178.44C298.671 178.393 298.616 178.339 298.565 178.285Z" stroke="white" stroke-opacity="0.8" stroke-width="0.0944248"/>
<path d="M266.821 103.249C266.241 103.937 265.591 104.614 265.281 105.474C265.06 106.09 265.096 106.735 265.15 107.376C265.315 109.33 268.024 109.332 268.191 107.376C268.203 107.234 268.219 107.092 268.229 106.95C268.256 106.568 268.128 107.232 268.232 106.93C268.237 106.916 268.283 106.666 268.302 106.665C268.313 106.665 268.105 107.05 268.291 106.743C268.441 106.495 268.018 106.995 268.281 106.77C268.376 106.689 268.46 106.592 268.552 106.507C268.818 106.263 269.097 106.033 269.372 105.8C270.096 105.189 270.049 103.87 269.372 103.249C268.703 102.634 267.47 102.478 266.821 103.249Z" fill="white"/>
<path d="M268.087 102.776C268.549 102.795 269.014 102.984 269.34 103.283C269.667 103.583 269.844 104.056 269.85 104.529C269.855 105.003 269.69 105.47 269.342 105.765C269.067 105.997 268.787 106.228 268.521 106.473C268.473 106.516 268.428 106.562 268.384 106.606C268.373 106.617 268.362 106.626 268.352 106.637C268.343 106.63 268.335 106.627 268.327 106.626L268.301 106.618C268.288 106.619 268.278 106.624 268.272 106.628C268.267 106.632 268.263 106.637 268.261 106.64C268.256 106.645 268.253 106.652 268.251 106.656C268.248 106.662 268.246 106.669 268.243 106.677C268.231 106.689 268.219 106.704 268.207 106.718C268.193 106.735 268.179 106.753 268.169 106.769C268.164 106.776 268.159 106.785 268.155 106.792C268.153 106.796 268.151 106.801 268.149 106.806C268.148 106.81 268.146 106.817 268.146 106.825C268.145 106.833 268.147 106.851 268.161 106.864L268.163 106.865C268.16 106.877 268.158 106.889 268.155 106.901C268.151 106.922 268.148 106.944 268.146 106.963C268.144 106.972 268.144 106.982 268.144 106.99C268.143 106.994 268.143 106.999 268.144 107.003C268.144 107.007 268.144 107.012 268.146 107.018C268.146 107.02 268.147 107.024 268.148 107.027C268.15 107.031 268.153 107.037 268.158 107.042C268.161 107.046 268.166 107.048 268.172 107.051C268.163 107.157 268.153 107.263 268.144 107.372C267.987 109.212 265.519 109.266 265.22 107.544L265.197 107.372C265.143 106.731 265.108 106.095 265.326 105.49C265.632 104.64 266.274 103.971 266.856 103.279C267.17 102.907 267.625 102.757 268.087 102.776Z" stroke="white" stroke-opacity="0.8" stroke-width="0.0944248"/>
<path d="M266.358 226.435C265.127 226.494 263.595 226.389 262.701 227.404C262.161 228.017 262.158 228.826 262.701 229.443C263.593 230.455 265.129 230.352 266.358 230.411C267.398 230.461 268.392 229.461 268.346 228.423C268.3 227.389 267.47 226.382 266.358 226.435Z" fill="white"/>
<path d="M266.36 226.482C267.44 226.43 268.253 227.41 268.299 228.425C268.321 228.928 268.092 229.426 267.727 229.792C267.361 230.157 266.865 230.388 266.36 230.364L265.396 230.331C265.066 230.316 264.733 230.292 264.41 230.238C263.767 230.13 263.172 229.906 262.736 229.412C262.209 228.813 262.212 228.03 262.736 227.435C263.173 226.939 263.768 226.715 264.411 226.608C264.733 226.554 265.066 226.53 265.395 226.516L266.36 226.482Z" stroke="white" stroke-opacity="0.8" stroke-width="0.0944248"/>
<path d="M409.267 165.188C409.358 165.188 409.358 165.047 409.267 165.047C409.177 165.047 409.176 165.188 409.267 165.188Z" fill="white"/>
<path d="M409.268 165.094C409.276 165.094 409.28 165.097 409.282 165.1C409.285 165.103 409.288 165.109 409.288 165.117C409.288 165.125 409.285 165.132 409.282 165.136C409.28 165.138 409.276 165.141 409.268 165.141C409.258 165.141 409.254 165.138 409.252 165.136C409.249 165.132 409.246 165.125 409.246 165.117C409.246 165.109 409.249 165.103 409.252 165.1C409.254 165.097 409.258 165.094 409.268 165.094Z" stroke="white" stroke-opacity="0.8" stroke-width="0.0944248"/>
<path d="M200.303 183.914C199.914 183.993 199.525 184.072 199.136 184.151C198.886 184.202 198.792 184.134 199.357 184.134C198.562 184.134 197.8 184.833 197.837 185.654C197.874 186.478 198.505 187.174 199.357 187.174C199.438 187.174 198.812 187.082 198.978 187.125C199.03 187.138 199.084 187.146 199.136 187.157C199.525 187.236 199.914 187.314 200.303 187.393C200.925 187.52 201.607 187.422 202.059 186.93C202.383 186.577 202.587 186.143 202.587 185.654C202.587 185.191 202.386 184.705 202.059 184.378C201.58 183.899 200.947 183.784 200.303 183.914Z" fill="white"/>
<path d="M200.312 183.96C200.945 183.832 201.561 183.946 202.025 184.411C202.344 184.73 202.54 185.204 202.54 185.654C202.54 186.129 202.342 186.552 202.024 186.897C201.587 187.373 200.925 187.472 200.312 187.348C200.118 187.308 199.924 187.268 199.729 187.229C199.623 187.207 199.517 187.186 199.411 187.164C199.409 187.151 199.402 187.143 199.398 187.14C199.395 187.136 199.391 187.134 199.389 187.133C199.385 187.13 199.382 187.129 199.38 187.128C199.376 187.126 199.372 187.126 199.369 187.125C199.358 187.122 199.338 187.118 199.316 187.114C199.271 187.106 199.205 187.096 199.143 187.087C199.08 187.078 199.018 187.07 198.982 187.067C198.974 187.067 198.965 187.066 198.958 187.066C198.955 187.066 198.95 187.066 198.945 187.066C198.337 186.885 197.915 186.313 197.885 185.652C197.849 184.861 198.586 184.181 199.357 184.181V184.154C199.481 184.129 199.606 184.104 199.729 184.079C199.924 184.04 200.118 183.999 200.312 183.96Z" stroke="white" stroke-opacity="0.8" stroke-width="0.0944248"/>
<path d="M162.293 113.023C162.384 113.023 162.384 112.881 162.293 112.881C162.202 112.881 162.202 113.023 162.293 113.023Z" fill="white"/>
<path d="M162.293 112.928C162.302 112.928 162.306 112.932 162.309 112.934C162.312 112.938 162.313 112.944 162.313 112.952C162.313 112.96 162.312 112.967 162.309 112.97C162.306 112.973 162.302 112.975 162.293 112.975C162.284 112.975 162.28 112.973 162.277 112.97C162.274 112.967 162.271 112.96 162.271 112.952C162.272 112.944 162.274 112.938 162.277 112.934C162.28 112.932 162.284 112.928 162.293 112.928Z" stroke="white" stroke-opacity="0.8" stroke-width="0.0944248"/>
<path d="M283.775 79.8804C283.288 79.9258 282.8 79.9322 282.317 80.0136C282.468 79.9931 282.62 79.9729 282.772 79.9524C282.721 79.9591 282.671 79.9622 282.619 79.9581C282.766 79.9776 282.912 79.9975 283.058 80.017C282.767 79.975 283.473 80.2407 283.269 80.1152C283.649 80.3476 283.608 80.3967 283.5 80.2834C283.7 80.5437 283.761 80.6241 283.685 80.5249C283.605 80.42 283.524 80.3153 283.443 80.2107C283.412 80.1771 283.31 80.1028 283.303 80.0563C283.316 80.1468 283.58 80.4136 283.327 80.0859C283.156 79.865 282.948 79.7173 282.676 79.6386C282.008 79.4459 281.443 79.874 281.139 80.4553C280.738 81.2235 280.848 82.2064 281.492 82.8172C281.801 83.1105 282.174 83.3413 282.598 83.4146C282.987 83.4815 283.382 83.5189 283.775 83.5555C284.218 83.5969 284.771 83.3207 285.075 83.0173C285.393 82.6985 285.633 82.1758 285.613 81.718C285.571 80.7987 284.8 79.7856 283.775 79.8804Z" fill="white"/>
<path d="M281.181 80.4775C281.479 79.9062 282.025 79.5002 282.662 79.6836C282.815 79.7276 282.946 79.795 283.062 79.8848C282.963 79.8918 282.864 79.8999 282.766 79.9092V79.9053C282.716 79.9117 282.67 79.9148 282.623 79.9111L282.621 79.9238C282.583 79.929 282.544 79.9353 282.506 79.9404C282.44 79.949 282.374 79.9558 282.309 79.9668L282.323 80.0605V80.0596L282.324 80.0605C282.441 80.0409 282.558 80.0251 282.675 80.0127C282.727 80.0197 282.78 80.0271 282.832 80.0342C282.871 80.0395 282.911 80.0445 282.95 80.0498C282.952 80.0528 282.953 80.0558 282.955 80.0576C282.959 80.0621 282.964 80.0663 282.968 80.0693C282.983 80.0811 283.006 80.094 283.03 80.1055C283.055 80.1174 283.084 80.13 283.113 80.1416C283.171 80.1644 283.234 80.1858 283.271 80.1934C283.28 80.1951 283.292 80.1968 283.303 80.1963L283.305 80.1953C283.323 80.2067 283.339 80.2182 283.354 80.2285C283.365 80.2405 283.373 80.2523 283.381 80.2607C283.386 80.2659 283.392 80.2713 283.396 80.2754C283.4 80.2782 283.408 80.2853 283.418 80.2891C283.42 80.2897 283.43 80.2904 283.443 80.2881C283.512 80.3761 283.579 80.4644 283.647 80.5527V80.5537C283.666 80.5784 283.677 80.5923 283.679 80.5947V80.5938L283.68 80.5947L283.681 80.5967C283.743 80.6057 283.757 80.5412 283.755 80.5381V80.5371L283.75 80.5322C283.747 80.5278 283.741 80.5207 283.733 80.5107C283.712 80.4823 283.673 80.431 283.616 80.3574C283.621 80.3445 283.621 80.3339 283.62 80.3291C283.619 80.3222 283.616 80.3164 283.614 80.3135C283.611 80.3075 283.606 80.3021 283.603 80.2979C283.588 80.281 283.557 80.2538 283.506 80.2158C283.497 80.2045 283.488 80.1929 283.479 80.1816L283.478 80.1787C283.468 80.168 283.454 80.1554 283.44 80.1436C283.428 80.1322 283.414 80.1205 283.401 80.1084C283.39 80.0933 283.379 80.0751 283.364 80.0566C283.339 80.0238 283.312 79.9927 283.285 79.9629C283.449 79.9521 283.613 79.9432 283.779 79.9277C284.274 79.882 284.71 80.1031 285.028 80.4512C285.347 80.7995 285.545 81.2719 285.565 81.7197C285.585 82.1621 285.352 82.6732 285.041 82.9844C284.894 83.1314 284.685 83.2724 284.458 83.3721C284.231 83.4719 283.99 83.5285 283.779 83.5088C283.386 83.4721 282.993 83.4347 282.606 83.3682C282.195 83.2969 281.829 83.0722 281.524 82.7832C280.898 82.1885 280.788 81.229 281.181 80.4775ZM283.265 80.0869C283.265 80.0889 283.266 80.0908 283.267 80.0928C283.236 80.0841 283.192 80.071 283.148 80.0537C283.121 80.0427 283.094 80.0312 283.071 80.0205C283.067 80.0183 283.063 80.0147 283.059 80.0127L283.062 79.9785C283.096 79.9762 283.129 79.9739 283.162 79.9717C283.198 80.0069 283.231 80.0461 283.265 80.0869Z" stroke="white" stroke-opacity="0.8" stroke-width="0.0944248"/>
<path d="M409.267 153.782C409.358 153.782 409.358 153.641 409.267 153.641C409.177 153.641 409.176 153.782 409.267 153.782Z" fill="white"/>
<path d="M409.268 153.688C409.276 153.688 409.28 153.691 409.282 153.693C409.285 153.697 409.288 153.703 409.288 153.711C409.288 153.719 409.285 153.726 409.282 153.729C409.28 153.732 409.276 153.734 409.268 153.734C409.258 153.734 409.254 153.732 409.252 153.729C409.249 153.726 409.246 153.719 409.246 153.711C409.246 153.703 409.249 153.697 409.252 153.693C409.254 153.691 409.258 153.688 409.268 153.688Z" stroke="white" stroke-opacity="0.8" stroke-width="0.0944248"/>
<path d="M203.634 221.249C203.076 221.256 202.464 221.197 201.919 221.324C200.541 221.643 200.54 223.794 201.919 224.114C202.464 224.24 203.076 224.182 203.634 224.189C204.403 224.199 205.139 223.506 205.104 222.719C205.069 221.931 204.458 221.238 203.634 221.249Z" fill="white"/>
<path d="M203.206 221.293C203.35 221.295 203.495 221.298 203.635 221.296C204.429 221.286 205.022 221.955 205.057 222.722C205.09 223.479 204.379 224.151 203.635 224.142C203.495 224.14 203.35 224.142 203.206 224.145C203.062 224.147 202.917 224.15 202.772 224.149C202.483 224.147 202.197 224.129 201.93 224.067C201.267 223.914 200.932 223.32 200.932 222.719C200.932 222.117 201.267 221.524 201.93 221.37C202.197 221.308 202.483 221.291 202.772 221.289C202.917 221.288 203.062 221.29 203.206 221.293Z" stroke="white" stroke-opacity="0.8" stroke-width="0.0944248"/>
<path d="M170.485 229.484C170.617 229.35 170.75 229.217 170.882 229.082C171.428 228.517 171.485 227.514 170.882 226.96C170.596 226.698 170.22 226.503 169.821 226.521C169.401 226.54 169.084 226.695 168.76 226.96C168.492 227.179 168.26 227.465 168.017 227.71C167.558 228.174 166.851 228.713 166.702 229.364C166.45 230.458 167.382 231.39 168.477 231.139C169.126 230.99 169.667 230.282 170.13 229.824C170.376 229.581 170.611 229.297 170.882 229.082C170.174 228.375 169.467 227.667 168.76 226.96C168.627 227.094 168.492 227.225 168.358 227.358C167.798 227.912 167.762 228.936 168.358 229.484C168.956 230.032 169.894 230.082 170.485 229.484Z" fill="white"/>
<path d="M168.02 227.772C167.764 228.346 167.847 229.079 168.326 229.519C168.8 229.954 169.485 230.082 170.054 229.834C169.951 229.938 169.843 230.053 169.733 230.169C169.608 230.302 169.478 230.437 169.342 230.562C169.069 230.814 168.779 231.021 168.467 231.093C167.406 231.336 166.504 230.434 166.748 229.374C166.82 229.061 167.027 228.771 167.278 228.499C167.404 228.363 167.539 228.233 167.672 228.107C167.793 227.993 167.912 227.88 168.02 227.772ZM170.812 229.079C170.69 229.181 170.574 229.294 170.463 229.41C170.405 229.47 170.347 229.529 170.291 229.588C169.721 230.015 168.92 229.936 168.39 229.449C167.815 228.922 167.849 227.929 168.392 227.392C168.514 227.271 168.637 227.148 168.759 227.025C169.443 227.71 170.128 228.395 170.812 229.079ZM169.823 226.567C170.206 226.55 170.569 226.738 170.85 226.995C171.418 227.517 171.379 228.459 170.879 229.013C170.196 228.33 169.513 227.647 168.83 226.964C169.135 226.724 169.434 226.585 169.823 226.567Z" stroke="white" stroke-opacity="0.8" stroke-width="0.0944248"/>
<path d="M103.771 252.498C114.526 252.114 125.262 251.325 136.028 251.019C148.208 250.673 160.391 250.449 172.573 250.178C178.153 250.054 183.819 250.156 189.381 249.666C190.293 249.585 190.327 248.229 189.381 248.22C184.459 248.173 179.508 248.508 174.586 248.631C168.665 248.778 162.744 248.908 156.823 249.05C144.574 249.345 132.322 249.717 120.09 250.446C114.61 250.772 109.113 251.05 103.71 252.045C103.453 252.093 103.513 252.507 103.771 252.498Z" fill="white"/>
<path d="M189.381 248.268C189.605 248.27 189.767 248.351 189.873 248.47C189.98 248.589 190.032 248.751 190.03 248.916C190.026 249.246 189.805 249.581 189.377 249.619C183.817 250.11 178.154 250.007 172.572 250.131C160.391 250.402 148.207 250.625 136.026 250.972C130.643 251.125 125.267 251.399 119.893 251.683C114.518 251.966 109.146 252.259 103.77 252.451C103.672 252.455 103.608 252.379 103.595 252.286C103.588 252.241 103.596 252.196 103.616 252.161C103.636 252.127 103.668 252.1 103.719 252.091C109.118 251.097 114.613 250.819 120.093 250.493C132.324 249.765 144.575 249.392 156.824 249.098C162.745 248.955 168.666 248.825 174.587 248.678C179.512 248.555 184.459 248.22 189.381 248.268Z" stroke="white" stroke-opacity="0.8" stroke-width="0.0944248"/>
<path d="M104.088 252.08C103.566 251.278 102.704 250.936 102.008 250.302C101.269 249.628 100.68 248.798 100.338 247.856C99.7697 246.294 99.8636 244.511 100.533 242.995C101.114 241.681 102.164 240.448 103.559 239.981C105.316 239.393 106.86 240.413 108.302 241.304C108.752 241.582 109.356 241.016 109.047 240.559C106.378 236.608 101.17 238.118 99.237 241.916C98.2682 243.82 98.0062 246.115 98.7385 248.142C99.4045 249.985 101.559 252.857 103.771 252.632C104.028 252.606 104.253 252.335 104.088 252.08Z" fill="white"/>
<path d="M103.875 238.378C105.735 238.023 107.685 238.626 109.008 240.585C109.146 240.789 109.083 241.02 108.927 241.173C108.769 241.326 108.529 241.388 108.327 241.264C107.608 240.819 106.857 240.338 106.065 240.043C105.273 239.748 104.435 239.638 103.544 239.937C102.132 240.409 101.074 241.655 100.49 242.977C99.8159 244.503 99.7215 246.298 100.294 247.872C100.639 248.822 101.232 249.659 101.977 250.337C102.327 250.656 102.721 250.904 103.085 251.166C103.451 251.43 103.792 251.713 104.049 252.106C104.12 252.216 104.107 252.327 104.049 252.416C103.989 252.507 103.881 252.573 103.767 252.585C102.682 252.695 101.604 252.047 100.709 251.13C99.8154 250.214 99.1139 249.041 98.7832 248.126C98.056 246.113 98.3156 243.831 99.2793 241.938C100.24 240.051 102.013 238.733 103.875 238.378Z" stroke="white" stroke-opacity="0.8" stroke-width="0.0944248"/>
<path d="M106.044 239.545C105.564 237.832 104.695 236.276 104.377 234.511C104.096 232.957 104.137 231.335 104.53 229.804C105.277 226.89 107.24 224.394 109.778 222.809C112.309 221.23 115.414 220.518 118.375 220.971C120.035 221.225 121.622 221.839 123.043 222.727C124.628 223.716 125.838 225.122 127.352 226.187C127.658 226.401 128.16 226.039 128.014 225.678C126.602 222.205 122.385 219.904 118.838 219.292C115.346 218.69 111.729 219.476 108.774 221.427C105.972 223.275 103.799 226.095 103.008 229.385C102.193 232.777 102.775 237.426 105.484 239.871C105.725 240.089 106.138 239.881 106.044 239.545Z" fill="white"/>
<path d="M108.8 221.466C111.746 219.522 115.35 218.739 118.83 219.339C120.598 219.644 122.533 220.369 124.201 221.452C125.87 222.534 127.268 223.971 127.97 225.696C128.032 225.85 127.959 226.009 127.824 226.11C127.689 226.211 127.509 226.24 127.379 226.148C126.625 225.618 125.946 225.002 125.256 224.393C124.566 223.785 123.864 223.184 123.068 222.687C121.642 221.797 120.049 221.179 118.383 220.924C115.409 220.47 112.293 221.184 109.753 222.769C107.206 224.359 105.235 226.865 104.484 229.792C104.09 231.33 104.048 232.959 104.33 234.52C104.49 235.407 104.788 236.241 105.105 237.065C105.423 237.89 105.759 238.704 105.998 239.558C106.038 239.702 105.972 239.817 105.867 239.875C105.761 239.933 105.62 239.93 105.516 239.836C104.171 238.623 103.352 236.86 102.971 234.974C102.59 233.089 102.648 231.086 103.054 229.396C103.841 226.119 106.007 223.309 108.8 221.466Z" stroke="white" stroke-opacity="0.8" stroke-width="0.0944248"/>
<path d="M117.887 232.525C119.99 229.824 123.203 227.678 126.475 226.696C128.135 226.199 129.942 225.943 131.653 226.327C133.206 226.677 134.329 228.092 135.827 228.291C136.122 228.33 136.424 227.995 136.404 227.715C136.274 225.915 133.86 224.949 132.333 224.596C130.455 224.162 128.474 224.337 126.639 224.885C122.836 226.02 119.194 228.557 117.393 232.144C117.244 232.442 117.655 232.823 117.887 232.525Z" fill="white"/>
<path d="M126.652 224.93C128.481 224.384 130.454 224.21 132.322 224.642C133.083 224.818 134.063 225.146 134.867 225.653C135.673 226.16 136.293 226.841 136.356 227.718C136.365 227.841 136.303 227.983 136.199 228.09C136.096 228.197 135.961 228.261 135.834 228.245C135.097 228.147 134.449 227.749 133.786 227.326C133.126 226.905 132.45 226.458 131.663 226.282C129.941 225.895 128.126 226.152 126.462 226.651C123.181 227.635 119.959 229.786 117.85 232.496C117.799 232.56 117.743 232.584 117.689 232.585C117.635 232.587 117.577 232.564 117.527 232.522C117.426 232.436 117.374 232.289 117.436 232.166C119.229 228.592 122.859 226.063 126.652 224.93Z" stroke="white" stroke-opacity="0.8" stroke-width="0.0944248"/>
<path d="M130.108 225.815C130.022 224.28 129.366 222.868 129.426 221.298C129.479 219.931 129.909 218.588 130.578 217.4C132.018 214.839 134.525 212.968 137.185 211.815C139.866 210.652 142.977 210.106 145.865 210.716C148.988 211.375 150.951 213.354 152.671 215.933C153.06 216.516 153.954 216.153 153.801 215.457C152.561 209.814 146.134 207.991 141.077 208.771C135.951 209.561 130.501 212.765 128.519 217.762C127.567 220.162 127.365 224.193 129.536 226.051C129.74 226.226 130.126 226.127 130.108 225.815Z" fill="white"/>
<path d="M141.084 208.817C143.605 208.429 146.466 208.69 148.851 209.749C151.234 210.808 153.139 212.663 153.755 215.467C153.896 216.109 153.072 216.45 152.71 215.907C150.987 213.324 149.016 211.333 145.875 210.67C142.975 210.057 139.855 210.606 137.167 211.771C134.501 212.928 131.983 214.803 130.536 217.376C129.865 218.57 129.432 219.921 129.379 221.297C129.349 222.088 129.499 222.839 129.666 223.58C129.834 224.323 130.019 225.055 130.062 225.817C130.069 225.949 129.993 226.035 129.89 226.071C129.81 226.099 129.717 226.096 129.639 226.062L129.566 226.016C128.495 225.098 128.005 223.641 127.903 222.107C127.802 220.575 128.089 218.973 128.562 217.779C130.536 212.803 135.968 209.606 141.084 208.817Z" stroke="white" stroke-opacity="0.8" stroke-width="0.0944248"/>
<path d="M152.86 215.983C154.324 215.466 155.486 214.489 156.863 213.787C158.169 213.122 159.567 212.645 161.01 212.387C163.624 211.919 166.34 212.29 168.682 213.562C170.949 214.793 172.692 216.814 173.677 219.193C174.254 220.586 174.584 222.098 174.689 223.599C174.799 225.184 174.474 226.809 175.099 228.302C175.218 228.587 175.621 228.804 175.869 228.506C177.908 226.057 176.802 221.33 175.709 218.633C174.563 215.808 172.545 213.366 169.86 211.885C167.256 210.449 164.19 210.04 161.274 210.528C158.239 211.037 154.022 212.693 152.528 215.552C152.419 215.762 152.604 216.073 152.86 215.983Z" fill="white"/>
<path d="M161.282 210.575C164.188 210.088 167.244 210.496 169.837 211.926C172.512 213.402 174.523 215.835 175.665 218.651C176.211 219.996 176.759 221.848 176.917 223.667C177.075 225.487 176.841 227.266 175.833 228.476C175.724 228.607 175.582 228.625 175.451 228.578C175.317 228.53 175.197 228.414 175.143 228.285C174.834 227.547 174.759 226.774 174.748 225.985C174.738 225.2 174.791 224.389 174.735 223.596C174.63 222.09 174.3 220.573 173.721 219.174C172.732 216.787 170.981 214.757 168.704 213.52C166.352 212.243 163.625 211.871 161.001 212.34C159.553 212.599 158.151 213.078 156.842 213.746C156.151 214.098 155.513 214.519 154.869 214.915C154.224 215.311 153.571 215.681 152.844 215.938C152.74 215.975 152.651 215.932 152.596 215.853C152.54 215.772 152.525 215.661 152.57 215.574C153.311 214.156 154.729 213.033 156.345 212.201C157.96 211.368 159.769 210.828 161.282 210.575Z" stroke="white" stroke-opacity="0.8" stroke-width="0.0944248"/>
<path d="M167.525 229.624C170.242 228.578 173.216 228.444 176.002 229.292C177.331 229.697 178.619 230.417 179.49 231.523C180.451 232.745 180.573 234.276 181.092 235.689C181.263 236.157 181.84 236.132 182.021 235.689C183.394 232.326 180.163 229.053 177.254 227.955C174.071 226.753 170.121 227.169 167.267 229.011C166.965 229.205 167.153 229.767 167.525 229.624Z" fill="white"/>
<path d="M167.293 229.051C170.134 227.217 174.068 226.803 177.237 227.999C178.684 228.545 180.211 229.632 181.205 231C182.198 232.367 182.655 234.009 181.977 235.671C181.893 235.875 181.72 235.98 181.552 235.983C181.384 235.986 181.215 235.889 181.136 235.673C180.877 234.968 180.719 234.238 180.502 233.521C180.286 232.806 180.013 232.112 179.527 231.494C178.649 230.378 177.351 229.654 176.016 229.247C173.219 228.396 170.235 228.53 167.509 229.579C167.428 229.61 167.361 229.602 167.309 229.574C167.255 229.545 167.212 229.492 167.188 229.427C167.144 229.311 167.16 229.173 167.25 229.085L167.293 229.051Z" stroke="white" stroke-opacity="0.8" stroke-width="0.0944248"/>
<path d="M172.746 239.299C176.759 236.935 181.45 236.491 185.652 238.736C187.396 239.668 189.072 241.086 189.66 243.042C189.947 243.999 189.908 244.968 189.634 245.922C189.335 246.967 188.585 247.979 188.827 249.096C188.899 249.424 189.242 249.544 189.536 249.498C192.15 249.092 192.404 244.52 191.842 242.586C191.132 240.15 189.165 238.273 186.984 237.096C182.778 234.824 175.107 233.966 172.331 238.884C172.182 239.146 172.481 239.456 172.746 239.299Z" fill="white"/>
<path d="M179.123 235.341C181.905 235.225 184.866 236.005 186.962 237.137C189.136 238.311 191.092 240.18 191.796 242.6C192.075 243.558 192.152 245.176 191.834 246.604C191.515 248.036 190.805 249.253 189.529 249.451C189.391 249.473 189.241 249.455 189.119 249.395C188.999 249.335 188.905 249.234 188.873 249.086C188.755 248.541 188.878 248.018 189.071 247.498C189.168 247.238 189.283 246.98 189.392 246.72C189.5 246.46 189.604 246.199 189.68 245.936C189.955 244.974 189.995 243.995 189.705 243.028C189.112 241.054 187.423 239.629 185.675 238.694C181.456 236.44 176.746 236.887 172.722 239.259C172.611 239.324 172.494 239.293 172.417 239.215C172.34 239.137 172.31 239.017 172.372 238.907C173.749 236.468 176.342 235.457 179.123 235.341Z" stroke="white" stroke-opacity="0.8" stroke-width="0.0944248"/>
</svg>
