<svg width="295" height="289" viewBox="0 0 295 289" fill="none" xmlns="http://www.w3.org/2000/svg">
<path d="M156.396 165.297C156.117 165.132 155.878 164.949 155.701 164.742C155.686 164.723 155.67 164.708 155.652 164.689L156.396 165.297ZM152.614 170.151L153.649 170.833L153.289 171.379C152.921 171.122 152.595 170.87 152.307 170.616L152.614 170.151ZM156.396 165.297C156.117 165.132 155.878 164.949 155.701 164.742C155.686 164.723 155.67 164.708 155.652 164.689L156.396 165.297ZM155.478 172.188L156.535 172.833L156.191 173.397C155.838 173.149 155.497 172.91 155.174 172.687L155.478 172.188ZM158.907 174.553L159.911 175.279L159.549 175.778C159.208 175.533 158.87 175.294 158.541 175.059L158.907 174.553H158.907ZM165.265 179.141L166.307 179.814L165.953 180.363C165.618 180.124 165.284 179.882 164.946 179.638L165.265 179.141Z" fill="white" fill-opacity="0.8"/>
<path d="M185.547 165.039C188.722 162.358 188.229 157.011 188.031 155.581C189.694 153.965 190.131 150.815 190.15 150.675L190.213 150.199L162.251 138.833L161.999 138.961C158.278 140.846 159.33 145.912 159.959 148.939L160.07 149.477L161.285 149.231L161.173 148.687C160.598 145.917 159.736 141.771 162.321 140.2L188.838 150.979C188.653 151.9 188.128 153.937 186.979 154.858L186.692 155.088L186.757 155.452C186.768 155.512 187.804 161.509 184.747 164.091L185.547 165.038L185.547 165.039Z" fill="white" fill-opacity="0.8"/>
<path d="M149.005 175.617L162.438 185.813L165.953 180.363L166.307 179.814L165.265 179.142L164.946 179.638L162.122 184.015L150.679 175.332L153.29 171.379L153.649 170.833L152.614 170.151L152.307 170.616L149.005 175.617Z" fill="white" fill-opacity="0.8"/>
<path d="M248.158 272.367L291.619 162.88L210.113 138.66L209.759 139.848L289.966 163.682L247.452 270.787L149.954 235.042L169.864 181.594L168.702 181.161L148.356 235.777L148.941 235.992L248.158 272.367Z" fill="white" fill-opacity="0.8"/>
<path d="M222.717 255.577L219.669 254.477L220.733 256.179L220.934 256.253L246.101 265.339L251.25 252.062L284.799 165.554L207.477 144.015L207.145 145.211L283.15 166.382L250.199 251.336L249.737 252.527C249.737 252.527 249.669 252.703 249.551 253.01L249.452 253.265C249.433 253.311 249.415 253.358 249.396 253.407L249.272 253.73C249.204 253.9 249.133 254.083 249.058 254.281L248.897 254.694C248.841 254.833 248.785 254.982 248.726 255.134L248.546 255.596C248.395 255.993 248.23 256.408 248.066 256.839L247.864 257.357L247.254 258.931C247.151 259.192 247.052 259.449 246.953 259.703L246.665 260.45C246.634 260.531 246.603 260.612 246.572 260.689L246.392 261.154C246.305 261.38 246.218 261.598 246.141 261.802L245.914 262.382L245.79 262.71C245.536 263.361 245.381 263.761 245.381 263.761C245.381 263.761 245.254 263.715 245.248 263.712C240.235 261.904 235.222 260.094 230.21 258.284L222.717 255.577V255.577Z" fill="white" fill-opacity="0.8"/>
<path d="M86.0052 144.972C92.8163 144.974 105.552 123.905 112.193 104.998C118.78 86.2431 121.499 63.4805 118.01 56.2863C117.423 55.075 116.658 54.3008 115.736 53.9848C114.813 53.6686 113.732 53.8115 112.522 54.4088C105.436 57.9097 93.8211 77.1122 87.6661 95.5023C81.5971 113.635 79.3147 135.625 82.7817 142.56C83.3802 143.758 84.1505 144.52 85.0711 144.826C85.3678 144.924 85.6803 144.972 86.0052 144.972ZM114.722 55.0614C114.942 55.0614 115.146 55.0935 115.334 55.1579C115.932 55.3628 116.457 55.9244 116.894 56.8274C120.204 63.6521 117.405 86.416 111.023 104.587C104.17 124.097 91.543 143.743 86.0853 143.746C85.8653 143.746 85.6579 143.714 85.4621 143.649C84.8654 143.451 84.3368 142.898 83.8908 142.006C80.6051 135.433 82.965 113.455 88.842 95.8958C94.8033 78.0845 106.352 58.8403 113.072 55.5206C113.691 55.2148 114.243 55.0613 114.722 55.0613L114.722 55.0614Z" fill="white" fill-opacity="0.8"/>
<path d="M85.2511 148.736C93.8148 148.736 109.087 126.018 116.532 105.417C123.613 85.825 126.099 60.8329 121.852 51.9337C121.015 50.1803 119.932 49.0628 118.632 48.6123C117.332 48.1619 115.79 48.3696 114.049 49.2293C105.169 53.6138 91.5851 74.9479 84.9797 94.8843C81.4642 105.495 79.1086 118.118 78.6786 128.652C78.4075 135.296 78.7167 146.71 83.8352 148.503C84.2824 148.659 84.7562 148.735 85.251 148.735L85.2511 148.736ZM117.209 49.621C117.573 49.621 117.912 49.6753 118.226 49.784C119.201 50.1219 120.044 51.0248 120.733 52.4679C124.86 61.1176 122.352 85.6634 115.366 104.996C107.226 127.52 90.9386 149.678 84.2452 147.332C81.1042 146.232 79.4864 139.268 79.9177 128.703C80.3433 118.278 82.6757 105.781 86.1569 95.2744C92.6754 75.6002 105.966 54.6036 114.598 50.3413C115.569 49.8617 116.443 49.6211 117.209 49.6211L117.209 49.621Z" fill="white" fill-opacity="0.8"/>
<path d="M192.394 152.456L192.687 152.105C193.286 151.386 207.315 134.328 203.35 119.718L203.262 119.394L202.942 119.29C202.783 119.239 186.915 114.069 169.312 104.311C153.111 95.3302 132.082 80.5173 123.903 60.9463L122.759 61.4246C126.438 70.2278 132.934 78.8131 142.066 86.9419C149.35 93.4255 158.321 99.6378 168.73 105.406C185.044 114.447 199.879 119.572 202.237 120.363C205.453 133.166 193.995 148.447 192.019 150.956C189.164 149.766 172.925 143.003 166.188 140.383C160.445 138.149 129.932 127.778 93.226 143.017L93.7014 144.162C129.97 129.105 160.073 139.335 165.739 141.539C173.087 144.397 191.784 152.201 191.972 152.28L192.394 152.456L192.394 152.456Z" fill="white" fill-opacity="0.8"/>
<path d="M100.287 135.758C129.976 125.2 165.262 135.049 165.615 135.15L165.955 133.958C165.866 133.932 156.883 131.396 144.322 130.216C132.719 129.126 115.589 129 99.8716 134.59L100.287 135.758Z" fill="white" fill-opacity="0.8"/>
<path d="M170.132 112.854C170.387 112.854 170.626 112.695 170.716 112.44C170.83 112.118 170.661 111.763 170.339 111.649C170.164 111.587 152.847 105.369 148.124 96.0396C147.969 95.734 147.596 95.6112 147.291 95.7665C146.985 95.9211 146.863 96.2942 147.018 96.5997C151.965 106.373 169.194 112.559 169.925 112.818C169.993 112.842 170.063 112.854 170.132 112.854L170.132 112.854Z" fill="white" fill-opacity="0.8"/>
<path d="M145.295 101.693C145.35 101.693 145.406 101.686 145.461 101.671C145.791 101.579 145.985 101.238 145.893 100.908L143.207 91.1942C143.115 90.8642 142.774 90.6705 142.444 90.7619C142.114 90.8532 141.92 91.1949 142.012 91.5248L144.698 101.238C144.774 101.513 145.024 101.693 145.296 101.693L145.295 101.693Z" fill="white" fill-opacity="0.8"/>
<path d="M140.731 99.7185C140.786 99.7185 140.841 99.7113 140.897 99.696C141.227 99.6047 141.42 99.263 141.329 98.9331L138.642 89.2196C138.551 88.8896 138.209 88.6959 137.879 88.7873C137.549 88.8786 137.356 89.2202 137.447 89.5502L140.134 99.2636C140.21 99.5384 140.459 99.7185 140.731 99.7185Z" fill="white" fill-opacity="0.8"/>
<path d="M136.794 96.8364C136.848 96.8364 136.904 96.8292 136.959 96.8139C137.289 96.7226 137.483 96.381 137.391 96.051L134.705 86.3375C134.613 86.0075 134.272 85.8144 133.942 85.9053C133.612 85.9965 133.418 86.3382 133.51 86.6682L136.196 96.3816C136.272 96.6563 136.522 96.8364 136.794 96.8364Z" fill="white" fill-opacity="0.8"/>
<path d="M183.969 148.596C195.095 139.323 196.083 118.162 196.119 117.266L194.88 117.215C194.871 117.429 193.876 138.725 183.175 147.643L183.969 148.596Z" fill="white" fill-opacity="0.8"/>
<path d="M180.663 147.199C189.634 138.866 192.078 116.669 192.178 115.728L190.945 115.598C190.921 115.823 188.449 138.274 179.819 146.29L180.663 147.199Z" fill="white" fill-opacity="0.8"/>
<path d="M175.471 144.798C185.533 134.721 187.889 114.798 187.984 113.955L186.752 113.815C186.729 114.018 184.347 134.153 174.593 143.922L175.471 144.798Z" fill="white" fill-opacity="0.8"/>
<path d="M172.371 143.248C182.434 133.171 184.789 113.248 184.885 112.405L183.653 112.266C183.63 112.468 181.248 132.604 171.493 142.372L172.371 143.248Z" fill="white" fill-opacity="0.8"/>
<path d="M165.148 140.923C175.207 130.848 177.863 110.633 177.971 109.777L176.741 109.622C176.714 109.827 174.028 130.275 164.27 140.046L165.148 140.923Z" fill="white" fill-opacity="0.8"/>
<path d="M162.048 139.992C172.108 129.917 174.763 109.106 174.871 108.225L173.64 108.074C173.614 108.286 170.927 129.345 161.17 139.116L162.048 139.992Z" fill="white" fill-opacity="0.8"/>
<path d="M198.056 149.976C200.175 149.976 202.066 149.527 203.706 148.633C208.132 146.219 210.874 140.992 210.53 135.624C210.236 131.04 207.729 127.502 203.652 125.916L203.203 127.071C206.811 128.475 209.03 131.621 209.292 135.703C209.601 140.522 207.06 145.391 203.113 147.544C200.796 148.807 197.877 149.067 194.434 148.317L194.17 149.528C195.538 149.827 196.835 149.976 198.056 149.976Z" fill="white" fill-opacity="0.8"/>
<path d="M204.483 129.123C204.483 129.123 207.583 141.839 197.663 147.497C197.663 147.497 203.553 139.812 204.483 129.123Z" fill="white" fill-opacity="0.8"/>
<path d="M206.82 132.12C206.82 132.12 209.329 142.41 201.301 146.989C201.301 146.989 206.068 140.77 206.82 132.12Z" fill="white" fill-opacity="0.8"/>
<path d="M94.0618 107.655C95.3425 107.655 96.7164 107.012 98.0347 105.776C99.662 104.251 101.038 101.974 101.91 99.3647C102.782 96.7557 103.051 94.1086 102.668 91.9112C102.261 89.5785 101.165 88.0025 99.581 87.4733C96.4018 86.4113 92.444 89.9702 90.571 95.5757C89.6992 98.1847 89.4302 100.832 89.8135 103.029C90.2204 105.362 91.3166 106.938 92.9002 107.467C93.2754 107.592 93.6642 107.655 94.0618 107.655ZM98.4229 88.5275C98.6861 88.5275 98.9419 88.5671 99.1881 88.6495C100.319 89.0275 101.121 90.2614 101.446 92.1243C101.795 94.1226 101.542 96.5543 100.734 98.9718C99.9264 101.389 98.6666 103.484 97.1867 104.872C95.807 106.165 94.4245 106.669 93.2932 106.291C92.162 105.913 91.3601 104.679 91.0352 102.816C90.6865 100.818 90.9394 98.3861 91.7471 95.9687C93.1834 91.6707 96.0823 88.5275 98.4229 88.5275Z" fill="white" fill-opacity="0.8"/>
<path d="M94.8272 104.25C96.8123 104.25 99.0068 102.035 100.101 98.7604C101.347 95.0322 100.627 91.5449 98.4615 90.8213C96.2961 90.0981 93.6242 92.4519 92.3785 96.18C91.1327 99.9083 91.8529 103.396 94.0181 104.119C94.2814 104.207 94.5525 104.25 94.8273 104.25L94.8272 104.25ZM97.6706 91.9354C97.8107 91.9354 97.9439 91.9559 98.0685 91.9975C99.3385 92.422 100.003 95.1424 98.9251 98.3675C97.8474 101.592 95.6814 103.367 94.4111 102.943C93.1411 102.518 92.4769 99.7981 93.5546 96.573C94.5264 93.6644 96.3838 91.9354 97.6706 91.9354Z" fill="white" fill-opacity="0.8"/>
<path d="M100.924 88.5545L115.943 88.979L115.908 90.2184L100.889 89.7939L100.924 88.5545Z" fill="white" fill-opacity="0.8"/>
<path d="M93.8622 106.501L106.646 117.292L105.847 118.24L93.0624 107.449L93.8622 106.501Z" fill="white" fill-opacity="0.8"/>
<path d="M113.883 93.6332C114.192 93.6332 114.46 93.4017 114.498 93.0867C114.538 92.7468 114.296 92.4382 113.955 92.3975L104.449 91.2607C104.108 91.2203 103.8 91.463 103.759 91.8028C103.719 92.1428 103.961 92.4513 104.301 92.492L113.808 93.6288C113.833 93.6318 113.858 93.6332 113.883 93.6332Z" fill="white" fill-opacity="0.8"/>
<path d="M183.063 147.766L184.08 148.476L180.749 153.247L179.732 152.537L183.063 147.766Z" fill="white" fill-opacity="0.8"/>
<path d="M177.49 145.836L178.711 146.054L177.967 150.226L176.746 150.009L177.49 145.836Z" fill="white" fill-opacity="0.8"/>
<path d="M163.493 148.144C163.615 147.967 166.449 143.781 165.298 140.29L164.12 140.678C165.081 143.592 162.497 147.404 162.471 147.442L163.493 148.144Z" fill="white" fill-opacity="0.8"/>
<path d="M161.749 176.642L162.809 177.286L161.171 179.981L160.111 179.337L161.749 176.642Z" fill="white" fill-opacity="0.8"/>
<path d="M157.426 176.603L158.433 177.328L159.549 175.778L159.912 175.279L158.908 174.554L158.542 175.059L157.426 176.603Z" fill="white" fill-opacity="0.8"/>
<path d="M154.012 174.594L155.069 175.239L156.191 173.398L156.535 172.833L155.478 172.188L155.174 172.688L154.012 174.594Z" fill="white" fill-opacity="0.8"/>
<path d="M174.512 288.22C174.836 288.22 175.132 288.17 175.498 288.101C175.851 288.034 176.292 287.95 176.961 287.903C179.864 287.695 238.828 278.593 246.897 276.938C250.734 276.151 253.189 274.929 254.192 273.306C254.621 272.614 254.666 272.021 254.645 271.69C256.086 268.802 261.959 253.572 268.736 236C275.63 218.124 283.444 197.862 288.68 185.149C293.969 172.306 295.458 165.061 293.232 162.999C292.326 162.159 291.098 162.433 290.514 162.727L291.073 163.835L290.793 163.281L291.069 163.837C291.102 163.82 291.894 163.443 292.394 163.913C293.195 164.664 294.323 168.193 287.533 184.677C282.292 197.403 274.476 217.671 267.579 235.554C260.662 253.49 254.688 268.98 253.459 271.285L253.344 271.501L253.407 271.737C253.407 271.744 253.819 274.252 246.648 275.723C238.593 277.375 179.766 286.459 176.873 286.666C176.132 286.719 175.652 286.81 175.266 286.883C174.261 287.074 174.022 287.119 170.132 285.473C168.875 284.941 163.944 282.838 157.071 279.907C134.048 270.087 91.192 251.808 87.8557 250.537L87.7126 250.483C85.5139 249.645 84.1867 249.14 83.8216 248.298C83.5479 247.668 83.7214 246.66 84.4032 244.95C87.5199 243.735 124.839 238.387 149.614 235.029L149.447 233.8C149.288 233.821 133.321 235.988 117.331 238.302C84.8262 243.009 83.9208 243.713 83.5342 244.014L83.4037 244.115L83.3411 244.268C82.4262 246.505 82.2419 247.773 82.684 248.792C83.257 250.113 84.768 250.688 87.2713 251.642L87.4142 251.696C90.7279 252.958 133.569 271.231 156.585 281.047C163.46 283.98 168.392 286.083 169.649 286.615C172.619 287.872 173.658 288.22 174.512 288.22V288.22Z" fill="white" fill-opacity="0.8"/>
<path d="M174.139 284.769C174.667 284.769 175.312 284.675 176.355 284.515C176.614 284.475 176.899 284.431 177.217 284.384C178.285 284.223 180.081 283.897 182.801 283.403C190.613 281.985 205.153 279.344 227.435 276.117C245.584 273.489 255.13 271.189 255.809 269.281C255.936 268.924 255.819 268.621 255.668 268.456L254.754 269.295C254.577 269.102 254.619 268.891 254.654 268.835C254.504 269.071 252.461 271.24 227.257 274.89C204.953 278.12 190.399 280.763 182.58 282.183C179.968 282.657 178.082 283 177.033 283.157C176.714 283.205 176.427 283.249 176.167 283.289C174.618 283.527 173.272 283.401 172.128 282.911C171.664 282.712 171.087 282.465 170.328 282.161C166.248 280.529 84.4072 245.889 83.581 245.539L83.0976 246.681C83.9239 247.031 165.776 281.676 169.868 283.313C170.612 283.61 171.182 283.855 171.64 284.051C172.828 284.56 173.352 284.769 174.139 284.769L174.139 284.769Z" fill="white" fill-opacity="0.8"/>
<path d="M197.302 274.694L197.467 274.671L231.502 269.777L149.918 239.529L119.066 243.357L197.302 274.694L197.302 274.694ZM226.497 269.243L197.455 273.419L123.994 243.995L149.77 240.797L226.497 269.243Z" fill="white" fill-opacity="0.8"/>
<path d="M141.367 240.665L218.316 270.5L217.868 271.657L140.919 241.821L141.367 240.665Z" fill="white" fill-opacity="0.8"/>
<path d="M131.189 241.925L209.373 271.786L208.931 272.944L130.747 243.084L131.189 241.925Z" fill="white" fill-opacity="0.8"/>
<path d="M186.171 253.145L186.643 254.292L167.011 262.372L166.539 261.225L186.171 253.145Z" fill="white" fill-opacity="0.8"/>
<path d="M149.719 244.009L149.967 245.224L141.267 246.999L141.019 245.784L149.719 244.009Z" fill="white" fill-opacity="0.8"/>
<path d="M101.279 49.0009L93.4634 26.5043H101.279L86.1511 0L90.801 20.4595L83.0776 17.6696L101.279 49.0009Z" fill="white" fill-opacity="0.8"/>
<path d="M83.0781 52.5437L69.4121 31.6192H76.2451L58.7174 15.8096L66.6222 29.2942L58.7174 27.4343L83.0781 52.5437Z" fill="white" fill-opacity="0.8"/>
<path d="M77.3008 75.9625L41.0298 47.7518L52.5001 41.8616L8.16903 22.6411L31.4196 42.1716L23.3594 47.4418L77.3008 75.9625Z" fill="white" fill-opacity="0.8"/>
<path d="M68.0547 137.129L50.8404 152.378L47.9673 145.399L29.8624 168.65L46.4216 156.977L46.7696 164.899L68.0547 137.129Z" fill="white" fill-opacity="0.8"/>
<path d="M60.248 122.908L31.427 126.612L34.888 119.46L9.46405 129.797L27.5806 128.354L21.6301 135.685L60.248 122.908Z" fill="white" fill-opacity="0.8"/>
<path d="M74.752 102.882L35.4456 96.2204L42.4341 87.3184L-0.000799935 90.5182L25.7271 95.8635L21.2318 102.96L74.752 102.882Z" fill="white" fill-opacity="0.8"/>
<path d="M74.7513 90.6252C75.2343 90.6252 75.6935 90.3412 75.8937 89.8684C76.1607 89.2378 75.8661 88.51 75.2354 88.243L8.65389 60.0434C8.02301 59.7762 7.29547 60.071 7.02841 60.7015C6.76134 61.3321 7.05598 62.0599 7.68659 62.327L74.2683 90.5266C74.4261 90.5935 74.59 90.6252 74.7513 90.6252Z" fill="white" fill-opacity="0.8"/>
<path d="M222.715 255.577C225.099 256.672 227.74 257.391 230.208 258.284C235.221 260.094 240.234 261.905 245.246 263.712C245.253 263.715 245.38 263.761 245.38 263.761C245.38 263.761 245.535 263.362 245.789 262.711L245.913 262.382L246.139 261.802C246.217 261.598 246.303 261.381 246.39 261.154L246.57 260.689C246.601 260.612 246.632 260.531 246.663 260.451L246.951 259.703C247.051 259.449 247.15 259.192 247.252 258.931L247.863 257.357L248.064 256.839C248.229 256.408 248.393 255.993 248.545 255.596L248.725 255.134C248.784 254.982 248.839 254.833 248.895 254.694L249.056 254.281C249.131 254.083 249.202 253.9 249.27 253.73L249.394 253.407C249.413 253.358 249.432 253.311 249.45 253.265C249.484 253.172 249.518 253.085 249.549 253.01C249.667 252.704 249.735 252.527 249.735 252.527L250.197 251.336C250.594 251.612 250.82 251.767 250.842 251.783L251.248 252.062L246.099 265.339L220.932 256.253L220.731 256.179L219.668 254.477L222.715 255.577Z" fill="white" fill-opacity="0.8"/>
<path d="M150.803 167.563C151.088 166.106 152.824 165.263 154.011 164.848C153.332 164.103 153.041 163.394 153.118 162.693C153.211 161.878 153.8 161.193 154.876 160.656C155.028 160.579 155.13 160.449 155.167 160.287C155.177 160.238 155.18 160.188 155.177 160.139C155.177 160.101 155.167 160.061 155.155 160.024C155.133 159.946 155.096 159.872 155.043 159.807C154.705 159.398 154.56 158.886 154.619 158.331C154.789 156.772 156.581 155.11 157.272 154.524C157.241 152.469 157.905 150.742 159.241 149.384C162.645 145.934 169.22 146.117 169.499 146.129C175.895 146.356 181.571 152.565 184.485 157.813L184.541 157.913L184.556 158.027C185.582 165.198 187.914 172.743 188.648 175.01C189.231 174.79 189.808 174.768 190.369 174.948C192.502 175.633 193.835 179.006 195.245 182.577C195.602 183.485 195.943 184.341 196.293 185.147C198.37 189.927 217.696 220.634 223.307 228.647C228.41 235.939 246.542 248.785 250.197 251.337L249.735 252.527C246.626 250.373 227.709 237.101 222.29 229.36C216.661 221.319 197.251 190.463 195.155 185.643C194.796 184.815 194.436 183.91 194.092 183.033C192.908 180.032 191.566 176.634 189.991 176.129C189.569 175.995 189.12 176.085 188.62 176.408L187.954 176.842L187.697 176.089C187.666 175.999 184.59 166.922 183.347 158.316C180.359 152.99 174.924 147.562 169.456 147.366C169.394 147.363 163.15 147.186 160.125 150.256C159.03 151.365 158.488 152.791 158.516 154.503C159.17 154.992 161.306 156.397 163.854 155.929C164.192 155.867 164.514 156.09 164.576 156.428C164.638 156.766 164.415 157.088 164.077 157.15C163.643 157.231 163.218 157.265 162.806 157.265C160.531 157.265 158.714 156.174 157.92 155.603C157.179 156.267 155.955 157.531 155.853 158.468C155.828 158.691 155.877 158.868 156.002 159.023C156.144 159.196 156.249 159.388 156.321 159.59C157.803 160.473 160.974 160.163 162.118 159.959C162.456 159.9 162.778 160.123 162.837 160.461C162.899 160.796 162.676 161.118 162.338 161.18C162.236 161.199 160.955 161.422 159.449 161.422C158.379 161.422 157.201 161.31 156.249 160.929C156.082 161.289 155.797 161.583 155.428 161.766C154.966 161.995 154.402 162.371 154.352 162.833C154.299 163.298 154.749 163.949 155.62 164.662C155.633 164.674 155.642 164.68 155.651 164.69C155.67 164.708 155.685 164.724 155.701 164.742C155.877 164.95 156.116 165.133 156.395 165.297C157.679 166.054 159.824 166.391 160.692 166.463C161.033 166.491 161.287 166.788 161.259 167.129C161.234 167.455 160.962 167.7 160.642 167.7C160.627 167.7 160.608 167.7 160.593 167.697C160.174 167.666 156.68 167.337 155.034 165.83C154.061 166.1 152.213 166.807 152.021 167.802C151.888 168.487 152.619 169.417 154.076 170.415C160.05 174.507 177.315 187.041 177.488 187.168L177.835 187.419C180.089 187.673 182.051 188.48 182.144 188.517C182.461 188.65 182.609 189.013 182.479 189.329C182.38 189.568 182.148 189.71 181.906 189.71C181.825 189.71 181.744 189.695 181.667 189.664C181.645 189.655 179.367 188.715 177.035 188.597C176.828 188.585 176.651 188.476 176.549 188.315C176.229 188.365 175.848 188.492 175.662 188.799C175.47 189.118 175.219 190.157 177.023 192.91C177.643 193.858 178.833 195.805 180.483 198.502C188.856 212.208 197.273 225.975 206.892 238.853C209.273 242.037 211.731 245.183 214.432 248.107C216.034 249.843 218.111 251.067 219.767 252.75C220.874 253.882 221.308 254.933 222.715 255.578L219.668 254.477L220.731 256.179L156.246 232.894L155.648 232.677L173.725 185.968C171.71 184.511 168.904 182.481 165.953 180.364L166.306 179.815L165.264 179.142L164.945 179.638C163.119 178.33 161.272 177.003 159.548 175.779L159.911 175.279L158.906 174.554L158.54 175.059C157.713 174.473 156.922 173.915 156.191 173.398L156.535 172.834L155.477 172.189L155.174 172.688C154.501 172.214 153.896 171.795 153.376 171.439C153.348 171.42 153.317 171.398 153.289 171.38L153.648 170.834L152.613 170.152L152.306 170.617C151.103 169.569 150.61 168.562 150.803 167.563L150.803 167.563ZM157.263 231.943L219.665 254.474L219.528 254.26C209.298 248.041 188.379 213.804 179.422 199.15C177.782 196.462 176.595 194.521 175.984 193.588C174.354 191.099 173.901 189.323 174.599 188.16C174.85 187.745 175.209 187.481 175.578 187.314C175.336 187.14 175.064 186.942 174.76 186.722L157.263 231.943Z" fill="white" fill-opacity="0.8"/>
</svg>
