<svg width="318" height="264" viewBox="0 0 318 264" fill="none" xmlns="http://www.w3.org/2000/svg">
<path d="M244.183 58.0003C239.879 60.8365 236.193 64.9324 232.764 68.7497C229.126 72.8005 225.775 77.1073 222.678 81.5843C216.162 91.0034 210.783 101.183 206.344 111.731C197.32 133.173 192.034 156.427 191.055 179.677C190.558 191.509 190.848 203.898 194.1 215.359C194.263 215.934 195.045 215.676 194.968 215.119C193.539 204.705 192.447 194.317 192.631 183.788C192.828 172.444 194.139 161.127 196.373 150.007C200.886 127.551 209.044 105.489 221.431 86.1558C224.728 81.0088 228.345 76.0669 232.31 71.4127C234.252 69.1328 236.279 66.924 238.395 64.8039C240.466 62.7279 242.72 60.8398 244.728 58.7076C245.067 58.3487 244.626 57.7087 244.183 58.0003Z" fill="white"/>
<path d="M244.491 57.9829C244.577 58.0044 244.654 58.0614 244.71 58.1382C244.823 58.2929 244.844 58.5163 244.694 58.6753C243.691 59.7402 242.626 60.7447 241.553 61.7427C240.48 62.7402 239.398 63.7323 238.361 64.771C236.245 66.8919 234.217 69.1017 232.274 71.3823C228.308 76.0383 224.689 80.9818 221.391 86.1304C209.001 105.469 200.841 127.537 196.327 149.999C194.092 161.121 192.781 172.44 192.583 183.787C192.4 194.319 193.492 204.71 194.922 215.125C194.956 215.378 194.797 215.562 194.61 215.619C194.517 215.647 194.419 215.642 194.337 215.6C194.255 215.559 194.183 215.479 194.146 215.346C190.896 203.893 190.605 191.509 191.103 179.678C192.08 156.434 197.366 133.186 206.388 111.75C210.826 101.203 216.203 91.0268 222.717 81.6108C225.813 77.1356 229.162 72.8307 232.799 68.7817C236.228 64.9635 239.911 60.8718 244.209 58.0396C244.309 57.9736 244.406 57.9617 244.491 57.9829Z" stroke="white" stroke-opacity="0.8" stroke-width="0.0944248"/>
<path d="M250.618 62.1973C240.134 83.56 236.24 108.364 237.304 131.993C238.371 155.679 244.478 178.904 253.926 200.589C259.339 213.012 265.619 225.416 273.606 236.397C274.088 237.059 275.148 236.485 274.727 235.741C268.857 225.354 262.779 215.14 257.77 204.292C252.785 193.495 248.612 182.298 245.441 170.834C239.231 148.381 237.047 124.741 240.521 101.636C242.553 88.1238 246.691 75.3289 251.843 62.7136C252.129 62.014 250.951 61.5186 250.618 62.1973Z" fill="white"/>
<path d="M250.66 62.2178C250.812 61.9095 251.157 61.8617 251.444 61.9824C251.587 62.0424 251.708 62.1423 251.777 62.2656C251.846 62.3877 251.864 62.5343 251.799 62.6953C246.646 75.3126 242.507 88.1122 240.475 101.63C236.999 124.742 239.184 148.389 245.396 170.847C248.567 182.313 252.741 193.513 257.728 204.312C262.738 215.162 268.817 225.378 274.687 235.765C274.786 235.94 274.795 236.102 274.752 236.236C274.708 236.371 274.609 236.484 274.481 236.556C274.227 236.699 273.869 236.678 273.645 236.369C265.661 225.392 259.382 212.992 253.97 200.57C244.523 178.889 238.418 155.67 237.352 131.99C236.288 108.368 240.181 83.5718 250.66 62.2178Z" stroke="white" stroke-opacity="0.8" stroke-width="0.0944248"/>
<path d="M241.324 63.3375C237.082 73.5757 230.863 82.5774 225.253 92.0729C222.556 96.6377 220.079 101.353 218.255 106.34C216.418 111.361 214.991 116.553 213.819 121.766C209.083 142.824 208.772 165.147 212.939 186.328C215.226 197.95 218.67 209.775 224.506 220.141C224.63 220.362 225.03 220.21 224.927 219.964C220.82 210.226 217.268 200.363 215.041 190.012C212.742 179.322 211.548 168.402 211.461 157.468C211.375 146.595 212.36 135.703 214.53 125.046C216.698 114.401 219.947 104.147 225.351 94.6841C231.134 84.5596 238.959 74.9447 242.072 63.5434C242.207 63.0483 241.509 62.8905 241.324 63.3375Z" fill="white"/>
<path d="M241.807 63.1328C241.887 63.1531 241.956 63.199 241.998 63.2646C242.039 63.3296 242.057 63.4187 242.026 63.5312C240.472 69.2256 237.74 74.4753 234.673 79.5684C233.139 82.1149 231.521 84.6214 229.926 87.125C228.33 89.6283 226.757 92.129 225.311 94.6611C219.903 104.129 216.653 114.388 214.484 125.036C212.313 135.697 211.328 146.593 211.414 157.469C211.501 168.405 212.695 179.329 214.995 190.022C217.223 200.377 220.776 210.243 224.883 219.982C224.903 220.031 224.899 220.071 224.881 220.104C224.862 220.137 224.827 220.166 224.784 220.184C224.695 220.219 224.593 220.201 224.547 220.118C218.715 209.758 215.271 197.938 212.985 186.318C208.819 165.144 209.131 142.828 213.865 121.776C215.037 116.565 216.463 111.375 218.299 106.356C220.122 101.373 222.598 96.6602 225.294 92.0967C230.902 82.6051 237.124 73.5976 241.368 63.3555C241.45 63.1569 241.645 63.0922 241.807 63.1328Z" stroke="white" stroke-opacity="0.8" stroke-width="0.0944248"/>
<path d="M245.438 67.1463C240.663 74.4167 237.417 82.9539 234.437 91.0871C231.277 99.7115 228.716 108.561 226.854 117.557C223.235 135.041 222.23 153.12 225.191 170.781C226.783 180.281 229.344 190.4 234.243 198.785C234.399 199.054 234.871 198.877 234.76 198.567C233.288 194.466 231.626 190.46 230.329 186.293C229.035 182.136 227.978 177.896 227.154 173.622C225.466 164.874 224.808 155.944 224.97 147.041C225.3 129.063 228.753 111.261 234.553 94.2634C236.191 89.4625 238.014 84.7242 240.023 80.0662C241.872 75.7796 243.986 71.5987 245.726 67.2667C245.794 67.0951 245.531 67.0053 245.438 67.1463Z" fill="white"/>
<path d="M245.625 67.1333C245.651 67.1433 245.672 67.1598 245.682 67.1782C245.691 67.1953 245.694 67.2188 245.682 67.2495C243.942 71.582 241.831 75.7561 239.979 80.0474C237.97 84.7065 236.146 89.4465 234.508 94.2485C228.707 111.251 225.252 129.058 224.923 147.041C224.76 155.946 225.419 164.88 227.107 173.631C227.932 177.907 228.99 182.149 230.284 186.307C231.582 190.475 233.245 194.486 234.715 198.583C234.738 198.648 234.73 198.703 234.706 198.747C234.681 198.791 234.637 198.828 234.584 198.849C234.475 198.892 234.346 198.87 234.283 198.761C229.389 190.384 226.83 180.271 225.237 170.773C222.278 153.119 223.282 135.045 226.9 117.566C228.762 108.573 231.322 99.7252 234.481 91.103C237.461 82.9695 240.706 74.4375 245.478 67.1724C245.508 67.1256 245.571 67.1127 245.625 67.1333Z" stroke="white" stroke-opacity="0.8" stroke-width="0.0944248"/>
<path d="M168.945 243.849C168.437 242.563 167.256 241.624 166.644 240.355C166.037 239.093 165.816 237.695 165.889 236.302C166.053 233.186 167.647 230.212 169.535 227.8C173.641 222.553 180.483 218.24 187.363 218.85C191.797 219.242 194.297 222.057 197.265 224.995C197.658 225.384 198.455 224.995 198.245 224.424C196.892 220.749 193.149 218.108 189.428 217.258C185.696 216.405 181.838 217.177 178.394 218.719C171.923 221.615 165.3 227.96 164.411 235.318C164.204 237.031 164.373 238.775 165.029 240.379C165.632 241.854 166.878 243.923 168.584 244.21C168.778 244.243 169.036 244.079 168.945 243.849Z" fill="white"/>
<path d="M178.413 218.762C181.852 217.223 185.698 216.454 189.417 217.303C193.126 218.151 196.854 220.784 198.2 224.44C198.295 224.698 198.165 224.916 197.958 225.028C197.749 225.14 197.476 225.137 197.298 224.961C194.334 222.028 191.821 219.197 187.367 218.802C180.466 218.191 173.61 222.517 169.498 227.771C167.608 230.187 166.007 233.17 165.842 236.299C165.768 237.698 165.99 239.105 166.602 240.375C166.91 241.016 167.362 241.572 167.796 242.125C168.231 242.679 168.65 243.231 168.901 243.867C168.938 243.959 168.906 244.037 168.841 244.092C168.774 244.149 168.674 244.177 168.592 244.164C167.755 244.022 167.026 243.444 166.43 242.71C165.833 241.978 165.372 241.095 165.072 240.361C164.42 238.766 164.252 237.03 164.458 235.324C165.344 227.988 171.95 221.655 178.413 218.762Z" stroke="white" stroke-opacity="0.8" stroke-width="0.0944248"/>
<path d="M191.877 234.386C192.401 233.514 192.494 232.46 192.967 231.552C193.417 230.691 194.061 229.971 194.857 229.416C196.547 228.237 198.715 227.908 200.734 227.948C202.987 227.992 205.253 228.53 207.311 229.445C209.328 230.341 210.96 231.771 212.866 232.815C213.272 233.038 213.896 232.66 213.712 232.164C212.837 229.804 210.18 228.293 207.993 227.374C205.46 226.308 202.653 225.713 199.897 225.842C197.521 225.953 195.043 226.635 193.258 228.282C191.773 229.652 190.351 232.382 191.244 234.386C191.36 234.648 191.748 234.602 191.877 234.386Z" fill="white"/>
<path d="M199.899 225.889C202.647 225.761 205.447 226.355 207.975 227.417C209.066 227.877 210.274 228.482 211.316 229.266C212.359 230.051 213.235 231.012 213.668 232.181C213.75 232.404 213.654 232.601 213.483 232.72C213.311 232.841 213.073 232.875 212.889 232.774C211.938 232.253 211.056 231.635 210.156 231.035C209.258 230.435 208.342 229.852 207.33 229.402C205.267 228.485 202.995 227.945 200.735 227.901C198.712 227.861 196.532 228.191 194.83 229.377C194.028 229.937 193.378 230.662 192.926 231.53C192.686 231.989 192.543 232.485 192.396 232.969C192.248 233.455 192.095 233.931 191.837 234.362C191.782 234.454 191.668 234.513 191.554 234.518C191.441 234.523 191.335 234.476 191.287 234.368V234.367C190.848 233.381 190.976 232.212 191.403 231.114C191.83 230.016 192.553 228.997 193.29 228.317C195.064 226.68 197.53 226 199.899 225.889Z" stroke="white" stroke-opacity="0.8" stroke-width="0.0944248"/>
<path d="M204.8 227.611C204.408 224.504 205.32 221.738 207.913 219.865C210.456 218.027 213.337 217.807 216.346 217.52C216.89 217.468 216.968 216.795 216.471 216.594C210.145 214.032 200.786 221.078 203.805 227.881C204.014 228.352 204.866 228.129 204.8 227.611Z" fill="white"/>
<path d="M206.664 218.762C209.408 216.478 213.311 215.366 216.453 216.638C216.682 216.73 216.775 216.929 216.752 217.107C216.729 217.285 216.591 217.449 216.342 217.473C213.335 217.759 210.441 217.98 207.885 219.826C205.275 221.711 204.359 224.496 204.753 227.617C204.781 227.844 204.611 228.013 204.394 228.071C204.175 228.13 203.939 228.068 203.848 227.862C202.35 224.487 203.92 221.046 206.664 218.762Z" stroke="white" stroke-opacity="0.8" stroke-width="0.0944248"/>
<path d="M220.372 229.389C221.168 227.327 221.607 225.723 223.923 224.93C226.055 224.2 228.462 224.443 230.57 225.127C232.897 225.882 235.098 227.331 236.481 229.376C237.197 230.434 237.685 231.634 237.887 232.897C238.11 234.293 237.705 235.762 238.12 237.111C238.269 237.595 238.977 237.881 239.346 237.434C240.954 235.486 240.18 232.034 239.225 229.931C238.245 227.771 236.542 226.01 234.537 224.768C231.006 222.582 225.721 221.546 221.998 223.878C220.243 224.978 218.667 227.239 219.22 229.389C219.379 230.005 220.173 229.905 220.372 229.389Z" fill="white"/>
<path d="M222.023 223.918C223.874 222.759 226.114 222.435 228.335 222.675C230.555 222.915 232.752 223.719 234.512 224.808C236.511 226.046 238.207 227.8 239.183 229.951C239.658 230.998 240.088 232.382 240.199 233.745C240.311 235.108 240.103 236.444 239.31 237.405C239.14 237.61 238.892 237.648 238.665 237.577C238.436 237.504 238.234 237.322 238.165 237.097C237.96 236.431 237.957 235.733 237.979 235.023C238 234.315 238.046 233.593 237.934 232.889C237.731 231.619 237.24 230.413 236.521 229.35C235.13 227.295 232.919 225.84 230.584 225.083C228.471 224.397 226.053 224.151 223.908 224.885C222.74 225.285 222.043 225.891 221.538 226.658C221.036 227.421 220.725 228.345 220.328 229.373C220.236 229.612 220.005 229.755 219.778 229.766C219.666 229.772 219.556 229.745 219.466 229.682C219.376 229.62 219.303 229.521 219.266 229.377C218.993 228.318 219.245 227.227 219.785 226.263C220.325 225.299 221.152 224.464 222.023 223.918Z" stroke="white" stroke-opacity="0.8" stroke-width="0.0944248"/>
<path d="M290.979 237.789C290.534 237.256 290.48 236.652 289.849 236.162C289.245 235.693 288.489 235.39 287.783 235.106C286.173 234.459 284.456 234.117 282.726 234.012C279.086 233.792 275.395 234.688 272.148 236.315C269.044 237.872 266.196 240.215 264.383 243.205C262.92 245.617 261.215 250.268 263.337 252.675C263.592 252.964 264.009 252.772 264.125 252.467C264.667 251.039 264.339 249.475 264.62 247.952C264.888 246.497 265.428 245.126 266.195 243.863C267.836 241.157 270.371 239.114 273.184 237.722C276.013 236.322 279.207 235.573 282.366 235.671C283.952 235.72 285.531 236.001 287.021 236.553C287.731 236.816 288.373 237.205 289.065 237.502C289.612 237.736 290.378 237.693 290.865 237.937C290.963 237.986 291.048 237.871 290.979 237.789Z" fill="white"/>
<path d="M272.17 236.357C275.41 234.734 279.092 233.84 282.724 234.06C284.449 234.164 286.161 234.506 287.766 235.15C288.473 235.434 289.223 235.735 289.82 236.199C290.128 236.439 290.296 236.705 290.442 236.981C290.588 237.257 290.716 237.548 290.942 237.819C290.962 237.843 290.96 237.868 290.947 237.884C290.935 237.899 290.913 237.908 290.886 237.895C290.635 237.769 290.314 237.718 289.995 237.669C289.673 237.62 289.351 237.572 289.084 237.458C288.739 237.31 288.408 237.14 288.071 236.973C287.735 236.805 287.395 236.641 287.037 236.509C285.542 235.955 283.958 235.673 282.367 235.624C279.2 235.526 275.998 236.277 273.163 237.68C270.344 239.075 267.801 241.124 266.154 243.839C265.385 245.106 264.843 246.483 264.574 247.943C264.433 248.71 264.444 249.487 264.423 250.244C264.402 251.003 264.348 251.744 264.08 252.45C264.027 252.589 263.905 252.703 263.768 252.749C263.633 252.794 263.485 252.772 263.372 252.644C262.326 251.457 262.22 249.711 262.562 247.951C262.905 246.193 263.694 244.432 264.423 243.229C266.231 240.248 269.071 237.911 272.17 236.357Z" stroke="white" stroke-opacity="0.8" stroke-width="0.0944248"/>
<path d="M267.285 242.02C266.125 236.357 260.168 234.074 255.055 235.852C249.428 237.807 244.748 242.693 241.938 247.829C240.704 250.084 238.59 254.186 239.992 256.763C240.165 257.08 240.628 257.057 240.806 256.763C241.54 255.548 241.671 253.924 242.097 252.579C242.58 251.052 243.271 249.599 244.083 248.219C245.859 245.197 248.25 242.453 251.071 240.364C253.386 238.649 256.225 237.155 259.185 237.265C262.588 237.391 264.27 240.029 266.079 242.529C266.513 243.129 267.44 242.78 267.285 242.02Z" fill="white"/>
<path d="M255.07 235.896C260.164 234.126 266.085 236.403 267.238 242.03C267.311 242.386 267.131 242.641 266.885 242.74C266.668 242.827 266.399 242.795 266.198 242.597L266.117 242.501C264.313 240.008 262.618 237.345 259.187 237.218C256.21 237.107 253.361 238.609 251.043 240.325C248.216 242.419 245.821 245.169 244.042 248.195C243.229 249.577 242.536 251.034 242.052 252.565C241.839 253.24 241.698 253.987 241.521 254.709C241.344 255.434 241.128 256.137 240.766 256.738C240.686 256.87 240.542 256.943 240.396 256.945C240.252 256.948 240.111 256.881 240.034 256.74C239.343 255.47 239.515 253.816 240.021 252.189C240.527 250.565 241.363 248.979 241.979 247.852C244.785 242.722 249.457 237.847 255.07 235.896Z" stroke="white" stroke-opacity="0.8" stroke-width="0.0944248"/>
<path d="M230.012 241.28C233.159 239.216 235.987 237.568 239.906 237.712C241.717 237.779 243.519 238.264 245.065 239.223C246.296 239.986 247.243 241.794 248.713 241.978C248.936 242.006 249.149 241.799 249.208 241.602C249.721 239.879 247.323 238.258 246.07 237.502C244.278 236.42 242.188 235.883 240.106 235.8C236.371 235.652 231.316 237.172 229.395 240.665C229.189 241.041 229.62 241.537 230.012 241.28Z" fill="white"/>
<path d="M240.104 235.847C242.18 235.93 244.262 236.466 246.046 237.542C246.672 237.92 247.58 238.512 248.268 239.222C248.957 239.935 249.411 240.753 249.162 241.588C249.136 241.677 249.074 241.771 248.992 241.838C248.91 241.906 248.814 241.943 248.719 241.931C248.001 241.841 247.407 241.355 246.833 240.785C246.69 240.642 246.548 240.496 246.406 240.349C246.265 240.203 246.123 240.056 245.98 239.916C245.695 239.635 245.402 239.376 245.09 239.182C243.537 238.219 241.725 237.731 239.907 237.665C235.973 237.52 233.134 239.176 229.986 241.241C229.813 241.354 229.632 241.303 229.514 241.177C229.394 241.05 229.345 240.853 229.437 240.687C230.39 238.954 232.123 237.706 234.088 236.911C236.052 236.115 238.243 235.773 240.104 235.847Z" stroke="white" stroke-opacity="0.8" stroke-width="0.0944248"/>
<path d="M257.6 257.672C259.148 255.879 261.431 254.047 263.75 253.452C266.534 252.737 268.728 253.844 270.497 255.97C271.267 256.896 272.86 255.676 272.174 254.675C270.269 251.896 267.084 250.609 263.786 251.343C262.301 251.673 260.909 252.395 259.708 253.318C258.266 254.428 257.572 255.66 256.987 257.315C256.867 257.655 257.364 257.945 257.6 257.672Z" fill="white"/>
<path d="M263.797 251.389C267.075 250.659 270.241 251.938 272.136 254.702C272.459 255.174 272.249 255.703 271.853 256.008C271.655 256.16 271.415 256.252 271.18 256.252C270.946 256.252 270.716 256.16 270.533 255.939C269.646 254.872 268.648 254.058 267.521 253.602C266.394 253.145 265.139 253.047 263.738 253.406C261.406 254.005 259.115 255.845 257.564 257.641C257.466 257.755 257.309 257.756 257.184 257.683C257.058 257.609 256.982 257.473 257.032 257.331C257.615 255.681 258.304 254.458 259.737 253.355C260.933 252.436 262.319 251.717 263.797 251.389Z" stroke="white" stroke-opacity="0.8" stroke-width="0.0944248"/>
<path d="M301.252 236.048C298.702 232.596 293.95 234.764 291.343 236.986C289.053 238.936 284.966 244.608 288.221 247.394C288.704 247.808 289.562 247.561 289.544 246.847C289.505 245.354 289.177 244.108 289.716 242.641C290.257 241.166 291.248 239.862 292.378 238.786C294.531 236.734 297.732 235.215 300.607 236.693C300.987 236.888 301.555 236.458 301.252 236.048Z" fill="white"/>
<path d="M296.329 234.435C298.15 234.049 299.953 234.37 301.214 236.077C301.282 236.169 301.3 236.26 301.286 236.341C301.272 236.423 301.224 236.5 301.154 236.562C301.014 236.687 300.797 236.737 300.629 236.651C297.726 235.159 294.503 236.696 292.346 238.751C291.213 239.831 290.215 241.14 289.671 242.625C289.399 243.365 289.347 244.051 289.366 244.736C289.376 245.078 289.404 245.421 289.432 245.77C289.459 246.12 289.486 246.477 289.496 246.848C289.505 247.182 289.31 247.406 289.054 247.5C288.796 247.593 288.478 247.554 288.251 247.359C286.649 245.987 286.847 243.901 287.746 241.896C288.644 239.893 290.233 237.993 291.373 237.022C292.673 235.914 294.506 234.821 296.329 234.435Z" stroke="white" stroke-opacity="0.8" stroke-width="0.0944248"/>
<path d="M180.908 246.858C178.619 241.496 171.523 240.81 166.595 242.048C160.662 243.538 155.107 247.514 151.78 252.646C150.903 253.999 150.171 255.479 149.7 257.025C149.331 258.234 148.855 260.245 149.553 261.394C149.758 261.732 150.232 261.72 150.439 261.394C151.173 260.24 151.197 258.348 151.659 257.025C152.223 255.41 153.097 253.895 154.117 252.526C156.216 249.708 159.034 247.412 162.125 245.761C165.029 244.209 168.341 243.168 171.662 243.318C175.187 243.478 177.493 245.266 179.938 247.608C180.477 248.125 181.171 247.475 180.908 246.858Z" fill="white"/>
<path d="M166.606 242.093C169.064 241.476 172.062 241.339 174.729 242.024C177.396 242.709 179.727 244.214 180.864 246.877C180.987 247.165 180.886 247.459 180.693 247.622C180.597 247.703 180.479 247.751 180.354 247.749C180.231 247.747 180.098 247.695 179.971 247.574C177.524 245.23 175.207 243.432 171.664 243.271C168.332 243.12 165.011 244.165 162.103 245.719C159.007 247.373 156.183 249.673 154.079 252.498C153.057 253.87 152.18 255.389 151.614 257.01C151.382 257.676 151.259 258.485 151.104 259.264C150.949 260.047 150.761 260.8 150.399 261.369C150.21 261.667 149.779 261.675 149.594 261.37C149.253 260.808 149.196 260.031 149.273 259.237C149.351 258.444 149.561 257.642 149.745 257.039C150.215 255.498 150.944 254.022 151.819 252.671C155.14 247.55 160.685 243.58 166.606 242.093Z" stroke="white" stroke-opacity="0.8" stroke-width="0.0944248"/>
<path d="M185.591 262.26C186.926 257.448 190.337 252.906 194.527 250.217C196.436 248.992 198.828 247.926 201.15 248.339C202.334 248.55 203.382 249.156 204.228 250.001C205.221 250.992 205.704 252.32 206.964 253.005C207.203 253.135 207.589 253.035 207.641 252.73C208.128 249.915 204.72 247.204 202.266 246.52C199.587 245.772 196.773 246.64 194.465 248.035C191.8 249.645 189.558 251.946 187.781 254.485C186.205 256.736 184.807 259.357 184.975 262.177C184.994 262.521 185.493 262.614 185.591 262.26Z" fill="white"/>
<path d="M194.489 248.076C196.792 246.684 199.591 245.822 202.253 246.565C203.472 246.905 204.931 247.749 206.023 248.859C207.117 249.969 207.834 251.337 207.595 252.722C207.572 252.854 207.477 252.943 207.356 252.986C207.235 253.029 207.093 253.021 206.987 252.963C206.366 252.626 205.934 252.129 205.533 251.589C205.134 251.052 204.761 250.466 204.262 249.967C203.41 249.117 202.353 248.505 201.158 248.292C198.818 247.876 196.412 248.95 194.501 250.177C190.433 252.788 187.098 257.142 185.677 261.796L185.546 262.248C185.504 262.398 185.38 262.453 185.261 262.434C185.14 262.415 185.03 262.321 185.021 262.174C184.855 259.371 186.245 256.762 187.819 254.512C189.593 251.977 191.832 249.681 194.489 248.076Z" stroke="white" stroke-opacity="0.8" stroke-width="0.0944248"/>
<path d="M201.73 255.843C203.751 254.471 205.712 253.283 208.263 253.466C209.534 253.557 210.79 253.961 211.892 254.597C212.729 255.08 213.295 255.712 214.322 255.498C214.533 255.455 214.631 255.255 214.653 255.064C214.969 252.421 209.694 251.472 207.835 251.497C205.142 251.534 202.171 252.741 201.207 255.441C201.104 255.727 201.479 256.013 201.73 255.843Z" fill="white"/>
<path d="M207.835 251.544C208.759 251.532 210.537 251.762 212.043 252.325C212.796 252.606 213.477 252.969 213.949 253.422C214.421 253.875 214.683 254.417 214.606 255.059C214.585 255.242 214.493 255.415 214.312 255.453C213.812 255.557 213.425 255.455 213.058 255.267C212.873 255.173 212.694 255.056 212.507 254.932C212.321 254.809 212.127 254.678 211.916 254.556C210.809 253.917 209.545 253.511 208.267 253.419C205.698 253.235 203.725 254.431 201.703 255.803C201.599 255.874 201.465 255.853 201.364 255.776C201.263 255.699 201.209 255.575 201.251 255.457C202.206 252.784 205.152 251.581 207.835 251.544Z" stroke="white" stroke-opacity="0.8" stroke-width="0.0944248"/>
<path d="M210.253 252.845C210.8 251.489 211.136 250.167 212.108 249.024C213.106 247.852 214.47 246.995 215.903 246.457C217.385 245.9 218.991 245.66 220.571 245.779C222.09 245.893 223.525 246.622 225.027 246.684C225.362 246.699 225.621 246.277 225.425 245.991C223.342 242.951 217.696 243.762 214.834 244.969C212.032 246.15 208.152 249.348 209.263 252.845C209.427 253.359 210.069 253.302 210.253 252.845Z" fill="white"/>
<path d="M220.421 243.934C222.445 243.96 224.357 244.516 225.386 246.017C225.471 246.141 225.459 246.299 225.384 246.426C225.308 246.554 225.175 246.643 225.028 246.637C224.284 246.606 223.554 246.41 222.817 246.206C222.082 246.002 221.339 245.789 220.574 245.732C218.988 245.613 217.375 245.853 215.887 246.413C214.448 246.953 213.076 247.814 212.072 248.994C211.094 250.144 210.753 251.479 210.21 252.828C210.125 253.038 209.935 253.155 209.749 253.162C209.566 253.168 209.384 253.067 209.309 252.831C208.76 251.104 209.441 249.447 210.617 248.069C211.793 246.691 213.457 245.6 214.853 245.012C216.278 244.411 218.399 243.908 220.421 243.934Z" stroke="white" stroke-opacity="0.8" stroke-width="0.0944248"/>
<path d="M296.706 244.854C299.148 243.227 301.435 241.353 304.562 241.664C307.19 241.926 309.432 243.541 311.095 245.512C313.021 247.795 314.196 250.594 314.811 253.497C315.511 256.801 314.877 259.743 314.33 262.992C314.245 263.496 314.83 263.734 315.134 263.331C317.258 260.52 317.273 256.295 316.685 252.98C316.084 249.596 314.421 246.277 312.09 243.753C310.081 241.577 307.283 239.836 304.245 239.796C301.001 239.752 297.792 241.616 296.304 244.452C296.177 244.696 296.448 245.026 296.706 244.854Z" fill="white"/>
<path d="M304.244 239.843C307.265 239.883 310.052 241.615 312.056 243.785C314.38 246.303 316.039 249.613 316.639 252.988C317.226 256.299 317.207 260.508 315.096 263.303C314.957 263.487 314.758 263.522 314.604 263.458C314.452 263.395 314.338 263.231 314.377 263C314.923 259.754 315.56 256.802 314.857 253.487C314.241 250.579 313.063 247.771 311.131 245.481C309.463 243.505 307.211 241.88 304.566 241.617C301.419 241.304 299.116 243.192 296.68 244.814C296.625 244.851 296.572 244.86 296.524 244.852C296.476 244.843 296.431 244.817 296.395 244.777C296.321 244.698 296.293 244.575 296.346 244.474C297.825 241.654 301.018 239.799 304.244 239.843Z" stroke="white" stroke-opacity="0.8" stroke-width="0.0944248"/>
<path d="M262.546 15.585L244.788 40.0042L231.072 30.3371C231.072 30.3371 233.532 26.952 234.177 26.0616C234.825 25.1709 235.528 24.9247 236.565 25.0118C250.413 26.1804 262.546 15.585 262.546 15.585Z" fill="#1C1C1B" stroke="white" stroke-opacity="0.8" stroke-width="0.41817" stroke-miterlimit="10" stroke-linecap="round" stroke-linejoin="round"/>
<path d="M231.039 32.8475L242.306 43.4153L244.788 40.004L231.072 30.3369L230.69 30.8603C230.041 31.7493 231.039 32.8475 231.039 32.8475Z" fill="#1C1C1B" stroke="white" stroke-opacity="0.8" stroke-width="0.41817" stroke-miterlimit="10" stroke-linecap="round" stroke-linejoin="round"/>
<path d="M285.332 32.1533L267.576 56.5732L281 66.6429C281 66.6429 283.462 63.2604 284.108 62.3697C284.756 61.479 284.776 60.7363 284.375 59.7787C278.994 46.962 285.332 32.1533 285.332 32.1533Z" fill="#1C1C1B" stroke="white" stroke-opacity="0.8" stroke-width="0.41817" stroke-miterlimit="10" stroke-linecap="round" stroke-linejoin="round"/>
<path d="M278.622 67.4486L265.098 59.9881L267.577 56.5757L281 66.6454L280.621 67.1711C279.973 68.0598 278.622 67.4486 278.622 67.4486Z" fill="#1C1C1B" stroke="white" stroke-opacity="0.8" stroke-width="0.41817" stroke-miterlimit="10" stroke-linecap="round" stroke-linejoin="round"/>
<path d="M290.232 19.6877C290.232 19.6877 291.349 9.68463 286.709 6.31059C282.071 2.93587 272.897 7.08085 272.897 7.08085C266.898 10.6668 265.377 11.6214 259.342 19.9242C253.304 28.2259 240.943 45.224 240.943 45.224L263.797 61.8429C263.797 61.8429 275.507 45.7376 282.193 36.5401C288.882 27.346 289.525 25.1976 290.232 19.6877Z" fill="#1C1C1B" stroke="white" stroke-opacity="0.8" stroke-width="0.41817" stroke-miterlimit="10" stroke-linecap="round" stroke-linejoin="round"/>
<path d="M290.234 19.6858C290.823 15.4837 291.991 2.08299 290.658 1.11158C289.298 0.124357 274.986 5.98311 272.898 7.07897C272.898 7.07897 277.696 8.66022 282.474 12.1352C287.25 15.6125 290.234 19.6858 290.234 19.6858Z" fill="#1C1C1B" stroke="white" stroke-opacity="0.8" stroke-width="0.41817" stroke-miterlimit="10" stroke-linecap="round" stroke-linejoin="round"/>
<path d="M279.507 17.3057L275.297 22.8583C275.632 23.1866 275.894 23.5694 276.071 23.9848L283.11 22.8573C282.528 20.7403 281.309 18.7843 279.507 17.3057Z" fill="#1C1C1B" stroke="white" stroke-opacity="0.8" stroke-width="0.41817" stroke-miterlimit="10" stroke-linecap="round" stroke-linejoin="round"/>
<path d="M273.17 21.8772C273.621 21.92 274.066 22.0481 274.483 22.2688L278.468 16.5493C276.505 15.2899 274.269 14.7336 272.072 14.8362L273.17 21.8772Z" fill="#1C1C1B" stroke="white" stroke-opacity="0.8" stroke-width="0.41817" stroke-miterlimit="10" stroke-linecap="round" stroke-linejoin="round"/>
<path d="M270.948 22.4142C271.324 22.1757 271.734 22.0105 272.161 21.9261L270.793 14.9678C268.597 15.3287 266.509 16.3509 264.859 17.987L270.948 22.4142Z" fill="#1C1C1B" stroke="white" stroke-opacity="0.8" stroke-width="0.41817" stroke-miterlimit="10" stroke-linecap="round" stroke-linejoin="round"/>
<path d="M282.334 30.6943C283.38 28.6207 283.714 26.3203 283.377 24.1191L276.335 24.9621C276.388 25.3963 276.357 25.8379 276.246 26.2675L282.334 30.6943Z" fill="#1C1C1B" stroke="white" stroke-opacity="0.8" stroke-width="0.41817" stroke-miterlimit="10" stroke-linecap="round" stroke-linejoin="round"/>
<path d="M241.874 54.0674L255.572 64.026C251.607 78.537 231.275 84.7379 231.275 84.7379C227.057 62.7966 241.874 54.0674 241.874 54.0674Z" fill="#1C1C1B" stroke="white" stroke-opacity="0.8" stroke-width="0.41817" stroke-miterlimit="10" stroke-linecap="round" stroke-linejoin="round"/>
<path d="M244.068 55.6626L253.389 62.4403C249.537 73.9708 235.641 78.2005 235.641 78.2005C232.392 66.3613 244.068 55.6626 244.068 55.6626Z" fill="#1C1C1B" stroke="white" stroke-opacity="0.8" stroke-width="0.41817" stroke-miterlimit="10" stroke-linecap="round" stroke-linejoin="round"/>
<path d="M251.924 61.3727L245.53 56.7231C243.326 60.5015 238.876 64.9166 239.762 72.0316C239.762 72.0316 246.817 70.3411 251.924 61.3727Z" fill="#1C1C1B" stroke="white" stroke-opacity="0.8" stroke-width="0.41817" stroke-miterlimit="10" stroke-linecap="round" stroke-linejoin="round"/>
<path d="M257.612 65.5116L239.357 52.2394L241.792 49.8853L259.1 62.4689L257.612 65.5116Z" fill="#1C1C1B" stroke="white" stroke-opacity="0.8" stroke-width="0.41817" stroke-miterlimit="10" stroke-linecap="round" stroke-linejoin="round"/>
<path d="M262.895 61.1863L262.155 62.2034C261.502 63.0992 260.245 63.3 259.349 62.6461L241.549 49.7036C240.651 49.0497 240.453 47.794 241.104 46.8946L241.846 45.8774L262.895 61.1863Z" fill="#1C1C1B" stroke="white" stroke-opacity="0.8" stroke-width="0.41817" stroke-miterlimit="10" stroke-linecap="round" stroke-linejoin="round"/>
<path d="M288.86 3.68157C287.991 5.3886 288.1 7.47809 288.009 9.34254C287.951 10.5457 287.853 11.7448 287.692 12.9386C287.562 13.8986 287.363 14.6224 287.96 15.4394C288.195 15.7603 288.631 15.9574 289.006 15.7136C290.67 14.6325 290.305 11.689 290.326 9.94598C290.351 7.9046 290.436 5.52349 289.421 3.68124C289.308 3.47572 288.971 3.46461 288.86 3.68157Z" fill="white"/>
<path d="M289.139 3.56982C289.237 3.57101 289.332 3.61878 289.379 3.70361C290.387 5.5326 290.304 7.89997 290.279 9.9458C290.269 10.8234 290.354 11.9868 290.235 13.0728C290.116 14.1585 289.794 15.146 288.98 15.6743C288.635 15.8986 288.225 15.7216 287.998 15.4116C287.414 14.6134 287.607 13.9121 287.738 12.9448C287.9 11.7496 287.998 10.5493 288.057 9.34521C288.102 8.4093 288.097 7.42515 288.189 6.45752C288.282 5.49148 288.472 4.54866 288.902 3.70264C288.948 3.61367 289.041 3.56872 289.139 3.56982Z" stroke="white" stroke-opacity="0.8" stroke-width="0.0944248"/>
<path d="M281.604 14.1083C284.06 16.9906 288.202 18.512 287.073 23.0761C286.165 26.7501 283.421 30.4333 281.215 33.4518C276.191 40.324 269.278 45.9991 265.736 53.8532C265.476 54.4287 266.218 54.8747 266.586 54.35C272.145 46.425 279.167 39.5941 284.457 31.4831C286.543 28.2843 289.459 24.5588 288.843 20.4847C288.575 18.7098 287.463 17.4107 286.183 16.221C285.048 15.1652 283.569 13.7366 281.991 13.443C281.594 13.369 281.34 13.7982 281.604 14.1083Z" fill="white"/>
<path d="M281.982 13.4893C282.761 13.6341 283.518 14.06 284.225 14.584C284.931 15.1079 285.583 15.7273 286.151 16.2559C287.429 17.444 288.53 18.734 288.796 20.4922C289.102 22.5155 288.532 24.455 287.621 26.291C286.71 28.1281 285.462 29.8551 284.417 31.457C281.774 35.5099 278.698 39.2438 275.586 42.9561C272.475 46.6677 269.328 50.3587 266.547 54.3232C266.378 54.5638 266.128 54.5797 265.949 54.4736C265.77 54.3672 265.659 54.1371 265.778 53.873C267.547 49.9524 270.158 46.5741 272.956 43.3154C275.753 40.0584 278.74 36.9176 281.253 33.4795C283.458 30.4636 286.208 26.7727 287.119 23.0879C287.403 21.9394 287.356 20.9793 287.085 20.1406C286.814 19.3025 286.321 18.5882 285.718 17.9297C285.115 17.2716 284.4 16.6664 283.685 16.0479C282.968 15.4285 282.251 14.7956 281.64 14.0781C281.521 13.9385 281.521 13.7749 281.591 13.6553C281.661 13.5358 281.804 13.4561 281.982 13.4893Z" stroke="white" stroke-opacity="0.8" stroke-width="0.0944248"/>
<path d="M256.176 22.1127C254.622 22.3619 253.156 23.3249 251.709 23.9149C250.084 24.5782 248.427 25.1537 246.728 25.5994C244.975 26.0592 243.187 26.3932 241.384 26.5826C239.972 26.7309 238.354 26.481 237.072 27.1308C236.852 27.2425 236.855 27.5974 237.072 27.7097C238.488 28.4427 240.444 27.9906 241.972 27.8039C243.69 27.594 245.393 27.2698 247.067 26.8254C248.719 26.3868 250.353 25.8446 251.922 25.1628C253.452 24.4971 255.307 23.776 256.36 22.4275C256.478 22.2761 256.37 22.0817 256.176 22.1127Z" fill="white"/>
<path d="M256.184 22.1592C256.262 22.1466 256.318 22.1801 256.344 22.2256C256.363 22.26 256.368 22.3051 256.35 22.3516L256.322 22.3984C255.801 23.0655 255.081 23.5792 254.297 24.0098C253.513 24.4404 252.669 24.7858 251.902 25.1191C250.337 25.7998 248.705 26.3422 247.055 26.7803C245.384 27.224 243.683 27.5472 241.967 27.7568C241.199 27.8507 240.333 28.0101 239.478 28.0547C238.624 28.0993 237.791 28.0287 237.094 27.668C237.004 27.6216 236.955 27.5232 236.955 27.4199C236.955 27.3167 237.003 27.2188 237.094 27.1729C237.725 26.8526 238.442 26.753 239.182 26.7158C239.551 26.6972 239.925 26.6941 240.296 26.6865C240.666 26.6789 241.034 26.6672 241.389 26.6299C243.195 26.4403 244.984 26.1058 246.74 25.6455C248.442 25.1992 250.1 24.6229 251.728 23.959C252.452 23.6636 253.184 23.2727 253.922 22.9287C254.662 22.5835 255.413 22.2827 256.184 22.1592Z" stroke="white" stroke-opacity="0.8" stroke-width="0.0944248"/>
<path d="M280.768 41.5698C278.867 44.2156 276.87 46.7212 274.84 49.2772C273.033 51.5513 271.244 53.9435 270.551 56.8147C270.469 57.1531 270.599 57.6102 270.94 57.7713C272.808 58.6526 274.534 59.7905 276.224 60.9694C277.091 61.5739 277.959 62.177 278.822 62.7878C279.487 63.2584 279.98 63.7828 280.829 63.7216C281.254 63.6909 281.561 63.332 281.455 62.8995C281.095 61.4279 278.588 60.2574 277.408 59.4824C275.61 58.3021 273.76 57.1894 271.795 56.3085C271.925 56.6273 272.055 56.9462 272.184 57.2651C272.888 54.0814 275.08 51.5927 277.009 49.0693C278.642 46.9321 280.765 44.3955 281.002 41.633C281.014 41.4968 280.833 41.4793 280.768 41.5698Z" fill="white"/>
<path d="M280.943 41.583C280.947 41.5874 280.951 41.5932 280.953 41.6006L280.955 41.6289C280.837 42.9997 280.251 44.3169 279.488 45.5605C278.725 46.8045 277.788 47.9711 276.971 49.041C275.199 51.3599 273.192 53.6619 272.334 56.5068C272.161 56.4252 271.989 56.3438 271.814 56.2656L271.707 56.2168L271.752 56.3262C271.882 56.645 272.011 56.9644 272.141 57.2832L272.198 57.4238L272.23 57.2754C272.278 57.06 272.333 56.8479 272.394 56.6387C274.127 57.4673 275.775 58.4665 277.382 59.5215C277.678 59.716 278.058 59.9356 278.464 60.1768C278.87 60.4183 279.304 60.6831 279.712 60.9688C280.12 61.2544 280.501 61.5605 280.802 61.8857C281.103 62.2113 281.322 62.5539 281.409 62.9111C281.507 63.3115 281.225 63.646 280.825 63.6748C280.413 63.7046 280.087 63.5919 279.78 63.4131C279.627 63.3235 279.478 63.2175 279.325 63.1035C279.173 62.9899 279.016 62.8671 278.85 62.749C277.987 62.1381 277.118 61.535 276.251 60.9307C274.56 59.7515 272.831 58.6115 270.96 57.7285C270.803 57.6545 270.693 57.5109 270.631 57.3428C270.569 57.1747 270.558 56.9856 270.597 56.8262C271.287 53.9663 273.07 51.5812 274.877 49.3066C276.907 46.7509 278.905 44.2445 280.807 41.5977C280.826 41.5701 280.868 41.5553 280.905 41.5625C280.923 41.5659 280.935 41.5737 280.943 41.583ZM272.307 56.5986C272.258 56.7669 272.213 56.9372 272.172 57.1094C272.076 56.8734 271.98 56.6374 271.884 56.4014C272.025 56.4656 272.166 56.532 272.307 56.5986Z" stroke="white" stroke-opacity="0.8" stroke-width="0.0944248"/>
<path d="M83.8382 172.11L87.4147 176.241L92.8446 175.638L90.0185 180.315L92.2718 185.294L86.9498 184.052L82.9101 187.733L82.4449 182.287L77.6992 179.586L82.7322 177.46L83.8382 172.11Z" fill="white"/>
<path d="M87.3789 176.272L87.3955 176.292L87.4199 176.289L92.7539 175.695L89.9785 180.291L89.9648 180.312L89.9756 180.334L92.1885 185.225L86.9609 184.006L86.9365 184L86.918 184.017L82.9482 187.633L82.4922 182.283L82.4902 182.258L82.4688 182.247L77.8057 179.591L82.751 177.503L82.7734 177.495L82.7783 177.47L83.8652 172.213L87.3789 176.272Z" stroke="white" stroke-opacity="0.8" stroke-width="0.0944248"/>
<path d="M177.53 133.703L177.993 136.892L180.884 138.318L177.996 139.745L177.536 142.935L175.283 140.627L172.107 141.174L173.604 138.321L172.104 135.47L175.28 136.011L177.53 133.703Z" fill="white"/>
<path d="M177.946 136.899L177.95 136.923L177.972 136.934L180.776 138.317L177.976 139.703L177.953 139.713L177.949 139.739L177.502 142.833L175.317 140.594L175.3 140.577L175.275 140.581L172.192 141.111L173.646 138.343L173.657 138.321L173.646 138.299L172.189 135.532L175.271 136.058L175.296 136.062L175.313 136.044L177.497 133.803L177.946 136.899Z" stroke="white" stroke-opacity="0.8" stroke-width="0.0944248"/>
<path d="M225.18 149.954L225.643 153.143L228.534 154.568L225.643 155.995L225.183 159.186L222.934 156.877L219.757 157.425L221.255 154.571L219.754 151.721L222.93 152.263L225.18 149.954Z" fill="white"/>
<path d="M225.597 153.15L225.601 153.174L225.622 153.185L228.428 154.568L225.622 155.953L225.6 155.964L225.597 155.989L225.149 159.085L222.968 156.844L222.95 156.827L222.926 156.831L219.843 157.362L221.297 154.593L221.309 154.571L221.297 154.549L219.84 151.783L222.922 152.31L222.946 152.314L222.964 152.296L225.147 150.054L225.597 153.15Z" stroke="white" stroke-opacity="0.8" stroke-width="0.0944248"/>
<path d="M123.498 239.589C123.169 239.719 122.84 239.848 122.512 239.978C122.208 240.098 121.903 240.25 121.589 240.34C121.758 240.317 121.928 240.294 122.097 240.271C121.773 240.308 121.397 240.31 121.093 240.405C120.928 240.456 120.765 240.531 120.604 240.596C120.207 240.757 119.809 240.918 119.425 241.107C119.802 241.005 120.178 240.903 120.555 240.801C119.658 240.794 118.821 241.25 118.364 242.025C117.714 243.13 118.082 244.603 119.194 245.252C120.062 245.759 121.019 245.558 121.908 245.254C122.904 244.914 123.523 244.116 123.576 243.064C123.576 243.057 123.577 243.05 123.577 243.043C123.213 243.678 122.85 244.312 122.486 244.946C122.725 244.785 122.965 244.621 123.197 244.45C123.548 244.193 123.817 243.935 123.99 243.524C124.153 243.138 124.22 242.671 124.088 242.262C123.823 241.445 123.099 240.843 122.219 240.839C121.937 240.838 121.655 240.843 121.373 240.84C122.008 241.204 122.642 241.567 123.276 241.931C123.273 241.927 123.269 241.922 123.266 241.917C122.961 241.508 122.663 241.192 122.179 240.988C121.702 240.786 121.211 240.749 120.7 240.873C120.464 240.931 120.228 240.988 119.988 241.023C120.193 240.996 120.397 240.968 120.601 240.941C120.537 240.949 120.472 240.957 120.407 240.952C120.612 240.98 120.817 241.007 121.021 241.035C121.008 241.033 120.997 241.031 120.985 241.026C121.169 241.104 121.353 241.182 121.537 241.26C121.535 241.258 121.532 241.257 121.529 241.255C121.685 241.376 121.841 241.496 121.998 241.617C121.996 241.615 121.994 241.614 121.991 241.612C122.112 241.768 122.233 241.924 122.353 242.081C122.352 242.079 122.351 242.077 122.349 242.075C122.427 242.259 122.505 242.444 122.583 242.628C122.582 242.626 122.581 242.623 122.581 242.621C122.608 242.827 122.636 243.032 122.664 243.237C122.664 243.235 122.664 243.232 122.664 243.23C122.636 243.435 122.608 243.64 122.581 243.845C122.581 243.843 122.582 243.84 122.582 243.838C122.505 244.022 122.427 244.206 122.349 244.391C122.353 244.381 122.359 244.373 122.366 244.364C122.245 244.52 122.124 244.677 122.004 244.833C122.023 244.811 122.045 244.793 122.068 244.775C121.911 244.896 121.755 245.017 121.598 245.138C122.114 244.755 122.494 244.367 122.687 243.728C122.696 243.696 122.703 243.665 122.714 243.634C122.522 243.963 122.331 244.293 122.138 244.622C122.202 244.566 122.269 244.514 122.336 244.462C122.187 244.577 122.038 244.692 121.889 244.807C122.081 244.661 122.277 244.521 122.474 244.383C122.72 244.211 122.99 244.048 123.192 243.83C123.296 243.719 123.386 243.591 123.504 243.496C123.376 243.595 123.248 243.694 123.12 243.793C123.685 243.436 124.255 243.085 124.824 242.733C125.556 242.281 125.863 241.38 125.528 240.584C125.224 239.866 124.298 239.275 123.498 239.589Z" fill="white"/>
<path d="M119.988 241.023L119.99 241.04L119.995 241.07C120.15 241.05 120.306 241.028 120.461 241.007C120.543 241.018 120.626 241.029 120.708 241.04C120.8 241.052 120.892 241.065 120.984 241.077C121.071 241.113 121.157 241.15 121.243 241.187C121.33 241.223 121.417 241.259 121.504 241.296C121.581 241.355 121.658 241.414 121.734 241.474C121.809 241.531 121.883 241.589 121.958 241.646C122.075 241.797 122.191 241.948 122.308 242.099C122.346 242.189 122.385 242.28 122.423 242.37C122.46 242.459 122.498 242.548 122.535 242.637C122.549 242.736 122.562 242.836 122.575 242.936C122.589 243.035 122.602 243.134 122.615 243.233C122.602 243.333 122.589 243.432 122.575 243.531C122.562 243.629 122.549 243.728 122.536 243.826C122.526 243.85 122.515 243.874 122.505 243.898C122.465 243.967 122.426 244.036 122.386 244.104C122.294 244.262 122.201 244.419 122.109 244.576C122.026 244.64 121.943 244.705 121.86 244.77L121.89 244.808L121.905 244.828C121.801 244.92 121.689 245.011 121.569 245.101L121.626 245.176L121.627 245.175C121.705 245.114 121.784 245.055 121.862 244.994C121.92 244.95 121.977 244.905 122.034 244.86L122.039 244.864C122.056 244.846 122.075 244.83 122.097 244.812L122.087 244.801C122.101 244.782 122.116 244.764 122.13 244.745C122.185 244.689 122.237 244.632 122.286 244.572C122.357 244.521 122.429 244.471 122.501 244.421C122.624 244.335 122.755 244.249 122.883 244.156C122.736 244.411 122.591 244.668 122.444 244.923L122.46 244.938C122.288 245.046 122.099 245.139 121.893 245.21C121.005 245.513 120.067 245.706 119.218 245.211C118.129 244.576 117.768 243.132 118.405 242.05C118.649 241.635 119.004 241.313 119.42 241.107L119.438 241.152C119.62 241.103 119.803 241.053 119.985 241.004L119.988 241.023ZM123.429 243.655C123.314 244.047 123.108 244.387 122.821 244.659C122.757 244.704 122.692 244.747 122.628 244.791C122.776 244.533 122.924 244.276 123.072 244.019C123.076 244.011 123.081 244.003 123.085 243.996C123.134 243.953 123.183 243.91 123.227 243.862C123.279 243.806 123.329 243.744 123.378 243.688L123.379 243.687C123.396 243.676 123.412 243.666 123.429 243.655ZM124.023 243.286C124.001 243.361 123.976 243.434 123.946 243.505C123.777 243.905 123.516 244.157 123.169 244.412C123.165 244.415 123.16 244.418 123.156 244.421C123.337 244.175 123.469 243.894 123.546 243.583C123.705 243.484 123.864 243.385 124.023 243.286ZM121.295 240.85L121.35 240.881C121.667 241.063 121.984 241.245 122.301 241.427C122.618 241.609 122.936 241.791 123.253 241.973L123.314 241.904C123.31 241.899 123.306 241.893 123.303 241.889C122.996 241.477 122.692 241.153 122.197 240.944C122.147 240.923 122.096 240.904 122.046 240.887C122.104 240.887 122.161 240.886 122.219 240.887C123.076 240.891 123.784 241.476 124.043 242.276C124.133 242.555 124.126 242.863 124.059 243.153C123.898 243.253 123.737 243.354 123.576 243.454C123.6 243.329 123.616 243.2 123.623 243.066C123.623 243.063 123.624 243.059 123.624 243.056C123.624 243.052 123.624 243.049 123.624 243.046L123.536 243.02C123.401 243.254 123.266 243.489 123.131 243.724C123.117 243.734 123.104 243.745 123.091 243.756L123.103 243.773C123.071 243.829 123.04 243.884 123.008 243.939C122.84 244.082 122.647 244.204 122.46 244.334C122.571 244.16 122.665 243.967 122.732 243.741C122.737 243.725 122.741 243.707 122.745 243.692C122.749 243.677 122.754 243.663 122.759 243.65L122.674 243.61C122.668 243.621 122.661 243.63 122.655 243.641C122.66 243.608 122.665 243.576 122.669 243.544C122.683 243.442 122.695 243.339 122.709 243.237H122.711V243.229L122.709 243.229C122.695 243.127 122.683 243.025 122.669 242.923C122.655 242.82 122.642 242.718 122.628 242.615L122.619 242.616L122.628 242.613L122.627 242.611C122.627 242.61 122.627 242.608 122.626 242.606H122.624C122.586 242.515 122.548 242.424 122.51 242.333C122.471 242.241 122.431 242.149 122.393 242.057L122.374 242.063L122.391 242.052L122.39 242.051H122.391C122.27 241.895 122.15 241.739 122.029 241.583L122.019 241.59L122.027 241.581C122.026 241.58 122.025 241.579 122.024 241.578L122.021 241.576C121.945 241.517 121.868 241.457 121.792 241.398L121.559 241.218L121.555 241.215H121.554C121.462 241.176 121.371 241.138 121.279 241.1C121.195 241.064 121.111 241.029 121.026 240.993L121.027 240.988C121.017 240.987 121.009 240.985 121.001 240.982L121 240.984C120.907 240.972 120.814 240.959 120.721 240.946C120.694 240.943 120.667 240.939 120.64 240.936C120.663 240.93 120.687 240.925 120.711 240.919C120.909 240.871 121.103 240.848 121.295 240.85ZM123.513 243.25C123.504 243.322 123.492 243.392 123.478 243.461L123.476 243.459H123.475C123.473 243.46 123.471 243.461 123.469 243.463C123.422 243.499 123.374 243.536 123.327 243.572C123.389 243.465 123.451 243.358 123.513 243.25ZM123.515 239.634C123.899 239.483 124.316 239.548 124.677 239.741C125.037 239.935 125.337 240.254 125.484 240.603C125.811 241.375 125.512 242.253 124.799 242.693C124.589 242.823 124.381 242.954 124.171 243.084C124.222 242.807 124.22 242.515 124.133 242.247C123.863 241.413 123.123 240.797 122.22 240.792C122.042 240.791 121.866 240.791 121.689 240.792C121.363 240.733 121.03 240.744 120.688 240.827C120.568 240.857 120.448 240.885 120.328 240.911C120.408 240.89 120.488 240.868 120.567 240.847L120.556 240.754C120.477 240.753 120.398 240.757 120.32 240.764C120.421 240.722 120.521 240.681 120.621 240.64C120.785 240.573 120.944 240.5 121.107 240.449C121.254 240.404 121.419 240.38 121.59 240.363L121.595 240.387C121.679 240.375 121.765 240.364 121.85 240.353C121.934 240.341 122.019 240.33 122.104 240.318L122.098 240.271L122.092 240.225C122.072 240.227 122.051 240.227 122.031 240.229C122.2 240.16 122.367 240.086 122.529 240.021C122.857 239.892 123.186 239.763 123.515 239.634ZM121.677 240.887C121.84 240.917 122.001 240.964 122.161 241.031C122.562 241.201 122.83 241.45 123.087 241.769C122.841 241.627 122.594 241.486 122.348 241.345C122.082 241.192 121.816 241.039 121.55 240.887C121.592 240.887 121.634 240.887 121.677 240.887Z" stroke="white" stroke-opacity="0.8" stroke-width="0.0944248"/>
<path d="M4.20772 211.352C4.14381 211.345 4.0752 211.33 4.01129 211.331C4.12229 211.33 4.30527 211.375 4.08327 211.337C3.97261 211.317 3.86329 211.294 3.75397 211.267C4.09571 211.609 4.43746 211.95 4.7792 212.292C4.62649 211.695 4.28442 211.215 3.70251 210.97C3.57301 210.915 3.4425 210.872 3.31368 210.818C3.45528 210.878 3.59723 210.938 3.73884 210.998C3.68233 210.971 3.63019 210.941 3.58041 210.904C3.70016 210.996 3.81956 211.088 3.9393 211.181C3.91576 211.161 3.89525 211.141 3.87473 211.117C3.96689 211.237 4.05905 211.356 4.15155 211.476C4.13507 211.453 4.12161 211.432 4.10883 211.408C4.16837 211.548 4.22757 211.689 4.2871 211.83C4.27701 211.806 4.27029 211.784 4.26491 211.758C4.28576 211.914 4.30695 212.071 4.3278 212.227C4.32343 212.193 4.32377 212.161 4.32814 212.127C4.30729 212.283 4.2861 212.439 4.26525 212.595C4.27231 212.559 4.28307 212.526 4.2972 212.493C4.238 212.633 4.17914 212.772 4.12028 212.912C4.14281 212.866 4.16971 212.824 4.20066 212.783C4.10951 212.901 4.01835 213.019 3.92686 213.137C4.0715 212.96 4.34496 212.869 3.81754 213.183C3.91778 213.124 4.01431 213.061 4.11758 213.006C4.28744 212.915 4.44217 212.807 4.57907 212.666C4.67762 212.544 4.77349 212.419 4.86666 212.293C4.64668 212.572 4.5868 212.651 4.68637 212.53C4.76272 212.449 4.83571 212.368 4.92014 212.294C5.56158 211.735 5.39441 210.531 4.64365 210.149C4.06881 209.856 3.38128 209.62 2.74657 209.872C2.25716 210.066 1.79298 210.288 1.43039 210.686C0.909026 211.259 0.685005 211.995 0.876059 212.758C1.08259 213.582 1.79803 214.046 2.53937 214.327C3.08495 214.534 3.90231 214.309 4.27803 213.868C4.3194 213.819 4.36077 213.771 4.40214 213.722C4.05602 213.865 3.70991 214.008 3.36413 214.152C3.64634 214.166 3.92686 214.151 4.20806 214.126C4.92855 214.061 5.6302 213.535 5.59455 212.74C5.55755 211.924 4.98304 211.431 4.20772 211.352Z" fill="white"/>
<path d="M2.76367 209.916C3.3778 209.672 4.04864 209.899 4.62207 210.191C4.98044 210.373 5.20284 210.754 5.25684 211.161C5.28266 211.356 5.26825 211.554 5.21387 211.738C5.21291 211.737 5.2119 211.736 5.21094 211.735C4.97618 211.51 4.66079 211.369 4.30176 211.317C4.14225 211.156 3.95016 211.023 3.7207 210.926C3.70259 210.919 3.68412 210.912 3.66602 210.905L3.60938 210.866L3.59863 210.878C3.57365 210.869 3.54915 210.858 3.52441 210.849C3.45932 210.825 3.39548 210.8 3.33203 210.774L3.31348 210.818L3.29492 210.862C3.36574 210.892 3.43693 210.922 3.50781 210.952C3.55015 210.97 3.59245 210.987 3.63477 211.005C3.66685 211.03 3.69937 211.055 3.73145 211.08C3.77643 211.114 3.8212 211.149 3.86621 211.184C3.88407 211.207 3.90205 211.23 3.91992 211.253C3.86866 211.242 3.81682 211.234 3.76562 211.221L3.60059 211.181L3.7207 211.3C3.88802 211.468 4.05534 211.635 4.22266 211.802C4.23142 211.868 4.2412 211.933 4.25 211.999C4.25796 212.058 4.26552 212.117 4.27344 212.176C4.26545 212.236 4.25803 212.295 4.25 212.355C4.24163 212.417 4.23392 212.479 4.22559 212.542C4.18496 212.638 4.14399 212.733 4.10352 212.83C4.04523 212.905 3.98713 212.981 3.92871 213.056C3.89087 213.08 3.84689 213.111 3.79297 213.143L3.81738 213.183L3.8418 213.224C3.87963 213.202 3.91675 213.18 3.95312 213.158L3.96387 213.167C3.97332 213.155 3.98369 213.144 3.99414 213.133C4.0422 213.104 4.08961 213.075 4.13965 213.048C4.3128 212.956 4.47134 212.844 4.6123 212.699L4.61328 212.7L4.61621 212.696C4.64561 212.659 4.67323 212.621 4.70215 212.584C4.70811 212.577 4.71507 212.569 4.72266 212.56L4.72168 212.559C4.76416 212.514 4.80601 212.471 4.84766 212.428L4.86719 212.448L4.85938 212.417L4.95117 212.33C5.08344 212.214 5.18117 212.072 5.24902 211.917C5.39782 212.1 5.49841 212.327 5.53418 212.597L5.54785 212.742C5.58195 213.503 4.90951 214.015 4.2041 214.079C4.17395 214.081 4.14339 214.082 4.11328 214.084C4.18803 214.028 4.25678 213.966 4.31445 213.898C4.33493 213.874 4.35547 213.85 4.37598 213.826C4.39666 213.801 4.41776 213.777 4.43848 213.752L4.38379 213.678C4.03777 213.821 3.6914 213.965 3.3457 214.108L3.36133 214.199C3.48299 214.205 3.60464 214.205 3.72559 214.202C3.64047 214.239 3.55127 214.271 3.45996 214.295C3.14715 214.379 2.81661 214.382 2.55566 214.283C1.81881 214.003 1.12266 213.548 0.921875 212.747C0.735098 212.001 0.953108 211.281 1.46484 210.718C1.81974 210.328 2.27557 210.109 2.76367 209.916ZM4.23926 213.839C4.15598 213.937 4.04964 214.023 3.92871 214.096C3.81461 214.103 3.70088 214.109 3.58691 214.109C3.80421 214.019 4.02183 213.929 4.23926 213.839ZM4.15527 212.929C4.15198 212.931 4.14881 212.933 4.14551 212.935C4.14436 212.935 4.14366 212.933 4.14258 212.933C4.14441 212.931 4.14661 212.929 4.14844 212.926L4.15527 212.929ZM4.76562 212.345C4.69208 212.439 4.6431 212.501 4.61914 212.533C4.61171 212.542 4.60574 212.551 4.60254 212.555C4.60178 212.556 4.6005 212.558 4.59961 212.559C4.59916 212.56 4.59851 212.561 4.59766 212.563L4.5957 212.565C4.5774 212.588 4.56049 212.612 4.54199 212.635C4.43015 212.75 4.30578 212.842 4.16992 212.921C4.18962 212.883 4.21154 212.846 4.23828 212.811L4.21973 212.796C4.24703 212.732 4.27438 212.667 4.30176 212.602L4.31152 212.604C4.31785 212.572 4.32778 212.542 4.34082 212.511L4.3252 212.504C4.33132 212.459 4.3376 212.413 4.34375 212.368C4.35028 212.319 4.35579 212.271 4.3623 212.222L4.375 212.221C4.37118 212.192 4.3711 212.164 4.375 212.133L4.3623 212.131C4.35582 212.083 4.34928 212.034 4.34277 211.986C4.33949 211.961 4.33629 211.937 4.33301 211.913L4.76562 212.345ZM4.40332 211.43C4.69731 211.491 4.95201 211.618 5.14551 211.803C5.15679 211.814 5.16685 211.826 5.17773 211.837C5.11485 211.997 5.0209 212.143 4.88867 212.258C4.87857 212.267 4.86918 212.277 4.85938 212.286L4.83008 212.263C4.82778 212.266 4.82453 212.269 4.82227 212.272C4.73955 211.953 4.60141 211.667 4.40332 211.43ZM4.17676 211.399C4.17925 211.399 4.18562 211.399 4.19141 211.399C4.19228 211.399 4.19397 211.398 4.19629 211.398C4.19855 211.398 4.20089 211.399 4.20312 211.399C4.22085 211.401 4.23836 211.404 4.25586 211.406C4.44714 211.606 4.58654 211.85 4.67969 212.126C4.55827 212.005 4.43685 211.884 4.31543 211.762C4.31431 211.758 4.31253 211.753 4.31152 211.749L4.30469 211.75C4.26314 211.651 4.22125 211.553 4.17969 211.455L4.18945 211.448C4.17654 211.43 4.1663 211.413 4.15625 211.395C4.16526 211.396 4.1719 211.398 4.17676 211.399ZM4.00977 211.369L4.01074 211.372L4.01172 211.377C4.01301 211.377 4.01431 211.377 4.01562 211.377C4.03661 211.405 4.05809 211.431 4.0791 211.458C4.09548 211.497 4.11159 211.536 4.12793 211.575C4.05143 211.498 3.97494 211.422 3.89844 211.345C3.93552 211.353 3.97245 211.362 4.00977 211.369ZM3.97852 211.174C4.03397 211.211 4.08616 211.251 4.13574 211.293C4.11853 211.291 4.09899 211.289 4.0791 211.288C4.07351 211.287 4.06809 211.285 4.0625 211.284C4.03439 211.247 4.0066 211.211 3.97852 211.174Z" stroke="white" stroke-opacity="0.8" stroke-width="0.0944248"/>
<path d="M134.594 138.612C134.591 138.357 134.615 138.095 134.599 137.841C134.577 137.491 134.466 138.346 134.577 138.02C134.653 137.795 134.654 137.543 134.673 137.305C134.726 136.628 134.252 135.854 133.662 135.543C133.658 135.541 133.655 135.54 133.652 135.538C133.886 135.772 134.12 136.005 134.353 136.239C134.326 136.202 134.3 136.165 134.273 136.127C134.33 136.564 134.387 137.001 134.444 137.439C134.473 137.341 134.509 137.248 134.542 137.151C134.406 137.548 134.65 136.891 134.678 136.811C134.795 136.47 134.829 136.12 134.817 135.763C134.801 135.271 134.425 134.894 133.932 134.877C133.211 134.852 132.528 135.098 131.944 135.516C132.23 135.439 132.516 135.361 132.803 135.284C132.927 135.301 133.051 135.319 133.174 135.337C132.27 135.039 131.368 135.551 130.869 136.275C130.413 136.936 130.43 137.842 130.418 138.612C130.402 139.704 131.39 140.75 132.506 140.7C133.625 140.65 134.611 139.782 134.594 138.612Z" fill="white"/>
<path d="M133.93 134.924C134.398 134.941 134.754 135.298 134.77 135.764C134.781 136.095 134.749 136.415 134.651 136.728C134.604 136.567 134.535 136.41 134.449 136.263C134.26 135.94 133.988 135.662 133.684 135.501L133.683 135.5L133.673 135.496L133.618 135.571C133.735 135.688 133.852 135.805 133.969 135.922C134.056 136.01 134.144 136.097 134.231 136.185C134.258 136.386 134.285 136.587 134.312 136.789C134.34 137.007 134.369 137.226 134.397 137.445L134.489 137.452C134.504 137.402 134.522 137.355 134.539 137.306C134.54 137.304 134.541 137.302 134.542 137.301C134.545 137.296 134.548 137.288 134.551 137.283C134.554 137.276 134.557 137.267 134.562 137.256C134.57 137.236 134.581 137.208 134.593 137.177C134.603 137.151 134.613 137.121 134.624 137.091C134.63 137.162 134.631 137.232 134.626 137.301V137.302C134.615 137.439 134.608 137.577 134.593 137.709C134.583 137.707 134.572 137.707 134.562 137.711C134.548 137.717 134.54 137.727 134.537 137.732C134.533 137.737 134.53 137.743 134.528 137.748C134.52 137.766 134.512 137.793 134.507 137.82C134.501 137.848 134.496 137.882 134.491 137.916C134.487 137.949 134.484 137.983 134.482 138.012C134.481 138.04 134.48 138.069 134.483 138.088C134.484 138.094 134.486 138.1 134.488 138.106C134.49 138.111 134.495 138.122 134.505 138.13C134.518 138.141 134.536 138.147 134.554 138.141L134.556 138.139C134.555 138.168 134.555 138.196 134.555 138.225C134.551 138.353 134.545 138.484 134.547 138.613C134.562 139.753 133.601 140.604 132.504 140.653C131.962 140.677 131.448 140.435 131.071 140.051C130.694 139.667 130.458 139.145 130.466 138.613C130.472 138.226 130.47 137.811 130.523 137.409C130.577 137.007 130.686 136.624 130.908 136.302C131.178 135.911 131.565 135.585 132.004 135.418C131.975 135.438 131.945 135.457 131.916 135.478L131.956 135.562C132.099 135.523 132.243 135.485 132.386 135.446C132.526 135.408 132.666 135.369 132.806 135.332C132.864 135.34 132.923 135.348 132.981 135.357C133.043 135.366 133.106 135.375 133.168 135.384L133.189 135.292C132.982 135.224 132.776 135.198 132.574 135.206C132.998 135.012 133.456 134.908 133.93 134.924ZM134.368 136.311C134.476 136.495 134.554 136.694 134.596 136.894C134.569 136.967 134.535 137.063 134.506 137.139L134.497 137.136C134.486 137.168 134.476 137.199 134.465 137.231C134.445 137.08 134.425 136.928 134.405 136.777C134.383 136.606 134.36 136.434 134.338 136.263C134.348 136.279 134.359 136.295 134.368 136.311ZM132.361 135.354C132.314 135.367 132.266 135.379 132.219 135.392C132.257 135.369 132.296 135.347 132.335 135.326C132.407 135.313 132.48 135.305 132.554 135.301C132.49 135.319 132.426 135.337 132.361 135.354Z" stroke="white" stroke-opacity="0.8" stroke-width="0.0944248"/>
<path d="M210.212 135.295C210.102 135.472 209.688 136.344 209.762 136.112C209.812 135.955 209.662 136.12 209.446 136.247C209.827 136.197 210.209 136.147 210.59 136.097C210.577 136.094 210.564 136.091 210.551 136.088C210.914 136.565 211.277 137.041 211.64 137.518C211.656 138.041 211.895 137.216 211.941 137.094C212.085 136.715 212.141 136.288 212.157 135.886C212.177 135.42 211.711 134.896 211.222 134.95C209.908 135.096 208.716 136.12 208.674 137.518C208.655 138.178 209.151 138.765 209.763 138.948C209.776 138.952 209.788 138.956 209.801 138.96C210.309 139.111 210.873 138.944 211.245 138.578C211.807 138.025 212.049 136.915 212.35 136.197C212.877 134.936 210.886 134.218 210.212 135.295Z" fill="white"/>
<path d="M210.132 135.342C210.065 135.463 209.962 135.667 209.876 135.835C209.843 135.901 209.81 135.959 209.784 136.007L209.783 136.006C209.77 136 209.757 136 209.748 136.001C209.739 136.003 209.73 136.005 209.723 136.008C209.709 136.014 209.694 136.024 209.679 136.034C209.648 136.053 209.609 136.082 209.566 136.112C209.523 136.142 209.474 136.175 209.422 136.206L209.452 136.293C209.643 136.269 209.834 136.243 210.024 136.218C210.196 136.196 210.368 136.173 210.539 136.151C210.89 136.612 211.242 137.073 211.594 137.535C211.596 137.593 211.601 137.638 211.61 137.668C211.615 137.685 211.623 137.703 211.636 137.716C211.651 137.732 211.673 137.741 211.697 137.736C211.714 137.732 211.726 137.72 211.735 137.711C211.592 138.038 211.426 138.334 211.212 138.544C210.851 138.899 210.304 139.061 209.814 138.915H209.815C209.802 138.91 209.788 138.906 209.776 138.903C209.181 138.725 208.703 138.155 208.722 137.52C208.751 136.558 209.336 135.773 210.132 135.342ZM211.228 134.998C211.453 134.973 211.679 135.08 211.847 135.255C212.015 135.431 212.119 135.667 212.11 135.884C212.094 136.284 212.039 136.705 211.897 137.078C211.885 137.109 211.86 137.186 211.832 137.27C211.803 137.356 211.768 137.454 211.735 137.53C211.722 137.56 211.709 137.586 211.697 137.607C211.694 137.585 211.689 137.556 211.688 137.517L211.687 137.501L211.678 137.49L210.599 136.073L210.601 136.051C210.594 136.05 210.587 136.048 210.581 136.046C210.575 136.045 210.569 136.043 210.562 136.042L210.434 136.011L210.474 136.064C210.32 136.084 210.166 136.105 210.012 136.125C209.946 136.134 209.88 136.142 209.813 136.151C209.817 136.145 209.822 136.139 209.826 136.131C209.857 136.078 209.906 135.984 209.96 135.878C210.069 135.666 210.198 135.407 210.252 135.321C210.265 135.299 210.28 135.278 210.295 135.258C210.587 135.122 210.904 135.033 211.228 134.998ZM210.443 135.094C210.789 134.785 211.298 134.75 211.714 134.914C211.964 135.012 212.174 135.179 212.291 135.395C212.407 135.609 212.432 135.876 212.306 136.178C212.231 136.356 212.16 136.558 212.088 136.768C212.158 136.478 212.193 136.176 212.205 135.887C212.215 135.639 212.096 135.379 211.914 135.19C211.732 135.001 211.48 134.875 211.217 134.904C210.951 134.933 210.691 134.998 210.443 135.094ZM209.707 136.136C209.706 136.14 209.705 136.15 209.708 136.162C209.708 136.162 209.709 136.163 209.709 136.165C209.687 136.167 209.665 136.169 209.643 136.172C209.668 136.154 209.69 136.139 209.709 136.126C209.708 136.13 209.707 136.133 209.707 136.136Z" stroke="white" stroke-opacity="0.8" stroke-width="0.0944248"/>
<path d="M234.028 178.159C234.002 178.155 233.975 178.152 233.949 178.149C234.12 178.172 234.291 178.195 234.462 178.218C234.323 178.195 234.193 178.161 234.062 178.108C234.219 178.174 234.377 178.241 234.534 178.307C234.447 178.267 234.367 178.221 234.29 178.163C234.426 178.267 234.561 178.371 234.696 178.476C234.614 178.406 234.53 178.327 234.463 178.242C234.568 178.378 234.673 178.513 234.777 178.648C234.753 178.612 234.732 178.578 234.713 178.539C234.78 178.698 234.847 178.856 234.914 179.016C234.894 178.964 234.879 178.914 234.871 178.859C234.894 179.035 234.918 179.21 234.942 179.386C234.938 179.345 234.938 179.307 234.941 179.266C234.917 179.44 234.894 179.615 234.87 179.79C234.878 179.734 234.892 179.683 234.912 179.629C234.846 179.786 234.78 179.941 234.714 180.097C234.739 180.043 234.769 179.994 234.805 179.945C234.704 180.076 234.602 180.207 234.501 180.338C234.677 180.13 234.801 179.921 234.957 179.711C234.862 179.835 234.766 179.959 234.671 180.083C234.699 180.048 234.732 180.017 234.761 179.982C234.916 179.797 234.597 180.101 234.574 180.119C234.871 179.885 235.106 179.681 235.258 179.319C235.36 179.078 235.424 178.971 235.41 178.665C235.387 178.139 235.159 177.683 234.743 177.362C234.427 177.117 234.143 177.044 233.772 176.994C233.237 176.922 232.71 176.972 232.225 177.236C231.843 177.444 231.497 177.813 231.293 178.194C230.858 179.005 230.878 180.011 231.384 180.786C231.95 181.652 233.01 182.09 234.028 182C234.547 181.955 235.008 181.817 235.387 181.438C235.72 181.104 235.971 180.558 235.95 180.079C235.928 179.582 235.764 179.067 235.387 178.721C235.257 178.62 235.128 178.52 234.998 178.42C234.697 178.247 234.374 178.16 234.028 178.159Z" fill="white"/>
<path d="M232.248 177.277C232.722 177.019 233.238 176.969 233.766 177.04C234.133 177.089 234.407 177.162 234.714 177.399C235.111 177.706 235.331 178.139 235.36 178.641C235.314 178.605 235.268 178.569 235.222 178.533L235.027 178.383L235.021 178.379C234.805 178.254 234.576 178.173 234.336 178.136L234.319 178.125L234.312 178.132C234.296 178.13 234.28 178.128 234.264 178.126C234.202 178.109 234.141 178.089 234.08 178.064L234.06 178.112C234.051 178.112 234.042 178.111 234.033 178.111H234.034C234.008 178.108 233.981 178.105 233.955 178.102L233.948 178.148L233.942 178.195C234.028 178.207 234.114 178.219 234.199 178.23C234.215 178.233 234.23 178.234 234.245 178.236C234.292 178.256 234.339 178.275 234.386 178.295C234.412 178.315 234.438 178.336 234.465 178.356C234.488 178.374 234.51 178.392 234.533 178.409C234.55 178.431 234.566 178.452 234.583 178.474C234.621 178.522 234.659 178.571 234.696 178.62C234.721 178.679 234.746 178.737 234.771 178.796C234.792 178.847 234.813 178.898 234.835 178.949C234.852 179.073 234.868 179.197 234.885 179.321C234.868 179.443 234.852 179.565 234.836 179.687C234.814 179.739 234.792 179.792 234.77 179.845C234.761 179.865 234.752 179.885 234.744 179.904C234.732 179.914 234.718 179.926 234.703 179.938C234.671 179.966 234.633 180.001 234.603 180.029C234.587 180.043 234.574 180.056 234.563 180.065C234.558 180.07 234.553 180.074 234.55 180.077L234.545 180.082L234.574 180.119L234.592 180.143C234.549 180.198 234.507 180.254 234.464 180.31L234.537 180.369C234.595 180.3 234.647 180.23 234.696 180.161C234.71 180.144 234.724 180.126 234.737 180.108L234.757 180.117C234.781 180.065 234.809 180.019 234.843 179.973L234.835 179.967C234.838 179.963 234.84 179.959 234.843 179.955C235.031 179.786 235.189 179.605 235.302 179.338C235.351 179.22 235.395 179.128 235.423 179.029C235.438 178.976 235.447 178.921 235.453 178.857C235.748 179.188 235.883 179.639 235.902 180.081C235.923 180.544 235.679 181.079 235.354 181.404C234.985 181.773 234.537 181.908 234.024 181.953C233.021 182.041 231.978 181.61 231.424 180.761C230.927 180 230.907 179.012 231.334 178.216C231.534 177.842 231.875 177.481 232.248 177.277ZM234.565 178.285C234.705 178.327 234.84 178.384 234.971 178.459C235.035 178.509 235.1 178.558 235.164 178.607C235.228 178.657 235.292 178.706 235.355 178.755V178.756C235.358 178.758 235.359 178.76 235.361 178.762C235.36 178.86 235.352 178.935 235.332 179.004C235.306 179.095 235.267 179.178 235.215 179.301C235.146 179.464 235.058 179.594 234.956 179.71L234.939 179.697C234.944 179.68 234.95 179.664 234.956 179.646L234.938 179.639C234.949 179.554 234.96 179.469 234.972 179.384L234.988 179.383C234.985 179.344 234.985 179.308 234.987 179.269L234.973 179.267C234.961 179.18 234.949 179.093 234.938 179.006L234.958 178.998C234.939 178.95 234.926 178.904 234.918 178.853H234.917V178.852L234.897 178.854C234.884 178.822 234.871 178.79 234.857 178.759C234.839 178.716 234.821 178.674 234.803 178.631L234.816 178.622C234.793 178.588 234.774 178.555 234.756 178.518L234.74 178.523C234.727 178.506 234.714 178.489 234.7 178.472L234.727 178.44C234.671 178.393 234.616 178.339 234.565 178.285Z" stroke="white" stroke-opacity="0.8" stroke-width="0.0944248"/>
<path d="M202.821 103.249C202.241 103.937 201.591 104.614 201.281 105.474C201.06 106.09 201.096 106.735 201.15 107.376C201.315 109.33 204.024 109.332 204.191 107.376C204.203 107.234 204.219 107.092 204.229 106.95C204.256 106.568 204.128 107.232 204.232 106.93C204.237 106.916 204.283 106.666 204.302 106.665C204.313 106.665 204.105 107.05 204.291 106.743C204.441 106.495 204.018 106.995 204.281 106.77C204.376 106.689 204.46 106.592 204.552 106.507C204.818 106.263 205.097 106.033 205.372 105.8C206.096 105.189 206.049 103.87 205.372 103.249C204.703 102.634 203.47 102.478 202.821 103.249Z" fill="white"/>
<path d="M204.087 102.776C204.549 102.795 205.014 102.984 205.34 103.283C205.667 103.583 205.844 104.056 205.85 104.529C205.855 105.003 205.69 105.47 205.342 105.765C205.067 105.997 204.787 106.228 204.521 106.473C204.473 106.516 204.428 106.562 204.384 106.606C204.373 106.617 204.362 106.626 204.352 106.637C204.343 106.63 204.335 106.627 204.327 106.626L204.301 106.618C204.288 106.619 204.278 106.624 204.272 106.628C204.267 106.632 204.263 106.637 204.261 106.64C204.256 106.645 204.253 106.652 204.251 106.656C204.248 106.662 204.246 106.669 204.243 106.677C204.231 106.689 204.219 106.704 204.207 106.718C204.193 106.735 204.179 106.753 204.169 106.769C204.164 106.776 204.159 106.785 204.155 106.792C204.153 106.796 204.151 106.801 204.149 106.806C204.148 106.81 204.146 106.817 204.146 106.825C204.145 106.833 204.147 106.851 204.161 106.864L204.163 106.865C204.16 106.877 204.158 106.889 204.155 106.901C204.151 106.922 204.148 106.944 204.146 106.963C204.144 106.972 204.144 106.982 204.144 106.99C204.143 106.994 204.143 106.999 204.144 107.003C204.144 107.007 204.144 107.012 204.146 107.018C204.146 107.02 204.147 107.024 204.148 107.027C204.15 107.031 204.153 107.037 204.158 107.042C204.161 107.046 204.166 107.048 204.172 107.051C204.163 107.157 204.153 107.263 204.144 107.372C203.987 109.212 201.519 109.266 201.22 107.544L201.197 107.372C201.143 106.731 201.108 106.095 201.326 105.49C201.632 104.64 202.274 103.971 202.856 103.279C203.17 102.907 203.625 102.757 204.087 102.776Z" stroke="white" stroke-opacity="0.8" stroke-width="0.0944248"/>
<path d="M202.358 226.435C201.127 226.494 199.595 226.389 198.701 227.404C198.161 228.017 198.158 228.826 198.701 229.443C199.593 230.455 201.129 230.352 202.358 230.411C203.398 230.461 204.392 229.461 204.346 228.423C204.3 227.389 203.47 226.382 202.358 226.435Z" fill="white"/>
<path d="M202.36 226.482C203.44 226.43 204.253 227.41 204.299 228.425C204.321 228.928 204.092 229.426 203.727 229.792C203.361 230.157 202.865 230.388 202.36 230.364L201.396 230.331C201.066 230.316 200.733 230.292 200.41 230.238C199.767 230.13 199.172 229.906 198.736 229.412C198.209 228.813 198.212 228.03 198.736 227.435C199.173 226.939 199.768 226.715 200.411 226.608C200.733 226.554 201.066 226.53 201.395 226.516L202.36 226.482Z" stroke="white" stroke-opacity="0.8" stroke-width="0.0944248"/>
<path d="M136.303 183.914C135.914 183.993 135.525 184.072 135.136 184.151C134.886 184.202 134.792 184.134 135.357 184.134C134.562 184.134 133.8 184.833 133.837 185.654C133.874 186.478 134.505 187.174 135.357 187.174C135.438 187.174 134.812 187.082 134.978 187.125C135.03 187.138 135.084 187.146 135.136 187.157C135.525 187.236 135.914 187.314 136.303 187.393C136.925 187.52 137.607 187.422 138.059 186.93C138.383 186.577 138.587 186.143 138.587 185.654C138.587 185.191 138.386 184.705 138.059 184.378C137.58 183.899 136.947 183.784 136.303 183.914Z" fill="white"/>
<path d="M136.312 183.96C136.945 183.832 137.561 183.946 138.025 184.411C138.344 184.73 138.54 185.204 138.54 185.654C138.54 186.129 138.342 186.552 138.024 186.897C137.587 187.373 136.925 187.472 136.312 187.348C136.118 187.308 135.924 187.268 135.729 187.229C135.623 187.207 135.517 187.186 135.411 187.164C135.409 187.151 135.402 187.143 135.398 187.14C135.395 187.136 135.391 187.134 135.389 187.133C135.385 187.13 135.382 187.129 135.38 187.128C135.376 187.126 135.372 187.126 135.369 187.125C135.358 187.122 135.338 187.118 135.316 187.114C135.271 187.106 135.205 187.096 135.143 187.087C135.08 187.078 135.018 187.07 134.982 187.067C134.974 187.067 134.965 187.066 134.958 187.066C134.955 187.066 134.95 187.066 134.945 187.066C134.337 186.885 133.915 186.313 133.885 185.652C133.849 184.861 134.586 184.181 135.357 184.181V184.154C135.481 184.129 135.606 184.104 135.729 184.079C135.924 184.04 136.118 183.999 136.312 183.96Z" stroke="white" stroke-opacity="0.8" stroke-width="0.0944248"/>
<path d="M98.2928 113.023C98.3838 113.023 98.3838 112.881 98.2928 112.881C98.2019 112.881 98.2019 113.023 98.2928 113.023Z" fill="white"/>
<path d="M98.293 112.928C98.3022 112.928 98.3064 112.932 98.3086 112.934C98.3115 112.938 98.3134 112.944 98.3135 112.952C98.3135 112.96 98.3116 112.967 98.3086 112.97C98.3064 112.973 98.3022 112.975 98.293 112.975C98.2838 112.975 98.2795 112.973 98.2773 112.97C98.2743 112.967 98.2715 112.96 98.2715 112.952C98.2716 112.944 98.2744 112.938 98.2773 112.934C98.2795 112.932 98.2836 112.928 98.293 112.928Z" stroke="white" stroke-opacity="0.8" stroke-width="0.0944248"/>
<path d="M219.775 79.8804C219.288 79.9258 218.8 79.9322 218.317 80.0136C218.468 79.9931 218.62 79.9729 218.772 79.9524C218.721 79.9591 218.671 79.9622 218.619 79.9581C218.766 79.9776 218.912 79.9975 219.058 80.017C218.767 79.975 219.473 80.2407 219.269 80.1152C219.649 80.3476 219.608 80.3967 219.5 80.2834C219.7 80.5437 219.761 80.6241 219.685 80.5249C219.605 80.42 219.524 80.3153 219.443 80.2107C219.412 80.1771 219.31 80.1028 219.303 80.0563C219.316 80.1468 219.58 80.4136 219.327 80.0859C219.156 79.865 218.948 79.7173 218.676 79.6386C218.008 79.4459 217.443 79.874 217.139 80.4553C216.738 81.2235 216.848 82.2064 217.492 82.8172C217.801 83.1105 218.174 83.3413 218.598 83.4146C218.987 83.4815 219.382 83.5189 219.775 83.5555C220.218 83.5969 220.771 83.3207 221.075 83.0173C221.393 82.6985 221.633 82.1758 221.613 81.718C221.571 80.7987 220.8 79.7856 219.775 79.8804Z" fill="white"/>
<path d="M217.181 80.4775C217.479 79.9062 218.025 79.5002 218.662 79.6836C218.815 79.7276 218.946 79.795 219.062 79.8848C218.963 79.8918 218.864 79.8999 218.766 79.9092V79.9053C218.716 79.9117 218.67 79.9148 218.623 79.9111L218.621 79.9238C218.583 79.929 218.544 79.9353 218.506 79.9404C218.44 79.949 218.374 79.9558 218.309 79.9668L218.323 80.0605V80.0596L218.324 80.0605C218.441 80.0409 218.558 80.0251 218.675 80.0127C218.727 80.0197 218.78 80.0271 218.832 80.0342C218.871 80.0395 218.911 80.0445 218.95 80.0498C218.952 80.0528 218.953 80.0558 218.955 80.0576C218.959 80.0621 218.964 80.0663 218.968 80.0693C218.983 80.0811 219.006 80.094 219.03 80.1055C219.055 80.1174 219.084 80.13 219.113 80.1416C219.171 80.1644 219.234 80.1858 219.271 80.1934C219.28 80.1951 219.292 80.1968 219.303 80.1963L219.305 80.1953C219.323 80.2067 219.339 80.2182 219.354 80.2285C219.365 80.2405 219.373 80.2523 219.381 80.2607C219.386 80.2659 219.392 80.2713 219.396 80.2754C219.4 80.2782 219.408 80.2853 219.418 80.2891C219.42 80.2897 219.43 80.2904 219.443 80.2881C219.512 80.3761 219.579 80.4644 219.647 80.5527V80.5537C219.666 80.5784 219.677 80.5923 219.679 80.5947V80.5938L219.68 80.5947L219.681 80.5967C219.743 80.6057 219.757 80.5412 219.755 80.5381V80.5371L219.75 80.5322C219.747 80.5278 219.741 80.5207 219.733 80.5107C219.712 80.4823 219.673 80.431 219.616 80.3574C219.621 80.3445 219.621 80.3339 219.62 80.3291C219.619 80.3222 219.616 80.3164 219.614 80.3135C219.611 80.3075 219.606 80.3021 219.603 80.2979C219.588 80.281 219.557 80.2538 219.506 80.2158C219.497 80.2045 219.488 80.1929 219.479 80.1816L219.478 80.1787C219.468 80.168 219.454 80.1554 219.44 80.1436C219.428 80.1322 219.414 80.1205 219.401 80.1084C219.39 80.0933 219.379 80.0751 219.364 80.0566C219.339 80.0238 219.312 79.9927 219.285 79.9629C219.449 79.9521 219.613 79.9432 219.779 79.9277C220.274 79.882 220.71 80.1031 221.028 80.4512C221.347 80.7995 221.545 81.2719 221.565 81.7197C221.585 82.1621 221.352 82.6732 221.041 82.9844C220.894 83.1314 220.685 83.2724 220.458 83.3721C220.231 83.4719 219.99 83.5285 219.779 83.5088C219.386 83.4721 218.993 83.4347 218.606 83.3682C218.195 83.2969 217.829 83.0722 217.524 82.7832C216.898 82.1885 216.788 81.229 217.181 80.4775ZM219.265 80.0869C219.265 80.0889 219.266 80.0908 219.267 80.0928C219.236 80.0841 219.192 80.071 219.148 80.0537C219.121 80.0427 219.094 80.0312 219.071 80.0205C219.067 80.0183 219.063 80.0147 219.059 80.0127L219.062 79.9785C219.096 79.9762 219.129 79.9739 219.162 79.9717C219.198 80.0069 219.231 80.0461 219.265 80.0869Z" stroke="white" stroke-opacity="0.8" stroke-width="0.0944248"/>
<path d="M139.634 221.249C139.076 221.256 138.464 221.197 137.919 221.324C136.541 221.643 136.54 223.794 137.919 224.114C138.464 224.24 139.076 224.182 139.634 224.189C140.403 224.199 141.139 223.506 141.104 222.719C141.069 221.931 140.458 221.238 139.634 221.249Z" fill="white"/>
<path d="M139.206 221.293C139.35 221.295 139.495 221.298 139.635 221.296C140.429 221.286 141.022 221.955 141.057 222.722C141.09 223.479 140.379 224.151 139.635 224.142C139.495 224.14 139.35 224.142 139.206 224.145C139.062 224.147 138.917 224.15 138.772 224.149C138.483 224.147 138.197 224.129 137.93 224.067C137.267 223.914 136.932 223.32 136.932 222.719C136.932 222.117 137.267 221.524 137.93 221.37C138.197 221.308 138.483 221.291 138.772 221.289C138.917 221.288 139.062 221.29 139.206 221.293Z" stroke="white" stroke-opacity="0.8" stroke-width="0.0944248"/>
<path d="M106.485 229.484C106.617 229.35 106.75 229.217 106.882 229.082C107.428 228.517 107.485 227.514 106.882 226.96C106.596 226.698 106.22 226.503 105.821 226.521C105.401 226.54 105.084 226.695 104.76 226.96C104.492 227.179 104.26 227.465 104.017 227.71C103.558 228.174 102.851 228.713 102.702 229.364C102.45 230.458 103.382 231.39 104.477 231.139C105.126 230.99 105.667 230.282 106.13 229.824C106.376 229.581 106.611 229.297 106.882 229.082C106.174 228.375 105.467 227.667 104.76 226.96C104.627 227.094 104.492 227.225 104.358 227.358C103.798 227.912 103.762 228.936 104.358 229.484C104.956 230.032 105.894 230.082 106.485 229.484Z" fill="white"/>
<path d="M104.02 227.772C103.764 228.346 103.847 229.079 104.326 229.519C104.8 229.954 105.485 230.082 106.054 229.834C105.951 229.938 105.843 230.053 105.733 230.169C105.608 230.302 105.478 230.437 105.342 230.562C105.069 230.814 104.779 231.021 104.467 231.093C103.406 231.336 102.504 230.434 102.748 229.374C102.82 229.061 103.027 228.771 103.278 228.499C103.404 228.363 103.539 228.233 103.672 228.107C103.793 227.993 103.912 227.88 104.02 227.772ZM106.812 229.079C106.69 229.181 106.574 229.294 106.463 229.41C106.405 229.47 106.347 229.529 106.291 229.588C105.721 230.015 104.92 229.936 104.39 229.449C103.815 228.922 103.849 227.929 104.392 227.392C104.514 227.271 104.637 227.148 104.759 227.025C105.443 227.71 106.128 228.395 106.812 229.079ZM105.823 226.567C106.206 226.55 106.569 226.738 106.85 226.995C107.418 227.517 107.379 228.459 106.879 229.013C106.196 228.33 105.513 227.647 104.83 226.964C105.135 226.724 105.434 226.585 105.823 226.567Z" stroke="white" stroke-opacity="0.8" stroke-width="0.0944248"/>
<path d="M39.7709 252.498C50.5257 252.114 61.2624 251.325 72.0276 251.019C84.208 250.673 96.3913 250.449 108.573 250.178C114.153 250.054 119.819 250.156 125.381 249.666C126.293 249.585 126.327 248.229 125.381 248.22C120.459 248.173 115.508 248.508 110.586 248.631C104.665 248.778 98.7438 248.908 92.8229 249.05C80.5736 249.345 68.3223 249.717 56.0898 250.446C50.6105 250.772 45.113 251.05 39.71 252.045C39.4533 252.093 39.5132 252.507 39.7709 252.498Z" fill="white"/>
<path d="M125.381 248.268C125.605 248.27 125.767 248.351 125.873 248.47C125.98 248.589 126.032 248.751 126.03 248.916C126.026 249.246 125.805 249.581 125.377 249.619C119.817 250.11 114.154 250.007 108.572 250.131C96.3905 250.402 84.2069 250.625 72.0264 250.972C66.6431 251.125 61.2667 251.399 55.8926 251.683C50.5184 251.966 45.1462 252.259 39.7695 252.451C39.6724 252.455 39.6076 252.379 39.5947 252.286C39.5884 252.241 39.596 252.196 39.6162 252.161C39.6358 252.127 39.6683 252.1 39.7188 252.091C45.1182 251.097 50.6126 250.819 56.0928 250.493C68.3243 249.765 80.5751 249.392 92.8242 249.098C98.7448 248.955 104.666 248.825 110.587 248.678C115.512 248.555 120.459 248.22 125.381 248.268Z" stroke="white" stroke-opacity="0.8" stroke-width="0.0944248"/>
<path d="M40.088 252.08C39.5656 251.278 38.7038 250.936 38.0079 250.302C37.2686 249.628 36.6803 248.798 36.3379 247.856C35.7697 246.294 35.8636 244.511 36.5333 242.995C37.1139 241.681 38.164 240.448 39.5592 239.981C41.3157 239.393 42.8599 240.413 44.3022 241.304C44.752 241.582 45.3561 241.016 45.0473 240.559C42.3783 236.608 37.17 238.118 35.237 241.916C34.2682 243.82 34.0062 246.115 34.7385 248.142C35.4045 249.985 37.5585 252.857 39.7714 252.632C40.0284 252.606 40.2531 252.335 40.088 252.08Z" fill="white"/>
<path d="M39.875 238.378C41.7349 238.023 43.6845 238.626 45.0078 240.585C45.146 240.789 45.0833 241.02 44.9268 241.173C44.7693 241.326 44.5289 241.388 44.3271 241.264C43.6075 240.819 42.8566 240.338 42.0654 240.043C41.2726 239.748 40.4353 239.638 39.5439 239.937C38.1322 240.409 37.0741 241.655 36.4902 242.977C35.8159 244.503 35.7215 246.298 36.2939 247.872C36.6393 248.822 37.2322 249.659 37.9766 250.337C38.327 250.656 38.7207 250.904 39.085 251.166C39.4513 251.43 39.7925 251.713 40.0488 252.106C40.1197 252.216 40.1072 252.327 40.0488 252.416C39.989 252.507 39.881 252.573 39.7666 252.585C38.682 252.695 37.604 252.047 36.709 251.13C35.8154 250.214 35.1139 249.041 34.7832 248.126C34.056 246.113 34.3156 243.831 35.2793 241.938C36.2395 240.051 38.0127 238.733 39.875 238.378Z" stroke="white" stroke-opacity="0.8" stroke-width="0.0944248"/>
<path d="M42.0439 239.545C41.5639 237.832 40.6955 236.276 40.3766 234.511C40.0957 232.957 40.1375 231.335 40.5297 229.804C41.2767 226.89 43.2397 224.394 45.7779 222.809C48.3087 221.23 51.4136 220.518 54.3753 220.971C56.0353 221.225 57.6215 221.839 59.0433 222.727C60.6279 223.716 61.8385 225.122 63.3521 226.187C63.6575 226.401 64.1604 226.039 64.0138 225.678C62.6017 222.205 58.3854 219.904 54.8382 219.292C51.346 218.69 47.7295 219.476 44.7735 221.427C41.972 223.275 39.7987 226.095 39.0083 229.385C38.1933 232.777 38.7752 237.426 41.4836 239.871C41.7251 240.089 42.1378 239.881 42.0439 239.545Z" fill="white"/>
<path d="M44.7998 221.466C47.7459 219.522 51.3501 218.739 54.8301 219.339C56.5976 219.644 58.5327 220.369 60.2012 221.452C61.8699 222.534 63.2684 223.971 63.9697 225.696C64.0322 225.85 63.959 226.009 63.8242 226.11C63.6889 226.211 63.5094 226.24 63.3789 226.148C62.6249 225.618 61.9464 225.002 61.2559 224.393C60.566 223.785 59.8642 223.184 59.0684 222.687C57.6416 221.797 56.0494 221.179 54.3828 220.924C51.4093 220.47 48.2926 221.184 45.7529 222.769C43.2055 224.359 41.2347 226.865 40.4844 229.792C40.0904 231.33 40.0481 232.959 40.3301 234.52C40.4904 235.407 40.7884 236.241 41.1055 237.065C41.423 237.89 41.7589 238.704 41.998 239.558C42.0383 239.702 41.972 239.817 41.8672 239.875C41.7609 239.933 41.6195 239.93 41.5156 239.836C40.1711 238.623 39.3515 236.86 38.9707 234.974C38.5899 233.089 38.6479 231.086 39.0537 229.396C39.841 226.119 42.0069 223.309 44.7998 221.466Z" stroke="white" stroke-opacity="0.8" stroke-width="0.0944248"/>
<path d="M53.8869 232.525C55.9902 229.824 59.2034 227.678 62.4752 226.696C64.1352 226.199 65.9421 225.943 67.6528 226.327C69.2065 226.677 70.3289 228.092 71.8274 228.291C72.1221 228.33 72.4238 227.995 72.4036 227.715C72.2738 225.915 69.8604 224.949 68.333 224.596C66.455 224.162 64.4735 224.337 62.6387 224.885C58.8358 226.02 55.194 228.557 53.3931 232.144C53.2441 232.442 53.6548 232.823 53.8869 232.525Z" fill="white"/>
<path d="M62.6523 224.93C64.4812 224.384 66.4541 224.21 68.3223 224.642C69.083 224.818 70.0627 225.146 70.8672 225.653C71.6726 226.16 72.2931 226.841 72.3564 227.718C72.3653 227.841 72.3026 227.983 72.1992 228.09C72.0961 228.197 71.9613 228.261 71.834 228.245C71.0966 228.147 70.4495 227.749 69.7861 227.326C69.1259 226.905 68.4495 226.458 67.6631 226.282C65.9415 225.895 64.1258 226.152 62.4619 226.651C59.1812 227.635 55.9591 229.786 53.8496 232.496C53.7994 232.56 53.7427 232.584 53.6895 232.585C53.6347 232.587 53.5771 232.564 53.5273 232.522C53.4259 232.436 53.3736 232.289 53.4355 232.166C55.2292 228.592 58.8586 226.063 62.6523 224.93Z" stroke="white" stroke-opacity="0.8" stroke-width="0.0944248"/>
<path d="M66.1083 225.815C66.0219 224.28 65.366 222.868 65.4262 221.298C65.4786 219.931 65.9092 218.588 66.5775 217.4C68.0178 214.839 70.5254 212.968 73.1854 211.815C75.8665 210.652 78.9772 210.106 81.8652 210.716C84.9883 211.375 86.951 213.354 88.6711 215.933C89.0603 216.516 89.9537 216.153 89.8006 215.457C88.5608 209.814 82.1336 207.991 77.0771 208.771C71.9506 209.561 66.5009 212.765 64.519 217.762C63.5668 220.162 63.3653 224.193 65.5358 226.051C65.7397 226.226 66.1258 226.127 66.1083 225.815Z" fill="white"/>
<path d="M77.084 208.817C79.6047 208.429 82.4663 208.69 84.8506 209.749C87.2339 210.808 89.1389 212.663 89.7549 215.467C89.8961 216.109 89.0719 216.45 88.71 215.907C86.9868 213.324 85.0155 211.333 81.875 210.67C78.9752 210.057 75.8546 210.606 73.167 211.771C70.5008 212.928 67.983 214.803 66.5361 217.376C65.8647 218.57 65.4317 219.921 65.3789 221.297C65.3486 222.088 65.4988 222.839 65.666 223.58C65.8337 224.323 66.0186 225.055 66.0615 225.817C66.0689 225.949 65.9929 226.035 65.8896 226.071C65.8102 226.099 65.7171 226.096 65.6387 226.062L65.5664 226.016C64.4948 225.098 64.0049 223.641 63.9033 222.107C63.8019 220.575 64.0889 218.973 64.5625 217.779C66.5362 212.803 71.9682 209.606 77.084 208.817Z" stroke="white" stroke-opacity="0.8" stroke-width="0.0944248"/>
<path d="M88.8595 215.983C90.324 215.466 91.4858 214.489 92.8629 213.787C94.1686 213.122 95.5666 212.645 97.0096 212.387C99.6244 211.919 102.34 212.29 104.682 213.562C106.949 214.793 108.692 216.814 109.677 219.193C110.254 220.586 110.584 222.098 110.689 223.599C110.799 225.184 110.474 226.809 111.099 228.302C111.218 228.587 111.621 228.804 111.869 228.506C113.908 226.057 112.802 221.33 111.709 218.633C110.563 215.808 108.545 213.366 105.86 211.885C103.256 210.449 100.19 210.04 97.2743 210.528C94.2389 211.037 90.0216 212.693 88.5282 215.552C88.4189 215.762 88.6035 216.073 88.8595 215.983Z" fill="white"/>
<path d="M97.2822 210.575C100.188 210.088 103.244 210.496 105.837 211.926C108.512 213.402 110.523 215.835 111.665 218.651C112.211 219.996 112.759 221.848 112.917 223.667C113.075 225.487 112.841 227.266 111.833 228.476C111.724 228.607 111.582 228.625 111.451 228.578C111.317 228.53 111.197 228.414 111.143 228.285C110.834 227.547 110.759 226.774 110.748 225.985C110.738 225.2 110.791 224.389 110.735 223.596C110.63 222.09 110.3 220.573 109.721 219.174C108.732 216.787 106.981 214.757 104.704 213.52C102.352 212.243 99.6254 211.871 97.001 212.34C95.5534 212.599 94.1514 213.078 92.8418 213.746C92.151 214.098 91.513 214.519 90.8691 214.915C90.2242 215.311 89.571 215.681 88.8438 215.938C88.7397 215.975 88.6506 215.932 88.5957 215.853C88.5396 215.772 88.5251 215.661 88.5703 215.574C89.3107 214.156 90.7285 213.033 92.3447 212.201C93.9602 211.368 95.7687 210.828 97.2822 210.575Z" stroke="white" stroke-opacity="0.8" stroke-width="0.0944248"/>
<path d="M103.525 229.624C106.242 228.578 109.216 228.444 112.002 229.292C113.331 229.697 114.619 230.417 115.49 231.523C116.451 232.745 116.573 234.276 117.092 235.689C117.263 236.157 117.84 236.132 118.021 235.689C119.394 232.326 116.163 229.053 113.254 227.955C110.071 226.753 106.121 227.169 103.267 229.011C102.965 229.205 103.153 229.767 103.525 229.624Z" fill="white"/>
<path d="M103.293 229.051C106.134 227.217 110.068 226.803 113.237 227.999C114.684 228.545 116.211 229.632 117.205 231C118.198 232.367 118.655 234.009 117.977 235.671C117.893 235.875 117.72 235.98 117.552 235.983C117.384 235.986 117.215 235.889 117.136 235.673C116.877 234.968 116.719 234.238 116.502 233.521C116.286 232.806 116.013 232.112 115.527 231.494C114.649 230.378 113.351 229.654 112.016 229.247C109.219 228.396 106.235 228.53 103.509 229.579C103.428 229.61 103.361 229.602 103.309 229.574C103.255 229.545 103.212 229.492 103.188 229.427C103.144 229.311 103.16 229.173 103.25 229.085L103.293 229.051Z" stroke="white" stroke-opacity="0.8" stroke-width="0.0944248"/>
<path d="M108.746 239.299C112.759 236.935 117.45 236.491 121.652 238.736C123.396 239.668 125.072 241.086 125.66 243.042C125.947 243.999 125.908 244.968 125.634 245.922C125.335 246.967 124.585 247.979 124.827 249.096C124.899 249.424 125.242 249.544 125.536 249.498C128.15 249.092 128.404 244.52 127.842 242.586C127.132 240.15 125.165 238.273 122.984 237.096C118.778 234.824 111.107 233.966 108.331 238.884C108.182 239.146 108.481 239.456 108.746 239.299Z" fill="white"/>
<path d="M115.123 235.341C117.905 235.225 120.866 236.005 122.962 237.137C125.136 238.311 127.092 240.18 127.796 242.6C128.075 243.558 128.152 245.176 127.834 246.604C127.515 248.036 126.805 249.253 125.529 249.451C125.391 249.473 125.241 249.455 125.119 249.395C124.999 249.335 124.905 249.234 124.873 249.086C124.755 248.541 124.878 248.018 125.071 247.498C125.168 247.238 125.283 246.98 125.392 246.72C125.5 246.46 125.604 246.199 125.68 245.936C125.955 244.974 125.995 243.995 125.705 243.028C125.112 241.054 123.423 239.629 121.675 238.694C117.456 236.44 112.746 236.887 108.722 239.259C108.611 239.324 108.494 239.293 108.417 239.215C108.34 239.137 108.31 239.017 108.372 238.907C109.749 236.468 112.342 235.457 115.123 235.341Z" stroke="white" stroke-opacity="0.8" stroke-width="0.0944248"/>
</svg>
