<svg width="305" height="297" viewBox="0 0 305 297" fill="none" xmlns="http://www.w3.org/2000/svg">
<path d="M52.6371 111.777L251.994 33.8217L248.654 27.7011C244.814 20.6665 236.322 17.612 228.881 20.5892L59.9359 88.1854C51.1365 91.7061 47.3829 102.119 51.912 110.444L52.6371 111.777Z" stroke="white" stroke-opacity="0.8" stroke-width="2.41461" stroke-miterlimit="10"/>
<path d="M301.029 154.725L98.6484 233.862L102.04 240.075C105.938 247.217 114.559 250.317 122.112 247.295L293.619 178.674C302.552 175.1 306.363 164.529 301.765 156.078L301.029 154.725Z" stroke="white" stroke-opacity="0.8" stroke-width="2.45122" stroke-miterlimit="10"/>
<path d="M70.834 104.662L118.815 225.977" stroke="white" stroke-opacity="0.8" stroke-width="2.45122" stroke-miterlimit="10"/>
<path d="M51.9121 110.444L98.6487 233.862" stroke="white" stroke-opacity="0.8" stroke-width="2.45122" stroke-miterlimit="10"/>
<path d="M234.529 40.6509L284.352 161.246" stroke="white" stroke-opacity="0.8" stroke-width="2.45122" stroke-miterlimit="10"/>
<path d="M251.994 33.8218L301.029 154.725" stroke="white" stroke-opacity="0.8" stroke-width="2.45122" stroke-miterlimit="10"/>
<path d="M202.186 241.954C202.186 241.954 225.55 242.714 216.869 264.6C215.818 267.253 213.434 269.156 210.818 270.295C203.646 273.416 188.013 276.96 172.306 259.133L172.766 259.67C164.315 237.464 174.737 225.284 180.841 220.395C183.068 218.611 185.863 217.389 188.7 217.695C212.11 220.216 201.891 241.241 201.891 241.241L202.186 241.954Z" stroke="white" stroke-opacity="0.8" stroke-width="2.24706" stroke-miterlimit="10"/>
<path d="M180.339 276.216C178.033 275.053 175.974 273.343 173.905 271.796C173.199 271.268 173.67 270.146 174.542 270.278C183.55 271.642 192.262 274.63 200.895 277.599C204.372 278.795 208.12 280.196 209.949 283.441C210.095 283.7 210.184 283.991 210.18 284.288C210.164 285.454 208.914 285.77 207.902 285.818C204.369 285.987 200.794 285.162 197.693 283.461L195.007 288.691C196.396 289.4 197.89 290.219 198.493 291.658C199.095 293.097 198.087 295.202 196.542 294.984C196.009 294.909 195.55 294.585 195.107 294.279C189.653 290.498 183.673 287.647 177.124 286.642C177.016 286.625 176.952 286.762 177.035 286.834C182.25 291.338 188.667 294.347 195.554 294.627" stroke="white" stroke-opacity="0.8" stroke-width="2.24706" stroke-miterlimit="10"/>
<path d="M194.559 288.253C189.328 285.877 183.969 283.783 178.512 281.984" stroke="white" stroke-opacity="0.8" stroke-width="2.24706" stroke-miterlimit="10"/>
<path d="M177.035 286.835C178.737 285.113 178.046 282.624 179.58 280.752C180.449 279.693 181.326 278.516 181.4 277.149C181.405 277.06 181.405 276.967 181.368 276.886C181.316 276.773 181.2 276.704 181.092 276.643C180.742 276.445 180.393 276.247 180.043 276.049" stroke="white" stroke-opacity="0.8" stroke-width="2.24706" stroke-miterlimit="10"/>
<path d="M178.255 281.35C173.51 278.944 167.854 278.672 163.271 275.969" stroke="white" stroke-opacity="0.8" stroke-width="2.24706" stroke-miterlimit="10"/>
<path d="M180.628 279.07C176.27 275.389 170.232 274.659 164.887 272.666" stroke="white" stroke-opacity="0.8" stroke-width="2.24706" stroke-miterlimit="10"/>
<path d="M112.964 88.0163C114.625 86.6046 117.055 89.6425 119.117 88.9382C120.24 88.5546 120.698 87.2428 120.999 86.0946C122.507 80.3335 124.893 72.9585 123.909 66.9794C122.917 60.9448 120.2 54.0863 116.777 49.0381C113.112 43.6336 107.155 39.3402 100.626 39.4201C102.477 29.8922 98.7205 19.3889 91.7061 12.6801C84.2018 5.50282 73.6586 1.83143 63.2761 2.00594C52.8935 2.18046 42.7296 6.04097 34.3424 12.1633C25.9552 18.2856 19.2921 26.5905 14.3804 35.7394C14.3804 35.7394 -11.6518 77.9377 11.7807 153.379C11.7807 153.379 20.6122 183.437 42.4667 207.3C45.706 210.837 48.788 214.514 51.7347 218.298C61.2991 230.581 91.3219 261.054 162.765 277.101C164.123 277.406 163.441 274.414 164.138 273.209C164.332 272.873 164.535 272.535 164.82 272.272C164.826 272.267 164.832 272.262 164.837 272.256C165.379 271.751 165.181 270.847 164.483 270.6L113.299 252.452C113.299 252.452 82.2143 245.534 57.3249 214.193C57.3249 214.193 -14.8358 127.893 16.8805 52.0058C16.8805 52.0058 34.2401 6.47051 73.4814 9.35704C77.1515 9.627 81.7783 12.8843 84.5674 14.9776C91.3833 20.0931 95.315 27.726 94.6995 36.3317C94.4733 39.4947 91.7678 39.1299 89.4656 39.7558C86.4579 40.5736 83.3422 42.4253 80.7288 44.1027C75.0735 47.7325 70.2676 52.6963 66.8882 58.5095C61.9716 66.9668 60.1118 77.1589 61.7245 86.8076C63.8541 86.3873 65.844 85.9968 67.9736 85.5763C67.889 77.4509 69.1717 69.3008 72.7185 61.9897C76.2652 54.6786 82.614 48.4475 90.4859 46.432C98.3579 44.4164 107.625 47.3353 111.849 54.2771C114.468 58.5825 114.979 63.8256 115.049 68.8647C115.143 75.523 114.581 82.1903 113.374 88.7391C113.571 86.9391 113.768 85.1392 113.965 83.3393" stroke="white" stroke-opacity="0.8" stroke-width="2.24706" stroke-miterlimit="10"/>
<path d="M61.7246 86.8071L63.1825 182.956C63.1825 182.956 61.359 206.202 93.7712 201.855L93.6527 199.584C93.6527 199.584 71.0624 203.012 66.9674 182.759L64.9866 86.1646" stroke="white" stroke-opacity="0.8" stroke-width="2.24706" stroke-miterlimit="10"/>
<path d="M94.3976 199.308C94.3976 199.308 101.676 194.232 105.678 197.296C105.678 197.296 109.329 201.803 106.115 205.671C106.115 205.671 99.7594 208.422 93.8184 202.754L94.3976 199.308Z" stroke="white" stroke-opacity="0.8" stroke-width="2.24706" stroke-miterlimit="10"/>
<path d="M117.66 88.9323L99.5377 181.572C97.2659 193.184 86.7174 201.396 74.916 200.535C71.2545 200.267 67.1697 199.246 62.6719 197.119L63.5665 195.028C63.5665 195.028 84.0233 203.74 94.5865 183.965C95.275 182.676 95.7652 181.29 96.0421 179.855L113.875 87.4551" stroke="white" stroke-opacity="0.8" stroke-width="2.24706" stroke-miterlimit="10"/>
<path d="M62.964 194.513C62.964 194.513 57.8836 187.237 53.0696 188.733C53.0696 188.733 48.0885 191.703 49.7709 196.442C49.7709 196.442 54.7876 201.217 62.319 197.947L62.964 194.513Z" stroke="white" stroke-opacity="0.8" stroke-width="2.24706" stroke-miterlimit="10"/>
<path d="M113.221 118.769L118.59 139.265" stroke="white" stroke-opacity="0.8" stroke-width="2.24706" stroke-miterlimit="10"/>
<path d="M115.824 127.456L124.589 123.299" stroke="white" stroke-opacity="0.8" stroke-width="2.24706" stroke-miterlimit="10"/>
<path d="M122.201 115.738L126.884 134.564" stroke="white" stroke-opacity="0.8" stroke-width="2.24706" stroke-miterlimit="10"/>
<path d="M187.322 86.4487L189.087 107.563" stroke="white" stroke-opacity="0.8" stroke-width="2.24706" stroke-miterlimit="10"/>
<path d="M188.393 95.4554L197.742 92.8672" stroke="white" stroke-opacity="0.8" stroke-width="2.24706" stroke-miterlimit="10"/>
<path d="M196.689 85.0088L198.064 104.36" stroke="white" stroke-opacity="0.8" stroke-width="2.24706" stroke-miterlimit="10"/>
<path d="M143.421 124.167L134.231 128.061L131.496 113.83L140.089 109.397" stroke="white" stroke-opacity="0.8" stroke-width="2.24706" stroke-miterlimit="10"/>
<path d="M132.914 121.211L139.43 118.61" stroke="white" stroke-opacity="0.8" stroke-width="2.24706" stroke-miterlimit="10"/>
<path d="M163.31 175.551L154.12 179.445L151.385 165.214L159.977 160.781" stroke="white" stroke-opacity="0.8" stroke-width="2.24706" stroke-miterlimit="10"/>
<path d="M152.803 172.595L159.319 169.995" stroke="white" stroke-opacity="0.8" stroke-width="2.24706" stroke-miterlimit="10"/>
<path d="M148.434 122.055L150.194 106.688L159.076 118.716" stroke="white" stroke-opacity="0.8" stroke-width="2.24706" stroke-miterlimit="10"/>
<path d="M149.314 114.371L154.316 112.269" stroke="white" stroke-opacity="0.8" stroke-width="2.24706" stroke-miterlimit="10"/>
<path d="M158.258 103.041L162.88 116.178L172.637 111.313" stroke="white" stroke-opacity="0.8" stroke-width="2.24706" stroke-miterlimit="10"/>
<path d="M167.953 158.132L168.871 175.674L181.284 172.653" stroke="white" stroke-opacity="0.8" stroke-width="2.71853" stroke-miterlimit="10"/>
<path d="M179.588 152.265L180.505 169.806L192.919 166.786" stroke="white" stroke-opacity="0.8" stroke-width="2.71853" stroke-miterlimit="10"/>
<path d="M178.03 111.032L174.875 99.6449L174.746 97.1807" stroke="white" stroke-opacity="0.8" stroke-width="2.46116" stroke-miterlimit="10"/>
<path d="M167.207 99.9752L182.854 94.3569" stroke="white" stroke-opacity="0.8" stroke-width="2.24706" stroke-miterlimit="10"/>
<path d="M153.416 143.997L163.244 123.133L167.176 140.29" stroke="white" stroke-opacity="0.8" stroke-width="2.46116" stroke-miterlimit="10"/>
<path d="M157.988 134.288L166.768 132.484" stroke="white" stroke-opacity="0.8" stroke-width="2.46116" stroke-miterlimit="10"/>
<path d="M174.07 138.789L173.227 122.612L184.956 134.666L184.967 118.495" stroke="white" stroke-opacity="0.8" stroke-width="2.46116" stroke-miterlimit="10"/>
<path d="M192.289 116.983L193.061 131.785C193.061 131.785 206.442 131.838 207.479 118.975C207.479 118.975 205.739 105.586 192.289 116.983Z" stroke="white" stroke-opacity="0.8" stroke-width="2.46116" stroke-miterlimit="10"/>
<path d="M118.268 174.295C118.268 174.295 129.654 187.649 129.698 188.5C129.742 189.352 135.517 171.118 135.517 171.118L140.85 184.015L147.373 167.195" stroke="white" stroke-opacity="0.8" stroke-width="2.46116" stroke-miterlimit="10"/>
<path d="M199.449 165.284L199.938 147.263L209.593 159.495L208.753 143.388" stroke="white" stroke-opacity="0.8" stroke-width="2.71853" stroke-miterlimit="10"/>
<path d="M223.786 153.309L215.77 157.87L216.298 140.717L221.603 138.732" stroke="white" stroke-opacity="0.8" stroke-width="2.71853" stroke-miterlimit="10"/>
<path d="M216.035 149.294L222.019 146.681" stroke="white" stroke-opacity="0.8" stroke-width="2.71853" stroke-miterlimit="10"/>
<path d="M233.841 133.252C233.841 133.252 224.025 133.339 225.877 137.751C226.467 139.157 227.819 140.09 229.337 140.23C232.428 140.515 238.662 141.551 238.3 145.269C238.265 145.632 238.237 145.995 238.235 146.36C238.23 147.845 237.418 152.04 228.612 153.057" stroke="white" stroke-opacity="0.8" stroke-width="2.71853" stroke-miterlimit="10"/>
<path d="M248.84 125.128C248.84 125.128 239.023 125.215 240.875 129.627C241.465 131.033 242.817 131.966 244.335 132.106C247.426 132.391 253.661 133.427 253.299 137.145C253.263 137.508 253.235 137.871 253.233 138.236C253.228 139.721 252.417 143.916 243.611 144.933" stroke="white" stroke-opacity="0.8" stroke-width="2.71853" stroke-miterlimit="10"/>
</svg>
