<svg viewBox="0 0 112 113" fill="none" xmlns="http://www.w3.org/2000/svg">
<path d="M70.4676 0.548172C64.6682 1.33585 59.7442 3.43632 55.0391 7.11214C44.6003 15.2733 40.3766 29.2327 44.5347 41.8793C46.2635 47.218 49.6775 52.3817 53.8355 55.9481C57.9935 59.5364 63.0488 62.0526 68.1478 63.1028C73.0499 64.1312 82.482 64.1312 86.8589 63.1028L88.2595 62.7746L92.6801 67.1725C96.9257 71.3734 97.1445 71.5485 97.9542 71.5485C98.8515 71.5485 99.5737 71.089 99.9895 70.3013C100.143 69.995 100.23 67.6976 100.23 63.3435V56.867L102.375 54.7447C105.482 51.6815 107.824 48.312 109.378 44.7456C115.112 31.4645 111.216 15.9516 99.9019 7.11214C95.1312 3.37068 90.251 1.33585 84.2765 0.526292C81.3659 0.154334 73.3344 0.154334 70.4676 0.548172ZM85.4802 5.09919C93.9932 6.91522 100.952 12.2539 104.848 19.9338C105.701 21.6623 106.883 25.2506 107.255 27.3511C107.627 29.364 107.627 34.8121 107.255 36.7594C106.03 43.3453 102.834 48.7277 97.3852 53.4319L95.9628 54.6572L95.8315 64.1749L92.7895 61.1555L89.7476 58.158L88.8066 58.2673C88.2814 58.3111 86.8808 58.5956 85.6771 58.88C83.7076 59.3395 82.9416 59.3832 77.7988 59.3832C70.1393 59.4051 67.4037 58.88 62.6767 56.5607C54.9078 52.7536 49.5899 45.8396 47.7954 37.197C47.314 34.8996 47.2483 29.736 47.686 27.3511C49.2179 18.796 54.7546 11.4006 62.5673 7.44034C64.4713 6.49951 68.0165 5.36175 70.0299 5.05543C70.9271 4.92415 71.9119 4.77099 72.2183 4.72723C73.597 4.48655 83.992 4.79287 85.4802 5.09919Z" fill="#3A5BFF"/>
<path d="M75.6104 15.9298C73.7283 16.4987 72.9405 16.9582 71.6274 18.2928C70.008 19.912 69.0889 21.903 68.9794 24.0254C68.8919 25.5351 68.9138 25.6664 69.5047 26.279C70.2925 27.1104 71.4743 27.1542 72.3934 26.3665C72.8967 25.9289 73.0718 25.557 73.2688 24.3755C73.5533 22.6032 74.2754 21.4436 75.5666 20.6996C77.5581 19.5181 79.9216 19.8026 81.4754 21.3998C84.1234 24.1348 83.0948 28.1388 79.3526 29.5172C76.3545 30.6331 75.9387 31.4208 75.9387 36.0593C75.9387 38.0723 76.0262 39.582 76.1794 39.9102C76.3326 40.2165 76.7703 40.6103 77.1861 40.8073C77.8645 41.1355 78.0614 41.1355 78.7617 40.8729C80.031 40.3916 80.3155 39.5601 80.3155 36.3656C80.3155 34.3746 80.3812 33.6963 80.6 33.6963C81.3222 33.6963 83.5982 32.3397 84.6048 31.3114C89.1568 26.6728 87.7781 19.1899 81.8912 16.4768C79.8559 15.536 77.6019 15.3391 75.6104 15.9298Z" fill="#3A5BFF"/>
<path d="M77.5361 45.4457C76.7701 45.5989 75.9385 46.7366 75.9385 47.6337C75.9385 49.3185 78.1926 50.3468 79.4182 49.2091C81.1032 47.6337 79.8121 45.03 77.5361 45.4457Z" fill="#3A5BFF"/>
<path d="M12.1459 38.6413C11.3143 38.8163 9.69485 39.4289 8.55686 39.954C6.84989 40.7855 6.17147 41.2668 4.5958 42.8422C2.95448 44.4613 2.53868 45.0521 1.68519 46.8243C-0.0436669 50.4126 0.000101654 49.8656 0.000101654 70.4546C0.000101654 91.0436 -0.0436669 90.4966 1.68519 94.0849C2.53868 95.8572 2.95448 96.448 4.5958 98.0671C6.17147 99.6424 6.84989 100.124 8.55686 100.933C11.7301 102.487 12.8024 102.618 21.1622 102.618H28.3403L32.4983 106.797C37.9912 112.333 38.4727 112.661 39.8952 112.005C40.9894 111.501 41.1426 110.867 41.1426 106.578V102.618H52.5224C65.5655 102.618 65.9594 102.574 69.3733 100.933C71.1241 100.102 71.7587 99.6424 73.3344 98.0452C74.932 96.4698 75.3915 95.8353 76.2231 94.0849C77.8426 90.7373 77.9301 89.9059 77.8644 79.9067L77.7988 71.2861L77.0547 70.6297C76.442 70.0827 76.2012 69.9951 75.5228 70.1046C75.0195 70.1702 74.5162 70.4765 74.1441 70.8922L73.5313 71.5486V80.038C73.5313 89.3589 73.4876 89.8402 72.1964 92.3783C71.3648 94.0412 69.4171 96.0322 67.8414 96.8199C65.1278 98.1983 66.0907 98.1108 51.4939 98.2421L38.0788 98.3515L37.4879 98.9641C36.897 99.533 36.8751 99.6862 36.7657 102.093L36.6563 104.609L33.8113 101.743C32.2576 100.146 30.7694 98.7235 30.5287 98.5484C30.1786 98.3077 28.581 98.2421 22.1032 98.2421C15.713 98.2421 13.8529 98.1765 12.8462 97.9139C8.79759 96.8637 5.75567 93.8224 4.70523 89.7746C4.22377 87.9148 4.22377 52.9945 4.70523 51.1347C5.75567 47.0869 8.79759 44.0456 12.8462 42.9954C13.8747 42.7328 16.1726 42.6672 26.0862 42.6672H38.0788L38.7791 42.0326C39.37 41.5075 39.5013 41.245 39.5013 40.4792C39.5013 39.7134 39.37 39.4508 38.7791 38.9257L38.0788 38.2912L25.8673 38.3131C16.0194 38.3131 13.3933 38.3787 12.1459 38.6413Z" fill="#3A5BFF"/>
<path d="M13.2401 55.9922C11.8395 56.5829 11.4675 58.3989 12.5398 59.4492L13.1307 60.0618L29.8722 60.1275L46.5918 60.1712L47.3139 59.5367C47.9048 59.0116 48.0361 58.749 48.0361 57.9832C48.0361 57.2174 47.9048 56.9549 47.3139 56.4297L46.6136 55.7952L30.1348 55.8171C21.0966 55.8171 13.4808 55.9046 13.2401 55.9922Z" fill="#3A5BFF"/>
<path d="M13.2401 68.2448C11.8395 68.8355 11.4675 70.6516 12.5398 71.7018L13.1307 72.3144L60.8166 72.4239L61.5387 71.7893C62.1296 71.2642 62.2609 71.0017 62.2609 70.2359C62.2609 69.4701 62.1296 69.2075 61.5387 68.6824L60.8384 68.0479L37.2472 68.0697C24.2917 68.0697 13.4808 68.1573 13.2401 68.2448Z" fill="#3A5BFF"/>
<path d="M13.2401 80.4977C11.8395 81.0885 11.4675 82.9045 12.5398 83.9547L13.1307 84.5674L32.5639 84.6111C47.7516 84.6549 52.0847 84.6111 52.5224 84.3923C52.8288 84.2392 53.2446 83.7578 53.4634 83.2983C53.8574 82.5107 53.8574 82.4669 53.4634 81.6792C53.2446 81.2197 52.8288 80.7384 52.5224 80.5852C52.1066 80.3664 47.6641 80.3008 32.8265 80.3227C22.3002 80.3227 13.4808 80.4102 13.2401 80.4977Z" fill="#3A5BFF"/>
<path d="M59.416 80.4974C58.0154 81.0882 57.6434 82.9042 58.7157 83.9544C60.0288 85.2891 62.261 84.3702 62.261 82.4885C62.261 81.0444 60.6853 79.9504 59.416 80.4974Z" fill="#3A5BFF"/>
</svg>
