<svg viewBox="0 0 92 113" fill="none" xmlns="http://www.w3.org/2000/svg">
<path d="M41.3507 0.990071C38.7801 1.27456 34.9025 2.19366 32.2665 3.13464C29.6306 4.07563 26.3193 5.65123 25.7311 6.24208C25.1211 6.85482 25.2083 8.03652 25.9054 8.58361C26.2322 8.84621 26.6025 9.04316 26.755 9.04316C26.9075 9.04316 28.1274 8.51796 29.4999 7.86146C43.9649 0.990072 60.5865 3.57231 72.0017 14.4921C84.7021 26.6155 87.5777 45.7197 79.0164 60.9506C71.4135 74.4745 56.3821 82.068 41.1764 80.0548C33.0072 78.9825 25.949 75.5468 19.8275 69.682C13.9238 63.9924 10.1551 56.8802 8.65195 48.5427C8.10734 45.5009 8.10734 38.8921 8.65195 35.8503C10.1333 27.644 13.8149 20.6195 19.675 14.8423C20.8949 13.6387 21.9842 12.4789 22.0931 12.26C22.5723 11.3847 21.701 10.1373 20.6335 10.1373C20.0889 10.1373 19.6096 10.4218 18.4333 11.4284C15.0131 14.4265 11.68 18.8907 9.32728 23.5956C5.01392 32.2833 3.83755 41.1461 5.7546 50.6654C7.06168 57.2304 10.6561 64.4957 14.9913 69.3757L16.1894 70.7324L13.7931 74.934C12.4861 77.2537 11.3968 79.3107 11.3968 79.5514C11.3968 80.1861 12.3771 81.0395 13.096 81.0395C13.9456 81.0395 14.2506 80.7331 15.3181 78.8512C15.8409 77.954 16.7776 76.2908 17.4312 75.1748L18.6075 73.1615L20.176 74.4307C23.9012 77.4944 28.4106 79.9672 33.0072 81.4991C34.5975 82.0243 35.9481 82.4838 35.9917 82.5057C36.1006 82.5714 22.202 106.84 22.0495 106.862C21.9842 106.862 21.1128 104.28 20.1325 101.107C19.1304 97.9554 18.1718 95.1981 17.9976 94.9792C17.4747 94.4103 16.6687 94.4978 10.6997 95.8108C7.69343 96.4673 5.1882 96.9706 5.12284 96.9269C5.07927 96.8612 6.36457 94.4759 7.99841 91.6092C11.1572 86.0727 11.2661 85.7663 10.264 84.9129C9.74119 84.4752 8.80445 84.4314 8.3034 84.8253C7.93306 85.1098 0.635205 97.7147 0.177727 98.8745C0.025235 99.2246 -0.040119 99.6842 0.025235 99.8592C0.199512 100.406 0.983759 101.172 1.37588 101.172C1.57194 101.172 4.86143 100.472 8.67374 99.6404C12.4861 98.7869 15.6448 98.1523 15.7102 98.1961C15.7537 98.2617 16.7776 101.391 17.954 105.155C19.4789 109.991 20.2632 112.114 20.5682 112.377C21.2435 112.945 22.0277 112.858 22.6813 112.158C23.008 111.829 26.9075 105.177 31.3298 97.3864L39.3901 83.2279L40.915 83.4029C42.9192 83.5999 49.215 83.5999 51.1538 83.381L52.6787 83.206L57.5803 91.8061C60.2816 96.533 62.6561 100.559 62.8739 100.778C63.4621 101.391 64.6385 101.304 65.1831 100.603C65.4445 100.275 65.6406 99.8592 65.6406 99.6623C65.6406 99.4653 63.4839 95.5263 60.848 90.9089C58.212 86.2915 56.0771 82.4838 56.0989 82.4619C56.1425 82.44 56.796 82.2431 57.5803 82.0243C62.5472 80.58 68.1676 77.5819 72.1978 74.2338C72.9384 73.5992 73.592 73.1615 73.6355 73.2928C73.6791 73.4022 76.729 78.7636 80.4324 85.1974C84.1357 91.6311 87.142 96.9269 87.1202 96.9487C87.1202 96.9487 84.4625 96.4016 81.2384 95.6795C78.0143 94.9792 75.204 94.3884 75.008 94.3884C74.0495 94.3884 73.9188 94.7166 71.0432 103.842L70.1064 106.862L69.344 105.812C68.4944 104.674 67.7101 104.411 66.8605 104.98C65.8584 105.636 65.9456 106.271 67.4051 108.919C69.3658 112.442 69.4529 112.552 70.3679 112.552C71.8056 112.552 71.566 113.099 75.313 101.15L76.3151 97.9773L83.0247 99.4653C86.7063 100.275 90.0394 100.975 90.4533 100.997C91.3465 101.041 92 100.363 92 99.3997C92 98.9839 89.4512 94.3446 84.114 85.0442C79.8006 77.4944 76.2061 71.1263 76.1408 70.9075C76.0754 70.6887 76.3586 70.1853 76.8815 69.5945C79.1688 67.0998 81.3255 63.8392 83.0901 60.1409C90.0612 45.676 88.0134 28.4318 77.84 15.9364C76.0101 13.6824 72.1106 10.0279 69.7579 8.34289C67.3398 6.59222 63.1136 4.382 60.1509 3.26594C54.4651 1.14326 47.4286 0.289803 41.3507 0.990071Z" fill="#3A5BFF"/>
<path d="M41.2418 12.4352C28.6285 14.5798 18.6511 24.5149 16.538 37.0978C16.0587 39.8551 16.0587 44.5382 16.538 47.2955C18.3897 58.2809 26.1232 67.2969 36.7324 70.8639C39.7168 71.8705 42.4835 72.2863 46.1433 72.2863C53.4194 72.2863 59.7805 69.9667 65.3574 65.2399C68.7558 62.3731 72.8295 56.8804 72.8295 55.1516C72.8295 54.4295 71.9581 53.6854 71.1303 53.6854C70.3678 53.6854 70.5203 53.5104 68.0151 57.3618C64.9435 62.0887 59.8241 65.9401 54.1819 67.8002C49.2367 69.4196 42.8538 69.4196 37.8869 67.8002C33.9439 66.5091 30.3712 64.2989 27.3432 61.3009C21.6356 55.6331 18.9561 48.3897 19.4789 40.074C20.0889 30.9048 25.8182 22.3703 34.2271 18.1468C40.3922 15.0394 47.8643 14.5142 54.3997 16.7244C63.6582 19.8318 70.4768 27.7536 72.2849 37.4917C72.677 39.6144 72.7424 44.3412 72.3938 46.3545C72.0888 48.1927 72.1106 48.4991 72.6117 49.0462C73.2434 49.7245 74.398 49.7027 74.9644 48.9805C75.5526 48.2365 75.9011 45.6542 75.9011 42.131C75.9011 38.9579 75.6833 37.2291 74.899 34.3186C71.9146 22.983 62.3511 14.3172 50.7181 12.4352C48.3653 12.0413 43.5074 12.0413 41.2418 12.4352Z" fill="#3A5BFF"/>
<path d="M45.2066 22.9829C45.0541 23.0485 43.7688 25.4119 42.3528 28.2787L39.7604 33.4431L34.3578 34.2091C29.282 34.9312 28.8899 35.0187 28.3453 35.5658C27.256 36.6162 27.3868 36.8132 31.8526 41.2774L35.9917 45.3915L35.0114 51.0155C34.0311 56.5739 34.0311 56.6176 34.445 57.1647C35.251 58.2589 35.8174 58.1057 41.0239 55.3484C43.6599 53.9479 45.9037 52.8099 46.0562 52.8099C46.1869 52.8099 48.4307 53.9479 51.0449 55.3484C56.2296 58.1057 56.8178 58.2589 57.6238 57.1647C58.0378 56.6176 58.0378 56.5739 57.0574 51.0155L56.0771 45.4133L60.2162 41.2774C63.0482 38.4325 64.3335 37.0101 64.3335 36.6819C64.3335 36.4193 64.1157 35.9378 63.8325 35.6096C63.3532 35.0625 63.07 34.9969 57.8199 34.2309L52.2866 33.4431L49.8032 28.41C48.4307 25.6308 47.1454 23.2455 46.9494 23.0923C46.6008 22.8297 45.7294 22.764 45.2066 22.9829ZM47.995 32.1739C49.0189 34.2966 50.0428 36.1348 50.2824 36.288C50.631 36.5068 58.016 37.7104 58.9963 37.7104C59.127 37.7104 57.7763 39.1109 55.99 40.8397C53.0491 43.7064 52.7877 44.0128 52.7877 44.7131C52.7877 45.1507 53.0926 47.2078 53.4412 49.2867C53.8115 51.3656 54.073 53.1163 54.0512 53.1382C54.0076 53.1819 52.3302 52.3066 50.2824 51.2124C48.2565 50.1183 46.3394 49.2429 46.0344 49.2429C45.7294 49.2429 43.8342 50.1402 41.7864 51.2343C39.7604 52.3285 38.0612 53.1819 38.0177 53.1382C37.9959 53.1163 38.2573 51.3656 38.6276 49.2867C38.9762 47.2078 39.2812 45.1507 39.2812 44.7131C39.2812 44.0128 39.0415 43.7064 36.0788 40.8397C34.2925 39.1109 32.9636 37.7104 33.0725 37.7104C34.0746 37.7104 41.4379 36.5068 41.7864 36.288C42.026 36.1348 43.0717 34.2747 44.0738 32.1739C45.0977 30.0512 45.9691 28.3224 46.0344 28.3224C46.0998 28.3224 46.9712 30.0512 47.995 32.1739Z" fill="#3A5BFF"/>
</svg>
