<svg viewBox="0 0 114 113" fill="none" xmlns="http://www.w3.org/2000/svg">
<path d="M55.8894 1.03015C53.9517 2.09605 54.7758 5.16052 56.9808 5.16052C58.1167 5.16052 59.2081 4.07241 59.2081 2.96209C59.2081 1.29662 57.3594 0.208516 55.8894 1.03015Z" fill="#3A5BFF"/>
<path d="M28.7608 7.27032C27.8476 7.64783 27.2239 8.84697 27.4467 9.73522C27.6248 10.4458 42.8151 25.8126 43.8842 26.3899C44.7751 26.8563 45.5102 26.7674 46.2674 26.1234C47.1806 25.3684 47.3811 24.2803 46.7797 23.3255C46.067 22.1929 31.1217 7.42576 30.409 7.1815C29.6294 6.89281 29.6294 6.89281 28.7608 7.27032Z" fill="#3A5BFF"/>
<path d="M83.3745 7.29208C82.6172 7.66959 68.4292 21.6595 67.4269 23.0141C66.5583 24.1911 66.5805 24.9905 67.5383 25.9454C68.3624 26.767 69.0974 26.9002 70.0774 26.3895C71.1465 25.8121 86.3368 10.4454 86.515 9.73477C86.7377 8.82432 86.114 7.64738 85.1563 7.24767C84.2208 6.87016 84.1986 6.87016 83.3745 7.29208Z" fill="#3A5BFF"/>
<path d="M56.179 9.80139C55.9117 9.91242 55.4885 10.2899 55.2212 10.623C54.7758 11.2004 54.7535 11.4002 54.7535 18.0843C54.7535 25.5234 54.798 25.9009 55.9785 26.4339C56.7135 26.767 57.2481 26.767 57.9831 26.4339C59.1636 25.9009 59.2081 25.5234 59.2081 18.0621V11.156L58.6067 10.4898C57.9386 9.77918 56.9363 9.4905 56.179 9.80139Z" fill="#3A5BFF"/>
<path d="M22.3238 22.9478C21.5443 23.3475 0.317991 49.7064 0.0952594 50.5724C-0.0383793 51.0832 -0.0383793 51.5273 0.139806 51.8826C0.273444 52.1713 2.94622 54.614 6.08673 57.3009L11.7886 62.1863L16.6887 68.7594C19.3615 72.379 21.5665 75.399 21.5665 75.4879C21.5665 75.5545 21.277 76.0874 20.8984 76.6426C18.9383 79.7071 19.2947 83.5932 21.7893 86.3023C22.8138 87.4126 25.0634 88.6562 26.0657 88.6562C26.6894 88.6562 26.6894 88.6562 26.6894 90.0996C26.6894 91.01 26.8675 91.9871 27.1571 92.8088C28.0926 95.3403 31.2999 97.7608 33.6831 97.7608C34.5072 97.7608 34.7077 98.0272 34.7077 99.1153C34.7077 99.4706 34.8859 100.181 35.0863 100.692C36.3114 103.823 38.9841 105.733 42.3696 105.866L43.7283 105.91L43.8842 106.732C44.3519 108.931 46.067 111.062 48.2497 112.128C49.3634 112.683 49.7643 112.75 51.6353 112.75C53.5285 112.75 53.8848 112.683 54.954 112.128C55.5999 111.773 56.6244 111.04 57.2035 110.507C57.7826 109.974 58.3172 109.53 58.384 109.53C58.4731 109.53 58.9854 109.863 59.5422 110.285C62.705 112.706 67.0483 112.484 69.8769 109.752C70.9906 108.664 71.8593 106.976 72.1711 105.311L72.3938 104.045L73.5297 103.912C76.8039 103.512 79.5658 100.781 80.1894 97.3166L80.4121 96.0509L81.5481 95.9176C84.8445 95.5179 87.5841 92.8088 88.2077 89.3002C88.4082 88.0788 88.475 87.99 89.0318 87.99C91.0141 87.99 93.6869 86.4356 94.9119 84.5924C96.4933 82.2164 96.7606 79.4406 95.6247 76.9535L95.0901 75.7988L98.6984 68.2708L102.329 60.7429L107.964 55.9019C111.06 53.2372 113.688 50.8167 113.8 50.528C113.911 50.2393 114 49.7508 114 49.4621C114 48.8403 94.7337 23.7028 93.776 23.0811C93.3974 22.8368 92.9296 22.7257 92.4619 22.7924C92.061 22.8368 89.0541 24.6133 85.4459 26.9005L79.098 30.9199H62.7273L56.5576 32.6964C53.1498 33.6734 50.1652 34.4729 49.9425 34.4729C49.7198 34.4507 46.7129 33.6957 43.2828 32.7408L37.0464 31.0309L30.6317 26.9671C24.2393 22.9034 23.3039 22.4593 22.3238 22.9478ZM28.0703 30.609C30.3199 32.0302 32.2799 33.3181 32.4358 33.4736C32.6808 33.6957 31.0326 35.8275 23.0588 45.4872C17.7578 51.9492 13.2809 57.2343 13.1473 57.2343C12.6796 57.2343 5.32944 50.8167 5.48535 50.5502C5.88627 49.9062 23.7048 28.0331 23.8384 28.0331C23.9275 28.0331 25.843 29.1878 28.0703 30.609ZM100.413 38.6032C104.89 44.4213 108.543 49.24 108.543 49.3289C108.543 49.5065 101.059 55.9908 100.859 56.013C100.792 56.013 96.7829 51.0165 91.9719 44.8876C84.6217 35.561 83.2631 33.7179 83.5081 33.4736C83.8867 33.1183 91.9942 28.0331 92.1723 28.0331C92.2392 28.0553 95.9365 32.8074 100.413 38.6032ZM88.2968 47.4858C93.5533 54.1476 97.8297 59.6548 97.8074 59.7436C97.7406 60.0101 91.9273 72.1125 91.816 72.2013C91.7492 72.268 85.9804 66.6054 78.9644 59.6326C66.4914 47.2193 66.2019 46.9528 65.2219 46.8196C64.665 46.7529 61.6136 46.5309 58.4286 46.331C53.2612 45.9757 52.5707 45.9757 51.9916 46.2866C51.5239 46.5309 50.5439 48.0409 48.027 52.4822C46.2006 55.7021 44.5301 58.5223 44.3297 58.7665C42.8819 60.3654 40.0755 60.0545 38.9396 58.1892C38.405 57.3009 38.3605 55.8131 38.8505 54.836C39.0509 54.4363 41.011 50.9499 43.216 47.0638L47.2252 40.0244L48.3834 39.6913C49.007 39.5137 52.5707 38.47 56.3126 37.3819L63.1059 35.4055L78.7416 35.3611L88.2968 47.4858ZM39.4964 36.3382C40.6101 36.6269 41.9242 36.9822 42.4587 37.1376C42.971 37.2709 43.3942 37.4485 43.3942 37.5595C43.3942 37.6484 41.5901 40.9127 39.3628 44.821C34.3736 53.5703 34.329 53.7035 34.084 55.2135C33.5495 58.5889 35.22 61.8754 38.3159 63.4965C39.385 64.0516 39.6969 64.1183 41.8351 64.1183C43.9733 64.1183 44.2851 64.0516 45.3542 63.4965C47.292 62.475 48.0493 61.4979 51.2789 55.8131L54.3526 50.4392L55.1544 50.5502C55.6222 50.6168 57.8495 50.7945 60.1436 50.9277L64.2864 51.1942L77.873 64.7622C89.9673 76.8202 91.5041 78.4413 91.7269 79.2629C92.4619 82.0831 89.5664 84.4814 86.9827 83.1934C86.5818 82.9936 82.8176 79.3518 78.5857 75.0882L70.9015 67.3159L69.9438 67.3382C68.4292 67.3382 67.4046 68.6705 67.761 70.1361C67.8724 70.5137 70.8792 73.6892 75.668 78.5301C84.0872 86.9685 84.154 87.0573 83.7085 88.9449C83.2408 91.01 80.8576 92.1204 78.9644 91.1877C78.5635 91.01 75.8907 88.4563 73.0175 85.5251L67.7833 80.1956L66.7587 80.2178C65.3332 80.2178 64.5537 80.9728 64.5537 82.394V83.3933L69.9883 88.856C74.5098 93.3861 75.4675 94.4742 75.668 95.207C76.3362 97.7608 74.1979 99.937 71.5252 99.4262C70.8347 99.293 70.0997 98.6934 67.3378 95.9621C64.2196 92.8754 63.9523 92.6533 63.1505 92.6533C61.5245 92.6533 60.4554 94.0523 60.99 95.4513C61.1236 95.8066 62.6159 97.4943 64.3309 99.2042C67.761 102.668 68.0951 103.246 67.6496 105.022C67.026 107.443 64.0637 108.287 62.0368 106.621L61.2127 105.955L61.6136 105.244C61.9032 104.711 61.9923 104.001 61.9923 102.313C61.9923 100.314 61.9254 99.9814 61.3686 98.8711C60.3218 96.8281 58.629 95.4069 56.5131 94.7851L55.5999 94.5186L55.5553 92.6311C55.5108 90.4549 54.8871 88.856 53.5285 87.346C52.5039 86.2357 50.3657 85.1476 48.7843 84.9477C47.7152 84.8367 47.6261 84.7701 47.6261 84.2149C47.6261 83.3489 47.0024 81.3725 46.4233 80.4621C45.7106 79.3518 44.196 78.0416 42.971 77.4864C42.1915 77.1311 41.501 77.0201 39.9864 76.9979H38.0487L37.8037 76.1096C37.2246 73.9112 35.22 71.735 33.0149 70.9134C31.9235 70.4914 31.389 70.4248 29.8076 70.4914C27.9589 70.5803 26.823 70.98 25.3084 72.0459C24.9743 72.2902 24.863 72.2458 24.5957 71.8904C24.4175 71.6462 22.502 69.0925 20.3638 66.2278C18.2033 63.3632 16.466 60.8761 16.5105 60.7207C16.5996 60.1877 36.9795 35.6054 37.2468 35.6942C37.3805 35.7386 38.405 36.0273 39.4964 36.3382ZM32.0572 75.399C33.4381 76.3095 33.9504 78.0638 33.2822 79.6182C32.7922 80.773 29.4067 83.904 28.3376 84.1927C26.6225 84.6591 24.9966 83.793 24.3507 82.1053C23.7048 80.4621 23.9943 79.7515 26.088 77.5975C27.0903 76.5538 28.2262 75.5323 28.5826 75.3102C29.5403 74.7106 31.0994 74.7551 32.0572 75.399ZM41.3005 81.6834C42.6815 82.3496 43.3719 83.8152 43.0601 85.4807C42.9265 86.1691 42.3696 86.8797 39.7637 89.5C38.0264 91.2543 36.3336 92.831 35.9995 93.0086C35.1309 93.4527 33.6163 93.4083 32.7477 92.8754C31.2999 91.9871 30.6985 89.9219 31.4558 88.4785C31.9013 87.6347 37.8259 81.8389 38.4941 81.5724C39.3405 81.2393 40.4542 81.2837 41.3005 81.6834ZM49.0293 89.6333C50.6107 90.2772 51.4793 92.1204 51.0116 93.7192C50.633 94.9184 44.5079 100.958 43.3497 101.269C41.4342 101.78 39.4296 100.47 39.2291 98.5824C39.1623 98.0272 39.1846 97.2944 39.2737 96.9391C39.4519 96.1841 45.4211 90.0774 46.4011 89.6333C47.2697 89.2558 48.1384 89.2558 49.0293 89.6333ZM55.9562 99.3818C57.4931 100.248 58.0722 102.224 57.2926 103.867C57.0922 104.289 56.1122 105.422 55.0876 106.399C53.7289 107.709 53.0162 108.22 52.4371 108.309C51.1898 108.553 50.0761 108.242 49.2743 107.443C48.6061 106.777 48.0047 105.355 48.1829 104.8C48.2275 104.645 48.3166 104.245 48.4057 103.89C48.4948 103.49 49.2298 102.513 50.2543 101.469C52.7489 98.8933 54.1967 98.3603 55.9562 99.3818Z" fill="#3A5BFF"/>
</svg>
