<svg viewBox="0 0 112 113" fill="none" xmlns="http://www.w3.org/2000/svg">
<path d="M21.2645 0.960006C17.9229 1.56743 14.9552 3.13272 12.3614 5.72596C10.2817 7.82859 9.04325 9.79105 8.08518 12.5946L7.47762 14.3935L7.36079 90.4385H11.0996V53.4556C11.0996 28.2241 11.1697 16.0288 11.3566 15.071C11.7539 12.7815 13.1793 10.1648 14.9552 8.38929C16.7312 6.59038 19.4652 5.11854 21.7085 4.72137C23.5779 4.37094 41.641 4.37094 43.4871 4.72137C48.885 5.67924 53.3715 10.562 54.0025 16.1457L54.166 17.5474H57.9048L57.7179 15.8653C57.344 11.9871 55.7317 8.66964 52.8107 5.74933C50.6843 3.62334 48.7448 2.38512 46.0341 1.49734L44.1647 0.866556L33.2988 0.819831C27.3167 0.796468 21.9188 0.866556 21.2645 0.960006Z" fill="#3A5BFF"/>
<path d="M101.812 1.03035C100.995 1.4976 93.3534 13.0854 93.3534 13.8797C93.3534 14.2535 93.5871 14.7675 93.9376 15.0946C94.4751 15.6553 94.6153 15.6787 97.6764 15.6787H100.831L100.714 98.7325L100.177 100.181C99.0318 103.241 96.6015 106.115 94.0778 107.447C91.04 109.035 91.3205 109.012 79.3329 109.012C69.3549 109.012 68.3735 108.965 67.1818 108.568C62.2278 106.886 58.7227 102.844 58.0217 97.9381L57.7413 96.0458H54.0258L54.2128 97.7279C54.5866 101.606 56.199 104.924 59.1199 107.844C61.2464 109.97 63.1859 111.185 65.8965 112.119L67.7659 112.75H90.8998L92.7693 112.119C95.4799 111.185 97.4194 109.97 99.5458 107.844C101.672 105.718 102.887 103.779 103.822 101.069L104.453 99.1997L104.57 15.6787H107.748C110.786 15.6787 110.926 15.6553 111.463 15.0946C112.515 14.0666 112.328 13.6461 108.075 7.29151C104.36 1.70786 103.565 0.75 102.7 0.75C102.514 0.75 102.116 0.866813 101.812 1.03035ZM104.757 9.02034L106.673 11.9407H98.728L100.644 9.02034C101.719 7.43169 102.63 6.12338 102.7 6.12338C102.771 6.12338 103.682 7.43169 104.757 9.02034Z" fill="#3A5BFF"/>
<path d="M54.0959 25.0237H57.8347V21.2857H54.0959V25.0237Z" fill="#3A5BFF"/>
<path d="M49.0719 29.346C48.5111 29.8833 48.4877 30.0469 48.4877 32.8037V35.7006L47.4128 36.1211L46.3613 36.5183L44.3049 34.5091C41.3139 31.5888 41.7111 31.4486 36.173 37.0089C30.6115 42.5458 30.7517 42.1487 33.6727 45.1391L35.6823 47.195L35.2617 48.2463L34.8177 49.321H31.9435C29.2095 49.321 29.0459 49.3443 28.5084 49.905L27.9242 50.4657V63.1282L28.5084 63.6889C29.0459 64.2496 29.2095 64.273 31.9435 64.273H34.8177L35.2617 65.3477L35.6823 66.399L33.6727 68.4549C30.7517 71.4453 30.6115 71.0481 36.173 76.5851C41.7111 82.1453 41.3139 82.0052 44.3049 79.0849L46.3613 77.0757L47.4128 77.4728L48.4877 77.8934V80.7903C48.4877 83.5471 48.5111 83.7106 49.0719 84.248L49.6327 84.832H62.2979L62.8588 84.248C63.4196 83.7106 63.443 83.5471 63.443 80.8137V77.9401L64.5179 77.4962L65.5694 77.0757L67.6257 79.0849C70.6168 82.0052 70.2196 82.1453 75.7577 76.5851C81.3191 71.0481 81.1789 71.4453 78.258 68.4549L76.2484 66.399L76.6456 65.3477L77.0662 64.273H79.9638C82.7212 64.273 82.8848 64.2496 83.4222 63.6889L84.0064 63.1282V50.4657L83.4222 49.905C82.8848 49.3443 82.7212 49.321 79.9638 49.321H77.0662L76.6456 48.2463L76.2484 47.195L78.258 45.1391C81.1789 42.1487 81.3191 42.5458 75.7577 37.0089C70.2196 31.4486 70.6168 31.5888 67.6257 34.5091L65.5694 36.5183L64.5179 36.0978L63.443 35.6539V32.7803C63.443 30.0469 63.4196 29.8833 62.8588 29.346L62.2979 28.7619H49.6327L49.0719 29.346ZM59.7041 35.0465C59.7041 37.9902 59.9612 38.5275 61.6203 39.0181C62.1811 39.1816 63.3027 39.6255 64.1206 39.9993C64.9385 40.3731 65.8732 40.6768 66.2003 40.6768C66.5976 40.6768 67.322 40.1395 68.6773 38.8078L70.5934 36.9622L73.2106 39.5788L75.8044 42.1954L73.9584 44.0878C71.8085 46.2605 71.7618 46.4474 72.7666 48.6435C73.1405 49.4612 73.5845 50.5826 73.7481 51.1433C74.2388 52.802 74.7762 53.059 77.7205 53.059H80.2676V60.535H77.7205C74.7762 60.535 74.2388 60.792 73.7481 62.4507C73.5845 63.0114 73.1405 64.1328 72.7666 64.9505C72.3927 65.7682 72.089 66.7027 72.089 67.0298C72.089 67.4269 72.6264 68.1512 73.9584 69.5062L75.8044 71.4219L73.1872 74.0386L70.5701 76.6318L68.6773 74.7861C66.5041 72.6368 66.3172 72.5901 64.1206 73.5947C63.3027 73.9685 62.1811 74.4124 61.6203 74.5759C59.9612 75.0665 59.7041 75.6038 59.7041 78.5475V81.094H52.2265V78.5475C52.2265 75.6038 51.9695 75.0665 50.3104 74.5759C49.7496 74.4124 48.6279 73.9685 47.81 73.5947C45.6135 72.5901 45.4266 72.6368 43.2534 74.7861L41.3606 76.6318L38.7434 74.0386L36.1263 71.4219L37.9723 69.5062C39.3043 68.1512 39.8417 67.4269 39.8417 67.0298C39.8417 66.7027 39.5379 65.7682 39.164 64.9505C38.7902 64.1328 38.3462 63.0114 38.1826 62.4507C37.6919 60.792 37.1544 60.535 34.2101 60.535H31.6631V53.059H34.2101C37.1544 53.059 37.6919 52.802 38.1826 51.1433C38.3462 50.5826 38.7902 49.4612 39.164 48.6435C40.1688 46.4474 40.1221 46.2605 37.9723 44.0878L36.1263 42.1954L38.7201 39.5788L41.3372 36.9622L43.2534 38.8078C44.6087 40.1395 45.3331 40.6768 45.7303 40.6768C46.0575 40.6768 46.9922 40.3731 47.81 39.9993C48.6279 39.6255 49.7496 39.1816 50.3104 39.0181C51.9695 38.5275 52.2265 37.9902 52.2265 35.0465V32.5H59.7041V35.0465Z" fill="#3A5BFF"/>
<path d="M52.7172 42.1951C50.1468 42.7558 47.4362 44.2743 45.4499 46.2835C39.608 52.1241 39.5613 61.4458 45.3331 67.193C48.1839 70.0199 51.3152 71.4683 55.1241 71.6786C61.9474 72.0524 68.2099 67.707 70.2897 61.1187C71.0141 58.8058 71.0141 54.7875 70.2897 52.4746C67.9295 45.0453 60.2883 40.5597 52.7172 42.1951ZM58.6526 45.9331C62.6718 46.9844 65.7797 50.115 66.8313 54.1567C68.3502 59.974 64.6347 66.0949 58.6526 67.6602C52.8107 69.1788 46.665 65.4642 45.0994 59.4833C43.0197 51.4934 50.6609 43.8538 58.6526 45.9331Z" fill="#3A5BFF"/>
<path d="M54.0959 92.3077H57.8347V88.5697H54.0959V92.3077Z" fill="#3A5BFF"/>
<path d="M7.03364 94.4104C5.56148 94.7842 3.4584 96.0458 2.43023 97.1438C1.91614 97.7045 1.14501 98.8727 0.747762 99.7371C0.0701027 101.162 0 101.513 0 103.545C0 105.648 0.0467351 105.858 0.8646 107.54C1.91614 109.666 3.27146 110.974 5.44464 112.002C6.87007 112.68 7.22058 112.75 9.23019 112.75C11.2398 112.75 11.5903 112.68 13.0157 112.002C15.1889 110.974 16.5442 109.666 17.5958 107.54C18.4136 105.858 18.4604 105.648 18.4604 103.522C18.4604 101.396 18.4136 101.186 17.5958 99.5034C16.0068 96.3261 13.2027 94.4338 9.74428 94.2702C8.76284 94.2235 7.54773 94.2936 7.03364 94.4104ZM10.9594 98.1951C12.969 98.8026 14.8384 101.372 14.8384 103.522C14.8384 106.419 12.1278 109.129 9.23019 109.129C7.75803 109.129 6.56629 108.591 5.37454 107.377C2.99105 105.017 2.99105 102.027 5.37454 99.667C7.01027 98.0082 8.76284 97.5644 10.9594 98.1951Z" fill="#3A5BFF"/>
</svg>
