<svg width="255" height="596" viewBox="0 0 255 596" fill="none" xmlns="http://www.w3.org/2000/svg">
<path d="M115.282 321.078C128.239 321.078 138.742 310.575 138.742 297.618C138.742 284.662 128.239 274.158 115.282 274.158C102.326 274.158 91.8224 284.662 91.8224 297.618C91.8224 310.575 102.326 321.078 115.282 321.078Z" fill="white"/>
<path d="M45.2524 226.158C46.6424 226.248 48.0324 226.288 49.4224 226.278C58.3324 226.258 67.6824 224.298 74.3024 218.338C83.7324 209.838 85.2224 195.618 84.0924 182.968C82.8524 169.158 79.2824 155.648 77.7424 141.868C76.2024 128.088 76.8824 113.498 83.5724 101.358C91.7324 86.5783 107.842 77.5183 124.362 74.0083C140.882 70.5083 157.992 71.8383 174.812 73.3583C202.402 75.8383 248.672 81.7683 254.522 44.2083C258.212 20.5183 239.482 -0.711709 215.512 0.0182907C197.392 0.568291 179.232 1.18829 161.152 1.94829C133.242 3.10829 106.982 2.70829 80.3324 13.1683C50.4824 24.8883 24.7724 47.7783 11.1924 76.9983C0.902391 99.1383 -1.08758 124.538 0.47242 148.648C1.40242 163.078 1.27242 178.228 5.34242 192.218C8.71242 203.808 15.5223 214.898 26.0223 220.848C31.8623 224.158 38.5324 225.718 45.2524 226.148V226.158Z" fill="white"/>
<path d="M209.742 369.078C208.352 368.988 206.962 368.948 205.572 368.958C196.662 368.978 187.312 370.938 180.692 376.898C171.262 385.398 169.772 399.618 170.902 412.268C172.142 426.078 175.712 439.588 177.252 453.368C178.792 467.148 178.112 481.738 171.422 493.878C163.262 508.658 147.152 517.718 130.632 521.228C114.112 524.728 97.0023 523.398 80.1823 521.878C52.5923 519.398 6.32238 513.468 0.472383 551.028C-3.21762 574.718 15.5124 595.948 39.4824 595.218C57.6024 594.668 75.7624 594.048 93.8424 593.288C121.752 592.128 148.012 592.528 174.662 582.068C204.512 570.348 230.222 547.458 243.802 518.238C254.092 496.098 256.082 470.698 254.522 446.588C253.592 432.158 253.722 417.008 249.652 403.018C246.282 391.428 239.472 380.338 228.972 374.388C223.132 371.078 216.462 369.518 209.742 369.088V369.078Z" fill="white"/>
</svg>
