<svg width="232" height="233" viewBox="0 0 232 233" fill="none" xmlns="http://www.w3.org/2000/svg">
<path d="M229.146 134.813C218.662 108.576 200.655 90.9833 173.218 84.4335C153.541 79.7362 135.143 84.6531 117.633 93.9085C106.384 99.8548 95.3984 106.479 83.6895 111.343C56.4067 122.676 29.7094 121.471 4.42651 105.046C3.59831 104.507 2.72564 104.036 1.8569 103.565C1.75932 103.512 1.5513 103.662 0.944625 103.88C0.967152 108.964 0.987601 114.219 1.01428 119.475C1.08875 134.132 1.11528 148.79 1.25209 163.447C1.562 196.644 27.7242 226.63 60.6987 231.3C66.9131 232.18 73.062 232.192 79.3937 232.164C82.8937 232.149 90.7257 232.114 93.8936 232.1C95.8936 232.091 97.3935 232.084 99.8935 232.073C101.394 232.067 102.393 232.062 104.393 232.053C106.893 232.042 110.393 232.027 112.893 232.016C115.393 232.005 117.393 231.996 123.893 231.967C133.393 231.925 126.393 231.956 137.893 231.905C143.893 231.878 155.557 231.758 160.513 231.712C195.895 231.382 226.32 204.535 230.015 169.528C231.205 158.247 229.558 146.667 229.146 134.813ZM115.065 154.254C133.994 145.904 162.445 122.839 183.423 125.702C193.604 127.092 201.332 149.623 195.271 159.596C154.045 125.832 185.238 197.609 165.891 197.749C134.248 197.977 102.603 198.281 70.9637 197.995C64.6983 197.938 58.1924 196.044 52.2746 193.76C46.044 191.356 40.971 186.852 37.1151 180.12C55.7064 181.588 72.2499 177.613 87.7743 169.199C96.6704 164.378 105.533 159.495 115.065 154.254Z" fill="#CAF811"/>
<path d="M49.8407 4.37091C22.4382 14.5986 6.57555 33.97 1.28971 62.2585C0.0671345 68.8013 1.08868 73.6761 6.72126 78.3546C28.2237 96.2151 51.2242 99.9791 76.444 87.3555C90.7815 80.1789 104.555 71.6482 119.38 65.7194C150.547 53.2543 181.337 53.5768 209.723 73.7823C217.203 79.1073 223.452 86.1635 229.753 91.9526C235.383 61.5646 224.403 31.2294 200.732 14.0721C188.699 5.35048 175.202 0.839621 160.305 0.879082C130.151 0.958954 99.9949 0.960069 69.8456 1.39506C63.2956 1.48957 56.77 3.27263 49.8407 4.37091Z" fill="#CAF811"/>
</svg>
