<svg width="117" height="32" viewBox="0 0 117 32" fill="none" xmlns="http://www.w3.org/2000/svg">
<g clip-path="url(#clip0_373_3278)">
<path d="M-0.0859375 2.27562C-0.0859375 1.65265 0.137805 1.11639 0.586579 0.667874C1.03509 0.220132 1.57135 -0.00463867 2.19432 -0.00463867C2.81729 -0.00463867 3.35355 0.220132 3.80129 0.667874C4.25084 1.11639 4.47458 1.65265 4.47458 2.27562V23.9391C4.47458 24.8826 4.80929 25.687 5.47768 26.3564C6.14684 27.0256 6.95251 27.3592 7.89497 27.3592C8.83742 27.3592 9.64284 27.0256 10.3123 26.3564C10.9817 25.687 11.3154 24.8826 11.3154 23.9391L11.3608 18.2385C11.3608 17.6145 11.5845 17.0792 12.033 16.6305C12.4815 16.1819 13.0181 15.9582 13.641 15.9582C14.264 15.9582 14.8003 16.1819 15.2488 16.6305C15.6973 17.0792 15.9213 17.6145 15.9213 18.2385L15.8769 23.9391C15.8769 24.8826 16.2106 25.687 16.8797 26.3564C17.5481 27.0256 18.3535 27.3592 19.2963 27.3592C20.2387 27.3592 21.0441 27.0256 21.7135 26.3564C22.383 25.687 22.7174 24.8826 22.7174 23.9391V2.27562C22.7174 1.65265 22.9414 1.11639 23.3899 0.667874C23.8384 0.220132 24.3737 -0.00463867 24.9977 -0.00463867C25.6206 -0.00463867 26.1572 0.220132 26.6046 0.667874C27.0532 1.11639 27.2779 1.65265 27.2779 2.27562V23.9391C27.2779 26.1435 26.4988 28.0248 24.9404 29.5832C23.3819 31.1406 21.5009 31.9197 19.2963 31.9197C17.0926 31.9197 15.2144 31.1376 13.664 29.5711C13.6338 29.5559 13.6106 29.5409 13.5956 29.5257C13.5804 29.5409 13.5654 29.5559 13.5502 29.5711C11.9848 31.1376 10.0996 31.9197 7.89497 31.9197C5.69135 31.9197 3.80929 31.1406 2.25187 29.5832C0.692385 28.0248 -0.0859375 26.1435 -0.0859375 23.9391V2.27562Z" fill="white"/>
<path d="M34.1152 29.6395C34.1152 30.2635 33.8904 30.799 33.4419 31.2475C32.9942 31.696 32.4579 31.9197 31.8349 31.9197C31.2109 31.9197 30.6757 31.696 30.2272 31.2475C29.7784 30.799 29.5547 30.2635 29.5547 29.6395V7.97626C29.5547 5.77265 30.333 3.89162 31.8925 2.33317C33.4499 0.774714 35.3309 -0.00463867 37.5356 -0.00463867C39.7392 -0.00463867 41.6213 0.774714 43.1797 2.33317C44.7371 3.89162 45.5165 5.77265 45.5165 7.97626V29.6395C45.5165 30.2635 45.2927 30.799 44.844 31.2475C44.3955 31.696 43.8592 31.9197 43.2362 31.9197C42.6133 31.9197 42.077 31.696 41.6293 31.2475C41.1808 30.799 40.956 30.2635 40.956 29.6395V7.97626C40.956 7.03381 40.6213 6.22839 39.9529 5.56C39.2835 4.89058 38.478 4.55588 37.5356 4.55588C36.5931 4.55588 35.7877 4.89058 35.1183 5.56C34.4499 6.22839 34.1152 7.03381 34.1152 7.97626V29.6395Z" fill="white"/>
<path d="M47.8008 2.27562C47.8008 1.65265 48.0245 1.11639 48.473 0.667874C48.9216 0.220132 49.457 -0.00463867 50.081 -0.00463867C50.704 -0.00463867 51.2403 0.220132 51.6877 0.667874C52.1363 1.11639 52.3613 1.65265 52.3613 2.27562V17.0973C52.3613 18.0408 52.6957 18.8462 53.3641 19.5156C54.0336 20.184 54.839 20.5187 55.7814 20.5187C56.7241 20.5187 57.5296 20.184 58.199 19.5156C58.8671 18.8462 59.2018 18.0408 59.2018 17.0973V2.27562C59.2018 1.65265 59.4258 1.11639 59.8743 0.667874C60.3228 0.220132 60.8591 -0.00463867 61.4821 -0.00463867C62.105 -0.00463867 62.6413 0.220132 63.0901 0.667874C63.5386 1.11639 63.7623 1.65265 63.7623 2.27562V17.0973C63.7623 19.3019 62.9832 21.184 61.4248 22.7425C59.8663 24.2999 57.9853 25.0792 55.7814 25.0792C53.5768 25.0792 51.6957 24.2999 50.1383 22.7425C48.5788 21.184 47.8008 19.3019 47.8008 17.0973V2.27562Z" fill="white"/>
<path d="M91.1267 18.2385V27.3592H97.9674C98.5904 27.3592 99.1256 27.5832 99.5744 28.0328C100.023 28.4803 100.248 29.0165 100.248 29.6395C100.248 30.2625 100.023 30.799 99.5744 31.2475C99.1256 31.696 98.5904 31.9197 97.9674 31.9197H88.8464C88.2224 31.9197 87.6862 31.696 87.2387 31.2475C86.7902 30.799 86.5664 30.2625 86.5664 29.6395V2.27562C86.5664 1.65265 86.7902 1.11639 87.2387 0.667874C87.6862 0.220132 88.2224 -0.00463867 88.8464 -0.00463867H97.9674C98.5904 -0.00463867 99.1256 0.220132 99.5744 0.667874C100.023 1.11639 100.248 1.65265 100.248 2.27562C100.248 2.89859 100.023 3.43484 99.5744 3.88362C99.1256 4.33213 98.5904 4.55588 97.9674 4.55588H91.1267V18.2385Z" fill="white"/>
<path d="M113.93 27.3592C114.553 27.3592 115.088 27.5843 115.536 28.0317C115.985 28.4803 116.21 29.0165 116.21 29.6395C116.21 30.2635 115.985 30.799 115.536 31.2475C115.088 31.696 114.553 31.9197 113.93 31.9197H104.808C104.185 31.9197 103.648 31.696 103.2 31.2475C102.751 30.799 102.527 30.2635 102.527 29.6395V2.27562C102.527 1.65265 102.751 1.11639 103.2 0.667874C103.648 0.220132 104.185 -0.00463867 104.808 -0.00463867C105.431 -0.00463867 105.967 0.220132 106.415 0.667874C106.864 1.11639 107.089 1.65265 107.089 2.27562V27.3592H113.93Z" fill="white"/>
<path d="M71.2262 13.688C70.1013 14.8129 68.211 14.4692 67.5256 13.0338C66.9591 11.8472 66.6758 10.5409 66.6758 9.11639C66.6758 6.5933 67.5658 4.44207 69.3442 2.66375C71.1225 0.884651 73.2737 -0.00463867 75.7978 -0.00463867H80.3584C80.9813 -0.00463867 81.5166 0.220132 81.9661 0.667874C82.4136 1.11639 82.6386 1.65265 82.6386 2.27562C82.6386 2.89859 82.4136 3.43484 81.9661 3.88362C81.5166 4.33213 80.9813 4.55588 80.3584 4.55588H75.8017C74.708 4.55588 73.6355 4.93394 72.8169 5.65884C71.7635 6.59123 71.2373 7.74349 71.2373 9.11639C71.2373 9.8351 71.3806 10.4934 71.6698 11.0901C72.0902 11.9621 71.9106 13.0036 71.2262 13.688Z" fill="white"/>
<path d="M77.3147 18.2272C78.4396 17.102 80.3289 17.4458 81.0143 18.8814C81.5808 20.0679 81.8641 21.3743 81.8641 22.7988C81.8641 25.3219 80.9749 27.4731 79.1968 29.2512C77.4174 31.0305 75.2662 31.9196 72.7421 31.9196H68.1826C67.5586 31.9196 67.0234 31.6948 66.5749 31.2473C66.1261 30.7988 65.9023 30.2623 65.9023 29.6393C65.9023 29.0163 66.1261 28.4801 66.5749 28.0326C67.0234 27.583 67.5586 27.359 68.1826 27.359H72.739C73.8319 27.359 74.9044 26.9812 75.724 26.2563C76.7764 25.325 77.3036 24.1717 77.3036 22.7988C77.3036 22.0798 77.1594 21.4228 76.8711 20.8249C76.4507 19.9529 76.6303 18.9116 77.3147 18.2272Z" fill="white"/>
<path d="M56.6876 28.822C56.9407 29.0782 57.0677 29.3846 57.0677 29.7415C57.0677 30.0973 56.9407 30.4037 56.6876 30.6607C56.4347 30.917 56.1333 31.045 55.7813 31.045C55.4295 31.045 55.1281 30.917 54.8752 30.6607C54.622 30.4037 54.4961 30.0973 54.4961 29.7415C54.4961 29.3846 54.622 29.0782 54.8752 28.822C55.1281 28.566 55.4295 28.438 55.7813 28.438C56.1333 28.438 56.4347 28.566 56.6876 28.822Z" fill="white"/>
<path d="M75.5636 15.0388C75.8168 15.2948 75.9427 15.6014 75.9427 15.9572C75.9427 16.3141 75.8168 16.6205 75.5636 16.8765C75.3107 17.1327 75.0083 17.2607 74.6575 17.2607C74.3058 17.2607 74.0034 17.1327 73.7502 16.8765C73.4973 16.6205 73.3711 16.3141 73.3711 15.9572C73.3711 15.6014 73.4973 15.2948 73.7502 15.0388C74.0034 14.7828 74.3058 14.6548 74.6575 14.6548C75.0083 14.6548 75.3107 14.7828 75.5636 15.0388Z" fill="white"/>
<path d="M38.4454 15.0388C38.6983 15.2948 38.8253 15.6014 38.8253 15.9572C38.8253 16.3141 38.6983 16.6205 38.4454 16.8765C38.1922 17.1327 37.8908 17.2607 37.5391 17.2607C37.1873 17.2607 36.8859 17.1327 36.6327 16.8765C36.3798 16.6205 36.2539 16.3141 36.2539 15.9572C36.2539 15.6014 36.3798 15.2948 36.6327 15.0388C36.8859 14.7828 37.1873 14.6548 37.5391 14.6548C37.8908 14.6548 38.1922 14.7828 38.4454 15.0388Z" fill="white"/>
<path d="M95.598 15.0388C95.8509 15.2948 95.9779 15.6014 95.9779 15.9572C95.9779 16.3141 95.8509 16.6205 95.598 16.8765C95.3459 17.1327 95.0434 17.2607 94.6917 17.2607C94.3397 17.2607 94.0385 17.1327 93.7853 16.8765C93.5324 16.6205 93.4062 16.3141 93.4062 15.9572C93.4062 15.6014 93.5324 15.2948 93.7853 15.0388C94.0385 14.7828 94.3397 14.6548 94.6917 14.6548C95.0434 14.6548 95.3459 14.7828 95.598 15.0388Z" fill="white"/>
</g>
<defs>
<clipPath id="clip0_373_3278">
<rect width="116.129" height="32" fill="white"/>
</clipPath>
</defs>
</svg>
