<!-- <svg xmlns="http://www.w3.org/2000/svg" width="24" height="24" viewBox="0 0 24 24"><g fill="none" stroke="#3A5BFF" stroke-linecap="round" stroke-linejoin="round" stroke-width="1.5"><path d="M19 20H5c-1.6 0-2-1.333-2-2V6a2 2 0 0 1 2-2h10a2 2 0 0 1 2 2v6m2 8c-.667 0-2-.4-2-2v-6m2 8c1.6 0 2-1.333 2-2v-6h-4"/><path d="M7 16h6m-1-6a2 2 0 1 1-4 0a2 2 0 0 1 4 0"/></g></svg> -->

<svg width="54" height="65" viewBox="0 0 54 65" fill="none" xmlns="http://www.w3.org/2000/svg">
<path d="M32.2998 0.875C33.3899 0.878328 34.435 1.31586 35.2061 2.0918C35.9769 2.86768 36.4117 3.91912 36.415 5.0166V7.27539H42.8994L43.1035 7.28027C44.1193 7.33386 45.0828 7.76385 45.8057 8.49121C46.5768 9.26721 47.0114 10.3192 47.0146 11.417V21.958H43.0254V11.292H36.415V17.6914H11.2246V11.292H4.61523V56.3418H23.6953V60.3584H4.74023L4.53613 60.3525C3.52037 60.2989 2.55683 59.869 1.83398 59.1416C1.11124 58.4142 0.684212 57.4446 0.630859 56.4219L0.625 56.2158V11.417L0.630859 11.2119C0.684115 10.1889 1.11099 9.21875 1.83398 8.49121C2.55683 7.76383 3.52038 7.33394 4.53613 7.28027L4.74023 7.27539H11.2246V5.0166C11.228 3.91898 11.6635 2.86771 12.4346 2.0918C13.1575 1.36429 14.1208 0.9344 15.1367 0.880859L15.3408 0.875H32.2998ZM44.9775 51.0859C42.2648 52.0695 39.2958 52.0694 36.583 51.0859L36.415 51.0254V58.207L36.5938 58.1211L40.7793 56.127L44.9658 58.1211L45.1445 58.207V51.0254L44.9775 51.0859ZM44.0732 31.1504C42.501 30.4951 40.7707 30.3242 39.1016 30.6582C37.4322 30.9923 35.8987 31.8174 34.6953 33.0283C33.492 34.2392 32.6718 35.7816 32.3398 37.4609C32.0079 39.1403 32.1789 40.8809 32.8301 42.4629C33.4813 44.0449 34.584 45.3972 35.999 46.3486C37.4141 47.3001 39.0782 47.8086 40.7803 47.8086C43.0617 47.8057 45.2483 46.8917 46.8613 45.2686C48.4743 43.6454 49.3819 41.4455 49.3848 39.1504C49.3848 37.4381 48.88 35.7637 47.9346 34.3398C46.9891 32.9161 45.6456 31.8058 44.0732 31.1504ZM15.2148 13.6748H32.4248V4.8916H15.2148V13.6748ZM32.4248 48.6094L32.3838 48.5713C30.8171 47.1611 29.6259 45.3789 28.9189 43.3867C28.212 41.3945 28.0112 39.256 28.3359 37.166C28.6607 35.0759 29.5008 33.1008 30.7783 31.4209C32.0558 29.7411 33.7308 28.4094 35.6504 27.5479C37.5699 26.6864 39.6733 26.3223 41.7686 26.4883C43.8639 26.6543 45.8844 27.3458 47.6465 28.499C49.4085 29.6522 50.8559 31.2305 51.8564 33.0908C52.857 34.9511 53.3792 37.034 53.375 39.1494V39.1504C53.374 40.9297 52.9999 42.689 52.2764 44.3125C51.5529 45.936 50.4963 47.3871 49.1768 48.5713L49.1348 48.6094V64.5508L40.834 60.5967L40.7803 60.5713L40.7266 60.5967L32.4248 64.5508V48.6094Z" fill="#3A5BFF" stroke="white" stroke-width="0.25"/>
</svg>