<svg width="65" height="61" viewBox="0 0 65 61" fill="none" xmlns="http://www.w3.org/2000/svg">
<mask id="path-1-inside-1_468_43" fill="white">
<path d="M56.4983 36.75H64.498V60.75H32.499V36.75H40.4988V28.75H56.4983V36.75ZM44.4987 36.75H52.4984V32.75H44.4987V36.75ZM60.4982 48.75H56.4983V52.75H52.4984V48.75H44.4987V52.75H40.4988V48.75H36.4989V56.75H60.4982V48.75ZM36.4989 40.75V44.75H60.4982V40.75H36.4989ZM28.4991 24.75C28.4991 26.6875 28.0721 28.5 27.2179 30.1875C26.3638 31.875 25.1451 33.2917 23.5618 34.4375C24.4993 34.9167 25.3847 35.4688 26.218 36.0938C27.0513 36.7188 27.8117 37.4167 28.4991 38.1875V48.75C28.4991 47.1042 28.1867 45.5521 27.5617 44.0938C26.9367 42.6354 26.0826 41.3646 24.9993 40.2812C23.916 39.1979 22.6347 38.3333 21.1556 37.6875C19.6765 37.0417 18.1245 36.7292 16.4995 36.75C14.8329 36.75 13.2809 37.0625 11.8434 37.6875C10.4059 38.3125 9.13515 39.1667 8.03102 40.25C6.92689 41.3333 6.06233 42.6146 5.43735 44.0938C4.81237 45.5729 4.49988 47.125 4.49988 48.75H0.5C0.5 47.2292 0.708327 45.7604 1.12498 44.3438C1.54163 42.9271 2.13537 41.5833 2.90618 40.3125C3.67699 39.0417 4.62487 37.9167 5.74984 36.9375C6.87481 35.9583 8.10393 35.1146 9.43723 34.4062C7.87477 33.2812 6.66648 31.875 5.81234 30.1875C4.9582 28.5 4.52071 26.6875 4.49988 24.75C4.49988 23.1042 4.81237 21.5521 5.43735 20.0938C6.06233 18.6354 6.91647 17.3646 7.99977 16.2812C9.08307 15.1979 10.3539 14.3333 11.8122 13.6875C13.2704 13.0417 14.8329 12.7292 16.4995 12.75C17.9995 12.75 19.4265 13.0104 20.7806 13.5312C22.1348 14.0521 23.3743 14.8229 24.4993 15.8438C25.1659 15.2396 25.9055 14.7083 26.7179 14.25C26.0096 13.5208 25.468 12.6771 25.093 11.7188C24.718 10.7604 24.5201 9.77083 24.4993 8.75C24.4993 7.64583 24.7076 6.61458 25.1242 5.65625C25.5409 4.69792 26.1138 3.84375 26.8429 3.09375C27.5721 2.34375 28.4158 1.77083 29.3741 1.375C30.3324 0.979167 31.3741 0.770833 32.499 0.75C33.6032 0.75 34.6344 0.958333 35.5927 1.375C36.551 1.79167 37.4051 2.36458 38.1551 3.09375C38.9051 3.82292 39.478 4.66667 39.8738 5.625C40.2696 6.58333 40.4779 7.625 40.4988 8.75C40.4988 9.77083 40.3113 10.7604 39.9363 11.7188C39.5613 12.6771 39.0092 13.5208 38.2801 14.25C40.0092 15.2083 41.4154 16.5 42.4987 18.125C43.582 16.5 44.9882 15.2083 46.7173 14.25C46.009 13.5208 45.4674 12.6771 45.0924 11.7188C44.7174 10.7604 44.5195 9.77083 44.4987 8.75C44.4987 7.64583 44.707 6.61458 45.1236 5.65625C45.5403 4.69792 46.1132 3.84375 46.8423 3.09375C47.5715 2.34375 48.4152 1.77083 49.3735 1.375C50.3318 0.979167 51.3734 0.770833 52.4984 0.75C53.6025 0.75 54.6338 0.958333 55.5921 1.375C56.5504 1.79167 57.4045 2.36458 58.1545 3.09375C58.9045 3.82292 59.4774 4.66667 59.8732 5.625C60.269 6.58333 60.4773 7.625 60.4982 8.75C60.4982 9.77083 60.3107 10.7604 59.9357 11.7188C59.5607 12.6771 59.0086 13.5208 58.2795 14.25C59.2378 14.7708 60.1023 15.4062 60.8732 16.1562C61.644 16.9062 62.2898 17.7292 62.8106 18.625C63.3314 19.5208 63.7481 20.5 64.0606 21.5625C64.3731 22.625 64.5189 23.6875 64.498 24.75H60.4982C60.4982 23.6458 60.2898 22.6146 59.8732 21.6562C59.4565 20.6979 58.8836 19.8438 58.1545 19.0938C57.4253 18.3438 56.5816 17.7708 55.6233 17.375C54.665 16.9792 53.6234 16.7708 52.4984 16.75C51.3943 16.75 50.3631 16.9583 49.4048 17.375C48.4465 17.7917 47.5923 18.3646 46.8423 19.0938C46.0924 19.8229 45.5195 20.6667 45.1236 21.625C44.7278 22.5833 44.5195 23.625 44.4987 24.75H40.4988C40.4988 23.6458 40.2905 22.6146 39.8738 21.6562C39.4571 20.6979 38.8842 19.8438 38.1551 19.0938C37.426 18.3438 36.5822 17.7708 35.6239 17.375C34.6656 16.9792 33.624 16.7708 32.499 16.75C31.4782 16.75 30.4887 16.9375 29.5304 17.3125C28.5721 17.6875 27.7283 18.2396 26.9992 18.9688C27.4992 19.8438 27.8742 20.7708 28.1242 21.75C28.3741 22.7292 28.4991 23.7292 28.4991 24.75ZM52.4984 4.75C51.9359 4.75 51.4151 4.85417 50.936 5.0625C50.4568 5.27083 50.0402 5.55208 49.686 5.90625C49.3318 6.26042 49.0402 6.6875 48.811 7.1875C48.5819 7.6875 48.4777 8.20833 48.4985 8.75C48.4985 9.3125 48.6027 9.83333 48.811 10.3125C49.0194 10.7917 49.3006 11.2083 49.6547 11.5625C50.0089 11.9167 50.436 12.2083 50.936 12.4375C51.4359 12.6667 51.9568 12.7708 52.4984 12.75C53.0609 12.75 53.5817 12.6458 54.0609 12.4375C54.54 12.2292 54.9567 11.9479 55.3108 11.5938C55.665 11.2396 55.9566 10.8125 56.1858 10.3125C56.415 9.8125 56.5191 9.29167 56.4983 8.75C56.4983 8.1875 56.3941 7.66667 56.1858 7.1875C55.9775 6.70833 55.6962 6.29167 55.3421 5.9375C54.9879 5.58333 54.5609 5.29167 54.0609 5.0625C53.5609 4.83333 53.0401 4.72917 52.4984 4.75ZM32.499 4.75C31.9365 4.75 31.4157 4.85417 30.9366 5.0625C30.4574 5.27083 30.0408 5.55208 29.6866 5.90625C29.3325 6.26042 29.0408 6.6875 28.8116 7.1875C28.5825 7.6875 28.4783 8.20833 28.4991 8.75C28.4991 9.3125 28.6033 9.83333 28.8116 10.3125C29.02 10.7917 29.3012 11.2083 29.6554 11.5625C30.0095 11.9167 30.4366 12.2083 30.9366 12.4375C31.4366 12.6667 31.9574 12.7708 32.499 12.75C33.0615 12.75 33.5823 12.6458 34.0615 12.4375C34.5406 12.2292 34.9573 11.9479 35.3114 11.5938C35.6656 11.2396 35.9573 10.8125 36.1864 10.3125C36.4156 9.8125 36.5197 9.29167 36.4989 8.75C36.4989 8.1875 36.3947 7.66667 36.1864 7.1875C35.9781 6.70833 35.6968 6.29167 35.3427 5.9375C34.9885 5.58333 34.5615 5.29167 34.0615 5.0625C33.5615 4.83333 33.0407 4.72917 32.499 4.75ZM16.4995 32.75C17.6036 32.75 18.6349 32.5417 19.5932 32.125C20.5515 31.7083 21.4056 31.1354 22.1556 30.4062C22.9056 29.6771 23.4785 28.8333 23.8743 27.875C24.2701 26.9167 24.4784 25.875 24.4993 24.75C24.4993 23.6458 24.2909 22.6146 23.8743 21.6562C23.4576 20.6979 22.8847 19.8438 22.1556 19.0938C21.4264 18.3438 20.5827 17.7708 19.6244 17.375C18.6661 16.9792 17.6245 16.7708 16.4995 16.75C15.3954 16.75 14.3642 16.9583 13.4059 17.375C12.4476 17.7917 11.5934 18.3646 10.8434 19.0938C10.0935 19.8229 9.52056 20.6667 9.12474 21.625C8.72892 22.5833 8.52059 23.625 8.49976 24.75C8.49976 25.8542 8.70808 26.8854 9.12474 27.8438C9.54139 28.8021 10.1143 29.6562 10.8434 30.4062C11.5726 31.1562 12.4163 31.7292 13.3746 32.125C14.3329 32.5208 15.3745 32.7292 16.4995 32.75Z"/>
</mask>
<path d="M56.4983 36.75H64.498V60.75H32.499V36.75H40.4988V28.75H56.4983V36.75ZM44.4987 36.75H52.4984V32.75H44.4987V36.75ZM60.4982 48.75H56.4983V52.75H52.4984V48.75H44.4987V52.75H40.4988V48.75H36.4989V56.75H60.4982V48.75ZM36.4989 40.75V44.75H60.4982V40.75H36.4989ZM28.4991 24.75C28.4991 26.6875 28.0721 28.5 27.2179 30.1875C26.3638 31.875 25.1451 33.2917 23.5618 34.4375C24.4993 34.9167 25.3847 35.4688 26.218 36.0938C27.0513 36.7188 27.8117 37.4167 28.4991 38.1875V48.75C28.4991 47.1042 28.1867 45.5521 27.5617 44.0938C26.9367 42.6354 26.0826 41.3646 24.9993 40.2812C23.916 39.1979 22.6347 38.3333 21.1556 37.6875C19.6765 37.0417 18.1245 36.7292 16.4995 36.75C14.8329 36.75 13.2809 37.0625 11.8434 37.6875C10.4059 38.3125 9.13515 39.1667 8.03102 40.25C6.92689 41.3333 6.06233 42.6146 5.43735 44.0938C4.81237 45.5729 4.49988 47.125 4.49988 48.75H0.5C0.5 47.2292 0.708327 45.7604 1.12498 44.3438C1.54163 42.9271 2.13537 41.5833 2.90618 40.3125C3.67699 39.0417 4.62487 37.9167 5.74984 36.9375C6.87481 35.9583 8.10393 35.1146 9.43723 34.4062C7.87477 33.2812 6.66648 31.875 5.81234 30.1875C4.9582 28.5 4.52071 26.6875 4.49988 24.75C4.49988 23.1042 4.81237 21.5521 5.43735 20.0938C6.06233 18.6354 6.91647 17.3646 7.99977 16.2812C9.08307 15.1979 10.3539 14.3333 11.8122 13.6875C13.2704 13.0417 14.8329 12.7292 16.4995 12.75C17.9995 12.75 19.4265 13.0104 20.7806 13.5312C22.1348 14.0521 23.3743 14.8229 24.4993 15.8438C25.1659 15.2396 25.9055 14.7083 26.7179 14.25C26.0096 13.5208 25.468 12.6771 25.093 11.7188C24.718 10.7604 24.5201 9.77083 24.4993 8.75C24.4993 7.64583 24.7076 6.61458 25.1242 5.65625C25.5409 4.69792 26.1138 3.84375 26.8429 3.09375C27.5721 2.34375 28.4158 1.77083 29.3741 1.375C30.3324 0.979167 31.3741 0.770833 32.499 0.75C33.6032 0.75 34.6344 0.958333 35.5927 1.375C36.551 1.79167 37.4051 2.36458 38.1551 3.09375C38.9051 3.82292 39.478 4.66667 39.8738 5.625C40.2696 6.58333 40.4779 7.625 40.4988 8.75C40.4988 9.77083 40.3113 10.7604 39.9363 11.7188C39.5613 12.6771 39.0092 13.5208 38.2801 14.25C40.0092 15.2083 41.4154 16.5 42.4987 18.125C43.582 16.5 44.9882 15.2083 46.7173 14.25C46.009 13.5208 45.4674 12.6771 45.0924 11.7188C44.7174 10.7604 44.5195 9.77083 44.4987 8.75C44.4987 7.64583 44.707 6.61458 45.1236 5.65625C45.5403 4.69792 46.1132 3.84375 46.8423 3.09375C47.5715 2.34375 48.4152 1.77083 49.3735 1.375C50.3318 0.979167 51.3734 0.770833 52.4984 0.75C53.6025 0.75 54.6338 0.958333 55.5921 1.375C56.5504 1.79167 57.4045 2.36458 58.1545 3.09375C58.9045 3.82292 59.4774 4.66667 59.8732 5.625C60.269 6.58333 60.4773 7.625 60.4982 8.75C60.4982 9.77083 60.3107 10.7604 59.9357 11.7188C59.5607 12.6771 59.0086 13.5208 58.2795 14.25C59.2378 14.7708 60.1023 15.4062 60.8732 16.1562C61.644 16.9062 62.2898 17.7292 62.8106 18.625C63.3314 19.5208 63.7481 20.5 64.0606 21.5625C64.3731 22.625 64.5189 23.6875 64.498 24.75H60.4982C60.4982 23.6458 60.2898 22.6146 59.8732 21.6562C59.4565 20.6979 58.8836 19.8438 58.1545 19.0938C57.4253 18.3438 56.5816 17.7708 55.6233 17.375C54.665 16.9792 53.6234 16.7708 52.4984 16.75C51.3943 16.75 50.3631 16.9583 49.4048 17.375C48.4465 17.7917 47.5923 18.3646 46.8423 19.0938C46.0924 19.8229 45.5195 20.6667 45.1236 21.625C44.7278 22.5833 44.5195 23.625 44.4987 24.75H40.4988C40.4988 23.6458 40.2905 22.6146 39.8738 21.6562C39.4571 20.6979 38.8842 19.8438 38.1551 19.0938C37.426 18.3438 36.5822 17.7708 35.6239 17.375C34.6656 16.9792 33.624 16.7708 32.499 16.75C31.4782 16.75 30.4887 16.9375 29.5304 17.3125C28.5721 17.6875 27.7283 18.2396 26.9992 18.9688C27.4992 19.8438 27.8742 20.7708 28.1242 21.75C28.3741 22.7292 28.4991 23.7292 28.4991 24.75ZM52.4984 4.75C51.9359 4.75 51.4151 4.85417 50.936 5.0625C50.4568 5.27083 50.0402 5.55208 49.686 5.90625C49.3318 6.26042 49.0402 6.6875 48.811 7.1875C48.5819 7.6875 48.4777 8.20833 48.4985 8.75C48.4985 9.3125 48.6027 9.83333 48.811 10.3125C49.0194 10.7917 49.3006 11.2083 49.6547 11.5625C50.0089 11.9167 50.436 12.2083 50.936 12.4375C51.4359 12.6667 51.9568 12.7708 52.4984 12.75C53.0609 12.75 53.5817 12.6458 54.0609 12.4375C54.54 12.2292 54.9567 11.9479 55.3108 11.5938C55.665 11.2396 55.9566 10.8125 56.1858 10.3125C56.415 9.8125 56.5191 9.29167 56.4983 8.75C56.4983 8.1875 56.3941 7.66667 56.1858 7.1875C55.9775 6.70833 55.6962 6.29167 55.3421 5.9375C54.9879 5.58333 54.5609 5.29167 54.0609 5.0625C53.5609 4.83333 53.0401 4.72917 52.4984 4.75ZM32.499 4.75C31.9365 4.75 31.4157 4.85417 30.9366 5.0625C30.4574 5.27083 30.0408 5.55208 29.6866 5.90625C29.3325 6.26042 29.0408 6.6875 28.8116 7.1875C28.5825 7.6875 28.4783 8.20833 28.4991 8.75C28.4991 9.3125 28.6033 9.83333 28.8116 10.3125C29.02 10.7917 29.3012 11.2083 29.6554 11.5625C30.0095 11.9167 30.4366 12.2083 30.9366 12.4375C31.4366 12.6667 31.9574 12.7708 32.499 12.75C33.0615 12.75 33.5823 12.6458 34.0615 12.4375C34.5406 12.2292 34.9573 11.9479 35.3114 11.5938C35.6656 11.2396 35.9573 10.8125 36.1864 10.3125C36.4156 9.8125 36.5197 9.29167 36.4989 8.75C36.4989 8.1875 36.3947 7.66667 36.1864 7.1875C35.9781 6.70833 35.6968 6.29167 35.3427 5.9375C34.9885 5.58333 34.5615 5.29167 34.0615 5.0625C33.5615 4.83333 33.0407 4.72917 32.499 4.75ZM16.4995 32.75C17.6036 32.75 18.6349 32.5417 19.5932 32.125C20.5515 31.7083 21.4056 31.1354 22.1556 30.4062C22.9056 29.6771 23.4785 28.8333 23.8743 27.875C24.2701 26.9167 24.4784 25.875 24.4993 24.75C24.4993 23.6458 24.2909 22.6146 23.8743 21.6562C23.4576 20.6979 22.8847 19.8438 22.1556 19.0938C21.4264 18.3438 20.5827 17.7708 19.6244 17.375C18.6661 16.9792 17.6245 16.7708 16.4995 16.75C15.3954 16.75 14.3642 16.9583 13.4059 17.375C12.4476 17.7917 11.5934 18.3646 10.8434 19.0938C10.0935 19.8229 9.52056 20.6667 9.12474 21.625C8.72892 22.5833 8.52059 23.625 8.49976 24.75C8.49976 25.8542 8.70808 26.8854 9.12474 27.8438C9.54139 28.8021 10.1143 29.6562 10.8434 30.4062C11.5726 31.1562 12.4163 31.7292 13.3746 32.125C14.3329 32.5208 15.3745 32.7292 16.4995 32.75Z" fill="#3A5BFF" stroke="white" mask="url(#path-1-inside-1_468_43)"/>
</svg>
