<svg width="188" height="49" viewBox="0 0 188 49" fill="none" xmlns="http://www.w3.org/2000/svg">
<g clip-path="url(#clip0_324_5783)">
<path d="M54.6014 21.9516V31.5644H56.9981C57.6098 31.5553 58.2134 31.4236 58.7733 31.1772C59.3332 30.9307 59.838 30.5745 60.2578 30.1295C61.1194 29.2173 61.5909 28.0047 61.5717 26.7501C61.59 26.1269 61.4849 25.5062 61.2626 24.9237C61.0402 24.3413 60.705 23.8085 60.2761 23.3559C59.8546 22.9104 59.3463 22.5558 58.7825 22.3141C58.2188 22.0723 57.6115 21.9486 56.9981 21.9504H54.6026L54.6014 21.9516ZM56.9981 18.9376C61.4654 18.9376 64.8448 22.3989 64.8448 26.7501C64.8448 31.1012 61.4654 34.5821 56.9981 34.5821H51.712C51.6616 34.5814 51.6118 34.5709 51.5655 34.551C51.5192 34.5311 51.4773 34.5023 51.4421 34.4662C51.4069 34.4301 51.3792 34.3874 51.3605 34.3406C51.3418 34.2938 51.3325 34.2438 51.3331 34.1934V19.3422C51.3331 19.1271 51.503 18.9523 51.712 18.9523L56.9981 18.9376V18.9376ZM76.3594 31.8993C78.3882 31.9054 80.2204 30.6575 81.0014 28.7374C81.3839 27.7992 81.4862 26.7703 81.2957 25.7752C81.1052 24.7801 80.6302 23.8616 79.9283 23.1311C79.2386 22.4125 78.3471 21.9201 77.3716 21.7189C76.3962 21.5177 75.3826 21.6172 74.4649 22.0042C72.59 22.7962 71.3654 24.6698 71.3617 26.7501C71.3617 29.5856 73.5959 31.8858 76.3606 31.8993H76.3594ZM76.3606 18.5832C81.0625 18.5832 84.657 22.2889 84.657 26.7501C84.657 31.2112 81.0625 34.9169 76.3594 34.9169C71.6575 34.9169 68.0935 31.2295 68.0935 26.7501C68.0935 22.2706 71.688 18.5832 76.3594 18.5832H76.3606ZM96.0787 31.8993C98.8446 31.8919 101.082 29.5893 101.08 26.7537C101.076 23.9157 98.8336 21.6179 96.0689 21.6167C93.3018 21.6167 91.0578 23.9133 91.0541 26.7501C91.0541 28.1165 91.5834 29.4267 92.5257 30.3923C92.9869 30.8681 93.5389 31.2467 94.1489 31.5055C94.759 31.7643 95.4148 31.8982 96.0775 31.8993H96.0787ZM96.0775 18.5832C100.765 18.5832 104.359 22.2706 104.359 26.7501C104.359 31.2295 100.75 34.9169 96.0775 34.9169C91.4061 34.9169 87.781 31.2295 87.781 26.7501C87.781 22.2706 91.3756 18.5832 96.0775 18.5832ZM115.323 21.9516H111.943V26.0888H115.323C115.59 26.1007 115.856 26.0576 116.106 25.9624C116.356 25.8672 116.583 25.7218 116.775 25.5352C117.166 25.1563 117.388 24.6307 117.393 24.0783C117.403 23.798 117.356 23.5186 117.255 23.2569C117.154 22.9952 117.002 22.7566 116.806 22.5554C116.615 22.3574 116.384 22.2017 116.128 22.0983C115.872 21.9949 115.598 21.9462 115.323 21.9553V21.9516ZM108.674 19.3422C108.674 19.1271 108.845 18.9523 109.054 18.9523H115.417C118.45 18.9523 120.645 21.2317 120.645 24.0942C120.669 26.0302 119.611 27.8085 117.923 28.6751L120.858 33.9954C120.899 34.0565 120.921 34.1277 120.924 34.2011C120.927 34.2744 120.909 34.3471 120.873 34.4109C120.837 34.4738 120.785 34.5252 120.721 34.559C120.657 34.5928 120.585 34.6076 120.513 34.6016H117.938C117.867 34.6026 117.796 34.5834 117.735 34.5462C117.674 34.509 117.625 34.4554 117.593 34.3914L114.765 29.1261H111.931V34.1812C111.932 34.2317 111.923 34.2818 111.904 34.3288C111.885 34.3757 111.858 34.4185 111.822 34.4548C111.787 34.491 111.745 34.5199 111.699 34.5399C111.652 34.5598 111.603 34.5704 111.552 34.5711H109.071C109.02 34.5704 108.971 34.5598 108.924 34.5399C108.878 34.5199 108.836 34.491 108.801 34.4548C108.765 34.4185 108.738 34.3757 108.719 34.3288C108.7 34.2818 108.691 34.2317 108.692 34.1812L108.675 19.3434L108.674 19.3422ZM129.167 22.0249V31.6389H131.562C132.174 31.6307 132.777 31.4998 133.338 31.2542C133.898 31.0086 134.403 30.6532 134.823 30.2089C135.685 29.2978 136.157 28.0861 136.139 26.8319C136.159 26.208 136.055 25.5863 135.833 25.0028C135.612 24.4192 135.277 23.8853 134.848 23.4317C134.425 22.9854 133.916 22.6304 133.351 22.3886C132.786 22.1469 132.178 22.0235 131.563 22.0262L129.167 22.0249V22.0249ZM131.562 19.0073C136.029 19.0073 139.409 22.4723 139.409 26.8319C139.409 31.1916 136.029 34.6566 131.562 34.6566H126.292C126.242 34.656 126.192 34.6454 126.145 34.6254C126.099 34.6055 126.057 34.5765 126.022 34.5403C125.986 34.5041 125.959 34.4613 125.94 34.4143C125.921 34.3674 125.912 34.3172 125.913 34.2667V19.4167C125.913 19.2004 126.083 19.0256 126.292 19.0256L131.563 19.0073H131.562ZM149.377 22.8304L147.523 27.9711H151.228L149.377 22.8304V22.8304ZM146.435 30.8763L145.222 34.2985C145.197 34.379 145.147 34.4492 145.078 34.4978C145.01 34.5465 144.927 34.571 144.843 34.5674H142.21C142.143 34.5736 142.076 34.5617 142.015 34.5329C141.954 34.5041 141.902 34.4594 141.864 34.4036C141.826 34.3471 141.803 34.2817 141.797 34.2136C141.791 34.1455 141.803 34.0771 141.831 34.0149L147.52 19.1784C147.546 19.1001 147.597 19.0327 147.666 18.9864C147.734 18.9401 147.816 18.9173 147.898 18.9217H150.844C150.927 18.9171 151.009 18.9397 151.077 18.986C151.146 19.0324 151.198 19.0999 151.224 19.1784L156.912 34.0149C156.941 34.0772 156.952 34.1457 156.946 34.2138C156.94 34.2819 156.917 34.3472 156.878 34.4036C156.84 34.4592 156.788 34.5036 156.727 34.5322C156.667 34.5608 156.599 34.5725 156.532 34.5662H153.901C153.817 34.5698 153.734 34.5453 153.665 34.4966C153.597 34.4479 153.546 34.3778 153.522 34.2973L152.308 30.8751H146.435V30.8763ZM159.964 23.1641C159.964 20.7074 162.035 18.5832 165.304 18.5832C167.065 18.5439 168.769 19.2025 170.046 20.4153C170.085 20.4521 170.116 20.4964 170.137 20.5456C170.159 20.5948 170.17 20.6477 170.17 20.7013C170.17 20.7548 170.159 20.8078 170.137 20.857C170.116 20.9062 170.085 20.9505 170.046 20.9873L168.588 22.4723C168.553 22.5084 168.512 22.537 168.465 22.5566C168.419 22.5762 168.37 22.5863 168.319 22.5863C168.269 22.5863 168.22 22.5762 168.173 22.5566C168.127 22.537 168.085 22.5084 168.05 22.4723C167.364 21.8286 166.462 21.4638 165.52 21.4493C164.213 21.4493 163.246 22.2278 163.246 23.1262C163.246 26.0302 170.974 24.3545 170.974 29.9425C170.97 32.7744 168.884 34.9169 165.195 34.9169C164.171 34.9274 163.155 34.7318 162.208 34.3417C161.261 33.9516 160.402 33.3749 159.682 32.6461C159.643 32.6093 159.612 32.5649 159.591 32.5158C159.57 32.4666 159.559 32.4136 159.559 32.3601C159.559 32.3065 159.57 32.2535 159.591 32.2044C159.612 32.1552 159.643 32.1108 159.682 32.0741L161.092 30.6269C161.127 30.5891 161.17 30.5589 161.217 30.5383C161.265 30.5177 161.316 30.507 161.367 30.507C161.419 30.507 161.47 30.5177 161.517 30.5383C161.565 30.5589 161.607 30.5891 161.642 30.6269C162.53 31.5068 163.726 32.0066 164.975 32.0203C166.609 32.0203 167.686 31.1256 167.686 30.0048C167.686 27.0996 159.962 28.7765 159.962 23.1873L159.964 23.1641ZM184.988 19.3226V25.1942H178.447V19.3226C178.447 19.2722 178.438 19.2222 178.419 19.1754C178.401 19.1286 178.373 19.0859 178.338 19.0498C178.303 19.0137 178.261 18.9849 178.214 18.965C178.168 18.9451 178.118 18.9346 178.068 18.9339H175.587C175.536 18.9346 175.487 18.9451 175.44 18.965C175.394 18.9849 175.352 19.0137 175.317 19.0498C175.282 19.0859 175.254 19.1286 175.235 19.1754C175.216 19.2222 175.207 19.2722 175.208 19.3226V34.1567C175.208 34.3718 175.379 34.5466 175.587 34.5466H178.068C178.276 34.5466 178.447 34.3718 178.447 34.1567V28.1923H184.983V34.1567C184.983 34.3718 185.154 34.5466 185.362 34.5466H187.843C188.052 34.5466 188.222 34.3718 188.222 34.1567V19.3226C188.223 19.2722 188.213 19.2222 188.195 19.1754C188.176 19.1286 188.148 19.0859 188.113 19.0498C188.078 19.0137 188.036 18.9849 187.99 18.965C187.943 18.9451 187.894 18.9346 187.843 18.9339H185.362C185.261 18.9365 185.165 18.9787 185.095 19.0515C185.025 19.1242 184.987 19.2217 184.988 19.3226V19.3226ZM37.4059 20.9139C35.685 17.7239 32.3178 15.7378 28.656 15.7501H0.950688C0.763587 15.7508 0.580845 15.8066 0.425232 15.9105C0.26962 16.0144 0.148018 16.1618 0.0755769 16.3343C0.0041948 16.5057 -0.0143962 16.6945 0.0221849 16.8765C0.0587661 17.0586 0.148854 17.2255 0.28091 17.3561L6.31624 23.3449C6.84913 23.8754 7.57513 24.1724 8.33047 24.1724H27.8616C29.2537 24.1577 30.3916 25.2602 30.4062 26.6327C30.4209 28.0053 29.305 29.1297 27.9129 29.1432H14.4477C14.2604 29.1432 14.0774 29.1985 13.9213 29.3019C13.7652 29.4054 13.6431 29.5525 13.5701 29.7249C13.4981 29.8965 13.479 30.0858 13.5154 30.2683C13.5517 30.4508 13.6419 30.6183 13.7742 30.7492L19.8132 36.7429C20.3495 37.2731 21.0734 37.5701 21.8275 37.5692H27.9178C35.8415 37.5692 41.8328 29.2092 37.4059 20.9103" fill="#FF3008"/>
</g>
<defs>
<clipPath id="clip0_324_5783">
<rect width="188" height="48" fill="white" transform="translate(0 0.75)"/>
</clipPath>
</defs>
</svg>
