<svg width="164" height="49" viewBox="0 0 164 49" fill="none" xmlns="http://www.w3.org/2000/svg">
<path d="M39.6255 33.3222L40.64 33.1133C41.5352 32.8746 41.7739 32.7552 41.7739 30.9649V16.9109C41.7739 15.1206 41.5053 14.9714 40.64 14.7625L39.6255 14.5536V13.7181H55.7981L56.0965 19.656H55.1715C54.4255 18.0149 53.9481 17.1496 53.5005 16.4931C52.5456 15.1206 51.919 15.0012 49.8602 15.0012C48.3384 15.0012 47.5924 15.1802 47.1448 15.2996V22.9085H47.9505C50.0392 22.9085 50.5166 22.6698 50.8747 22.0133C51.2924 21.2673 51.5311 20.7004 51.7997 19.7456H52.6948V27.4439H51.7997C51.5311 26.5189 51.2924 25.9222 50.8747 25.0568C50.5166 24.3109 50.1287 24.1617 47.9505 24.1617H47.1448V29.8907C47.1448 32.5464 47.2344 32.8448 50.1287 32.8448C52.5158 32.8448 52.9932 32.5464 53.9779 31.0843C54.515 30.2786 55.0819 29.0254 55.8577 27.1456H56.8126L56.3948 34.1577H39.6553L39.6255 33.3222ZM59.319 22.1327C58.6327 20.4617 58.3045 20.0439 57.5585 19.8052L56.9916 19.6262V18.8504H65.8537V19.6262L65.0481 19.8351C64.4215 20.0141 64.1231 20.3125 64.1231 21.0286C64.1231 21.4464 64.2723 21.9536 64.511 22.6101L66.9876 29.4133H67.1368L69.5239 22.6101C69.7924 21.8939 69.9118 21.3867 69.9118 20.9689C69.9118 20.3125 69.6134 19.9843 68.9868 19.8351L68.1811 19.6262V18.8504H73.6416V19.6262L73.0747 19.8052C72.2989 20.0738 71.9706 20.5214 71.2545 22.4609L66.6892 34.1577H64.1827L59.319 22.1327ZM72.9553 26.4294C72.9553 21.2972 76.7448 18.4625 80.6537 18.4625C84.7118 18.4625 87.2481 20.4915 87.3376 25.8327H77.5803C77.6698 30.6665 79.49 31.9794 82.5335 31.9794C84.3537 31.9794 85.7561 31.4423 86.8602 30.8754V31.8601C85.8158 32.9939 83.5779 34.5456 80.6239 34.5456C75.4916 34.4859 72.9553 31.4423 72.9553 26.4294ZM77.5803 24.6988L82.6231 24.4302C82.6231 20.8794 82.1456 19.5665 80.3852 19.5665C78.8932 19.5665 77.6997 20.9988 77.5803 24.6988ZM95.0956 20.7302C95.9311 19.8351 97.6319 18.373 99.6013 18.373C100.855 18.373 101.899 19.3875 101.899 20.6706C101.899 21.9536 100.884 22.9681 99.6013 22.9681C98.6763 22.9681 97.8408 22.4012 97.5126 21.5956C97.3335 21.2673 96.9456 21.1778 96.6771 21.1778C96.14 21.1778 95.5134 21.5657 95.1255 21.9238V31.4722C95.1255 32.8448 95.2448 32.9939 96.14 33.1431L97.1247 33.352V34.1577H88.6206V33.352L89.3965 33.1431C90.3811 32.8746 90.5005 32.7254 90.5005 31.4722V22.3117C90.5005 21.0585 90.3513 20.9689 89.5158 20.402L88.5311 19.7456V19.1488L94.7376 18.4327L95.0658 18.6714L95.0061 20.7004L95.0956 20.7302ZM102.794 33.352L103.57 33.1431C104.555 32.8746 104.674 32.7254 104.674 31.4722V22.3117C104.674 21.0585 104.525 20.9689 103.689 20.402L102.705 19.7456V19.1488L108.911 18.4327L109.239 18.6415L109.18 20.5214H109.299C110.85 19.4173 112.79 18.4327 114.938 18.4327C117.445 18.4327 118.788 19.7157 118.788 22.3714V31.4423C118.788 32.7254 118.907 32.8746 119.862 33.1133L120.638 33.3222V34.1278H112.432V33.3222L113.148 33.1431C114.043 32.9044 114.133 32.8149 114.133 31.4423V23.5351C114.133 21.7448 113.476 21.1778 112.104 21.1778C111.059 21.1778 110.015 21.4165 109.359 21.5657V31.4722C109.359 32.8746 109.448 32.9343 110.343 33.173L111.059 33.352V34.1577H102.854V33.352H102.794ZM121.205 26.5189C121.205 20.8794 125.203 18.4625 129.171 18.4625C133.438 18.4625 137.168 21.0286 137.168 26.3698C137.168 32.0093 133.23 34.4859 129.171 34.4859C124.905 34.4859 121.205 31.9198 121.205 26.5189ZM132.215 26.6681C132.215 20.7302 131.081 19.5964 129.052 19.5964C127.202 19.5964 126.098 20.9391 126.098 26.0117C126.098 32.0391 127.083 33.352 129.231 33.352C130.992 33.352 132.215 32.3077 132.215 26.6681ZM139.705 30.4278V20.581H137.855V19.8649C140.152 18.9698 141.913 17.2689 142.748 14.9117H144.419V18.8504H148.328L147.94 20.581H144.419V30.1294C144.419 31.5915 144.867 32.1883 146.329 32.1883C147.045 32.1883 147.91 32.0391 148.447 31.9198V32.7552C147.731 33.4117 146.269 34.4859 143.792 34.4859C141.137 34.4859 139.705 33.3222 139.705 30.4278ZM149.044 26.4294C149.044 21.2972 152.834 18.4625 156.742 18.4625C160.8 18.4625 163.337 20.4915 163.426 25.8327H153.699C153.788 30.6665 155.609 31.9794 158.652 31.9794C160.472 31.9794 161.875 31.4423 162.979 30.8754V31.8601C161.934 32.9939 159.696 34.5456 156.742 34.5456C151.58 34.4859 149.044 31.4423 149.044 26.4294ZM153.669 24.6988L158.712 24.4302C158.712 20.8794 158.234 19.5665 156.474 19.5665C154.982 19.5665 153.788 20.9988 153.669 24.6988Z" fill="#1B1B1B"/>
<path d="M9.72774 16.0154C9.72774 16.3734 9.69791 16.9702 9.33984 17.3581C8.95194 17.7162 8.35516 17.746 7.9971 17.746H4.17775C3.07371 17.746 2.41726 17.746 1.96968 17.8057C1.73097 17.8355 1.43259 17.9549 1.28339 18.0146C1.22371 18.0444 1.22371 18.0146 1.25355 17.9847L9.96645 9.12263C9.99629 9.09279 10.0261 9.09279 9.99629 9.15246C9.93662 9.30166 9.81726 9.60004 9.78742 9.83875C9.72775 10.2863 9.72774 10.9428 9.72774 12.0468V16.0154ZM17.8439 42.8105C16.8294 42.1541 16.2923 41.2888 16.0834 40.7517C15.8745 40.2444 15.7552 39.6775 15.7552 39.1105C15.7552 36.6339 17.7842 34.6049 20.2906 34.6049C21.0366 34.6049 21.6334 35.2017 21.6334 35.9476C21.6334 36.4549 21.3648 36.8726 20.9471 37.1113C20.7979 37.2009 20.589 37.2605 20.4398 37.2904C20.2906 37.3202 19.7237 37.3799 19.4552 37.6186C19.1568 37.8573 18.9181 38.2452 18.9181 38.6629C18.9181 39.1105 19.0971 39.5283 19.3955 39.8267C19.9326 40.3638 20.6487 40.6621 21.4245 40.6621C23.4535 40.6621 25.0947 39.021 25.0947 36.992C25.0947 35.1718 23.8713 33.5605 22.26 32.8444C22.0213 32.725 21.6334 32.6355 21.2753 32.546C20.8277 32.4565 20.41 32.3968 20.3802 32.3968C19.1269 32.2476 15.9939 31.263 15.785 28.488C15.785 28.488 14.86 32.6654 13.01 33.7992C12.831 33.8888 12.5923 33.9783 12.3237 34.038C12.0552 34.0976 11.7568 34.1275 11.6673 34.1275C8.65355 34.3065 5.46081 33.3517 3.25275 31.0839C3.25275 31.0839 1.76081 29.8605 0.985005 26.4291C0.805973 25.5936 0.447908 24.1017 0.239037 22.6992C0.149521 22.192 0.119682 21.8041 0.0898438 21.446C0.0898438 19.9839 0.985005 18.9992 2.11888 18.85C2.14871 18.85 2.23823 18.85 2.29791 18.85C2.9842 18.85 8.20597 18.85 8.20597 18.85C9.25033 18.85 9.8471 18.5815 10.235 18.2234C10.7423 17.746 10.8616 17.0597 10.8616 16.2541C10.8616 16.2541 10.8616 10.8234 10.8616 10.1371C10.8616 10.1073 10.8616 9.98795 10.8616 9.95811C11.0108 8.85408 11.9955 7.92908 13.4576 7.92908C13.4576 7.92908 13.9052 7.92908 14.1737 7.92908C14.4721 7.92908 14.8302 7.95892 15.1584 7.98875C15.3971 8.01859 15.606 8.07827 15.964 8.16779C17.7842 8.61537 18.1721 10.4654 18.1721 10.4654C18.1721 10.4654 21.6035 11.0621 23.3342 11.3605C24.9753 11.6589 29.0334 11.9275 29.8092 16.0154C31.6294 25.7428 30.5253 35.1718 30.4358 35.1718C29.1527 44.3621 21.514 43.9146 21.514 43.9146C19.8729 43.9146 18.6495 43.3775 17.8439 42.8105ZM24.7068 23.2662C23.7221 23.1767 22.8866 23.5646 22.5882 24.3105C22.5285 24.4597 22.4689 24.6388 22.4987 24.7283C22.5285 24.8178 22.5882 24.8476 22.6479 24.8775C23.006 25.0565 23.6027 25.146 24.4681 25.2355C25.3334 25.325 25.9302 25.3847 26.3181 25.325C26.3777 25.325 26.4374 25.2952 26.4971 25.2057C26.5568 25.1162 26.5269 24.9371 26.5269 24.788C26.4076 23.9525 25.6914 23.3855 24.7068 23.2662Z" fill="#00A82D"/>
</svg>
