<svg width="160" height="49" viewBox="0 0 160 49" fill="none" xmlns="http://www.w3.org/2000/svg">
<path d="M38.8888 10.0886C34.8721 10.0886 33.4623 12.8816 33.4623 15.4885V17.0845H32.6111C31.9993 17.0845 31.5205 17.5633 31.5205 18.1751C31.5205 18.7869 31.9993 19.2657 32.6111 19.2657H33.4623V30.2781C33.4623 30.9165 33.9677 31.4485 34.6327 31.4485C35.2711 31.4485 35.8031 30.9431 35.8031 30.2781V19.2657H38.3833C38.9951 19.2657 39.474 18.7869 39.474 18.1751C39.474 17.5633 38.9951 17.0845 38.3833 17.0845H35.8031V15.4885C35.8031 14.0254 36.3351 12.2964 38.9153 12.2964C39.5272 12.2964 40.006 11.8176 40.006 11.2058C39.9794 10.5674 39.5006 10.0886 38.8888 10.0886Z" fill="#505050"/>
<path d="M47.9331 16.7115C46.2041 16.7115 44.7411 17.4297 43.9165 18.6001V17.9883C43.9165 17.3499 43.4111 16.8179 42.7461 16.8179C42.1077 16.8179 41.5757 17.3233 41.5757 17.9883V30.2776C41.5757 30.916 42.0811 31.448 42.7461 31.448C43.3845 31.448 43.9165 30.9426 43.9165 30.2776V23.4945C43.9165 20.6483 45.4327 18.9459 47.9331 18.9459C48.5449 18.9459 49.0503 18.4405 49.0503 17.8287C49.0769 17.2169 48.5715 16.7115 47.9331 16.7115Z" fill="#505050"/>
<path d="M62.1645 22.7496C62.1645 22.0846 62.0581 20.3556 61.0473 18.9192C60.0098 17.4296 58.3872 16.6582 56.1794 16.6582C52.083 16.6582 49.7422 19.3714 49.7422 24.1062C49.7422 29.0007 52.083 31.6075 56.472 31.6075C59.4246 31.6075 61.0472 30.1445 61.3399 29.8519C61.5261 29.6657 61.7389 29.4263 61.7389 29.0273C61.7389 28.4421 61.2601 27.9633 60.6748 27.9633C60.3822 27.9633 60.196 28.0431 60.0098 28.1761C59.1586 28.8145 58.1744 29.4529 56.4986 29.4529C53.8652 29.4529 52.1894 27.7239 52.1096 24.9043H60.7546C62.1645 24.8777 62.1645 23.6008 62.1645 22.7496ZM56.1794 18.7862C58.5734 18.7862 59.8236 20.1428 59.8768 22.8028H52.1362C52.349 20.2226 53.7854 18.7862 56.1794 18.7862Z" fill="#505050"/>
<path d="M69.985 22.9365C68.2559 22.3513 66.7663 21.8193 66.7663 20.5425C66.7663 19.1327 68.3357 18.9199 69.2667 18.9199C70.9426 18.9199 71.7672 19.5051 72.4322 20.1435C72.645 20.3563 72.911 20.4627 73.2036 20.4627C73.7888 20.4627 74.2676 19.9839 74.2676 19.3987C74.2676 19.0795 74.1346 18.8667 74.0282 18.7071C73.044 17.4037 71.3682 16.6855 69.2667 16.6855C66.2875 16.6855 64.4521 18.1751 64.4521 20.5425C64.4521 23.4419 67.0057 24.3197 69.2401 25.0645C70.9426 25.6497 72.4056 26.1285 72.4056 27.3788C72.4056 29.0812 70.5169 29.3472 69.3731 29.3472C67.8303 29.3472 66.6333 28.8684 65.6491 27.9108C65.3565 27.6182 65.0373 27.5649 64.8511 27.5649C64.2659 27.5649 63.7871 28.0438 63.7871 28.629C63.7871 28.8684 63.8669 29.0546 64.0531 29.3206C64.9309 30.4378 66.9259 31.5816 69.3731 31.5816C72.7248 31.5816 74.7198 30.0122 74.7198 27.4053C74.7198 24.5857 72.2194 23.7079 69.985 22.9365Z" fill="#505050"/>
<path d="M83.7904 16.6584C82.1944 16.6584 80.758 17.2968 79.96 18.3076V10.434C79.96 9.79555 79.4545 9.26355 78.7895 9.26355C78.1511 9.26355 77.6191 9.76895 77.6191 10.434V30.3043C77.6191 30.9427 78.1245 31.4747 78.7895 31.4747C79.4279 31.4747 79.96 30.9693 79.96 30.3043V22.8296C79.96 20.143 81.2634 18.7864 83.7904 18.7864C86.2376 18.7864 87.2484 19.9036 87.2484 22.6168V30.3043C87.2484 30.9427 87.7538 31.4747 88.4188 31.4747C89.0572 31.4747 89.5892 30.9693 89.5892 30.3043V22.2178C89.536 18.5204 87.5942 16.6584 83.7904 16.6584Z" fill="#505050"/>
<path d="M108.927 16.8451C108.422 16.8451 108.023 17.1377 107.837 17.6165L104.512 27.0862L101.798 17.6165C101.692 17.2441 101.293 16.8451 100.708 16.8451C100.123 16.8451 99.7235 17.2441 99.6171 17.6165L96.9039 27.0596L93.5789 17.5899C93.3927 17.1111 92.9937 16.8451 92.4883 16.8451C91.8499 16.8451 91.3179 17.3505 91.3179 18.0155C91.3179 18.1751 91.3445 18.3347 91.4243 18.4943L95.8665 30.7038C96.0527 31.1826 96.4517 31.4486 96.9571 31.4486C97.4891 31.4486 97.9413 31.1028 98.0743 30.624L100.681 21.6597L103.288 30.624C103.421 31.1028 103.9 31.4486 104.405 31.4486C104.911 31.4486 105.31 31.156 105.496 30.6772L109.938 18.4677C110.018 18.3081 110.044 18.1219 110.044 17.9623C110.071 17.3505 109.566 16.8451 108.927 16.8451Z" fill="#505050"/>
<path d="M117.386 16.6582C113.157 16.6582 110.842 19.3182 110.842 24.1062C110.842 28.9475 113.157 31.6075 117.386 31.6075C121.615 31.6075 123.93 28.9475 123.93 24.1062C123.93 19.2916 121.589 16.6582 117.386 16.6582ZM117.386 29.4795C114.566 29.4795 113.183 27.7239 113.183 24.1328C113.183 20.595 114.593 18.8128 117.386 18.8128C120.179 18.8128 121.589 20.595 121.589 24.1328C121.589 27.7239 120.206 29.4795 117.386 29.4795Z" fill="#505050"/>
<path d="M132.921 16.7115C131.192 16.7115 129.729 17.4297 128.904 18.6001V17.9883C128.904 17.3499 128.399 16.8179 127.734 16.8179C127.096 16.8179 126.564 17.3233 126.564 17.9883V30.2776C126.564 30.916 127.069 31.448 127.734 31.448C128.372 31.448 128.904 30.9426 128.904 30.2776V23.4945C128.904 20.6483 130.421 18.9459 132.921 18.9459C133.533 18.9459 134.038 18.4405 134.038 17.8287C134.038 17.2169 133.533 16.7115 132.921 16.7115Z" fill="#505050"/>
<path d="M141.752 22.7764L146.567 18.9194C146.966 18.6002 147.019 18.2012 147.019 17.9884C147.019 17.35 146.514 16.818 145.849 16.818C145.662 16.818 145.343 16.8446 145.051 17.1106L138.214 22.6966V10.434C138.214 9.79555 137.709 9.26355 137.044 9.26355C136.406 9.26355 135.874 9.76895 135.874 10.434V30.3043C135.874 30.9427 136.379 31.4747 137.044 31.4747C137.682 31.4747 138.214 30.9693 138.214 30.3043V25.5162L139.837 24.2128L145.077 30.9427C145.37 31.2885 145.689 31.4747 146.061 31.4747C146.7 31.4747 147.232 30.9693 147.232 30.3043C147.232 30.1181 147.205 29.8521 146.992 29.5861L141.752 22.7764Z" fill="#505050"/>
<path d="M154.866 22.9365C153.137 22.3513 151.648 21.8193 151.648 20.5425C151.648 19.1327 153.217 18.9199 154.148 18.9199C155.824 18.9199 156.649 19.5051 157.314 20.1435C157.526 20.3563 157.792 20.4627 158.085 20.4627C158.67 20.4627 159.149 19.9839 159.149 19.3987C159.149 19.0529 158.963 18.8135 158.91 18.7071C157.925 17.4037 156.249 16.6855 154.148 16.6855C151.169 16.6855 149.333 18.1751 149.333 20.5425C149.333 23.4419 151.887 24.3197 154.121 25.0645C155.824 25.6497 157.287 26.1285 157.287 27.3788C157.287 29.0812 155.398 29.3472 154.254 29.3472C152.712 29.3472 151.515 28.8684 150.53 27.9108C150.238 27.6182 149.945 27.5649 149.732 27.5649C149.147 27.5649 148.668 28.0438 148.668 28.629C148.668 28.8684 148.748 29.0546 148.934 29.3206C149.812 30.4378 151.807 31.5816 154.254 31.5816C157.606 31.5816 159.601 30.0122 159.601 27.4053C159.601 24.5857 157.101 23.7079 154.866 22.9365Z" fill="#505050"/>
<path d="M0.159546 29.639C0.611748 32.5917 1.99496 35.2517 3.98997 37.2467L8.64499 32.5917C8.64499 27.8834 11.0922 23.3082 15.4546 20.7812L0.159546 29.639Z" fill="#9B65C3"/>
<path d="M8.64499 32.5924C6.33078 32.5924 3.98997 32.0072 1.83536 30.757C1.25015 30.4112 0.691549 30.0388 0.159546 29.6132C0.611748 32.5658 1.99496 35.2258 3.98997 37.2208L8.64499 32.5924Z" fill="#9B65C3"/>
<path d="M8.64477 32.5919L3.98975 37.2469C6.01136 39.2685 8.64477 40.6517 11.5974 41.0773L20.4286 25.7822C17.9282 30.1447 13.353 32.5919 8.64477 32.5919Z" fill="#BE63C5"/>
<path d="M10.4802 39.4276C9.22998 37.2729 8.64477 34.9321 8.64477 32.6179L3.98975 37.2729C6.01136 39.2946 8.64477 40.6778 11.5974 41.1034C11.1984 40.5714 10.826 40.0128 10.4802 39.4276Z" fill="#BF63C6"/>
<path d="M25.9886 14.7161L15.4815 20.8075C11.1191 23.3345 5.93209 23.1483 1.86227 20.8075C0.691859 22.8025 0.0268555 25.1433 0.0268555 27.6171C0.0268555 28.3087 0.0800554 28.9737 0.186456 29.6388C0.718459 30.0644 1.27706 30.4368 1.86227 30.7826C4.01688 32.0328 6.35769 32.618 8.6719 32.618L26.2812 15.0087C26.1748 14.9023 26.095 14.7959 25.9886 14.7161Z" fill="#3278B1"/>
<path d="M1.83534 30.7833C3.98996 32.0336 6.33077 32.6188 8.64498 32.6188C8.64498 27.9105 11.0922 23.3353 15.4546 20.8083L0.132935 29.6395C0.691538 30.0385 1.25014 30.4375 1.83534 30.7833Z" fill="#3278B2"/>
<path d="M1.83541 20.8083C0.665004 22.8033 0 25.1441 0 27.6179C0 28.3095 0.0532004 28.9745 0.159601 29.6395L15.4813 20.8083C11.0923 23.3087 5.90523 23.1491 1.83541 20.8083Z" fill="#45A4EC"/>
<path d="M26.281 14.9824C26.2012 14.9026 26.0948 14.7962 25.9884 14.7164C25.8554 14.61 25.7224 14.5036 25.5628 14.4238C25.0574 14.1312 24.4722 13.9716 23.8604 13.9716H13.6459C8.59189 13.9716 4.20286 16.7114 1.83545 20.7812C5.90527 23.122 11.0923 23.3082 15.4547 20.7812C11.0923 23.3082 8.64509 27.8834 8.64509 32.5917C13.3533 32.5917 17.9285 30.1445 20.4556 25.782L26.5204 15.275C26.4406 15.1686 26.3608 15.0622 26.281 14.9824Z" fill="#19BB7D"/>
<path d="M15.4813 20.8076L25.9884 14.7428C25.8554 14.6364 25.7224 14.53 25.5628 14.4502L1.83545 20.8076C5.90527 23.1484 11.0923 23.308 15.4813 20.8076Z" fill="#08C7FB"/>
<path d="M23.8604 13.9716H13.6459C8.59189 13.9716 4.20286 16.7114 1.83545 20.7812L25.5628 14.4238C25.0574 14.1578 24.4988 13.9716 23.8604 13.9716Z" fill="#59F2F6"/>
<path d="M20.4555 25.7817L26.5203 15.2747C26.4405 15.1683 26.3607 15.0885 26.2543 14.9821L8.64502 32.5914C8.64502 34.9056 9.23022 37.2464 10.4804 39.401C10.8262 39.9862 11.1986 40.5448 11.6242 41.0768C12.2892 41.1832 12.9542 41.2364 13.6458 41.2364C16.1197 41.2364 18.4605 40.5714 20.4555 39.401C18.1147 35.3312 17.9285 30.1441 20.4555 25.7817Z" fill="#DA3757"/>
<path d="M8.64502 32.5919C8.64502 34.9061 9.23022 37.2469 10.4804 39.4015C10.8262 39.9867 11.1986 40.5453 11.6242 41.0773L20.4555 25.7822C17.9285 30.1447 13.3532 32.5919 8.64502 32.5919Z" fill="#D33C4E"/>
<path d="M20.4558 25.7822L11.6245 41.1039C12.2895 41.2103 12.9545 41.2635 13.6461 41.2635C16.1199 41.2635 18.4608 40.5985 20.4558 39.4281C18.1149 35.3317 17.9287 30.1447 20.4558 25.7822Z" fill="#EE5A24"/>
<path d="M26.8132 15.7003C26.7334 15.5407 26.627 15.4077 26.5206 15.2747C26.4408 15.1683 26.361 15.0885 26.2546 14.9821C26.1748 14.9023 26.0684 14.7959 25.962 14.7161L15.4815 20.8076C11.1191 23.3346 8.67188 27.9098 8.67188 32.618C13.3801 32.618 17.9553 30.1708 20.4823 25.8084C17.9553 30.1708 18.1415 35.3578 20.4823 39.4277C24.5522 37.0603 27.292 32.6712 27.292 27.6172V17.4027C27.2654 16.7643 27.1058 16.1791 26.8132 15.7003Z" fill="#8BDF55"/>
<path d="M25.9886 14.7161L15.4815 20.8076C11.1191 23.3346 8.67188 27.9098 8.67188 32.618L26.2812 15.0087C26.1748 14.9023 26.095 14.7959 25.9886 14.7161Z" fill="#25C16F"/>
<path d="M8.64502 32.5914C13.3532 32.5914 17.9285 30.1441 20.4555 25.7817L26.5203 15.2747C26.4405 15.1683 26.3607 15.0885 26.2543 14.9821L8.64502 32.5914Z" fill="#8BDF55"/>
<path d="M26.5203 15.2753L20.4555 25.7823C17.9285 30.1448 18.1147 35.3318 20.4555 39.4016L26.8129 15.6743C26.7331 15.5413 26.6267 15.4083 26.5203 15.2753Z" fill="#FFBB00"/>
<path d="M20.4551 39.4281C24.5249 37.0607 27.2647 32.6717 27.2647 27.6177V17.4032C27.2647 16.7914 27.1051 16.2062 26.8125 15.7008L20.4551 39.4281Z" fill="#FFA800"/>
</svg>
