<svg width="124" height="49" viewBox="0 0 124 49" fill="none" xmlns="http://www.w3.org/2000/svg">
<g clip-path="url(#clip0_315_1289)">
<path d="M52.7211 19.0862H57.3903L50.7551 35.7971H46.5774L39.8193 19.0862H44.6114L48.6663 30.2677L52.7211 19.0862ZM58.8648 35.6742H63.4111V19.0862H58.8648V35.6742ZM65.5 30.2677H70.0463C70.1692 31.3736 70.9064 32.4795 72.8724 32.4795C74.5927 32.4795 75.4528 31.8651 75.4528 31.005C75.4528 28.1789 66.2372 30.8821 66.2372 24.2469C66.2372 21.1751 68.8176 18.7176 72.8724 18.7176C77.9103 18.7176 79.6305 21.9123 79.7534 24.3698H75.4528C75.3299 23.2639 74.5927 22.4038 72.9953 22.4038C71.5208 22.4038 70.6607 23.1411 70.6607 24.0012C70.6607 26.8273 79.8762 24.0012 79.8762 30.8821C79.8762 33.8311 77.2959 36.1657 72.8724 36.1657C67.5888 36.0428 65.7457 33.4625 65.5 30.2677ZM82.088 35.6742H86.6343V19.0862H82.088V35.6742ZM97.3243 32.1109C99.6589 32.1109 101.502 30.3906 101.502 27.3188C101.502 24.3698 99.6589 22.5267 97.3243 22.5267C94.9897 22.5267 93.1466 24.2469 93.1466 27.3188C93.1466 30.3906 94.9897 32.1109 97.3243 32.1109ZM88.6003 27.3188C88.6003 22.5267 92.0408 18.5947 97.3243 18.5947C102.608 18.5947 106.048 22.5267 106.048 27.3188C106.048 32.1109 102.608 36.0428 97.3243 36.0428C92.0408 36.0428 88.6003 32.1109 88.6003 27.3188ZM112.315 21.0522C113.052 19.5777 114.772 18.5947 117.23 18.5947C121.285 18.5947 123.374 21.298 123.374 25.2299V35.6742H118.827V25.7214C118.827 23.7554 117.967 22.4038 116.001 22.4038C113.789 22.4038 112.561 23.7554 112.561 26.09V35.6742H108.014V19.0862H112.315V21.0522Z" fill="#FF3366"/>
<path d="M0.5 45.7501H42.4V3.8501H0.5V45.7501Z" fill="#FF3366"/>
<path d="M15.2448 16.9977C16.5964 16.9977 17.7022 16.0147 17.7022 14.5402C17.7022 13.1886 16.5964 12.0828 15.2448 12.0828C13.8932 12.0828 12.7873 13.0658 12.7873 14.5402C12.7873 16.0147 13.8932 16.9977 15.2448 16.9977ZM10.0841 30.0224C9.96119 30.6367 9.83832 31.2511 9.83832 31.8655C9.83832 33.9543 10.9442 35.4288 13.4017 35.4288C15.4905 35.4288 17.0879 34.2001 18.3166 32.2341L17.5794 35.1831H21.6342L23.9688 25.9675C24.5832 23.6329 25.6891 22.4042 27.4093 22.4042C28.7609 22.4042 29.621 23.2643 29.621 24.6159C29.621 24.9845 29.621 25.476 29.4981 25.9675L28.2694 30.2681C28.1465 30.8825 28.0237 31.4968 28.0237 32.1112C28.0237 34.0772 29.2524 35.5517 31.7099 35.5517C33.7987 35.5517 35.519 34.2001 36.502 30.8825L34.9046 30.2681C34.1674 32.4798 33.4301 32.8485 32.9386 32.8485C32.4471 32.8485 32.0785 32.4798 32.0785 31.7426C32.0785 31.374 32.2014 31.0053 32.2014 30.6367L33.3072 26.459C33.553 25.476 33.6759 24.6159 33.6759 23.8787C33.6759 20.8068 31.8327 19.2095 29.4981 19.2095C27.4093 19.2095 25.1976 21.1754 24.0917 23.1414L24.8289 19.5781H18.6852L17.8251 22.7728H20.6512L18.931 29.5309C17.5794 32.6027 14.999 32.7256 14.6304 32.6027C14.1389 32.4798 13.7703 32.2341 13.7703 31.6197C13.7703 31.2511 13.8932 30.6367 14.016 30.0224L16.7193 19.3323H9.96119L9.10107 22.527H11.9272L10.0841 30.0224Z" fill="white"/>
</g>
<defs>
<clipPath id="clip0_315_1289">
<rect width="123" height="48" fill="white" transform="translate(0.5 0.75)"/>
</clipPath>
</defs>
</svg>
