<svg width="130" height="49" viewBox="0 0 130 49" fill="none" xmlns="http://www.w3.org/2000/svg">
<g clip-path="url(#clip0_315_1286)">
<path d="M45.4356 35.5249V20.9699H45.6949L56.2896 35.5249H59.6236V14.1506H55.9192V28.669H55.6598L45.0652 14.1506H41.7312V35.5249H45.4356ZM70.1071 35.8549C74.997 35.8549 77.9976 32.7019 77.9976 27.4225C77.9976 22.1797 74.997 18.9901 70.1071 18.9901C65.2543 18.9901 62.2167 22.1797 62.2167 27.4225C62.2537 32.7019 65.2173 35.8549 70.1071 35.8549ZM70.1071 32.7752C67.514 32.7752 66.0322 30.8321 66.0322 27.4225C66.0322 24.0495 67.514 22.0698 70.1071 22.0698C72.7002 22.0698 74.182 24.0495 74.182 27.4225C74.182 30.8321 72.7002 32.7752 70.1071 32.7752ZM81.3686 15.3605V19.43H78.7755V22.3631H81.3686V31.1987C81.3686 34.3517 82.8504 35.5983 86.6289 35.5983C87.3327 35.5983 88.0366 35.5249 88.5922 35.4149V32.5553C88.1477 32.5919 87.8513 32.6286 87.3327 32.6286C85.7769 32.6286 85.073 31.932 85.073 30.3188V22.3631H88.5922V19.43H85.073V15.3605H81.3686ZM90.8149 35.5249H94.5193V19.3201H90.8149V35.5249ZM92.6671 16.6437C93.8896 16.6437 94.8898 15.6538 94.8898 14.4439C94.8898 13.1974 93.8896 12.2075 92.6671 12.2075C91.4446 12.2075 90.4444 13.1974 90.4444 14.4439C90.4444 15.6538 91.4446 16.6437 92.6671 16.6437ZM104.669 35.8549C109.559 35.8549 112.56 32.7019 112.56 27.4225C112.56 22.1797 109.559 18.9901 104.669 18.9901C99.8166 18.9901 96.779 22.1797 96.779 27.4225C96.779 32.7019 99.7426 35.8549 104.669 35.8549ZM104.669 32.7752C102.076 32.7752 100.595 30.8321 100.595 27.4225C100.595 24.0495 102.076 22.0698 104.669 22.0698C107.226 22.0698 108.744 24.0495 108.744 27.4225C108.707 30.8321 107.226 32.7752 104.669 32.7752ZM114.745 35.5249H118.45V26.1026C118.45 23.7196 119.858 22.2164 122.043 22.2164C124.303 22.2164 125.34 23.4629 125.34 25.9193V35.5249H129.045V25.0394C129.045 21.1532 127.044 18.9901 123.414 18.9901C120.969 18.9901 119.339 20.09 118.561 21.9231H118.302V19.3201H114.708C114.745 19.3201 114.745 35.5249 114.745 35.5249Z" fill="black"/>
<path fill-rule="evenodd" clip-rule="evenodd" d="M6.21206 12.7826C7.29023 13.6524 7.68021 13.5837 9.69893 13.4464L28.7162 12.3019C29.1291 12.3019 28.785 11.8899 28.6474 11.8441L25.4816 9.57806C24.8852 9.12028 24.0594 8.57093 22.5224 8.70826L4.12452 10.0587C3.45926 10.1274 3.32162 10.4708 3.5969 10.7225L6.21206 12.7826ZM7.35905 17.2002V37.1598C7.35905 38.2357 7.88667 38.6248 9.10249 38.5561L30.0008 37.343C31.2166 37.2743 31.3543 36.5418 31.3543 35.672V15.8498C31.3543 14.98 31.0102 14.4993 30.2761 14.568L8.43723 15.8498C7.63433 15.9184 7.35905 16.3304 7.35905 17.2002ZM27.9821 18.2761C28.1197 18.8712 27.9821 19.4892 27.3857 19.5579L26.3763 19.7639V34.5047C25.5046 34.9625 24.7017 35.2371 24.0135 35.2371C22.9353 35.2371 22.66 34.8938 21.8571 33.8867L15.2733 23.5635V33.5433L17.3609 34.0011C17.3609 34.0011 17.3609 35.2142 15.6863 35.2142L11.0524 35.4889C10.9148 35.2142 11.0524 34.5505 11.5112 34.4131L12.727 34.0698V20.8855L11.0524 20.7481C10.9148 20.153 11.2589 19.2832 12.1994 19.2145L17.1774 18.8712L24.0364 29.3088V20.0843L22.293 19.8783C22.1553 19.1459 22.7059 18.5965 23.3712 18.5278L27.9821 18.2761ZM2.58754 8.22759L21.7424 6.83133C24.0823 6.62532 24.7017 6.76266 26.1698 7.83847L32.2719 12.1188C33.2812 12.8513 33.6253 13.0573 33.6253 13.8584V37.3659C33.6253 38.8308 33.0977 39.7006 31.2166 39.8379L8.98779 41.1884C7.56552 41.2571 6.90026 41.0511 6.16618 40.1126L1.647 34.2758C0.8441 33.2 0.5 32.3988 0.5 31.4604V10.5623C0.5 9.34917 1.05056 8.36492 2.58754 8.22759Z" fill="black"/>
</g>
<defs>
<clipPath id="clip0_315_1286">
<rect width="129" height="48" fill="white" transform="translate(0.5 0.75)"/>
</clipPath>
</defs>
</svg>
