<svg width="168" height="49" viewBox="0 0 168 49" fill="none" xmlns="http://www.w3.org/2000/svg">
<path fill-rule="evenodd" clip-rule="evenodd" d="M44.6462 10.8558L30.4001 38.7053H17.0191L22.981 27.1633H22.7136C17.795 33.5482 10.4564 37.7514 0 38.7053V27.3231C0 27.3231 6.6892 26.928 10.6216 22.7936H0V10.8561H11.9375V20.6745L12.2055 20.6734L17.0836 10.8561H26.1116V20.6122L26.3796 20.6118L31.4406 10.8558H44.6462Z" fill="#146EF5"/>
<path d="M122.331 35.6313H126.175V13.5634H122.331V35.6313Z" fill="#080808"/>
<path fill-rule="evenodd" clip-rule="evenodd" d="M101.136 35.4059C101.972 35.7534 102.821 35.9269 103.685 35.9269C105.112 35.9269 106.389 35.5796 107.516 34.8849C108.642 34.1902 109.515 33.2324 110.135 32.012C110.755 30.7821 111.064 29.3879 111.064 27.8294C111.064 26.2708 110.745 24.8767 110.107 23.6467C109.468 22.4168 108.581 21.4639 107.445 20.7879C106.309 20.1026 105.018 19.7646 103.572 19.774C102.652 19.774 101.77 19.9523 100.925 20.3091C100.08 20.6659 99.3757 21.1729 98.8123 21.8301C98.7688 21.8801 98.7266 21.9306 98.6856 21.9817V13.5775H94.8269V35.6313H98.6575L98.6497 33.5711C98.7489 33.6925 98.8547 33.8112 98.9673 33.9272C99.5776 34.5563 100.3 35.0492 101.136 35.4059ZM105.079 31.843C104.45 32.2278 103.732 32.4204 102.925 32.4204C102.127 32.4204 101.394 32.2232 100.728 31.8289C100.061 31.4251 99.5306 30.876 99.1362 30.1812C98.7514 29.4865 98.5589 28.6978 98.5589 27.8153C98.5495 26.9328 98.7373 26.1441 99.1222 25.4494C99.5165 24.7452 100.047 24.2007 100.714 23.8157C101.38 23.4214 102.117 23.229 102.925 23.2383C103.732 23.229 104.45 23.4167 105.079 23.8017C105.718 24.1772 106.206 24.717 106.544 25.4212C106.891 26.1159 107.065 26.914 107.065 27.8153C107.065 28.7166 106.891 29.5146 106.544 30.2094C106.206 30.9041 105.718 31.4486 105.079 31.843Z" fill="#080808"/>
<path d="M50.2161 14.9013H54.6099L58.5404 29.2555L62.7217 14.9013H66.3832L70.918 28.9675L74.6921 14.9013H78.7198L72.7768 35.6313H68.9884L64.3774 21.8898L60.1445 35.6313H56.3139L50.2161 14.9013Z" fill="#080808"/>
<path fill-rule="evenodd" clip-rule="evenodd" d="M85.2083 35.9975C83.6779 36.0068 82.2979 35.6687 81.0679 34.9834C79.8475 34.2887 78.8851 33.3263 78.181 32.0965C77.4862 30.8665 77.1388 29.463 77.1388 27.8857C77.1388 26.3554 77.4956 24.9705 78.2091 23.7312C78.9226 22.492 79.8897 21.5249 81.1101 20.8302C82.3307 20.1354 83.692 19.788 85.1943 19.788C86.8842 19.788 88.3629 20.1636 89.6303 20.9147C90.9072 21.6657 91.8601 22.7314 92.4891 24.1115C93.1275 25.4822 93.3576 27.0548 93.1792 28.8292H81.1162C81.1499 29.5361 81.3262 30.1794 81.6454 30.7585C82.0021 31.397 82.4998 31.8946 83.138 32.2514C83.7765 32.6081 84.4901 32.7865 85.2787 32.7865C85.8796 32.7772 86.4382 32.6738 86.9545 32.4768C87.4709 32.2702 87.9075 31.9932 88.2644 31.6459C88.6304 31.2984 88.8886 30.9041 89.0388 30.4629H93.0666C92.8225 31.5425 92.3343 32.5049 91.6019 33.3499C90.8696 34.1854 89.9495 34.8379 88.8417 35.3074C87.7337 35.7767 86.5226 36.0068 85.2083 35.9975ZM81.6594 24.9564C81.4344 25.3488 81.2786 25.7713 81.1918 26.2239H89.188C89.13 25.6521 88.9535 25.131 88.6585 24.6607C88.3207 24.1068 87.8606 23.6796 87.2785 23.3792C86.6964 23.0694 86.0392 22.9144 85.3069 22.9144C84.5277 22.9144 83.8189 23.0928 83.1804 23.4496C82.542 23.8064 82.0349 24.3086 81.6594 24.9564Z" fill="#080808"/>
<path d="M113.895 20.112C113.895 18.8539 114.182 17.7366 114.754 16.7602C115.327 15.7744 116.13 15.0093 117.162 14.4647C118.204 13.9108 119.42 13.6244 120.81 13.6057V17.0278C120.162 17.0372 119.608 17.1733 119.148 17.4362C118.697 17.6897 118.35 18.0605 118.106 18.5487C117.881 18.9982 117.76 19.5193 117.742 20.112H120.725V23.3651H117.74V35.6313H113.895V23.3651H111.416V20.112H113.895Z" fill="#080808"/>
<path fill-rule="evenodd" clip-rule="evenodd" d="M135.949 35.9693C134.381 35.9693 132.977 35.6265 131.738 34.9412C130.508 34.2465 129.541 33.2887 128.837 32.0684C128.142 30.8384 127.795 29.4442 127.795 27.8857C127.795 26.3178 128.142 24.9189 128.837 23.689C129.541 22.4497 130.508 21.4874 131.738 20.802C132.977 20.1166 134.381 19.774 135.949 19.774C137.526 19.774 138.934 20.1166 140.174 20.802C141.422 21.4874 142.394 22.445 143.089 23.6749C143.783 24.9048 144.136 26.3084 144.145 27.8857C144.136 29.4442 143.783 30.8384 143.089 32.0684C142.403 33.2887 141.436 34.2465 140.188 34.9412C138.939 35.6265 137.526 35.9693 135.949 35.9693ZM135.949 32.4345C136.775 32.4345 137.507 32.2467 138.146 31.8711C138.784 31.4862 139.277 30.951 139.624 30.2657C139.972 29.5709 140.145 28.7777 140.145 27.8857C140.145 26.9844 139.972 26.1864 139.624 25.4916C139.277 24.7968 138.784 24.2617 138.146 23.8861C137.507 23.5012 136.775 23.3088 135.949 23.3088C135.132 23.3088 134.404 23.5012 133.766 23.8861C133.137 24.2617 132.649 24.7968 132.301 25.4916C131.954 26.1864 131.785 26.9844 131.794 27.8857C131.794 28.7777 131.968 29.5709 132.315 30.2657C132.672 30.951 133.16 31.4862 133.78 31.8711C134.409 32.2467 135.132 32.4345 135.949 32.4345Z" fill="#080808"/>
<path d="M148.299 20.1119H144.018L148.651 35.6313H152.398L155.445 25.7191L158.735 35.6313H162.425L167.072 20.1119H163.2L160.564 29.7717L157.651 20.1119H153.904L151.005 29.9846L148.299 20.1119Z" fill="#080808"/>
</svg>
