<svg viewBox="0 0 382 361" fill="none" xmlns="http://www.w3.org/2000/svg">
<path d="M184.02 26.8228C222.229 22.232 263.498 21.8435 300.561 34.6569C341.604 48.8471 369.649 84.0032 379.062 125.801C379.694 128.605 380.253 131.426 380.745 134.259C388.859 180.985 354.376 225.679 369.927 253.444C385.478 281.209 381.422 328.612 381.422 328.612H19.0181C19.0181 328.612 -8.70322 294.075 2.79129 237.869C14.2848 181.663 52.8231 189.11 62.2897 156.607C69.5214 131.778 71.629 104.576 82.4596 80.5827C96.0412 50.4965 122.426 39.794 152.893 32.3931C162.942 29.9521 173.374 28.1022 184.02 26.8228Z" fill="#FF2FFC"/>
<path opacity="0.7" d="M184.02 26.8228C222.229 22.232 263.498 21.8435 300.561 34.6569C341.604 48.8471 369.649 84.0032 379.062 125.801C379.694 128.605 380.253 131.426 380.745 134.259C388.859 180.985 354.376 225.679 369.927 253.444C385.478 281.209 381.422 328.612 381.422 328.612H19.0181C19.0181 328.612 -8.70322 294.075 2.79129 237.869C14.2848 181.663 52.8231 189.11 62.2897 156.607C69.5214 131.778 71.629 104.576 82.4596 80.5827C96.0412 50.4965 122.426 39.794 152.893 32.3931C162.942 29.9521 173.374 28.1022 184.02 26.8228Z" fill="white"/>
<path d="M266.299 360.75C237.305 360.75 213.802 355.624 213.802 349.301C213.802 342.977 237.305 337.851 266.299 337.851C295.292 337.851 318.796 342.977 318.796 349.301C318.796 355.624 295.292 360.75 266.299 360.75Z" fill="#FF2FFC"/>
<path opacity="0.3" d="M266.299 360.75C237.305 360.75 213.802 355.624 213.802 349.301C213.802 342.977 237.305 337.851 266.299 337.851C295.292 337.851 318.796 342.977 318.796 349.301C318.796 355.624 295.292 360.75 266.299 360.75Z" fill="white"/>
<path d="M344.953 202.947C344.953 202.947 348.056 206.499 349.83 213.604C351.603 220.709 343.623 226.038 346.284 233.586C348.944 241.135 353.821 244.687 352.491 252.236C351.161 259.785 345.397 260.229 349.831 268.666C354.265 277.102 358.255 280.211 356.925 288.203C355.595 296.196 338.748 306.409 338.748 306.409C338.748 306.409 327.221 293.531 326.777 285.094C326.334 276.658 336.974 271.329 335.201 263.78C333.427 256.231 328.994 250.014 329.437 242.909C329.88 235.804 338.304 230.476 338.304 225.148C338.304 219.819 334.757 216.711 334.757 210.494C334.757 204.277 342.738 198.949 342.738 195.396C342.738 191.844 340.964 187.404 340.964 187.404C340.964 187.404 349.386 192.734 344.953 202.947Z" fill="#FF2FFC"/>
<path opacity="0.5" d="M344.953 202.947C344.953 202.947 348.056 206.499 349.83 213.604C351.603 220.709 343.623 226.038 346.284 233.586C348.944 241.135 353.821 244.687 352.491 252.236C351.161 259.785 345.397 260.229 349.831 268.666C354.265 277.102 358.255 280.211 356.925 288.203C355.595 296.196 338.748 306.409 338.748 306.409C338.748 306.409 327.221 293.531 326.777 285.094C326.334 276.658 336.974 271.329 335.201 263.78C333.427 256.231 328.994 250.014 329.437 242.909C329.88 235.804 338.304 230.476 338.304 225.148C338.304 219.819 334.757 216.711 334.757 210.494C334.757 204.277 342.738 198.949 342.738 195.396C342.738 191.844 340.964 187.404 340.964 187.404C340.964 187.404 349.386 192.734 344.953 202.947Z" fill="white"/>
<path d="M340.519 303.746L341.406 207.832" stroke="#263238" stroke-miterlimit="10" stroke-linecap="round" stroke-linejoin="round"/>
<path d="M331.576 281.791L340.264 290.492L350.108 281.791" stroke="#263238" stroke-miterlimit="10" stroke-linecap="round" stroke-linejoin="round"/>
<path d="M334.472 243.506L340.842 253.367L346.344 244.377" stroke="#263238" stroke-miterlimit="10" stroke-linecap="round" stroke-linejoin="round"/>
<path d="M344.897 214.503L341.132 219.143L337.947 213.632" stroke="#263238" stroke-miterlimit="10" stroke-linecap="round" stroke-linejoin="round"/>
<path d="M337.943 328.613H343.096C347.795 328.613 351.603 324.798 351.603 320.093V303.747H329.436V320.093C329.436 324.798 333.245 328.613 337.943 328.613Z" fill="#263238"/>
<path opacity="0.4" d="M184.022 47.2794V207.939H83.9731V47.2794H184.022ZM135.473 51.1741V86.6583H180.369V51.1741H135.473ZM180.369 125.661V90.552H135.473V125.661H180.369ZM135.473 129.556V165.415H180.369V129.556H135.473ZM180.369 169.31H135.473V204.044H180.369V169.31ZM87.6264 204.044H131.82V169.31H87.9112V165.415H131.82V129.556H87.9112V125.661H131.82V90.552H87.9112V86.6574H131.82V51.1731H87.6264V204.044Z" fill="white"/>
<path opacity="0.4" d="M363.958 47.2794V207.939H263.909V47.2794H363.958ZM315.41 51.1741V86.6583H360.305V51.1741H315.41ZM360.305 125.661V90.552H315.409V125.661H360.305ZM315.41 129.556V165.415H360.305V129.556H315.41ZM360.305 169.31H315.409V204.044H360.305V169.31ZM267.563 204.044H311.757V169.31H267.848V165.415H311.757V129.556H267.848V125.661H311.757V90.552H267.848V86.6574H311.757V51.1731H267.563V204.044Z" fill="white"/>
<path d="M124.787 179.349H74.6115C64.0649 179.349 55.5149 187.913 55.5149 198.476V267.857H143.884V198.476C143.884 187.912 135.335 179.349 124.787 179.349Z" fill="white" stroke="white" stroke-miterlimit="10"/>
<path d="M219.178 328.613H157.02V229.603H199.332C210.293 229.603 219.177 238.502 219.177 249.48V328.613H219.178Z" fill="#FF2FFC"/>
<mask id="mask0_19_4515" style="mask-type:luminance" maskUnits="userSpaceOnUse" x="157" y="229" width="63" height="100">
<path d="M219.178 328.613H157.02V229.603H199.332C210.293 229.603 219.177 238.502 219.177 249.48V328.613H219.178Z" fill="white"/>
</mask>
<g mask="url(#mask0_19_4515)">
<path opacity="0.5" d="M219.178 328.613H157.02V229.603H199.332C210.293 229.603 219.177 238.502 219.177 249.48V328.613H219.178Z" fill="white"/>
</g>
<path d="M219.178 328.613H157.02V229.603H199.332C210.293 229.603 219.177 238.502 219.177 249.48V328.613H219.178Z" stroke="white" stroke-miterlimit="10"/>
<path d="M201.91 328.613H139.752V229.603H182.064C193.025 229.603 201.909 238.502 201.909 249.48V328.613H201.91Z" fill="white" stroke="white" stroke-miterlimit="10"/>
<path d="M138.268 179.349H88.0921C77.5455 179.349 68.9955 187.913 68.9955 198.476V267.857H157.364V198.476C157.364 187.912 148.814 179.349 138.268 179.349Z" fill="#FF2FFC"/>
<mask id="mask1_19_4515" style="mask-type:luminance" maskUnits="userSpaceOnUse" x="68" y="179" width="90" height="89">
<path d="M138.268 179.349H88.0921C77.5455 179.349 68.9955 187.913 68.9955 198.476V267.857H157.364V198.476C157.364 187.912 148.814 179.349 138.268 179.349Z" fill="white"/>
</mask>
<g mask="url(#mask1_19_4515)">
<path opacity="0.5" d="M138.268 179.349H88.0921C77.5455 179.349 68.9955 187.913 68.9955 198.476V267.857H157.364V198.476C157.364 187.912 148.814 179.349 138.268 179.349Z" fill="white"/>
</g>
<path d="M138.268 179.349H88.0921C77.5455 179.349 68.9955 187.913 68.9955 198.476V267.857H157.364V198.476C157.364 187.912 148.814 179.349 138.268 179.349Z" stroke="white" stroke-miterlimit="10"/>
<path d="M78.6158 328.613H196.94V272.517C196.94 268.701 193.851 265.607 190.042 265.607H78.6158V328.613Z" fill="#FF2FFC"/>
<mask id="mask2_19_4515" style="mask-type:luminance" maskUnits="userSpaceOnUse" x="78" y="265" width="119" height="64">
<path d="M78.6158 328.613H196.94V272.517C196.94 268.701 193.851 265.607 190.042 265.607H78.6158V328.613Z" fill="white"/>
</mask>
<g mask="url(#mask2_19_4515)">
<path opacity="0.5" d="M78.6158 328.613H196.94V272.517C196.94 268.701 193.851 265.607 190.042 265.607H78.6158V328.613Z" fill="white"/>
</g>
<path d="M78.6158 328.613H196.94V272.517C196.94 268.701 193.851 265.607 190.042 265.607H78.6158V328.613V328.613Z" stroke="white" stroke-miterlimit="10"/>
<path d="M195.194 287.347H135.207" stroke="white" stroke-miterlimit="10"/>
<path d="M134.941 328.613H72.783V229.603H115.095C126.056 229.603 134.941 238.502 134.941 249.48V328.613Z" fill="#FF2FFC"/>
<mask id="mask3_19_4515" style="mask-type:luminance" maskUnits="userSpaceOnUse" x="72" y="229" width="63" height="100">
<path d="M134.941 328.613H72.783V229.603H115.095C126.056 229.603 134.941 238.502 134.941 249.48V328.613Z" fill="white"/>
</mask>
<g mask="url(#mask3_19_4515)">
<path opacity="0.5" d="M134.941 328.613H72.783V229.603H115.095C126.056 229.603 134.941 238.502 134.941 249.48V328.613Z" fill="white"/>
</g>
<path d="M134.941 328.613H72.783V229.603H115.095C126.056 229.603 134.941 238.502 134.941 249.48V328.613Z" stroke="white" stroke-miterlimit="10"/>
<path d="M117.673 328.613H55.5149V229.603H97.8271C108.788 229.603 117.672 238.502 117.672 249.48V328.613H117.673Z" fill="white" stroke="white" stroke-miterlimit="10"/>
<path d="M261.63 330.526C261.63 330.526 254.257 336.265 251.088 336.951C247.919 337.636 241.61 336.817 242.062 339.257C242.514 341.698 245.896 343.206 249.287 343.984C252.679 344.762 266.561 342.767 269.478 342.809C272.394 342.85 274.334 343.122 275.341 340.701C276.347 338.281 274.735 331.928 274.735 331.928L261.63 330.526Z" fill="#263238" stroke="#263238" stroke-miterlimit="10" stroke-linecap="round" stroke-linejoin="round"/>
<path d="M261.63 330.526L263.206 330.695L263.628 332.42C263.628 332.42 260.671 335.299 258.066 336.237C256.747 336.711 255.612 336.024 254.811 335.229C258.053 333.308 261.63 330.526 261.63 330.526Z" fill="white" stroke="#263238" stroke-miterlimit="10" stroke-linecap="round" stroke-linejoin="round"/>
<path d="M249.287 343.984C245.896 343.206 242.514 341.698 242.062 339.257C242.035 339.112 242.036 338.98 242.055 338.857C243.151 339.477 245.185 340.475 248.11 341.29C252.71 342.572 258.56 341.438 265.863 340.568C270.244 340.046 273.558 340.034 275.516 340.109C275.469 340.323 275.413 340.526 275.341 340.702C274.334 343.123 272.394 342.851 269.478 342.81C266.561 342.768 252.679 344.762 249.287 343.984Z" fill="white" stroke="#263238" stroke-miterlimit="10" stroke-linecap="round" stroke-linejoin="round"/>
<path d="M300.98 194.269C300.98 194.269 301.133 217.885 301.249 226.893C301.366 235.903 299.069 268.988 299.539 270.212C300.007 271.436 302.963 293.052 301.43 298.386C299.897 303.719 297.339 332.004 297.339 332.004L285.192 331.59C285.192 331.59 283.827 290.429 282.411 287.487C280.993 284.546 280.467 270.176 279.796 266.028C279.125 261.88 276.09 235.789 276.09 235.789C276.09 235.789 272.246 267.139 272.862 275.18C273.478 283.223 277.016 290.819 275.945 297.864C274.874 304.908 274.737 331.928 274.737 331.928L262.635 328.349C262.635 328.349 260.136 315.899 260.174 313.221C260.212 310.544 260.537 304.706 260.099 301.292C259.661 297.877 253.47 271.499 253.337 263.707C253.204 255.914 253.079 195.783 253.079 195.783C253.079 195.783 278.742 202.718 300.98 194.269Z" fill="#263238" stroke="#263238" stroke-miterlimit="10" stroke-linecap="round" stroke-linejoin="round"/>
<path d="M253.068 196.314C253.635 196.287 254.262 196.259 254.941 196.227C261.223 197.612 282.307 201.364 300.979 194.269C300.979 194.269 301 197.581 301.033 202.196C298.618 204.456 293.389 207.285 282.061 208.608C268.298 210.215 258.127 207.465 252.942 205.493C253.005 200.896 253.05 197.549 253.068 196.314Z" fill="white" stroke="#263238" stroke-miterlimit="10" stroke-linecap="round" stroke-linejoin="round"/>
<path d="M252.447 136.862C252.447 136.862 244.387 139.669 242.904 141.352C241.423 143.036 244.019 165.712 243.999 167.172C243.979 168.632 241.555 185.395 242.735 187.847C243.916 190.297 249.957 192.817 252.633 192.612C255.31 192.406 255.064 175.362 254.67 168.783C254.276 162.205 252.22 152.925 252.275 149.03C252.33 145.137 253.173 137.115 252.447 136.862Z" fill="#FF2FFC" stroke="#263238" stroke-miterlimit="10" stroke-linecap="round" stroke-linejoin="round"/>
<path d="M237.635 185.99C237.635 185.99 240.243 182.536 245.68 182.613C251.117 182.69 256.181 186.543 256.41 192.945C256.64 199.346 252.142 200.738 247.985 200.678C243.828 200.62 234.606 196.709 237.635 185.99Z" fill="#FF2FFC" stroke="#263238" stroke-miterlimit="10" stroke-linecap="round" stroke-linejoin="round"/>
<path d="M234.216 188.7C234.216 188.7 241.048 186.849 245.645 188.375C250.241 189.901 252.651 191.395 253.076 195.783C253.5 200.171 245.737 199.087 241.609 198.786C237.482 198.484 227.878 190.071 227.878 190.071L234.216 188.7Z" fill="white" stroke="#263238" stroke-miterlimit="10" stroke-linecap="round" stroke-linejoin="round"/>
<path d="M238.78 192.659C239.79 189.995 236.661 187.761 236.661 187.761L238.657 184.138C238.657 184.138 237.223 182.413 235.734 184.584C234.245 186.754 233.006 188.44 232.045 187.697C231.083 186.953 232.832 183.569 232.832 183.569C232.832 183.569 231.88 182.095 230.645 183.538C229.409 184.981 228.892 187.165 227.431 187.388C225.97 187.611 222.399 182.204 221.417 182.921C220.434 183.637 221.383 185.355 222.581 186.589C223.779 187.823 224.505 188.076 224.505 188.076C224.505 188.076 218.717 184.83 216.061 183.575C213.405 182.32 212.444 181.576 211.936 183.03C211.429 184.483 217.717 186.763 221.098 188.271C224.48 189.779 230.997 193.036 233.656 194.048C236.316 195.059 237.288 195.073 237.288 195.073" fill="white"/>
<path d="M238.78 192.659C239.79 189.995 236.661 187.761 236.661 187.761L238.657 184.138C238.657 184.138 237.223 182.413 235.734 184.584C234.245 186.754 233.006 188.44 232.045 187.697C231.083 186.953 232.832 183.569 232.832 183.569C232.832 183.569 231.88 182.095 230.645 183.538C229.409 184.981 228.892 187.165 227.431 187.388C225.97 187.611 222.399 182.204 221.417 182.921C220.434 183.637 221.383 185.355 222.581 186.589C223.779 187.823 224.505 188.076 224.505 188.076C224.505 188.076 218.717 184.83 216.061 183.575C213.405 182.32 212.444 181.576 211.936 183.03C211.429 184.483 217.717 186.763 221.098 188.271C224.48 189.779 230.997 193.036 233.656 194.048C236.316 195.059 237.288 195.073 237.288 195.073" stroke="#263238" stroke-miterlimit="10" stroke-linecap="round" stroke-linejoin="round"/>
<path d="M266.461 211.796C266.461 211.796 272.988 214.323 268.323 217.665C263.657 221.008 267.254 224.466 271.365 225.985" stroke="white" stroke-miterlimit="10" stroke-linecap="round" stroke-linejoin="round"/>
<path d="M283.263 209.598C283.263 209.598 286.676 226.2 299.572 225.165" stroke="white" stroke-miterlimit="10" stroke-linecap="round" stroke-linejoin="round"/>
<path d="M275.832 236.759L269.346 231.312" stroke="white" stroke-miterlimit="10" stroke-linecap="round" stroke-linejoin="round"/>
<path d="M297.395 207.12L297.516 198.602L295.329 199.544L294.955 208.79" fill="#263238"/>
<path d="M297.395 207.12L297.516 198.602L295.329 199.544L294.955 208.79" stroke="#263238" stroke-miterlimit="10" stroke-linecap="round" stroke-linejoin="round"/>
<path d="M256.869 208.561L256.99 200.043L255.052 199.528L254.21 207.827" fill="#263238"/>
<path d="M256.869 208.561L256.99 200.043L255.052 199.528L254.21 207.827" stroke="#263238" stroke-miterlimit="10" stroke-linecap="round" stroke-linejoin="round"/>
<path d="M281.718 210.743L281.971 203.133L280.034 202.619L279.192 210.919" fill="#263238"/>
<path d="M281.718 210.743L281.971 203.133L280.034 202.619L279.192 210.919" stroke="#263238" stroke-miterlimit="10" stroke-linecap="round" stroke-linejoin="round"/>
<path d="M280.12 127.84C280.12 127.84 302.233 133.994 302.205 135.941C302.178 137.889 302.43 189.015 302.371 193.234C302.311 197.453 296.597 200.455 288.953 202.457C281.309 204.459 263.655 203.886 259.948 202.534C256.24 201.184 251.236 199.815 250.622 197.372C250.009 194.929 250.347 170.914 250.242 166.855C250.137 162.796 246.099 150.405 247.459 145.881C248.819 141.356 251.464 137.66 254.242 135.914C257.022 134.168 264.387 128.916 269.425 127.851C274.464 126.786 280.12 127.84 280.12 127.84Z" fill="#FF2FFC" stroke="#263238" stroke-miterlimit="10" stroke-linecap="round" stroke-linejoin="round"/>
<path d="M264.298 141.573C264.298 141.573 261.505 157.075 262.829 164.536C263.749 169.717 262.805 186.576 261.899 189.998C260.993 193.421 260.043 199.991 262.317 200.881" stroke="#263238" stroke-miterlimit="10" stroke-linecap="round" stroke-linejoin="round"/>
<path d="M275.259 119.293C275.259 119.293 277.749 119.19 278.559 120.586C279.369 121.982 283.968 129.249 283.968 129.249L277.959 143.566L270.999 137.097L264.299 141.572L261.618 135.579L257.386 141.475C257.386 141.475 259.511 128.071 260.942 124.629C262.373 121.188 269.48 117.271 271.41 117.714C273.34 118.158 275.259 119.293 275.259 119.293Z" fill="#FF2FFC" stroke="#263238" stroke-miterlimit="10" stroke-linecap="round" stroke-linejoin="round"/>
<path d="M275.263 109.183C275.263 109.183 276.108 117.92 276.057 121.521C276.006 125.12 272.013 133.789 270.887 135.158C269.761 136.527 264.298 141.573 264.298 141.573C264.298 141.573 263.576 133.946 263.339 131.173C263.101 128.4 262.877 124.658 262.877 124.658C262.877 124.658 268.753 119.755 270.597 116.457C272.442 113.16 275.263 109.183 275.263 109.183Z" fill="white" stroke="#263238" stroke-miterlimit="10" stroke-linecap="round" stroke-linejoin="round"/>
<path d="M251.69 88.7907C252.718 84.5952 257.272 80.4377 262.557 78.6744C268.531 76.6813 279.125 80.4318 283.583 87.8346C288.042 95.2374 281.949 105.677 281.786 107.474C281.622 109.273 285.343 110.156 285.321 111.679C285.3 113.201 284.272 117.481 279.562 118.106C274.852 118.732 273.492 117.05 273.089 116.214C272.686 115.378 261.677 101.788 260.036 100.519C259.428 100.048 258.555 99.4787 257.697 98.948C257.01 102.035 254.435 105.355 253.611 105.136C252.509 104.844 246.873 102.548 246.397 97.0017C246.024 92.6426 249.979 89.8072 251.69 88.7907Z" fill="#263238" stroke="#263238" stroke-miterlimit="10" stroke-linecap="round" stroke-linejoin="round"/>
<path d="M254.097 94.5694C254.097 94.5694 252.439 90.5384 255.064 86.8541C257.688 83.1697 261.269 92.6669 261.269 92.6669" stroke="white" stroke-miterlimit="10" stroke-linecap="round" stroke-linejoin="round"/>
<path d="M279.971 101.925C280.515 101.835 281.009 101.703 281.435 101.54" stroke="white" stroke-miterlimit="10" stroke-linecap="round" stroke-linejoin="round"/>
<path d="M262.488 87.2465C262.488 87.2465 265.836 93.0183 269.201 97.6462C271.228 100.435 274.211 101.677 276.891 101.983" stroke="white" stroke-miterlimit="10" stroke-linecap="round" stroke-linejoin="round"/>
<path d="M263.15 82.5699C262.263 82.3509 261.311 82.2642 260.271 82.3489" stroke="white" stroke-miterlimit="10" stroke-linecap="round" stroke-linejoin="round"/>
<path d="M283.825 94.1313C283.825 94.1313 278.388 94.6269 273.869 90.8423C271.066 88.4948 268.82 85.6049 266.086 83.865" stroke="white" stroke-miterlimit="10" stroke-linecap="round" stroke-linejoin="round"/>
<path d="M253.498 96.5655C253.498 96.5655 248.653 95.6386 249.176 99.0805C249.699 102.522 251.128 102.543 251.128 102.543" stroke="white" stroke-miterlimit="10" stroke-linecap="round" stroke-linejoin="round"/>
<path d="M252.532 103.183C252.532 103.183 252.527 102.978 252.55 102.624C252.62 101.522 252.959 98.985 254.559 96.7037C256.676 93.6873 260.694 93.0515 262.33 94.7359C263.966 96.4213 265.806 103.233 270.617 105.24C275.428 107.247 277.683 104.232 277.647 106.724C277.612 109.216 275.846 116.808 273.037 119.954C270.227 123.1 266.572 127.341 263.937 127.858C261.303 128.375 257.162 127.901 256.898 126.927C256.635 125.954 254.256 118.165 253.065 114.409C251.874 110.652 252.532 103.183 252.532 103.183Z" fill="white" stroke="#263238" stroke-miterlimit="10" stroke-linecap="round" stroke-linejoin="round"/>
<path d="M276.121 107.118C276.121 107.118 276.444 103.799 278.793 103.97C281.14 104.142 280.94 108.571 279.381 111.318C277.821 114.066 275.224 111.952 275.224 111.952" fill="white"/>
<path d="M276.121 107.118C276.121 107.118 276.444 103.799 278.793 103.97C281.14 104.142 280.94 108.571 279.381 111.318C277.821 114.066 275.224 111.952 275.224 111.952" stroke="#263238" stroke-miterlimit="10" stroke-linecap="round" stroke-linejoin="round"/>
<path d="M263.008 105.547C263.008 105.547 266.34 104.625 267.831 106.724" stroke="#263238" stroke-miterlimit="10" stroke-linecap="round" stroke-linejoin="round"/>
<path d="M257.897 105.198C257.897 105.198 254.885 103.078 253.736 106.108L257.897 105.198Z" fill="white"/>
<path d="M257.897 105.198C257.897 105.198 254.885 103.078 253.736 106.108" stroke="#263238" stroke-miterlimit="10" stroke-linecap="round" stroke-linejoin="round"/>
<path d="M258.553 107.7C258.553 107.7 257.908 114.201 258.175 114.897C258.441 115.593 260.782 116.318 262.178 115.369" stroke="#263238" stroke-miterlimit="10" stroke-linecap="round" stroke-linejoin="round"/>
<path d="M268.388 116.287C268.388 116.287 267.243 119.041 263.094 119.12" stroke="#263238" stroke-miterlimit="10" stroke-linecap="round" stroke-linejoin="round"/>
<path d="M263.781 109.575C263.769 110.416 264.131 111.103 264.589 111.109C265.047 111.116 265.428 110.439 265.439 109.598C265.451 108.757 265.089 108.069 264.632 108.064C264.174 108.057 263.793 108.733 263.781 109.575Z" fill="#263238"/>
<path d="M255.909 108.91C255.897 109.751 256.259 110.438 256.716 110.444C257.174 110.451 257.555 109.774 257.567 108.933C257.579 108.092 257.217 107.404 256.759 107.398C256.301 107.392 255.92 108.068 255.909 108.91Z" fill="#263238"/>
<path d="M298.15 136.29C298.15 136.29 301.343 133.901 304.468 136.38C307.592 138.859 309.265 175.398 309.683 180.272C310.1 185.148 310.545 188.074 310.545 188.074L292.145 182.946L290.769 177.084C290.769 177.084 288.096 177.046 288.366 175.102C288.636 173.159 288.805 161.232 288.863 157.094C288.921 152.956 294.867 145.007 294.867 145.007" fill="#FF2FFC"/>
<path d="M298.15 136.29C298.15 136.29 301.343 133.901 304.468 136.38C307.592 138.859 309.265 175.398 309.683 180.272C310.1 185.148 310.545 188.074 310.545 188.074L292.145 182.946L290.769 177.084C290.769 177.084 288.096 177.046 288.366 175.102C288.636 173.159 288.805 161.232 288.863 157.094C288.921 152.956 294.867 145.007 294.867 145.007" stroke="#263238" stroke-miterlimit="10" stroke-linecap="round" stroke-linejoin="round"/>
<path d="M292.674 176.121C292.674 176.121 296.702 174.174 304.972 175.435L292.674 176.121Z" fill="white"/>
<path d="M292.674 176.121C292.674 176.121 296.702 174.174 304.972 175.435" stroke="#263238" stroke-miterlimit="10" stroke-linecap="round" stroke-linejoin="round"/>
<path d="M299.283 172.69C298.709 172.759 298.136 172.873 297.575 173.041L299.283 172.69Z" fill="white"/>
<path d="M299.283 172.69C298.709 172.759 298.136 172.873 297.575 173.041" stroke="#263238" stroke-miterlimit="10" stroke-linecap="round" stroke-linejoin="round"/>
<path d="M309.552 174.928C309.552 174.928 306.598 173.331 303.005 172.786L309.552 174.928Z" fill="white"/>
<path d="M309.552 174.928C309.552 174.928 306.598 173.331 303.005 172.786" stroke="#263238" stroke-miterlimit="10" stroke-linecap="round" stroke-linejoin="round"/>
<path d="M313.77 183.494C313.77 183.494 311.182 194.656 308.985 195.355C306.788 196.055 291.342 188.29 291.379 185.613C291.417 182.935 288.306 179.484 291.707 179.531C295.11 179.579 311.634 179.813 313.77 183.494Z" fill="#FF2FFC" stroke="#263238" stroke-miterlimit="10" stroke-linecap="round" stroke-linejoin="round"/>
<path d="M261.315 180.319C261.315 180.319 293.111 183.446 298.916 185.476C304.72 187.505 310.963 192.95 310.207 194.886C309.451 196.823 304.546 199.918 302.116 199.884C299.686 199.85 296.062 198.338 295.332 198.328C294.603 198.317 263.184 185.702 262.458 185.448C261.733 185.194 256.879 184.639 254.705 183.634C252.531 182.63 249.289 179.412 249.289 179.412C249.289 179.412 237.22 179.373 236.012 178.869C234.804 178.365 233.855 176.974 238 176.058C242.145 175.143 244.042 173.482 246.715 173.52C249.388 173.558 261.315 180.319 261.315 180.319Z" fill="white" stroke="#263238" stroke-miterlimit="10" stroke-linecap="round" stroke-linejoin="round"/>
<path d="M250.731 177.657C250.731 177.657 249.678 176.933 247.373 177.078C245.068 177.223 237.78 179.071 237.78 179.071" stroke="#263238" stroke-miterlimit="10" stroke-linecap="round" stroke-linejoin="round"/>
<path d="M248.107 175.314C248.107 175.314 246.524 174.581 245.099 175.093C243.675 175.606 235.501 177.442 235.317 177.972" stroke="#263238" stroke-miterlimit="10" stroke-linecap="round" stroke-linejoin="round"/>
<path d="M192.882 181.178L260.196 182.129L260.161 184.563L192.848 183.612L192.882 181.178Z" fill="white" stroke="#263238" stroke-miterlimit="10" stroke-linecap="round" stroke-linejoin="round"/>
<path d="M184.357 147.95L221.051 148.469L229.798 183.16L193.104 182.642L184.357 147.95Z" fill="white" stroke="#263238" stroke-miterlimit="10" stroke-linecap="round" stroke-linejoin="round"/>
<path d="M273.382 203.616L273.55 208.974L265.288 208.857L265.123 203.257L273.382 203.616Z" fill="white" stroke="#263238" stroke-miterlimit="10" stroke-linecap="round" stroke-linejoin="round"/>
<path d="M296.471 333.703C296.471 333.703 297.574 341.231 297.889 345.364C298.204 349.497 301.363 354.068 298.966 356.057C296.57 358.046 289.597 357.763 285.688 356.614C281.779 355.465 284.56 347.707 284.518 345.274C284.476 342.839 284.883 338.288 285.331 336.089C285.779 333.89 286.001 332.668 286.001 332.668L296.471 333.703Z" fill="#263238" stroke="#263238" stroke-miterlimit="10" stroke-linecap="round" stroke-linejoin="round"/>
<path d="M293.072 335.758C293.072 335.758 295.185 346.824 292.917 346.791C290.649 346.759 289.028 346.737 288.728 345.109C288.427 343.481 289.185 335.702 289.185 335.702L293.072 335.758Z" fill="white" stroke="#263238" stroke-miterlimit="10" stroke-linecap="round" stroke-linejoin="round"/>
<path d="M293.45 354.914C296.835 354.961 298.745 354.654 299.831 354.303C299.766 354.998 299.518 355.599 298.966 356.057C296.57 358.046 289.597 357.763 285.688 356.614C284.301 356.206 283.764 354.959 283.638 353.419C285.414 354.348 288.376 354.843 293.45 354.914Z" fill="white" stroke="#263238" stroke-miterlimit="10" stroke-linecap="round" stroke-linejoin="round"/>
<path d="M299.23 329.244L298.591 335.805C298.532 336.409 298.005 336.857 297.4 336.818L285.197 336.024C284.611 335.986 284.153 335.502 284.146 334.914L284.063 327.73C284.056 327.055 284.639 326.525 285.309 326.599L298.234 328.016C298.845 328.084 299.289 328.631 299.23 329.244Z" fill="white" stroke="#263238" stroke-miterlimit="10" stroke-linecap="round" stroke-linejoin="round"/>
<path d="M261.834 322.549L277.554 327.993C278.228 328.227 278.577 328.941 278.342 329.605L276.52 334.74C276.284 335.405 275.549 335.775 274.863 335.572L260.624 331.378C260.052 331.21 259.675 330.686 259.706 330.103L260.047 323.718C260.093 322.848 260.995 322.258 261.834 322.549Z" fill="white" stroke="#263238" stroke-miterlimit="10" stroke-linecap="round" stroke-linejoin="round"/>
<path d="M131.733 47.2746C131.454 45.7732 131.291 44.231 131.291 42.6488C131.291 28.7643 142.529 17.5097 156.39 17.5097C161.554 17.5097 166.352 19.0754 170.341 21.7529C175.409 9.42828 187.513 0.75 201.646 0.75C220.339 0.75 235.493 15.9275 235.493 34.6501C235.493 35.0668 235.476 35.4806 235.462 35.8935C244.697 38.5311 251.466 47.0273 251.466 57.1223C251.466 68.2873 243.189 77.4923 232.451 78.9801V79.2148H132.811C123.99 79.2148 116.838 72.0525 116.838 63.2165C116.839 54.7475 123.417 47.8326 131.733 47.2746Z" fill="#FF2FFC" stroke="#263238" stroke-miterlimit="10"/>
<path d="M199.962 12.6267H219.289L209.937 18.8708L199.962 12.6267Z" fill="#263238"/>
<path d="M209.958 20.2972L220.533 13.2362V26.5413H199.362V13.6646L209.958 20.2972Z" fill="#263238"/>
<path d="M163.73 26.1859V26.9317V30.582V40.1989C164.261 39.9126 164.903 39.7413 165.6 39.7413C167.41 39.7413 168.878 40.8775 168.878 42.2777C168.878 43.6788 167.411 44.8141 165.6 44.8141C162.545 44.8141 162.322 42.7246 162.322 42.7246V30.3814L153.62 29.141V38.5573C154.151 38.271 154.793 38.1006 155.49 38.1006C157.3 38.1006 158.767 39.2359 158.767 40.637C158.767 42.0381 157.3 43.1734 155.49 43.1734C153.878 43.1734 152.545 42.2709 152.27 41.084L152.212 28.9394V25.2892V24.5433L163.73 26.1859Z" fill="#263238"/>
<path d="M212.958 38.3023C210.776 38.3023 209.009 36.5312 209.009 34.3463C209.009 32.1623 210.777 30.3912 212.958 30.3912C215.139 30.3912 216.908 32.1623 216.908 34.3463C216.907 36.5321 215.139 38.3023 212.958 38.3023Z" fill="#263238"/>
<path d="M210.567 39.1357H215.348C218.103 39.1357 220.337 41.3722 220.337 44.1316V46.8384H205.579V44.1316C205.579 41.3722 207.812 39.1357 210.567 39.1357Z" fill="#263238"/>
<path d="M136.282 59.5272C136.282 54.4486 142.21 50.3319 149.523 50.3319C156.837 50.3319 162.765 54.4486 162.765 59.5272C162.765 64.2865 157.558 68.2016 150.884 68.6738L151.113 68.7215L144.051 72.2579L144.355 67.9932C139.609 66.597 136.282 63.3323 136.282 59.5272ZM143.343 60.4123H156.408V59.351H143.343V60.4123ZM143.343 63.3508H156.408V62.2895H143.343V63.3508ZM143.343 57.5828H156.408V56.5215H143.343V57.5828Z" fill="#263238"/>
<path d="M188.777 50.0077C193.046 50.0077 196.505 53.473 196.505 57.7483C196.505 62.0237 188.777 70.4546 188.777 70.4546C188.777 70.4546 181.048 62.0237 181.048 57.7483C181.048 53.4739 184.508 50.0077 188.777 50.0077ZM188.777 61.6917C190.952 61.6917 192.714 59.9264 192.714 57.7483C192.714 55.5702 190.952 53.805 188.777 53.805C186.602 53.805 184.84 55.5702 184.84 57.7483C184.84 59.9264 186.602 61.6917 188.777 61.6917Z" fill="#263238"/>
<path d="M218.868 52.6852H237.721V68.8694H218.868V52.6852Z" fill="#FF2FFC" stroke="#263238" stroke-miterlimit="10"/>
<path d="M218.868 60.4181L222.101 57.5409L226.14 63.4744L230.719 61.8562L237.721 68.8695H218.868V60.4181Z" fill="#263238"/>
<path d="M232.065 58.8894C230.875 58.8894 229.911 57.9234 229.911 56.7317C229.911 55.5401 230.875 54.5741 232.065 54.5741C233.255 54.5741 234.219 55.5401 234.219 56.7317C234.219 57.9234 233.255 58.8894 232.065 58.8894Z" fill="#263238"/>
<path d="M213.212 54.5731H232.065V70.7574H213.212V54.5731Z" fill="#FF2FFC" stroke="#263238" stroke-miterlimit="10"/>
<path d="M213.212 62.306L216.445 59.4288L220.485 65.3633L225.063 63.7441L232.065 70.7584H213.212V62.306Z" fill="#263238"/>
<path d="M224.255 58.6197C224.255 59.8114 225.219 60.7773 226.409 60.7773C227.599 60.7773 228.563 59.8114 228.563 58.6197C228.563 57.4279 227.599 56.462 226.409 56.462C225.219 56.4611 224.255 57.4279 224.255 58.6197Z" fill="#263238"/>
<path d="M179.895 19.4998V23.4285H175.441L179.895 19.4998Z" fill="#263238"/>
<path d="M180.552 19.5514H190.734V40.825H175.441V23.9748H180.552V19.5514ZM178.908 36.1631H187.455C187.718 36.1631 187.932 35.9489 187.932 35.685C187.932 35.4212 187.718 35.207 187.455 35.207H178.908C178.644 35.207 178.431 35.4212 178.431 35.685C178.431 35.9489 178.644 36.1631 178.908 36.1631ZM178.908 33.2518H187.455C187.718 33.2518 187.932 33.0376 187.932 32.7738C187.932 32.5099 187.718 32.2957 187.455 32.2957H178.908C178.644 32.2957 178.431 32.5099 178.431 32.7738C178.431 33.0386 178.644 33.2518 178.908 33.2518ZM178.908 30.3425H187.455C187.718 30.3425 187.932 30.1283 187.932 29.8644C187.932 29.6006 187.718 29.3864 187.455 29.3864H178.908C178.644 29.3864 178.431 29.6006 178.431 29.8644C178.431 30.1283 178.644 30.3425 178.908 30.3425ZM178.908 26.4761C178.644 26.4761 178.431 26.6903 178.431 26.9542C178.431 27.218 178.644 27.4322 178.908 27.4322H187.455C187.718 27.4322 187.932 27.218 187.932 26.9542C187.932 26.6903 187.718 26.4761 187.455 26.4761H178.908Z" fill="#263238"/>
<path d="M208.234 145.143V143.682" stroke="#263238" stroke-miterlimit="10"/>
<path d="M208.234 140.846V85.5348" stroke="#263238" stroke-miterlimit="10" stroke-dasharray="2.91 2.91"/>
<path d="M208.234 84.1161V82.6556" stroke="#263238" stroke-miterlimit="10"/>
<path d="M208.234 79.6986L211.707 85.7246H204.761L208.234 79.6986Z" fill="#263238"/>
<path d="M167.771 82.6556V84.1161" stroke="#263238" stroke-miterlimit="10"/>
<path d="M167.771 87.0361V161.485" stroke="#263238" stroke-miterlimit="10" stroke-dasharray="3 3"/>
<path d="M167.771 162.945V164.406H169.229" stroke="#263238" stroke-miterlimit="10"/>
<path d="M172.023 164.406H181.803" stroke="#263238" stroke-miterlimit="10" stroke-dasharray="2.87 2.87"/>
<path d="M183.2 164.406H184.658" stroke="#263238" stroke-miterlimit="10"/>
<path d="M187.931 164.342L181.916 167.82V160.863L187.931 164.342Z" fill="#263238"/>
</svg>
