<svg viewBox="0 0 900 248" fill="none" xmlns="http://www.w3.org/2000/svg">
<path d="M0 17.64C0 12.82 1.73333 8.67332 5.2 5.19998C8.66666 1.73331 12.8133 0 17.64 0C22.46 0 26.6033 1.73331 30.07 5.19998C33.5367 8.67332 35.27 12.82 35.27 17.64V185.19C35.27 192.483 37.86 198.717 43.04 203.89C48.2067 209.063 54.4367 211.65 61.73 211.65C69.0167 211.65 75.25 209.063 80.43 203.89C85.6033 198.717 88.19 192.483 88.19 185.19L88.54 141.1C88.54 136.28 90.2733 132.133 93.74 128.66C97.2067 125.193 101.35 123.46 106.17 123.46C110.99 123.46 115.137 125.193 118.61 128.66C122.077 132.133 123.81 136.28 123.81 141.1L123.46 185.19C123.46 192.483 126.047 198.717 131.22 203.89C136.393 209.063 142.627 211.65 149.92 211.65C157.207 211.65 163.437 209.063 168.61 203.89C173.783 198.717 176.37 192.483 176.37 185.19V17.64C176.37 12.82 178.107 8.67332 181.58 5.19998C185.047 1.73331 189.19 0 194.01 0C198.83 0 202.977 1.73331 206.45 5.19998C209.917 8.67332 211.65 12.82 211.65 17.64V185.19C211.65 202.243 205.623 216.793 193.57 228.84C181.517 240.893 166.967 246.92 149.92 246.92C132.867 246.92 118.343 240.867 106.35 228.76C106.117 228.64 105.94 228.523 105.82 228.41C105.7 228.523 105.583 228.64 105.47 228.76C93.3567 240.867 78.7767 246.92 61.73 246.92C44.6833 246.92 30.1333 240.893 18.08 228.84C6.02667 216.793 0 202.243 0 185.19V17.64Z" fill="#FEFEFE"/>
<path d="M264.559 229.28C264.559 234.107 262.823 238.253 259.349 241.72C255.883 245.187 251.739 246.92 246.919 246.92C242.099 246.92 237.956 245.187 234.489 241.72C231.016 238.253 229.279 234.107 229.279 229.28V61.73C229.279 44.6833 235.306 30.1333 247.359 18.08C259.413 6.02665 273.963 0 291.009 0C308.056 0 322.609 6.02665 334.669 18.08C346.723 30.1333 352.749 44.6833 352.749 61.73V229.28C352.743 234.107 351.006 238.253 347.539 241.72C344.073 245.187 339.929 246.92 335.109 246.92C330.283 246.92 326.136 245.187 322.669 241.72C319.203 238.253 317.469 234.107 317.469 229.28V61.73C317.469 54.4433 314.883 48.2133 309.709 43.04C304.536 37.8666 298.303 35.2767 291.009 35.27C283.723 35.2767 277.493 37.8666 272.319 43.04C267.146 48.2133 264.559 54.4433 264.559 61.73V229.28Z" fill="#FEFEFE"/>
<path d="M370.379 27.64C370.379 22.82 372.116 18.6733 375.589 15.2C379.056 11.7333 383.199 10 388.019 10C392.839 10 396.982 11.7333 400.449 15.2C403.922 18.6733 405.659 22.82 405.659 27.64V118.28C405.659 125.573 408.246 131.807 413.419 136.98C418.592 142.153 424.826 144.74 432.119 144.74C439.406 144.74 445.636 142.153 450.809 136.98C455.982 131.807 458.569 125.573 458.569 118.28V27.64C458.569 22.82 460.302 18.6733 463.769 15.2C467.236 11.7333 471.382 10 476.209 10C481.029 10 485.172 11.7333 488.639 15.2C492.106 18.6733 493.842 22.82 493.849 27.64V114.28C493.849 131.327 487.819 145.88 475.759 157.94C463.706 169.987 449.159 176.01 432.119 176.01C415.066 176.01 400.512 169.987 388.459 157.94C376.406 145.88 370.379 131.327 370.379 114.28V27.64Z" fill="#FEFEFE"/>
<path d="M705.491 141.1V211.65H758.401C763.221 211.65 767.364 213.383 770.831 216.85C774.298 220.323 776.034 224.467 776.041 229.28C776.034 234.107 774.298 238.253 770.831 241.72C767.364 245.187 763.221 246.92 758.401 246.92H687.851C683.024 246.92 678.881 245.187 675.421 241.72C671.948 238.253 670.211 234.107 670.211 229.28V17.64C670.211 12.82 671.948 8.67332 675.421 5.19998C678.881 1.73331 683.024 0 687.851 0H758.401C763.221 0 767.364 1.73331 770.831 5.19998C774.298 8.67332 776.034 12.82 776.041 17.64C776.034 22.46 774.298 26.6033 770.831 30.07C767.364 33.5433 763.221 35.2767 758.401 35.27H705.491V105.82V141.1Z" fill="#FEFEFE"/>
<path d="M881.86 211.65C886.68 211.65 890.823 213.383 894.29 216.85C897.763 220.323 899.5 224.467 899.5 229.28C899.5 234.107 897.763 238.253 894.29 241.72C890.823 245.187 886.68 246.92 881.86 246.92H811.31C806.49 246.92 802.343 245.187 798.87 241.72C795.403 238.253 793.67 234.107 793.67 229.28V17.64C793.67 12.82 795.403 8.67332 798.87 5.19998C802.343 1.73331 806.49 0 811.31 0C816.13 0 820.273 1.73331 823.74 5.19998C827.213 8.67332 828.95 12.82 828.95 17.64V211.65H881.86Z" fill="#FEFEFE"/>
<path d="M551.581 105.91C542.881 114.61 528.271 111.95 522.971 100.85C518.584 91.6633 516.391 81.5633 516.391 70.55C516.391 51.03 523.271 34.3933 537.031 20.64C550.791 6.87998 567.427 0 586.941 0H622.221C627.041 0 631.184 1.73331 634.651 5.19998C638.117 8.67332 639.851 12.82 639.851 17.64C639.851 22.46 638.117 26.6033 634.651 30.07C631.184 33.5433 627.041 35.2767 622.221 35.27H586.971C578.521 35.27 570.221 38.2 563.891 43.8C555.744 51.0133 551.671 59.93 551.671 70.55C551.671 76.1033 552.784 81.19 555.011 85.81C558.261 92.56 556.881 100.61 551.581 105.91Z" fill="#FEFEFE"/>
<path d="M598.661 141.01C607.361 132.32 621.981 134.97 627.281 146.07C631.661 155.257 633.851 165.357 633.851 176.37C633.851 195.89 626.974 212.53 613.221 226.29C599.461 240.043 582.821 246.92 563.301 246.92H528.031C523.211 246.92 519.064 245.187 515.591 241.72C512.124 238.247 510.391 234.1 510.391 229.28C510.391 224.46 512.124 220.317 515.591 216.85C519.064 213.383 523.211 211.65 528.031 211.65H563.271C571.731 211.65 580.021 208.73 586.361 203.12C594.507 195.907 598.581 186.99 598.581 176.37C598.581 170.817 597.464 165.73 595.231 161.11C591.981 154.36 593.371 146.31 598.661 141.01Z" fill="#FEFEFE"/>
<path d="M585.13 116.35C587.09 118.337 588.07 120.707 588.07 123.46C588.07 126.213 587.09 128.583 585.13 130.57C583.176 132.55 580.84 133.54 578.12 133.54C575.4 133.54 573.063 132.55 571.11 130.57C569.156 128.583 568.18 126.213 568.18 123.46C568.18 120.707 569.156 118.337 571.11 116.35C573.063 114.37 575.4 113.38 578.12 113.38C580.84 113.38 583.176 114.37 585.13 116.35Z" fill="#FEFEFE"/>
<path d="M438.95 193.97C440.91 195.957 441.89 198.327 441.89 201.08C441.89 203.833 440.91 206.203 438.95 208.19C436.997 210.17 434.66 211.16 431.94 211.16C429.22 211.16 426.883 210.17 424.93 208.19C422.977 206.203 422 203.833 422 201.08C422 198.327 422.977 195.957 424.93 193.97C426.883 191.99 429.22 191 431.94 191C434.66 191 436.997 191.99 438.95 193.97Z" fill="#FEFEFE"/>
<path d="M438.95 229.97C440.91 231.957 441.89 234.327 441.89 237.08C441.89 239.833 440.91 242.203 438.95 244.19C436.997 246.17 434.66 247.16 431.94 247.16C429.22 247.16 426.883 246.17 424.93 244.19C422.977 242.203 422 239.833 422 237.08C422 234.327 422.977 231.957 424.93 229.97C426.883 227.99 429.22 227 431.94 227C434.66 227 436.997 227.99 438.95 229.97Z" fill="#FEFEFE"/>
<path d="M298.03 116.35C299.984 118.337 300.96 120.707 300.96 123.46C300.96 126.213 299.984 128.583 298.03 130.57C296.07 132.55 293.734 133.54 291.02 133.54C288.3 133.54 285.96 132.55 284 130.57C282.047 128.583 281.07 126.213 281.07 123.46C281.07 120.707 282.047 118.337 284 116.35C285.96 114.37 288.3 113.38 291.02 113.38C293.734 113.38 296.07 114.37 298.03 116.35Z" fill="#FEFEFE"/>
<path d="M740.079 116.35C742.032 118.337 743.009 120.707 743.009 123.46C743.009 126.213 742.032 128.583 740.079 130.57C738.126 132.55 735.789 133.54 733.069 133.54C730.349 133.54 728.012 132.55 726.059 130.57C724.099 128.583 723.119 126.213 723.119 123.46C723.119 120.707 724.099 118.337 726.059 116.35C728.012 114.37 730.349 113.38 733.069 113.38C735.789 113.38 738.126 114.37 740.079 116.35Z" fill="#FEFEFE"/>
</svg>
