<svg width="66" height="60" viewBox="0 0 66 60" fill="none" xmlns="http://www.w3.org/2000/svg">
<path d="M40.9619 59.1935H25.0347L25.7038 58.1172C27.6879 55.1227 28.8322 51.6507 29.0172 48.0634H36.9823C37.1668 51.6517 38.3111 55.1248 40.2958 58.1201L40.9619 59.1935Z" fill="#E3E3E3" stroke="#191919" stroke-linecap="round" stroke-linejoin="round"/>
<path d="M20.4763 59.1936H45.5207" stroke="#191919" stroke-linecap="round" stroke-linejoin="round"/>
<path d="M65 39.7056V45.2707C65.0004 45.6364 64.9286 45.9986 64.7889 46.3365C64.6491 46.6744 64.444 46.9815 64.1854 47.2401C63.9268 47.4987 63.6198 47.7037 63.2818 47.8435C62.9439 47.9833 62.5817 48.055 62.216 48.0546H3.784C3.41829 48.055 3.0561 47.9833 2.71816 47.8435C2.38021 47.7037 2.07316 47.4987 1.81456 47.2401C1.55597 46.9815 1.35091 46.6744 1.21114 46.3365C1.07137 45.9986 0.999619 45.6364 1 45.2707V39.7056H65Z" fill="white" stroke="#191919" stroke-linecap="round" stroke-linejoin="round"/>
<path d="M65 3.534V39.7056H1V3.534C1 2.79563 1.29331 2.08751 1.81541 1.56541C2.33752 1.04331 3.04564 0.75 3.784 0.75H62.2189C62.5844 0.75 62.9462 0.822031 63.2838 0.961975C63.6215 1.10192 63.9282 1.30703 64.1865 1.56559C64.4447 1.82415 64.6495 2.13107 64.7891 2.46883C64.9287 2.80658 65.0004 3.16853 65 3.534Z" fill="#66E1FF"/>
<path d="M3.784 0.75C3.04564 0.75 2.33752 1.04331 1.81541 1.56541C1.29331 2.08751 1 2.79563 1 3.534V36.9245H1.13964L37.3142 0.75H3.784Z" fill="#C2F3FF"/>
<path d="M65 3.534V39.7056H1V3.534C1 2.79563 1.29331 2.08751 1.81541 1.56541C2.33752 1.04331 3.04564 0.75 3.784 0.75H62.2189C62.5844 0.75 62.9462 0.822031 63.2838 0.961975C63.6215 1.10192 63.9282 1.30703 64.1865 1.56559C64.4447 1.82415 64.6495 2.13107 64.7891 2.46883C64.9287 2.80658 65.0004 3.16853 65 3.534Z" stroke="#191919" stroke-linecap="round" stroke-linejoin="round"/>
<path d="M48.3048 20.2351L46.0473 11.2169C45.896 10.6149 45.5485 10.0805 45.0596 9.69804C44.5707 9.31558 43.9684 9.10689 43.3477 9.10492H37.1746C37.1746 10.2121 36.7348 11.2739 35.9519 12.0568C35.169 12.8396 34.1072 13.2795 33 13.2795C31.8929 13.2795 30.8311 12.8396 30.0482 12.0568C29.2653 11.2739 28.8255 10.2121 28.8255 9.10492H22.6524C22.0321 9.10672 21.43 9.315 20.9412 9.6969C20.4524 10.0788 20.1046 10.6126 19.9528 11.214L17.6953 20.2351H23.2604V31.3682H42.7397V20.2351H48.3048Z" fill="#FFF9BF"/>
<path d="M33 17.9835C28.1554 18.0512 23.3745 16.8743 19.1149 14.5653L17.6953 20.238H23.2604V31.3682H42.7397V20.2351H48.3048L46.8851 14.5653C42.6259 16.8753 37.8449 18.0503 33 17.9835Z" fill="#FFEF5E"/>
<path d="M48.3048 20.2351L46.0473 11.2169C45.896 10.6149 45.5485 10.0805 45.0596 9.69804C44.5707 9.31558 43.9684 9.10689 43.3477 9.10492H37.1746C37.1746 10.2121 36.7348 11.2739 35.9519 12.0568C35.169 12.8396 34.1072 13.2795 33 13.2795C31.8929 13.2795 30.8311 12.8396 30.0482 12.0568C29.2653 11.2739 28.8255 10.2121 28.8255 9.10492H22.6524C22.0321 9.10672 21.43 9.315 20.9412 9.6969C20.4524 10.0788 20.1046 10.6126 19.9528 11.214L17.6953 20.2351H23.2604V31.3682H42.7397V20.2351H48.3048Z" stroke="#191919" stroke-linecap="round" stroke-linejoin="round"/>
</svg>
