<svg width="59" height="60" viewBox="0 0 64 65" fill="none" xmlns="http://www.w3.org/2000/svg">
<path d="M50.2857 43.6222H54.8571V55.0508H50.2857V43.6222ZM41.1429 32.1936H45.7143V55.0508H41.1429V32.1936ZM20.5714 55.0508C17.5415 55.0471 14.6367 53.8419 12.4942 51.6994C10.3517 49.5569 9.14649 46.6521 9.14286 43.6222H13.7143C13.7143 44.9784 14.1165 46.3041 14.8699 47.4318C15.6234 48.5595 16.6943 49.4384 17.9473 49.9574C19.2003 50.4764 20.579 50.6121 21.9092 50.3476C23.2393 50.083 24.4612 49.4299 25.4202 48.4709C26.3792 47.5119 27.0322 46.2901 27.2968 44.9599C27.5614 43.6298 27.4256 42.251 26.9066 40.9981C26.3876 39.7451 25.5087 38.6741 24.3811 37.9207C23.2534 37.1672 21.9276 36.765 20.5714 36.765V32.1936C23.6025 32.1936 26.5094 33.3977 28.6527 35.541C30.7959 37.6842 32 40.5911 32 43.6222C32 46.6532 30.7959 49.5601 28.6527 51.7034C26.5094 53.8467 23.6025 55.0508 20.5714 55.0508Z" fill="#3A5BFF"/>
<path d="M59.4286 0.193604H4.57143C3.35901 0.193604 2.19625 0.675235 1.33894 1.53254C0.481631 2.38985 0 3.55261 0 4.76503V59.6222C0 60.8346 0.481631 61.9974 1.33894 62.8547C2.19625 63.712 3.35901 64.1936 4.57143 64.1936H59.4286C60.6404 64.1918 61.8021 63.7096 62.6591 62.8527C63.516 61.9957 63.9982 60.834 64 59.6222V4.76503C64 3.55261 63.5184 2.38985 62.6611 1.53254C61.8038 0.675235 60.641 0.193604 59.4286 0.193604ZM59.4286 20.765H27.4286V4.76503H59.4286V20.765ZM22.8571 4.76503V20.765H4.57143V4.76503H22.8571ZM4.57143 59.6222V25.3365H59.4286L59.4331 59.6222H4.57143Z" fill="#3A5BFF"/>
</svg>
