<svg viewBox="0 0 388 297" fill="none" xmlns="http://www.w3.org/2000/svg">
<path d="M154 110.75C97.1797 141.476 96.1559 219.47 154 250.75" stroke="#505050"/>
<g filter="url(#filter0_i_187_6365)">
<rect x="32" y="224.75" width="72" height="72" rx="36" fill="#8B8B8B"/>
<rect x="33" y="225.75" width="70" height="70" rx="35" stroke="#525252" stroke-width="2"/>
<g style="mix-blend-mode:overlay" filter="url(#filter1_f_187_6365)">
<rect x="36" y="228.75" width="64" height="64" rx="32" fill="url(#paint0_linear_187_6365)"/>
</g>
<path d="M78 271.85C78 272.089 77.9056 272.318 77.7375 272.486C77.5695 272.655 77.3416 272.75 77.1039 272.75H58.8961C58.6584 272.75 58.4305 272.655 58.2624 272.486C58.0944 272.318 58 272.089 58 271.85C58 266.93 63.3763 263.114 68 263.114C72.6237 263.114 78 266.93 78 271.85ZM74.0932 254.882C74.0908 256.092 73.7315 257.274 73.0605 258.279C72.3895 259.284 71.4371 260.066 70.3235 260.528C69.2099 260.989 67.9851 261.108 66.804 260.871C65.6228 260.633 64.5382 260.05 63.6873 259.193C62.8363 258.337 62.2572 257.246 62.023 256.06C61.7889 254.873 61.9103 253.643 62.3718 252.525C62.8333 251.408 63.6143 250.453 64.616 249.781C65.6178 249.109 66.7954 248.75 68 248.75C69.6171 248.753 71.1669 249.401 72.3093 250.55C73.4516 251.7 74.0932 253.258 74.0932 254.882Z" fill="#3A5BFF"/>
</g>
<path d="M123.31 223.853C122.933 224.117 122.612 224.452 122.365 224.84C122.118 225.227 121.95 225.66 121.87 226.112C121.791 226.565 121.801 227.029 121.9 227.478C122 227.927 122.187 228.351 122.45 228.728C122.714 229.104 123.049 229.425 123.437 229.672C123.824 229.919 124.257 230.087 124.709 230.167C125.162 230.247 125.626 230.237 126.075 230.137C126.524 230.038 126.948 229.851 127.325 229.587C127.701 229.324 128.022 228.988 128.269 228.601C128.516 228.213 128.684 227.781 128.764 227.328C128.844 226.875 128.834 226.411 128.734 225.963C128.635 225.514 128.448 225.089 128.184 224.713C127.921 224.336 127.585 224.015 127.198 223.768C126.81 223.521 126.378 223.353 125.925 223.273C125.472 223.194 125.008 223.204 124.56 223.303C124.111 223.403 123.686 223.59 123.31 223.853Z" fill="white" stroke="#505050" stroke-linecap="round" stroke-linejoin="round"/>
<path d="M125.03 226.311C124.922 226.387 124.848 226.503 124.825 226.633C124.802 226.764 124.832 226.898 124.908 227.007C124.984 227.116 125.1 227.19 125.23 227.213C125.361 227.236 125.495 227.206 125.604 227.13C125.713 227.054 125.787 226.938 125.81 226.807C125.833 226.677 125.803 226.542 125.727 226.434C125.651 226.325 125.535 226.251 125.404 226.228C125.274 226.205 125.139 226.235 125.03 226.311Z" fill="white" stroke="#FF0000" stroke-linecap="round" stroke-linejoin="round"/>
<path d="M122.45 228.728L99.5139 244.788" stroke="#505050"/>
<g filter="url(#filter2_i_187_6365)">
<rect y="144.75" width="72" height="72" rx="36" fill="#8B8B8B"/>
<rect x="1" y="145.75" width="70" height="70" rx="35" stroke="#525252" stroke-width="2"/>
<g style="mix-blend-mode:overlay" filter="url(#filter3_f_187_6365)">
<rect x="4" y="148.75" width="64" height="64" rx="32" fill="url(#paint1_linear_187_6365)"/>
</g>
<path d="M46 191.85C46 192.089 45.9056 192.318 45.7375 192.486C45.5695 192.655 45.3416 192.75 45.1039 192.75H26.8961C26.6584 192.75 26.4305 192.655 26.2624 192.486C26.0944 192.318 26 192.089 26 191.85C26 186.93 31.3763 183.114 36 183.114C40.6237 183.114 46 186.93 46 191.85ZM42.0932 174.882C42.0908 176.092 41.7315 177.274 41.0605 178.279C40.3895 179.284 39.4371 180.066 38.3235 180.528C37.2099 180.989 35.9851 181.108 34.804 180.871C33.6228 180.633 32.5382 180.05 31.6873 179.193C30.8363 178.337 30.2572 177.246 30.023 176.06C29.7889 174.873 29.9103 173.643 30.3718 172.525C30.8333 171.408 31.6143 170.453 32.616 169.781C33.6178 169.109 34.7954 168.75 36 168.75C37.6171 168.753 39.1669 169.401 40.3093 170.55C41.4516 171.7 42.0932 173.258 42.0932 174.882Z" fill="#3A5BFF"/>
</g>
<path d="M111.5 177.25C111.04 177.25 110.585 177.341 110.161 177.516C109.736 177.692 109.35 177.95 109.025 178.275C108.7 178.6 108.442 178.986 108.266 179.411C108.091 179.835 108 180.29 108 180.75C108 181.21 108.091 181.665 108.266 182.089C108.442 182.514 108.7 182.9 109.025 183.225C109.35 183.55 109.736 183.808 110.161 183.984C110.585 184.159 111.04 184.25 111.5 184.25C111.96 184.25 112.415 184.159 112.839 183.984C113.264 183.808 113.65 183.55 113.975 183.225C114.3 182.9 114.558 182.514 114.734 182.089C114.909 181.665 115 181.21 115 180.75C115 180.29 114.909 179.835 114.734 179.411C114.558 178.986 114.3 178.6 113.975 178.275C113.65 177.95 113.264 177.692 112.839 177.516C112.415 177.341 111.96 177.25 111.5 177.25Z" fill="white" stroke="#505050" stroke-linecap="round" stroke-linejoin="round"/>
<path d="M111.5 180.25C111.367 180.25 111.24 180.303 111.146 180.396C111.053 180.49 111 180.617 111 180.75C111 180.883 111.053 181.01 111.146 181.104C111.24 181.197 111.367 181.25 111.5 181.25C111.633 181.25 111.76 181.197 111.854 181.104C111.947 181.01 112 180.883 112 180.75C112 180.617 111.947 180.49 111.854 180.396C111.76 180.303 111.633 180.25 111.5 180.25Z" fill="white" stroke="#FF0000" stroke-linecap="round" stroke-linejoin="round"/>
<path d="M108 180.75H72" stroke="#505050"/>
<g filter="url(#filter4_i_187_6365)">
<rect x="35" y="64.75" width="72" height="72" rx="36" fill="#8B8B8B"/>
<rect x="36" y="65.75" width="70" height="70" rx="35" stroke="#525252" stroke-width="2"/>
<g style="mix-blend-mode:overlay" filter="url(#filter5_f_187_6365)">
<rect x="39" y="68.75" width="64" height="64" rx="32" fill="url(#paint2_linear_187_6365)"/>
</g>
<path d="M81 111.85C81 112.089 80.9056 112.318 80.7375 112.486C80.5695 112.655 80.3416 112.75 80.1039 112.75H61.8961C61.6584 112.75 61.4305 112.655 61.2624 112.486C61.0944 112.318 61 112.089 61 111.85C61 106.93 66.3763 103.114 71 103.114C75.6237 103.114 81 106.93 81 111.85ZM77.0932 94.882C77.0908 96.0919 76.7315 97.274 76.0605 98.2788C75.3895 99.2837 74.4371 100.066 73.3235 100.528C72.2099 100.989 70.9851 101.108 69.804 100.871C68.6228 100.633 67.5382 100.05 66.6873 99.1933C65.8363 98.3369 65.2572 97.2464 65.023 96.0595C64.7889 94.8727 64.9103 93.6428 65.3718 92.5252C65.8333 91.4076 66.6143 90.4525 67.616 89.7806C68.6178 89.1086 69.7954 88.75 71 88.75C72.6171 88.7532 74.1669 89.4006 75.3093 90.5503C76.4516 91.6999 77.0932 93.2578 77.0932 94.882Z" fill="#3A5BFF"/>
</g>
<path d="M131.202 125.653C130.77 125.496 130.311 125.425 129.852 125.445C129.393 125.465 128.942 125.576 128.526 125.77C128.109 125.964 127.735 126.239 127.424 126.577C127.114 126.916 126.873 127.313 126.716 127.745C126.559 128.177 126.488 128.635 126.508 129.095C126.528 129.554 126.638 130.005 126.833 130.421C127.027 130.838 127.301 131.212 127.64 131.522C127.979 131.833 128.376 132.074 128.808 132.231C129.24 132.388 129.698 132.459 130.157 132.439C130.617 132.419 131.067 132.308 131.484 132.114C131.9 131.92 132.275 131.645 132.585 131.307C132.896 130.968 133.136 130.571 133.294 130.139C133.451 129.707 133.521 129.248 133.501 128.789C133.481 128.33 133.371 127.879 133.177 127.463C132.983 127.046 132.708 126.672 132.369 126.361C132.03 126.051 131.634 125.81 131.202 125.653Z" fill="white" stroke="#505050" stroke-linecap="round" stroke-linejoin="round"/>
<path d="M130.176 128.472C130.051 128.427 129.914 128.433 129.793 128.489C129.673 128.545 129.58 128.646 129.535 128.771C129.49 128.896 129.496 129.033 129.552 129.153C129.608 129.273 129.709 129.366 129.834 129.412C129.958 129.457 130.096 129.451 130.216 129.395C130.336 129.339 130.429 129.238 130.475 129.113C130.52 128.988 130.514 128.851 130.458 128.731C130.402 128.61 130.3 128.517 130.176 128.472Z" fill="white" stroke="#FF0000" stroke-linecap="round" stroke-linejoin="round"/>
<path d="M126.716 127.745L100.404 118.169" stroke="#505050"/>
<g filter="url(#filter6_i_187_6365)">
<rect width="94" height="94" rx="47" transform="matrix(-1 0 0 1 241 133.75)" fill="#8B8B8B"/>
<rect x="-2" y="2" width="90" height="90" rx="45" transform="matrix(-1 0 0 1 237 133.75)" stroke="#3A5BFF" stroke-width="4"/>
<path d="M177 199.25C177 199.648 177.16 200.029 177.446 200.311C177.732 200.592 178.119 200.75 178.523 200.75H209.477C209.881 200.75 210.268 200.592 210.554 200.311C210.84 200.029 211 199.648 211 199.25C211 191.05 201.86 184.69 194 184.69C186.14 184.69 177 191.05 177 199.25ZM183.642 170.97C183.646 172.987 184.257 174.957 185.397 176.631C186.538 178.306 188.157 179.61 190.05 180.379C191.943 181.148 194.025 181.347 196.033 180.952C198.041 180.556 199.885 179.583 201.332 178.155C202.778 176.728 203.763 174.911 204.161 172.933C204.559 170.955 204.353 168.905 203.568 167.042C202.783 165.179 201.456 163.588 199.753 162.468C198.05 161.348 196.048 160.75 194 160.75C191.251 160.755 188.616 161.834 186.674 163.75C184.732 165.666 183.642 168.263 183.642 170.97Z" fill="#505050"/>
<g style="mix-blend-mode:overlay" filter="url(#filter7_f_187_6365)">
<rect width="82" height="82" rx="40" transform="matrix(-1 0 0 1 235 139.75)" fill="url(#paint3_linear_187_6365)"/>
</g>
</g>
<path d="M234 110.75C290.82 141.476 291.844 219.47 234 250.75" stroke="#505050"/>
<g filter="url(#filter8_i_187_6365)">
<rect x="284" y="224.75" width="72" height="72" rx="36" fill="#8B8B8B"/>
<rect x="285" y="225.75" width="70" height="70" rx="35" stroke="#525252" stroke-width="2"/>
<g style="mix-blend-mode:overlay" filter="url(#filter9_f_187_6365)">
<rect x="288" y="228.75" width="64" height="64" rx="32" fill="url(#paint4_linear_187_6365)"/>
</g>
<path d="M330 271.85C330 272.089 329.906 272.318 329.738 272.486C329.57 272.655 329.342 272.75 329.104 272.75H310.896C310.658 272.75 310.43 272.655 310.262 272.486C310.094 272.318 310 272.089 310 271.85C310 266.93 315.376 263.114 320 263.114C324.624 263.114 330 266.93 330 271.85ZM326.093 254.882C326.091 256.092 325.731 257.274 325.06 258.279C324.39 259.284 323.437 260.066 322.323 260.528C321.21 260.989 319.985 261.108 318.804 260.871C317.623 260.633 316.538 260.05 315.687 259.193C314.836 258.337 314.257 257.246 314.023 256.06C313.789 254.873 313.91 253.643 314.372 252.525C314.833 251.408 315.614 250.453 316.616 249.781C317.618 249.109 318.795 248.75 320 248.75C321.617 248.753 323.167 249.401 324.309 250.55C325.452 251.7 326.093 253.258 326.093 254.882Z" fill="#3A5BFF"/>
</g>
<path d="M264.69 223.853C265.067 224.117 265.388 224.452 265.635 224.84C265.882 225.227 266.05 225.66 266.13 226.112C266.209 226.565 266.199 227.029 266.1 227.478C266 227.927 265.813 228.351 265.55 228.728C265.286 229.104 264.951 229.425 264.563 229.672C264.176 229.919 263.743 230.087 263.291 230.167C262.838 230.247 262.374 230.237 261.925 230.137C261.476 230.038 261.052 229.851 260.675 229.587C260.299 229.324 259.978 228.988 259.731 228.601C259.484 228.213 259.316 227.781 259.236 227.328C259.156 226.875 259.166 226.411 259.266 225.963C259.365 225.514 259.552 225.089 259.816 224.713C260.079 224.336 260.415 224.015 260.802 223.768C261.19 223.521 261.622 223.353 262.075 223.273C262.528 223.194 262.992 223.204 263.44 223.303C263.889 223.403 264.314 223.59 264.69 223.853Z" fill="white" stroke="#505050" stroke-linecap="round" stroke-linejoin="round"/>
<path d="M262.97 226.311C263.078 226.387 263.152 226.503 263.175 226.633C263.198 226.764 263.168 226.898 263.092 227.007C263.016 227.116 262.9 227.19 262.77 227.213C262.639 227.236 262.505 227.206 262.396 227.13C262.287 227.054 262.213 226.938 262.19 226.807C262.167 226.677 262.197 226.542 262.273 226.434C262.349 226.325 262.465 226.251 262.596 226.228C262.726 226.205 262.861 226.235 262.97 226.311Z" fill="white" stroke="#FF0000" stroke-linecap="round" stroke-linejoin="round"/>
<path d="M265.55 228.728L288.486 244.788" stroke="#505050"/>
<g filter="url(#filter10_i_187_6365)">
<rect x="316" y="144.75" width="72" height="72" rx="36" fill="#8B8B8B"/>
<rect x="317" y="145.75" width="70" height="70" rx="35" stroke="#525252" stroke-width="2"/>
<g style="mix-blend-mode:overlay" filter="url(#filter11_f_187_6365)">
<rect x="320" y="148.75" width="64" height="64" rx="32" fill="url(#paint5_linear_187_6365)"/>
</g>
<path d="M362 191.85C362 192.089 361.906 192.318 361.738 192.486C361.57 192.655 361.342 192.75 361.104 192.75H342.896C342.658 192.75 342.43 192.655 342.262 192.486C342.094 192.318 342 192.089 342 191.85C342 186.93 347.376 183.114 352 183.114C356.624 183.114 362 186.93 362 191.85ZM358.093 174.882C358.091 176.092 357.731 177.274 357.06 178.279C356.39 179.284 355.437 180.066 354.323 180.528C353.21 180.989 351.985 181.108 350.804 180.871C349.623 180.633 348.538 180.05 347.687 179.193C346.836 178.337 346.257 177.246 346.023 176.06C345.789 174.873 345.91 173.643 346.372 172.525C346.833 171.408 347.614 170.453 348.616 169.781C349.618 169.109 350.795 168.75 352 168.75C353.617 168.753 355.167 169.401 356.309 170.55C357.452 171.7 358.093 173.258 358.093 174.882Z" fill="#3A5BFF"/>
</g>
<path d="M276.5 177.25C276.96 177.25 277.415 177.341 277.839 177.516C278.264 177.692 278.65 177.95 278.975 178.275C279.3 178.6 279.558 178.986 279.734 179.411C279.909 179.835 280 180.29 280 180.75C280 181.21 279.909 181.665 279.734 182.089C279.558 182.514 279.3 182.9 278.975 183.225C278.65 183.55 278.264 183.808 277.839 183.984C277.415 184.159 276.96 184.25 276.5 184.25C276.04 184.25 275.585 184.159 275.161 183.984C274.736 183.808 274.35 183.55 274.025 183.225C273.7 182.9 273.442 182.514 273.266 182.089C273.091 181.665 273 181.21 273 180.75C273 180.29 273.091 179.835 273.266 179.411C273.442 178.986 273.7 178.6 274.025 178.275C274.35 177.95 274.736 177.692 275.161 177.516C275.585 177.341 276.04 177.25 276.5 177.25Z" fill="white" stroke="#505050" stroke-linecap="round" stroke-linejoin="round"/>
<path d="M276.5 180.25C276.633 180.25 276.76 180.303 276.854 180.396C276.947 180.49 277 180.617 277 180.75C277 180.883 276.947 181.01 276.854 181.104C276.76 181.197 276.633 181.25 276.5 181.25C276.367 181.25 276.24 181.197 276.146 181.104C276.053 181.01 276 180.883 276 180.75C276 180.617 276.053 180.49 276.146 180.396C276.24 180.303 276.367 180.25 276.5 180.25Z" fill="white" stroke="#FF0000" stroke-linecap="round" stroke-linejoin="round"/>
<path d="M280 180.75H316" stroke="#505050"/>
<g filter="url(#filter12_i_187_6365)">
<rect x="281" y="64.75" width="72" height="72" rx="36" fill="#8B8B8B"/>
<rect x="282" y="65.75" width="70" height="70" rx="35" stroke="#525252" stroke-width="2"/>
<g style="mix-blend-mode:overlay" filter="url(#filter13_f_187_6365)">
<rect x="285" y="68.75" width="64" height="64" rx="32" fill="url(#paint6_linear_187_6365)"/>
</g>
<path d="M327 111.85C327 112.089 326.906 112.318 326.738 112.486C326.57 112.655 326.342 112.75 326.104 112.75H307.896C307.658 112.75 307.43 112.655 307.262 112.486C307.094 112.318 307 112.089 307 111.85C307 106.93 312.376 103.114 317 103.114C321.624 103.114 327 106.93 327 111.85ZM323.093 94.882C323.091 96.0919 322.731 97.274 322.06 98.2788C321.39 99.2837 320.437 100.066 319.323 100.528C318.21 100.989 316.985 101.108 315.804 100.871C314.623 100.633 313.538 100.05 312.687 99.1933C311.836 98.3369 311.257 97.2464 311.023 96.0595C310.789 94.8727 310.91 93.6428 311.372 92.5252C311.833 91.4076 312.614 90.4525 313.616 89.7806C314.618 89.1086 315.795 88.75 317 88.75C318.617 88.7532 320.167 89.4006 321.309 90.5503C322.452 91.6999 323.093 93.2578 323.093 94.882Z" fill="#3A5BFF"/>
</g>
<path d="M256.798 125.653C257.23 125.496 257.689 125.425 258.148 125.445C258.607 125.465 259.058 125.576 259.474 125.77C259.891 125.964 260.265 126.239 260.576 126.577C260.886 126.916 261.127 127.313 261.284 127.745C261.441 128.177 261.512 128.635 261.492 129.095C261.472 129.554 261.362 130.005 261.167 130.421C260.973 130.838 260.699 131.212 260.36 131.522C260.021 131.833 259.624 132.074 259.192 132.231C258.76 132.388 258.302 132.459 257.843 132.439C257.383 132.419 256.933 132.308 256.516 132.114C256.1 131.92 255.725 131.645 255.415 131.307C255.104 130.968 254.864 130.571 254.706 130.139C254.549 129.707 254.479 129.248 254.499 128.789C254.519 128.33 254.629 127.879 254.823 127.463C255.017 127.046 255.292 126.672 255.631 126.361C255.97 126.051 256.366 125.81 256.798 125.653Z" fill="white" stroke="#505050" stroke-linecap="round" stroke-linejoin="round"/>
<path d="M257.824 128.472C257.949 128.427 258.086 128.433 258.207 128.489C258.327 128.545 258.42 128.646 258.465 128.771C258.51 128.896 258.504 129.033 258.448 129.153C258.392 129.273 258.291 129.366 258.166 129.412C258.042 129.457 257.904 129.451 257.784 129.395C257.664 129.339 257.571 129.238 257.525 129.113C257.48 128.988 257.486 128.851 257.542 128.731C257.598 128.61 257.7 128.517 257.824 128.472Z" fill="white" stroke="#FF0000" stroke-linecap="round" stroke-linejoin="round"/>
<path d="M261.284 127.745L287.596 118.169" stroke="#505050"/>
<path d="M210.149 133.938L209.339 133.676L211.81 126.026L212.952 126.394L213.587 131.846L213.737 133.723L213.806 133.745L215.026 132.31L218.707 128.253L219.86 128.626L217.389 136.277L216.567 136.011L218.278 130.713L218.67 129.616L218.602 129.594L217.776 130.55L213.997 134.677L213.015 134.359L212.363 128.802L212.253 127.543L212.184 127.521L211.861 128.64L210.149 133.938Z" fill="#1B1B1B"/>
<path d="M203.041 131.093L202.197 130.973L203.331 123.014L206.444 123.457C208.107 123.694 209.193 124.831 208.958 126.482C208.719 128.157 207.36 128.933 205.697 128.696L203.428 128.373L203.041 131.093ZM206.464 124.248L204.064 123.906L203.538 127.601L205.938 127.943C207.233 128.127 207.917 127.667 208.103 126.36C208.287 125.065 207.759 124.432 206.464 124.248Z" fill="#1B1B1B"/>
<path d="M191.919 129.927L191.067 129.951L190.839 121.914L194.114 121.821C195.77 121.774 196.921 122.594 196.963 124.082C197.002 125.449 196.078 126.303 194.639 126.38L194.641 126.452C195.15 126.594 195.495 126.92 195.785 127.404L197.233 129.776L196.237 129.804L194.878 127.586C194.462 126.901 194.033 126.589 192.99 126.619L191.826 126.652L191.919 129.927ZM191.713 122.67L191.805 125.92L194.36 125.848C195.596 125.813 196.134 125.305 196.101 124.166C196.07 123.062 195.504 122.562 194.268 122.597L191.713 122.67Z" fill="#1B1B1B"/>
<path d="M184.889 131.249C182.867 131.596 181.401 130.642 181.046 128.572L180.222 123.77L181.073 123.624L181.897 128.426C182.187 130.117 183.011 130.731 184.749 130.433C186.464 130.139 187.048 129.284 186.758 127.592L185.934 122.79L186.786 122.644L187.61 127.446C187.965 129.516 186.888 130.906 184.889 131.249Z" fill="#1B1B1B"/>
<path d="M169.318 137.131L168.499 137.404L167.526 134.49L163.005 130.762L163.962 130.442L166.535 132.582L167.659 133.56L167.716 133.541L168.015 132.088L168.776 128.836L169.721 128.52L168.353 134.239L169.318 137.131Z" fill="#1B1B1B"/>
<path d="M176.436 133.524C174.342 134.223 172.436 133.138 171.642 130.759C170.848 128.38 171.72 126.369 173.815 125.67C175.898 124.975 177.803 126.059 178.597 128.438C179.391 130.817 178.519 132.829 176.436 133.524ZM176.174 132.739C177.961 132.142 178.45 130.84 177.743 128.723C177.037 126.606 175.864 125.859 174.077 126.455C172.29 127.052 171.789 128.357 172.496 130.474C173.203 132.592 174.387 133.335 176.174 132.739Z" fill="#1B1B1B"/>
<defs>
<filter id="filter0_i_187_6365" x="32" y="224.75" width="73.25" height="73.25" filterUnits="userSpaceOnUse" color-interpolation-filters="sRGB">
<feFlood flood-opacity="0" result="BackgroundImageFix"/>
<feBlend mode="normal" in="SourceGraphic" in2="BackgroundImageFix" result="shape"/>
<feColorMatrix in="SourceAlpha" type="matrix" values="0 0 0 0 0 0 0 0 0 0 0 0 0 0 0 0 0 0 127 0" result="hardAlpha"/>
<feOffset dx="1.5" dy="3.5"/>
<feGaussianBlur stdDeviation="0.625"/>
<feComposite in2="hardAlpha" operator="arithmetic" k2="-1" k3="1"/>
<feColorMatrix type="matrix" values="0 0 0 0 1 0 0 0 0 1 0 0 0 0 1 0 0 0 1 0"/>
<feBlend mode="overlay" in2="shape" result="effect1_innerShadow_187_6365"/>
</filter>
<filter id="filter1_f_187_6365" x="32" y="224.75" width="72" height="72" filterUnits="userSpaceOnUse" color-interpolation-filters="sRGB">
<feFlood flood-opacity="0" result="BackgroundImageFix"/>
<feBlend mode="normal" in="SourceGraphic" in2="BackgroundImageFix" result="shape"/>
<feGaussianBlur stdDeviation="2" result="effect1_foregroundBlur_187_6365"/>
</filter>
<filter id="filter2_i_187_6365" x="0" y="144.75" width="73.25" height="73.25" filterUnits="userSpaceOnUse" color-interpolation-filters="sRGB">
<feFlood flood-opacity="0" result="BackgroundImageFix"/>
<feBlend mode="normal" in="SourceGraphic" in2="BackgroundImageFix" result="shape"/>
<feColorMatrix in="SourceAlpha" type="matrix" values="0 0 0 0 0 0 0 0 0 0 0 0 0 0 0 0 0 0 127 0" result="hardAlpha"/>
<feOffset dx="1.5" dy="3.5"/>
<feGaussianBlur stdDeviation="0.625"/>
<feComposite in2="hardAlpha" operator="arithmetic" k2="-1" k3="1"/>
<feColorMatrix type="matrix" values="0 0 0 0 1 0 0 0 0 1 0 0 0 0 1 0 0 0 1 0"/>
<feBlend mode="overlay" in2="shape" result="effect1_innerShadow_187_6365"/>
</filter>
<filter id="filter3_f_187_6365" x="0" y="144.75" width="72" height="72" filterUnits="userSpaceOnUse" color-interpolation-filters="sRGB">
<feFlood flood-opacity="0" result="BackgroundImageFix"/>
<feBlend mode="normal" in="SourceGraphic" in2="BackgroundImageFix" result="shape"/>
<feGaussianBlur stdDeviation="2" result="effect1_foregroundBlur_187_6365"/>
</filter>
<filter id="filter4_i_187_6365" x="35" y="64.75" width="73.25" height="73.25" filterUnits="userSpaceOnUse" color-interpolation-filters="sRGB">
<feFlood flood-opacity="0" result="BackgroundImageFix"/>
<feBlend mode="normal" in="SourceGraphic" in2="BackgroundImageFix" result="shape"/>
<feColorMatrix in="SourceAlpha" type="matrix" values="0 0 0 0 0 0 0 0 0 0 0 0 0 0 0 0 0 0 127 0" result="hardAlpha"/>
<feOffset dx="1.5" dy="3.5"/>
<feGaussianBlur stdDeviation="0.625"/>
<feComposite in2="hardAlpha" operator="arithmetic" k2="-1" k3="1"/>
<feColorMatrix type="matrix" values="0 0 0 0 1 0 0 0 0 1 0 0 0 0 1 0 0 0 1 0"/>
<feBlend mode="overlay" in2="shape" result="effect1_innerShadow_187_6365"/>
</filter>
<filter id="filter5_f_187_6365" x="35" y="64.75" width="72" height="72" filterUnits="userSpaceOnUse" color-interpolation-filters="sRGB">
<feFlood flood-opacity="0" result="BackgroundImageFix"/>
<feBlend mode="normal" in="SourceGraphic" in2="BackgroundImageFix" result="shape"/>
<feGaussianBlur stdDeviation="2" result="effect1_foregroundBlur_187_6365"/>
</filter>
<filter id="filter6_i_187_6365" x="147" y="133.75" width="95.25" height="95.25" filterUnits="userSpaceOnUse" color-interpolation-filters="sRGB">
<feFlood flood-opacity="0" result="BackgroundImageFix"/>
<feBlend mode="normal" in="SourceGraphic" in2="BackgroundImageFix" result="shape"/>
<feColorMatrix in="SourceAlpha" type="matrix" values="0 0 0 0 0 0 0 0 0 0 0 0 0 0 0 0 0 0 127 0" result="hardAlpha"/>
<feOffset dx="3.5" dy="5.5"/>
<feGaussianBlur stdDeviation="0.625"/>
<feComposite in2="hardAlpha" operator="arithmetic" k2="-1" k3="1"/>
<feColorMatrix type="matrix" values="0 0 0 0 1 0 0 0 0 1 0 0 0 0 1 0 0 0 1 0"/>
<feBlend mode="overlay" in2="shape" result="effect1_innerShadow_187_6365"/>
</filter>
<filter id="filter7_f_187_6365" x="149" y="135.75" width="90" height="90" filterUnits="userSpaceOnUse" color-interpolation-filters="sRGB">
<feFlood flood-opacity="0" result="BackgroundImageFix"/>
<feBlend mode="normal" in="SourceGraphic" in2="BackgroundImageFix" result="shape"/>
<feGaussianBlur stdDeviation="2" result="effect1_foregroundBlur_187_6365"/>
</filter>
<filter id="filter8_i_187_6365" x="284" y="224.75" width="73.25" height="73.25" filterUnits="userSpaceOnUse" color-interpolation-filters="sRGB">
<feFlood flood-opacity="0" result="BackgroundImageFix"/>
<feBlend mode="normal" in="SourceGraphic" in2="BackgroundImageFix" result="shape"/>
<feColorMatrix in="SourceAlpha" type="matrix" values="0 0 0 0 0 0 0 0 0 0 0 0 0 0 0 0 0 0 127 0" result="hardAlpha"/>
<feOffset dx="1.5" dy="3.5"/>
<feGaussianBlur stdDeviation="0.625"/>
<feComposite in2="hardAlpha" operator="arithmetic" k2="-1" k3="1"/>
<feColorMatrix type="matrix" values="0 0 0 0 1 0 0 0 0 1 0 0 0 0 1 0 0 0 1 0"/>
<feBlend mode="overlay" in2="shape" result="effect1_innerShadow_187_6365"/>
</filter>
<filter id="filter9_f_187_6365" x="284" y="224.75" width="72" height="72" filterUnits="userSpaceOnUse" color-interpolation-filters="sRGB">
<feFlood flood-opacity="0" result="BackgroundImageFix"/>
<feBlend mode="normal" in="SourceGraphic" in2="BackgroundImageFix" result="shape"/>
<feGaussianBlur stdDeviation="2" result="effect1_foregroundBlur_187_6365"/>
</filter>
<filter id="filter10_i_187_6365" x="316" y="144.75" width="73.25" height="73.25" filterUnits="userSpaceOnUse" color-interpolation-filters="sRGB">
<feFlood flood-opacity="0" result="BackgroundImageFix"/>
<feBlend mode="normal" in="SourceGraphic" in2="BackgroundImageFix" result="shape"/>
<feColorMatrix in="SourceAlpha" type="matrix" values="0 0 0 0 0 0 0 0 0 0 0 0 0 0 0 0 0 0 127 0" result="hardAlpha"/>
<feOffset dx="1.5" dy="3.5"/>
<feGaussianBlur stdDeviation="0.625"/>
<feComposite in2="hardAlpha" operator="arithmetic" k2="-1" k3="1"/>
<feColorMatrix type="matrix" values="0 0 0 0 1 0 0 0 0 1 0 0 0 0 1 0 0 0 1 0"/>
<feBlend mode="overlay" in2="shape" result="effect1_innerShadow_187_6365"/>
</filter>
<filter id="filter11_f_187_6365" x="316" y="144.75" width="72" height="72" filterUnits="userSpaceOnUse" color-interpolation-filters="sRGB">
<feFlood flood-opacity="0" result="BackgroundImageFix"/>
<feBlend mode="normal" in="SourceGraphic" in2="BackgroundImageFix" result="shape"/>
<feGaussianBlur stdDeviation="2" result="effect1_foregroundBlur_187_6365"/>
</filter>
<filter id="filter12_i_187_6365" x="281" y="64.75" width="73.25" height="73.25" filterUnits="userSpaceOnUse" color-interpolation-filters="sRGB">
<feFlood flood-opacity="0" result="BackgroundImageFix"/>
<feBlend mode="normal" in="SourceGraphic" in2="BackgroundImageFix" result="shape"/>
<feColorMatrix in="SourceAlpha" type="matrix" values="0 0 0 0 0 0 0 0 0 0 0 0 0 0 0 0 0 0 127 0" result="hardAlpha"/>
<feOffset dx="1.5" dy="3.5"/>
<feGaussianBlur stdDeviation="0.625"/>
<feComposite in2="hardAlpha" operator="arithmetic" k2="-1" k3="1"/>
<feColorMatrix type="matrix" values="0 0 0 0 1 0 0 0 0 1 0 0 0 0 1 0 0 0 1 0"/>
<feBlend mode="overlay" in2="shape" result="effect1_innerShadow_187_6365"/>
</filter>
<filter id="filter13_f_187_6365" x="281" y="64.75" width="72" height="72" filterUnits="userSpaceOnUse" color-interpolation-filters="sRGB">
<feFlood flood-opacity="0" result="BackgroundImageFix"/>
<feBlend mode="normal" in="SourceGraphic" in2="BackgroundImageFix" result="shape"/>
<feGaussianBlur stdDeviation="2" result="effect1_foregroundBlur_187_6365"/>
</filter>
<linearGradient id="paint0_linear_187_6365" x1="51.5" y1="234.25" x2="62" y2="252.75" gradientUnits="userSpaceOnUse">
<stop stop-color="white" stop-opacity="0.5"/>
<stop offset="1" stop-color="white"/>
</linearGradient>
<linearGradient id="paint1_linear_187_6365" x1="19.5" y1="154.25" x2="30" y2="172.75" gradientUnits="userSpaceOnUse">
<stop stop-color="white" stop-opacity="0.5"/>
<stop offset="1" stop-color="white"/>
</linearGradient>
<linearGradient id="paint2_linear_187_6365" x1="54.5" y1="74.25" x2="65" y2="92.75" gradientUnits="userSpaceOnUse">
<stop stop-color="white" stop-opacity="0.5"/>
<stop offset="1" stop-color="white"/>
</linearGradient>
<linearGradient id="paint3_linear_187_6365" x1="19.8594" y1="7.04688" x2="33.3125" y2="30.75" gradientUnits="userSpaceOnUse">
<stop stop-color="white" stop-opacity="0.5"/>
<stop offset="1" stop-color="white"/>
</linearGradient>
<linearGradient id="paint4_linear_187_6365" x1="303.5" y1="234.25" x2="314" y2="252.75" gradientUnits="userSpaceOnUse">
<stop stop-color="white" stop-opacity="0.5"/>
<stop offset="1" stop-color="white"/>
</linearGradient>
<linearGradient id="paint5_linear_187_6365" x1="335.5" y1="154.25" x2="346" y2="172.75" gradientUnits="userSpaceOnUse">
<stop stop-color="white" stop-opacity="0.5"/>
<stop offset="1" stop-color="white"/>
</linearGradient>
<linearGradient id="paint6_linear_187_6365" x1="300.5" y1="74.25" x2="311" y2="92.75" gradientUnits="userSpaceOnUse">
<stop stop-color="white" stop-opacity="0.5"/>
<stop offset="1" stop-color="white"/>
</linearGradient>
</defs>
</svg>
