<svg viewBox="0 0 388 297" fill="none" xmlns="http://www.w3.org/2000/svg">
<path d="M154 110.75C97.1797 141.476 96.1559 219.47 154 250.75" stroke="#505050"/>
<g filter="url(#filter0_i_187_6433)">
<rect x="32" y="224.75" width="72" height="72" rx="36" fill="#8B8B8B"/>
<rect x="33" y="225.75" width="70" height="70" rx="35" stroke="#525252" stroke-width="2"/>
<path d="M78 271.85C78 272.089 77.9056 272.318 77.7375 272.486C77.5695 272.655 77.3416 272.75 77.1039 272.75H58.8961C58.6584 272.75 58.4305 272.655 58.2624 272.486C58.0944 272.318 58 272.089 58 271.85C58 266.93 63.3763 263.114 68 263.114C72.6237 263.114 78 266.93 78 271.85ZM74.0932 254.882C74.0908 256.092 73.7315 257.274 73.0605 258.279C72.3895 259.284 71.4371 260.066 70.3235 260.528C69.2099 260.989 67.9851 261.108 66.804 260.871C65.6228 260.633 64.5382 260.05 63.6873 259.193C62.8363 258.337 62.2572 257.246 62.023 256.06C61.7889 254.873 61.9103 253.643 62.3718 252.525C62.8333 251.408 63.6143 250.453 64.616 249.781C65.6178 249.109 66.7954 248.75 68 248.75C69.6171 248.753 71.1669 249.401 72.3093 250.55C73.4516 251.7 74.0932 253.258 74.0932 254.882Z" fill="#505050"/>
<g style="mix-blend-mode:overlay" filter="url(#filter1_f_187_6433)">
<rect x="36" y="228.75" width="64" height="64" rx="32" fill="url(#paint0_linear_187_6433)"/>
</g>
</g>
<path d="M123.31 223.853C122.933 224.117 122.612 224.452 122.365 224.84C122.118 225.227 121.95 225.66 121.87 226.112C121.791 226.565 121.801 227.029 121.9 227.478C122 227.927 122.187 228.351 122.45 228.728C122.714 229.104 123.049 229.425 123.437 229.672C123.824 229.919 124.257 230.087 124.709 230.167C125.162 230.247 125.626 230.237 126.075 230.137C126.524 230.038 126.948 229.851 127.325 229.587C127.701 229.324 128.022 228.988 128.269 228.601C128.516 228.213 128.684 227.781 128.764 227.328C128.844 226.875 128.834 226.411 128.734 225.963C128.635 225.514 128.448 225.089 128.184 224.713C127.921 224.336 127.585 224.015 127.198 223.768C126.81 223.521 126.378 223.353 125.925 223.273C125.472 223.194 125.008 223.204 124.56 223.303C124.111 223.403 123.686 223.59 123.31 223.853Z" fill="white" stroke="#505050" stroke-linecap="round" stroke-linejoin="round"/>
<path d="M125.03 226.311C124.922 226.387 124.848 226.503 124.825 226.633C124.802 226.764 124.832 226.898 124.908 227.007C124.984 227.116 125.1 227.19 125.23 227.213C125.361 227.236 125.495 227.206 125.604 227.13C125.713 227.054 125.787 226.938 125.81 226.807C125.833 226.677 125.803 226.542 125.727 226.434C125.651 226.325 125.535 226.251 125.404 226.228C125.274 226.205 125.139 226.235 125.03 226.311Z" fill="white" stroke="#FF0000" stroke-linecap="round" stroke-linejoin="round"/>
<path d="M122.45 228.728L99.5139 244.788" stroke="#505050"/>
<g filter="url(#filter2_i_187_6433)">
<rect y="144.75" width="72" height="72" rx="36" fill="#8B8B8B"/>
<rect x="1" y="145.75" width="70" height="70" rx="35" stroke="#525252" stroke-width="2"/>
<path d="M46 191.85C46 192.089 45.9056 192.318 45.7375 192.486C45.5695 192.655 45.3416 192.75 45.1039 192.75H26.8961C26.6584 192.75 26.4305 192.655 26.2624 192.486C26.0944 192.318 26 192.089 26 191.85C26 186.93 31.3763 183.114 36 183.114C40.6237 183.114 46 186.93 46 191.85ZM42.0932 174.882C42.0908 176.092 41.7315 177.274 41.0605 178.279C40.3895 179.284 39.4371 180.066 38.3235 180.528C37.2099 180.989 35.9851 181.108 34.804 180.871C33.6228 180.633 32.5382 180.05 31.6873 179.193C30.8363 178.337 30.2572 177.246 30.023 176.06C29.7889 174.873 29.9103 173.643 30.3718 172.525C30.8333 171.408 31.6143 170.453 32.616 169.781C33.6178 169.109 34.7954 168.75 36 168.75C37.6171 168.753 39.1669 169.401 40.3093 170.55C41.4516 171.7 42.0932 173.258 42.0932 174.882Z" fill="#505050"/>
<g style="mix-blend-mode:overlay" filter="url(#filter3_f_187_6433)">
<rect x="4" y="148.75" width="64" height="64" rx="32" fill="url(#paint1_linear_187_6433)"/>
</g>
</g>
<path d="M111.5 177.25C111.04 177.25 110.585 177.341 110.161 177.516C109.736 177.692 109.35 177.95 109.025 178.275C108.7 178.6 108.442 178.986 108.266 179.411C108.091 179.835 108 180.29 108 180.75C108 181.21 108.091 181.665 108.266 182.089C108.442 182.514 108.7 182.9 109.025 183.225C109.35 183.55 109.736 183.808 110.161 183.984C110.585 184.159 111.04 184.25 111.5 184.25C111.96 184.25 112.415 184.159 112.839 183.984C113.264 183.808 113.65 183.55 113.975 183.225C114.3 182.9 114.558 182.514 114.734 182.089C114.909 181.665 115 181.21 115 180.75C115 180.29 114.909 179.835 114.734 179.411C114.558 178.986 114.3 178.6 113.975 178.275C113.65 177.95 113.264 177.692 112.839 177.516C112.415 177.341 111.96 177.25 111.5 177.25Z" fill="white" stroke="#505050" stroke-linecap="round" stroke-linejoin="round"/>
<path d="M111.5 180.25C111.367 180.25 111.24 180.303 111.146 180.396C111.053 180.49 111 180.617 111 180.75C111 180.883 111.053 181.01 111.146 181.104C111.24 181.197 111.367 181.25 111.5 181.25C111.633 181.25 111.76 181.197 111.854 181.104C111.947 181.01 112 180.883 112 180.75C112 180.617 111.947 180.49 111.854 180.396C111.76 180.303 111.633 180.25 111.5 180.25Z" fill="white" stroke="#FF0000" stroke-linecap="round" stroke-linejoin="round"/>
<path d="M108 180.75H72" stroke="#505050"/>
<g filter="url(#filter4_i_187_6433)">
<rect x="35" y="64.75" width="72" height="72" rx="36" fill="#8B8B8B"/>
<rect x="36" y="65.75" width="70" height="70" rx="35" stroke="#525252" stroke-width="2"/>
<g style="mix-blend-mode:overlay" filter="url(#filter5_f_187_6433)">
<rect x="39" y="68.75" width="64" height="64" rx="32" fill="url(#paint2_linear_187_6433)"/>
</g>
<path d="M81 111.85C81 112.089 80.9056 112.318 80.7375 112.486C80.5695 112.655 80.3416 112.75 80.1039 112.75H61.8961C61.6584 112.75 61.4305 112.655 61.2624 112.486C61.0944 112.318 61 112.089 61 111.85C61 106.93 66.3763 103.114 71 103.114C75.6237 103.114 81 106.93 81 111.85ZM77.0932 94.882C77.0908 96.0919 76.7315 97.274 76.0605 98.2788C75.3895 99.2837 74.4371 100.066 73.3235 100.528C72.2099 100.989 70.9851 101.108 69.804 100.871C68.6228 100.633 67.5382 100.05 66.6873 99.1933C65.8363 98.3369 65.2572 97.2464 65.023 96.0595C64.7889 94.8727 64.9103 93.6428 65.3718 92.5252C65.8333 91.4076 66.6143 90.4525 67.616 89.7806C68.6178 89.1086 69.7954 88.75 71 88.75C72.6171 88.7532 74.1669 89.4006 75.3093 90.5503C76.4516 91.6999 77.0932 93.2578 77.0932 94.882Z" fill="#3A5BFF"/>
</g>
<path d="M131.202 125.653C130.77 125.496 130.311 125.425 129.852 125.445C129.393 125.465 128.942 125.576 128.526 125.77C128.109 125.964 127.735 126.239 127.424 126.577C127.114 126.916 126.873 127.313 126.716 127.745C126.559 128.177 126.488 128.635 126.508 129.095C126.528 129.554 126.638 130.005 126.833 130.421C127.027 130.838 127.301 131.212 127.64 131.522C127.979 131.833 128.376 132.074 128.808 132.231C129.24 132.388 129.698 132.459 130.157 132.439C130.617 132.419 131.067 132.308 131.484 132.114C131.9 131.92 132.275 131.645 132.585 131.307C132.896 130.968 133.136 130.571 133.294 130.139C133.451 129.707 133.521 129.248 133.501 128.789C133.481 128.33 133.371 127.879 133.177 127.463C132.983 127.046 132.708 126.672 132.369 126.361C132.03 126.051 131.634 125.81 131.202 125.653Z" fill="white" stroke="#505050" stroke-linecap="round" stroke-linejoin="round"/>
<path d="M130.176 128.472C130.051 128.427 129.914 128.433 129.793 128.489C129.673 128.545 129.58 128.646 129.535 128.771C129.49 128.896 129.496 129.033 129.552 129.153C129.608 129.273 129.709 129.366 129.834 129.412C129.958 129.457 130.096 129.451 130.216 129.395C130.336 129.339 130.429 129.238 130.475 129.113C130.52 128.988 130.514 128.851 130.458 128.731C130.402 128.61 130.3 128.517 130.176 128.472Z" fill="white" stroke="#FF0000" stroke-linecap="round" stroke-linejoin="round"/>
<path d="M126.716 127.745L100.404 118.169" stroke="#505050"/>
<rect width="94" height="94" rx="47" transform="matrix(-1 0 0 1 241 133.75)" fill="#8B8B8B"/>
<g style="mix-blend-mode:overlay" filter="url(#filter6_f_187_6433)">
<rect width="82" height="82" rx="40" transform="matrix(-1 0 0 1 235 139.75)" fill="url(#paint3_linear_187_6433)"/>
</g>
<path d="M178.66 175.75H176.734V171.268L172.054 163.69H174.268L176.554 167.416L177.67 169.306H177.796L178.894 167.416L181.162 163.69H183.358L178.66 171.304V175.75ZM186.454 175.93C183.7 175.93 181.99 174.058 181.99 171.268C181.99 168.496 183.7 166.624 186.454 166.624C189.19 166.624 190.846 168.496 190.846 171.268C190.846 174.058 189.19 175.93 186.454 175.93ZM186.454 174.202C188.326 174.202 188.974 173.284 188.974 171.268C188.974 169.27 188.326 168.352 186.454 168.352C184.564 168.352 183.898 169.27 183.898 171.268C183.898 173.284 184.564 174.202 186.454 174.202ZM195.13 175.93C192.79 175.93 191.746 174.364 191.746 172.33V166.804H193.69V171.988C193.69 173.59 194.302 174.256 195.85 174.256C197.344 174.256 198.19 173.608 198.19 171.844V166.804H200.134V175.75H198.334V173.968H198.262C197.83 174.994 196.876 175.93 195.13 175.93ZM203.492 175.75H201.548V166.75H203.33V168.172H203.42C203.78 167.344 204.608 166.624 205.922 166.624C207.794 166.624 208.514 167.992 208.514 169.666V170.26H206.57V169.9C206.57 168.712 206.228 168.28 205.094 168.28C203.924 168.28 203.492 168.73 203.492 169.918V175.75Z" fill="#1B1B1B"/>
<path d="M178.138 197.75H176.212V187.436H172.108V185.69H182.242V187.436H178.138V197.75ZM185.713 197.93C182.761 197.93 181.375 196.058 181.375 193.268C181.375 190.496 183.031 188.624 185.695 188.624C188.107 188.624 189.799 190.064 189.799 192.512C189.799 192.98 189.745 193.466 189.691 193.736H183.193C183.265 195.374 183.859 196.202 185.731 196.202C187.225 196.202 187.801 195.698 187.801 194.888V194.744H189.727V194.906C189.727 196.742 188.125 197.93 185.713 197.93ZM185.659 190.262C183.967 190.262 183.319 191.054 183.211 192.44H187.945C188.017 190.91 187.189 190.262 185.659 190.262ZM193.369 197.93C191.767 197.93 190.525 197.102 190.525 195.536C190.525 194.06 191.605 193.286 193.513 193.016L196.645 192.548V192.062C196.645 190.73 196.033 190.334 194.629 190.334C193.207 190.334 192.649 190.784 192.649 191.972V192.242H190.777V192.062C190.777 190.064 192.343 188.624 194.737 188.624C197.239 188.624 198.499 190.136 198.499 192.314V197.75H196.699V196.346H196.609C196.087 197.192 195.061 197.93 193.369 197.93ZM192.415 195.392C192.415 196.094 192.865 196.382 193.999 196.382C195.259 196.382 196.645 195.878 196.645 194.078V193.916L193.801 194.348C192.775 194.492 192.415 194.726 192.415 195.392ZM201.804 197.75H199.86V188.804H201.642V190.478H201.714C202.128 189.524 203.064 188.624 204.774 188.624C206.34 188.624 207.312 189.344 207.744 190.478H207.798C208.212 189.542 209.13 188.624 210.894 188.624C213.198 188.624 214.224 190.1 214.224 192.134V197.75H212.28V192.566C212.28 190.964 211.794 190.298 210.174 190.298C208.698 190.298 208.014 190.91 208.014 192.548V197.75H206.07V192.566C206.07 190.964 205.584 190.298 203.964 190.298C202.488 190.298 201.804 190.91 201.804 192.53V197.75Z" fill="#3A5BFF"/>
<g filter="url(#filter7_i_187_6433)">
<rect x="154" y="4.75" width="80" height="80" rx="40" fill="#8B8B8B"/>
<rect x="156" y="6.75" width="76" height="76" rx="38" stroke="#3A5BFF" stroke-width="4"/>
<path d="M204 55.85C204 56.0887 203.906 56.3176 203.738 56.4864C203.57 56.6552 203.342 56.75 203.104 56.75H184.896C184.658 56.75 184.43 56.6552 184.262 56.4864C184.094 56.3176 184 56.0887 184 55.85C184 50.93 189.376 47.114 194 47.114C198.624 47.114 204 50.93 204 55.85ZM200.093 38.882C200.091 40.0919 199.731 41.274 199.06 42.2788C198.39 43.2837 197.437 44.0662 196.323 44.5276C195.21 44.9889 193.985 45.1084 192.804 44.8709C191.623 44.6334 190.538 44.0496 189.687 43.1933C188.836 42.3369 188.257 41.2464 188.023 40.0595C187.789 38.8727 187.91 37.6428 188.372 36.5252C188.833 35.4076 189.614 34.4525 190.616 33.7806C191.618 33.1086 192.795 32.75 194 32.75C195.617 32.7532 197.167 33.4006 198.309 34.5503C199.452 35.6999 200.093 37.2578 200.093 38.882Z" fill="#505050"/>
<g style="mix-blend-mode:overlay" filter="url(#filter8_f_187_6433)">
<rect x="158" y="8.75" width="72" height="72" rx="36" fill="url(#paint4_linear_187_6433)"/>
</g>
<rect x="180" y="70.75" width="28" height="28" rx="14" fill="#1B1B1B"/>
<path d="M184 81.6441C184.035 81.5953 184.083 81.5727 184.104 81.5348C184.277 81.2137 184.55 81.0627 184.901 81.0599C185.023 81.0589 185.086 81.0236 185.135 80.9073C185.273 80.5788 185.425 80.2562 185.599 79.9231C185.7 79.9031 185.772 79.8911 185.842 79.8938C185.65 80.312 185.459 80.7155 185.272 81.1131C185.542 81.2987 185.548 81.3051 185.738 81.0963C186.099 80.6976 186.455 80.2927 186.808 79.8867C187.061 79.5968 187.304 79.2981 187.557 79.0085C187.793 78.7386 188.036 78.4755 188.291 78.2087C188.416 78.1819 188.525 78.1558 188.632 78.1431C188.431 78.3733 188.229 78.5865 188.035 78.8075C187.531 79.383 187.03 79.9612 186.529 80.5399C186.268 80.8415 186.009 81.145 185.755 81.4524C185.726 81.4868 185.712 81.5699 185.733 81.5996C185.756 81.6333 185.833 81.6536 185.878 81.643C186.342 81.5346 186.804 81.4146 187.268 81.3061C187.751 81.1932 188.236 81.0894 188.715 80.9938C188.674 81.0746 188.637 81.1432 188.586 81.2193C187.703 81.4395 186.836 81.6582 185.964 81.8589C185.823 81.8915 185.799 81.9464 185.798 82.0715C185.794 82.4383 185.589 82.6845 185.284 82.8319C185.169 82.8875 185.148 82.9474 185.162 83.0429C185.208 83.3516 185.267 83.6585 185.311 83.9675C185.358 84.2967 185.393 84.6276 185.42 84.9611C185.353 84.9758 185.3 84.9871 185.243 84.9819C185.227 84.9346 185.208 84.9049 185.204 84.873C185.121 84.2795 185.042 83.6855 184.957 83.0925C184.948 83.0292 184.899 82.9717 184.869 82.9115C184.852 82.9186 184.835 82.9257 184.819 82.9328C184.784 83.2013 184.748 83.4699 184.698 83.7384C184.63 83.7384 184.579 83.7384 184.527 83.7384C184.548 83.5022 184.566 83.2656 184.592 83.0299C184.602 82.9324 184.589 82.8879 184.493 82.818C184.314 82.6867 184.176 82.4962 184.011 82.3435C184 82.1255 184 81.8943 184 81.6441Z" fill="#3A5BFF"/>
<path d="M204 81.403C203.957 81.445 203.907 81.4605 203.872 81.4927C203.643 81.7049 203.377 81.644 203.215 81.4938C203.026 81.32 203.035 81.0083 203.223 80.8094C203.392 80.6299 203.679 80.6387 203.876 80.8286C203.91 80.861 203.946 80.8904 203.991 80.9073C204 81.0571 204 81.2206 204 81.403Z" fill="#3A5BFF"/>
<path d="M188.16 91.7383C187.394 91.1614 186.733 90.4802 186.187 89.6848C186.138 89.6133 186.088 89.565 185.984 89.5951C185.632 89.6971 185.367 89.5646 185.21 89.1945C185.575 88.96 185.93 88.7464 186.297 88.5387C186.36 88.6784 186.465 88.6802 186.575 88.6501C187.336 88.4409 188.095 88.2242 188.857 88.0217C188.999 87.9839 189.1 87.9592 189.088 87.7749C189.083 87.697 189.151 87.6165 189.169 87.5334C189.186 87.4534 189.208 87.3586 189.182 87.2878C189.125 87.1341 189.039 86.9916 188.981 86.8355C189.044 86.7882 189.092 86.7499 189.147 86.7237C189.256 86.9209 189.355 87.1061 189.453 87.2888C189.562 87.2708 189.68 87.2132 189.761 87.2463C189.908 87.3057 189.931 87.2212 189.97 87.1278C190.138 86.729 190.307 86.3303 190.491 85.9299C190.579 85.9168 190.652 85.9055 190.722 85.9091C190.558 86.3237 190.423 86.7371 190.226 87.1177C190.109 87.3432 190.166 87.4637 190.339 87.6066C191.522 86.9186 192.711 86.2276 193.899 85.5367C193.896 85.5137 193.894 85.4908 193.891 85.4679C193.42 85.2452 192.949 85.0226 192.484 84.788C192.527 84.7267 192.564 84.6773 192.616 84.6303C193.079 84.8344 193.526 85.036 193.973 85.2372C194.208 85.0342 194.398 85.0191 194.664 85.1782C195.145 84.8441 195.625 84.5111 196.093 84.1863C196.079 84.059 196.066 83.9464 196.053 83.8215C195.682 83.623 195.3 83.419 194.929 83.2042C194.979 83.1468 195.018 83.1001 195.073 83.053C195.311 83.1658 195.541 83.2689 195.756 83.3954C195.974 83.5235 196.176 83.7058 196.443 83.4349C196.508 82.7873 196.578 82.1046 196.659 81.4179C196.739 81.3896 196.806 81.365 196.876 81.3576C196.866 81.4868 196.854 81.599 196.84 81.711C196.816 81.9093 196.786 82.1069 196.767 82.3057C196.735 82.6587 196.7 83.0119 196.684 83.3659C196.674 83.564 196.91 83.6844 197.071 83.5781C197.697 83.1663 198.325 82.7564 198.947 82.3384C198.997 82.3049 199.026 82.2173 199.037 82.1502C199.06 82.0063 199.04 81.8509 199.085 81.7163C199.122 81.605 199.105 81.5483 199.032 81.4714C198.737 81.1617 198.449 80.846 198.167 80.5222C198.225 80.4758 198.275 80.4398 198.324 80.4038C198.615 80.7078 198.907 81.0097 199.194 81.3173C199.265 81.3936 199.326 81.4177 199.43 81.3832C199.736 81.2813 200.011 81.3574 200.174 81.5732C200.368 81.8312 200.383 82.1262 200.191 82.4066C200.136 82.4879 200.033 82.5459 199.94 82.5875C199.834 82.6346 199.778 82.6929 199.782 82.8299C199.699 82.8605 199.633 82.8727 199.564 82.8681C199.629 82.6128 199.412 82.6033 199.294 82.5332C199.232 82.4966 199.108 82.5021 199.047 82.5426C198.392 82.9737 197.746 83.4185 197.094 83.8523C196.966 83.9373 196.974 84.0113 197.064 84.1085C197.151 84.2015 197.238 84.2943 197.311 84.3916C197.237 84.4214 197.176 84.4466 197.104 84.466C197.04 84.3743 196.988 84.2884 196.936 84.2025C196.809 84.3279 196.747 84.3883 196.729 84.4599C196.533 85.2345 196.344 86.0108 196.139 86.7886C196.059 86.8028 195.993 86.8151 195.924 86.811C196.119 85.9998 196.317 85.2049 196.526 84.365C196.382 84.3857 196.245 84.3671 196.156 84.425C195.791 84.6616 195.448 84.9305 195.085 85.169C194.903 85.2884 194.742 85.3955 194.797 85.6519C194.803 85.6795 194.787 85.7201 194.768 85.7436C194.668 85.8667 194.729 85.9639 194.797 86.0766C195.019 86.4448 195.23 86.8194 195.433 87.1975C195.363 87.227 195.305 87.2506 195.24 87.2614C194.985 86.836 194.737 86.4233 194.488 86.0107C194.468 86.0163 194.448 86.022 194.428 86.0277C194.363 87.229 194.298 88.4303 194.22 89.6354C194.141 89.6638 194.074 89.6883 194.004 89.6946C194.014 89.5297 194.032 89.3834 194.039 89.2366C194.068 88.6184 194.093 88 194.121 87.3817C194.123 87.3351 194.133 87.2889 194.136 87.2422C194.161 86.8372 194.186 86.4321 194.21 86.027C194.194 86.0223 194.178 86.0175 194.162 86.0128C193.353 87.1732 192.543 88.3336 191.733 89.4952C191.958 89.7672 191.992 90.0505 191.794 90.3579C191.772 90.3936 191.8 90.4834 191.83 90.5302C191.921 90.6686 192.026 90.7979 192.114 90.9378C192.055 90.9828 192.006 91.0208 191.946 91.0525C191.832 90.9157 191.736 90.78 191.625 90.6577C191.59 90.6191 191.514 90.5938 191.462 90.6014C191.135 90.6498 190.725 90.5782 190.631 90.0984C190.604 89.9614 190.505 89.9356 190.391 89.9152C189.772 89.8052 189.154 89.6946 188.537 89.5783C187.933 89.4645 187.331 89.3426 186.727 89.2271C186.624 89.2072 186.518 89.2011 186.413 89.1886C186.396 89.2133 186.38 89.2379 186.364 89.2625C186.4 89.2766 186.44 89.2863 186.474 89.3054C186.933 89.5631 187.391 89.821 187.848 90.0811C188.368 90.3764 188.886 90.6741 189.392 90.9793C189.324 91.0328 189.268 91.0776 189.201 91.1139C189.075 91.0421 188.96 90.9801 188.846 90.9152C188.291 90.5996 187.738 90.2815 187.183 89.9678C186.931 89.8256 186.675 89.6915 186.42 89.5537C186.943 90.347 187.599 90.999 188.314 91.588C188.255 91.6427 188.208 91.6905 188.16 91.7383ZM193.44 86.6442C193.625 86.3707 193.81 86.0973 193.995 85.8238C193.978 85.8115 193.961 85.7993 193.944 85.787C193.909 85.8026 193.873 85.8151 193.84 85.8344C193.42 86.0809 193.002 86.3312 192.581 86.575C191.886 86.977 191.188 87.3733 190.495 87.7781C190.436 87.8121 190.371 87.8895 190.366 87.9518C190.34 88.255 190.188 88.444 189.909 88.5394C189.621 88.6382 189.389 88.5418 189.209 88.3141C189.13 88.2144 189.066 88.1977 188.945 88.2334C188.48 88.37 188.011 88.4897 187.544 88.6164C187.187 88.7133 186.829 88.8111 186.444 88.9164C186.508 88.9471 186.541 88.9724 186.578 88.979C187.197 89.0905 187.816 89.1951 188.434 89.3108C189.116 89.4384 189.795 89.5788 190.477 89.704C190.543 89.7162 190.654 89.6841 190.69 89.6331C190.888 89.3553 191.11 89.2607 191.438 89.3195C191.497 89.3301 191.593 89.2911 191.629 89.2424C191.814 88.9923 191.982 88.7302 192.159 88.4748C192.579 87.8711 193 87.2688 193.44 86.6442Z" fill="#3A5BFF"/>
<path d="M194.007 89.7128C194.074 89.6883 194.141 89.6638 194.223 89.6527C194.226 89.7374 194.205 89.8085 194.202 89.8803C194.185 90.2559 194.179 90.6321 194.158 91.0074C194.14 91.3204 194.099 91.6321 194.085 91.9452C194.08 92.0597 194.008 92.2243 194.214 92.2699C194.359 91.8489 194.503 91.4312 194.661 91.0115C194.741 90.9973 194.807 90.985 194.87 90.9878C194.726 91.4487 194.585 91.8945 194.445 92.3361C194.721 92.5368 194.723 92.5385 194.94 92.3119C195.018 92.2308 195.082 92.1359 195.158 92.0531C195.574 91.6008 195.992 91.1509 196.409 90.6991C196.59 90.5029 196.768 90.3043 196.948 90.1067C197.35 89.6633 197.753 89.2199 198.17 88.7747C198.321 88.7204 198.457 88.668 198.591 88.6288C198.424 88.8255 198.259 89.0091 198.093 89.192C197.612 89.7209 197.134 90.2511 196.651 90.7778C196.226 91.2411 195.796 91.6991 195.371 92.162C195.205 92.3431 195.046 92.5312 194.832 92.7745C194.952 92.785 195.037 92.8201 195.094 92.7934C195.715 92.5048 196.33 92.2039 196.949 91.9115C197.335 91.729 197.727 91.5584 198.113 91.3767C198.643 91.1278 199.17 90.8734 199.707 90.6171C199.688 90.5498 199.671 90.4944 199.656 90.4387C199.553 90.0584 199.718 89.6126 200.054 89.4309C200.178 89.3637 200.186 89.2875 200.156 89.1794C200.027 88.7201 199.897 88.2615 199.779 87.798C199.849 87.7689 199.907 87.7444 199.977 87.7286C200.113 88.1984 200.235 88.6602 200.364 89.1198C200.379 89.174 200.427 89.2473 200.473 89.2591C200.653 89.3054 200.839 89.3307 201.027 89.3645C201.491 88.6984 201.839 87.9623 202.101 87.1847C202.221 86.828 202.306 86.4591 202.423 86.0958C202.495 86.0963 202.55 86.0968 202.605 86.0973C202.485 86.5519 202.386 87.0138 202.239 87.4595C202.003 88.1767 201.657 88.8424 201.241 89.4699C201.223 89.4967 201.213 89.529 201.201 89.5565C201.562 89.9283 201.515 90.4899 201.251 90.8136C201.033 91.0813 200.567 91.2945 200.009 90.9782C198.638 92.298 197.022 93.1513 195.143 93.4636C194.996 94.302 194.518 94.7994 193.869 94.7461C193.264 94.6965 192.735 94.3362 192.665 93.5762C192.182 93.4689 191.705 93.3629 191.22 93.2359C191.259 93.1659 191.306 93.1169 191.367 93.075C191.804 93.1609 192.227 93.2397 192.653 93.3192C192.681 93.2191 192.699 93.1587 192.715 93.0987C192.496 92.9698 192.287 92.8474 192.084 92.7131C192.127 92.6519 192.164 92.6025 192.216 92.5556C192.417 92.6612 192.604 92.7644 192.794 92.8695C192.877 92.7662 192.955 92.668 193.052 92.5471C192.883 92.3225 192.706 92.0933 192.534 91.86C192.34 91.5949 192.15 91.326 191.958 91.0587C192.006 91.0208 192.055 90.9828 192.125 90.9449C192.476 91.385 192.811 91.8202 193.128 92.2683C193.229 92.4105 193.306 92.3956 193.432 92.3209C193.514 92.2724 193.616 92.242 193.711 92.238C193.849 92.2322 193.874 92.1551 193.88 92.0437C193.892 91.8094 193.907 91.5752 193.92 91.3409C193.949 90.7982 193.978 90.2555 194.007 89.7128ZM199.608 90.9327C199.077 91.1796 198.547 91.4264 198.016 91.6735C197.545 91.8929 197.073 92.1108 196.603 92.3326C196.127 92.5574 195.651 92.7832 195.18 93.0176C195.128 93.0433 195.104 93.1286 195.068 93.1863C195.084 93.2033 195.101 93.2204 195.117 93.2374C195.332 93.1933 195.55 93.157 195.763 93.1037C196.609 92.8927 197.408 92.5624 198.157 92.1108C198.701 91.7829 199.215 91.4139 199.683 90.9457C199.688 90.9309 199.692 90.9161 199.696 90.9013C199.677 90.9105 199.657 90.9196 199.608 90.9327Z" fill="#3A5BFF"/>
<path d="M202.618 86.0874C202.55 86.0968 202.495 86.0963 202.421 86.0788C202.439 85.8324 202.482 85.6037 202.512 85.3734C202.529 85.2471 202.556 85.1082 202.521 84.9934C202.497 84.9143 202.373 84.8669 202.293 84.805C202.094 84.9911 201.907 85.1715 201.714 85.3462C201.256 85.7615 200.794 86.172 200.339 86.5911C200.298 86.6287 200.27 86.7233 200.286 86.7755C200.388 87.1064 200.296 87.3658 200.04 87.5817C200.003 87.613 199.989 87.6731 199.965 87.7198C199.907 87.7444 199.849 87.7689 199.776 87.7818C199.686 87.6506 199.506 87.6314 199.402 87.741C199.13 88.0302 198.863 88.3237 198.593 88.6155C198.457 88.668 198.321 88.7204 198.176 88.7624C198.534 88.3472 198.9 87.9426 199.246 87.561C199.172 87.4465 199.106 87.3443 199.039 87.2405C198.156 87.3879 197.268 87.5362 196.378 87.6847C196.492 88.2241 196.189 88.579 195.655 88.5912C195.395 89.3841 195.134 90.1784 194.873 90.9728C194.807 90.985 194.741 90.9973 194.658 90.9956C194.646 90.9556 194.646 90.9282 194.654 90.9036C194.901 90.1566 195.151 89.4107 195.392 88.6618C195.413 88.5968 195.402 88.4769 195.359 88.4417C195.037 88.1792 195.036 87.7155 195.315 87.3922C195.292 87.3529 195.27 87.3136 195.247 87.2743C195.305 87.2506 195.363 87.227 195.445 87.2059C195.614 87.3243 195.795 87.2736 195.841 87.1067C195.866 87.0127 195.898 86.9204 195.927 86.8273C195.993 86.8151 196.059 86.8028 196.136 86.8038C196.125 86.8928 196.101 86.9677 196.082 87.0443C196.009 87.3499 196.126 87.4805 196.436 87.4367C196.598 87.4139 196.758 87.3824 196.919 87.3564C197.622 87.2431 198.325 87.1304 199.041 87.0153C198.985 86.8276 199.237 86.6339 199.006 86.4556C199.065 86.4094 199.114 86.3735 199.177 86.3436C199.308 86.5398 199.429 86.381 199.567 86.3578C199.567 86.2396 199.567 86.127 199.581 86.0124C199.661 85.9982 199.727 85.986 199.793 85.9738C199.795 85.9872 199.8 86.0011 199.798 86.014C199.763 86.2565 199.806 86.4508 200.099 86.4863C200.403 86.2096 200.716 85.921 201.033 85.6362C201.339 85.3609 201.651 85.0911 201.957 84.8156C202.084 84.7007 202.197 84.5805 202.241 84.3965C202.303 84.1423 202.497 84.0053 202.712 84.0233C202.924 84.0411 203.121 84.2398 203.157 84.4716C203.186 84.6601 203.018 84.8831 202.776 84.9834C202.727 85.3503 202.679 85.7139 202.618 86.0874Z" fill="#3A5BFF"/>
<path d="M188.633 78.1298C188.525 78.1558 188.416 78.1819 188.297 78.1963C188.833 77.5589 189.379 76.9331 189.926 76.3059C189.881 76.2422 189.844 76.1899 189.802 76.1318C189.755 76.1498 189.708 76.1585 189.671 76.1826C189.132 76.5342 188.562 76.8478 188.064 77.2525C187.589 77.6386 187.163 78.0967 186.765 78.5669C186.421 78.9723 186.149 79.4393 185.845 79.8791C185.772 79.8911 185.7 79.9031 185.611 79.9157C185.848 79.5063 186.078 79.0792 186.36 78.6911C186.625 78.3262 186.929 77.9859 187.245 77.6644C187.88 77.0188 188.598 76.4818 189.405 76.0767C189.613 75.9724 189.742 75.8652 189.732 75.5848C189.721 75.2636 189.904 75.0092 190.199 74.8578C190.514 74.6963 190.82 74.7212 191.119 74.8993C191.513 75.1344 191.615 75.6309 191.48 76.0307C191.461 76.0879 191.48 76.1974 191.521 76.2303C191.804 76.4555 192.098 76.6667 192.387 76.9047C192.336 76.9773 192.287 77.0276 192.226 77.0718C191.903 76.8229 191.593 76.5802 191.324 76.3701C191.124 76.4528 190.957 76.5154 190.796 76.593C190.747 76.6163 190.693 76.6771 190.685 76.7278C190.659 76.8923 190.648 77.0597 190.641 77.2265C190.622 77.6494 190.609 78.0725 190.579 78.4975C190.499 78.5117 190.433 78.524 190.364 78.5181C190.396 77.868 190.431 77.2361 190.466 76.5998C190.418 76.5898 190.364 76.5941 190.331 76.5692C190.128 76.415 190.002 76.4981 189.904 76.6974C189.89 76.7262 189.859 76.7463 189.837 76.7713C189.436 77.2241 189.035 77.6769 188.633 78.1298Z" fill="#3A5BFF"/>
<path d="M196.873 81.3405C196.806 81.365 196.739 81.3896 196.657 81.4004C196.656 81.2071 196.668 81.0273 196.685 80.8478C196.722 80.4496 196.768 80.0521 196.797 79.6533C196.809 79.4854 196.7 79.4233 196.558 79.5145C196.117 79.7994 195.679 80.0896 195.244 80.3858C195.199 80.4169 195.159 80.5061 195.167 80.5605C195.244 81.072 194.881 81.4468 194.358 81.3249C194.191 81.286 194.105 81.3264 193.99 81.4257C193.862 81.4659 193.749 81.504 193.641 81.5295C193.762 81.3799 193.876 81.2429 193.992 81.1041C193.877 80.8123 193.877 80.8131 193.572 80.812C193.181 80.8107 192.791 80.8077 192.406 80.7944C192.462 80.7139 192.511 80.6445 192.579 80.5725C193.034 80.5698 193.471 80.5698 193.85 80.5698C193.964 80.3942 194.051 80.26 194.139 80.1243C194.061 79.9621 193.982 79.7948 193.913 79.6158C193.977 79.5728 194.031 79.5414 194.085 79.51C194.11 79.562 194.138 79.6132 194.161 79.6663C194.253 79.8764 194.312 80.1199 194.633 80.0453C194.694 80.0312 194.791 80.0595 194.833 80.1049C194.985 80.2665 195.105 80.194 195.251 80.0937C195.629 79.8323 196.019 79.5882 196.397 79.3258C196.458 79.2834 196.51 79.1845 196.515 79.1082C196.536 78.8075 196.734 78.5875 197.001 78.6212C197.274 78.6556 197.481 78.809 197.43 79.1505C197.396 79.3746 197.494 79.4984 197.618 79.63C197.803 79.8249 197.995 80.0119 198.181 80.2054C198.231 80.2573 198.269 80.3206 198.318 80.3912C198.275 80.4398 198.225 80.4758 198.154 80.516C197.823 80.1848 197.513 79.8493 197.204 79.5155C197.144 79.5385 197.092 79.5584 197.041 79.5779C196.984 80.1743 196.929 80.7574 196.873 81.3405Z" fill="#3A5BFF"/>
<path d="M186.285 88.5328C185.93 88.7464 185.575 88.96 185.208 89.1801C185.094 88.8717 185.185 88.6135 185.385 88.4397C185.171 87.7873 184.967 87.1609 184.778 86.5165C184.847 86.4862 184.9 86.4739 184.96 86.4754C185.126 86.9523 185.279 87.4173 185.445 87.8776C185.502 88.0369 185.591 88.1845 185.665 88.3375C185.681 88.3293 185.698 88.3211 185.714 88.3129C185.662 87.9456 185.614 87.5779 185.559 87.2111C185.498 86.8033 185.428 86.397 185.369 85.9888C185.322 85.6596 185.287 85.3286 185.247 84.9983C185.3 84.9871 185.353 84.9759 185.424 84.9775C185.467 85.1267 185.498 85.2623 185.519 85.3995C185.584 85.8268 185.646 86.2546 185.708 86.6824C185.78 87.1763 185.847 87.6709 185.923 88.164C185.934 88.236 185.988 88.3013 186.022 88.3696C186.039 88.3619 186.055 88.3541 186.072 88.3463C186.41 87.2303 186.748 86.1144 187.101 84.9975C187.181 84.9836 187.247 84.9707 187.315 84.9735C187.291 85.0848 187.267 85.1809 187.238 85.2756C186.976 86.1373 186.711 86.998 186.453 87.8608C186.387 88.0816 186.34 88.3086 186.285 88.5328Z" fill="#3A5BFF"/>
<path d="M194.082 79.4952C194.031 79.5414 193.977 79.5728 193.904 79.6037C193.643 79.0996 193.402 78.5956 193.16 78.0926C193.098 77.9629 192.819 77.9155 192.726 78.0246C192.558 78.221 192.404 78.4292 192.237 78.6261C191.949 78.965 191.656 79.2991 191.35 79.6373C191.222 79.6776 191.109 79.7158 191.001 79.7415C191.044 79.6907 191.084 79.6545 191.118 79.6135C191.555 79.09 191.99 78.5652 192.427 78.0425C192.539 77.9089 192.637 77.7779 192.556 77.5865C192.539 77.5457 192.565 77.4879 192.554 77.4417C192.541 77.381 192.525 77.3096 192.485 77.2685C192.413 77.1949 192.322 77.1404 192.238 77.0779C192.287 77.0276 192.336 76.9773 192.394 76.9166C192.445 76.9357 192.497 76.9574 192.53 76.996C192.639 77.1241 192.736 77.1291 192.895 77.0541C193.078 76.9682 193.249 77.0763 193.377 77.2321C193.514 77.3984 193.517 77.5829 193.399 77.7445C193.298 77.8822 193.346 77.9864 193.405 78.1058C193.63 78.5639 193.855 79.0222 194.082 79.4952Z" fill="#3A5BFF"/>
<path d="M191.354 93.0678C191.306 93.1169 191.259 93.1659 191.206 93.2285C190.859 93.1319 190.507 93.0461 190.178 92.9069C189.467 92.607 188.793 92.2369 188.172 91.7448C188.208 91.6905 188.255 91.6427 188.326 91.5938C189.261 92.2728 190.267 92.7568 191.354 93.0678Z" fill="#3A5BFF"/>
<path d="M199.796 85.9549C199.727 85.986 199.661 85.9982 199.578 85.9936C199.563 84.9461 199.565 83.9155 199.567 82.885C199.633 82.8727 199.699 82.8605 199.779 82.8463C199.795 83.8749 199.797 84.9054 199.796 85.9549Z" fill="#3A5BFF"/>
<path d="M196.021 77.9171C195.725 78.0334 195.491 77.9804 195.366 77.7798C195.221 77.5457 195.261 77.3056 195.473 77.1428C195.668 76.9927 195.923 77.0139 196.095 77.1891C196.242 77.3386 196.272 77.6504 196.106 77.839C196.083 77.864 196.058 77.8864 196.021 77.9171Z" fill="#3A5BFF"/>
<path d="M184.953 86.4615C184.9 86.4739 184.847 86.4862 184.78 86.5003C184.698 86.1794 184.607 85.8595 184.567 85.5331C184.516 85.1221 184.5 84.706 184.483 84.2915C184.477 84.1195 184.508 83.946 184.524 83.7558C184.579 83.7384 184.63 83.7384 184.7 83.7573C184.719 83.8707 184.716 83.9653 184.721 84.0596C184.746 84.5338 184.761 85.0091 184.803 85.4817C184.833 85.8102 184.902 86.1351 184.953 86.4615Z" fill="#3A5BFF"/>
<path d="M198.76 77.0729C198.524 77.0231 198.456 76.9302 198.48 76.7095C198.499 76.5426 198.606 76.4538 198.78 76.464C198.944 76.4736 199.03 76.5623 199.04 76.7296C199.053 76.9474 198.996 77.0231 198.76 77.0729Z" fill="#3A5BFF"/>
<path d="M200.265 78.4161C200.573 78.4938 200.561 78.8734 200.389 78.9601C200.298 79.0059 200.138 79.0227 200.069 78.9707C199.988 78.9093 199.924 78.7531 199.937 78.6494C199.956 78.5024 200.067 78.3867 200.265 78.4161Z" fill="#3A5BFF"/>
<path d="M195.634 75.652C195.477 75.7239 195.321 75.7202 195.257 75.5807C195.207 75.472 195.205 75.2939 195.262 75.1938C195.327 75.079 195.482 75.0491 195.629 75.122C195.796 75.2052 195.81 75.4567 195.634 75.652Z" fill="#3A5BFF"/>
<path d="M188.715 80.9938C188.952 80.9193 189.184 80.8569 189.429 80.7912C189.431 80.4974 189.502 80.212 189.737 80.0118C189.852 79.9136 190.014 79.8754 190.144 79.7922C190.215 79.7472 190.306 79.6686 190.312 79.5982C190.343 79.2578 190.348 78.9151 190.364 78.5547C190.433 78.524 190.499 78.5117 190.582 78.5148C190.569 78.9476 190.541 79.3652 190.513 79.7623C190.651 79.8152 190.759 79.8568 190.868 79.8988C190.911 79.8503 190.953 79.8021 190.995 79.7539C191.109 79.7158 191.222 79.6776 191.348 79.6514C191.259 79.7939 191.157 79.9243 191.063 80.0461C191.123 80.1755 191.206 80.295 191.232 80.4261C191.257 80.5578 191.321 80.5693 191.423 80.5692C191.802 80.5692 192.181 80.5728 192.56 80.5751C192.511 80.6445 192.462 80.7139 192.388 80.797C192.056 80.8113 191.75 80.8056 191.444 80.8169C191.375 80.8195 191.309 80.8812 191.241 80.9157C191.285 80.9773 191.316 81.063 191.375 81.0967C191.74 81.3048 192.112 81.5013 192.473 81.7139C192.418 81.7665 192.372 81.8067 192.314 81.84C191.912 81.6355 191.52 81.438 191.178 81.2651C190.947 81.3919 190.753 81.5589 190.537 81.6C190.316 81.642 190.072 81.5604 189.788 81.5269C189.563 81.7815 189.295 82.086 189.026 82.391C188.758 82.696 188.49 83.0017 188.222 83.3074C188.279 83.4198 188.376 83.5324 188.389 83.6542C188.416 83.9047 188.542 83.9709 188.761 83.9428C188.8 83.9378 188.84 83.9462 188.875 83.9607C188.819 84.0309 188.767 84.0888 188.698 84.146C188.598 84.1453 188.515 84.1453 188.435 84.1453C188.392 84.2317 188.353 84.3102 188.299 84.3912C188.057 84.5524 187.829 84.711 187.584 84.8723C187.483 84.9025 187.398 84.9301 187.313 84.9577C187.247 84.9707 187.181 84.9836 187.101 84.9975C187.12 84.8662 187.129 84.7811 186.969 84.6855C186.608 84.4696 186.497 83.8979 186.694 83.5024C186.89 83.1108 187.356 82.9119 187.767 83.0466C187.857 83.0762 187.945 83.1121 188.056 83.153C188.466 82.6767 188.882 82.1928 189.299 81.7098C189.343 81.659 189.392 81.613 189.439 81.5652C189.675 81.3251 189.675 81.3251 189.487 81.0198C189.203 81.0854 188.918 81.1512 188.616 81.2144C188.637 81.1432 188.674 81.0746 188.715 80.9938Z" fill="#3A5BFF"/>
<path d="M193.99 81.4257C193.804 81.6596 193.604 81.8956 193.388 82.151C193.953 82.452 194.497 82.7421 195.049 83.0429C195.018 83.1001 194.979 83.1468 194.915 83.2018C194.333 82.9149 193.775 82.6198 193.213 82.3217C192.872 82.6999 192.537 83.0711 192.189 83.4567C192.419 83.7509 192.52 84.0862 192.487 84.465C192.482 84.5154 192.561 84.5734 192.602 84.6279C192.564 84.6773 192.527 84.7267 192.471 84.7865C192.419 84.8235 192.386 84.8499 192.339 84.8786C192.033 85.0528 191.739 85.2219 191.45 85.3989C191.385 85.4387 191.336 85.5059 191.264 85.5632C190.876 85.5225 190.876 85.5225 190.741 85.8829C190.739 85.8879 190.73 85.8904 190.725 85.8941C190.652 85.9055 190.579 85.9168 190.493 85.9149C190.545 85.7388 190.61 85.576 190.674 85.4154C190.32 85.1782 190.077 84.8844 190.045 84.4632C190.034 84.3083 189.97 84.2711 189.84 84.2656C189.63 84.2568 189.42 84.2453 189.211 84.2238C189.045 84.2067 188.881 84.173 188.715 84.1467C188.767 84.0888 188.819 84.0309 188.892 83.959C189.259 83.9845 189.604 84.0286 189.95 84.0565C189.99 84.0597 190.058 83.9797 190.077 83.9253C190.259 83.4161 190.615 83.0925 191.207 83.0487C191.504 83.0268 191.77 83.133 192.021 83.297C192.35 82.9307 192.671 82.574 192.989 82.2201C192.762 82.0925 192.544 81.9697 192.326 81.847C192.372 81.8067 192.418 81.7665 192.487 81.7163C192.728 81.814 192.945 81.9217 193.142 82.0198C193.312 81.855 193.474 81.6986 193.635 81.5422C193.749 81.504 193.862 81.4659 193.99 81.4257Z" fill="#3A5BFF"/>
<path d="M192.084 92.7131C191.447 92.3724 190.815 92.0203 190.184 91.6671C189.868 91.4904 189.553 91.3119 189.225 91.1283C189.268 91.0776 189.324 91.0328 189.392 90.9793C190.035 91.3222 190.665 91.6731 191.295 92.0253C191.593 92.192 191.89 92.3611 192.194 92.5412C192.164 92.6025 192.127 92.6519 192.084 92.7131Z" fill="#3A5BFF"/>
<path d="M188.299 84.3912C188.231 84.4991 188.066 84.628 188.085 84.7161C188.126 84.9083 188.261 85.0799 188.358 85.2598C188.613 85.736 188.869 86.2122 189.132 86.7C189.092 86.7499 189.044 86.7882 188.981 86.8355C188.723 86.4035 188.481 85.9626 188.239 85.5212C188.146 85.3522 188.038 85.1892 187.969 85.0107C187.896 84.8246 187.791 84.7994 187.616 84.8716C187.829 84.711 188.057 84.5524 188.299 84.3912Z" fill="#3A5BFF"/>
<path d="M199.006 86.4556C198.51 85.948 198.022 85.4296 197.533 84.9125C197.4 84.7717 197.263 84.635 197.121 84.4841C197.176 84.4466 197.237 84.4214 197.311 84.3916C197.855 84.9478 198.385 85.5086 198.915 86.0689C198.993 86.1514 199.073 86.2317 199.158 86.3254C199.114 86.3735 199.065 86.4094 199.006 86.4556Z" fill="#3A5BFF"/>
<path d="M199.644 90.9368C199.657 90.9196 199.677 90.9105 199.696 90.9013C199.692 90.9161 199.688 90.9309 199.675 90.9532C199.662 90.9553 199.657 90.95 199.644 90.9368Z" fill="#3A5BFF"/>
<path d="M192.339 84.8786C192.196 85.2506 191.892 85.4324 191.522 85.5256C191.453 85.543 191.382 85.5525 191.296 85.5631C191.336 85.5059 191.385 85.4387 191.45 85.3989C191.739 85.2219 192.033 85.0528 192.339 84.8786Z" fill="#3A5BFF"/>
<path d="M193.947 84.3577C193.872 84.0609 193.655 83.9377 193.363 83.8351C193.686 83.7102 193.924 83.5472 193.996 83.1986C194.086 83.5286 194.296 83.7242 194.627 83.8157C194.564 83.8542 194.543 83.8723 194.519 83.881C194.301 83.9594 194.133 84.0844 194.069 84.3276C194.048 84.4055 194.025 84.4037 193.947 84.3577Z" fill="#3A5BFF"/>
</g>
<path d="M234 110.75C290.82 141.476 291.844 219.47 234 250.75" stroke="#505050"/>
<g filter="url(#filter9_i_187_6433)">
<rect width="72" height="72" rx="36" transform="matrix(-1 0 0 1 356 224.75)" fill="#8B8B8B"/>
<rect x="-1" y="1" width="70" height="70" rx="35" transform="matrix(-1 0 0 1 354 224.75)" stroke="#525252" stroke-width="2"/>
<path d="M310 271.85C310 272.089 310.094 272.318 310.262 272.486C310.43 272.655 310.658 272.75 310.896 272.75H329.104C329.342 272.75 329.57 272.655 329.738 272.486C329.906 272.318 330 272.089 330 271.85C330 266.93 324.624 263.114 320 263.114C315.376 263.114 310 266.93 310 271.85ZM313.907 254.882C313.909 256.092 314.269 257.274 314.94 258.279C315.61 259.284 316.563 260.066 317.677 260.528C318.79 260.989 320.015 261.108 321.196 260.871C322.377 260.633 323.462 260.05 324.313 259.193C325.164 258.337 325.743 257.246 325.977 256.06C326.211 254.873 326.09 253.643 325.628 252.525C325.167 251.408 324.386 250.453 323.384 249.781C322.382 249.109 321.205 248.75 320 248.75C318.383 248.753 316.833 249.401 315.691 250.55C314.548 251.7 313.907 253.258 313.907 254.882Z" fill="#505050"/>
<g style="mix-blend-mode:overlay" filter="url(#filter10_f_187_6433)">
<rect width="64" height="64" rx="32" transform="matrix(-1 0 0 1 352 228.75)" fill="url(#paint5_linear_187_6433)"/>
</g>
</g>
<path d="M264.69 223.853C265.067 224.117 265.388 224.452 265.635 224.84C265.882 225.227 266.05 225.66 266.13 226.112C266.209 226.565 266.199 227.029 266.1 227.478C266 227.927 265.813 228.351 265.55 228.728C265.286 229.104 264.951 229.425 264.563 229.672C264.176 229.919 263.743 230.087 263.291 230.167C262.838 230.247 262.374 230.237 261.925 230.137C261.476 230.038 261.052 229.851 260.675 229.587C260.299 229.324 259.978 228.988 259.731 228.601C259.484 228.213 259.316 227.781 259.236 227.328C259.156 226.875 259.166 226.411 259.266 225.963C259.365 225.514 259.552 225.089 259.816 224.713C260.079 224.336 260.415 224.015 260.802 223.768C261.19 223.521 261.622 223.353 262.075 223.273C262.528 223.194 262.992 223.204 263.44 223.303C263.889 223.403 264.314 223.59 264.69 223.853Z" fill="white" stroke="#505050" stroke-linecap="round" stroke-linejoin="round"/>
<path d="M262.97 226.311C263.078 226.387 263.152 226.503 263.175 226.633C263.198 226.764 263.168 226.898 263.092 227.007C263.016 227.116 262.9 227.19 262.77 227.213C262.639 227.236 262.505 227.206 262.396 227.13C262.287 227.054 262.213 226.938 262.19 226.807C262.167 226.677 262.197 226.542 262.273 226.434C262.349 226.325 262.465 226.251 262.596 226.228C262.726 226.205 262.861 226.235 262.97 226.311Z" fill="white" stroke="#FF0000" stroke-linecap="round" stroke-linejoin="round"/>
<path d="M265.55 228.728L288.486 244.788" stroke="#505050"/>
<g filter="url(#filter11_i_187_6433)">
<rect width="72" height="72" rx="36" transform="matrix(-1 0 0 1 388 144.75)" fill="#8B8B8B"/>
<rect x="-1" y="1" width="70" height="70" rx="35" transform="matrix(-1 0 0 1 386 144.75)" stroke="#525252" stroke-width="2"/>
<path d="M342 191.85C342 192.089 342.094 192.318 342.262 192.486C342.43 192.655 342.658 192.75 342.896 192.75H361.104C361.342 192.75 361.57 192.655 361.738 192.486C361.906 192.318 362 192.089 362 191.85C362 186.93 356.624 183.114 352 183.114C347.376 183.114 342 186.93 342 191.85ZM345.907 174.882C345.909 176.092 346.269 177.274 346.94 178.279C347.61 179.284 348.563 180.066 349.677 180.528C350.79 180.989 352.015 181.108 353.196 180.871C354.377 180.633 355.462 180.05 356.313 179.193C357.164 178.337 357.743 177.246 357.977 176.06C358.211 174.873 358.09 173.643 357.628 172.525C357.167 171.408 356.386 170.453 355.384 169.781C354.382 169.109 353.205 168.75 352 168.75C350.383 168.753 348.833 169.401 347.691 170.55C346.548 171.7 345.907 173.258 345.907 174.882Z" fill="#505050"/>
<g style="mix-blend-mode:overlay" filter="url(#filter12_f_187_6433)">
<rect width="64" height="64" rx="32" transform="matrix(-1 0 0 1 384 148.75)" fill="url(#paint6_linear_187_6433)"/>
</g>
</g>
<path d="M276.5 177.25C276.96 177.25 277.415 177.341 277.839 177.516C278.264 177.692 278.65 177.95 278.975 178.275C279.3 178.6 279.558 178.986 279.734 179.411C279.909 179.835 280 180.29 280 180.75C280 181.21 279.909 181.665 279.734 182.089C279.558 182.514 279.3 182.9 278.975 183.225C278.65 183.55 278.264 183.808 277.839 183.984C277.415 184.159 276.96 184.25 276.5 184.25C276.04 184.25 275.585 184.159 275.161 183.984C274.736 183.808 274.35 183.55 274.025 183.225C273.7 182.9 273.442 182.514 273.266 182.089C273.091 181.665 273 181.21 273 180.75C273 180.29 273.091 179.835 273.266 179.411C273.442 178.986 273.7 178.6 274.025 178.275C274.35 177.95 274.736 177.692 275.161 177.516C275.585 177.341 276.04 177.25 276.5 177.25Z" fill="white" stroke="#505050" stroke-linecap="round" stroke-linejoin="round"/>
<path d="M276.5 180.25C276.633 180.25 276.76 180.303 276.854 180.396C276.947 180.49 277 180.617 277 180.75C277 180.883 276.947 181.01 276.854 181.104C276.76 181.197 276.633 181.25 276.5 181.25C276.367 181.25 276.24 181.197 276.146 181.104C276.053 181.01 276 180.883 276 180.75C276 180.617 276.053 180.49 276.146 180.396C276.24 180.303 276.367 180.25 276.5 180.25Z" fill="white" stroke="#FF0000" stroke-linecap="round" stroke-linejoin="round"/>
<path d="M280 180.75H316" stroke="#505050"/>
<g filter="url(#filter13_i_187_6433)">
<rect x="281" y="64.75" width="72" height="72" rx="36" fill="#8B8B8B"/>
<rect x="282" y="65.75" width="70" height="70" rx="35" stroke="#525252" stroke-width="2"/>
<g style="mix-blend-mode:overlay" filter="url(#filter14_f_187_6433)">
<rect x="285" y="68.75" width="64" height="64" rx="32" fill="url(#paint7_linear_187_6433)"/>
</g>
<path d="M327 111.85C327 112.089 326.906 112.318 326.738 112.486C326.57 112.655 326.342 112.75 326.104 112.75H307.896C307.658 112.75 307.43 112.655 307.262 112.486C307.094 112.318 307 112.089 307 111.85C307 106.93 312.376 103.114 317 103.114C321.624 103.114 327 106.93 327 111.85ZM323.093 94.882C323.091 96.0919 322.731 97.274 322.06 98.2788C321.39 99.2837 320.437 100.066 319.323 100.528C318.21 100.989 316.985 101.108 315.804 100.871C314.623 100.633 313.538 100.05 312.687 99.1933C311.836 98.3369 311.257 97.2464 311.023 96.0595C310.789 94.8727 310.91 93.6428 311.372 92.5252C311.833 91.4076 312.614 90.4525 313.616 89.7806C314.618 89.1086 315.795 88.75 317 88.75C318.617 88.7532 320.167 89.4006 321.309 90.5503C322.452 91.6999 323.093 93.2578 323.093 94.882Z" fill="#3A5BFF"/>
</g>
<path d="M256.798 125.653C257.23 125.496 257.689 125.425 258.148 125.445C258.607 125.465 259.058 125.576 259.474 125.77C259.891 125.964 260.265 126.239 260.576 126.577C260.886 126.916 261.127 127.313 261.284 127.745C261.441 128.177 261.512 128.635 261.492 129.095C261.472 129.554 261.362 130.005 261.167 130.421C260.973 130.838 260.699 131.212 260.36 131.522C260.021 131.833 259.624 132.074 259.192 132.231C258.76 132.388 258.302 132.459 257.843 132.439C257.383 132.419 256.933 132.308 256.516 132.114C256.1 131.92 255.725 131.645 255.415 131.307C255.104 130.968 254.864 130.571 254.706 130.139C254.549 129.707 254.479 129.248 254.499 128.789C254.519 128.33 254.629 127.879 254.823 127.463C255.017 127.046 255.292 126.672 255.631 126.361C255.97 126.051 256.366 125.81 256.798 125.653Z" fill="white" stroke="#505050" stroke-linecap="round" stroke-linejoin="round"/>
<path d="M257.824 128.472C257.949 128.427 258.086 128.433 258.207 128.489C258.327 128.545 258.42 128.646 258.465 128.771C258.51 128.896 258.504 129.033 258.448 129.153C258.392 129.273 258.291 129.366 258.166 129.412C258.042 129.457 257.904 129.451 257.784 129.395C257.664 129.339 257.571 129.238 257.525 129.113C257.48 128.988 257.486 128.851 257.542 128.731C257.598 128.61 257.7 128.517 257.824 128.472Z" fill="white" stroke="#FF0000" stroke-linecap="round" stroke-linejoin="round"/>
<path d="M261.284 127.745L287.596 118.169" stroke="#505050"/>
<defs>
<filter id="filter0_i_187_6433" x="32" y="224.75" width="73.25" height="73.25" filterUnits="userSpaceOnUse" color-interpolation-filters="sRGB">
<feFlood flood-opacity="0" result="BackgroundImageFix"/>
<feBlend mode="normal" in="SourceGraphic" in2="BackgroundImageFix" result="shape"/>
<feColorMatrix in="SourceAlpha" type="matrix" values="0 0 0 0 0 0 0 0 0 0 0 0 0 0 0 0 0 0 127 0" result="hardAlpha"/>
<feOffset dx="1.5" dy="3.5"/>
<feGaussianBlur stdDeviation="0.625"/>
<feComposite in2="hardAlpha" operator="arithmetic" k2="-1" k3="1"/>
<feColorMatrix type="matrix" values="0 0 0 0 1 0 0 0 0 1 0 0 0 0 1 0 0 0 1 0"/>
<feBlend mode="overlay" in2="shape" result="effect1_innerShadow_187_6433"/>
</filter>
<filter id="filter1_f_187_6433" x="32" y="224.75" width="72" height="72" filterUnits="userSpaceOnUse" color-interpolation-filters="sRGB">
<feFlood flood-opacity="0" result="BackgroundImageFix"/>
<feBlend mode="normal" in="SourceGraphic" in2="BackgroundImageFix" result="shape"/>
<feGaussianBlur stdDeviation="2" result="effect1_foregroundBlur_187_6433"/>
</filter>
<filter id="filter2_i_187_6433" x="0" y="144.75" width="73.25" height="73.25" filterUnits="userSpaceOnUse" color-interpolation-filters="sRGB">
<feFlood flood-opacity="0" result="BackgroundImageFix"/>
<feBlend mode="normal" in="SourceGraphic" in2="BackgroundImageFix" result="shape"/>
<feColorMatrix in="SourceAlpha" type="matrix" values="0 0 0 0 0 0 0 0 0 0 0 0 0 0 0 0 0 0 127 0" result="hardAlpha"/>
<feOffset dx="1.5" dy="3.5"/>
<feGaussianBlur stdDeviation="0.625"/>
<feComposite in2="hardAlpha" operator="arithmetic" k2="-1" k3="1"/>
<feColorMatrix type="matrix" values="0 0 0 0 1 0 0 0 0 1 0 0 0 0 1 0 0 0 1 0"/>
<feBlend mode="overlay" in2="shape" result="effect1_innerShadow_187_6433"/>
</filter>
<filter id="filter3_f_187_6433" x="0" y="144.75" width="72" height="72" filterUnits="userSpaceOnUse" color-interpolation-filters="sRGB">
<feFlood flood-opacity="0" result="BackgroundImageFix"/>
<feBlend mode="normal" in="SourceGraphic" in2="BackgroundImageFix" result="shape"/>
<feGaussianBlur stdDeviation="2" result="effect1_foregroundBlur_187_6433"/>
</filter>
<filter id="filter4_i_187_6433" x="35" y="64.75" width="73.25" height="73.25" filterUnits="userSpaceOnUse" color-interpolation-filters="sRGB">
<feFlood flood-opacity="0" result="BackgroundImageFix"/>
<feBlend mode="normal" in="SourceGraphic" in2="BackgroundImageFix" result="shape"/>
<feColorMatrix in="SourceAlpha" type="matrix" values="0 0 0 0 0 0 0 0 0 0 0 0 0 0 0 0 0 0 127 0" result="hardAlpha"/>
<feOffset dx="1.5" dy="3.5"/>
<feGaussianBlur stdDeviation="0.625"/>
<feComposite in2="hardAlpha" operator="arithmetic" k2="-1" k3="1"/>
<feColorMatrix type="matrix" values="0 0 0 0 1 0 0 0 0 1 0 0 0 0 1 0 0 0 1 0"/>
<feBlend mode="overlay" in2="shape" result="effect1_innerShadow_187_6433"/>
</filter>
<filter id="filter5_f_187_6433" x="35" y="64.75" width="72" height="72" filterUnits="userSpaceOnUse" color-interpolation-filters="sRGB">
<feFlood flood-opacity="0" result="BackgroundImageFix"/>
<feBlend mode="normal" in="SourceGraphic" in2="BackgroundImageFix" result="shape"/>
<feGaussianBlur stdDeviation="2" result="effect1_foregroundBlur_187_6433"/>
</filter>
<filter id="filter6_f_187_6433" x="149" y="135.75" width="90" height="90" filterUnits="userSpaceOnUse" color-interpolation-filters="sRGB">
<feFlood flood-opacity="0" result="BackgroundImageFix"/>
<feBlend mode="normal" in="SourceGraphic" in2="BackgroundImageFix" result="shape"/>
<feGaussianBlur stdDeviation="2" result="effect1_foregroundBlur_187_6433"/>
</filter>
<filter id="filter7_i_187_6433" x="154" y="4.75" width="81.25" height="95.25" filterUnits="userSpaceOnUse" color-interpolation-filters="sRGB">
<feFlood flood-opacity="0" result="BackgroundImageFix"/>
<feBlend mode="normal" in="SourceGraphic" in2="BackgroundImageFix" result="shape"/>
<feColorMatrix in="SourceAlpha" type="matrix" values="0 0 0 0 0 0 0 0 0 0 0 0 0 0 0 0 0 0 127 0" result="hardAlpha"/>
<feOffset dx="3.5" dy="5.5"/>
<feGaussianBlur stdDeviation="0.625"/>
<feComposite in2="hardAlpha" operator="arithmetic" k2="-1" k3="1"/>
<feColorMatrix type="matrix" values="0 0 0 0 1 0 0 0 0 1 0 0 0 0 1 0 0 0 1 0"/>
<feBlend mode="overlay" in2="shape" result="effect1_innerShadow_187_6433"/>
</filter>
<filter id="filter8_f_187_6433" x="154" y="4.75" width="80" height="80" filterUnits="userSpaceOnUse" color-interpolation-filters="sRGB">
<feFlood flood-opacity="0" result="BackgroundImageFix"/>
<feBlend mode="normal" in="SourceGraphic" in2="BackgroundImageFix" result="shape"/>
<feGaussianBlur stdDeviation="2" result="effect1_foregroundBlur_187_6433"/>
</filter>
<filter id="filter9_i_187_6433" x="284" y="224.75" width="73.25" height="73.25" filterUnits="userSpaceOnUse" color-interpolation-filters="sRGB">
<feFlood flood-opacity="0" result="BackgroundImageFix"/>
<feBlend mode="normal" in="SourceGraphic" in2="BackgroundImageFix" result="shape"/>
<feColorMatrix in="SourceAlpha" type="matrix" values="0 0 0 0 0 0 0 0 0 0 0 0 0 0 0 0 0 0 127 0" result="hardAlpha"/>
<feOffset dx="1.5" dy="3.5"/>
<feGaussianBlur stdDeviation="0.625"/>
<feComposite in2="hardAlpha" operator="arithmetic" k2="-1" k3="1"/>
<feColorMatrix type="matrix" values="0 0 0 0 1 0 0 0 0 1 0 0 0 0 1 0 0 0 1 0"/>
<feBlend mode="overlay" in2="shape" result="effect1_innerShadow_187_6433"/>
</filter>
<filter id="filter10_f_187_6433" x="284" y="224.75" width="72" height="72" filterUnits="userSpaceOnUse" color-interpolation-filters="sRGB">
<feFlood flood-opacity="0" result="BackgroundImageFix"/>
<feBlend mode="normal" in="SourceGraphic" in2="BackgroundImageFix" result="shape"/>
<feGaussianBlur stdDeviation="2" result="effect1_foregroundBlur_187_6433"/>
</filter>
<filter id="filter11_i_187_6433" x="316" y="144.75" width="73.25" height="73.25" filterUnits="userSpaceOnUse" color-interpolation-filters="sRGB">
<feFlood flood-opacity="0" result="BackgroundImageFix"/>
<feBlend mode="normal" in="SourceGraphic" in2="BackgroundImageFix" result="shape"/>
<feColorMatrix in="SourceAlpha" type="matrix" values="0 0 0 0 0 0 0 0 0 0 0 0 0 0 0 0 0 0 127 0" result="hardAlpha"/>
<feOffset dx="1.5" dy="3.5"/>
<feGaussianBlur stdDeviation="0.625"/>
<feComposite in2="hardAlpha" operator="arithmetic" k2="-1" k3="1"/>
<feColorMatrix type="matrix" values="0 0 0 0 1 0 0 0 0 1 0 0 0 0 1 0 0 0 1 0"/>
<feBlend mode="overlay" in2="shape" result="effect1_innerShadow_187_6433"/>
</filter>
<filter id="filter12_f_187_6433" x="316" y="144.75" width="72" height="72" filterUnits="userSpaceOnUse" color-interpolation-filters="sRGB">
<feFlood flood-opacity="0" result="BackgroundImageFix"/>
<feBlend mode="normal" in="SourceGraphic" in2="BackgroundImageFix" result="shape"/>
<feGaussianBlur stdDeviation="2" result="effect1_foregroundBlur_187_6433"/>
</filter>
<filter id="filter13_i_187_6433" x="281" y="64.75" width="73.25" height="73.25" filterUnits="userSpaceOnUse" color-interpolation-filters="sRGB">
<feFlood flood-opacity="0" result="BackgroundImageFix"/>
<feBlend mode="normal" in="SourceGraphic" in2="BackgroundImageFix" result="shape"/>
<feColorMatrix in="SourceAlpha" type="matrix" values="0 0 0 0 0 0 0 0 0 0 0 0 0 0 0 0 0 0 127 0" result="hardAlpha"/>
<feOffset dx="1.5" dy="3.5"/>
<feGaussianBlur stdDeviation="0.625"/>
<feComposite in2="hardAlpha" operator="arithmetic" k2="-1" k3="1"/>
<feColorMatrix type="matrix" values="0 0 0 0 1 0 0 0 0 1 0 0 0 0 1 0 0 0 1 0"/>
<feBlend mode="overlay" in2="shape" result="effect1_innerShadow_187_6433"/>
</filter>
<filter id="filter14_f_187_6433" x="281" y="64.75" width="72" height="72" filterUnits="userSpaceOnUse" color-interpolation-filters="sRGB">
<feFlood flood-opacity="0" result="BackgroundImageFix"/>
<feBlend mode="normal" in="SourceGraphic" in2="BackgroundImageFix" result="shape"/>
<feGaussianBlur stdDeviation="2" result="effect1_foregroundBlur_187_6433"/>
</filter>
<linearGradient id="paint0_linear_187_6433" x1="51.5" y1="234.25" x2="62" y2="252.75" gradientUnits="userSpaceOnUse">
<stop stop-color="white" stop-opacity="0.5"/>
<stop offset="1" stop-color="white"/>
</linearGradient>
<linearGradient id="paint1_linear_187_6433" x1="19.5" y1="154.25" x2="30" y2="172.75" gradientUnits="userSpaceOnUse">
<stop stop-color="white" stop-opacity="0.5"/>
<stop offset="1" stop-color="white"/>
</linearGradient>
<linearGradient id="paint2_linear_187_6433" x1="54.5" y1="74.25" x2="65" y2="92.75" gradientUnits="userSpaceOnUse">
<stop stop-color="white" stop-opacity="0.5"/>
<stop offset="1" stop-color="white"/>
</linearGradient>
<linearGradient id="paint3_linear_187_6433" x1="19.8594" y1="7.04688" x2="33.3125" y2="30.75" gradientUnits="userSpaceOnUse">
<stop stop-color="white" stop-opacity="0.5"/>
<stop offset="1" stop-color="white"/>
</linearGradient>
<linearGradient id="paint4_linear_187_6433" x1="175.438" y1="14.9375" x2="187.25" y2="35.75" gradientUnits="userSpaceOnUse">
<stop stop-color="white" stop-opacity="0.5"/>
<stop offset="1" stop-color="white"/>
</linearGradient>
<linearGradient id="paint5_linear_187_6433" x1="15.5" y1="5.5" x2="26" y2="24" gradientUnits="userSpaceOnUse">
<stop stop-color="white" stop-opacity="0.5"/>
<stop offset="1" stop-color="white"/>
</linearGradient>
<linearGradient id="paint6_linear_187_6433" x1="15.5" y1="5.5" x2="26" y2="24" gradientUnits="userSpaceOnUse">
<stop stop-color="white" stop-opacity="0.5"/>
<stop offset="1" stop-color="white"/>
</linearGradient>
<linearGradient id="paint7_linear_187_6433" x1="300.5" y1="74.25" x2="311" y2="92.75" gradientUnits="userSpaceOnUse">
<stop stop-color="white" stop-opacity="0.5"/>
<stop offset="1" stop-color="white"/>
</linearGradient>
</defs>
</svg>
