<svg width="70" height="69" viewBox="0 0 70 69" fill="none" xmlns="http://www.w3.org/2000/svg">
<path d="M4.3928 46.8135L2.41974 47.1406L2.41979 47.141L4.3928 46.8135ZM8.8908 51.2624L9.12864 49.2766L9.12388 49.276L8.8908 51.2624ZM61.0936 51.2572L61.3295 53.2432L61.3301 53.2431L61.0936 51.2572ZM65.602 46.803L67.5757 47.1262L67.5758 47.1257L65.602 46.803ZM65.8568 7.96913L67.8095 7.53638L67.8068 7.52487L65.8568 7.96913ZM61.6136 4.18339L61.3896 6.17083L61.3993 6.17187L61.6136 4.18339ZM35 2.75264V4.75266L35.0096 4.75261L35 2.75264ZM8.324 4.15206L8.56434 6.1376L8.57671 6.13603L8.324 4.15206ZM4.1484 7.91169L2.20012 7.45977L2.19862 7.46634L4.1484 7.91169ZM27.9228 52.6096V50.6096H26.3997L25.9948 52.0778L27.9228 52.6096ZM42.072 52.6096L44 52.0778L43.5951 50.6096H42.072V52.6096ZM45.972 66.75V68.75H48.5983L47.9 66.2182L45.972 66.75ZM24.0228 66.75L22.0758 66.2925L21.4984 68.75H24.0228V66.75ZM22.1172 22.5652C22.8966 21.7826 22.8939 20.5162 22.1113 19.7368C21.3286 18.9574 20.0623 18.96 19.2828 19.7427L22.1172 22.5652ZM12.9 28.9865L11.4828 27.5753C10.7057 28.3556 10.7057 29.6174 11.4828 30.3978L12.9 28.9865ZM19.2828 38.2304C20.0623 39.0131 21.3286 39.0157 22.1113 38.2363C22.8939 37.4569 22.8966 36.1905 22.1172 35.4079L19.2828 38.2304ZM50.7172 19.7427C49.9377 18.96 48.6714 18.9574 47.8887 19.7368C47.1061 20.5162 47.1034 21.7826 47.8828 22.5652L50.7172 19.7427ZM57.1 28.9865L58.5172 30.3978C59.2943 29.6174 59.2943 28.3556 58.5172 27.5753L57.1 28.9865ZM47.8828 35.4079C47.1034 36.1905 47.1061 37.4569 47.8887 38.2363C48.6714 39.0157 49.9377 39.0131 50.7172 38.2304L47.8828 35.4079ZM29.2018 38.7999C28.8539 39.8482 29.4216 40.9801 30.4699 41.3281C31.5182 41.6761 32.6502 41.1084 32.9982 40.0601L29.2018 38.7999ZM40.7982 16.5623C41.1461 15.514 40.5784 14.3821 39.5301 14.0341C38.4818 13.6861 37.3498 14.2538 37.0018 15.3022L40.7982 16.5623ZM44.596 52.1514C44.343 51.0762 43.2662 50.4097 42.191 50.6628C41.1158 50.9158 40.4493 51.9926 40.7024 53.0678L44.596 52.1514ZM45.9772 66.75V68.75C46.5882 68.75 47.1657 68.4707 47.5451 67.9917C47.9244 67.5127 48.064 66.8866 47.924 66.2918L45.9772 66.75ZM29.2926 53.0671C29.5452 51.9918 28.8784 50.9153 27.8031 50.6626C26.7278 50.4099 25.6513 51.0768 25.3986 52.1521L29.2926 53.0671ZM15.5416 64.75C14.437 64.75 13.5416 65.6454 13.5416 66.75C13.5416 67.8546 14.437 68.75 15.5416 68.75V64.75ZM54.4636 68.75C55.5682 68.75 56.4636 67.8546 56.4636 66.75C56.4636 65.6454 55.5682 64.75 54.4636 64.75V68.75ZM4.3928 46.8135L2.41979 47.141C2.93674 50.2556 5.37861 52.864 8.65771 53.2488L8.8908 51.2624L9.12388 49.276C7.77499 49.1177 6.61846 48.0083 6.36581 46.486L4.3928 46.8135ZM8.8908 51.2624L8.65296 53.2482C17.0418 54.2529 25.9511 54.6096 35 54.6096V52.6096V50.6096C26.0465 50.6096 17.307 50.2561 9.12864 49.2766L8.8908 51.2624ZM35 52.6096V54.6096C44.0718 54.6096 52.8288 54.2527 61.3295 53.2432L61.0936 51.2572L60.8577 49.2711C52.5624 50.2563 43.9722 50.6096 35 50.6096V52.6096ZM61.0936 51.2572L61.3301 53.2431C64.6109 52.8525 67.0641 50.2508 67.5757 47.1262L65.602 46.803L63.6283 46.4799C63.3807 47.9921 62.2251 49.1083 60.8571 49.2712L61.0936 51.2572ZM65.602 46.803L67.5758 47.1257C68.43 41.901 69.5 36.6156 69.5 27.6811H67.5H65.5C65.5 36.2394 64.49 41.2094 63.6282 46.4803L65.602 46.803ZM67.5 27.6811H69.5C69.5 18.573 69.0448 13.1105 67.8094 7.53639L65.8568 7.96913L63.9042 8.40187C65.0504 13.574 65.5 18.7116 65.5 27.6811H67.5ZM65.8568 7.96913L67.8068 7.52487C67.4878 6.12465 66.7413 4.85795 65.67 3.90206L64.3385 5.39442L63.007 6.88679C63.4569 7.28816 63.7719 7.82161 63.9068 8.41339L65.8568 7.96913ZM64.3385 5.39442L65.67 3.90206C64.5984 2.94606 63.2554 2.34878 61.8279 2.19491L61.6136 4.18339L61.3993 6.17187C61.9951 6.23609 62.5572 6.48553 63.007 6.88679L64.3385 5.39442ZM61.6136 4.18339L61.8376 2.19597C52.924 1.19144 43.9598 0.709517 34.9904 0.752659L35 2.75264L35.0096 4.75261C43.8229 4.71022 52.6312 5.18375 61.3896 6.17081L61.6136 4.18339ZM35 2.75264V0.752636C25.7515 0.752636 16.6352 1.07724 8.07129 2.16809L8.324 4.15206L8.57671 6.13603C16.9024 5.07552 25.8301 4.75264 35 4.75264V2.75264ZM8.324 4.15206L8.08367 2.16655C6.67814 2.33668 5.35989 2.93691 4.30758 3.88439L5.64583 5.3707L6.98407 6.857C7.4258 6.45928 7.97762 6.20858 8.56433 6.13756L8.324 4.15206ZM5.64583 5.3707L4.30758 3.88439C3.25539 4.83177 2.52012 6.08027 2.20013 7.45977L4.1484 7.91169L6.09667 8.36361C6.23191 7.78061 6.54224 7.25482 6.98407 6.857L5.64583 5.3707ZM4.1484 7.91169L2.19862 7.46634C0.90731 13.1197 0.5 18.1524 0.5 27.6811H2.5H4.5C4.5 18.2759 4.90389 13.5857 6.09818 8.35705L4.1484 7.91169ZM2.5 27.6811H0.5C0.5 36.9407 1.57024 42.0171 2.41974 47.1406L4.3928 46.8135L6.36586 46.4863C5.50976 41.3231 4.5 36.5618 4.5 27.6811H2.5ZM27.9228 52.6096V54.6096H42.072V52.6096V50.6096H27.9228V52.6096ZM42.072 52.6096L40.144 53.1413L44.044 67.2818L45.972 66.75L47.9 66.2182L44 52.0778L42.072 52.6096ZM45.972 66.75V64.75H24.0228V66.75V68.75H45.972V66.75ZM24.0228 66.75L25.9508 67.2818L29.8508 53.1413L27.9228 52.6096L25.9948 52.0778L22.0948 66.2182L24.0228 66.75ZM20.7 21.154L19.2828 19.7427L11.4828 27.5753L12.9 28.9865L14.3172 30.3978L22.1172 22.5652L20.7 21.154ZM12.9 28.9865L11.4828 30.3978L19.2828 38.2304L20.7 36.8191L22.1172 35.4079L14.3172 27.5753L12.9 28.9865ZM49.3 21.154L47.8828 22.5652L55.6828 30.3978L57.1 28.9865L58.5172 27.5753L50.7172 19.7427L49.3 21.154ZM57.1 28.9865L55.6828 27.5753L47.8828 35.4079L49.3 36.8191L50.7172 38.2304L58.5172 30.3978L57.1 28.9865ZM31.1 39.43L32.9982 40.0601L40.7982 16.5623L38.9 15.9322L37.0018 15.3022L29.2018 38.7999L31.1 39.43ZM42.6492 52.6096L40.7024 53.0678L44.0304 67.2082L45.9772 66.75L47.924 66.2918L44.596 52.1514L42.6492 52.6096ZM45.9772 66.75V64.75H24.0228V66.75V68.75H45.9772V66.75ZM24.0228 66.75L25.9698 67.2075L29.2926 53.0671L27.3456 52.6096L25.3986 52.1521L22.0758 66.2925L24.0228 66.75ZM15.5416 66.75V68.75H54.4636V66.75V64.75H15.5416V66.75Z" fill="#4147D5"/>
</svg>
